<?xml version="1.0" encoding="UTF-8"?>
<svg width="1321.869626" height="1052.120347"
xmlns="http://www.w3.org/2000/svg" xmlns:svg="http://www.w3.org/2000/svg"
>
<metadata id="metadata7">image/svg+xml</metadata>

<rect
width="443.231963"
height="527.920289"
rx="11.000000"
ry="11.000000"
x="340.500472"
y="322.721712"
id="mitochondrial_inner_membrane"
style="fill:white;fill-opacity:0.900000;stroke:black;stroke-width:5.000000;stroke-opacity:1.000000" />


<text
x="562.116454"
y="314.721712"
id="mitochondrial_inner_membrane"
style="font-size:6.000000px;text-anchor:middle;font-family:Arial,Helvetica;alignment-baseline:baseline;stroke.opacity:1;dominant-baseline:baseline"
fill="black"
>
mitochondrial inner membrane</text>


<rect
width="282.421546"
height="205.994377"
rx="11.000000"
ry="11.000000"
x="100.724023"
y="183.000000"
id="endoplasmic_reticulum_membrane"
style="fill:white;fill-opacity:0.900000;stroke:black;stroke-width:5.000000;stroke-opacity:1.000000" />


<text
x="241.934796"
y="175.000000"
id="endoplasmic_reticulum_membrane"
style="font-size:6.000000px;text-anchor:middle;font-family:Arial,Helvetica;alignment-baseline:baseline;stroke.opacity:1;dominant-baseline:baseline"
fill="black"
>
endoplasmic reticulum membrane</text>


<rect
width="146.391022"
height="231.171450"
rx="11.000000"
ry="11.000000"
x="845.478604"
y="620.948897"
id="mitochondrial_matrix"
style="fill:white;fill-opacity:0.900000;stroke:black;stroke-width:5.000000;stroke-opacity:1.000000" />


<text
x="918.674115"
y="612.948897"
id="mitochondrial_matrix"
style="font-size:6.000000px;text-anchor:middle;font-family:Arial,Helvetica;alignment-baseline:baseline;stroke.opacity:1;dominant-baseline:baseline"
fill="black"
>
mitochondrial matrix</text>


<rect
width="129.010519"
height="80.438942"
rx="11.000000"
ry="11.000000"
x="100.000000"
y="386.427335"
id="cytosol"
style="fill:white;fill-opacity:0.900000;stroke:black;stroke-width:5.000000;stroke-opacity:1.000000" />


<text
x="164.505260"
y="378.427335"
id="cytosol"
style="font-size:6.000000px;text-anchor:middle;font-family:Arial,Helvetica;alignment-baseline:baseline;stroke.opacity:1;dominant-baseline:baseline"
fill="black"
>
cytosol</text>



<path
d="M 696.799102231107 402.283363454779 696.799102231107 484.300030121445 702.299102231107 489.800030121445 767.23243556444 489.800030121445 772.73243556444 484.300030121445 772.73243556444 402.283363454779 767.23243556444 396.783363454779 702.299102231107 396.783363454779 Z"
id="Complex_dd9f40766a5c9d7914d5267eb414cfb9"
style="fill:white;fill-opacity:0.600000;stroke-width:1;stroke:black;stroke-opacity:1.000000"
transform = "rotate(0.000000 0.000000 0.000000)"
/>


<text
x="734.765769"
y="388.783363"
id="Complex_dd9f40766a5c9d7914d5267eb414cfb9"
style="font-size:6.000000px;text-anchor:middle;font-family:Arial,Helvetica;alignment-baseline:baseline;stroke.opacity:1;dominant-baseline:baseline"
fill="black"
>
PLA2G4A:Ca2+</text>


<path
d="M 467.900079745792 743.37533498147 467.900079745792 834.142001648136 473.400079745792 839.642001648136 538.333413079125 839.642001648136 543.833413079125 834.142001648136 543.833413079125 743.37533498147 538.333413079125 737.87533498147 473.400079745792 737.87533498147 Z"
id="Complex_a28bb12363870102e394bc4601a06831"
style="fill:white;fill-opacity:0.600000;stroke-width:1;stroke:black;stroke-opacity:1.000000"
transform = "rotate(0.000000 0.000000 0.000000)"
/>


<text
x="505.866746"
y="729.875335"
id="Complex_a28bb12363870102e394bc4601a06831"
style="font-size:6.000000px;text-anchor:middle;font-family:Arial,Helvetica;alignment-baseline:baseline;stroke.opacity:1;dominant-baseline:baseline"
fill="black"
>
HADH octamer</text>




<ellipse
rx="16.666667"
ry="16.666667"
cx="964.202960"
cy="813.295243"
id="SmallMolecule_4018db05fcabea499ab03ccdabf51c8a"
style="fill:white;fill-opacity:0.000000;stroke:black;stroke-width:1.000000;stroke-opacity:1.000000" />


<text
x="964.202960"
y="815.295243"
id="SmallMolecule_4018db05fcabea499ab03ccdabf51c8a"
style="font-size:6.000000px;text-anchor:middle;font-family:Arial,Helvetica;alignment-baseline:baseline;stroke.opacity:1;dominant-baseline:baseline"
fill="black"
>
CoA</text>



<ellipse
rx="16.666667"
ry="16.666667"
cx="900.895824"
cy="824.453680"
id="SmallMolecule_1458a388968bc01e16b4a85ad3338c08"
style="fill:white;fill-opacity:0.000000;stroke:black;stroke-width:1.000000;stroke-opacity:1.000000" />


<text
x="900.895824"
y="826.453680"
id="SmallMolecule_1458a388968bc01e16b4a85ad3338c08"
style="font-size:6.000000px;text-anchor:middle;font-family:Arial,Helvetica;alignment-baseline:baseline;stroke.opacity:1;dominant-baseline:baseline"
fill="black"
>
acyl-CoA</text>



<ellipse
rx="16.666667"
ry="16.666667"
cx="873.145271"
cy="648.615564"
id="SmallMolecule_57995819b7714ee7448fdfbb0e6ef6bc"
style="fill:white;fill-opacity:0.000000;stroke:black;stroke-width:1.000000;stroke-opacity:1.000000" />


<text
x="873.145271"
y="650.615564"
id="SmallMolecule_57995819b7714ee7448fdfbb0e6ef6bc"
style="font-size:6.000000px;text-anchor:middle;font-family:Arial,Helvetica;alignment-baseline:baseline;stroke.opacity:1;dominant-baseline:baseline"
fill="black"
>
H2O</text>



<ellipse
rx="16.666667"
ry="16.666667"
cx="127.666667"
cy="439.199610"
id="SmallMolecule_51d352a1bc463cba394ef942b51812a0"
style="fill:white;fill-opacity:0.000000;stroke:black;stroke-width:1.000000;stroke-opacity:1.000000" />


<text
x="127.666667"
y="441.199610"
id="SmallMolecule_51d352a1bc463cba394ef942b51812a0"
style="font-size:6.000000px;text-anchor:middle;font-family:Arial,Helvetica;alignment-baseline:baseline;stroke.opacity:1;dominant-baseline:baseline"
fill="black"
>
CoA-SH</text>



<ellipse
rx="16.666667"
ry="16.666667"
cx="201.343852"
cy="414.094001"
id="SmallMolecule_839c02a49861784d8e1e610198a40f9f"
style="fill:white;fill-opacity:0.000000;stroke:black;stroke-width:1.000000;stroke-opacity:1.000000" />


<text
x="201.343852"
y="416.094001"
id="SmallMolecule_839c02a49861784d8e1e610198a40f9f"
style="font-size:6.000000px;text-anchor:middle;font-family:Arial,Helvetica;alignment-baseline:baseline;stroke.opacity:1;dominant-baseline:baseline"
fill="black"
>
acyl-CoA</text>



<ellipse
rx="16.666667"
ry="16.666667"
cx="536.592532"
cy="632.871415"
id="SmallMolecule_2adb983713ea3fb7911be6cc0e7bc057"
style="fill:white;fill-opacity:0.000000;stroke:black;stroke-width:1.000000;stroke-opacity:1.000000" />


<text
x="536.592532"
y="634.871415"
id="SmallMolecule_2adb983713ea3fb7911be6cc0e7bc057"
style="font-size:6.000000px;text-anchor:middle;font-family:Arial,Helvetica;alignment-baseline:baseline;stroke.opacity:1;dominant-baseline:baseline"
fill="black"
>
CL</text>



<rect
width="58.333333"
height="33.333333"
rx="3.333333"
ry="3.333333"
x="705.599102"
y="405.583363"
id="Protein_59eb1ad32c720d76ff886489a238722c_Complex_dd9f40766a5c9d7914d5267eb414cfb9"
style="fill:white;fill-opacity:1.000000;stroke:black;stroke-width:1.000000;stroke-opacity:1.000000" />


<text
x="734.765769"
y="424.250030"
id="Protein_59eb1ad32c720d76ff886489a238722c_Complex_dd9f40766a5c9d7914d5267eb414cfb9"
style="font-size:6.000000px;text-anchor:middle;font-family:Arial,Helvetica;alignment-baseline:baseline;stroke.opacity:1;dominant-baseline:baseline"
fill="black"
>
PLA2G4A</text>


<ellipse
rx="14.583333"
ry="7.291667"
cx="720.182436"
cy="405.583363"
id="Protein_59eb1ad32c720d76ff886489a238722c_Complex_dd9f40766a5c9d7914d5267eb414cfb9.info.1"
style="fill:white;fill-opacity:1.000000;stroke:black;stroke-width:1.000000;stroke-opacity:1.000000" />


<text
x="720.182436"
y="407.583363"
id="Protein_59eb1ad32c720d76ff886489a238722c_Complex_dd9f40766a5c9d7914d5267eb414cfb9.info.1"
style="font-size:6.000000px;text-anchor:middle;font-family:Arial,Helvetica;alignment-baseline:baseline;stroke.opacity:1;dominant-baseline:baseline"
fill="black"
>
x[1-749]</text>



<ellipse
rx="16.666667"
ry="16.666667"
cx="722.265769"
cy="464.333363"
id="SmallMolecule_de88022fbee27c1a0cd706bfbf1e5f7c_Complex_dd9f40766a5c9d7914d5267eb414cfb9"
style="fill:white;fill-opacity:0.000000;stroke:black;stroke-width:1.000000;stroke-opacity:1.000000" />


<text
x="722.265769"
y="466.333363"
id="SmallMolecule_de88022fbee27c1a0cd706bfbf1e5f7c_Complex_dd9f40766a5c9d7914d5267eb414cfb9"
style="font-size:6.000000px;text-anchor:middle;font-family:Arial,Helvetica;alignment-baseline:baseline;stroke.opacity:1;dominant-baseline:baseline"
fill="black"
>
Ca2+</text>



<ellipse
rx="16.666667"
ry="16.666667"
cx="546.986532"
cy="403.334592"
id="SmallMolecule_66a8cdd00a0a9af2db3dc4b8333b32e0"
style="fill:white;fill-opacity:0.000000;stroke:black;stroke-width:1.000000;stroke-opacity:1.000000" />


<text
x="546.986532"
y="405.334592"
id="SmallMolecule_66a8cdd00a0a9af2db3dc4b8333b32e0"
style="font-size:6.000000px;text-anchor:middle;font-family:Arial,Helvetica;alignment-baseline:baseline;stroke.opacity:1;dominant-baseline:baseline"
fill="black"
>
PE</text>



<rect
width="58.333333"
height="33.333333"
rx="3.333333"
ry="3.333333"
x="476.700080"
y="746.675335"
id="Protein_579b23c9edfc8a882fc377c5cadbc02f_Complex_a28bb12363870102e394bc4601a06831"
style="fill:white;fill-opacity:1.000000;stroke:black;stroke-width:1.000000;stroke-opacity:1.000000" />


<text
x="505.866746"
y="765.342002"
id="Protein_579b23c9edfc8a882fc377c5cadbc02f_Complex_a28bb12363870102e394bc4601a06831"
style="font-size:6.000000px;text-anchor:middle;font-family:Arial,Helvetica;alignment-baseline:baseline;stroke.opacity:1;dominant-baseline:baseline"
fill="black"
>
HADHA</text>


<ellipse
rx="14.583333"
ry="7.291667"
cx="491.283413"
cy="746.675335"
id="Protein_579b23c9edfc8a882fc377c5cadbc02f_Complex_a28bb12363870102e394bc4601a06831.info.1"
style="fill:white;fill-opacity:1.000000;stroke:black;stroke-width:1.000000;stroke-opacity:1.000000" />


<text
x="491.283413"
y="748.675335"
id="Protein_579b23c9edfc8a882fc377c5cadbc02f_Complex_a28bb12363870102e394bc4601a06831.info.1"
style="font-size:6.000000px;text-anchor:middle;font-family:Arial,Helvetica;alignment-baseline:baseline;stroke.opacity:1;dominant-baseline:baseline"
fill="black"
>
x[37-763]</text>



<rect
width="58.333333"
height="33.333333"
rx="3.333333"
ry="3.333333"
x="476.700080"
y="797.508668"
id="Protein_0d33b369c0f75d201a8c0020f37b7ceb_Complex_a28bb12363870102e394bc4601a06831"
style="fill:white;fill-opacity:1.000000;stroke:black;stroke-width:1.000000;stroke-opacity:1.000000" />


<text
x="505.866746"
y="816.175335"
id="Protein_0d33b369c0f75d201a8c0020f37b7ceb_Complex_a28bb12363870102e394bc4601a06831"
style="font-size:6.000000px;text-anchor:middle;font-family:Arial,Helvetica;alignment-baseline:baseline;stroke.opacity:1;dominant-baseline:baseline"
fill="black"
>
HADHB</text>


<ellipse
rx="14.583333"
ry="7.291667"
cx="491.283413"
cy="797.508668"
id="Protein_0d33b369c0f75d201a8c0020f37b7ceb_Complex_a28bb12363870102e394bc4601a06831.info.1"
style="fill:white;fill-opacity:1.000000;stroke:black;stroke-width:1.000000;stroke-opacity:1.000000" />


<text
x="491.283413"
y="799.508668"
id="Protein_0d33b369c0f75d201a8c0020f37b7ceb_Complex_a28bb12363870102e394bc4601a06831.info.1"
style="font-size:6.000000px;text-anchor:middle;font-family:Arial,Helvetica;alignment-baseline:baseline;stroke.opacity:1;dominant-baseline:baseline"
fill="black"
>
x[34-474]</text>



<ellipse
rx="16.666667"
ry="16.666667"
cx="429.951535"
cy="611.406301"
id="SmallMolecule_6f0b146465010c830d215ea960c8164d"
style="fill:white;fill-opacity:0.000000;stroke:black;stroke-width:1.000000;stroke-opacity:1.000000" />


<text
x="429.951535"
y="613.406301"
id="SmallMolecule_6f0b146465010c830d215ea960c8164d"
style="font-size:6.000000px;text-anchor:middle;font-family:Arial,Helvetica;alignment-baseline:baseline;stroke.opacity:1;dominant-baseline:baseline"
fill="black"
>
PC</text>



<rect
width="58.333333"
height="33.333333"
rx="3.333333"
ry="3.333333"
x="711.246268"
y="665.460105"
id="Protein_8402c6899a22fa129440cf0a592272bb"
style="fill:white;fill-opacity:1.000000;stroke:black;stroke-width:1.000000;stroke-opacity:1.000000" />


<text
x="740.412935"
y="684.126772"
id="Protein_8402c6899a22fa129440cf0a592272bb"
style="font-size:6.000000px;text-anchor:middle;font-family:Arial,Helvetica;alignment-baseline:baseline;stroke.opacity:1;dominant-baseline:baseline"
fill="black"
>
PLA2G6</text>


<ellipse
rx="14.583333"
ry="7.291667"
cx="725.829602"
cy="665.460105"
id="Protein_8402c6899a22fa129440cf0a592272bb.info.1"
style="fill:white;fill-opacity:1.000000;stroke:black;stroke-width:1.000000;stroke-opacity:1.000000" />


<text
x="725.829602"
y="667.460105"
id="Protein_8402c6899a22fa129440cf0a592272bb.info.1"
style="font-size:6.000000px;text-anchor:middle;font-family:Arial,Helvetica;alignment-baseline:baseline;stroke.opacity:1;dominant-baseline:baseline"
fill="black"
>
x[1-806]</text>



<ellipse
rx="16.666667"
ry="16.666667"
cx="628.552749"
cy="452.636647"
id="SmallMolecule_b3d310016e345ceb9d5e6d10e626c26d"
style="fill:white;fill-opacity:0.000000;stroke:black;stroke-width:1.000000;stroke-opacity:1.000000" />


<text
x="628.552749"
y="454.636647"
id="SmallMolecule_b3d310016e345ceb9d5e6d10e626c26d"
style="font-size:6.000000px;text-anchor:middle;font-family:Arial,Helvetica;alignment-baseline:baseline;stroke.opacity:1;dominant-baseline:baseline"
fill="black"
>
DLCL</text>



<rect
width="58.333333"
height="33.333333"
rx="3.333333"
ry="3.333333"
x="366.508970"
y="412.321904"
id="Protein_1c56ae65c2b53707029144da4f440ef1"
style="fill:white;fill-opacity:1.000000;stroke:black;stroke-width:1.000000;stroke-opacity:1.000000" />


<text
x="395.675637"
y="430.988570"
id="Protein_1c56ae65c2b53707029144da4f440ef1"
style="font-size:6.000000px;text-anchor:middle;font-family:Arial,Helvetica;alignment-baseline:baseline;stroke.opacity:1;dominant-baseline:baseline"
fill="black"
>
TAZ</text>


<ellipse
rx="14.583333"
ry="7.291667"
cx="381.092303"
cy="412.321904"
id="Protein_1c56ae65c2b53707029144da4f440ef1.info.1"
style="fill:white;fill-opacity:1.000000;stroke:black;stroke-width:1.000000;stroke-opacity:1.000000" />


<text
x="381.092303"
y="414.321904"
id="Protein_1c56ae65c2b53707029144da4f440ef1.info.1"
style="font-size:6.000000px;text-anchor:middle;font-family:Arial,Helvetica;alignment-baseline:baseline;stroke.opacity:1;dominant-baseline:baseline"
fill="black"
>
x[1-292]</text>



<ellipse
rx="16.666667"
ry="16.666667"
cx="722.044223"
cy="616.741071"
id="SmallMolecule_b8b6609668c1e76c900aa2dbdddb3541"
style="fill:white;fill-opacity:0.000000;stroke:black;stroke-width:1.000000;stroke-opacity:1.000000" />


<text
x="722.044223"
y="618.741071"
id="SmallMolecule_b8b6609668c1e76c900aa2dbdddb3541"
style="font-size:6.000000px;text-anchor:middle;font-family:Arial,Helvetica;alignment-baseline:baseline;stroke.opacity:1;dominant-baseline:baseline"
fill="black"
>
LCFA(-)</text>



<ellipse
rx="16.666667"
ry="16.666667"
cx="477.178269"
cy="383.039445"
id="SmallMolecule_ef23b0a973921faf408769011e2ae6f0"
style="fill:white;fill-opacity:0.000000;stroke:black;stroke-width:1.000000;stroke-opacity:1.000000" />


<text
x="477.178269"
y="385.039445"
id="SmallMolecule_ef23b0a973921faf408769011e2ae6f0"
style="font-size:6.000000px;text-anchor:middle;font-family:Arial,Helvetica;alignment-baseline:baseline;stroke.opacity:1;dominant-baseline:baseline"
fill="black"
>
1-acyl LPE</text>



<ellipse
rx="16.666667"
ry="16.666667"
cx="601.812881"
cy="587.309000"
id="SmallMolecule_6393df26d56145268114ec58e029b641"
style="fill:white;fill-opacity:0.000000;stroke:black;stroke-width:1.000000;stroke-opacity:1.000000" />


<text
x="601.812881"
y="589.309000"
id="SmallMolecule_6393df26d56145268114ec58e029b641"
style="font-size:6.000000px;text-anchor:middle;font-family:Arial,Helvetica;alignment-baseline:baseline;stroke.opacity:1;dominant-baseline:baseline"
fill="black"
>
MLCL</text>



<ellipse
rx="16.666667"
ry="16.666667"
cx="368.167139"
cy="544.010324"
id="SmallMolecule_632eaa0e8f480942f53a2db8a532c576"
style="fill:white;fill-opacity:0.000000;stroke:black;stroke-width:1.000000;stroke-opacity:1.000000" />


<text
x="368.167139"
y="546.010324"
id="SmallMolecule_632eaa0e8f480942f53a2db8a532c576"
style="font-size:6.000000px;text-anchor:middle;font-family:Arial,Helvetica;alignment-baseline:baseline;stroke.opacity:1;dominant-baseline:baseline"
fill="black"
>
1-acyl LPC</text>


<rect
width="16.666667"
height="16.666667"
rx="0.000000"
ry="0.000000"
x="420.469994"
y="508.590520"
id="reactome_R-HSA-1482857_LEFT_TO_RIGHT"
style="fill:white;fill-opacity:0.600000;stroke:black;stroke-width:1.000000;stroke-opacity:1.000000" />



<rect
width="16.666667"
height="16.666667"
rx="0.000000"
ry="0.000000"
x="612.473580"
y="677.126757"
id="reactome_R-HSA-1482778_LEFT_TO_RIGHT"
style="fill:white;fill-opacity:0.600000;stroke:black;stroke-width:1.000000;stroke-opacity:1.000000" />



<rect
width="16.666667"
height="16.666667"
rx="0.000000"
ry="0.000000"
x="452.126915"
y="522.541154"
id="reactome_R-HSA-1482794_LEFT_TO_RIGHT"
style="fill:white;fill-opacity:0.600000;stroke:black;stroke-width:1.000000;stroke-opacity:1.000000" />



<rect
width="16.666667"
height="16.666667"
rx="0.000000"
ry="0.000000"
x="361.810127"
y="494.163937"
id="reactome_R-HSA-1482773_LEFT_TO_RIGHT"
style="fill:white;fill-opacity:0.600000;stroke:black;stroke-width:1.000000;stroke-opacity:1.000000" />



<rect
width="16.666667"
height="16.666667"
rx="0.000000"
ry="0.000000"
x="549.223750"
y="333.721712"
id="reactome_R-HSA-1482860_LEFT_TO_RIGHT"
style="fill:white;fill-opacity:0.600000;stroke:black;stroke-width:1.000000;stroke-opacity:1.000000" />



<rect
width="16.666667"
height="16.666667"
rx="0.000000"
ry="0.000000"
x="525.669158"
y="448.746613"
id="reactome_R-HSA-1482894_LEFT_TO_RIGHT"
style="fill:white;fill-opacity:0.600000;stroke:black;stroke-width:1.000000;stroke-opacity:1.000000" />



<rect
width="16.666667"
height="16.666667"
rx="0.000000"
ry="0.000000"
x="686.158284"
y="570.462599"
id="reactome_R-HSA-1482759_LEFT_TO_RIGHT"
style="fill:white;fill-opacity:0.600000;stroke:black;stroke-width:1.000000;stroke-opacity:1.000000" />



<rect
width="16.666667"
height="16.666667"
rx="0.000000"
ry="0.000000"
x="668.044524"
y="751.871387"
id="reactome_R-HSA-1482775_LEFT_TO_RIGHT"
style="fill:white;fill-opacity:0.600000;stroke:black;stroke-width:1.000000;stroke-opacity:1.000000" />




<ellipse
rx="16.666667"
ry="16.666667"
cx="314.395302"
cy="337.270987"
id="SmallMolecule_cff6c392c0452703e1c2326740c7bf40"
style="fill:white;fill-opacity:0.000000;stroke:black;stroke-width:1.000000;stroke-opacity:1.000000" />


<text
x="314.395302"
y="339.270987"
id="SmallMolecule_cff6c392c0452703e1c2326740c7bf40"
style="font-size:6.000000px;text-anchor:middle;font-family:Arial,Helvetica;alignment-baseline:baseline;stroke.opacity:1;dominant-baseline:baseline"
fill="black"
>
CL</text>



<rect
width="58.333333"
height="33.333333"
rx="3.333333"
ry="3.333333"
x="111.724023"
y="194.000000"
id="Protein_fe582c68a74150d1ccd75b38c6d87ecd"
style="fill:white;fill-opacity:1.000000;stroke:black;stroke-width:1.000000;stroke-opacity:1.000000" />


<text
x="140.890690"
y="212.666667"
id="Protein_fe582c68a74150d1ccd75b38c6d87ecd"
style="font-size:6.000000px;text-anchor:middle;font-family:Arial,Helvetica;alignment-baseline:baseline;stroke.opacity:1;dominant-baseline:baseline"
fill="black"
>
LCLAT1</text>


<ellipse
rx="14.583333"
ry="7.291667"
cx="126.307357"
cy="194.000000"
id="Protein_fe582c68a74150d1ccd75b38c6d87ecd.info.1"
style="fill:white;fill-opacity:1.000000;stroke:black;stroke-width:1.000000;stroke-opacity:1.000000" />


<text
x="126.307357"
y="196.000000"
id="Protein_fe582c68a74150d1ccd75b38c6d87ecd.info.1"
style="font-size:6.000000px;text-anchor:middle;font-family:Arial,Helvetica;alignment-baseline:baseline;stroke.opacity:1;dominant-baseline:baseline"
fill="black"
>
x[1-414]</text>



<ellipse
rx="16.666667"
ry="16.666667"
cx="355.478902"
cy="265.915739"
id="SmallMolecule_998842772b0658e9bd93aa645a3928a6"
style="fill:white;fill-opacity:0.000000;stroke:black;stroke-width:1.000000;stroke-opacity:1.000000" />


<text
x="355.478902"
y="267.915739"
id="SmallMolecule_998842772b0658e9bd93aa645a3928a6"
style="font-size:6.000000px;text-anchor:middle;font-family:Arial,Helvetica;alignment-baseline:baseline;stroke.opacity:1;dominant-baseline:baseline"
fill="black"
>
DLCL</text>



<ellipse
rx="16.666667"
ry="16.666667"
cx="263.367514"
cy="361.327710"
id="SmallMolecule_5a41d61ccf423f0aac2bf1a00c8089ab"
style="fill:white;fill-opacity:0.000000;stroke:black;stroke-width:1.000000;stroke-opacity:1.000000" />


<text
x="263.367514"
y="363.327710"
id="SmallMolecule_5a41d61ccf423f0aac2bf1a00c8089ab"
style="font-size:6.000000px;text-anchor:middle;font-family:Arial,Helvetica;alignment-baseline:baseline;stroke.opacity:1;dominant-baseline:baseline"
fill="black"
>
MLCL</text>


<rect
width="16.666667"
height="16.666667"
rx="0.000000"
ry="0.000000"
x="246.209427"
y="238.282107"
id="reactome_R-HSA-1482867_LEFT_TO_RIGHT"
style="fill:white;fill-opacity:0.600000;stroke:black;stroke-width:1.000000;stroke-opacity:1.000000" />



<rect
width="16.666667"
height="16.666667"
rx="0.000000"
ry="0.000000"
x="207.175212"
y="263.019965"
id="reactome_R-HSA-1482861_LEFT_TO_RIGHT"
style="fill:white;fill-opacity:0.600000;stroke:black;stroke-width:1.000000;stroke-opacity:1.000000" />





<path d="M420.000000 509.000000 C 406.000000 498.000000, 380.000000 473.000000,363.000000 448.000000" stroke="black"  fill="transparent"/>
<path d="M363.000000 448.000000 C 342.000000 417.000000, 327.000000 376.000000,319.000000 354.000000" stroke="black"  fill="transparent"/>

<line
x1="327" y1="376" x2="319" y2="354"
id="0"
style="stroke:black;stroke-width:1.000000;stroke-opacity:0" />


<line
x1="406" y1="498" x2="420" y2="509"
id="SmallMolecule_cff6c392c0452703e1c2326740c7bf40--to--reactome_R-HSA-1482857_LEFT_TO_RIGHT-input"
style="stroke:black;stroke-width:1.000000;stroke-opacity:0" />


<path d="M884.000000 819.000000 C 839.000000 806.000000, 718.000000 772.000000,684.000000 762.000000" stroke="black"  fill="transparent"/>

<line
x1="839" y1="806" x2="884" y2="819"
id="0"
style="stroke:black;stroke-width:1.000000;stroke-opacity:0" />


<line
x1="718" y1="772" x2="684" y2="762"
id="SmallMolecule_1458a388968bc01e16b4a85ad3338c08--to--reactome_R-HSA-1482775_LEFT_TO_RIGHT-input"
style="stroke:black;stroke-width:1.000000;stroke-opacity:0" />


<path d="M170.000000 219.000000 C 195.000000 227.000000, 230.000000 238.000000,246.000000 243.000000" stroke="black"  fill="transparent"/>

<line
x1="195" y1="227" x2="170" y2="219"
id="0"
style="stroke:black;stroke-width:1.000000;stroke-opacity:0" />


<line
x1="230" y1="238" x2="246" y2="243"
id="Protein_fe582c68a74150d1ccd75b38c6d87ecd--to--reactome_R-HSA-1482867_LEFT_TO_RIGHT"
style="stroke:black;stroke-width:1.000000;stroke-opacity:0" />


<ellipse
rx="4.400000"
ry="4.400000"
cx="241.800288"
cy="241.687590"
id="Protein_fe582c68a74150d1ccd75b38c6d87ecd--to--reactome_R-HSA-1482867_LEFT_TO_RIGHT"
style="fill:white;fill-opacity:0.800000;stroke:black;stroke-width:1.000000;stroke-opacity:1.000000" />


<path d="M406.000000 445.000000 C 420.000000 467.000000, 444.000000 505.000000,454.000000 522.000000" stroke="black"  fill="transparent"/>

<line
x1="420" y1="467" x2="406" y2="445"
id="0"
style="stroke:black;stroke-width:1.000000;stroke-opacity:0" />


<line
x1="444" y1="505" x2="454" y2="522"
id="Protein_1c56ae65c2b53707029144da4f440ef1--to--reactome_R-HSA-1482794_LEFT_TO_RIGHT"
style="stroke:black;stroke-width:1.000000;stroke-opacity:0" />


<ellipse
rx="4.400000"
ry="4.400000"
cx="451.769111"
cy="518.207489"
id="Protein_1c56ae65c2b53707029144da4f440ef1--to--reactome_R-HSA-1482794_LEFT_TO_RIGHT"
style="fill:white;fill-opacity:0.800000;stroke:black;stroke-width:1.000000;stroke-opacity:1.000000" />


<path d="M536.000000 616.000000 C 535.000000 579.000000, 534.000000 493.000000,534.000000 465.000000" stroke="black"  fill="transparent"/>

<line
x1="535" y1="579" x2="536" y2="616"
id="0"
style="stroke:black;stroke-width:1.000000;stroke-opacity:0" />


<line
x1="534" y1="493" x2="534" y2="465"
id="SmallMolecule_2adb983713ea3fb7911be6cc0e7bc057--to--reactome_R-HSA-1482894_LEFT_TO_RIGHT-input"
style="stroke:black;stroke-width:1.000000;stroke-opacity:0" />


<path d="M947.000000 809.000000 C 939.000000 808.000000, 929.000000 806.000000,920.000000 804.000000" stroke="black"  fill="transparent"/>
<path d="M920.000000 804.000000 C 828.000000 787.000000, 717.000000 767.000000,685.000000 761.000000" stroke="black"  fill="transparent"/>

<line
x1="717" y1="767" x2="685" y2="761"
id="0"
style="stroke:black;stroke-width:1.000000;stroke-opacity:0" />


<line
x1="939" y1="808" x2="947" y2="809"
id="reactome_R-HSA-1482775_LEFT_TO_RIGHT-output--to--SmallMolecule_4018db05fcabea499ab03ccdabf51c8a"
style="stroke:black;stroke-width:1.000000;stroke-opacity:0" />


<polygon
points = "947,809 938.2,804.6 938.2,813.4"
id="line"
style="fill:black; stroke:#000000; stroke-width:1"
transform = "rotate(7.125016 947.000000 809.000000)"
/>


<path d="M856.000000 649.000000 C 826.000000 650.000000, 762.000000 653.000000,708.000000 662.000000" stroke="black"  fill="transparent"/>
<path d="M708.000000 662.000000 C 678.000000 667.000000, 644.000000 677.000000,629.000000 682.000000" stroke="black"  fill="transparent"/>

<line
x1="826" y1="650" x2="856" y2="649"
id="0"
style="stroke:black;stroke-width:1.000000;stroke-opacity:0" />


<line
x1="644" y1="677" x2="629" y2="682"
id="SmallMolecule_57995819b7714ee7448fdfbb0e6ef6bc--to--reactome_R-HSA-1482778_LEFT_TO_RIGHT-input"
style="stroke:black;stroke-width:1.000000;stroke-opacity:0" />


<path d="M136.000000 422.000000 C 154.000000 387.000000, 196.000000 306.000000,210.000000 280.000000" stroke="black"  fill="transparent"/>

<line
x1="196" y1="306" x2="210" y2="280"
id="0"
style="stroke:black;stroke-width:1.000000;stroke-opacity:0" />


<line
x1="154" y1="387" x2="136" y2="422"
id="reactome_R-HSA-1482861_LEFT_TO_RIGHT-output--to--SmallMolecule_51d352a1bc463cba394ef942b51812a0"
style="stroke:black;stroke-width:1.000000;stroke-opacity:0" />


<polygon
points = "136,422 127.2,417.6 127.2,426.4"
id="line"
style="fill:black; stroke:#000000; stroke-width:1"
transform = "rotate(117.216112 136.000000 422.000000)"
/>


<path d="M542.000000 420.000000 C 540.000000 429.000000, 537.000000 440.000000,536.000000 448.000000" stroke="black"  fill="transparent"/>

<line
x1="537" y1="440" x2="536" y2="448"
id="0"
style="stroke:black;stroke-width:1.000000;stroke-opacity:0" />


<line
x1="540" y1="429" x2="542" y2="420"
id="reactome_R-HSA-1482894_LEFT_TO_RIGHT-output--to--SmallMolecule_66a8cdd00a0a9af2db3dc4b8333b32e0"
style="stroke:black;stroke-width:1.000000;stroke-opacity:0" />


<polygon
points = "542,420 533.2,415.6 533.2,424.4"
id="line"
style="fill:black; stroke:#000000; stroke-width:1"
transform = "rotate(-77.471192 542.000000 420.000000)"
/>


<path d="M605.000000 603.000000 C 609.000000 624.000000, 615.000000 660.000000,619.000000 676.000000" stroke="black"  fill="transparent"/>

<line
x1="615" y1="660" x2="619" y2="676"
id="0"
style="stroke:black;stroke-width:1.000000;stroke-opacity:0" />


<line
x1="609" y1="624" x2="605" y2="603"
id="reactome_R-HSA-1482778_LEFT_TO_RIGHT-output--to--SmallMolecule_6393df26d56145268114ec58e029b641"
style="stroke:black;stroke-width:1.000000;stroke-opacity:0" />


<polygon
points = "605,603 596.2,598.6 596.2,607.4"
id="line"
style="fill:black; stroke:#000000; stroke-width:1"
transform = "rotate(259.215702 605.000000 603.000000)"
/>


<path d="M720.000000 489.000000 C 712.000000 519.000000, 701.000000 554.000000,697.000000 570.000000" stroke="black"  fill="transparent"/>

<line
x1="712" y1="519" x2="720" y2="489"
id="0"
style="stroke:black;stroke-width:1.000000;stroke-opacity:0" />


<line
x1="701" y1="554" x2="697" y2="570"
id="Complex_dd9f40766a5c9d7914d5267eb414cfb9--to--reactome_R-HSA-1482759_LEFT_TO_RIGHT"
style="stroke:black;stroke-width:1.000000;stroke-opacity:0" />


<ellipse
rx="4.400000"
ry="4.400000"
cx="698.067157"
cy="565.731373"
id="Complex_dd9f40766a5c9d7914d5267eb414cfb9--to--reactome_R-HSA-1482759_LEFT_TO_RIGHT"
style="fill:white;fill-opacity:0.800000;stroke:black;stroke-width:1.000000;stroke-opacity:1.000000" />


<path d="M548.000000 338.000000 C 517.000000 327.000000, 413.000000 287.000000,372.000000 272.000000" stroke="black"  fill="transparent"/>

<line
x1="517" y1="327" x2="548" y2="338"
id="0"
style="stroke:black;stroke-width:1.000000;stroke-opacity:0" />


<line
x1="413" y1="287" x2="372" y2="272"
id="reactome_R-HSA-1482860_LEFT_TO_RIGHT-output--to--SmallMolecule_998842772b0658e9bd93aa645a3928a6"
style="stroke:black;stroke-width:1.000000;stroke-opacity:0" />


<polygon
points = "372,272 363.2,267.6 363.2,276.4"
id="line"
style="fill:black; stroke:#000000; stroke-width:1"
transform = "rotate(200.095231 372.000000 272.000000)"
/>


<path d="M524.000000 616.000000 C 507.000000 594.000000, 479.000000 556.000000,466.000000 539.000000" stroke="black"  fill="transparent"/>

<line
x1="507" y1="594" x2="524" y2="616"
id="0"
style="stroke:black;stroke-width:1.000000;stroke-opacity:0" />


<line
x1="479" y1="556" x2="466" y2="539"
id="SmallMolecule_2adb983713ea3fb7911be6cc0e7bc057--to--reactome_R-HSA-1482794_LEFT_TO_RIGHT-input"
style="stroke:black;stroke-width:1.000000;stroke-opacity:0" />


<path d="M384.000000 541.000000 C 404.000000 538.000000, 436.000000 534.000000,451.000000 532.000000" stroke="black"  fill="transparent"/>

<line
x1="404" y1="538" x2="384" y2="541"
id="0"
style="stroke:black;stroke-width:1.000000;stroke-opacity:0" />


<line
x1="436" y1="534" x2="451" y2="532"
id="SmallMolecule_632eaa0e8f480942f53a2db8a532c576--to--reactome_R-HSA-1482794_LEFT_TO_RIGHT-input"
style="stroke:black;stroke-width:1.000000;stroke-opacity:0" />


<path d="M298.000000 326.000000 C 276.000000 312.000000, 240.000000 287.000000,223.000000 276.000000" stroke="black"  fill="transparent"/>

<line
x1="240" y1="287" x2="223" y2="276"
id="0"
style="stroke:black;stroke-width:1.000000;stroke-opacity:0" />


<line
x1="276" y1="312" x2="298" y2="326"
id="reactome_R-HSA-1482861_LEFT_TO_RIGHT-output--to--SmallMolecule_cff6c392c0452703e1c2326740c7bf40"
style="stroke:black;stroke-width:1.000000;stroke-opacity:0" />


<polygon
points = "298,326 289.2,321.6 289.2,330.4"
id="line"
style="fill:black; stroke:#000000; stroke-width:1"
transform = "rotate(32.471192 298.000000 326.000000)"
/>


<path d="M519.000000 616.000000 C 501.000000 599.000000, 472.000000 569.000000,448.000000 542.000000" stroke="black"  fill="transparent"/>
<path d="M448.000000 542.000000 C 444.000000 537.000000, 439.000000 530.000000,435.000000 525.000000" stroke="black"  fill="transparent"/>

<line
x1="439" y1="530" x2="435" y2="525"
id="0"
style="stroke:black;stroke-width:1.000000;stroke-opacity:0" />


<line
x1="501" y1="599" x2="519" y2="616"
id="reactome_R-HSA-1482857_LEFT_TO_RIGHT-output--to--SmallMolecule_2adb983713ea3fb7911be6cc0e7bc057"
style="stroke:black;stroke-width:1.000000;stroke-opacity:0" />


<polygon
points = "519,616 510.2,611.6 510.2,620.4"
id="line"
style="fill:black; stroke:#000000; stroke-width:1"
transform = "rotate(43.363423 519.000000 616.000000)"
/>


<path d="M552.000000 647.000000 C 582.000000 674.000000, 645.000000 731.000000,667.000000 752.000000" stroke="black"  fill="transparent"/>

<line
x1="645" y1="731" x2="667" y2="752"
id="0"
style="stroke:black;stroke-width:1.000000;stroke-opacity:0" />


<line
x1="582" y1="674" x2="552" y2="647"
id="reactome_R-HSA-1482775_LEFT_TO_RIGHT-output--to--SmallMolecule_2adb983713ea3fb7911be6cc0e7bc057"
style="stroke:black;stroke-width:1.000000;stroke-opacity:0" />


<polygon
points = "552,647 543.2,642.6 543.2,651.4"
id="line"
style="fill:black; stroke:#000000; stroke-width:1"
transform = "rotate(221.987212 552.000000 647.000000)"
/>


<path d="M436.000000 594.000000 C 442.000000 577.000000, 452.000000 552.000000,457.000000 539.000000" stroke="black"  fill="transparent"/>

<line
x1="452" y1="552" x2="457" y2="539"
id="0"
style="stroke:black;stroke-width:1.000000;stroke-opacity:0" />


<line
x1="442" y1="577" x2="436" y2="594"
id="reactome_R-HSA-1482794_LEFT_TO_RIGHT-output--to--SmallMolecule_6f0b146465010c830d215ea960c8164d"
style="stroke:black;stroke-width:1.000000;stroke-opacity:0" />


<polygon
points = "436,594 427.2,589.6 427.2,598.4"
id="line"
style="fill:black; stroke:#000000; stroke-width:1"
transform = "rotate(109.440035 436.000000 594.000000)"
/>


<path d="M618.000000 585.000000 C 638.000000 583.000000, 670.000000 580.000000,685.000000 579.000000" stroke="black"  fill="transparent"/>

<line
x1="638" y1="583" x2="618" y2="585"
id="0"
style="stroke:black;stroke-width:1.000000;stroke-opacity:0" />


<line
x1="670" y1="580" x2="685" y2="579"
id="SmallMolecule_6393df26d56145268114ec58e029b641--to--reactome_R-HSA-1482759_LEFT_TO_RIGHT-input"
style="stroke:black;stroke-width:1.000000;stroke-opacity:0" />


<path d="M705.000000 628.000000 C 683.000000 642.000000, 645.000000 668.000000,629.000000 679.000000" stroke="black"  fill="transparent"/>

<line
x1="645" y1="668" x2="629" y2="679"
id="0"
style="stroke:black;stroke-width:1.000000;stroke-opacity:0" />


<line
x1="683" y1="642" x2="705" y2="628"
id="reactome_R-HSA-1482778_LEFT_TO_RIGHT-output--to--SmallMolecule_b8b6609668c1e76c900aa2dbdddb3541"
style="stroke:black;stroke-width:1.000000;stroke-opacity:0" />


<polygon
points = "705,628 696.2,623.6 696.2,632.4"
id="line"
style="fill:black; stroke:#000000; stroke-width:1"
transform = "rotate(-32.471192 705.000000 628.000000)"
/>


<path d="M544.000000 782.000000 C 584.000000 775.000000, 645.000000 765.000000,667.000000 761.000000" stroke="black"  fill="transparent"/>

<line
x1="584" y1="775" x2="544" y2="782"
id="0"
style="stroke:black;stroke-width:1.000000;stroke-opacity:0" />


<line
x1="645" y1="765" x2="667" y2="761"
id="Complex_a28bb12363870102e394bc4601a06831--to--reactome_R-HSA-1482775_LEFT_TO_RIGHT"
style="stroke:black;stroke-width:1.000000;stroke-opacity:0" />


<ellipse
rx="4.400000"
ry="4.400000"
cx="662.670972"
cy="761.787096"
id="Complex_a28bb12363870102e394bc4601a06831--to--reactome_R-HSA-1482775_LEFT_TO_RIGHT"
style="fill:white;fill-opacity:0.800000;stroke:black;stroke-width:1.000000;stroke-opacity:1.000000" />


<path d="M711.000000 682.000000 C 684.000000 683.000000, 645.000000 684.000000,629.000000 685.000000" stroke="black"  fill="transparent"/>

<line
x1="684" y1="683" x2="711" y2="682"
id="0"
style="stroke:black;stroke-width:1.000000;stroke-opacity:0" />


<line
x1="645" y1="684" x2="629" y2="685"
id="Protein_8402c6899a22fa129440cf0a592272bb--to--reactome_R-HSA-1482778_LEFT_TO_RIGHT"
style="stroke:black;stroke-width:1.000000;stroke-opacity:0" />


<ellipse
rx="4.400000"
ry="4.400000"
cx="633.391431"
cy="684.725536"
id="Protein_8402c6899a22fa129440cf0a592272bb--to--reactome_R-HSA-1482778_LEFT_TO_RIGHT"
style="fill:white;fill-opacity:0.800000;stroke:black;stroke-width:1.000000;stroke-opacity:1.000000" />


<path d="M161.000000 227.000000 C 176.000000 239.000000, 195.000000 255.000000,207.000000 264.000000" stroke="black"  fill="transparent"/>

<line
x1="176" y1="239" x2="161" y2="227"
id="0"
style="stroke:black;stroke-width:1.000000;stroke-opacity:0" />


<line
x1="195" y1="255" x2="207" y2="264"
id="Protein_fe582c68a74150d1ccd75b38c6d87ecd--to--reactome_R-HSA-1482861_LEFT_TO_RIGHT"
style="stroke:black;stroke-width:1.000000;stroke-opacity:0" />


<ellipse
rx="4.400000"
ry="4.400000"
cx="203.480000"
cy="261.360000"
id="Protein_fe582c68a74150d1ccd75b38c6d87ecd--to--reactome_R-HSA-1482861_LEFT_TO_RIGHT"
style="fill:white;fill-opacity:0.800000;stroke:black;stroke-width:1.000000;stroke-opacity:1.000000" />


<path d="M637.000000 469.000000 C 651.000000 496.000000, 679.000000 549.000000,689.000000 570.000000" stroke="black"  fill="transparent"/>

<line
x1="679" y1="549" x2="689" y2="570"
id="0"
style="stroke:black;stroke-width:1.000000;stroke-opacity:0" />


<line
x1="651" y1="496" x2="637" y2="469"
id="reactome_R-HSA-1482759_LEFT_TO_RIGHT-output--to--SmallMolecule_b3d310016e345ceb9d5e6d10e626c26d"
style="stroke:black;stroke-width:1.000000;stroke-opacity:0" />


<polygon
points = "637,469 628.2,464.6 628.2,473.4"
id="line"
style="fill:black; stroke:#000000; stroke-width:1"
transform = "rotate(242.592425 637.000000 469.000000)"
/>


<path d="M593.000000 570.000000 C 578.000000 542.000000, 549.000000 487.000000,538.000000 465.000000" stroke="black"  fill="transparent"/>

<line
x1="549" y1="487" x2="538" y2="465"
id="0"
style="stroke:black;stroke-width:1.000000;stroke-opacity:0" />


<line
x1="578" y1="542" x2="593" y2="570"
id="reactome_R-HSA-1482894_LEFT_TO_RIGHT-output--to--SmallMolecule_6393df26d56145268114ec58e029b641"
style="stroke:black;stroke-width:1.000000;stroke-opacity:0" />


<polygon
points = "593,570 584.2,565.6 584.2,574.4"
id="line"
style="fill:black; stroke:#000000; stroke-width:1"
transform = "rotate(61.821410 593.000000 570.000000)"
/>


<path d="M206.000000 397.000000 C 217.000000 362.000000, 243.000000 281.000000,251.000000 255.000000" stroke="black"  fill="transparent"/>

<line
x1="217" y1="362" x2="206" y2="397"
id="0"
style="stroke:black;stroke-width:1.000000;stroke-opacity:0" />


<line
x1="243" y1="281" x2="251" y2="255"
id="SmallMolecule_839c02a49861784d8e1e610198a40f9f--to--reactome_R-HSA-1482867_LEFT_TO_RIGHT-input"
style="stroke:black;stroke-width:1.000000;stroke-opacity:0" />


<path d="M202.000000 397.000000 C 206.000000 366.000000, 212.000000 303.000000,214.000000 280.000000" stroke="black"  fill="transparent"/>

<line
x1="206" y1="366" x2="202" y2="397"
id="0"
style="stroke:black;stroke-width:1.000000;stroke-opacity:0" />


<line
x1="212" y1="303" x2="214" y2="280"
id="SmallMolecule_839c02a49861784d8e1e610198a40f9f--to--reactome_R-HSA-1482861_LEFT_TO_RIGHT-input"
style="stroke:black;stroke-width:1.000000;stroke-opacity:0" />


<path d="M138.000000 422.000000 C 164.000000 382.000000, 229.000000 284.000000,248.000000 255.000000" stroke="black"  fill="transparent"/>

<line
x1="229" y1="284" x2="248" y2="255"
id="0"
style="stroke:black;stroke-width:1.000000;stroke-opacity:0" />


<line
x1="164" y1="382" x2="138" y2="422"
id="reactome_R-HSA-1482867_LEFT_TO_RIGHT-output--to--SmallMolecule_51d352a1bc463cba394ef942b51812a0"
style="stroke:black;stroke-width:1.000000;stroke-opacity:0" />


<polygon
points = "138,422 129.2,417.6 129.2,426.4"
id="line"
style="fill:black; stroke:#000000; stroke-width:1"
transform = "rotate(123.023868 138.000000 422.000000)"
/>


<path d="M490.000000 399.000000 C 501.000000 414.000000, 518.000000 436.000000,527.000000 448.000000" stroke="black"  fill="transparent"/>

<line
x1="501" y1="414" x2="490" y2="399"
id="0"
style="stroke:black;stroke-width:1.000000;stroke-opacity:0" />


<line
x1="518" y1="436" x2="527" y2="448"
id="SmallMolecule_ef23b0a973921faf408769011e2ae6f0--to--reactome_R-HSA-1482894_LEFT_TO_RIGHT-input"
style="stroke:black;stroke-width:1.000000;stroke-opacity:0" />


<path d="M617.000000 435.000000 C 602.000000 411.000000, 574.000000 368.000000,563.000000 350.000000" stroke="black"  fill="transparent"/>

<line
x1="602" y1="411" x2="617" y2="435"
id="0"
style="stroke:black;stroke-width:1.000000;stroke-opacity:0" />


<line
x1="574" y1="368" x2="563" y2="350"
id="SmallMolecule_b3d310016e345ceb9d5e6d10e626c26d--to--reactome_R-HSA-1482860_LEFT_TO_RIGHT-input"
style="stroke:black;stroke-width:1.000000;stroke-opacity:0" />


<path d="M709.000000 599.000000 C 706.000000 595.000000, 703.000000 591.000000,700.000000 587.000000" stroke="black"  fill="transparent"/>

<line
x1="703" y1="591" x2="700" y2="587"
id="0"
style="stroke:black;stroke-width:1.000000;stroke-opacity:0" />


<line
x1="706" y1="595" x2="709" y2="599"
id="reactome_R-HSA-1482759_LEFT_TO_RIGHT-output--to--SmallMolecule_b8b6609668c1e76c900aa2dbdddb3541"
style="stroke:black;stroke-width:1.000000;stroke-opacity:0" />


<polygon
points = "709,599 700.2,594.6 700.2,603.4"
id="line"
style="fill:black; stroke:#000000; stroke-width:1"
transform = "rotate(53.130102 709.000000 599.000000)"
/>


<path d="M424.000000 434.000000 C 456.000000 441.000000, 506.000000 451.000000,525.000000 455.000000" stroke="black"  fill="transparent"/>

<line
x1="456" y1="441" x2="424" y2="434"
id="0"
style="stroke:black;stroke-width:1.000000;stroke-opacity:0" />


<line
x1="506" y1="451" x2="525" y2="455"
id="Protein_1c56ae65c2b53707029144da4f440ef1--to--reactome_R-HSA-1482894_LEFT_TO_RIGHT"
style="stroke:black;stroke-width:1.000000;stroke-opacity:0" />


<ellipse
rx="4.400000"
ry="4.400000"
cx="520.694381"
cy="454.093554"
id="Protein_1c56ae65c2b53707029144da4f440ef1--to--reactome_R-HSA-1482894_LEFT_TO_RIGHT"
style="fill:white;fill-opacity:0.800000;stroke:black;stroke-width:1.000000;stroke-opacity:1.000000" />


<path d="M856.000000 642.000000 C 831.000000 632.000000, 783.000000 613.000000,741.000000 597.000000" stroke="black"  fill="transparent"/>
<path d="M741.000000 597.000000 C 728.000000 591.000000, 712.000000 585.000000,703.000000 582.000000" stroke="black"  fill="transparent"/>

<line
x1="831" y1="632" x2="856" y2="642"
id="0"
style="stroke:black;stroke-width:1.000000;stroke-opacity:0" />


<line
x1="712" y1="585" x2="703" y2="582"
id="SmallMolecule_57995819b7714ee7448fdfbb0e6ef6bc--to--reactome_R-HSA-1482759_LEFT_TO_RIGHT-input"
style="stroke:black;stroke-width:1.000000;stroke-opacity:0" />


<path d="M585.000000 583.000000 C 552.000000 576.000000, 475.000000 557.000000,417.000000 528.000000" stroke="black"  fill="transparent"/>
<path d="M417.000000 528.000000 C 403.000000 521.000000, 387.000000 513.000000,378.000000 507.000000" stroke="black"  fill="transparent"/>

<line
x1="552" y1="576" x2="585" y2="583"
id="0"
style="stroke:black;stroke-width:1.000000;stroke-opacity:0" />


<line
x1="387" y1="513" x2="378" y2="507"
id="SmallMolecule_6393df26d56145268114ec58e029b641--to--reactome_R-HSA-1482773_LEFT_TO_RIGHT-input"
style="stroke:black;stroke-width:1.000000;stroke-opacity:0" />


<path d="M363.000000 493.000000 C 346.000000 470.000000, 298.000000 408.000000,276.000000 378.000000" stroke="black"  fill="transparent"/>

<line
x1="346" y1="470" x2="363" y2="493"
id="0"
style="stroke:black;stroke-width:1.000000;stroke-opacity:0" />


<line
x1="298" y1="408" x2="276" y2="378"
id="reactome_R-HSA-1482773_LEFT_TO_RIGHT-output--to--SmallMolecule_5a41d61ccf423f0aac2bf1a00c8089ab"
style="stroke:black;stroke-width:1.000000;stroke-opacity:0" />


<polygon
points = "276,378 267.2,373.6 267.2,382.4"
id="line"
style="fill:black; stroke:#000000; stroke-width:1"
transform = "rotate(233.746162 276.000000 378.000000)"
/>


<path d="M608.000000 603.000000 C 624.000000 639.000000, 660.000000 724.000000,672.000000 751.000000" stroke="black"  fill="transparent"/>

<line
x1="624" y1="639" x2="608" y2="603"
id="0"
style="stroke:black;stroke-width:1.000000;stroke-opacity:0" />


<line
x1="660" y1="724" x2="672" y2="751"
id="SmallMolecule_6393df26d56145268114ec58e029b641--to--reactome_R-HSA-1482775_LEFT_TO_RIGHT-input"
style="stroke:black;stroke-width:1.000000;stroke-opacity:0" />


<path d="M254.000000 344.000000 C 244.000000 325.000000, 228.000000 295.000000,220.000000 280.000000" stroke="black"  fill="transparent"/>

<line
x1="244" y1="325" x2="254" y2="344"
id="0"
style="stroke:black;stroke-width:1.000000;stroke-opacity:0" />


<line
x1="228" y1="295" x2="220" y2="280"
id="SmallMolecule_5a41d61ccf423f0aac2bf1a00c8089ab--to--reactome_R-HSA-1482861_LEFT_TO_RIGHT-input"
style="stroke:black;stroke-width:1.000000;stroke-opacity:0" />


<path d="M585.000000 580.000000 C 555.000000 568.000000, 491.000000 543.000000,468.000000 534.000000" stroke="black"  fill="transparent"/>

<line
x1="491" y1="543" x2="468" y2="534"
id="0"
style="stroke:black;stroke-width:1.000000;stroke-opacity:0" />


<line
x1="555" y1="568" x2="585" y2="580"
id="reactome_R-HSA-1482794_LEFT_TO_RIGHT-output--to--SmallMolecule_6393df26d56145268114ec58e029b641"
style="stroke:black;stroke-width:1.000000;stroke-opacity:0" />


<polygon
points = "585,580 576.2,575.6 576.2,584.4"
id="line"
style="fill:black; stroke:#000000; stroke-width:1"
transform = "rotate(21.801409 585.000000 580.000000)"
/>


<path d="M553.000000 643.000000 C 571.000000 654.000000, 598.000000 671.000000,612.000000 680.000000" stroke="black"  fill="transparent"/>

<line
x1="571" y1="654" x2="553" y2="643"
id="0"
style="stroke:black;stroke-width:1.000000;stroke-opacity:0" />


<line
x1="598" y1="671" x2="612" y2="680"
id="SmallMolecule_2adb983713ea3fb7911be6cc0e7bc057--to--reactome_R-HSA-1482778_LEFT_TO_RIGHT-input"
style="stroke:black;stroke-width:1.000000;stroke-opacity:0" />


<path d="M338.000000 262.000000 C 316.000000 258.000000, 279.000000 251.000000,262.000000 248.000000" stroke="black"  fill="transparent"/>

<line
x1="316" y1="258" x2="338" y2="262"
id="0"
style="stroke:black;stroke-width:1.000000;stroke-opacity:0" />


<line
x1="279" y1="251" x2="262" y2="248"
id="SmallMolecule_998842772b0658e9bd93aa645a3928a6--to--reactome_R-HSA-1482867_LEFT_TO_RIGHT-input"
style="stroke:black;stroke-width:1.000000;stroke-opacity:0" />


<path d="M262.000000 344.000000 C 260.000000 319.000000, 256.000000 274.000000,255.000000 255.000000" stroke="black"  fill="transparent"/>

<line
x1="256" y1="274" x2="255" y2="255"
id="0"
style="stroke:black;stroke-width:1.000000;stroke-opacity:0" />


<line
x1="260" y1="319" x2="262" y2="344"
id="reactome_R-HSA-1482867_LEFT_TO_RIGHT-output--to--SmallMolecule_5a41d61ccf423f0aac2bf1a00c8089ab"
style="stroke:black;stroke-width:1.000000;stroke-opacity:0" />


<polygon
points = "262,344 253.2,339.6 253.2,348.4"
id="line"
style="fill:black; stroke:#000000; stroke-width:1"
transform = "rotate(85.426079 262.000000 344.000000)"
/>



</svg>
