<?xml version="1.0" encoding="UTF-8"?>
<svg width="1442.175752" height="1166.396766"
xmlns="http://www.w3.org/2000/svg" xmlns:svg="http://www.w3.org/2000/svg"
>
<metadata id="metadata7">image/svg+xml</metadata>

<rect
width="938.219194"
height="554.479077"
rx="11.000000"
ry="11.000000"
x="100.000000"
y="411.917689"
id="axon_terminus"
style="fill:white;fill-opacity:0.900000;stroke:black;stroke-width:5.000000;stroke-opacity:1.000000" />


<text
x="569.109597"
y="403.917689"
id="axon_terminus"
style="font-size:6.000000px;text-anchor:middle;font-family:Arial,Helvetica;alignment-baseline:baseline;stroke.opacity:1;dominant-baseline:baseline"
fill="black"
>
axon terminus</text>


<rect
width="258.749248"
height="279.071295"
rx="11.000000"
ry="11.000000"
x="719.933093"
y="183.000000"
id="synaptic_vesicle"
style="fill:white;fill-opacity:0.900000;stroke:black;stroke-width:5.000000;stroke-opacity:1.000000" />


<text
x="849.307717"
y="175.000000"
id="synaptic_vesicle"
style="font-size:6.000000px;text-anchor:middle;font-family:Arial,Helvetica;alignment-baseline:baseline;stroke.opacity:1;dominant-baseline:baseline"
fill="black"
>
synaptic vesicle</text>


<rect
width="166.866589"
height="135.558584"
rx="11.000000"
ry="11.000000"
x="111.178424"
y="448.992216"
id="nucleus"
style="fill:white;fill-opacity:0.900000;stroke:black;stroke-width:5.000000;stroke-opacity:1.000000" />


<text
x="194.611718"
y="440.992216"
id="nucleus"
style="font-size:6.000000px;text-anchor:middle;font-family:Arial,Helvetica;alignment-baseline:baseline;stroke.opacity:1;dominant-baseline:baseline"
fill="black"
>
nucleus</text>



<path
d="M 730.93309320408 205.5 730.93309320408 287.516666666667 736.43309320408 293.016666666667 801.366426537413 293.016666666667 806.866426537413 287.516666666667 806.866426537413 205.5 801.366426537413 200 736.43309320408 200 Z"
id="Complex_54581ac26867e537ffb978e50bb97d57"
style="fill:white;fill-opacity:0.600000;stroke-width:1;stroke:black;stroke-opacity:1.000000"
transform = "rotate(0.000000 0.000000 0.000000)"
/>


<text
x="768.899760"
y="192.000000"
id="Complex_54581ac26867e537ffb978e50bb97d57"
style="font-size:6.000000px;text-anchor:middle;font-family:Arial,Helvetica;alignment-baseline:baseline;stroke.opacity:1;dominant-baseline:baseline"
fill="black"
>
Complex (SNARE Complex/Ca2+)</text>


<path
d="M 909.20252695007 490.322658287353 909.20252695007 572.339324954019 914.70252695007 577.839324954019 1021.71919361674 577.839324954019 1027.21919361674 572.339324954019 1027.21919361674 490.322658287353 1021.71919361674 484.822658287353 914.70252695007 484.822658287353 Z"
id="Complex_4a2ae3f11284810d05aadb7cf7ec4521"
style="fill:white;fill-opacity:0.600000;stroke-width:1;stroke:black;stroke-opacity:1.000000"
transform = "rotate(0.000000 0.000000 0.000000)"
/>


<text
x="968.210860"
y="476.822658"
id="Complex_4a2ae3f11284810d05aadb7cf7ec4521"
style="font-size:6.000000px;text-anchor:middle;font-family:Arial,Helvetica;alignment-baseline:baseline;stroke.opacity:1;dominant-baseline:baseline"
fill="black"
>
Complex (mGluR2/3/ G-protein/GDP)</text>


<path
d="M 487.186569574106 739.925175088336 487.186569574106 821.941841755003 492.686569574106 827.441841755003 557.619902907439 827.441841755003 563.119902907439 821.941841755003 563.119902907439 739.925175088336 557.619902907439 734.425175088336 492.686569574106 734.425175088336 Z"
id="Complex_edd121d9ba657330ab8af199621defad"
style="fill:white;fill-opacity:0.600000;stroke-width:1;stroke:black;stroke-opacity:1.000000"
transform = "rotate(0.000000 0.000000 0.000000)"
/>


<text
x="525.153236"
y="726.425175"
id="Complex_edd121d9ba657330ab8af199621defad"
style="font-size:6.000000px;text-anchor:middle;font-family:Arial,Helvetica;alignment-baseline:baseline;stroke.opacity:1;dominant-baseline:baseline"
fill="black"
>
Complex (GTP/G-protein)</text>


<path
d="M 625.58775523711 526.877013299043 625.58775523711 608.89367996571 631.08775523711 614.39367996571 696.021088570443 614.39367996571 701.521088570443 608.89367996571 701.521088570443 526.877013299043 696.021088570443 521.377013299043 631.08775523711 521.377013299043 Z"
id="Complex_d9365fe07110884ed9cd56d1880f00bb"
style="fill:white;fill-opacity:0.600000;stroke-width:1;stroke:black;stroke-opacity:1.000000"
transform = "rotate(0.000000 0.000000 0.000000)"
/>


<text
x="663.554422"
y="513.377013"
id="Complex_d9365fe07110884ed9cd56d1880f00bb"
style="font-size:6.000000px;text-anchor:middle;font-family:Arial,Helvetica;alignment-baseline:baseline;stroke.opacity:1;dominant-baseline:baseline"
fill="black"
>
</text>


<path
d="M 743.60422211495 747.55910519347 743.60422211495 829.575771860136 749.10422211495 835.075771860136 856.120888781623 835.075771860136 861.620888781623 829.575771860136 861.620888781623 747.55910519347 856.120888781623 742.05910519347 749.10422211495 742.05910519347 Z"
id="Complex_392f1b8de96df45478140401c8890fee"
style="fill:white;fill-opacity:0.600000;stroke-width:1;stroke:black;stroke-opacity:1.000000"
transform = "rotate(0.000000 0.000000 0.000000)"
/>


<text
x="802.612555"
y="734.059105"
id="Complex_392f1b8de96df45478140401c8890fee"
style="font-size:6.000000px;text-anchor:middle;font-family:Arial,Helvetica;alignment-baseline:baseline;stroke.opacity:1;dominant-baseline:baseline"
fill="black"
>
</text>




<ellipse
rx="16.666667"
ry="16.666667"
cx="652.288908"
cy="307.375186"
id="SmallMolecule_c51d3df91f4fc90a3bdcd0524aa3d364"
style="fill:white;fill-opacity:0.000000;stroke:black;stroke-width:1.000000;stroke-opacity:1.000000" />


<text
x="652.288908"
y="309.375186"
id="SmallMolecule_c51d3df91f4fc90a3bdcd0524aa3d364"
style="font-size:6.000000px;text-anchor:middle;font-family:Arial,Helvetica;alignment-baseline:baseline;stroke.opacity:1;dominant-baseline:baseline"
fill="black"
>
Ca2+</text>



<ellipse
rx="16.666667"
ry="16.666667"
cx="1095.509085"
cy="482.581785"
id="SmallMolecule_0db4df0d8ff93222bae0a2ae2d7b54f9"
style="fill:white;fill-opacity:0.000000;stroke:black;stroke-width:1.000000;stroke-opacity:1.000000" />


<text
x="1095.509085"
y="484.581785"
id="SmallMolecule_0db4df0d8ff93222bae0a2ae2d7b54f9"
style="font-size:6.000000px;text-anchor:middle;font-family:Arial,Helvetica;alignment-baseline:baseline;stroke.opacity:1;dominant-baseline:baseline"
fill="black"
>
glutamate</text>



<rect
width="58.333333"
height="33.333333"
rx="3.333333"
ry="3.333333"
x="909.349008"
y="307.773660"
id="Protein_3e3cdae041742bcbc067f4754287e5ff"
style="fill:white;fill-opacity:1.000000;stroke:black;stroke-width:1.000000;stroke-opacity:1.000000" />


<text
x="938.515674"
y="326.440327"
id="Protein_3e3cdae041742bcbc067f4754287e5ff"
style="font-size:6.000000px;text-anchor:middle;font-family:Arial,Helvetica;alignment-baseline:baseline;stroke.opacity:1;dominant-baseline:baseline"
fill="black"
>
SNARE Complex</text>



<ellipse
rx="16.666667"
ry="16.666667"
cx="763.619234"
cy="434.404629"
id="SmallMolecule_5926caf4d3d3022c35ad82d85fad9dc3"
style="fill:white;fill-opacity:0.000000;stroke:black;stroke-width:1.000000;stroke-opacity:1.000000" />


<text
x="763.619234"
y="436.404629"
id="SmallMolecule_5926caf4d3d3022c35ad82d85fad9dc3"
style="font-size:6.000000px;text-anchor:middle;font-family:Arial,Helvetica;alignment-baseline:baseline;stroke.opacity:1;dominant-baseline:baseline"
fill="black"
>
Glutamate</text>



<rect
width="58.333333"
height="33.333333"
rx="3.333333"
ry="3.333333"
x="739.733093"
y="208.800000"
id="Protein_d0bc3b8b282f5ae49b35232f41454f72_Complex_54581ac26867e537ffb978e50bb97d57"
style="fill:white;fill-opacity:1.000000;stroke:black;stroke-width:1.000000;stroke-opacity:1.000000" />


<text
x="768.899760"
y="227.466667"
id="Protein_d0bc3b8b282f5ae49b35232f41454f72_Complex_54581ac26867e537ffb978e50bb97d57"
style="font-size:6.000000px;text-anchor:middle;font-family:Arial,Helvetica;alignment-baseline:baseline;stroke.opacity:1;dominant-baseline:baseline"
fill="black"
>
SNARE Complex</text>



<ellipse
rx="16.666667"
ry="16.666667"
cx="756.399760"
cy="267.550000"
id="SmallMolecule_009b22dc8b4e6a05ef7dbff60eba79af_Complex_54581ac26867e537ffb978e50bb97d57"
style="fill:white;fill-opacity:0.000000;stroke:black;stroke-width:1.000000;stroke-opacity:1.000000" />


<text
x="756.399760"
y="269.550000"
id="SmallMolecule_009b22dc8b4e6a05ef7dbff60eba79af_Complex_54581ac26867e537ffb978e50bb97d57"
style="font-size:6.000000px;text-anchor:middle;font-family:Arial,Helvetica;alignment-baseline:baseline;stroke.opacity:1;dominant-baseline:baseline"
fill="black"
>
Ca2+</text>


<rect
width="16.666667"
height="16.666667"
rx="0.000000"
ry="0.000000"
x="840.383509"
y="401.825201"
id="TransportWithBiochemicalReaction_c9961424d028e16be2d126750a1593d0_LEFT_TO_RIGHT"
style="fill:white;fill-opacity:0.600000;stroke:black;stroke-width:1.000000;stroke-opacity:1.000000" />



<rect
width="16.666667"
height="16.666667"
rx="0.000000"
ry="0.000000"
x="827.251853"
y="360.683098"
id="ComplexAssembly_5350612d37024cc50751b3a60ab2d908_LEFT_TO_RIGHT"
style="fill:white;fill-opacity:0.600000;stroke:black;stroke-width:1.000000;stroke-opacity:1.000000" />




<rect
width="58.333333"
height="33.333333"
rx="3.333333"
ry="3.333333"
x="433.863305"
y="564.621801"
id="Protein_6410d58b76b3d6dad4dafca82a582c30"
style="fill:white;fill-opacity:1.000000;stroke:black;stroke-width:1.000000;stroke-opacity:1.000000" />


<text
x="463.029972"
y="583.288468"
id="Protein_6410d58b76b3d6dad4dafca82a582c30"
style="font-size:6.000000px;text-anchor:middle;font-family:Arial,Helvetica;alignment-baseline:baseline;stroke.opacity:1;dominant-baseline:baseline"
fill="black"
>
Ca2+</text>



<rect
width="58.333333"
height="33.333333"
rx="3.333333"
ry="3.333333"
x="918.002527"
y="493.622658"
id="Protein_302686a08cae7dc4a0b1ea467a3fdbf8_Complex_4a2ae3f11284810d05aadb7cf7ec4521"
style="fill:white;fill-opacity:1.000000;stroke:black;stroke-width:1.000000;stroke-opacity:1.000000" />


<text
x="947.169194"
y="512.289325"
id="Protein_302686a08cae7dc4a0b1ea467a3fdbf8_Complex_4a2ae3f11284810d05aadb7cf7ec4521"
style="font-size:6.000000px;text-anchor:middle;font-family:Arial,Helvetica;alignment-baseline:baseline;stroke.opacity:1;dominant-baseline:baseline"
fill="black"
>
G-protein</text>



<ellipse
rx="16.666667"
ry="16.666667"
cx="1001.752527"
cy="510.289325"
id="SmallMolecule_a34f799aeb52986b2ad7acb079b01571_Complex_4a2ae3f11284810d05aadb7cf7ec4521"
style="fill:white;fill-opacity:0.000000;stroke:black;stroke-width:1.000000;stroke-opacity:1.000000" />


<text
x="1001.752527"
y="512.289325"
id="SmallMolecule_a34f799aeb52986b2ad7acb079b01571_Complex_4a2ae3f11284810d05aadb7cf7ec4521"
style="font-size:6.000000px;text-anchor:middle;font-family:Arial,Helvetica;alignment-baseline:baseline;stroke.opacity:1;dominant-baseline:baseline"
fill="black"
>
GDP</text>



<rect
width="58.333333"
height="33.333333"
rx="3.333333"
ry="3.333333"
x="918.002527"
y="535.705992"
id="Protein_922b6b9c011a46d9ac1bcdd18e784f99_Complex_4a2ae3f11284810d05aadb7cf7ec4521"
style="fill:white;fill-opacity:1.000000;stroke:black;stroke-width:1.000000;stroke-opacity:1.000000" />


<text
x="947.169194"
y="554.372658"
id="Protein_922b6b9c011a46d9ac1bcdd18e784f99_Complex_4a2ae3f11284810d05aadb7cf7ec4521"
style="font-size:6.000000px;text-anchor:middle;font-family:Arial,Helvetica;alignment-baseline:baseline;stroke.opacity:1;dominant-baseline:baseline"
fill="black"
>
mGluR2/3</text>



<ellipse
rx="16.666667"
ry="16.666667"
cx="261.379851"
cy="807.694168"
id="SmallMolecule_d51626c36edd169d30e361ff55797f24"
style="fill:white;fill-opacity:0.000000;stroke:black;stroke-width:1.000000;stroke-opacity:1.000000" />


<text
x="261.379851"
y="809.694168"
id="SmallMolecule_d51626c36edd169d30e361ff55797f24"
style="font-size:6.000000px;text-anchor:middle;font-family:Arial,Helvetica;alignment-baseline:baseline;stroke.opacity:1;dominant-baseline:baseline"
fill="black"
>
cAMP</text>



<rect
width="58.333333"
height="33.333333"
rx="3.333333"
ry="3.333333"
x="206.621382"
y="604.069041"
id="Protein_67391c47c03e98d888db080f807a8591"
style="fill:white;fill-opacity:1.000000;stroke:black;stroke-width:1.000000;stroke-opacity:1.000000" />


<text
x="235.788049"
y="622.735707"
id="Protein_67391c47c03e98d888db080f807a8591"
style="font-size:6.000000px;text-anchor:middle;font-family:Arial,Helvetica;alignment-baseline:baseline;stroke.opacity:1;dominant-baseline:baseline"
fill="black"
>
PKA</text>



<ellipse
rx="16.666667"
ry="16.666667"
cx="512.653236"
cy="801.975175"
id="SmallMolecule_015a5aa701c2f1e3ab6862b227fe9a1a_Complex_edd121d9ba657330ab8af199621defad"
style="fill:white;fill-opacity:0.000000;stroke:black;stroke-width:1.000000;stroke-opacity:1.000000" />


<text
x="512.653236"
y="803.975175"
id="SmallMolecule_015a5aa701c2f1e3ab6862b227fe9a1a_Complex_edd121d9ba657330ab8af199621defad"
style="font-size:6.000000px;text-anchor:middle;font-family:Arial,Helvetica;alignment-baseline:baseline;stroke.opacity:1;dominant-baseline:baseline"
fill="black"
>
GTP</text>



<rect
width="58.333333"
height="33.333333"
rx="3.333333"
ry="3.333333"
x="495.986570"
y="743.225175"
id="Protein_6b0d3b161502f9fdef7f6f19866d94b3_Complex_edd121d9ba657330ab8af199621defad"
style="fill:white;fill-opacity:1.000000;stroke:black;stroke-width:1.000000;stroke-opacity:1.000000" />


<text
x="525.153236"
y="761.891842"
id="Protein_6b0d3b161502f9fdef7f6f19866d94b3_Complex_edd121d9ba657330ab8af199621defad"
style="font-size:6.000000px;text-anchor:middle;font-family:Arial,Helvetica;alignment-baseline:baseline;stroke.opacity:1;dominant-baseline:baseline"
fill="black"
>
G-protein</text>



<ellipse
rx="16.666667"
ry="16.666667"
cx="749.227134"
cy="690.751317"
id="SmallMolecule_372315b4c1d84c72b317adc77349488d"
style="fill:white;fill-opacity:0.000000;stroke:black;stroke-width:1.000000;stroke-opacity:1.000000" />


<text
x="749.227134"
y="692.751317"
id="SmallMolecule_372315b4c1d84c72b317adc77349488d"
style="font-size:6.000000px;text-anchor:middle;font-family:Arial,Helvetica;alignment-baseline:baseline;stroke.opacity:1;dominant-baseline:baseline"
fill="black"
>
GDP</text>



<ellipse
rx="16.666667"
ry="16.666667"
cx="597.006065"
cy="657.475930"
id="SmallMolecule_74cb27b0f80c8ed987cbfd0784b7b391"
style="fill:white;fill-opacity:0.000000;stroke:black;stroke-width:1.000000;stroke-opacity:1.000000" />


<text
x="597.006065"
y="659.475930"
id="SmallMolecule_74cb27b0f80c8ed987cbfd0784b7b391"
style="font-size:6.000000px;text-anchor:middle;font-family:Arial,Helvetica;alignment-baseline:baseline;stroke.opacity:1;dominant-baseline:baseline"
fill="black"
>
GTP</text>



<rect
width="58.333333"
height="33.333333"
rx="3.333333"
ry="3.333333"
x="111.000000"
y="756.078488"
id="Protein_1b5ca989ccc2520f620bb983b513e089"
style="fill:white;fill-opacity:1.000000;stroke:black;stroke-width:1.000000;stroke-opacity:1.000000" />


<text
x="140.166667"
y="774.745154"
id="Protein_1b5ca989ccc2520f620bb983b513e089"
style="font-size:6.000000px;text-anchor:middle;font-family:Arial,Helvetica;alignment-baseline:baseline;stroke.opacity:1;dominant-baseline:baseline"
fill="black"
>
PKA</text>



<ellipse
rx="16.666667"
ry="16.666667"
cx="354.644029"
cy="782.322581"
id="SmallMolecule_e4dec4c79be929c8ef12be89533b0b49"
style="fill:white;fill-opacity:0.000000;stroke:black;stroke-width:1.000000;stroke-opacity:1.000000" />


<text
x="354.644029"
y="784.322581"
id="SmallMolecule_e4dec4c79be929c8ef12be89533b0b49"
style="font-size:6.000000px;text-anchor:middle;font-family:Arial,Helvetica;alignment-baseline:baseline;stroke.opacity:1;dominant-baseline:baseline"
fill="black"
>
ATP</text>



<rect
width="58.333333"
height="33.333333"
rx="3.333333"
ry="3.333333"
x="406.264876"
y="831.169992"
id="Protein_f04265a12ed2180e7bdbc510bfbef868"
style="fill:white;fill-opacity:1.000000;stroke:black;stroke-width:1.000000;stroke-opacity:1.000000" />


<text
x="435.431543"
y="849.836659"
id="Protein_f04265a12ed2180e7bdbc510bfbef868"
style="font-size:6.000000px;text-anchor:middle;font-family:Arial,Helvetica;alignment-baseline:baseline;stroke.opacity:1;dominant-baseline:baseline"
fill="black"
>
ADCY10</text>



<ellipse
rx="16.666667"
ry="16.666667"
cx="656.427228"
cy="439.584355"
id="SmallMolecule_94d7a54fe8e0fb1b5f98879e413cf8d4"
style="fill:white;fill-opacity:0.000000;stroke:black;stroke-width:1.000000;stroke-opacity:1.000000" />


<text
x="656.427228"
y="441.584355"
id="SmallMolecule_94d7a54fe8e0fb1b5f98879e413cf8d4"
style="font-size:6.000000px;text-anchor:middle;font-family:Arial,Helvetica;alignment-baseline:baseline;stroke.opacity:1;dominant-baseline:baseline"
fill="black"
>
Ca2+</text>



<rect
width="58.333333"
height="33.333333"
rx="3.333333"
ry="3.333333"
x="375.953334"
y="922.063433"
id="Protein_4a1e17ba0f17fcaa3515aab276d9fe16"
style="fill:white;fill-opacity:1.000000;stroke:black;stroke-width:1.000000;stroke-opacity:1.000000" />


<text
x="405.120000"
y="940.730100"
id="Protein_4a1e17ba0f17fcaa3515aab276d9fe16"
style="font-size:6.000000px;text-anchor:middle;font-family:Arial,Helvetica;alignment-baseline:baseline;stroke.opacity:1;dominant-baseline:baseline"
fill="black"
>
ADCY10</text>



<ellipse
rx="16.666667"
ry="16.666667"
cx="651.054422"
cy="588.927013"
id="SmallMolecule_32251d7e2490891370be7e037dd0f734_Complex_d9365fe07110884ed9cd56d1880f00bb"
style="fill:white;fill-opacity:0.000000;stroke:black;stroke-width:1.000000;stroke-opacity:1.000000" />


<text
x="651.054422"
y="590.927013"
id="SmallMolecule_32251d7e2490891370be7e037dd0f734_Complex_d9365fe07110884ed9cd56d1880f00bb"
style="font-size:6.000000px;text-anchor:middle;font-family:Arial,Helvetica;alignment-baseline:baseline;stroke.opacity:1;dominant-baseline:baseline"
fill="black"
>
Glutamate</text>



<rect
width="58.333333"
height="33.333333"
rx="3.333333"
ry="3.333333"
x="634.387755"
y="530.177013"
id="Protein_53a957a73f489af15d84d8b3bf10f161_Complex_d9365fe07110884ed9cd56d1880f00bb"
style="fill:white;fill-opacity:1.000000;stroke:black;stroke-width:1.000000;stroke-opacity:1.000000" />


<text
x="663.554422"
y="548.843680"
id="Protein_53a957a73f489af15d84d8b3bf10f161_Complex_d9365fe07110884ed9cd56d1880f00bb"
style="font-size:6.000000px;text-anchor:middle;font-family:Arial,Helvetica;alignment-baseline:baseline;stroke.opacity:1;dominant-baseline:baseline"
fill="black"
>
mGluR2/3</text>



<rect
width="58.333333"
height="33.333333"
rx="3.333333"
ry="3.333333"
x="752.404222"
y="750.859105"
id="Protein_3bb863ed09603af92db89969a0093824_Complex_392f1b8de96df45478140401c8890fee"
style="fill:white;fill-opacity:1.000000;stroke:black;stroke-width:1.000000;stroke-opacity:1.000000" />


<text
x="781.570889"
y="769.525772"
id="Protein_3bb863ed09603af92db89969a0093824_Complex_392f1b8de96df45478140401c8890fee"
style="font-size:6.000000px;text-anchor:middle;font-family:Arial,Helvetica;alignment-baseline:baseline;stroke.opacity:1;dominant-baseline:baseline"
fill="black"
>
G-protein</text>



<ellipse
rx="16.666667"
ry="16.666667"
cx="836.154222"
cy="767.525772"
id="SmallMolecule_2b3d69b4babb35775a594589871d83b5_Complex_392f1b8de96df45478140401c8890fee"
style="fill:white;fill-opacity:0.000000;stroke:black;stroke-width:1.000000;stroke-opacity:1.000000" />


<text
x="836.154222"
y="769.525772"
id="SmallMolecule_2b3d69b4babb35775a594589871d83b5_Complex_392f1b8de96df45478140401c8890fee"
style="font-size:6.000000px;text-anchor:middle;font-family:Arial,Helvetica;alignment-baseline:baseline;stroke.opacity:1;dominant-baseline:baseline"
fill="black"
>
Glutamate</text>



<ellipse
rx="16.666667"
ry="16.666667"
cx="836.154222"
cy="809.609105"
id="SmallMolecule_beb0758b01df69e4b9005671b172218c_Complex_392f1b8de96df45478140401c8890fee"
style="fill:white;fill-opacity:0.000000;stroke:black;stroke-width:1.000000;stroke-opacity:1.000000" />


<text
x="836.154222"
y="811.609105"
id="SmallMolecule_beb0758b01df69e4b9005671b172218c_Complex_392f1b8de96df45478140401c8890fee"
style="font-size:6.000000px;text-anchor:middle;font-family:Arial,Helvetica;alignment-baseline:baseline;stroke.opacity:1;dominant-baseline:baseline"
fill="black"
>
GDP</text>



<rect
width="58.333333"
height="33.333333"
rx="3.333333"
ry="3.333333"
x="752.404222"
y="792.942439"
id="Protein_bd294539c76b43c8b255ec971bb49d15_Complex_392f1b8de96df45478140401c8890fee"
style="fill:white;fill-opacity:1.000000;stroke:black;stroke-width:1.000000;stroke-opacity:1.000000" />


<text
x="781.570889"
y="811.609105"
id="Protein_bd294539c76b43c8b255ec971bb49d15_Complex_392f1b8de96df45478140401c8890fee"
style="font-size:6.000000px;text-anchor:middle;font-family:Arial,Helvetica;alignment-baseline:baseline;stroke.opacity:1;dominant-baseline:baseline"
fill="black"
>
mGluR2/3</text>



<rect
width="58.333333"
height="33.333333"
rx="3.333333"
ry="3.333333"
x="304.940296"
y="523.509097"
id="Protein_c7e1fd27abf908e1e6d276b212cd35a5"
style="fill:white;fill-opacity:1.000000;stroke:black;stroke-width:1.000000;stroke-opacity:1.000000" />


<text
x="334.106963"
y="542.175763"
id="Protein_c7e1fd27abf908e1e6d276b212cd35a5"
style="font-size:6.000000px;text-anchor:middle;font-family:Arial,Helvetica;alignment-baseline:baseline;stroke.opacity:1;dominant-baseline:baseline"
fill="black"
>
Ca2+</text>


<rect
width="16.666667"
height="16.666667"
rx="0.000000"
ry="0.000000"
x="667.576848"
y="703.948796"
id="ComplexAssembly_a557cbc406681dcce671293f3bd5e807_LEFT_TO_RIGHT"
style="fill:white;fill-opacity:0.600000;stroke:black;stroke-width:1.000000;stroke-opacity:1.000000" />



<rect
width="16.666667"
height="16.666667"
rx="0.000000"
ry="0.000000"
x="500.491772"
y="906.044457"
id="BiochemicalReaction_b7085a18cb906fbee5a23263aa4c0e10_LEFT_TO_RIGHT"
style="fill:white;fill-opacity:0.600000;stroke:black;stroke-width:1.000000;stroke-opacity:1.000000" />



<rect
width="16.666667"
height="16.666667"
rx="0.000000"
ry="0.000000"
x="329.842105"
y="860.414288"
id="BiochemicalReaction_a04f88a1bc274c02f839f194c84950fa_LEFT_TO_RIGHT"
style="fill:white;fill-opacity:0.600000;stroke:black;stroke-width:1.000000;stroke-opacity:1.000000" />



<rect
width="16.666667"
height="16.666667"
rx="0.000000"
ry="0.000000"
x="558.333933"
y="506.630886"
id="TransportWithBiochemicalReaction_960250620d9feab30827ac43874ef9f5_LEFT_TO_RIGHT"
style="fill:white;fill-opacity:0.600000;stroke:black;stroke-width:1.000000;stroke-opacity:1.000000" />



<rect
width="16.666667"
height="16.666667"
rx="0.000000"
ry="0.000000"
x="228.768838"
y="711.494843"
id="BiochemicalReaction_c0568864d83ccd73c272b6ce83181dae_LEFT_TO_RIGHT"
style="fill:white;fill-opacity:0.600000;stroke:black;stroke-width:1.000000;stroke-opacity:1.000000" />



<rect
width="16.666667"
height="16.666667"
rx="0.000000"
ry="0.000000"
x="889.682763"
y="658.953555"
id="ComplexAssembly_969a973d459b23e6becd2488b05abb8f_LEFT_TO_RIGHT"
style="fill:white;fill-opacity:0.600000;stroke:black;stroke-width:1.000000;stroke-opacity:1.000000" />



<rect
width="16.666667"
height="16.666667"
rx="0.000000"
ry="0.000000"
x="346.875572"
y="614.078581"
id="BiochemicalReaction_371e1831405f69657800fbde14df4d4d_LEFT_TO_RIGHT"
style="fill:white;fill-opacity:0.600000;stroke:black;stroke-width:1.000000;stroke-opacity:1.000000" />




<path
d="M 122.17842363163 538.486302703187 Q 122.17842363163 538.486302703187 122.17842363163 538.486302703187 L 180.511756964963 538.486302703187 Q 180.511756964963 538.486302703187 180.511756964963 538.486302703187 L 180.511756964963 565.986302703187 Q 180.511756964963 571.81963603652 174.67842363163 571.81963603652 L 128.011756964963 571.81963603652 Q 122.17842363163 571.81963603652 122.17842363163 565.986302703187 Z"
id="DnaRegion_00df476664d33cd7dffda9a65a5a4874"
style="fill:white;fill-opacity:1.000000;stroke-width:1;stroke:black;stroke-opacity:1.000000"
transform = "rotate(0.000000 0.000000 0.000000)"
/>


<text
x="151.345090"
y="557.152969"
id="DnaRegion_00df476664d33cd7dffda9a65a5a4874"
style="font-size:6.000000px;text-anchor:middle;font-family:Arial,Helvetica;alignment-baseline:baseline;stroke.opacity:1;dominant-baseline:baseline"
fill="black"
>
BDNF</text>


<rect
width="29.166667"
height="14.583333"
rx="0.000000"
ry="0.000000"
x="122.178424"
y="531.194636"
id="DnaRegion_00df476664d33cd7dffda9a65a5a4874.info.1"
style="fill:white;fill-opacity:1.000000;stroke:black;stroke-width:1.000000;stroke-opacity:1.000000" />


<text
x="136.761757"
y="540.486303"
id="DnaRegion_00df476664d33cd7dffda9a65a5a4874.info.1"
style="font-size:6.000000px;text-anchor:middle;font-family:Arial,Helvetica;alignment-baseline:baseline;stroke.opacity:1;dominant-baseline:baseline"
fill="black"
>
ct:DNA</text>



<path
d="M 174.635034638154 459.992216153306 Q 174.635034638154 459.992216153306 174.635034638154 459.992216153306 L 232.968367971487 459.992216153306 Q 232.968367971487 459.992216153306 232.968367971487 459.992216153306 L 232.968367971487 487.492216153306 Q 232.968367971487 493.325549486639 227.135034638154 493.325549486639 L 180.468367971487 493.325549486639 Q 174.635034638154 493.325549486639 174.635034638154 487.492216153306 Z"
id="RnaRegion_e967411a67c2f86b01b45de2af33fe42"
style="fill:white;fill-opacity:1.000000;stroke-width:1;stroke:black;stroke-opacity:1.000000"
transform = "rotate(0.000000 0.000000 0.000000)"
/>


<text
x="203.801701"
y="478.658883"
id="RnaRegion_e967411a67c2f86b01b45de2af33fe42"
style="font-size:6.000000px;text-anchor:middle;font-family:Arial,Helvetica;alignment-baseline:baseline;stroke.opacity:1;dominant-baseline:baseline"
fill="black"
>
BDNF</text>


<rect
width="29.166667"
height="14.583333"
rx="0.000000"
ry="0.000000"
x="174.635035"
y="452.700549"
id="RnaRegion_e967411a67c2f86b01b45de2af33fe42.info.1"
style="fill:white;fill-opacity:1.000000;stroke:black;stroke-width:1.000000;stroke-opacity:1.000000" />


<text
x="189.218368"
y="461.992216"
id="RnaRegion_e967411a67c2f86b01b45de2af33fe42.info.1"
style="font-size:6.000000px;text-anchor:middle;font-family:Arial,Helvetica;alignment-baseline:baseline;stroke.opacity:1;dominant-baseline:baseline"
fill="black"
>
ct:RNA</text>


<rect
width="16.666667"
height="16.666667"
rx="0.000000"
ry="0.000000"
x="250.378346"
y="556.884134"
id="TemplateReaction_ce5b2d75520b5e7e375faa5f5d1e6c83"
style="fill:white;fill-opacity:0.600000;stroke:black;stroke-width:1.000000;stroke-opacity:1.000000" />





<path d="M519.000000 827.000000 C 515.000000 856.000000, 511.000000 890.000000,509.000000 905.000000" stroke="black"  fill="transparent"/>

<line
x1="515" y1="856" x2="519" y2="827"
id="0"
style="stroke:black;stroke-width:1.000000;stroke-opacity:0" />


<line
x1="511" y1="890" x2="509" y2="905"
id="Complex_edd121d9ba657330ab8af199621defad--to--BiochemicalReaction_b7085a18cb906fbee5a23263aa4c0e10_LEFT_TO_RIGHT"
style="stroke:black;stroke-width:1.000000;stroke-opacity:0" />


<ellipse
rx="4.400000"
ry="4.400000"
cx="509.581520"
cy="900.638597"
id="Complex_edd121d9ba657330ab8af199621defad--to--BiochemicalReaction_b7085a18cb906fbee5a23263aa4c0e10_LEFT_TO_RIGHT"
style="fill:white;fill-opacity:0.800000;stroke:black;stroke-width:1.000000;stroke-opacity:1.000000" />


<path d="M743.000000 752.000000 C 720.000000 739.000000, 696.000000 724.000000,684.000000 717.000000" stroke="black"  fill="transparent"/>

<line
x1="720" y1="739" x2="743" y2="752"
id="0"
style="stroke:black;stroke-width:1.000000;stroke-opacity:0" />


<line
x1="696" y1="724" x2="684" y2="717"
id="Complex_392f1b8de96df45478140401c8890fee--to--ComplexAssembly_a557cbc406681dcce671293f3bd5e807_LEFT_TO_RIGHT-input"
style="stroke:black;stroke-width:1.000000;stroke-opacity:0" />


<path d="M214.000000 493.000000 C 225.000000 512.000000, 244.000000 542.000000,253.000000 556.000000" stroke="black"  fill="transparent"/>

<line
x1="244" y1="542" x2="253" y2="556"
id="0"
style="stroke:black;stroke-width:1.000000;stroke-opacity:0" />


<line
x1="225" y1="512" x2="214" y2="493"
id="TemplateReaction_ce5b2d75520b5e7e375faa5f5d1e6c83-output--to--RnaRegion_e967411a67c2f86b01b45de2af33fe42"
style="stroke:black;stroke-width:1.000000;stroke-opacity:0" />


<polygon
points = "214,493 205.2,488.6 205.2,497.4"
id="line"
style="fill:black; stroke:#000000; stroke-width:1"
transform = "rotate(239.931417 214.000000 493.000000)"
/>


<path d="M839.000000 742.000000 C 858.000000 717.000000, 880.000000 689.000000,891.000000 675.000000" stroke="black"  fill="transparent"/>

<line
x1="880" y1="689" x2="891" y2="675"
id="0"
style="stroke:black;stroke-width:1.000000;stroke-opacity:0" />


<line
x1="858" y1="717" x2="839" y2="742"
id="ComplexAssembly_969a973d459b23e6becd2488b05abb8f_LEFT_TO_RIGHT-output--to--Complex_392f1b8de96df45478140401c8890fee"
style="stroke:black;stroke-width:1.000000;stroke-opacity:0" />


<polygon
points = "839,742 830.2,737.6 830.2,746.4"
id="line"
style="fill:black; stroke:#000000; stroke-width:1"
transform = "rotate(127.234834 839.000000 742.000000)"
/>


<path d="M645.000000 324.000000 C 628.000000 365.000000, 583.000000 474.000000,570.000000 506.000000" stroke="black"  fill="transparent"/>

<line
x1="628" y1="365" x2="645" y2="324"
id="0"
style="stroke:black;stroke-width:1.000000;stroke-opacity:0" />


<line
x1="583" y1="474" x2="570" y2="506"
id="SmallMolecule_c51d3df91f4fc90a3bdcd0524aa3d364--to--TransportWithBiochemicalReaction_960250620d9feab30827ac43874ef9f5_LEFT_TO_RIGHT-input"
style="stroke:black;stroke-width:1.000000;stroke-opacity:0" />


<path d="M613.000000 669.000000 C 630.000000 680.000000, 654.000000 697.000000,667.000000 706.000000" stroke="black"  fill="transparent"/>

<line
x1="630" y1="680" x2="613" y2="669"
id="0"
style="stroke:black;stroke-width:1.000000;stroke-opacity:0" />


<line
x1="654" y1="697" x2="667" y2="706"
id="SmallMolecule_74cb27b0f80c8ed987cbfd0784b7b391--to--ComplexAssembly_a557cbc406681dcce671293f3bd5e807_LEFT_TO_RIGHT-input"
style="stroke:black;stroke-width:1.000000;stroke-opacity:0" />


<path d="M434.000000 931.000000 C 456.000000 926.000000, 485.000000 919.000000,500.000000 916.000000" stroke="black"  fill="transparent"/>

<line
x1="485" y1="919" x2="500" y2="916"
id="0"
style="stroke:black;stroke-width:1.000000;stroke-opacity:0" />


<line
x1="456" y1="926" x2="434" y2="931"
id="BiochemicalReaction_b7085a18cb906fbee5a23263aa4c0e10_LEFT_TO_RIGHT-output--to--Protein_4a1e17ba0f17fcaa3515aab276d9fe16"
style="stroke:black;stroke-width:1.000000;stroke-opacity:0" />


<polygon
points = "434,931 425.2,926.6 425.2,935.4"
id="line"
style="fill:black; stroke:#000000; stroke-width:1"
transform = "rotate(167.195734 434.000000 931.000000)"
/>


<path d="M338.000000 556.000000 C 342.000000 574.000000, 349.000000 600.000000,353.000000 613.000000" stroke="black"  fill="transparent"/>

<line
x1="342" y1="574" x2="338" y2="556"
id="0"
style="stroke:black;stroke-width:1.000000;stroke-opacity:0" />


<line
x1="349" y1="600" x2="353" y2="613"
id="Protein_c7e1fd27abf908e1e6d276b212cd35a5--to--BiochemicalReaction_371e1831405f69657800fbde14df4d4d_LEFT_TO_RIGHT-input"
style="stroke:black;stroke-width:1.000000;stroke-opacity:0" />


<path d="M1087.000000 499.000000 C 1076.000000 520.000000, 1055.000000 556.000000,1030.000000 581.000000" stroke="black"  fill="transparent"/>
<path d="M1030.000000 581.000000 C 990.000000 620.000000, 929.000000 652.000000,906.000000 663.000000" stroke="black"  fill="transparent"/>

<line
x1="1076" y1="520" x2="1087" y2="499"
id="0"
style="stroke:black;stroke-width:1.000000;stroke-opacity:0" />


<line
x1="929" y1="652" x2="906" y2="663"
id="SmallMolecule_0db4df0d8ff93222bae0a2ae2d7b54f9--to--ComplexAssembly_969a973d459b23e6becd2488b05abb8f_LEFT_TO_RIGHT-input"
style="stroke:black;stroke-width:1.000000;stroke-opacity:0" />


<path d="M783.000000 293.000000 C 793.000000 319.000000, 807.000000 353.000000,823.000000 380.000000" stroke="black"  fill="transparent"/>
<path d="M823.000000 380.000000 C 828.000000 388.000000, 835.000000 396.000000,840.000000 401.000000" stroke="black"  fill="transparent"/>

<line
x1="793" y1="319" x2="783" y2="293"
id="0"
style="stroke:black;stroke-width:1.000000;stroke-opacity:0" />


<line
x1="835" y1="396" x2="840" y2="401"
id="Complex_54581ac26867e537ffb978e50bb97d57--to--TransportWithBiochemicalReaction_c9961424d028e16be2d126750a1593d0_LEFT_TO_RIGHT"
style="stroke:black;stroke-width:1.000000;stroke-opacity:0" />


<polygon
points = "840,401 826.8,396.6 826.8,405.4"
id="line"
style="fill:white; stroke:#000000; stroke-width:1"
transform = "rotate(45.000000 840.000000 401.000000)"
/>


<path d="M667.000000 614.000000 C 670.000000 646.000000, 673.000000 686.000000,675.000000 703.000000" stroke="black"  fill="transparent"/>

<line
x1="673" y1="686" x2="675" y2="703"
id="0"
style="stroke:black;stroke-width:1.000000;stroke-opacity:0" />


<line
x1="670" y1="646" x2="667" y2="614"
id="ComplexAssembly_a557cbc406681dcce671293f3bd5e807_LEFT_TO_RIGHT-output--to--Complex_d9365fe07110884ed9cd56d1880f00bb"
style="stroke:black;stroke-width:1.000000;stroke-opacity:0" />


<polygon
points = "667,614 658.2,609.6 658.2,618.4"
id="line"
style="fill:black; stroke:#000000; stroke-width:1"
transform = "rotate(264.644175 667.000000 614.000000)"
/>


<path d="M944.000000 578.000000 C 928.000000 607.000000, 910.000000 642.000000,902.000000 658.000000" stroke="black"  fill="transparent"/>

<line
x1="928" y1="607" x2="944" y2="578"
id="0"
style="stroke:black;stroke-width:1.000000;stroke-opacity:0" />


<line
x1="910" y1="642" x2="902" y2="658"
id="Complex_4a2ae3f11284810d05aadb7cf7ec4521--to--ComplexAssembly_969a973d459b23e6becd2488b05abb8f_LEFT_TO_RIGHT-input"
style="stroke:black;stroke-width:1.000000;stroke-opacity:0" />


<path d="M780.000000 429.000000 C 798.000000 424.000000, 826.000000 416.000000,840.000000 412.000000" stroke="black"  fill="transparent"/>

<line
x1="798" y1="424" x2="780" y2="429"
id="0"
style="stroke:black;stroke-width:1.000000;stroke-opacity:0" />


<line
x1="826" y1="416" x2="840" y2="412"
id="SmallMolecule_5926caf4d3d3022c35ad82d85fad9dc3--to--TransportWithBiochemicalReaction_c9961424d028e16be2d126750a1593d0_LEFT_TO_RIGHT-input"
style="stroke:black;stroke-width:1.000000;stroke-opacity:0" />


<path d="M278.000000 820.000000 C 293.000000 833.000000, 317.000000 852.000000,329.000000 861.000000" stroke="black"  fill="transparent"/>

<line
x1="317" y1="852" x2="329" y2="861"
id="0"
style="stroke:black;stroke-width:1.000000;stroke-opacity:0" />


<line
x1="293" y1="833" x2="278" y2="820"
id="BiochemicalReaction_a04f88a1bc274c02f839f194c84950fa_LEFT_TO_RIGHT-output--to--SmallMolecule_d51626c36edd169d30e361ff55797f24"
style="stroke:black;stroke-width:1.000000;stroke-opacity:0" />


<polygon
points = "278,820 269.2,815.6 269.2,824.4"
id="line"
style="fill:black; stroke:#000000; stroke-width:1"
transform = "rotate(220.914383 278.000000 820.000000)"
/>


<path d="M180.000000 557.000000 C 203.000000 560.000000, 235.000000 562.000000,250.000000 564.000000" stroke="black"  fill="transparent"/>

<line
x1="203" y1="560" x2="180" y2="557"
id="0"
style="stroke:black;stroke-width:1.000000;stroke-opacity:0" />


<line
x1="235" y1="562" x2="250" y2="564"
id="DnaRegion_00df476664d33cd7dffda9a65a5a4874--to--TemplateReaction_ce5b2d75520b5e7e375faa5f5d1e6c83-input"
style="stroke:black;stroke-width:1.000000;stroke-opacity:0" />


<polygon
points = "250,564 236.8,559.6 241.2,564 236.8,568.4"
id="line"
style="fill:black; stroke:#000000; stroke-width:1"
transform = "rotate(7.594643 250.000000 564.000000)"
/>


<path d="M256.000000 791.000000 C 251.000000 772.000000, 243.000000 743.000000,239.000000 728.000000" stroke="black"  fill="transparent"/>

<line
x1="251" y1="772" x2="256" y2="791"
id="0"
style="stroke:black;stroke-width:1.000000;stroke-opacity:0" />


<line
x1="243" y1="743" x2="239" y2="728"
id="SmallMolecule_d51626c36edd169d30e361ff55797f24--to--BiochemicalReaction_c0568864d83ccd73c272b6ce83181dae_LEFT_TO_RIGHT"
style="stroke:black;stroke-width:1.000000;stroke-opacity:0" />


<ellipse
rx="4.400000"
ry="4.400000"
cx="240.133716"
cy="732.251434"
id="SmallMolecule_d51626c36edd169d30e361ff55797f24--to--BiochemicalReaction_c0568864d83ccd73c272b6ce83181dae_LEFT_TO_RIGHT"
style="fill:white;fill-opacity:0.800000;stroke:black;stroke-width:1.000000;stroke-opacity:1.000000" />


<path d="M826.000000 372.000000 C 798.000000 383.000000, 710.000000 418.000000,673.000000 433.000000" stroke="black"  fill="transparent"/>

<line
x1="710" y1="418" x2="673" y2="433"
id="0"
style="stroke:black;stroke-width:1.000000;stroke-opacity:0" />


<line
x1="798" y1="383" x2="826" y2="372"
id="SmallMolecule_94d7a54fe8e0fb1b5f98879e413cf8d4--to--ComplexAssembly_5350612d37024cc50751b3a60ab2d908_LEFT_TO_RIGHT-input"
style="stroke:black;stroke-width:1.000000;stroke-opacity:0" />


<path d="M639.000000 453.000000 C 620.000000 469.000000, 589.000000 495.000000,574.000000 508.000000" stroke="black"  fill="transparent"/>

<line
x1="589" y1="495" x2="574" y2="508"
id="0"
style="stroke:black;stroke-width:1.000000;stroke-opacity:0" />


<line
x1="620" y1="469" x2="639" y2="453"
id="TransportWithBiochemicalReaction_960250620d9feab30827ac43874ef9f5_LEFT_TO_RIGHT-output--to--SmallMolecule_94d7a54fe8e0fb1b5f98879e413cf8d4"
style="stroke:black;stroke-width:1.000000;stroke-opacity:0" />


<polygon
points = "639,453 630.2,448.6 630.2,457.4"
id="line"
style="fill:black; stroke:#000000; stroke-width:1"
transform = "rotate(-40.100908 639.000000 453.000000)"
/>


<path d="M909.000000 337.000000 C 887.000000 346.000000, 858.000000 359.000000,844.000000 365.000000" stroke="black"  fill="transparent"/>

<line
x1="887" y1="346" x2="909" y2="337"
id="0"
style="stroke:black;stroke-width:1.000000;stroke-opacity:0" />


<line
x1="858" y1="359" x2="844" y2="365"
id="Protein_3e3cdae041742bcbc067f4754287e5ff--to--ComplexAssembly_5350612d37024cc50751b3a60ab2d908_LEFT_TO_RIGHT-input"
style="stroke:black;stroke-width:1.000000;stroke-opacity:0" />


<path d="M732.000000 695.000000 C 717.000000 700.000000, 696.000000 706.000000,684.000000 709.000000" stroke="black"  fill="transparent"/>

<line
x1="696" y1="706" x2="684" y2="709"
id="0"
style="stroke:black;stroke-width:1.000000;stroke-opacity:0" />


<line
x1="717" y1="700" x2="732" y2="695"
id="ComplexAssembly_a557cbc406681dcce671293f3bd5e807_LEFT_TO_RIGHT-output--to--SmallMolecule_372315b4c1d84c72b317adc77349488d"
style="stroke:black;stroke-width:1.000000;stroke-opacity:0" />


<polygon
points = "732,695 723.2,690.6 723.2,699.4"
id="line"
style="fill:black; stroke:#000000; stroke-width:1"
transform = "rotate(-18.434949 732.000000 695.000000)"
/>


<path d="M488.000000 564.000000 C 511.000000 550.000000, 543.000000 529.000000,558.000000 520.000000" stroke="black"  fill="transparent"/>

<line
x1="511" y1="550" x2="488" y2="564"
id="0"
style="stroke:black;stroke-width:1.000000;stroke-opacity:0" />


<line
x1="543" y1="529" x2="558" y2="520"
id="Protein_6410d58b76b3d6dad4dafca82a582c30--to--TransportWithBiochemicalReaction_960250620d9feab30827ac43874ef9f5_LEFT_TO_RIGHT"
style="stroke:black;stroke-width:1.000000;stroke-opacity:0" />


<polygon
points = "558,520 544.8,515.6 544.8,524.4"
id="line"
style="fill:white; stroke:#000000; stroke-width:1"
transform = "rotate(-30.963757 558.000000 520.000000)"
/>


<path d="M563.000000 763.000000 C 598.000000 747.000000, 647.000000 725.000000,667.000000 716.000000" stroke="black"  fill="transparent"/>

<line
x1="647" y1="725" x2="667" y2="716"
id="0"
style="stroke:black;stroke-width:1.000000;stroke-opacity:0" />


<line
x1="598" y1="747" x2="563" y2="763"
id="ComplexAssembly_a557cbc406681dcce671293f3bd5e807_LEFT_TO_RIGHT-output--to--Complex_edd121d9ba657330ab8af199621defad"
style="stroke:black;stroke-width:1.000000;stroke-opacity:0" />


<polygon
points = "563,763 554.2,758.6 554.2,767.4"
id="line"
style="fill:black; stroke:#000000; stroke-width:1"
transform = "rotate(155.432829 563.000000 763.000000)"
/>


<path d="M351.000000 798.000000 C 347.000000 817.000000, 342.000000 845.000000,339.000000 860.000000" stroke="black"  fill="transparent"/>

<line
x1="347" y1="817" x2="351" y2="798"
id="0"
style="stroke:black;stroke-width:1.000000;stroke-opacity:0" />


<line
x1="342" y1="845" x2="339" y2="860"
id="SmallMolecule_e4dec4c79be929c8ef12be89533b0b49--to--BiochemicalReaction_a04f88a1bc274c02f839f194c84950fa_LEFT_TO_RIGHT-input"
style="stroke:black;stroke-width:1.000000;stroke-opacity:0" />


<path d="M264.000000 621.000000 C 291.000000 621.000000, 329.000000 622.000000,346.000000 622.000000" stroke="black"  fill="transparent"/>

<line
x1="291" y1="621" x2="264" y2="621"
id="0"
style="stroke:black;stroke-width:1.000000;stroke-opacity:0" />


<line
x1="329" y1="622" x2="346" y2="622"
id="Protein_67391c47c03e98d888db080f807a8591--to--BiochemicalReaction_371e1831405f69657800fbde14df4d4d_LEFT_TO_RIGHT"
style="stroke:black;stroke-width:1.000000;stroke-opacity:0" />


<polygon
points = "346,622 332.8,617.6 332.8,626.4"
id="line"
style="fill:white; stroke:#000000; stroke-width:1"
transform = "rotate(-0.000000 346.000000 622.000000)"
/>


<path d="M1078.000000 477.000000 C 1030.000000 463.000000, 893.000000 423.000000,857.000000 412.000000" stroke="black"  fill="transparent"/>

<line
x1="893" y1="423" x2="857" y2="412"
id="0"
style="stroke:black;stroke-width:1.000000;stroke-opacity:0" />


<line
x1="1030" y1="463" x2="1078" y2="477"
id="TransportWithBiochemicalReaction_c9961424d028e16be2d126750a1593d0_LEFT_TO_RIGHT-output--to--SmallMolecule_0db4df0d8ff93222bae0a2ae2d7b54f9"
style="stroke:black;stroke-width:1.000000;stroke-opacity:0" />


<polygon
points = "1078,477 1069.2,472.6 1069.2,481.4"
id="line"
style="fill:black; stroke:#000000; stroke-width:1"
transform = "rotate(16.260205 1078.000000 477.000000)"
/>


<path d="M389.000000 922.000000 C 375.000000 908.000000, 357.000000 888.000000,346.000000 877.000000" stroke="black"  fill="transparent"/>

<line
x1="375" y1="908" x2="389" y2="922"
id="0"
style="stroke:black;stroke-width:1.000000;stroke-opacity:0" />


<line
x1="357" y1="888" x2="346" y2="877"
id="Protein_4a1e17ba0f17fcaa3515aab276d9fe16--to--BiochemicalReaction_a04f88a1bc274c02f839f194c84950fa_LEFT_TO_RIGHT"
style="stroke:black;stroke-width:1.000000;stroke-opacity:0" />


<ellipse
rx="4.400000"
ry="4.400000"
cx="349.111270"
cy="880.111270"
id="Protein_4a1e17ba0f17fcaa3515aab276d9fe16--to--BiochemicalReaction_a04f88a1bc274c02f839f194c84950fa_LEFT_TO_RIGHT"
style="fill:white;fill-opacity:0.800000;stroke:black;stroke-width:1.000000;stroke-opacity:1.000000" />


<path d="M794.000000 293.000000 C 807.000000 318.000000, 823.000000 346.000000,830.000000 360.000000" stroke="black"  fill="transparent"/>

<line
x1="823" y1="346" x2="830" y2="360"
id="0"
style="stroke:black;stroke-width:1.000000;stroke-opacity:0" />


<line
x1="807" y1="318" x2="794" y2="293"
id="ComplexAssembly_5350612d37024cc50751b3a60ab2d908_LEFT_TO_RIGHT-output--to--Complex_54581ac26867e537ffb978e50bb97d57"
style="stroke:black;stroke-width:1.000000;stroke-opacity:0" />


<polygon
points = "794,293 785.2,288.6 785.2,297.4"
id="line"
style="fill:black; stroke:#000000; stroke-width:1"
transform = "rotate(242.525568 794.000000 293.000000)"
/>


<path d="M242.000000 604.000000 C 246.000000 594.000000, 251.000000 581.000000,255.000000 573.000000" stroke="black"  fill="transparent"/>

<line
x1="246" y1="594" x2="242" y2="604"
id="0"
style="stroke:black;stroke-width:1.000000;stroke-opacity:0" />


<line
x1="251" y1="581" x2="255" y2="573"
id="Protein_67391c47c03e98d888db080f807a8591--to--TemplateReaction_ce5b2d75520b5e7e375faa5f5d1e6c83"
style="stroke:black;stroke-width:1.000000;stroke-opacity:0" />


<path
d="M 251 566.4 251 579.6"
id="Protein_67391c47c03e98d888db080f807a8591--to--TemplateReaction_ce5b2d75520b5e7e375faa5f5d1e6c83"
style="fill:black;fill-opacity:0.600000;stroke-width:1;stroke:black;stroke-opacity:1.000000"
transform = "rotate(-63.434949 255.000000 573.000000)"
/>


<path d="M453.000000 864.000000 C 468.000000 878.000000, 489.000000 896.000000,500.000000 906.000000" stroke="black"  fill="transparent"/>

<line
x1="468" y1="878" x2="453" y2="864"
id="0"
style="stroke:black;stroke-width:1.000000;stroke-opacity:0" />


<line
x1="489" y1="896" x2="500" y2="906"
id="Protein_f04265a12ed2180e7bdbc510bfbef868--to--BiochemicalReaction_b7085a18cb906fbee5a23263aa4c0e10_LEFT_TO_RIGHT-input"
style="stroke:black;stroke-width:1.000000;stroke-opacity:0" />


<path d="M236.000000 637.000000 C 236.000000 658.000000, 236.000000 694.000000,236.000000 710.000000" stroke="black"  fill="transparent"/>

<line
x1="236" y1="694" x2="236" y2="710"
id="0"
style="stroke:black;stroke-width:1.000000;stroke-opacity:0" />


<line
x1="236" y1="658" x2="236" y2="637"
id="BiochemicalReaction_c0568864d83ccd73c272b6ce83181dae_LEFT_TO_RIGHT-output--to--Protein_67391c47c03e98d888db080f807a8591"
style="stroke:black;stroke-width:1.000000;stroke-opacity:0" />


<polygon
points = "236,637 227.2,632.6 227.2,641.4"
id="line"
style="fill:black; stroke:#000000; stroke-width:1"
transform = "rotate(270.000000 236.000000 637.000000)"
/>


<path d="M169.000000 756.000000 C 189.000000 745.000000, 215.000000 731.000000,228.000000 724.000000" stroke="black"  fill="transparent"/>

<line
x1="189" y1="745" x2="169" y2="756"
id="0"
style="stroke:black;stroke-width:1.000000;stroke-opacity:0" />


<line
x1="215" y1="731" x2="228" y2="724"
id="Protein_1b5ca989ccc2520f620bb983b513e089--to--BiochemicalReaction_c0568864d83ccd73c272b6ce83181dae_LEFT_TO_RIGHT-input"
style="stroke:black;stroke-width:1.000000;stroke-opacity:0" />


<path d="M434.000000 592.000000 C 410.000000 601.000000, 379.000000 613.000000,364.000000 619.000000" stroke="black"  fill="transparent"/>

<line
x1="379" y1="613" x2="364" y2="619"
id="0"
style="stroke:black;stroke-width:1.000000;stroke-opacity:0" />


<line
x1="410" y1="601" x2="434" y2="592"
id="BiochemicalReaction_371e1831405f69657800fbde14df4d4d_LEFT_TO_RIGHT-output--to--Protein_6410d58b76b3d6dad4dafca82a582c30"
style="stroke:black;stroke-width:1.000000;stroke-opacity:0" />


<polygon
points = "434,592 425.2,587.6 425.2,596.4"
id="line"
style="fill:black; stroke:#000000; stroke-width:1"
transform = "rotate(-20.556045 434.000000 592.000000)"
/>



</svg>
