<?xml version="1.0" encoding="UTF-8"?>
<svg width="1000.056677" height="1067.025386"
xmlns="http://www.w3.org/2000/svg" xmlns:svg="http://www.w3.org/2000/svg"
>
<metadata id="metadata7">image/svg+xml</metadata>





<ellipse
rx="16.666667"
ry="16.666667"
cx="329.115029"
cy="449.609811"
id="SmallMolecule_27cee4d5012f3a1fdbc373a090734089"
style="fill:white;fill-opacity:0.000000;stroke:black;stroke-width:1.000000;stroke-opacity:1.000000" />



<text
x="329.115029"
y="448.609811"
id="SmallMolecule_27cee4d5012f3a1fdbc373a090734089"
style="font-size:6.000000px;text-anchor:middle;font-family:Arial,Helvetica;alignment-baseline:baseline;stroke.opacity:1;dominant-baseline:baseline"
fill="black"
>
Ribose 1-Ph-</text>


<text
x="329.115029"
y="454.609811"
id="SmallMolecule_27cee4d5012f3a1fdbc373a090734089"
style="font-size:6.000000px;text-anchor:middle;font-family:Arial,Helvetica;alignment-baseline:baseline;stroke.opacity:1;dominant-baseline:baseline"
fill="black"
>
osphate</text>



<rect
width="58.333333"
height="33.333333"
rx="3.333333"
ry="3.333333"
x="475.463366"
y="611.841220"
id="Protein_da1407abde8ede57234a6a730f189a44"
style="fill:white;fill-opacity:1.000000;stroke:black;stroke-width:1.000000;stroke-opacity:1.000000" />


<text
x="504.630033"
y="630.507887"
id="Protein_da1407abde8ede57234a6a730f189a44"
style="font-size:6.000000px;text-anchor:middle;font-family:Arial,Helvetica;alignment-baseline:baseline;stroke.opacity:1;dominant-baseline:baseline"
fill="black"
>
Cytidylate kinase</text>



<rect
width="58.333333"
height="33.333333"
rx="3.333333"
ry="3.333333"
x="225.416638"
y="251.844408"
id="Protein_a7f96c61007a23f1272bca9c2588d2ad"
style="fill:white;fill-opacity:1.000000;stroke:black;stroke-width:1.000000;stroke-opacity:1.000000" />


<text
x="254.583305"
y="270.511075"
id="Protein_a7f96c61007a23f1272bca9c2588d2ad"
style="font-size:6.000000px;text-anchor:middle;font-family:Arial,Helvetica;alignment-baseline:baseline;stroke.opacity:1;dominant-baseline:baseline"
fill="black"
>
UPRT</text>



<ellipse
rx="16.666667"
ry="16.666667"
cx="399.568755"
cy="330.882556"
id="SmallMolecule_09ba22bf3f6a670f1f975e2cf976df0f"
style="fill:white;fill-opacity:0.000000;stroke:black;stroke-width:1.000000;stroke-opacity:1.000000" />


<text
x="399.568755"
y="332.882556"
id="SmallMolecule_09ba22bf3f6a670f1f975e2cf976df0f"
style="font-size:6.000000px;text-anchor:middle;font-family:Arial,Helvetica;alignment-baseline:baseline;stroke.opacity:1;dominant-baseline:baseline"
fill="black"
>
NH3</text>


<rect
width="16.666667"
height="16.666667"
rx="0.000000"
ry="0.000000"
x="234.363463"
y="405.879594"
id="BiochemicalReaction_5f1a2b75160a622e583f2ffb797542d1_LEFT_TO_RIGHT"
style="fill:white;fill-opacity:0.600000;stroke:black;stroke-width:1.000000;stroke-opacity:1.000000" />



<rect
width="16.666667"
height="16.666667"
rx="0.000000"
ry="0.000000"
x="535.465931"
y="521.152407"
id="BiochemicalReaction_57426c8dc75026375688c45215e90e2d_LEFT_TO_RIGHT"
style="fill:white;fill-opacity:0.600000;stroke:black;stroke-width:1.000000;stroke-opacity:1.000000" />



<rect
width="16.666667"
height="16.666667"
rx="0.000000"
ry="0.000000"
x="560.894917"
y="688.108810"
id="BiochemicalReaction_bdcbf93f07dc5a2a927aa9af65e8d981_LEFT_TO_RIGHT"
style="fill:white;fill-opacity:0.600000;stroke:black;stroke-width:1.000000;stroke-opacity:1.000000" />



<rect
width="16.666667"
height="16.666667"
rx="0.000000"
ry="0.000000"
x="287.096986"
y="368.255118"
id="BiochemicalReaction_a9d68e32f7721d0abf7fe1100279121a_LEFT_TO_RIGHT"
style="fill:white;fill-opacity:0.600000;stroke:black;stroke-width:1.000000;stroke-opacity:1.000000" />



<rect
width="16.666667"
height="16.666667"
rx="0.000000"
ry="0.000000"
x="372.767157"
y="239.530491"
id="BiochemicalReaction_5159ed2d8866996608ac8c3ec7cff2a6_LEFT_TO_RIGHT"
style="fill:white;fill-opacity:0.600000;stroke:black;stroke-width:1.000000;stroke-opacity:1.000000" />




<rect
width="58.333333"
height="33.333333"
rx="3.333333"
ry="3.333333"
x="100.000000"
y="419.283516"
id="Protein_6242b6332cbf57764ed4ccd701637250"
style="fill:white;fill-opacity:1.000000;stroke:black;stroke-width:1.000000;stroke-opacity:1.000000" />


<text
x="129.166667"
y="437.950183"
id="Protein_6242b6332cbf57764ed4ccd701637250"
style="font-size:6.000000px;text-anchor:middle;font-family:Arial,Helvetica;alignment-baseline:baseline;stroke.opacity:1;dominant-baseline:baseline"
fill="black"
>
Uridine phosphorylase</text>



<rect
width="58.333333"
height="33.333333"
rx="3.333333"
ry="3.333333"
x="528.087233"
y="287.416077"
id="Protein_9258ee225e275c2b9911a8850f4de44a"
style="fill:white;fill-opacity:1.000000;stroke:black;stroke-width:1.000000;stroke-opacity:1.000000" />


<text
x="557.253900"
y="306.082744"
id="Protein_9258ee225e275c2b9911a8850f4de44a"
style="font-size:6.000000px;text-anchor:middle;font-family:Arial,Helvetica;alignment-baseline:baseline;stroke.opacity:1;dominant-baseline:baseline"
fill="black"
>
Cytodine deaminase</text>



<ellipse
rx="16.666667"
ry="16.666667"
cx="217.861577"
cy="328.273181"
id="SmallMolecule_893d4e9a3537b8b355892e0ccabca0cc"
style="fill:white;fill-opacity:0.000000;stroke:black;stroke-width:1.000000;stroke-opacity:1.000000" />


<text
x="217.861577"
y="330.273181"
id="SmallMolecule_893d4e9a3537b8b355892e0ccabca0cc"
style="font-size:6.000000px;text-anchor:middle;font-family:Arial,Helvetica;alignment-baseline:baseline;stroke.opacity:1;dominant-baseline:baseline"
fill="black"
>
PO4</text>



<rect
width="58.333333"
height="33.333333"
rx="3.333333"
ry="3.333333"
x="611.723343"
y="496.614169"
id="Protein_433c2990c687e89417aebc346d1783d0"
style="fill:white;fill-opacity:1.000000;stroke:black;stroke-width:1.000000;stroke-opacity:1.000000" />


<text
x="640.890010"
y="515.280836"
id="Protein_433c2990c687e89417aebc346d1783d0"
style="font-size:6.000000px;text-anchor:middle;font-family:Arial,Helvetica;alignment-baseline:baseline;stroke.opacity:1;dominant-baseline:baseline"
fill="black"
>
Cytidine kinase</text>


<rect
width="16.666667"
height="16.666667"
rx="0.000000"
ry="0.000000"
x="369.600794"
y="499.511766"
id="BiochemicalReaction_32dbefe367dbbeab347c0bf8f4a9016e_LEFT_TO_RIGHT"
style="fill:white;fill-opacity:0.600000;stroke:black;stroke-width:1.000000;stroke-opacity:1.000000" />




<ellipse
rx="16.666667"
ry="16.666667"
cx="455.687909"
cy="556.876152"
id="SmallMolecule_47212ec67fcf1c2ee59d7dfcc285d890"
style="fill:white;fill-opacity:0.000000;stroke:black;stroke-width:1.000000;stroke-opacity:1.000000" />


<text
x="455.687909"
y="558.876152"
id="SmallMolecule_47212ec67fcf1c2ee59d7dfcc285d890"
style="font-size:6.000000px;text-anchor:middle;font-family:Arial,Helvetica;alignment-baseline:baseline;stroke.opacity:1;dominant-baseline:baseline"
fill="black"
>
GDP</text>



<ellipse
rx="16.666667"
ry="16.666667"
cx="462.265198"
cy="484.855474"
id="SmallMolecule_c821b6c270353c50d44f13fe4d831238"
style="fill:white;fill-opacity:0.000000;stroke:black;stroke-width:1.000000;stroke-opacity:1.000000" />


<text
x="462.265198"
y="486.855474"
id="SmallMolecule_c821b6c270353c50d44f13fe4d831238"
style="font-size:6.000000px;text-anchor:middle;font-family:Arial,Helvetica;alignment-baseline:baseline;stroke.opacity:1;dominant-baseline:baseline"
fill="black"
>
GTP</text>



<rect
width="58.333333"
height="33.333333"
rx="3.333333"
ry="3.333333"
x="538.459505"
y="833.692052"
id="Protein_974166277c161ecc636c0d29f0b4548f"
style="fill:white;fill-opacity:1.000000;stroke:black;stroke-width:1.000000;stroke-opacity:1.000000" />


<text
x="567.626171"
y="852.358719"
id="Protein_974166277c161ecc636c0d29f0b4548f"
style="font-size:6.000000px;text-anchor:middle;font-family:Arial,Helvetica;alignment-baseline:baseline;stroke.opacity:1;dominant-baseline:baseline"
fill="black"
>
CDP kinase</text>



<ellipse
rx="16.666667"
ry="16.666667"
cx="279.262048"
cy="508.216747"
id="SmallMolecule_c76517d04d06007d099f802fbf8dbfd6"
style="fill:white;fill-opacity:0.000000;stroke:black;stroke-width:1.000000;stroke-opacity:1.000000" />


<text
x="279.262048"
y="510.216747"
id="SmallMolecule_c76517d04d06007d099f802fbf8dbfd6"
style="font-size:6.000000px;text-anchor:middle;font-family:Arial,Helvetica;alignment-baseline:baseline;stroke.opacity:1;dominant-baseline:baseline"
fill="black"
>
UMP</text>


<rect
width="16.666667"
height="16.666667"
rx="0.000000"
ry="0.000000"
x="471.360486"
y="359.089809"
id="BiochemicalReaction_d4ca2477e40053d2008e1e4cc92b4189_LEFT_TO_RIGHT"
style="fill:white;fill-opacity:0.600000;stroke:black;stroke-width:1.000000;stroke-opacity:1.000000" />




<rect
width="58.333333"
height="33.333333"
rx="3.333333"
ry="3.333333"
x="323.465207"
y="576.998927"
id="Protein_b93708b9628e7b49a478d6efd9c973f5"
style="fill:white;fill-opacity:1.000000;stroke:black;stroke-width:1.000000;stroke-opacity:1.000000" />


<text
x="352.631873"
y="595.665593"
id="Protein_b93708b9628e7b49a478d6efd9c973f5"
style="font-size:6.000000px;text-anchor:middle;font-family:Arial,Helvetica;alignment-baseline:baseline;stroke.opacity:1;dominant-baseline:baseline"
fill="black"
>
Uridine kinase</text>



<ellipse
rx="16.666667"
ry="16.666667"
cx="600.218674"
cy="607.316055"
id="SmallMolecule_765d03be5681080be1e74e5db1387949"
style="fill:white;fill-opacity:0.000000;stroke:black;stroke-width:1.000000;stroke-opacity:1.000000" />


<text
x="600.218674"
y="609.316055"
id="SmallMolecule_765d03be5681080be1e74e5db1387949"
style="font-size:6.000000px;text-anchor:middle;font-family:Arial,Helvetica;alignment-baseline:baseline;stroke.opacity:1;dominant-baseline:baseline"
fill="black"
>
CMP</text>



<ellipse
rx="16.666667"
ry="16.666667"
cx="201.122104"
cy="493.193134"
id="SmallMolecule_7c646e47fcf7743211f31a95a9be981b"
style="fill:white;fill-opacity:0.000000;stroke:black;stroke-width:1.000000;stroke-opacity:1.000000" />


<text
x="201.122104"
y="495.193134"
id="SmallMolecule_7c646e47fcf7743211f31a95a9be981b"
style="font-size:6.000000px;text-anchor:middle;font-family:Arial,Helvetica;alignment-baseline:baseline;stroke.opacity:1;dominant-baseline:baseline"
fill="black"
>
PPi</text>



<ellipse
rx="16.666667"
ry="16.666667"
cx="481.328834"
cy="713.102539"
id="SmallMolecule_68d9752916a73cd26503beaec2ab3811"
style="fill:white;fill-opacity:0.000000;stroke:black;stroke-width:1.000000;stroke-opacity:1.000000" />


<text
x="481.328834"
y="715.102539"
id="SmallMolecule_68d9752916a73cd26503beaec2ab3811"
style="font-size:6.000000px;text-anchor:middle;font-family:Arial,Helvetica;alignment-baseline:baseline;stroke.opacity:1;dominant-baseline:baseline"
fill="black"
>
ADP</text>



<ellipse
rx="16.666667"
ry="16.666667"
cx="391.591453"
cy="409.066361"
id="SmallMolecule_a874895f0a1ae89af534576b41859310"
style="fill:white;fill-opacity:0.000000;stroke:black;stroke-width:1.000000;stroke-opacity:1.000000" />


<text
x="391.591453"
y="411.066361"
id="SmallMolecule_a874895f0a1ae89af534576b41859310"
style="font-size:6.000000px;text-anchor:middle;font-family:Arial,Helvetica;alignment-baseline:baseline;stroke.opacity:1;dominant-baseline:baseline"
fill="black"
>
Uridine</text>


<rect
width="16.666667"
height="16.666667"
rx="0.000000"
ry="0.000000"
x="547.880744"
y="756.900350"
id="BiochemicalReaction_a14683a5bf768aa0b2bc69248430ed8b_LEFT_TO_RIGHT"
style="fill:white;fill-opacity:0.600000;stroke:black;stroke-width:1.000000;stroke-opacity:1.000000" />




<ellipse
rx="16.666667"
ry="16.666667"
cx="546.008720"
cy="438.790381"
id="SmallMolecule_45f7ed18cef11000dafa0a1ffe80ba86"
style="fill:white;fill-opacity:0.000000;stroke:black;stroke-width:1.000000;stroke-opacity:1.000000" />


<text
x="546.008720"
y="440.790381"
id="SmallMolecule_45f7ed18cef11000dafa0a1ffe80ba86"
style="font-size:6.000000px;text-anchor:middle;font-family:Arial,Helvetica;alignment-baseline:baseline;stroke.opacity:1;dominant-baseline:baseline"
fill="black"
>
Cytidine</text>



<ellipse
rx="16.666667"
ry="16.666667"
cx="321.617321"
cy="318.747454"
id="SmallMolecule_4b4d134bbc74dded69388996103c7282"
style="fill:white;fill-opacity:0.000000;stroke:black;stroke-width:1.000000;stroke-opacity:1.000000" />


<text
x="321.617321"
y="320.747454"
id="SmallMolecule_4b4d134bbc74dded69388996103c7282"
style="font-size:6.000000px;text-anchor:middle;font-family:Arial,Helvetica;alignment-baseline:baseline;stroke.opacity:1;dominant-baseline:baseline"
fill="black"
>
Uracil</text>



<ellipse
rx="16.666667"
ry="16.666667"
cx="155.477531"
cy="367.741078"
id="SmallMolecule_687e65b7b823f61eb77eb98677e6c889"
style="fill:white;fill-opacity:0.000000;stroke:black;stroke-width:1.000000;stroke-opacity:1.000000" />


<text
x="155.477531"
y="369.741078"
id="SmallMolecule_687e65b7b823f61eb77eb98677e6c889"
style="font-size:6.000000px;text-anchor:middle;font-family:Arial,Helvetica;alignment-baseline:baseline;stroke.opacity:1;dominant-baseline:baseline"
fill="black"
>
PRPP</text>



<ellipse
rx="16.666667"
ry="16.666667"
cx="473.362187"
cy="808.128700"
id="SmallMolecule_ce547883311acac07560b164ee9c2ed9"
style="fill:white;fill-opacity:0.000000;stroke:black;stroke-width:1.000000;stroke-opacity:1.000000" />


<text
x="473.362187"
y="810.128700"
id="SmallMolecule_ce547883311acac07560b164ee9c2ed9"
style="font-size:6.000000px;text-anchor:middle;font-family:Arial,Helvetica;alignment-baseline:baseline;stroke.opacity:1;dominant-baseline:baseline"
fill="black"
>
CTP</text>



<ellipse
rx="16.666667"
ry="16.666667"
cx="447.842756"
cy="180.827671"
id="SmallMolecule_b941b2559d2ec1882795aa508e176c93"
style="fill:white;fill-opacity:0.000000;stroke:black;stroke-width:1.000000;stroke-opacity:1.000000" />


<text
x="447.842756"
y="182.827671"
id="SmallMolecule_b941b2559d2ec1882795aa508e176c93"
style="font-size:6.000000px;text-anchor:middle;font-family:Arial,Helvetica;alignment-baseline:baseline;stroke.opacity:1;dominant-baseline:baseline"
fill="black"
>
cytosine</text>



<rect
width="58.333333"
height="33.333333"
rx="3.333333"
ry="3.333333"
x="297.516610"
y="150.000000"
id="Protein_6d92384b79d1b3302da83d461f4848ad"
style="fill:white;fill-opacity:1.000000;stroke:black;stroke-width:1.000000;stroke-opacity:1.000000" />


<text
x="326.683276"
y="168.666667"
id="Protein_6d92384b79d1b3302da83d461f4848ad"
style="font-size:6.000000px;text-anchor:middle;font-family:Arial,Helvetica;alignment-baseline:baseline;stroke.opacity:1;dominant-baseline:baseline"
fill="black"
>
ADAT2</text>



<ellipse
rx="16.666667"
ry="16.666667"
cx="463.085331"
cy="277.241230"
id="SmallMolecule_dff7a5252e99731a889e05223bceee9f"
style="fill:white;fill-opacity:0.000000;stroke:black;stroke-width:1.000000;stroke-opacity:1.000000" />


<text
x="463.085331"
y="279.241230"
id="SmallMolecule_dff7a5252e99731a889e05223bceee9f"
style="font-size:6.000000px;text-anchor:middle;font-family:Arial,Helvetica;alignment-baseline:baseline;stroke.opacity:1;dominant-baseline:baseline"
fill="black"
>
H2O</text>



<ellipse
rx="16.666667"
ry="16.666667"
cx="630.251300"
cy="776.239278"
id="SmallMolecule_e6f8e386d4aabcf7e22803f5ab0482cc"
style="fill:white;fill-opacity:0.000000;stroke:black;stroke-width:1.000000;stroke-opacity:1.000000" />


<text
x="630.251300"
y="778.239278"
id="SmallMolecule_e6f8e386d4aabcf7e22803f5ab0482cc"
style="font-size:6.000000px;text-anchor:middle;font-family:Arial,Helvetica;alignment-baseline:baseline;stroke.opacity:1;dominant-baseline:baseline"
fill="black"
>
CDP</text>



<ellipse
rx="16.666667"
ry="16.666667"
cx="641.726592"
cy="708.629567"
id="SmallMolecule_067280b8b822ca79f313ec8eebae1ca8"
style="fill:white;fill-opacity:0.000000;stroke:black;stroke-width:1.000000;stroke-opacity:1.000000" />


<text
x="641.726592"
y="710.629567"
id="SmallMolecule_067280b8b822ca79f313ec8eebae1ca8"
style="font-size:6.000000px;text-anchor:middle;font-family:Arial,Helvetica;alignment-baseline:baseline;stroke.opacity:1;dominant-baseline:baseline"
fill="black"
>
ATP</text>




<path d="M375.000000 516.000000 C 371.000000 530.000000, 362.000000 558.000000,357.000000 576.000000" stroke="black"  fill="transparent"/>

<line
x1="362" y1="558" x2="357" y2="576"
id="0"
style="stroke:black;stroke-width:1.000000;stroke-opacity:0" />


<line
x1="371" y1="530" x2="375" y2="516"
id="Protein_b93708b9628e7b49a478d6efd9c973f5--to--BiochemicalReaction_32dbefe367dbbeab347c0bf8f4a9016e_LEFT_TO_RIGHT"
style="stroke:black;stroke-width:1.000000;stroke-opacity:0" />


<ellipse
rx="4.400000"
ry="4.400000"
cx="373.791227"
cy="520.230705"
id="Protein_b93708b9628e7b49a478d6efd9c973f5--to--BiochemicalReaction_32dbefe367dbbeab347c0bf8f4a9016e_LEFT_TO_RIGHT"
style="fill:white;fill-opacity:0.800000;stroke:black;stroke-width:1.000000;stroke-opacity:1.000000" />


<path d="M478.000000 358.000000 C 475.000000 343.000000, 469.000000 313.000000,466.000000 293.000000" stroke="black"  fill="transparent"/>

<line
x1="469" y1="313" x2="466" y2="293"
id="0"
style="stroke:black;stroke-width:1.000000;stroke-opacity:0" />


<line
x1="475" y1="343" x2="478" y2="358"
id="SmallMolecule_dff7a5252e99731a889e05223bceee9f--to--BiochemicalReaction_d4ca2477e40053d2008e1e4cc92b4189_LEFT_TO_RIGHT-input"
style="stroke:black;stroke-width:1.000000;stroke-opacity:0" />


<path d="M260.000000 285.000000 C 269.000000 308.000000, 285.000000 350.000000,292.000000 368.000000" stroke="black"  fill="transparent"/>

<line
x1="269" y1="308" x2="260" y2="285"
id="0"
style="stroke:black;stroke-width:1.000000;stroke-opacity:0" />


<line
x1="285" y1="350" x2="292" y2="368"
id="Protein_a7f96c61007a23f1272bca9c2588d2ad--to--BiochemicalReaction_a9d68e32f7721d0abf7fe1100279121a_LEFT_TO_RIGHT"
style="stroke:black;stroke-width:1.000000;stroke-opacity:0" />


<ellipse
rx="4.400000"
ry="4.400000"
cx="290.405236"
cy="363.899179"
id="Protein_a7f96c61007a23f1272bca9c2588d2ad--to--BiochemicalReaction_a9d68e32f7721d0abf7fe1100279121a_LEFT_TO_RIGHT"
style="fill:white;fill-opacity:0.800000;stroke:black;stroke-width:1.000000;stroke-opacity:1.000000" />


<path d="M246.000000 422.000000 C 252.000000 438.000000, 264.000000 471.000000,272.000000 491.000000" stroke="black"  fill="transparent"/>

<line
x1="252" y1="438" x2="246" y2="422"
id="0"
style="stroke:black;stroke-width:1.000000;stroke-opacity:0" />


<line
x1="264" y1="471" x2="272" y2="491"
id="BiochemicalReaction_5f1a2b75160a622e583f2ffb797542d1_LEFT_TO_RIGHT-output--to--SmallMolecule_c76517d04d06007d099f802fbf8dbfd6"
style="stroke:black;stroke-width:1.000000;stroke-opacity:0" />


<polygon
points = "272,491 263.2,486.6 263.2,495.4"
id="line"
style="fill:black; stroke:#000000; stroke-width:1"
transform = "rotate(68.198591 272.000000 491.000000)"
/>


<path d="M544.000000 520.000000 C 544.000000 505.000000, 545.000000 474.000000,545.000000 455.000000" stroke="black"  fill="transparent"/>

<line
x1="545" y1="474" x2="545" y2="455"
id="0"
style="stroke:black;stroke-width:1.000000;stroke-opacity:0" />


<line
x1="544" y1="505" x2="544" y2="520"
id="SmallMolecule_45f7ed18cef11000dafa0a1ffe80ba86--to--BiochemicalReaction_57426c8dc75026375688c45215e90e2d_LEFT_TO_RIGHT-input"
style="stroke:black;stroke-width:1.000000;stroke-opacity:0" />


<path d="M287.000000 371.000000 C 274.000000 363.000000, 250.000000 348.000000,234.000000 338.000000" stroke="black"  fill="transparent"/>

<line
x1="250" y1="348" x2="234" y2="338"
id="0"
style="stroke:black;stroke-width:1.000000;stroke-opacity:0" />


<line
x1="274" y1="363" x2="287" y2="371"
id="SmallMolecule_893d4e9a3537b8b355892e0ccabca0cc--to--BiochemicalReaction_a9d68e32f7721d0abf7fe1100279121a_LEFT_TO_RIGHT-input"
style="stroke:black;stroke-width:1.000000;stroke-opacity:0" />


<path d="M497.000000 724.000000 C 513.000000 735.000000, 535.000000 751.000000,547.000000 759.000000" stroke="black"  fill="transparent"/>

<line
x1="513" y1="735" x2="497" y2="724"
id="0"
style="stroke:black;stroke-width:1.000000;stroke-opacity:0" />


<line
x1="535" y1="751" x2="547" y2="759"
id="SmallMolecule_68d9752916a73cd26503beaec2ab3811--to--BiochemicalReaction_a14683a5bf768aa0b2bc69248430ed8b_LEFT_TO_RIGHT-input"
style="stroke:black;stroke-width:1.000000;stroke-opacity:0" />


<path d="M389.000000 250.000000 C 402.000000 255.000000, 429.000000 265.000000,446.000000 271.000000" stroke="black"  fill="transparent"/>

<line
x1="429" y1="265" x2="446" y2="271"
id="0"
style="stroke:black;stroke-width:1.000000;stroke-opacity:0" />


<line
x1="402" y1="255" x2="389" y2="250"
id="SmallMolecule_dff7a5252e99731a889e05223bceee9f--to--BiochemicalReaction_5159ed2d8866996608ac8c3ec7cff2a6_LEFT_TO_RIGHT-input"
style="stroke:black;stroke-width:1.000000;stroke-opacity:0" />


<path d="M577.000000 697.000000 C 589.000000 699.000000, 610.000000 703.000000,625.000000 705.000000" stroke="black"  fill="transparent"/>

<line
x1="610" y1="703" x2="625" y2="705"
id="0"
style="stroke:black;stroke-width:1.000000;stroke-opacity:0" />


<line
x1="589" y1="699" x2="577" y2="697"
id="SmallMolecule_067280b8b822ca79f313ec8eebae1ca8--to--BiochemicalReaction_bdcbf93f07dc5a2a927aa9af65e8d981_LEFT_TO_RIGHT-input"
style="stroke:black;stroke-width:1.000000;stroke-opacity:0" />


<path d="M389.000000 239.000000 C 400.000000 228.000000, 418.000000 210.000000,431.000000 197.000000" stroke="black"  fill="transparent"/>

<line
x1="418" y1="210" x2="431" y2="197"
id="0"
style="stroke:black;stroke-width:1.000000;stroke-opacity:0" />


<line
x1="400" y1="228" x2="389" y2="239"
id="SmallMolecule_b941b2559d2ec1882795aa508e176c93--to--BiochemicalReaction_5159ed2d8866996608ac8c3ec7cff2a6_LEFT_TO_RIGHT-input"
style="stroke:black;stroke-width:1.000000;stroke-opacity:0" />


<path d="M299.000000 368.000000 C 303.000000 359.000000, 309.000000 346.000000,314.000000 335.000000" stroke="black"  fill="transparent"/>

<line
x1="303" y1="359" x2="299" y2="368"
id="0"
style="stroke:black;stroke-width:1.000000;stroke-opacity:0" />


<line
x1="309" y1="346" x2="314" y2="335"
id="BiochemicalReaction_a9d68e32f7721d0abf7fe1100279121a_LEFT_TO_RIGHT-output--to--SmallMolecule_4b4d134bbc74dded69388996103c7282"
style="stroke:black;stroke-width:1.000000;stroke-opacity:0" />


<polygon
points = "314,335 305.2,330.6 305.2,339.4"
id="line"
style="fill:black; stroke:#000000; stroke-width:1"
transform = "rotate(-65.556045 314.000000 335.000000)"
/>


<path d="M547.000000 769.000000 C 534.000000 776.000000, 507.000000 790.000000,489.000000 799.000000" stroke="black"  fill="transparent"/>

<line
x1="507" y1="790" x2="489" y2="799"
id="0"
style="stroke:black;stroke-width:1.000000;stroke-opacity:0" />


<line
x1="534" y1="776" x2="547" y2="769"
id="SmallMolecule_ce547883311acac07560b164ee9c2ed9--to--BiochemicalReaction_a14683a5bf768aa0b2bc69248430ed8b_LEFT_TO_RIGHT-input"
style="stroke:black;stroke-width:1.000000;stroke-opacity:0" />


<path d="M386.000000 505.000000 C 400.000000 501.000000, 427.000000 494.000000,445.000000 489.000000" stroke="black"  fill="transparent"/>

<line
x1="427" y1="494" x2="445" y2="489"
id="0"
style="stroke:black;stroke-width:1.000000;stroke-opacity:0" />


<line
x1="400" y1="501" x2="386" y2="505"
id="SmallMolecule_c821b6c270353c50d44f13fe4d831238--to--BiochemicalReaction_32dbefe367dbbeab347c0bf8f4a9016e_LEFT_TO_RIGHT-input"
style="stroke:black;stroke-width:1.000000;stroke-opacity:0" />


<path d="M234.000000 415.000000 C 218.000000 418.000000, 183.000000 425.000000,158.000000 430.000000" stroke="black"  fill="transparent"/>

<line
x1="183" y1="425" x2="158" y2="430"
id="0"
style="stroke:black;stroke-width:1.000000;stroke-opacity:0" />


<line
x1="218" y1="418" x2="234" y2="415"
id="Protein_6242b6332cbf57764ed4ccd701637250--to--BiochemicalReaction_5f1a2b75160a622e583f2ffb797542d1_LEFT_TO_RIGHT"
style="stroke:black;stroke-width:1.000000;stroke-opacity:0" />


<ellipse
rx="4.400000"
ry="4.400000"
cx="229.675362"
cy="415.810870"
id="Protein_6242b6332cbf57764ed4ccd701637250--to--BiochemicalReaction_5f1a2b75160a622e583f2ffb797542d1_LEFT_TO_RIGHT"
style="fill:white;fill-opacity:0.800000;stroke:black;stroke-width:1.000000;stroke-opacity:1.000000" />


<path d="M520.000000 645.000000 C 533.000000 658.000000, 550.000000 677.000000,561.000000 687.000000" stroke="black"  fill="transparent"/>

<line
x1="533" y1="658" x2="520" y2="645"
id="0"
style="stroke:black;stroke-width:1.000000;stroke-opacity:0" />


<line
x1="550" y1="677" x2="561" y2="687"
id="Protein_da1407abde8ede57234a6a730f189a44--to--BiochemicalReaction_bdcbf93f07dc5a2a927aa9af65e8d981_LEFT_TO_RIGHT"
style="stroke:black;stroke-width:1.000000;stroke-opacity:0" />


<ellipse
rx="4.400000"
ry="4.400000"
cx="557.744264"
cy="684.040240"
id="Protein_da1407abde8ede57234a6a730f189a44--to--BiochemicalReaction_bdcbf93f07dc5a2a927aa9af65e8d981_LEFT_TO_RIGHT"
style="fill:white;fill-opacity:0.800000;stroke:black;stroke-width:1.000000;stroke-opacity:1.000000" />


<path d="M234.000000 409.000000 C 220.000000 402.000000, 190.000000 386.000000,172.000000 376.000000" stroke="black"  fill="transparent"/>

<line
x1="190" y1="386" x2="172" y2="376"
id="0"
style="stroke:black;stroke-width:1.000000;stroke-opacity:0" />


<line
x1="220" y1="402" x2="234" y2="409"
id="SmallMolecule_687e65b7b823f61eb77eb98677e6c889--to--BiochemicalReaction_5f1a2b75160a622e583f2ffb797542d1_LEFT_TO_RIGHT-input"
style="stroke:black;stroke-width:1.000000;stroke-opacity:0" />


<path d="M565.000000 833.000000 C 562.000000 815.000000, 559.000000 788.000000,557.000000 774.000000" stroke="black"  fill="transparent"/>

<line
x1="562" y1="815" x2="565" y2="833"
id="0"
style="stroke:black;stroke-width:1.000000;stroke-opacity:0" />


<line
x1="559" y1="788" x2="557" y2="774"
id="Protein_974166277c161ecc636c0d29f0b4548f--to--BiochemicalReaction_a14683a5bf768aa0b2bc69248430ed8b_LEFT_TO_RIGHT"
style="stroke:black;stroke-width:1.000000;stroke-opacity:0" />


<ellipse
rx="4.400000"
ry="4.400000"
cx="557.622254"
cy="778.355778"
id="Protein_974166277c161ecc636c0d29f0b4548f--to--BiochemicalReaction_a14683a5bf768aa0b2bc69248430ed8b_LEFT_TO_RIGHT"
style="fill:white;fill-opacity:0.800000;stroke:black;stroke-width:1.000000;stroke-opacity:1.000000" />


<path d="M379.000000 499.000000 C 381.000000 482.000000, 386.000000 446.000000,389.000000 425.000000" stroke="black"  fill="transparent"/>

<line
x1="386" y1="446" x2="389" y2="425"
id="0"
style="stroke:black;stroke-width:1.000000;stroke-opacity:0" />


<line
x1="381" y1="482" x2="379" y2="499"
id="SmallMolecule_a874895f0a1ae89af534576b41859310--to--BiochemicalReaction_32dbefe367dbbeab347c0bf8f4a9016e_LEFT_TO_RIGHT-input"
style="stroke:black;stroke-width:1.000000;stroke-opacity:0" />


<path d="M369.000000 507.000000 C 353.000000 507.000000, 317.000000 508.000000,295.000000 508.000000" stroke="black"  fill="transparent"/>

<line
x1="353" y1="507" x2="369" y2="507"
id="0"
style="stroke:black;stroke-width:1.000000;stroke-opacity:0" />


<line
x1="317" y1="508" x2="295" y2="508"
id="BiochemicalReaction_32dbefe367dbbeab347c0bf8f4a9016e_LEFT_TO_RIGHT-output--to--SmallMolecule_c76517d04d06007d099f802fbf8dbfd6"
style="stroke:black;stroke-width:1.000000;stroke-opacity:0" />


<polygon
points = "295,508 286.2,503.6 286.2,512.4"
id="line"
style="fill:black; stroke:#000000; stroke-width:1"
transform = "rotate(180.000000 295.000000 508.000000)"
/>


<path d="M535.000000 524.000000 C 522.000000 517.000000, 496.000000 503.000000,478.000000 493.000000" stroke="black"  fill="transparent"/>

<line
x1="496" y1="503" x2="478" y2="493"
id="0"
style="stroke:black;stroke-width:1.000000;stroke-opacity:0" />


<line
x1="522" y1="517" x2="535" y2="524"
id="SmallMolecule_c821b6c270353c50d44f13fe4d831238--to--BiochemicalReaction_57426c8dc75026375688c45215e90e2d_LEFT_TO_RIGHT-input"
style="stroke:black;stroke-width:1.000000;stroke-opacity:0" />


<path d="M416.000000 338.000000 C 432.000000 346.000000, 457.000000 357.000000,471.000000 363.000000" stroke="black"  fill="transparent"/>

<line
x1="457" y1="357" x2="471" y2="363"
id="0"
style="stroke:black;stroke-width:1.000000;stroke-opacity:0" />


<line
x1="432" y1="346" x2="416" y2="338"
id="BiochemicalReaction_d4ca2477e40053d2008e1e4cc92b4189_LEFT_TO_RIGHT-output--to--SmallMolecule_09ba22bf3f6a670f1f975e2cf976df0f"
style="stroke:black;stroke-width:1.000000;stroke-opacity:0" />


<polygon
points = "416,338 407.2,333.6 407.2,342.4"
id="line"
style="fill:black; stroke:#000000; stroke-width:1"
transform = "rotate(206.565051 416.000000 338.000000)"
/>


<path d="M572.000000 687.000000 C 577.000000 673.000000, 587.000000 643.000000,594.000000 624.000000" stroke="black"  fill="transparent"/>

<line
x1="587" y1="643" x2="594" y2="624"
id="0"
style="stroke:black;stroke-width:1.000000;stroke-opacity:0" />


<line
x1="577" y1="673" x2="572" y2="687"
id="SmallMolecule_765d03be5681080be1e74e5db1387949--to--BiochemicalReaction_bdcbf93f07dc5a2a927aa9af65e8d981_LEFT_TO_RIGHT-input"
style="stroke:black;stroke-width:1.000000;stroke-opacity:0" />


<path d="M373.000000 256.000000 C 364.000000 267.000000, 347.000000 287.000000,335.000000 302.000000" stroke="black"  fill="transparent"/>

<line
x1="364" y1="267" x2="373" y2="256"
id="0"
style="stroke:black;stroke-width:1.000000;stroke-opacity:0" />


<line
x1="347" y1="287" x2="335" y2="302"
id="BiochemicalReaction_5159ed2d8866996608ac8c3ec7cff2a6_LEFT_TO_RIGHT-output--to--SmallMolecule_4b4d134bbc74dded69388996103c7282"
style="stroke:black;stroke-width:1.000000;stroke-opacity:0" />


<polygon
points = "335,302 326.2,297.6 326.2,306.4"
id="line"
style="fill:black; stroke:#000000; stroke-width:1"
transform = "rotate(128.659808 335.000000 302.000000)"
/>


<path d="M303.000000 379.000000 C 319.000000 384.000000, 354.000000 396.000000,374.000000 403.000000" stroke="black"  fill="transparent"/>

<line
x1="354" y1="396" x2="374" y2="403"
id="0"
style="stroke:black;stroke-width:1.000000;stroke-opacity:0" />


<line
x1="319" y1="384" x2="303" y2="379"
id="SmallMolecule_a874895f0a1ae89af534576b41859310--to--BiochemicalReaction_a9d68e32f7721d0abf7fe1100279121a_LEFT_TO_RIGHT-input"
style="stroke:black;stroke-width:1.000000;stroke-opacity:0" />


<path d="M536.000000 320.000000 C 521.000000 333.000000, 499.000000 350.000000,488.000000 360.000000" stroke="black"  fill="transparent"/>

<line
x1="521" y1="333" x2="536" y2="320"
id="0"
style="stroke:black;stroke-width:1.000000;stroke-opacity:0" />


<line
x1="499" y1="350" x2="488" y2="360"
id="Protein_9258ee225e275c2b9911a8850f4de44a--to--BiochemicalReaction_d4ca2477e40053d2008e1e4cc92b4189_LEFT_TO_RIGHT"
style="stroke:black;stroke-width:1.000000;stroke-opacity:0" />


<ellipse
rx="4.400000"
ry="4.400000"
cx="491.255736"
cy="357.040240"
id="Protein_9258ee225e275c2b9911a8850f4de44a--to--BiochemicalReaction_d4ca2477e40053d2008e1e4cc92b4189_LEFT_TO_RIGHT"
style="fill:white;fill-opacity:0.800000;stroke:black;stroke-width:1.000000;stroke-opacity:1.000000" />


<path d="M564.000000 766.000000 C 576.000000 768.000000, 598.000000 771.000000,613.000000 773.000000" stroke="black"  fill="transparent"/>

<line
x1="576" y1="768" x2="564" y2="766"
id="0"
style="stroke:black;stroke-width:1.000000;stroke-opacity:0" />


<line
x1="598" y1="771" x2="613" y2="773"
id="BiochemicalReaction_a14683a5bf768aa0b2bc69248430ed8b_LEFT_TO_RIGHT-output--to--SmallMolecule_e6f8e386d4aabcf7e22803f5ab0482cc"
style="stroke:black;stroke-width:1.000000;stroke-opacity:0" />


<polygon
points = "613,773 604.2,768.6 604.2,777.4"
id="line"
style="fill:black; stroke:#000000; stroke-width:1"
transform = "rotate(7.594643 613.000000 773.000000)"
/>


<path d="M550.000000 538.000000 C 559.000000 550.000000, 576.000000 574.000000,588.000000 590.000000" stroke="black"  fill="transparent"/>

<line
x1="559" y1="550" x2="550" y2="538"
id="0"
style="stroke:black;stroke-width:1.000000;stroke-opacity:0" />


<line
x1="576" y1="574" x2="588" y2="590"
id="BiochemicalReaction_57426c8dc75026375688c45215e90e2d_LEFT_TO_RIGHT-output--to--SmallMolecule_765d03be5681080be1e74e5db1387949"
style="stroke:black;stroke-width:1.000000;stroke-opacity:0" />


<polygon
points = "588,590 579.2,585.6 579.2,594.4"
id="line"
style="fill:black; stroke:#000000; stroke-width:1"
transform = "rotate(53.130102 588.000000 590.000000)"
/>


<path d="M386.000000 513.000000 C 399.000000 521.000000, 423.000000 536.000000,439.000000 546.000000" stroke="black"  fill="transparent"/>

<line
x1="399" y1="521" x2="386" y2="513"
id="0"
style="stroke:black;stroke-width:1.000000;stroke-opacity:0" />


<line
x1="423" y1="536" x2="439" y2="546"
id="BiochemicalReaction_32dbefe367dbbeab347c0bf8f4a9016e_LEFT_TO_RIGHT-output--to--SmallMolecule_47212ec67fcf1c2ee59d7dfcc285d890"
style="stroke:black;stroke-width:1.000000;stroke-opacity:0" />


<polygon
points = "439,546 430.2,541.6 430.2,550.4"
id="line"
style="fill:black; stroke:#000000; stroke-width:1"
transform = "rotate(32.005383 439.000000 546.000000)"
/>


<path d="M487.000000 376.000000 C 498.000000 387.000000, 517.000000 407.000000,530.000000 422.000000" stroke="black"  fill="transparent"/>

<line
x1="517" y1="407" x2="530" y2="422"
id="0"
style="stroke:black;stroke-width:1.000000;stroke-opacity:0" />


<line
x1="498" y1="387" x2="487" y2="376"
id="SmallMolecule_45f7ed18cef11000dafa0a1ffe80ba86--to--BiochemicalReaction_d4ca2477e40053d2008e1e4cc92b4189_LEFT_TO_RIGHT-input"
style="stroke:black;stroke-width:1.000000;stroke-opacity:0" />


<path d="M395.000000 314.000000 C 391.000000 296.000000, 386.000000 270.000000,383.000000 256.000000" stroke="black"  fill="transparent"/>

<line
x1="386" y1="270" x2="383" y2="256"
id="0"
style="stroke:black;stroke-width:1.000000;stroke-opacity:0" />


<line
x1="391" y1="296" x2="395" y2="314"
id="BiochemicalReaction_5159ed2d8866996608ac8c3ec7cff2a6_LEFT_TO_RIGHT-output--to--SmallMolecule_09ba22bf3f6a670f1f975e2cf976df0f"
style="stroke:black;stroke-width:1.000000;stroke-opacity:0" />


<polygon
points = "395,314 386.2,309.6 386.2,318.4"
id="line"
style="fill:black; stroke:#000000; stroke-width:1"
transform = "rotate(77.471192 395.000000 314.000000)"
/>


<path d="M321.000000 433.000000 C 314.000000 418.000000, 304.000000 397.000000,299.000000 385.000000" stroke="black"  fill="transparent"/>

<line
x1="304" y1="397" x2="299" y2="385"
id="0"
style="stroke:black;stroke-width:1.000000;stroke-opacity:0" />


<line
x1="314" y1="418" x2="321" y2="433"
id="BiochemicalReaction_a9d68e32f7721d0abf7fe1100279121a_LEFT_TO_RIGHT-output--to--SmallMolecule_27cee4d5012f3a1fdbc373a090734089"
style="stroke:black;stroke-width:1.000000;stroke-opacity:0" />


<polygon
points = "321,433 312.2,428.6 312.2,437.4"
id="line"
style="fill:black; stroke:#000000; stroke-width:1"
transform = "rotate(64.983107 321.000000 433.000000)"
/>


<path d="M564.000000 759.000000 C 578.000000 750.000000, 607.000000 731.000000,625.000000 719.000000" stroke="black"  fill="transparent"/>

<line
x1="578" y1="750" x2="564" y2="759"
id="0"
style="stroke:black;stroke-width:1.000000;stroke-opacity:0" />


<line
x1="607" y1="731" x2="625" y2="719"
id="BiochemicalReaction_a14683a5bf768aa0b2bc69248430ed8b_LEFT_TO_RIGHT-output--to--SmallMolecule_067280b8b822ca79f313ec8eebae1ca8"
style="stroke:black;stroke-width:1.000000;stroke-opacity:0" />


<polygon
points = "625,719 616.2,714.6 616.2,723.4"
id="line"
style="fill:black; stroke:#000000; stroke-width:1"
transform = "rotate(-33.690068 625.000000 719.000000)"
/>


<path d="M249.000000 405.000000 C 263.000000 389.000000, 290.000000 355.000000,307.000000 335.000000" stroke="black"  fill="transparent"/>

<line
x1="290" y1="355" x2="307" y2="335"
id="0"
style="stroke:black;stroke-width:1.000000;stroke-opacity:0" />


<line
x1="263" y1="389" x2="249" y2="405"
id="SmallMolecule_4b4d134bbc74dded69388996103c7282--to--BiochemicalReaction_5f1a2b75160a622e583f2ffb797542d1_LEFT_TO_RIGHT-input"
style="stroke:black;stroke-width:1.000000;stroke-opacity:0" />


<path d="M238.000000 422.000000 C 231.000000 435.000000, 218.000000 460.000000,209.000000 476.000000" stroke="black"  fill="transparent"/>

<line
x1="231" y1="435" x2="238" y2="422"
id="0"
style="stroke:black;stroke-width:1.000000;stroke-opacity:0" />


<line
x1="218" y1="460" x2="209" y2="476"
id="BiochemicalReaction_5f1a2b75160a622e583f2ffb797542d1_LEFT_TO_RIGHT-output--to--SmallMolecule_7c646e47fcf7743211f31a95a9be981b"
style="stroke:black;stroke-width:1.000000;stroke-opacity:0" />


<polygon
points = "209,476 200.2,471.6 200.2,480.4"
id="line"
style="fill:black; stroke:#000000; stroke-width:1"
transform = "rotate(119.357754 209.000000 476.000000)"
/>


<path d="M560.000000 698.000000 C 546.000000 700.000000, 516.000000 706.000000,497.000000 709.000000" stroke="black"  fill="transparent"/>

<line
x1="546" y1="700" x2="560" y2="698"
id="0"
style="stroke:black;stroke-width:1.000000;stroke-opacity:0" />


<line
x1="516" y1="706" x2="497" y2="709"
id="BiochemicalReaction_bdcbf93f07dc5a2a927aa9af65e8d981_LEFT_TO_RIGHT-output--to--SmallMolecule_68d9752916a73cd26503beaec2ab3811"
style="stroke:black;stroke-width:1.000000;stroke-opacity:0" />


<polygon
points = "497,709 488.2,704.6 488.2,713.4"
id="line"
style="fill:black; stroke:#000000; stroke-width:1"
transform = "rotate(171.027373 497.000000 709.000000)"
/>


<path d="M375.000000 239.000000 C 366.000000 225.000000, 349.000000 200.000000,337.000000 183.000000" stroke="black"  fill="transparent"/>

<line
x1="349" y1="200" x2="337" y2="183"
id="0"
style="stroke:black;stroke-width:1.000000;stroke-opacity:0" />


<line
x1="366" y1="225" x2="375" y2="239"
id="Protein_6d92384b79d1b3302da83d461f4848ad--to--BiochemicalReaction_5159ed2d8866996608ac8c3ec7cff2a6_LEFT_TO_RIGHT"
style="stroke:black;stroke-width:1.000000;stroke-opacity:0" />


<ellipse
rx="4.400000"
ry="4.400000"
cx="372.620667"
cy="235.298815"
id="Protein_6d92384b79d1b3302da83d461f4848ad--to--BiochemicalReaction_5159ed2d8866996608ac8c3ec7cff2a6_LEFT_TO_RIGHT"
style="fill:white;fill-opacity:0.800000;stroke:black;stroke-width:1.000000;stroke-opacity:1.000000" />


<path d="M552.000000 528.000000 C 565.000000 525.000000, 591.000000 521.000000,611.000000 518.000000" stroke="black"  fill="transparent"/>

<line
x1="591" y1="521" x2="611" y2="518"
id="0"
style="stroke:black;stroke-width:1.000000;stroke-opacity:0" />


<line
x1="565" y1="525" x2="552" y2="528"
id="Protein_433c2990c687e89417aebc346d1783d0--to--BiochemicalReaction_57426c8dc75026375688c45215e90e2d_LEFT_TO_RIGHT"
style="stroke:black;stroke-width:1.000000;stroke-opacity:0" />


<ellipse
rx="4.400000"
ry="4.400000"
cx="556.287321"
cy="527.010618"
id="Protein_433c2990c687e89417aebc346d1783d0--to--BiochemicalReaction_57426c8dc75026375688c45215e90e2d_LEFT_TO_RIGHT"
style="fill:white;fill-opacity:0.800000;stroke:black;stroke-width:1.000000;stroke-opacity:1.000000" />


<path d="M535.000000 532.000000 C 520.000000 536.000000, 491.000000 545.000000,472.000000 551.000000" stroke="black"  fill="transparent"/>

<line
x1="520" y1="536" x2="535" y2="532"
id="0"
style="stroke:black;stroke-width:1.000000;stroke-opacity:0" />


<line
x1="491" y1="545" x2="472" y2="551"
id="BiochemicalReaction_57426c8dc75026375688c45215e90e2d_LEFT_TO_RIGHT-output--to--SmallMolecule_47212ec67fcf1c2ee59d7dfcc285d890"
style="stroke:black;stroke-width:1.000000;stroke-opacity:0" />


<polygon
points = "472,551 463.2,546.6 463.2,555.4"
id="line"
style="fill:black; stroke:#000000; stroke-width:1"
transform = "rotate(162.474432 472.000000 551.000000)"
/>


<path d="M471.000000 371.000000 C 456.000000 378.000000, 426.000000 392.000000,407.000000 401.000000" stroke="black"  fill="transparent"/>

<line
x1="456" y1="378" x2="471" y2="371"
id="0"
style="stroke:black;stroke-width:1.000000;stroke-opacity:0" />


<line
x1="426" y1="392" x2="407" y2="401"
id="BiochemicalReaction_d4ca2477e40053d2008e1e4cc92b4189_LEFT_TO_RIGHT-output--to--SmallMolecule_a874895f0a1ae89af534576b41859310"
style="stroke:black;stroke-width:1.000000;stroke-opacity:0" />


<polygon
points = "407,401 398.2,396.6 398.2,405.4"
id="line"
style="fill:black; stroke:#000000; stroke-width:1"
transform = "rotate(154.653824 407.000000 401.000000)"
/>


<path d="M575.000000 704.000000 C 585.000000 717.000000, 604.000000 742.000000,617.000000 759.000000" stroke="black"  fill="transparent"/>

<line
x1="585" y1="717" x2="575" y2="704"
id="0"
style="stroke:black;stroke-width:1.000000;stroke-opacity:0" />


<line
x1="604" y1="742" x2="617" y2="759"
id="BiochemicalReaction_bdcbf93f07dc5a2a927aa9af65e8d981_LEFT_TO_RIGHT-output--to--SmallMolecule_e6f8e386d4aabcf7e22803f5ab0482cc"
style="stroke:black;stroke-width:1.000000;stroke-opacity:0" />


<polygon
points = "617,759 608.2,754.6 608.2,763.4"
id="line"
style="fill:black; stroke:#000000; stroke-width:1"
transform = "rotate(52.594643 617.000000 759.000000)"
/>



</svg>
