<?xml version="1.0" encoding="UTF-8"?>
<svg width="861.696180" height="860.113958"
xmlns="http://www.w3.org/2000/svg" xmlns:svg="http://www.w3.org/2000/svg"
>
<metadata id="metadata7">image/svg+xml</metadata>





<ellipse
rx="16.666667"
ry="16.666667"
cx="269.708408"
cy="493.578993"
id="SmallMolecule_d777a952ef144021cdc22f933a0e1fb6"
style="fill:white;fill-opacity:0.000000;stroke:black;stroke-width:1.000000;stroke-opacity:1.000000" />


<text
x="269.708408"
y="495.578993"
id="SmallMolecule_d777a952ef144021cdc22f933a0e1fb6"
style="font-size:6.000000px;text-anchor:middle;font-family:Arial,Helvetica;alignment-baseline:baseline;stroke.opacity:1;dominant-baseline:baseline"
fill="black"
>
thymidine</text>



<ellipse
rx="16.666667"
ry="16.666667"
cx="276.271669"
cy="299.238615"
id="SmallMolecule_68d9752916a73cd26503beaec2ab3811"
style="fill:white;fill-opacity:0.000000;stroke:black;stroke-width:1.000000;stroke-opacity:1.000000" />


<text
x="276.271669"
y="301.238615"
id="SmallMolecule_68d9752916a73cd26503beaec2ab3811"
style="font-size:6.000000px;text-anchor:middle;font-family:Arial,Helvetica;alignment-baseline:baseline;stroke.opacity:1;dominant-baseline:baseline"
fill="black"
>
ADP</text>



<ellipse
rx="16.666667"
ry="16.666667"
cx="442.283278"
cy="263.419940"
id="SmallMolecule_dff7a5252e99731a889e05223bceee9f"
style="fill:white;fill-opacity:0.000000;stroke:black;stroke-width:1.000000;stroke-opacity:1.000000" />


<text
x="442.283278"
y="265.419940"
id="SmallMolecule_dff7a5252e99731a889e05223bceee9f"
style="font-size:6.000000px;text-anchor:middle;font-family:Arial,Helvetica;alignment-baseline:baseline;stroke.opacity:1;dominant-baseline:baseline"
fill="black"
>
H2O</text>



<ellipse
rx="16.666667"
ry="16.666667"
cx="194.070105"
cy="459.163859"
id="SmallMolecule_067280b8b822ca79f313ec8eebae1ca8"
style="fill:white;fill-opacity:0.000000;stroke:black;stroke-width:1.000000;stroke-opacity:1.000000" />


<text
x="194.070105"
y="461.163859"
id="SmallMolecule_067280b8b822ca79f313ec8eebae1ca8"
style="font-size:6.000000px;text-anchor:middle;font-family:Arial,Helvetica;alignment-baseline:baseline;stroke.opacity:1;dominant-baseline:baseline"
fill="black"
>
ATP</text>



<ellipse
rx="16.666667"
ry="16.666667"
cx="342.281000"
cy="482.730490"
id="SmallMolecule_893d4e9a3537b8b355892e0ccabca0cc"
style="fill:white;fill-opacity:0.000000;stroke:black;stroke-width:1.000000;stroke-opacity:1.000000" />


<text
x="342.281000"
y="484.730490"
id="SmallMolecule_893d4e9a3537b8b355892e0ccabca0cc"
style="font-size:6.000000px;text-anchor:middle;font-family:Arial,Helvetica;alignment-baseline:baseline;stroke.opacity:1;dominant-baseline:baseline"
fill="black"
>
PO4</text>


<rect
width="16.666667"
height="16.666667"
rx="0.000000"
ry="0.000000"
x="346.925333"
y="248.856252"
id="BiochemicalReaction_536f38bfa8c3946f19a7d1c750967b0c_LEFT_TO_RIGHT"
style="fill:white;fill-opacity:0.600000;stroke:black;stroke-width:1.000000;stroke-opacity:1.000000" />




<ellipse
rx="16.666667"
ry="16.666667"
cx="169.158475"
cy="341.582177"
id="SmallMolecule_fc64ae46a6b1853c1ec4361a64f91544"
style="fill:white;fill-opacity:0.000000;stroke:black;stroke-width:1.000000;stroke-opacity:1.000000" />


<text
x="169.158475"
y="343.582177"
id="SmallMolecule_fc64ae46a6b1853c1ec4361a64f91544"
style="font-size:6.000000px;text-anchor:middle;font-family:Arial,Helvetica;alignment-baseline:baseline;stroke.opacity:1;dominant-baseline:baseline"
fill="black"
>
dTMP</text>


<rect
width="16.666667"
height="16.666667"
rx="0.000000"
ry="0.000000"
x="338.476432"
y="556.018496"
id="BiochemicalReaction_aef2fa89d5c242442a6f71590816de4e_LEFT_TO_RIGHT"
style="fill:white;fill-opacity:0.600000;stroke:black;stroke-width:1.000000;stroke-opacity:1.000000" />




<ellipse
rx="16.666667"
ry="16.666667"
cx="191.114823"
cy="271.288516"
id="SmallMolecule_e40d06e73f5f2e4024788a748450c098"
style="fill:white;fill-opacity:0.000000;stroke:black;stroke-width:1.000000;stroke-opacity:1.000000" />


<text
x="191.114823"
y="273.288516"
id="SmallMolecule_e40d06e73f5f2e4024788a748450c098"
style="font-size:6.000000px;text-anchor:middle;font-family:Arial,Helvetica;alignment-baseline:baseline;stroke.opacity:1;dominant-baseline:baseline"
fill="black"
>
dUMP</text>



<rect
width="58.333333"
height="33.333333"
rx="3.333333"
ry="3.333333"
x="354.530056"
y="626.780625"
id="Protein_23f278f59088e45d212af5c538d16ac1"
style="fill:white;fill-opacity:1.000000;stroke:black;stroke-width:1.000000;stroke-opacity:1.000000" />



<text
x="383.696723"
y="642.447292"
id="Protein_23f278f59088e45d212af5c538d16ac1"
style="font-size:6.000000px;text-anchor:middle;font-family:Arial,Helvetica;alignment-baseline:baseline;stroke.opacity:1;dominant-baseline:baseline"
fill="black"
>
Thymidine phosphory-</text>


<text
x="383.696723"
y="648.447292"
id="Protein_23f278f59088e45d212af5c538d16ac1"
style="font-size:6.000000px;text-anchor:middle;font-family:Arial,Helvetica;alignment-baseline:baseline;stroke.opacity:1;dominant-baseline:baseline"
fill="black"
>
lase</text>



<rect
width="58.333333"
height="33.333333"
rx="3.333333"
ry="3.333333"
x="473.362847"
y="370.869154"
id="Protein_4f28ec664732eff201a2441c662a12dd"
style="fill:white;fill-opacity:1.000000;stroke:black;stroke-width:1.000000;stroke-opacity:1.000000" />


<text
x="502.529514"
y="389.535821"
id="Protein_4f28ec664732eff201a2441c662a12dd"
style="font-size:6.000000px;text-anchor:middle;font-family:Arial,Helvetica;alignment-baseline:baseline;stroke.opacity:1;dominant-baseline:baseline"
fill="black"
>
Uracil phosphorylase</text>



<rect
width="58.333333"
height="33.333333"
rx="3.333333"
ry="3.333333"
x="399.347608"
y="168.928815"
id="Protein_6aaba1e33fa2191ff6c1090c82b63623"
style="fill:white;fill-opacity:1.000000;stroke:black;stroke-width:1.000000;stroke-opacity:1.000000" />


<text
x="428.514274"
y="187.595482"
id="Protein_6aaba1e33fa2191ff6c1090c82b63623"
style="font-size:6.000000px;text-anchor:middle;font-family:Arial,Helvetica;alignment-baseline:baseline;stroke.opacity:1;dominant-baseline:baseline"
fill="black"
>
Cytidine deaminase</text>


<rect
width="16.666667"
height="16.666667"
rx="0.000000"
ry="0.000000"
x="242.909934"
y="392.315150"
id="BiochemicalReaction_902d8b474ce86cc74af985108eea093b_LEFT_TO_RIGHT"
style="fill:white;fill-opacity:0.600000;stroke:black;stroke-width:1.000000;stroke-opacity:1.000000" />




<ellipse
rx="16.666667"
ry="16.666667"
cx="266.486089"
cy="604.438234"
id="SmallMolecule_6cf068f6e20305ad88474a5977afc94e"
style="fill:white;fill-opacity:0.000000;stroke:black;stroke-width:1.000000;stroke-opacity:1.000000" />


<text
x="266.486089"
y="606.438234"
id="SmallMolecule_6cf068f6e20305ad88474a5977afc94e"
style="font-size:6.000000px;text-anchor:middle;font-family:Arial,Helvetica;alignment-baseline:baseline;stroke.opacity:1;dominant-baseline:baseline"
fill="black"
>
thymine</text>



<ellipse
rx="16.666667"
ry="16.666667"
cx="342.625598"
cy="166.666667"
id="SmallMolecule_09ba22bf3f6a670f1f975e2cf976df0f"
style="fill:white;fill-opacity:0.000000;stroke:black;stroke-width:1.000000;stroke-opacity:1.000000" />


<text
x="342.625598"
y="168.666667"
id="SmallMolecule_09ba22bf3f6a670f1f975e2cf976df0f"
style="font-size:6.000000px;text-anchor:middle;font-family:Arial,Helvetica;alignment-baseline:baseline;stroke.opacity:1;dominant-baseline:baseline"
fill="black"
>
NH3</text>



<rect
width="58.333333"
height="33.333333"
rx="3.333333"
ry="3.333333"
x="100.000000"
y="388.522089"
id="Protein_e5c35387e976018bc8645c6c941419ef"
style="fill:white;fill-opacity:1.000000;stroke:black;stroke-width:1.000000;stroke-opacity:1.000000" />


<text
x="129.166667"
y="407.188756"
id="Protein_e5c35387e976018bc8645c6c941419ef"
style="font-size:6.000000px;text-anchor:middle;font-family:Arial,Helvetica;alignment-baseline:baseline;stroke.opacity:1;dominant-baseline:baseline"
fill="black"
>
TK1</text>


<rect
width="16.666667"
height="16.666667"
rx="0.000000"
ry="0.000000"
x="219.386380"
y="354.865014"
id="BiochemicalReaction_5dfaee22163d647d209c447a2c9f5b45_LEFT_TO_RIGHT"
style="fill:white;fill-opacity:0.600000;stroke:black;stroke-width:1.000000;stroke-opacity:1.000000" />



<rect
width="16.666667"
height="16.666667"
rx="0.000000"
ry="0.000000"
x="400.548371"
y="414.567024"
id="BiochemicalReaction_cdcdf8b1adb07dcecc5468a5b5dfd7a1_LEFT_TO_RIGHT"
style="fill:white;fill-opacity:0.600000;stroke:black;stroke-width:1.000000;stroke-opacity:1.000000" />




<ellipse
rx="16.666667"
ry="16.666667"
cx="423.566212"
cy="509.112137"
id="SmallMolecule_abb229d5d7d72e3539f0ff6e057fbd29"
style="fill:white;fill-opacity:0.000000;stroke:black;stroke-width:1.000000;stroke-opacity:1.000000" />



<text
x="423.566212"
y="508.112137"
id="SmallMolecule_abb229d5d7d72e3539f0ff6e057fbd29"
style="font-size:6.000000px;text-anchor:middle;font-family:Arial,Helvetica;alignment-baseline:baseline;stroke.opacity:1;dominant-baseline:baseline"
fill="black"
>
deoxyribose-</text>


<text
x="423.566212"
y="514.112137"
id="SmallMolecule_abb229d5d7d72e3539f0ff6e057fbd29"
style="font-size:6.000000px;text-anchor:middle;font-family:Arial,Helvetica;alignment-baseline:baseline;stroke.opacity:1;dominant-baseline:baseline"
fill="black"
>
-1-phosphate</text>



<ellipse
rx="16.666667"
ry="16.666667"
cx="273.493869"
cy="196.212255"
id="SmallMolecule_12889f369730da30f2227945567503ba"
style="fill:white;fill-opacity:0.000000;stroke:black;stroke-width:1.000000;stroke-opacity:1.000000" />


<text
x="273.493869"
y="198.212255"
id="SmallMolecule_12889f369730da30f2227945567503ba"
style="font-size:6.000000px;text-anchor:middle;font-family:Arial,Helvetica;alignment-baseline:baseline;stroke.opacity:1;dominant-baseline:baseline"
fill="black"
>
deoxycytidine</text>



<ellipse
rx="16.666667"
ry="16.666667"
cx="405.806503"
cy="341.510423"
id="SmallMolecule_4b4d134bbc74dded69388996103c7282"
style="fill:white;fill-opacity:0.000000;stroke:black;stroke-width:1.000000;stroke-opacity:1.000000" />


<text
x="405.806503"
y="343.510423"
id="SmallMolecule_4b4d134bbc74dded69388996103c7282"
style="font-size:6.000000px;text-anchor:middle;font-family:Arial,Helvetica;alignment-baseline:baseline;stroke.opacity:1;dominant-baseline:baseline"
fill="black"
>
Uracil</text>



<ellipse
rx="16.666667"
ry="16.666667"
cx="328.792347"
cy="356.439229"
id="SmallMolecule_8d82be735b39fea131747ac0a713ed47"
style="fill:white;fill-opacity:0.000000;stroke:black;stroke-width:1.000000;stroke-opacity:1.000000" />


<text
x="328.792347"
y="358.439229"
id="SmallMolecule_8d82be735b39fea131747ac0a713ed47"
style="font-size:6.000000px;text-anchor:middle;font-family:Arial,Helvetica;alignment-baseline:baseline;stroke.opacity:1;dominant-baseline:baseline"
fill="black"
>
deoxyuridine</text>




<path d="M210.000000 442.000000 C 220.000000 431.000000, 234.000000 418.000000,242.000000 409.000000" stroke="black"  fill="transparent"/>

<line
x1="220" y1="431" x2="210" y2="442"
id="0"
style="stroke:black;stroke-width:1.000000;stroke-opacity:0" />


<line
x1="234" y1="418" x2="242" y2="409"
id="SmallMolecule_067280b8b822ca79f313ec8eebae1ca8--to--BiochemicalReaction_902d8b474ce86cc74af985108eea093b_LEFT_TO_RIGHT-input"
style="stroke:black;stroke-width:1.000000;stroke-opacity:0" />


<path d="M263.000000 316.000000 C 254.000000 328.000000, 241.000000 344.000000,234.000000 354.000000" stroke="black"  fill="transparent"/>

<line
x1="241" y1="344" x2="234" y2="354"
id="0"
style="stroke:black;stroke-width:1.000000;stroke-opacity:0" />


<line
x1="254" y1="328" x2="263" y2="316"
id="BiochemicalReaction_5dfaee22163d647d209c447a2c9f5b45_LEFT_TO_RIGHT-output--to--SmallMolecule_68d9752916a73cd26503beaec2ab3811"
style="stroke:black;stroke-width:1.000000;stroke-opacity:0" />


<polygon
points = "263,316 254.2,311.6 254.2,320.4"
id="line"
style="fill:black; stroke:#000000; stroke-width:1"
transform = "rotate(-53.130102 263.000000 316.000000)"
/>


<path d="M158.000000 392.000000 C 179.000000 383.000000, 205.000000 372.000000,219.000000 366.000000" stroke="black"  fill="transparent"/>

<line
x1="179" y1="383" x2="158" y2="392"
id="0"
style="stroke:black;stroke-width:1.000000;stroke-opacity:0" />


<line
x1="205" y1="372" x2="219" y2="366"
id="Protein_e5c35387e976018bc8645c6c941419ef--to--BiochemicalReaction_5dfaee22163d647d209c447a2c9f5b45_LEFT_TO_RIGHT"
style="stroke:black;stroke-width:1.000000;stroke-opacity:0" />


<ellipse
rx="4.400000"
ry="4.400000"
cx="214.955762"
cy="367.733245"
id="Protein_e5c35387e976018bc8645c6c941419ef--to--BiochemicalReaction_5dfaee22163d647d209c447a2c9f5b45_LEFT_TO_RIGHT"
style="fill:white;fill-opacity:0.800000;stroke:black;stroke-width:1.000000;stroke-opacity:1.000000" />


<path d="M354.000000 248.000000 C 351.000000 233.000000, 347.000000 202.000000,344.000000 183.000000" stroke="black"  fill="transparent"/>

<line
x1="351" y1="233" x2="354" y2="248"
id="0"
style="stroke:black;stroke-width:1.000000;stroke-opacity:0" />


<line
x1="347" y1="202" x2="344" y2="183"
id="BiochemicalReaction_536f38bfa8c3946f19a7d1c750967b0c_LEFT_TO_RIGHT-output--to--SmallMolecule_09ba22bf3f6a670f1f975e2cf976df0f"
style="stroke:black;stroke-width:1.000000;stroke-opacity:0" />


<polygon
points = "344,183 335.2,178.6 335.2,187.4"
id="line"
style="fill:black; stroke:#000000; stroke-width:1"
transform = "rotate(261.027373 344.000000 183.000000)"
/>


<path d="M286.000000 508.000000 C 302.000000 523.000000, 325.000000 545.000000,338.000000 556.000000" stroke="black"  fill="transparent"/>

<line
x1="325" y1="545" x2="338" y2="556"
id="0"
style="stroke:black;stroke-width:1.000000;stroke-opacity:0" />


<line
x1="302" y1="523" x2="286" y2="508"
id="BiochemicalReaction_aef2fa89d5c242442a6f71590816de4e_LEFT_TO_RIGHT-output--to--SmallMolecule_d777a952ef144021cdc22f933a0e1fb6"
style="stroke:black;stroke-width:1.000000;stroke-opacity:0" />


<polygon
points = "286,508 277.2,503.6 277.2,512.4"
id="line"
style="fill:black; stroke:#000000; stroke-width:1"
transform = "rotate(223.152390 286.000000 508.000000)"
/>


<path d="M400.000000 416.000000 C 387.000000 405.000000, 362.000000 384.000000,345.000000 370.000000" stroke="black"  fill="transparent"/>

<line
x1="362" y1="384" x2="345" y2="370"
id="0"
style="stroke:black;stroke-width:1.000000;stroke-opacity:0" />


<line
x1="387" y1="405" x2="400" y2="416"
id="SmallMolecule_8d82be735b39fea131747ac0a713ed47--to--BiochemicalReaction_cdcdf8b1adb07dcecc5468a5b5dfd7a1_LEFT_TO_RIGHT-input"
style="stroke:black;stroke-width:1.000000;stroke-opacity:0" />


<path d="M363.000000 248.000000 C 375.000000 237.000000, 396.000000 217.000000,411.000000 202.000000" stroke="black"  fill="transparent"/>

<line
x1="396" y1="217" x2="411" y2="202"
id="0"
style="stroke:black;stroke-width:1.000000;stroke-opacity:0" />


<line
x1="375" y1="237" x2="363" y2="248"
id="Protein_6aaba1e33fa2191ff6c1090c82b63623--to--BiochemicalReaction_536f38bfa8c3946f19a7d1c750967b0c_LEFT_TO_RIGHT"
style="stroke:black;stroke-width:1.000000;stroke-opacity:0" />


<ellipse
rx="4.400000"
ry="4.400000"
cx="366.243478"
cy="245.026812"
id="Protein_6aaba1e33fa2191ff6c1090c82b63623--to--BiochemicalReaction_536f38bfa8c3946f19a7d1c750967b0c_LEFT_TO_RIGHT"
style="fill:white;fill-opacity:0.800000;stroke:black;stroke-width:1.000000;stroke-opacity:1.000000" />


<path d="M408.000000 414.000000 C 408.000000 400.000000, 407.000000 375.000000,406.000000 358.000000" stroke="black"  fill="transparent"/>

<line
x1="408" y1="400" x2="408" y2="414"
id="0"
style="stroke:black;stroke-width:1.000000;stroke-opacity:0" />


<line
x1="407" y1="375" x2="406" y2="358"
id="BiochemicalReaction_cdcdf8b1adb07dcecc5468a5b5dfd7a1_LEFT_TO_RIGHT-output--to--SmallMolecule_4b4d134bbc74dded69388996103c7282"
style="stroke:black;stroke-width:1.000000;stroke-opacity:0" />


<polygon
points = "406,358 397.2,353.6 397.2,362.4"
id="line"
style="fill:black; stroke:#000000; stroke-width:1"
transform = "rotate(266.633539 406.000000 358.000000)"
/>


<path d="M242.000000 400.000000 C 225.000000 401.000000, 186.000000 403.000000,158.000000 404.000000" stroke="black"  fill="transparent"/>

<line
x1="186" y1="403" x2="158" y2="404"
id="0"
style="stroke:black;stroke-width:1.000000;stroke-opacity:0" />


<line
x1="225" y1="401" x2="242" y2="400"
id="Protein_e5c35387e976018bc8645c6c941419ef--to--BiochemicalReaction_902d8b474ce86cc74af985108eea093b_LEFT_TO_RIGHT"
style="stroke:black;stroke-width:1.000000;stroke-opacity:0" />


<ellipse
rx="4.400000"
ry="4.400000"
cx="237.607593"
cy="400.258377"
id="Protein_e5c35387e976018bc8645c6c941419ef--to--BiochemicalReaction_902d8b474ce86cc74af985108eea093b_LEFT_TO_RIGHT"
style="fill:white;fill-opacity:0.800000;stroke:black;stroke-width:1.000000;stroke-opacity:1.000000" />


<path d="M350.000000 573.000000 C 356.000000 586.000000, 368.000000 610.000000,375.000000 626.000000" stroke="black"  fill="transparent"/>

<line
x1="368" y1="610" x2="375" y2="626"
id="0"
style="stroke:black;stroke-width:1.000000;stroke-opacity:0" />


<line
x1="356" y1="586" x2="350" y2="573"
id="Protein_23f278f59088e45d212af5c538d16ac1--to--BiochemicalReaction_aef2fa89d5c242442a6f71590816de4e_LEFT_TO_RIGHT"
style="stroke:black;stroke-width:1.000000;stroke-opacity:0" />


<ellipse
rx="4.400000"
ry="4.400000"
cx="351.843856"
cy="576.995021"
id="Protein_23f278f59088e45d212af5c538d16ac1--to--BiochemicalReaction_aef2fa89d5c242442a6f71590816de4e_LEFT_TO_RIGHT"
style="fill:white;fill-opacity:0.800000;stroke:black;stroke-width:1.000000;stroke-opacity:1.000000" />


<path d="M410.000000 431.000000 C 412.000000 445.000000, 417.000000 474.000000,420.000000 492.000000" stroke="black"  fill="transparent"/>

<line
x1="412" y1="445" x2="410" y2="431"
id="0"
style="stroke:black;stroke-width:1.000000;stroke-opacity:0" />


<line
x1="417" y1="474" x2="420" y2="492"
id="BiochemicalReaction_cdcdf8b1adb07dcecc5468a5b5dfd7a1_LEFT_TO_RIGHT-output--to--SmallMolecule_abb229d5d7d72e3539f0ff6e057fbd29"
style="stroke:black;stroke-width:1.000000;stroke-opacity:0" />


<polygon
points = "420,492 411.2,487.6 411.2,496.4"
id="line"
style="fill:black; stroke:#000000; stroke-width:1"
transform = "rotate(80.537678 420.000000 492.000000)"
/>


<path d="M338.000000 568.000000 C 325.000000 574.000000, 300.000000 587.000000,283.000000 596.000000" stroke="black"  fill="transparent"/>

<line
x1="300" y1="587" x2="283" y2="596"
id="0"
style="stroke:black;stroke-width:1.000000;stroke-opacity:0" />


<line
x1="325" y1="574" x2="338" y2="568"
id="SmallMolecule_6cf068f6e20305ad88474a5977afc94e--to--BiochemicalReaction_aef2fa89d5c242442a6f71590816de4e_LEFT_TO_RIGHT-input"
style="stroke:black;stroke-width:1.000000;stroke-opacity:0" />


<path d="M185.000000 353.000000 C 203.000000 365.000000, 229.000000 384.000000,242.000000 394.000000" stroke="black"  fill="transparent"/>

<line
x1="229" y1="384" x2="242" y2="394"
id="0"
style="stroke:black;stroke-width:1.000000;stroke-opacity:0" />


<line
x1="203" y1="365" x2="185" y2="353"
id="BiochemicalReaction_902d8b474ce86cc74af985108eea093b_LEFT_TO_RIGHT-output--to--SmallMolecule_fc64ae46a6b1853c1ec4361a64f91544"
style="stroke:black;stroke-width:1.000000;stroke-opacity:0" />


<polygon
points = "185,353 176.2,348.6 176.2,357.4"
id="line"
style="fill:black; stroke:#000000; stroke-width:1"
transform = "rotate(213.690068 185.000000 353.000000)"
/>


<path d="M197.000000 288.000000 C 205.000000 307.000000, 218.000000 338.000000,224.000000 354.000000" stroke="black"  fill="transparent"/>

<line
x1="218" y1="338" x2="224" y2="354"
id="0"
style="stroke:black;stroke-width:1.000000;stroke-opacity:0" />


<line
x1="205" y1="307" x2="197" y2="288"
id="BiochemicalReaction_5dfaee22163d647d209c447a2c9f5b45_LEFT_TO_RIGHT-output--to--SmallMolecule_e40d06e73f5f2e4024788a748450c098"
style="stroke:black;stroke-width:1.000000;stroke-opacity:0" />


<polygon
points = "197,288 188.2,283.6 188.2,292.4"
id="line"
style="fill:black; stroke:#000000; stroke-width:1"
transform = "rotate(247.166346 197.000000 288.000000)"
/>


<path d="M352.000000 265.000000 C 348.000000 282.000000, 338.000000 318.000000,333.000000 339.000000" stroke="black"  fill="transparent"/>

<line
x1="348" y1="282" x2="352" y2="265"
id="0"
style="stroke:black;stroke-width:1.000000;stroke-opacity:0" />


<line
x1="338" y1="318" x2="333" y2="339"
id="BiochemicalReaction_536f38bfa8c3946f19a7d1c750967b0c_LEFT_TO_RIGHT-output--to--SmallMolecule_8d82be735b39fea131747ac0a713ed47"
style="stroke:black;stroke-width:1.000000;stroke-opacity:0" />


<polygon
points = "333,339 324.2,334.6 324.2,343.4"
id="line"
style="fill:black; stroke:#000000; stroke-width:1"
transform = "rotate(103.392498 333.000000 339.000000)"
/>


<path d="M355.000000 558.000000 C 367.000000 549.000000, 391.000000 532.000000,406.000000 521.000000" stroke="black"  fill="transparent"/>

<line
x1="391" y1="532" x2="406" y2="521"
id="0"
style="stroke:black;stroke-width:1.000000;stroke-opacity:0" />


<line
x1="367" y1="549" x2="355" y2="558"
id="SmallMolecule_abb229d5d7d72e3539f0ff6e057fbd29--to--BiochemicalReaction_aef2fa89d5c242442a6f71590816de4e_LEFT_TO_RIGHT-input"
style="stroke:black;stroke-width:1.000000;stroke-opacity:0" />


<path d="M425.000000 262.000000 C 407.000000 260.000000, 378.000000 258.000000,364.000000 257.000000" stroke="black"  fill="transparent"/>

<line
x1="407" y1="260" x2="425" y2="262"
id="0"
style="stroke:black;stroke-width:1.000000;stroke-opacity:0" />


<line
x1="378" y1="258" x2="364" y2="257"
id="SmallMolecule_dff7a5252e99731a889e05223bceee9f--to--BiochemicalReaction_536f38bfa8c3946f19a7d1c750967b0c_LEFT_TO_RIGHT-input"
style="stroke:black;stroke-width:1.000000;stroke-opacity:0" />


<path d="M346.000000 250.000000 C 333.000000 240.000000, 307.000000 221.000000,290.000000 208.000000" stroke="black"  fill="transparent"/>

<line
x1="307" y1="221" x2="290" y2="208"
id="0"
style="stroke:black;stroke-width:1.000000;stroke-opacity:0" />


<line
x1="333" y1="240" x2="346" y2="250"
id="SmallMolecule_12889f369730da30f2227945567503ba--to--BiochemicalReaction_536f38bfa8c3946f19a7d1c750967b0c_LEFT_TO_RIGHT-input"
style="stroke:black;stroke-width:1.000000;stroke-opacity:0" />


<path d="M235.000000 362.000000 C 252.000000 361.000000, 290.000000 358.000000,312.000000 357.000000" stroke="black"  fill="transparent"/>

<line
x1="290" y1="358" x2="312" y2="357"
id="0"
style="stroke:black;stroke-width:1.000000;stroke-opacity:0" />


<line
x1="252" y1="361" x2="235" y2="362"
id="SmallMolecule_8d82be735b39fea131747ac0a713ed47--to--BiochemicalReaction_5dfaee22163d647d209c447a2c9f5b45_LEFT_TO_RIGHT-input"
style="stroke:black;stroke-width:1.000000;stroke-opacity:0" />


<path d="M473.000000 398.000000 C 454.000000 405.000000, 430.000000 414.000000,417.000000 419.000000" stroke="black"  fill="transparent"/>

<line
x1="454" y1="405" x2="473" y2="398"
id="0"
style="stroke:black;stroke-width:1.000000;stroke-opacity:0" />


<line
x1="430" y1="414" x2="417" y2="419"
id="Protein_4f28ec664732eff201a2441c662a12dd--to--BiochemicalReaction_cdcdf8b1adb07dcecc5468a5b5dfd7a1_LEFT_TO_RIGHT"
style="stroke:black;stroke-width:1.000000;stroke-opacity:0" />


<ellipse
rx="4.400000"
ry="4.400000"
cx="421.106721"
cy="417.420492"
id="Protein_4f28ec664732eff201a2441c662a12dd--to--BiochemicalReaction_cdcdf8b1adb07dcecc5468a5b5dfd7a1_LEFT_TO_RIGHT"
style="fill:white;fill-opacity:0.800000;stroke:black;stroke-width:1.000000;stroke-opacity:1.000000" />


<path d="M343.000000 499.000000 C 344.000000 516.000000, 345.000000 541.000000,346.000000 555.000000" stroke="black"  fill="transparent"/>

<line
x1="345" y1="541" x2="346" y2="555"
id="0"
style="stroke:black;stroke-width:1.000000;stroke-opacity:0" />


<line
x1="344" y1="516" x2="343" y2="499"
id="BiochemicalReaction_aef2fa89d5c242442a6f71590816de4e_LEFT_TO_RIGHT-output--to--SmallMolecule_893d4e9a3537b8b355892e0ccabca0cc"
style="stroke:black;stroke-width:1.000000;stroke-opacity:0" />


<polygon
points = "343,499 334.2,494.6 334.2,503.4"
id="line"
style="fill:black; stroke:#000000; stroke-width:1"
transform = "rotate(266.633539 343.000000 499.000000)"
/>


<path d="M272.000000 315.000000 C 266.000000 337.000000, 257.000000 375.000000,253.000000 391.000000" stroke="black"  fill="transparent"/>

<line
x1="257" y1="375" x2="253" y2="391"
id="0"
style="stroke:black;stroke-width:1.000000;stroke-opacity:0" />


<line
x1="266" y1="337" x2="272" y2="315"
id="BiochemicalReaction_902d8b474ce86cc74af985108eea093b_LEFT_TO_RIGHT-output--to--SmallMolecule_68d9752916a73cd26503beaec2ab3811"
style="stroke:black;stroke-width:1.000000;stroke-opacity:0" />


<polygon
points = "272,315 263.2,310.6 263.2,319.4"
id="line"
style="fill:black; stroke:#000000; stroke-width:1"
transform = "rotate(-74.744881 272.000000 315.000000)"
/>


<path d="M199.000000 442.000000 C 207.000000 421.000000, 219.000000 387.000000,224.000000 371.000000" stroke="black"  fill="transparent"/>

<line
x1="207" y1="421" x2="199" y2="442"
id="0"
style="stroke:black;stroke-width:1.000000;stroke-opacity:0" />


<line
x1="219" y1="387" x2="224" y2="371"
id="SmallMolecule_067280b8b822ca79f313ec8eebae1ca8--to--BiochemicalReaction_5dfaee22163d647d209c447a2c9f5b45_LEFT_TO_RIGHT-input"
style="stroke:black;stroke-width:1.000000;stroke-opacity:0" />


<path d="M358.000000 467.000000 C 371.000000 456.000000, 389.000000 440.000000,400.000000 430.000000" stroke="black"  fill="transparent"/>

<line
x1="371" y1="456" x2="358" y2="467"
id="0"
style="stroke:black;stroke-width:1.000000;stroke-opacity:0" />


<line
x1="389" y1="440" x2="400" y2="430"
id="SmallMolecule_893d4e9a3537b8b355892e0ccabca0cc--to--BiochemicalReaction_cdcdf8b1adb07dcecc5468a5b5dfd7a1_LEFT_TO_RIGHT-input"
style="stroke:black;stroke-width:1.000000;stroke-opacity:0" />


<path d="M266.000000 476.000000 C 262.000000 457.000000, 256.000000 424.000000,252.000000 409.000000" stroke="black"  fill="transparent"/>

<line
x1="262" y1="457" x2="266" y2="476"
id="0"
style="stroke:black;stroke-width:1.000000;stroke-opacity:0" />


<line
x1="256" y1="424" x2="252" y2="409"
id="SmallMolecule_d777a952ef144021cdc22f933a0e1fb6--to--BiochemicalReaction_902d8b474ce86cc74af985108eea093b_LEFT_TO_RIGHT-input"
style="stroke:black;stroke-width:1.000000;stroke-opacity:0" />



</svg>
