<?xml version="1.0" encoding="UTF-8"?>
<svg width="1348.064392" height="1054.852656"
xmlns="http://www.w3.org/2000/svg" xmlns:svg="http://www.w3.org/2000/svg"
>
<metadata id="metadata7">image/svg+xml</metadata>

<rect
width="918.064392"
height="635.486126"
rx="11.000000"
ry="11.000000"
x="100.000000"
y="219.366530"
id="cytosol"
style="fill:white;fill-opacity:0.900000;stroke:black;stroke-width:5.000000;stroke-opacity:1.000000" />


<text
x="559.032196"
y="211.366530"
id="cytosol"
style="font-size:6.000000px;text-anchor:middle;font-family:Arial,Helvetica;alignment-baseline:baseline;stroke.opacity:1;dominant-baseline:baseline"
fill="black"
>
cytosol</text>



<path
d="M 111 561.17688099275 111 643.193547659423 116.5 648.693547659423 181.433333333333 648.693547659423 186.933333333333 643.193547659423 186.933333333333 561.17688099275 181.433333333333 555.67688099275 116.5 555.67688099275 Z"
id="Complex_ea00212752e4557c783a20d6fd2e7c5b"
style="fill:white;fill-opacity:0.600000;stroke-width:1;stroke:black;stroke-opacity:1.000000"
transform = "rotate(0.000000 0.000000 0.000000)"
/>


<text
x="148.966667"
y="547.676881"
id="Complex_ea00212752e4557c783a20d6fd2e7c5b"
style="font-size:6.000000px;text-anchor:middle;font-family:Arial,Helvetica;alignment-baseline:baseline;stroke.opacity:1;dominant-baseline:baseline"
fill="black"
>
Complex (SOS/Grb2)</text>


<path
d="M 697.291600197948 427.00257827225 697.291600197948 509.019244938923 702.791600197948 514.519244938923 767.724933531281 514.519244938923 773.224933531281 509.019244938923 773.224933531281 427.00257827225 767.724933531281 421.50257827225 702.791600197948 421.50257827225 Z"
id="Complex_e18f4b48f85a97157716549f4b569ec4"
style="fill:white;fill-opacity:0.600000;stroke-width:1;stroke:black;stroke-opacity:1.000000"
transform = "rotate(0.000000 0.000000 0.000000)"
/>


<text
x="735.258267"
y="413.502578"
id="Complex_e18f4b48f85a97157716549f4b569ec4"
style="font-size:6.000000px;text-anchor:middle;font-family:Arial,Helvetica;alignment-baseline:baseline;stroke.opacity:1;dominant-baseline:baseline"
fill="black"
>
</text>




<rect
width="58.333333"
height="33.333333"
rx="3.333333"
ry="3.333333"
x="773.085045"
y="150.000000"
id="Protein_21aa59b6b2b54fe56f527e8ca5cfed1a"
style="fill:white;fill-opacity:1.000000;stroke:black;stroke-width:1.000000;stroke-opacity:1.000000" />


<text
x="802.251712"
y="168.666667"
id="Protein_21aa59b6b2b54fe56f527e8ca5cfed1a"
style="font-size:6.000000px;text-anchor:middle;font-family:Arial,Helvetica;alignment-baseline:baseline;stroke.opacity:1;dominant-baseline:baseline"
fill="black"
>
Insulin IGF</text>



<rect
width="58.333333"
height="33.333333"
rx="3.333333"
ry="3.333333"
x="571.557634"
y="269.308240"
id="Protein_b65ea29eb6dafc05a3191a9e2076e9b6"
style="fill:white;fill-opacity:1.000000;stroke:black;stroke-width:1.000000;stroke-opacity:1.000000" />


<text
x="600.724301"
y="287.974907"
id="Protein_b65ea29eb6dafc05a3191a9e2076e9b6"
style="font-size:6.000000px;text-anchor:middle;font-family:Arial,Helvetica;alignment-baseline:baseline;stroke.opacity:1;dominant-baseline:baseline"
fill="black"
>
c-fos</text>



<ellipse
rx="16.666667"
ry="16.666667"
cx="556.989440"
cy="687.922476"
id="SmallMolecule_c06006b95f84cab52e8e1ff7f7331b88"
style="fill:white;fill-opacity:0.000000;stroke:black;stroke-width:1.000000;stroke-opacity:1.000000" />


<text
x="556.989440"
y="689.922476"
id="SmallMolecule_c06006b95f84cab52e8e1ff7f7331b88"
style="font-size:6.000000px;text-anchor:middle;font-family:Arial,Helvetica;alignment-baseline:baseline;stroke.opacity:1;dominant-baseline:baseline"
fill="black"
>
ATP</text>



<rect
width="58.333333"
height="33.333333"
rx="3.333333"
ry="3.333333"
x="283.284135"
y="405.240893"
id="Protein_11415f9f35501995b6ebf57b3ec5b16e"
style="fill:white;fill-opacity:1.000000;stroke:black;stroke-width:1.000000;stroke-opacity:1.000000" />


<text
x="312.450801"
y="423.907559"
id="Protein_11415f9f35501995b6ebf57b3ec5b16e"
style="font-size:6.000000px;text-anchor:middle;font-family:Arial,Helvetica;alignment-baseline:baseline;stroke.opacity:1;dominant-baseline:baseline"
fill="black"
>
Grb2</text>



<rect
width="58.333333"
height="33.333333"
rx="3.333333"
ry="3.333333"
x="480.786345"
y="400.854132"
id="Protein_f61a1f0428ffa2165c1a00ef7711be1d"
style="fill:white;fill-opacity:1.000000;stroke:black;stroke-width:1.000000;stroke-opacity:1.000000" />


<text
x="509.953012"
y="419.520799"
id="Protein_f61a1f0428ffa2165c1a00ef7711be1d"
style="font-size:6.000000px;text-anchor:middle;font-family:Arial,Helvetica;alignment-baseline:baseline;stroke.opacity:1;dominant-baseline:baseline"
fill="black"
>
P90 RSK</text>


<ellipse
rx="14.583333"
ry="7.291667"
cx="495.369678"
cy="400.854132"
id="Protein_f61a1f0428ffa2165c1a00ef7711be1d.info.1"
style="fill:white;fill-opacity:1.000000;stroke:black;stroke-width:1.000000;stroke-opacity:1.000000" />


<text
x="495.369678"
y="402.854132"
id="Protein_f61a1f0428ffa2165c1a00ef7711be1d.info.1"
style="font-size:6.000000px;text-anchor:middle;font-family:Arial,Helvetica;alignment-baseline:baseline;stroke.opacity:1;dominant-baseline:baseline"
fill="black"
>
phosres</text>



<rect
width="58.333333"
height="33.333333"
rx="3.333333"
ry="3.333333"
x="306.957054"
y="508.632107"
id="Protein_2abc28f9f4350a292d7667fb1e3b7668"
style="fill:white;fill-opacity:1.000000;stroke:black;stroke-width:1.000000;stroke-opacity:1.000000" />


<text
x="336.123721"
y="527.298773"
id="Protein_2abc28f9f4350a292d7667fb1e3b7668"
style="font-size:6.000000px;text-anchor:middle;font-family:Arial,Helvetica;alignment-baseline:baseline;stroke.opacity:1;dominant-baseline:baseline"
fill="black"
>
SOS</text>



<rect
width="58.333333"
height="33.333333"
rx="3.333333"
ry="3.333333"
x="662.965966"
y="677.156409"
id="Protein_cafb63b898b2f940c95926e64b7f2b86"
style="fill:white;fill-opacity:1.000000;stroke:black;stroke-width:1.000000;stroke-opacity:1.000000" />


<text
x="692.132633"
y="695.823076"
id="Protein_cafb63b898b2f940c95926e64b7f2b86"
style="font-size:6.000000px;text-anchor:middle;font-family:Arial,Helvetica;alignment-baseline:baseline;stroke.opacity:1;dominant-baseline:baseline"
fill="black"
>
MEK</text>


<ellipse
rx="14.583333"
ry="7.291667"
cx="677.549300"
cy="677.156409"
id="Protein_cafb63b898b2f940c95926e64b7f2b86.info.1"
style="fill:white;fill-opacity:1.000000;stroke:black;stroke-width:1.000000;stroke-opacity:1.000000" />


<text
x="677.549300"
y="679.156409"
id="Protein_cafb63b898b2f940c95926e64b7f2b86.info.1"
style="font-size:6.000000px;text-anchor:middle;font-family:Arial,Helvetica;alignment-baseline:baseline;stroke.opacity:1;dominant-baseline:baseline"
fill="black"
>
phosres</text>



<rect
width="58.333333"
height="33.333333"
rx="3.333333"
ry="3.333333"
x="420.828470"
y="543.437081"
id="Protein_61b095a7d0bf12cbb58e66507a07d26e"
style="fill:white;fill-opacity:1.000000;stroke:black;stroke-width:1.000000;stroke-opacity:1.000000" />


<text
x="449.995137"
y="562.103747"
id="Protein_61b095a7d0bf12cbb58e66507a07d26e"
style="font-size:6.000000px;text-anchor:middle;font-family:Arial,Helvetica;alignment-baseline:baseline;stroke.opacity:1;dominant-baseline:baseline"
fill="black"
>
IRS 1-4</text>


<ellipse
rx="14.583333"
ry="7.291667"
cx="435.411803"
cy="543.437081"
id="Protein_61b095a7d0bf12cbb58e66507a07d26e.info.1"
style="fill:white;fill-opacity:1.000000;stroke:black;stroke-width:1.000000;stroke-opacity:1.000000" />


<text
x="435.411803"
y="545.437081"
id="Protein_61b095a7d0bf12cbb58e66507a07d26e.info.1"
style="font-size:6.000000px;text-anchor:middle;font-family:Arial,Helvetica;alignment-baseline:baseline;stroke.opacity:1;dominant-baseline:baseline"
fill="black"
>
phosres</text>



<rect
width="58.333333"
height="33.333333"
rx="3.333333"
ry="3.333333"
x="579.384725"
y="356.397050"
id="Protein_69a32c4cbe0486bda9d228e441af288b"
style="fill:white;fill-opacity:1.000000;stroke:black;stroke-width:1.000000;stroke-opacity:1.000000" />


<text
x="608.551391"
y="375.063717"
id="Protein_69a32c4cbe0486bda9d228e441af288b"
style="font-size:6.000000px;text-anchor:middle;font-family:Arial,Helvetica;alignment-baseline:baseline;stroke.opacity:1;dominant-baseline:baseline"
fill="black"
>
P90 RSK</text>



<rect
width="58.333333"
height="33.333333"
rx="3.333333"
ry="3.333333"
x="478.505788"
y="810.519323"
id="Protein_3a0bd36da4589c1bbc1467ca65cde888"
style="fill:white;fill-opacity:1.000000;stroke:black;stroke-width:1.000000;stroke-opacity:1.000000" />


<text
x="507.672455"
y="829.185990"
id="Protein_3a0bd36da4589c1bbc1467ca65cde888"
style="font-size:6.000000px;text-anchor:middle;font-family:Arial,Helvetica;alignment-baseline:baseline;stroke.opacity:1;dominant-baseline:baseline"
fill="black"
>
Raf</text>


<ellipse
rx="14.583333"
ry="7.291667"
cx="493.089122"
cy="810.519323"
id="Protein_3a0bd36da4589c1bbc1467ca65cde888.info.1"
style="fill:white;fill-opacity:1.000000;stroke:black;stroke-width:1.000000;stroke-opacity:1.000000" />


<text
x="493.089122"
y="812.519323"
id="Protein_3a0bd36da4589c1bbc1467ca65cde888.info.1"
style="font-size:6.000000px;text-anchor:middle;font-family:Arial,Helvetica;alignment-baseline:baseline;stroke.opacity:1;dominant-baseline:baseline"
fill="black"
>
phosres</text>



<rect
width="58.333333"
height="33.333333"
rx="3.333333"
ry="3.333333"
x="496.706798"
y="488.285877"
id="Protein_3aaf579bf2aa319e82a71ae184418fd0"
style="fill:white;fill-opacity:1.000000;stroke:black;stroke-width:1.000000;stroke-opacity:1.000000" />


<text
x="525.873465"
y="506.952544"
id="Protein_3aaf579bf2aa319e82a71ae184418fd0"
style="font-size:6.000000px;text-anchor:middle;font-family:Arial,Helvetica;alignment-baseline:baseline;stroke.opacity:1;dominant-baseline:baseline"
fill="black"
>
IRS 1-4</text>



<rect
width="58.333333"
height="33.333333"
rx="3.333333"
ry="3.333333"
x="348.083065"
y="750.213667"
id="Protein_1f785dea9213dafda53e50e637dd3a2d"
style="fill:white;fill-opacity:1.000000;stroke:black;stroke-width:1.000000;stroke-opacity:1.000000" />


<text
x="377.249732"
y="768.880334"
id="Protein_1f785dea9213dafda53e50e637dd3a2d"
style="font-size:6.000000px;text-anchor:middle;font-family:Arial,Helvetica;alignment-baseline:baseline;stroke.opacity:1;dominant-baseline:baseline"
fill="black"
>
RASA1</text>



<rect
width="58.333333"
height="33.333333"
rx="3.333333"
ry="3.333333"
x="600.068886"
y="558.689338"
id="Protein_c8a5554ca36dfe19e03c05bb0ee3a44d"
style="fill:white;fill-opacity:1.000000;stroke:black;stroke-width:1.000000;stroke-opacity:1.000000" />


<text
x="629.235552"
y="577.356005"
id="Protein_c8a5554ca36dfe19e03c05bb0ee3a44d"
style="font-size:6.000000px;text-anchor:middle;font-family:Arial,Helvetica;alignment-baseline:baseline;stroke.opacity:1;dominant-baseline:baseline"
fill="black"
>
ERK</text>


<ellipse
rx="14.583333"
ry="7.291667"
cx="614.652219"
cy="558.689338"
id="Protein_c8a5554ca36dfe19e03c05bb0ee3a44d.info.1"
style="fill:white;fill-opacity:1.000000;stroke:black;stroke-width:1.000000;stroke-opacity:1.000000" />


<text
x="614.652219"
y="560.689338"
id="Protein_c8a5554ca36dfe19e03c05bb0ee3a44d.info.1"
style="font-size:6.000000px;text-anchor:middle;font-family:Arial,Helvetica;alignment-baseline:baseline;stroke.opacity:1;dominant-baseline:baseline"
fill="black"
>
phosres</text>



<rect
width="58.333333"
height="33.333333"
rx="3.333333"
ry="3.333333"
x="619.206628"
y="731.762564"
id="Protein_6c3e93aeea1d8a3d98ce36d43ce3795c"
style="fill:white;fill-opacity:1.000000;stroke:black;stroke-width:1.000000;stroke-opacity:1.000000" />


<text
x="648.373295"
y="750.429230"
id="Protein_6c3e93aeea1d8a3d98ce36d43ce3795c"
style="font-size:6.000000px;text-anchor:middle;font-family:Arial,Helvetica;alignment-baseline:baseline;stroke.opacity:1;dominant-baseline:baseline"
fill="black"
>
ERK</text>



<rect
width="58.333333"
height="33.333333"
rx="3.333333"
ry="3.333333"
x="290.806764"
y="604.128095"
id="Protein_af77e6c91258997eb5bf5e0bb4ad6f5f"
style="fill:white;fill-opacity:1.000000;stroke:black;stroke-width:1.000000;stroke-opacity:1.000000" />


<text
x="319.973430"
y="622.794762"
id="Protein_af77e6c91258997eb5bf5e0bb4ad6f5f"
style="font-size:6.000000px;text-anchor:middle;font-family:Arial,Helvetica;alignment-baseline:baseline;stroke.opacity:1;dominant-baseline:baseline"
fill="black"
>
RASA1</text>



<rect
width="58.333333"
height="33.333333"
rx="3.333333"
ry="3.333333"
x="448.415292"
y="230.366530"
id="Protein_c336d86e53738deecd8fcfaabee630de"
style="fill:white;fill-opacity:1.000000;stroke:black;stroke-width:1.000000;stroke-opacity:1.000000" />


<text
x="477.581958"
y="249.033197"
id="Protein_c336d86e53738deecd8fcfaabee630de"
style="font-size:6.000000px;text-anchor:middle;font-family:Arial,Helvetica;alignment-baseline:baseline;stroke.opacity:1;dominant-baseline:baseline"
fill="black"
>
c-fos</text>


<ellipse
rx="14.583333"
ry="7.291667"
cx="462.998625"
cy="230.366530"
id="Protein_c336d86e53738deecd8fcfaabee630de.info.1"
style="fill:white;fill-opacity:1.000000;stroke:black;stroke-width:1.000000;stroke-opacity:1.000000" />


<text
x="462.998625"
y="232.366530"
id="Protein_c336d86e53738deecd8fcfaabee630de.info.1"
style="font-size:6.000000px;text-anchor:middle;font-family:Arial,Helvetica;alignment-baseline:baseline;stroke.opacity:1;dominant-baseline:baseline"
fill="black"
>
phosres</text>



<ellipse
rx="16.666667"
ry="16.666667"
cx="509.522085"
cy="661.343544"
id="SmallMolecule_a76d15fbd1091924cc282d744850a1ce"
style="fill:white;fill-opacity:0.000000;stroke:black;stroke-width:1.000000;stroke-opacity:1.000000" />


<text
x="509.522085"
y="663.343544"
id="SmallMolecule_a76d15fbd1091924cc282d744850a1ce"
style="font-size:6.000000px;text-anchor:middle;font-family:Arial,Helvetica;alignment-baseline:baseline;stroke.opacity:1;dominant-baseline:baseline"
fill="black"
>
ADP</text>



<rect
width="58.333333"
height="33.333333"
rx="3.333333"
ry="3.333333"
x="619.156770"
y="809.901533"
id="Protein_9856d0eb0665268656ecc12f189b49e8"
style="fill:white;fill-opacity:1.000000;stroke:black;stroke-width:1.000000;stroke-opacity:1.000000" />


<text
x="648.323437"
y="828.568200"
id="Protein_9856d0eb0665268656ecc12f189b49e8"
style="font-size:6.000000px;text-anchor:middle;font-family:Arial,Helvetica;alignment-baseline:baseline;stroke.opacity:1;dominant-baseline:baseline"
fill="black"
>
MEK</text>



<rect
width="58.333333"
height="33.333333"
rx="3.333333"
ry="3.333333"
x="803.912882"
y="622.978258"
id="Protein_337073c894a76fabae7c6ba74d967145"
style="fill:white;fill-opacity:1.000000;stroke:black;stroke-width:1.000000;stroke-opacity:1.000000" />


<text
x="833.079548"
y="641.644924"
id="Protein_337073c894a76fabae7c6ba74d967145"
style="font-size:6.000000px;text-anchor:middle;font-family:Arial,Helvetica;alignment-baseline:baseline;stroke.opacity:1;dominant-baseline:baseline"
fill="black"
>
ELK1</text>


<ellipse
rx="14.583333"
ry="7.291667"
cx="818.496215"
cy="622.978258"
id="Protein_337073c894a76fabae7c6ba74d967145.info.1"
style="fill:white;fill-opacity:1.000000;stroke:black;stroke-width:1.000000;stroke-opacity:1.000000" />


<text
x="818.496215"
y="624.978258"
id="Protein_337073c894a76fabae7c6ba74d967145.info.1"
style="font-size:6.000000px;text-anchor:middle;font-family:Arial,Helvetica;alignment-baseline:baseline;stroke.opacity:1;dominant-baseline:baseline"
fill="black"
>
phosres</text>



<rect
width="58.333333"
height="33.333333"
rx="3.333333"
ry="3.333333"
x="380.207888"
y="363.237006"
id="Protein_5a653e9fa7f6245ab463fc950a957c86"
style="fill:white;fill-opacity:1.000000;stroke:black;stroke-width:1.000000;stroke-opacity:1.000000" />


<text
x="409.374555"
y="381.903673"
id="Protein_5a653e9fa7f6245ab463fc950a957c86"
style="font-size:6.000000px;text-anchor:middle;font-family:Arial,Helvetica;alignment-baseline:baseline;stroke.opacity:1;dominant-baseline:baseline"
fill="black"
>
Grb2</text>



<rect
width="58.333333"
height="33.333333"
rx="3.333333"
ry="3.333333"
x="378.801184"
y="668.863567"
id="Protein_860c259cfc66fe6d4cb4ba1479d8a17d"
style="fill:white;fill-opacity:1.000000;stroke:black;stroke-width:1.000000;stroke-opacity:1.000000" />


<text
x="407.967850"
y="687.530234"
id="Protein_860c259cfc66fe6d4cb4ba1479d8a17d"
style="font-size:6.000000px;text-anchor:middle;font-family:Arial,Helvetica;alignment-baseline:baseline;stroke.opacity:1;dominant-baseline:baseline"
fill="black"
>
Raf</text>



<rect
width="58.333333"
height="33.333333"
rx="3.333333"
ry="3.333333"
x="784.115766"
y="532.383025"
id="Protein_ce511f3295ab09de5d0b55cc64c23e1b"
style="fill:white;fill-opacity:1.000000;stroke:black;stroke-width:1.000000;stroke-opacity:1.000000" />


<text
x="813.282433"
y="551.049692"
id="Protein_ce511f3295ab09de5d0b55cc64c23e1b"
style="font-size:6.000000px;text-anchor:middle;font-family:Arial,Helvetica;alignment-baseline:baseline;stroke.opacity:1;dominant-baseline:baseline"
fill="black"
>
ELK1</text>



<rect
width="58.333333"
height="33.333333"
rx="3.333333"
ry="3.333333"
x="119.800000"
y="564.476881"
id="Protein_f807fe3f9c939900ece06c3a2f95fd63_Complex_ea00212752e4557c783a20d6fd2e7c5b"
style="fill:white;fill-opacity:1.000000;stroke:black;stroke-width:1.000000;stroke-opacity:1.000000" />


<text
x="148.966667"
y="583.143548"
id="Protein_f807fe3f9c939900ece06c3a2f95fd63_Complex_ea00212752e4557c783a20d6fd2e7c5b"
style="font-size:6.000000px;text-anchor:middle;font-family:Arial,Helvetica;alignment-baseline:baseline;stroke.opacity:1;dominant-baseline:baseline"
fill="black"
>
SOS</text>



<rect
width="58.333333"
height="33.333333"
rx="3.333333"
ry="3.333333"
x="119.800000"
y="606.560214"
id="Protein_a5486747aed91135bb79c01b97975492_Complex_ea00212752e4557c783a20d6fd2e7c5b"
style="fill:white;fill-opacity:1.000000;stroke:black;stroke-width:1.000000;stroke-opacity:1.000000" />


<text
x="148.966667"
y="625.226881"
id="Protein_a5486747aed91135bb79c01b97975492_Complex_ea00212752e4557c783a20d6fd2e7c5b"
style="font-size:6.000000px;text-anchor:middle;font-family:Arial,Helvetica;alignment-baseline:baseline;stroke.opacity:1;dominant-baseline:baseline"
fill="black"
>
Grb2</text>



<rect
width="58.333333"
height="33.333333"
rx="3.333333"
ry="3.333333"
x="706.091600"
y="430.302578"
id="Protein_8a3df4e6298bfb7ddd2b4e658fac30b1_Complex_e18f4b48f85a97157716549f4b569ec4"
style="fill:white;fill-opacity:1.000000;stroke:black;stroke-width:1.000000;stroke-opacity:1.000000" />


<text
x="735.258267"
y="448.969245"
id="Protein_8a3df4e6298bfb7ddd2b4e658fac30b1_Complex_e18f4b48f85a97157716549f4b569ec4"
style="font-size:6.000000px;text-anchor:middle;font-family:Arial,Helvetica;alignment-baseline:baseline;stroke.opacity:1;dominant-baseline:baseline"
fill="black"
>
Insulin IGF</text>



<rect
width="58.333333"
height="33.333333"
rx="3.333333"
ry="3.333333"
x="706.091600"
y="472.385912"
id="Protein_b5c5e92e547121dd970096aec1f6ab4f_Complex_e18f4b48f85a97157716549f4b569ec4"
style="fill:white;fill-opacity:1.000000;stroke:black;stroke-width:1.000000;stroke-opacity:1.000000" />


<text
x="735.258267"
y="491.052578"
id="Protein_b5c5e92e547121dd970096aec1f6ab4f_Complex_e18f4b48f85a97157716549f4b569ec4"
style="font-size:6.000000px;text-anchor:middle;font-family:Arial,Helvetica;alignment-baseline:baseline;stroke.opacity:1;dominant-baseline:baseline"
fill="black"
>
INSR IGF-R IRR</text>



<rect
width="58.333333"
height="33.333333"
rx="3.333333"
ry="3.333333"
x="948.731059"
y="429.709328"
id="Protein_0eb7d89fd23af65fdfc01862dcc35b68"
style="fill:white;fill-opacity:1.000000;stroke:black;stroke-width:1.000000;stroke-opacity:1.000000" />


<text
x="977.897726"
y="448.375995"
id="Protein_0eb7d89fd23af65fdfc01862dcc35b68"
style="font-size:6.000000px;text-anchor:middle;font-family:Arial,Helvetica;alignment-baseline:baseline;stroke.opacity:1;dominant-baseline:baseline"
fill="black"
>
INSR IGF-R IRR</text>


<rect
width="16.666667"
height="16.666667"
rx="0.000000"
ry="0.000000"
x="293.805746"
y="695.278101"
id="BiochemicalReaction_8cf0cb353e7b7cf9506d62f18a9e3ed3_LEFT_TO_RIGHT"
style="fill:white;fill-opacity:0.600000;stroke:black;stroke-width:1.000000;stroke-opacity:1.000000" />



<rect
width="16.666667"
height="16.666667"
rx="0.000000"
ry="0.000000"
x="572.167019"
y="747.190832"
id="BiochemicalReaction_fb9769e035b71eacc26e851e161a0a7e_LEFT_TO_RIGHT"
style="fill:white;fill-opacity:0.600000;stroke:black;stroke-width:1.000000;stroke-opacity:1.000000" />



<rect
width="16.666667"
height="16.666667"
rx="0.000000"
ry="0.000000"
x="605.237687"
y="644.654714"
id="BiochemicalReaction_d28893cb42828e1d254bed91fecf0dcd_LEFT_TO_RIGHT"
style="fill:white;fill-opacity:0.600000;stroke:black;stroke-width:1.000000;stroke-opacity:1.000000" />



<rect
width="16.666667"
height="16.666667"
rx="0.000000"
ry="0.000000"
x="407.127303"
y="463.451285"
id="BiochemicalReaction_4c8a7446aaef93edeea3da2a43148475_LEFT_TO_RIGHT"
style="fill:white;fill-opacity:0.600000;stroke:black;stroke-width:1.000000;stroke-opacity:1.000000" />



<rect
width="16.666667"
height="16.666667"
rx="0.000000"
ry="0.000000"
x="797.031231"
y="423.110740"
id="ComplexAssembly_0c5d14f3a5aaea95487ba89ff1752494_LEFT_TO_RIGHT"
style="fill:white;fill-opacity:0.600000;stroke:black;stroke-width:1.000000;stroke-opacity:1.000000" />



<rect
width="16.666667"
height="16.666667"
rx="0.000000"
ry="0.000000"
x="554.035937"
y="578.015261"
id="BiochemicalReaction_087f946e0629ce6454719fa5f1170553_LEFT_TO_RIGHT"
style="fill:white;fill-opacity:0.600000;stroke:black;stroke-width:1.000000;stroke-opacity:1.000000" />



<rect
width="16.666667"
height="16.666667"
rx="0.000000"
ry="0.000000"
x="728.337988"
y="601.263236"
id="BiochemicalReaction_e6cdd710ec2e8fa952c62399842d59e5_LEFT_TO_RIGHT"
style="fill:white;fill-opacity:0.600000;stroke:black;stroke-width:1.000000;stroke-opacity:1.000000" />



<rect
width="16.666667"
height="16.666667"
rx="0.000000"
ry="0.000000"
x="501.376074"
y="323.421457"
id="BiochemicalReaction_3d498648b4ec075e650dea624c09898a_LEFT_TO_RIGHT"
style="fill:white;fill-opacity:0.600000;stroke:black;stroke-width:1.000000;stroke-opacity:1.000000" />



<rect
width="16.666667"
height="16.666667"
rx="0.000000"
ry="0.000000"
x="597.597059"
y="463.733208"
id="BiochemicalReaction_5f9394b3cd2f5ca5d3fc8723523fda8b_LEFT_TO_RIGHT"
style="fill:white;fill-opacity:0.600000;stroke:black;stroke-width:1.000000;stroke-opacity:1.000000" />



<rect
width="16.666667"
height="16.666667"
rx="0.000000"
ry="0.000000"
x="476.924010"
y="738.528916"
id="BiochemicalReaction_08db300d2ee7d88e6447993c69ea886f_LEFT_TO_RIGHT"
style="fill:white;fill-opacity:0.600000;stroke:black;stroke-width:1.000000;stroke-opacity:1.000000" />



<rect
width="16.666667"
height="16.666667"
rx="0.000000"
ry="0.000000"
x="239.701596"
y="479.314429"
id="ComplexAssembly_0edb87fe10b0824b86f941fd1dd54375_LEFT_TO_RIGHT"
style="fill:white;fill-opacity:0.600000;stroke:black;stroke-width:1.000000;stroke-opacity:1.000000" />





<path d="M187.000000 627.000000 C 223.000000 651.000000, 273.000000 684.000000,293.000000 698.000000" stroke="black"  fill="transparent"/>

<line
x1="223" y1="651" x2="187" y2="627"
id="0"
style="stroke:black;stroke-width:1.000000;stroke-opacity:0" />


<line
x1="273" y1="684" x2="293" y2="698"
id="Complex_ea00212752e4557c783a20d6fd2e7c5b--to--BiochemicalReaction_8cf0cb353e7b7cf9506d62f18a9e3ed3_LEFT_TO_RIGHT"
style="stroke:black;stroke-width:1.000000;stroke-opacity:0" />


<ellipse
rx="4.400000"
ry="4.400000"
cx="289.395380"
cy="695.476766"
id="Complex_ea00212752e4557c783a20d6fd2e7c5b--to--BiochemicalReaction_8cf0cb353e7b7cf9506d62f18a9e3ed3_LEFT_TO_RIGHT"
style="fill:white;fill-opacity:0.800000;stroke:black;stroke-width:1.000000;stroke-opacity:1.000000" />


<path d="M540.000000 701.000000 C 526.000000 713.000000, 505.000000 730.000000,493.000000 739.000000" stroke="black"  fill="transparent"/>

<line
x1="526" y1="713" x2="540" y2="701"
id="0"
style="stroke:black;stroke-width:1.000000;stroke-opacity:0" />


<line
x1="505" y1="730" x2="493" y2="739"
id="SmallMolecule_c06006b95f84cab52e8e1ff7f7331b88--to--BiochemicalReaction_08db300d2ee7d88e6447993c69ea886f_LEFT_TO_RIGHT-input"
style="stroke:black;stroke-width:1.000000;stroke-opacity:0" />


<path d="M663.000000 678.000000 C 648.000000 671.000000, 631.000000 662.000000,621.000000 657.000000" stroke="black"  fill="transparent"/>

<line
x1="648" y1="671" x2="663" y2="678"
id="0"
style="stroke:black;stroke-width:1.000000;stroke-opacity:0" />


<line
x1="631" y1="662" x2="621" y2="657"
id="Protein_cafb63b898b2f940c95926e64b7f2b86--to--BiochemicalReaction_d28893cb42828e1d254bed91fecf0dcd_LEFT_TO_RIGHT"
style="stroke:black;stroke-width:1.000000;stroke-opacity:0" />


<ellipse
rx="4.400000"
ry="4.400000"
cx="624.935480"
cy="658.967740"
id="Protein_cafb63b898b2f940c95926e64b7f2b86--to--BiochemicalReaction_d28893cb42828e1d254bed91fecf0dcd_LEFT_TO_RIGHT"
style="fill:white;fill-opacity:0.800000;stroke:black;stroke-width:1.000000;stroke-opacity:1.000000" />


<path d="M948.000000 443.000000 C 908.000000 440.000000, 837.000000 434.000000,813.000000 432.000000" stroke="black"  fill="transparent"/>

<line
x1="908" y1="440" x2="948" y2="443"
id="0"
style="stroke:black;stroke-width:1.000000;stroke-opacity:0" />


<line
x1="837" y1="434" x2="813" y2="432"
id="Protein_0eb7d89fd23af65fdfc01862dcc35b68--to--ComplexAssembly_0c5d14f3a5aaea95487ba89ff1752494_LEFT_TO_RIGHT-input"
style="stroke:black;stroke-width:1.000000;stroke-opacity:0" />


<path d="M571.000000 300.000000 C 553.000000 309.000000, 530.000000 321.000000,518.000000 327.000000" stroke="black"  fill="transparent"/>

<line
x1="553" y1="309" x2="571" y2="300"
id="0"
style="stroke:black;stroke-width:1.000000;stroke-opacity:0" />


<line
x1="530" y1="321" x2="518" y2="327"
id="Protein_b65ea29eb6dafc05a3191a9e2076e9b6--to--BiochemicalReaction_3d498648b4ec075e650dea624c09898a_LEFT_TO_RIGHT-input"
style="stroke:black;stroke-width:1.000000;stroke-opacity:0" />


<path d="M802.000000 183.000000 C 803.000000 233.000000, 804.000000 385.000000,805.000000 422.000000" stroke="black"  fill="transparent"/>

<line
x1="803" y1="233" x2="802" y2="183"
id="0"
style="stroke:black;stroke-width:1.000000;stroke-opacity:0" />


<line
x1="804" y1="385" x2="805" y2="422"
id="Protein_21aa59b6b2b54fe56f527e8ca5cfed1a--to--ComplexAssembly_0c5d14f3a5aaea95487ba89ff1752494_LEFT_TO_RIGHT-input"
style="stroke:black;stroke-width:1.000000;stroke-opacity:0" />


<path d="M524.000000 810.000000 C 539.000000 796.000000, 560.000000 775.000000,571.000000 764.000000" stroke="black"  fill="transparent"/>

<line
x1="539" y1="796" x2="524" y2="810"
id="0"
style="stroke:black;stroke-width:1.000000;stroke-opacity:0" />


<line
x1="560" y1="775" x2="571" y2="764"
id="Protein_3a0bd36da4589c1bbc1467ca65cde888--to--BiochemicalReaction_fb9769e035b71eacc26e851e161a0a7e_LEFT_TO_RIGHT"
style="stroke:black;stroke-width:1.000000;stroke-opacity:0" />


<ellipse
rx="4.400000"
ry="4.400000"
cx="567.888730"
cy="767.111270"
id="Protein_3a0bd36da4589c1bbc1467ca65cde888--to--BiochemicalReaction_fb9769e035b71eacc26e851e161a0a7e_LEFT_TO_RIGHT"
style="fill:white;fill-opacity:0.800000;stroke:black;stroke-width:1.000000;stroke-opacity:1.000000" />


<path d="M608.000000 389.000000 C 607.000000 411.000000, 606.000000 446.000000,606.000000 463.000000" stroke="black"  fill="transparent"/>

<line
x1="607" y1="411" x2="608" y2="389"
id="0"
style="stroke:black;stroke-width:1.000000;stroke-opacity:0" />


<line
x1="606" y1="446" x2="606" y2="463"
id="Protein_69a32c4cbe0486bda9d228e441af288b--to--BiochemicalReaction_5f9394b3cd2f5ca5d3fc8723523fda8b_LEFT_TO_RIGHT-input"
style="stroke:black;stroke-width:1.000000;stroke-opacity:0" />


<path d="M521.000000 644.000000 C 532.000000 629.000000, 547.000000 607.000000,556.000000 595.000000" stroke="black"  fill="transparent"/>

<line
x1="547" y1="607" x2="556" y2="595"
id="0"
style="stroke:black;stroke-width:1.000000;stroke-opacity:0" />


<line
x1="532" y1="629" x2="521" y2="644"
id="BiochemicalReaction_087f946e0629ce6454719fa5f1170553_LEFT_TO_RIGHT-output--to--SmallMolecule_a76d15fbd1091924cc282d744850a1ce"
style="stroke:black;stroke-width:1.000000;stroke-opacity:0" />


<polygon
points = "521,644 512.2,639.6 512.2,648.4"
id="line"
style="fill:black; stroke:#000000; stroke-width:1"
transform = "rotate(126.253838 521.000000 644.000000)"
/>


<path d="M443.000000 543.000000 C 436.000000 524.000000, 424.000000 494.000000,418.000000 480.000000" stroke="black"  fill="transparent"/>

<line
x1="436" y1="524" x2="443" y2="543"
id="0"
style="stroke:black;stroke-width:1.000000;stroke-opacity:0" />


<line
x1="424" y1="494" x2="418" y2="480"
id="Protein_61b095a7d0bf12cbb58e66507a07d26e--to--BiochemicalReaction_4c8a7446aaef93edeea3da2a43148475_LEFT_TO_RIGHT"
style="stroke:black;stroke-width:1.000000;stroke-opacity:0" />


<ellipse
rx="4.400000"
ry="4.400000"
cx="419.733245"
cy="484.044238"
id="Protein_61b095a7d0bf12cbb58e66507a07d26e--to--BiochemicalReaction_4c8a7446aaef93edeea3da2a43148475_LEFT_TO_RIGHT"
style="fill:white;fill-opacity:0.800000;stroke:black;stroke-width:1.000000;stroke-opacity:1.000000" />


<path d="M573.000000 677.000000 C 583.000000 671.000000, 596.000000 663.000000,604.000000 658.000000" stroke="black"  fill="transparent"/>

<line
x1="583" y1="671" x2="573" y2="677"
id="0"
style="stroke:black;stroke-width:1.000000;stroke-opacity:0" />


<line
x1="596" y1="663" x2="604" y2="658"
id="SmallMolecule_c06006b95f84cab52e8e1ff7f7331b88--to--BiochemicalReaction_d28893cb42828e1d254bed91fecf0dcd_LEFT_TO_RIGHT-input"
style="stroke:black;stroke-width:1.000000;stroke-opacity:0" />


<path d="M792.000000 565.000000 C 776.000000 577.000000, 756.000000 594.000000,745.000000 603.000000" stroke="black"  fill="transparent"/>

<line
x1="776" y1="577" x2="792" y2="565"
id="0"
style="stroke:black;stroke-width:1.000000;stroke-opacity:0" />


<line
x1="756" y1="594" x2="745" y2="603"
id="Protein_ce511f3295ab09de5d0b55cc64c23e1b--to--BiochemicalReaction_e6cdd710ec2e8fa952c62399842d59e5_LEFT_TO_RIGHT-input"
style="stroke:black;stroke-width:1.000000;stroke-opacity:0" />


<path d="M625.000000 558.000000 C 620.000000 536.000000, 611.000000 497.000000,607.000000 480.000000" stroke="black"  fill="transparent"/>

<line
x1="620" y1="536" x2="625" y2="558"
id="0"
style="stroke:black;stroke-width:1.000000;stroke-opacity:0" />


<line
x1="611" y1="497" x2="607" y2="480"
id="Protein_c8a5554ca36dfe19e03c05bb0ee3a44d--to--BiochemicalReaction_5f9394b3cd2f5ca5d3fc8723523fda8b_LEFT_TO_RIGHT"
style="stroke:black;stroke-width:1.000000;stroke-opacity:0" />


<ellipse
rx="4.400000"
ry="4.400000"
cx="608.007773"
cy="484.283036"
id="Protein_c8a5554ca36dfe19e03c05bb0ee3a44d--to--BiochemicalReaction_5f9394b3cd2f5ca5d3fc8723523fda8b_LEFT_TO_RIGHT"
style="fill:white;fill-opacity:0.800000;stroke:black;stroke-width:1.000000;stroke-opacity:1.000000" />


<path d="M429.000000 702.000000 C 444.000000 714.000000, 465.000000 731.000000,476.000000 740.000000" stroke="black"  fill="transparent"/>

<line
x1="444" y1="714" x2="429" y2="702"
id="0"
style="stroke:black;stroke-width:1.000000;stroke-opacity:0" />


<line
x1="465" y1="731" x2="476" y2="740"
id="Protein_860c259cfc66fe6d4cb4ba1479d8a17d--to--BiochemicalReaction_08db300d2ee7d88e6447993c69ea886f_LEFT_TO_RIGHT-input"
style="stroke:black;stroke-width:1.000000;stroke-opacity:0" />


<path d="M186.000000 558.000000 C 206.000000 535.000000, 229.000000 509.000000,240.000000 496.000000" stroke="black"  fill="transparent"/>

<line
x1="229" y1="509" x2="240" y2="496"
id="0"
style="stroke:black;stroke-width:1.000000;stroke-opacity:0" />


<line
x1="206" y1="535" x2="186" y2="558"
id="ComplexAssembly_0edb87fe10b0824b86f941fd1dd54375_LEFT_TO_RIGHT-output--to--Complex_ea00212752e4557c783a20d6fd2e7c5b"
style="stroke:black;stroke-width:1.000000;stroke-opacity:0" />


<polygon
points = "186,558 177.2,553.6 177.2,562.4"
id="line"
style="fill:black; stroke:#000000; stroke-width:1"
transform = "rotate(131.009087 186.000000 558.000000)"
/>


<path d="M662.000000 705.000000 C 648.000000 711.000000, 631.000000 719.000000,616.000000 728.000000" stroke="black"  fill="transparent"/>
<path d="M616.000000 728.000000 C 606.000000 734.000000, 595.000000 742.000000,588.000000 748.000000" stroke="black"  fill="transparent"/>

<line
x1="595" y1="742" x2="588" y2="748"
id="0"
style="stroke:black;stroke-width:1.000000;stroke-opacity:0" />


<line
x1="648" y1="711" x2="662" y2="705"
id="BiochemicalReaction_fb9769e035b71eacc26e851e161a0a7e_LEFT_TO_RIGHT-output--to--Protein_cafb63b898b2f940c95926e64b7f2b86"
style="stroke:black;stroke-width:1.000000;stroke-opacity:0" />


<polygon
points = "662,705 653.2,700.6 653.2,709.4"
id="line"
style="fill:black; stroke:#000000; stroke-width:1"
transform = "rotate(-23.198591 662.000000 705.000000)"
/>


<path d="M357.000000 750.000000 C 342.000000 737.000000, 322.000000 720.000000,310.000000 710.000000" stroke="black"  fill="transparent"/>

<line
x1="322" y1="720" x2="310" y2="710"
id="0"
style="stroke:black;stroke-width:1.000000;stroke-opacity:0" />


<line
x1="342" y1="737" x2="357" y2="750"
id="BiochemicalReaction_8cf0cb353e7b7cf9506d62f18a9e3ed3_LEFT_TO_RIGHT-output--to--Protein_1f785dea9213dafda53e50e637dd3a2d"
style="stroke:black;stroke-width:1.000000;stroke-opacity:0" />


<polygon
points = "357,750 348.2,745.6 348.2,754.4"
id="line"
style="fill:black; stroke:#000000; stroke-width:1"
transform = "rotate(40.914383 357.000000 750.000000)"
/>


<path d="M697.000000 489.000000 C 668.000000 506.000000, 629.000000 531.000000,597.000000 555.000000" stroke="black"  fill="transparent"/>
<path d="M597.000000 555.000000 C 587.000000 562.000000, 577.000000 571.000000,570.000000 578.000000" stroke="black"  fill="transparent"/>

<line
x1="668" y1="506" x2="697" y2="489"
id="0"
style="stroke:black;stroke-width:1.000000;stroke-opacity:0" />


<line
x1="577" y1="571" x2="570" y2="578"
id="Complex_e18f4b48f85a97157716549f4b569ec4--to--BiochemicalReaction_087f946e0629ce6454719fa5f1170553_LEFT_TO_RIGHT"
style="stroke:black;stroke-width:1.000000;stroke-opacity:0" />


<ellipse
rx="4.400000"
ry="4.400000"
cx="573.111270"
cy="574.888730"
id="Complex_e18f4b48f85a97157716549f4b569ec4--to--BiochemicalReaction_087f946e0629ce6454719fa5f1170553_LEFT_TO_RIGHT"
style="fill:white;fill-opacity:0.800000;stroke:black;stroke-width:1.000000;stroke-opacity:1.000000" />


<path d="M503.000000 810.000000 C 498.000000 793.000000, 491.000000 768.000000,487.000000 755.000000" stroke="black"  fill="transparent"/>

<line
x1="491" y1="768" x2="487" y2="755"
id="0"
style="stroke:black;stroke-width:1.000000;stroke-opacity:0" />


<line
x1="498" y1="793" x2="503" y2="810"
id="BiochemicalReaction_08db300d2ee7d88e6447993c69ea886f_LEFT_TO_RIGHT-output--to--Protein_3a0bd36da4589c1bbc1467ca65cde888"
style="stroke:black;stroke-width:1.000000;stroke-opacity:0" />


<polygon
points = "503,810 494.2,805.6 494.2,814.4"
id="line"
style="fill:black; stroke:#000000; stroke-width:1"
transform = "rotate(73.610460 503.000000 810.000000)"
/>


<path d="M657.000000 584.000000 C 681.000000 591.000000, 712.000000 601.000000,727.000000 606.000000" stroke="black"  fill="transparent"/>

<line
x1="681" y1="591" x2="657" y2="584"
id="0"
style="stroke:black;stroke-width:1.000000;stroke-opacity:0" />


<line
x1="712" y1="601" x2="727" y2="606"
id="Protein_c8a5554ca36dfe19e03c05bb0ee3a44d--to--BiochemicalReaction_e6cdd710ec2e8fa952c62399842d59e5_LEFT_TO_RIGHT"
style="stroke:black;stroke-width:1.000000;stroke-opacity:0" />


<ellipse
rx="4.400000"
ry="4.400000"
cx="722.825793"
cy="604.608598"
id="Protein_c8a5554ca36dfe19e03c05bb0ee3a44d--to--BiochemicalReaction_e6cdd710ec2e8fa952c62399842d59e5_LEFT_TO_RIGHT"
style="fill:white;fill-opacity:0.800000;stroke:black;stroke-width:1.000000;stroke-opacity:1.000000" />


<path d="M642.000000 731.000000 C 634.000000 711.000000, 622.000000 677.000000,616.000000 661.000000" stroke="black"  fill="transparent"/>

<line
x1="634" y1="711" x2="642" y2="731"
id="0"
style="stroke:black;stroke-width:1.000000;stroke-opacity:0" />


<line
x1="622" y1="677" x2="616" y2="661"
id="Protein_6c3e93aeea1d8a3d98ce36d43ce3795c--to--BiochemicalReaction_d28893cb42828e1d254bed91fecf0dcd_LEFT_TO_RIGHT-input"
style="stroke:black;stroke-width:1.000000;stroke-opacity:0" />


<path d="M538.000000 433.000000 C 558.000000 445.000000, 584.000000 459.000000,597.000000 467.000000" stroke="black"  fill="transparent"/>

<line
x1="584" y1="459" x2="597" y2="467"
id="0"
style="stroke:black;stroke-width:1.000000;stroke-opacity:0" />


<line
x1="558" y1="445" x2="538" y2="433"
id="BiochemicalReaction_5f9394b3cd2f5ca5d3fc8723523fda8b_LEFT_TO_RIGHT-output--to--Protein_f61a1f0428ffa2165c1a00ef7711be1d"
style="stroke:black;stroke-width:1.000000;stroke-opacity:0" />


<polygon
points = "538,433 529.2,428.6 529.2,437.4"
id="line"
style="fill:black; stroke:#000000; stroke-width:1"
transform = "rotate(210.963757 538.000000 433.000000)"
/>


<path d="M562.000000 704.000000 C 567.000000 717.000000, 573.000000 736.000000,577.000000 746.000000" stroke="black"  fill="transparent"/>

<line
x1="567" y1="717" x2="562" y2="704"
id="0"
style="stroke:black;stroke-width:1.000000;stroke-opacity:0" />


<line
x1="573" y1="736" x2="577" y2="746"
id="SmallMolecule_c06006b95f84cab52e8e1ff7f7331b88--to--BiochemicalReaction_fb9769e035b71eacc26e851e161a0a7e_LEFT_TO_RIGHT-input"
style="stroke:black;stroke-width:1.000000;stroke-opacity:0" />


<path d="M557.000000 671.000000 C 559.000000 649.000000, 561.000000 611.000000,561.000000 595.000000" stroke="black"  fill="transparent"/>

<line
x1="559" y1="649" x2="557" y2="671"
id="0"
style="stroke:black;stroke-width:1.000000;stroke-opacity:0" />


<line
x1="561" y1="611" x2="561" y2="595"
id="SmallMolecule_c06006b95f84cab52e8e1ff7f7331b88--to--BiochemicalReaction_087f946e0629ce6454719fa5f1170553_LEFT_TO_RIGHT-input"
style="stroke:black;stroke-width:1.000000;stroke-opacity:0" />


<path d="M483.000000 263.000000 C 490.000000 281.000000, 501.000000 308.000000,506.000000 322.000000" stroke="black"  fill="transparent"/>

<line
x1="501" y1="308" x2="506" y2="322"
id="0"
style="stroke:black;stroke-width:1.000000;stroke-opacity:0" />


<line
x1="490" y1="281" x2="483" y2="263"
id="BiochemicalReaction_3d498648b4ec075e650dea624c09898a_LEFT_TO_RIGHT-output--to--Protein_c336d86e53738deecd8fcfaabee630de"
style="stroke:black;stroke-width:1.000000;stroke-opacity:0" />


<polygon
points = "483,263 474.2,258.6 474.2,267.4"
id="line"
style="fill:black; stroke:#000000; stroke-width:1"
transform = "rotate(248.749494 483.000000 263.000000)"
/>


<path d="M525.000000 660.000000 C 548.000000 658.000000, 588.000000 655.000000,605.000000 653.000000" stroke="black"  fill="transparent"/>

<line
x1="588" y1="655" x2="605" y2="653"
id="0"
style="stroke:black;stroke-width:1.000000;stroke-opacity:0" />


<line
x1="548" y1="658" x2="525" y2="660"
id="BiochemicalReaction_d28893cb42828e1d254bed91fecf0dcd_LEFT_TO_RIGHT-output--to--SmallMolecule_a76d15fbd1091924cc282d744850a1ce"
style="stroke:black;stroke-width:1.000000;stroke-opacity:0" />


<polygon
points = "525,660 516.2,655.6 516.2,664.4"
id="line"
style="fill:black; stroke:#000000; stroke-width:1"
transform = "rotate(175.030259 525.000000 660.000000)"
/>


<path d="M410.000000 396.000000 C 411.000000 416.000000, 413.000000 447.000000,414.000000 462.000000" stroke="black"  fill="transparent"/>

<line
x1="411" y1="416" x2="410" y2="396"
id="0"
style="stroke:black;stroke-width:1.000000;stroke-opacity:0" />


<line
x1="413" y1="447" x2="414" y2="462"
id="Protein_5a653e9fa7f6245ab463fc950a957c86--to--BiochemicalReaction_4c8a7446aaef93edeea3da2a43148475_LEFT_TO_RIGHT-input"
style="stroke:black;stroke-width:1.000000;stroke-opacity:0" />


<path d="M296.000000 438.000000 C 283.000000 451.000000, 266.000000 468.000000,256.000000 479.000000" stroke="black"  fill="transparent"/>

<line
x1="283" y1="451" x2="296" y2="438"
id="0"
style="stroke:black;stroke-width:1.000000;stroke-opacity:0" />


<line
x1="266" y1="468" x2="256" y2="479"
id="Protein_11415f9f35501995b6ebf57b3ec5b16e--to--ComplexAssembly_0edb87fe10b0824b86f941fd1dd54375_LEFT_TO_RIGHT-input"
style="stroke:black;stroke-width:1.000000;stroke-opacity:0" />


<path d="M518.000000 678.000000 C 523.000000 687.000000, 530.000000 698.000000,537.000000 707.000000" stroke="black"  fill="transparent"/>
<path d="M537.000000 707.000000 C 548.000000 722.000000, 562.000000 737.000000,572.000000 747.000000" stroke="black"  fill="transparent"/>

<line
x1="562" y1="737" x2="572" y2="747"
id="0"
style="stroke:black;stroke-width:1.000000;stroke-opacity:0" />


<line
x1="523" y1="687" x2="518" y2="678"
id="BiochemicalReaction_fb9769e035b71eacc26e851e161a0a7e_LEFT_TO_RIGHT-output--to--SmallMolecule_a76d15fbd1091924cc282d744850a1ce"
style="stroke:black;stroke-width:1.000000;stroke-opacity:0" />


<polygon
points = "518,678 509.2,673.6 509.2,682.4"
id="line"
style="fill:black; stroke:#000000; stroke-width:1"
transform = "rotate(240.945396 518.000000 678.000000)"
/>


<path d="M509.000000 400.000000 C 509.000000 382.000000, 509.000000 354.000000,509.000000 340.000000" stroke="black"  fill="transparent"/>

<line
x1="509" y1="382" x2="509" y2="400"
id="0"
style="stroke:black;stroke-width:1.000000;stroke-opacity:0" />


<line
x1="509" y1="354" x2="509" y2="340"
id="Protein_f61a1f0428ffa2165c1a00ef7711be1d--to--BiochemicalReaction_3d498648b4ec075e650dea624c09898a_LEFT_TO_RIGHT"
style="stroke:black;stroke-width:1.000000;stroke-opacity:0" />


<ellipse
rx="4.400000"
ry="4.400000"
cx="509.000000"
cy="344.400000"
id="Protein_f61a1f0428ffa2165c1a00ef7711be1d--to--BiochemicalReaction_3d498648b4ec075e650dea624c09898a_LEFT_TO_RIGHT"
style="fill:white;fill-opacity:0.800000;stroke:black;stroke-width:1.000000;stroke-opacity:1.000000" />


<path d="M533.000000 521.000000 C 541.000000 538.000000, 552.000000 564.000000,558.000000 577.000000" stroke="black"  fill="transparent"/>

<line
x1="541" y1="538" x2="533" y2="521"
id="0"
style="stroke:black;stroke-width:1.000000;stroke-opacity:0" />


<line
x1="552" y1="564" x2="558" y2="577"
id="Protein_3aaf579bf2aa319e82a71ae184418fd0--to--BiochemicalReaction_087f946e0629ce6454719fa5f1170553_LEFT_TO_RIGHT-input"
style="stroke:black;stroke-width:1.000000;stroke-opacity:0" />


<path d="M478.000000 566.000000 C 503.000000 572.000000, 538.000000 580.000000,553.000000 584.000000" stroke="black"  fill="transparent"/>

<line
x1="538" y1="580" x2="553" y2="584"
id="0"
style="stroke:black;stroke-width:1.000000;stroke-opacity:0" />


<line
x1="503" y1="572" x2="478" y2="566"
id="BiochemicalReaction_087f946e0629ce6454719fa5f1170553_LEFT_TO_RIGHT-output--to--Protein_61b095a7d0bf12cbb58e66507a07d26e"
style="stroke:black;stroke-width:1.000000;stroke-opacity:0" />


<polygon
points = "478,566 469.2,561.6 469.2,570.4"
id="line"
style="fill:black; stroke:#000000; stroke-width:1"
transform = "rotate(193.495733 478.000000 566.000000)"
/>


<path d="M341.000000 436.000000 C 363.000000 446.000000, 392.000000 460.000000,406.000000 467.000000" stroke="black"  fill="transparent"/>

<line
x1="392" y1="460" x2="406" y2="467"
id="0"
style="stroke:black;stroke-width:1.000000;stroke-opacity:0" />


<line
x1="363" y1="446" x2="341" y2="436"
id="BiochemicalReaction_4c8a7446aaef93edeea3da2a43148475_LEFT_TO_RIGHT-output--to--Protein_11415f9f35501995b6ebf57b3ec5b16e"
style="stroke:black;stroke-width:1.000000;stroke-opacity:0" />


<polygon
points = "341,436 332.2,431.6 332.2,440.4"
id="line"
style="fill:black; stroke:#000000; stroke-width:1"
transform = "rotate(204.443955 341.000000 436.000000)"
/>


<path d="M306.000000 512.000000 C 289.000000 505.000000, 268.000000 496.000000,256.000000 491.000000" stroke="black"  fill="transparent"/>

<line
x1="289" y1="505" x2="306" y2="512"
id="0"
style="stroke:black;stroke-width:1.000000;stroke-opacity:0" />


<line
x1="268" y1="496" x2="256" y2="491"
id="Protein_2abc28f9f4350a292d7667fb1e3b7668--to--ComplexAssembly_0edb87fe10b0824b86f941fd1dd54375_LEFT_TO_RIGHT-input"
style="stroke:black;stroke-width:1.000000;stroke-opacity:0" />


<path d="M803.000000 630.000000 C 783.000000 624.000000, 758.000000 616.000000,745.000000 612.000000" stroke="black"  fill="transparent"/>

<line
x1="758" y1="616" x2="745" y2="612"
id="0"
style="stroke:black;stroke-width:1.000000;stroke-opacity:0" />


<line
x1="783" y1="624" x2="803" y2="630"
id="BiochemicalReaction_e6cdd710ec2e8fa952c62399842d59e5_LEFT_TO_RIGHT-output--to--Protein_337073c894a76fabae7c6ba74d967145"
style="stroke:black;stroke-width:1.000000;stroke-opacity:0" />


<polygon
points = "803,630 794.2,625.6 794.2,634.4"
id="line"
style="fill:black; stroke:#000000; stroke-width:1"
transform = "rotate(16.699244 803.000000 630.000000)"
/>


<path d="M773.000000 448.000000 C 782.000000 443.000000, 790.000000 438.000000,796.000000 435.000000" stroke="black"  fill="transparent"/>

<line
x1="790" y1="438" x2="796" y2="435"
id="0"
style="stroke:black;stroke-width:1.000000;stroke-opacity:0" />


<line
x1="782" y1="443" x2="773" y2="448"
id="ComplexAssembly_0c5d14f3a5aaea95487ba89ff1752494_LEFT_TO_RIGHT-output--to--Complex_e18f4b48f85a97157716549f4b569ec4"
style="stroke:black;stroke-width:1.000000;stroke-opacity:0" />


<polygon
points = "773,448 764.2,443.6 764.2,452.4"
id="line"
style="fill:black; stroke:#000000; stroke-width:1"
transform = "rotate(150.945396 773.000000 448.000000)"
/>


<path d="M405.000000 761.000000 C 429.000000 757.000000, 461.000000 751.000000,476.000000 748.000000" stroke="black"  fill="transparent"/>

<line
x1="429" y1="757" x2="405" y2="761"
id="0"
style="stroke:black;stroke-width:1.000000;stroke-opacity:0" />


<line
x1="461" y1="751" x2="476" y2="748"
id="Protein_1f785dea9213dafda53e50e637dd3a2d--to--BiochemicalReaction_08db300d2ee7d88e6447993c69ea886f_LEFT_TO_RIGHT"
style="stroke:black;stroke-width:1.000000;stroke-opacity:0" />


<ellipse
rx="4.400000"
ry="4.400000"
cx="471.685445"
cy="748.862911"
id="Protein_1f785dea9213dafda53e50e637dd3a2d--to--BiochemicalReaction_08db300d2ee7d88e6447993c69ea886f_LEFT_TO_RIGHT"
style="fill:white;fill-opacity:0.800000;stroke:black;stroke-width:1.000000;stroke-opacity:1.000000" />


<path d="M625.000000 592.000000 C 622.000000 608.000000, 617.000000 631.000000,615.000000 644.000000" stroke="black"  fill="transparent"/>

<line
x1="617" y1="631" x2="615" y2="644"
id="0"
style="stroke:black;stroke-width:1.000000;stroke-opacity:0" />


<line
x1="622" y1="608" x2="625" y2="592"
id="BiochemicalReaction_d28893cb42828e1d254bed91fecf0dcd_LEFT_TO_RIGHT-output--to--Protein_c8a5554ca36dfe19e03c05bb0ee3a44d"
style="stroke:black;stroke-width:1.000000;stroke-opacity:0" />


<polygon
points = "625,592 616.2,587.6 616.2,596.4"
id="line"
style="fill:black; stroke:#000000; stroke-width:1"
transform = "rotate(-79.380345 625.000000 592.000000)"
/>


<path d="M316.000000 637.000000 C 312.000000 654.000000, 306.000000 681.000000,303.000000 695.000000" stroke="black"  fill="transparent"/>

<line
x1="312" y1="654" x2="316" y2="637"
id="0"
style="stroke:black;stroke-width:1.000000;stroke-opacity:0" />


<line
x1="306" y1="681" x2="303" y2="695"
id="Protein_af77e6c91258997eb5bf5e0bb4ad6f5f--to--BiochemicalReaction_8cf0cb353e7b7cf9506d62f18a9e3ed3_LEFT_TO_RIGHT-input"
style="stroke:black;stroke-width:1.000000;stroke-opacity:0" />


<path d="M632.000000 809.000000 C 618.000000 795.000000, 599.000000 775.000000,588.000000 764.000000" stroke="black"  fill="transparent"/>

<line
x1="618" y1="795" x2="632" y2="809"
id="0"
style="stroke:black;stroke-width:1.000000;stroke-opacity:0" />


<line
x1="599" y1="775" x2="588" y2="764"
id="Protein_9856d0eb0665268656ecc12f189b49e8--to--BiochemicalReaction_fb9769e035b71eacc26e851e161a0a7e_LEFT_TO_RIGHT-input"
style="stroke:black;stroke-width:1.000000;stroke-opacity:0" />


<path d="M504.000000 678.000000 C 499.000000 696.000000, 491.000000 724.000000,487.000000 738.000000" stroke="black"  fill="transparent"/>

<line
x1="491" y1="724" x2="487" y2="738"
id="0"
style="stroke:black;stroke-width:1.000000;stroke-opacity:0" />


<line
x1="499" y1="696" x2="504" y2="678"
id="BiochemicalReaction_08db300d2ee7d88e6447993c69ea886f_LEFT_TO_RIGHT-output--to--SmallMolecule_a76d15fbd1091924cc282d744850a1ce"
style="stroke:black;stroke-width:1.000000;stroke-opacity:0" />


<polygon
points = "504,678 495.2,673.6 495.2,682.4"
id="line"
style="fill:black; stroke:#000000; stroke-width:1"
transform = "rotate(-74.475889 504.000000 678.000000)"
/>



</svg>
