<?xml version="1.0" encoding="UTF-8"?>
<svg width="882.566665" height="715.524926"
xmlns="http://www.w3.org/2000/svg" xmlns:svg="http://www.w3.org/2000/svg"
>
<metadata id="metadata7">image/svg+xml</metadata>




<rect
width="16.666667"
height="16.666667"
rx="0.000000"
ry="0.000000"
x="401.772750"
y="281.902797"
id="BiochemicalReaction_9f37a28e10428a6188ae94bc8af776c6_LEFT_TO_RIGHT"
style="fill:white;fill-opacity:0.600000;stroke:black;stroke-width:1.000000;stroke-opacity:1.000000" />




<ellipse
rx="16.666667"
ry="16.666667"
cx="328.857192"
cy="268.442961"
id="SmallMolecule_0db4df0d8ff93222bae0a2ae2d7b54f9"
style="fill:white;fill-opacity:0.000000;stroke:black;stroke-width:1.000000;stroke-opacity:1.000000" />


<text
x="328.857192"
y="270.442961"
id="SmallMolecule_0db4df0d8ff93222bae0a2ae2d7b54f9"
style="font-size:6.000000px;text-anchor:middle;font-family:Arial,Helvetica;alignment-baseline:baseline;stroke.opacity:1;dominant-baseline:baseline"
fill="black"
>
glutamate</text>



<ellipse
rx="16.666667"
ry="16.666667"
cx="406.149610"
cy="375.069664"
id="SmallMolecule_7c646e47fcf7743211f31a95a9be981b"
style="fill:white;fill-opacity:0.000000;stroke:black;stroke-width:1.000000;stroke-opacity:1.000000" />


<text
x="406.149610"
y="377.069664"
id="SmallMolecule_7c646e47fcf7743211f31a95a9be981b"
style="font-size:6.000000px;text-anchor:middle;font-family:Arial,Helvetica;alignment-baseline:baseline;stroke.opacity:1;dominant-baseline:baseline"
fill="black"
>
PPi</text>



<ellipse
rx="16.666667"
ry="16.666667"
cx="289.495330"
cy="368.055193"
id="SmallMolecule_9cdaa4c6a2c966de16193d398f682879"
style="fill:white;fill-opacity:0.000000;stroke:black;stroke-width:1.000000;stroke-opacity:1.000000" />


<text
x="289.495330"
y="370.055193"
id="SmallMolecule_9cdaa4c6a2c966de16193d398f682879"
style="font-size:6.000000px;text-anchor:middle;font-family:Arial,Helvetica;alignment-baseline:baseline;stroke.opacity:1;dominant-baseline:baseline"
fill="black"
>
Aspartate</text>



<rect
width="58.333333"
height="33.333333"
rx="3.333333"
ry="3.333333"
x="494.233331"
y="242.781574"
id="Protein_4bf7a1d032ede5868d611a5f194a27e6"
style="fill:white;fill-opacity:1.000000;stroke:black;stroke-width:1.000000;stroke-opacity:1.000000" />


<text
x="523.399998"
y="261.448241"
id="Protein_4bf7a1d032ede5868d611a5f194a27e6"
style="font-size:6.000000px;text-anchor:middle;font-family:Arial,Helvetica;alignment-baseline:baseline;stroke.opacity:1;dominant-baseline:baseline"
fill="black"
>
Asparagine synthetase</text>



<rect
width="58.333333"
height="33.333333"
rx="3.333333"
ry="3.333333"
x="100.000000"
y="316.324674"
id="Protein_62fea046603a48090f878cba27b3dfef"
style="fill:white;fill-opacity:1.000000;stroke:black;stroke-width:1.000000;stroke-opacity:1.000000" />



<text
x="129.166667"
y="331.991341"
id="Protein_62fea046603a48090f878cba27b3dfef"
style="font-size:6.000000px;text-anchor:middle;font-family:Arial,Helvetica;alignment-baseline:baseline;stroke.opacity:1;dominant-baseline:baseline"
fill="black"
>
Aspartate aminotran-</text>


<text
x="129.166667"
y="337.991341"
id="Protein_62fea046603a48090f878cba27b3dfef"
style="font-size:6.000000px;text-anchor:middle;font-family:Arial,Helvetica;alignment-baseline:baseline;stroke.opacity:1;dominant-baseline:baseline"
fill="black"
>
sferase</text>



<ellipse
rx="16.666667"
ry="16.666667"
cx="151.860264"
cy="249.429030"
id="SmallMolecule_2212da7ff3931281356f18606f2a1651"
style="fill:white;fill-opacity:0.000000;stroke:black;stroke-width:1.000000;stroke-opacity:1.000000" />


<text
x="151.860264"
y="251.429030"
id="SmallMolecule_2212da7ff3931281356f18606f2a1651"
style="font-size:6.000000px;text-anchor:middle;font-family:Arial,Helvetica;alignment-baseline:baseline;stroke.opacity:1;dominant-baseline:baseline"
fill="black"
>
oxaloacetate</text>



<ellipse
rx="16.666667"
ry="16.666667"
cx="213.704219"
cy="166.666667"
id="SmallMolecule_4b630fc939e0fc0192902d1c0bc39e6d"
style="fill:white;fill-opacity:0.000000;stroke:black;stroke-width:1.000000;stroke-opacity:1.000000" />


<text
x="213.704219"
y="168.666667"
id="SmallMolecule_4b630fc939e0fc0192902d1c0bc39e6d"
style="font-size:6.000000px;text-anchor:middle;font-family:Arial,Helvetica;alignment-baseline:baseline;stroke.opacity:1;dominant-baseline:baseline"
fill="black"
>
2-Oxoglutarate</text>



<ellipse
rx="16.666667"
ry="16.666667"
cx="443.981875"
cy="208.000141"
id="SmallMolecule_dff7a5252e99731a889e05223bceee9f"
style="fill:white;fill-opacity:0.000000;stroke:black;stroke-width:1.000000;stroke-opacity:1.000000" />


<text
x="443.981875"
y="210.000141"
id="SmallMolecule_dff7a5252e99731a889e05223bceee9f"
style="font-size:6.000000px;text-anchor:middle;font-family:Arial,Helvetica;alignment-baseline:baseline;stroke.opacity:1;dominant-baseline:baseline"
fill="black"
>
H2O</text>



<ellipse
rx="16.666667"
ry="16.666667"
cx="369.787142"
cy="202.114129"
id="SmallMolecule_6b667c13809c8a69a3ea862004aea2e6"
style="fill:white;fill-opacity:0.000000;stroke:black;stroke-width:1.000000;stroke-opacity:1.000000" />


<text
x="369.787142"
y="204.114129"
id="SmallMolecule_6b667c13809c8a69a3ea862004aea2e6"
style="font-size:6.000000px;text-anchor:middle;font-family:Arial,Helvetica;alignment-baseline:baseline;stroke.opacity:1;dominant-baseline:baseline"
fill="black"
>
glutamine</text>


<rect
width="16.666667"
height="16.666667"
rx="0.000000"
ry="0.000000"
x="368.785067"
y="405.591385"
id="BiochemicalReaction_6e1a8fc0f1ca8808b30257bff53b73ba_LEFT_TO_RIGHT"
style="fill:white;fill-opacity:0.600000;stroke:black;stroke-width:1.000000;stroke-opacity:1.000000" />




<rect
width="58.333333"
height="33.333333"
rx="3.333333"
ry="3.333333"
x="369.679592"
y="482.191593"
id="Protein_d13e7fb8e5e42ffe499a6ddd08ab84bd"
style="fill:white;fill-opacity:1.000000;stroke:black;stroke-width:1.000000;stroke-opacity:1.000000" />



<text
x="398.846259"
y="497.858260"
id="Protein_d13e7fb8e5e42ffe499a6ddd08ab84bd"
style="font-size:6.000000px;text-anchor:middle;font-family:Arial,Helvetica;alignment-baseline:baseline;stroke.opacity:1;dominant-baseline:baseline"
fill="black"
>
Aspartate Asparagin-</text>


<text
x="398.846259"
y="503.858260"
id="Protein_d13e7fb8e5e42ffe499a6ddd08ab84bd"
style="font-size:6.000000px;text-anchor:middle;font-family:Arial,Helvetica;alignment-baseline:baseline;stroke.opacity:1;dominant-baseline:baseline"
fill="black"
>
e-lyase</text>



<ellipse
rx="16.666667"
ry="16.666667"
cx="463.731808"
cy="403.589184"
id="SmallMolecule_6a6198efd7e07feb02ba8e83b744f5f5"
style="fill:white;fill-opacity:0.000000;stroke:black;stroke-width:1.000000;stroke-opacity:1.000000" />


<text
x="463.731808"
y="405.589184"
id="SmallMolecule_6a6198efd7e07feb02ba8e83b744f5f5"
style="font-size:6.000000px;text-anchor:middle;font-family:Arial,Helvetica;alignment-baseline:baseline;stroke.opacity:1;dominant-baseline:baseline"
fill="black"
>
asparagine</text>



<ellipse
rx="16.666667"
ry="16.666667"
cx="380.059334"
cy="252.074249"
id="SmallMolecule_ffac04d5ccc3af6b1569f1fb5f38bef3"
style="fill:white;fill-opacity:0.000000;stroke:black;stroke-width:1.000000;stroke-opacity:1.000000" />


<text
x="380.059334"
y="254.074249"
id="SmallMolecule_ffac04d5ccc3af6b1569f1fb5f38bef3"
style="font-size:6.000000px;text-anchor:middle;font-family:Arial,Helvetica;alignment-baseline:baseline;stroke.opacity:1;dominant-baseline:baseline"
fill="black"
>
AMP</text>


<rect
width="16.666667"
height="16.666667"
rx="0.000000"
ry="0.000000"
x="220.488866"
y="286.596356"
id="BiochemicalReaction_8406fda6a8b443583aac808e71f713ad_LEFT_TO_RIGHT"
style="fill:white;fill-opacity:0.600000;stroke:black;stroke-width:1.000000;stroke-opacity:1.000000" />




<ellipse
rx="16.666667"
ry="16.666667"
cx="474.883178"
cy="332.131437"
id="SmallMolecule_067280b8b822ca79f313ec8eebae1ca8"
style="fill:white;fill-opacity:0.000000;stroke:black;stroke-width:1.000000;stroke-opacity:1.000000" />


<text
x="474.883178"
y="334.131437"
id="SmallMolecule_067280b8b822ca79f313ec8eebae1ca8"
style="font-size:6.000000px;text-anchor:middle;font-family:Arial,Helvetica;alignment-baseline:baseline;stroke.opacity:1;dominant-baseline:baseline"
fill="black"
>
ATP</text>



<ellipse
rx="16.666667"
ry="16.666667"
cx="297.700433"
cy="451.241811"
id="SmallMolecule_09ba22bf3f6a670f1f975e2cf976df0f"
style="fill:white;fill-opacity:0.000000;stroke:black;stroke-width:1.000000;stroke-opacity:1.000000" />


<text
x="297.700433"
y="453.241811"
id="SmallMolecule_09ba22bf3f6a670f1f975e2cf976df0f"
style="font-size:6.000000px;text-anchor:middle;font-family:Arial,Helvetica;alignment-baseline:baseline;stroke.opacity:1;dominant-baseline:baseline"
fill="black"
>
NH3</text>




<path d="M168.000000 259.000000 C 184.000000 268.000000, 207.000000 282.000000,220.000000 289.000000" stroke="black"  fill="transparent"/>

<line
x1="184" y1="268" x2="168" y2="259"
id="0"
style="stroke:black;stroke-width:1.000000;stroke-opacity:0" />


<line
x1="207" y1="282" x2="220" y2="289"
id="SmallMolecule_2212da7ff3931281356f18606f2a1651--to--BiochemicalReaction_8406fda6a8b443583aac808e71f713ad_LEFT_TO_RIGHT-input"
style="stroke:black;stroke-width:1.000000;stroke-opacity:0" />


<path d="M368.000000 417.000000 C 355.000000 423.000000, 331.000000 435.000000,314.000000 443.000000" stroke="black"  fill="transparent"/>

<line
x1="331" y1="435" x2="314" y2="443"
id="0"
style="stroke:black;stroke-width:1.000000;stroke-opacity:0" />


<line
x1="355" y1="423" x2="368" y2="417"
id="SmallMolecule_09ba22bf3f6a670f1f975e2cf976df0f--to--BiochemicalReaction_6e1a8fc0f1ca8808b30257bff53b73ba_LEFT_TO_RIGHT-input"
style="stroke:black;stroke-width:1.000000;stroke-opacity:0" />


<path d="M312.000000 272.000000 C 290.000000 278.000000, 253.000000 288.000000,237.000000 292.000000" stroke="black"  fill="transparent"/>

<line
x1="290" y1="278" x2="312" y2="272"
id="0"
style="stroke:black;stroke-width:1.000000;stroke-opacity:0" />


<line
x1="253" y1="288" x2="237" y2="292"
id="SmallMolecule_0db4df0d8ff93222bae0a2ae2d7b54f9--to--BiochemicalReaction_8406fda6a8b443583aac808e71f713ad_LEFT_TO_RIGHT-input"
style="stroke:black;stroke-width:1.000000;stroke-opacity:0" />


<path d="M385.000000 412.000000 C 396.000000 409.000000, 413.000000 404.000000,425.000000 394.000000" stroke="black"  fill="transparent"/>
<path d="M425.000000 394.000000 C 442.000000 382.000000, 456.000000 362.000000,465.000000 348.000000" stroke="black"  fill="transparent"/>

<line
x1="456" y1="362" x2="465" y2="348"
id="0"
style="stroke:black;stroke-width:1.000000;stroke-opacity:0" />


<line
x1="396" y1="409" x2="385" y2="412"
id="SmallMolecule_067280b8b822ca79f313ec8eebae1ca8--to--BiochemicalReaction_6e1a8fc0f1ca8808b30257bff53b73ba_LEFT_TO_RIGHT-input"
style="stroke:black;stroke-width:1.000000;stroke-opacity:0" />


<path d="M413.000000 281.000000 C 419.000000 267.000000, 430.000000 241.000000,437.000000 224.000000" stroke="black"  fill="transparent"/>

<line
x1="430" y1="241" x2="437" y2="224"
id="0"
style="stroke:black;stroke-width:1.000000;stroke-opacity:0" />


<line
x1="419" y1="267" x2="413" y2="281"
id="SmallMolecule_dff7a5252e99731a889e05223bceee9f--to--BiochemicalReaction_9f37a28e10428a6188ae94bc8af776c6_LEFT_TO_RIGHT-input"
style="stroke:black;stroke-width:1.000000;stroke-opacity:0" />


<path d="M418.000000 287.000000 C 434.000000 283.000000, 469.000000 274.000000,494.000000 267.000000" stroke="black"  fill="transparent"/>

<line
x1="469" y1="274" x2="494" y2="267"
id="0"
style="stroke:black;stroke-width:1.000000;stroke-opacity:0" />


<line
x1="434" y1="283" x2="418" y2="287"
id="Protein_4bf7a1d032ede5868d611a5f194a27e6--to--BiochemicalReaction_9f37a28e10428a6188ae94bc8af776c6_LEFT_TO_RIGHT"
style="stroke:black;stroke-width:1.000000;stroke-opacity:0" />


<ellipse
rx="4.400000"
ry="4.400000"
cx="422.268627"
cy="285.932843"
id="Protein_4bf7a1d032ede5868d611a5f194a27e6--to--BiochemicalReaction_9f37a28e10428a6188ae94bc8af776c6_LEFT_TO_RIGHT"
style="fill:white;fill-opacity:0.800000;stroke:black;stroke-width:1.000000;stroke-opacity:1.000000" />


<path d="M409.000000 298.000000 C 409.000000 312.000000, 407.000000 340.000000,406.000000 358.000000" stroke="black"  fill="transparent"/>

<line
x1="409" y1="312" x2="409" y2="298"
id="0"
style="stroke:black;stroke-width:1.000000;stroke-opacity:0" />


<line
x1="407" y1="340" x2="406" y2="358"
id="BiochemicalReaction_9f37a28e10428a6188ae94bc8af776c6_LEFT_TO_RIGHT-output--to--SmallMolecule_7c646e47fcf7743211f31a95a9be981b"
style="stroke:black;stroke-width:1.000000;stroke-opacity:0" />


<polygon
points = "406,358 397.2,353.6 397.2,362.4"
id="line"
style="fill:black; stroke:#000000; stroke-width:1"
transform = "rotate(93.179830 406.000000 358.000000)"
/>


<path d="M401.000000 287.000000 C 388.000000 284.000000, 362.000000 277.000000,345.000000 272.000000" stroke="black"  fill="transparent"/>

<line
x1="388" y1="284" x2="401" y2="287"
id="0"
style="stroke:black;stroke-width:1.000000;stroke-opacity:0" />


<line
x1="362" y1="277" x2="345" y2="272"
id="BiochemicalReaction_9f37a28e10428a6188ae94bc8af776c6_LEFT_TO_RIGHT-output--to--SmallMolecule_0db4df0d8ff93222bae0a2ae2d7b54f9"
style="stroke:black;stroke-width:1.000000;stroke-opacity:0" />


<polygon
points = "345,272 336.2,267.6 336.2,276.4"
id="line"
style="fill:black; stroke:#000000; stroke-width:1"
transform = "rotate(196.389540 345.000000 272.000000)"
/>


<path d="M379.000000 422.000000 C 382.000000 436.000000, 389.000000 464.000000,394.000000 482.000000" stroke="black"  fill="transparent"/>

<line
x1="389" y1="464" x2="394" y2="482"
id="0"
style="stroke:black;stroke-width:1.000000;stroke-opacity:0" />


<line
x1="382" y1="436" x2="379" y2="422"
id="Protein_d13e7fb8e5e42ffe499a6ddd08ab84bd--to--BiochemicalReaction_6e1a8fc0f1ca8808b30257bff53b73ba_LEFT_TO_RIGHT"
style="stroke:black;stroke-width:1.000000;stroke-opacity:0" />


<ellipse
rx="4.400000"
ry="4.400000"
cx="379.921928"
cy="426.302331"
id="Protein_d13e7fb8e5e42ffe499a6ddd08ab84bd--to--BiochemicalReaction_6e1a8fc0f1ca8808b30257bff53b73ba_LEFT_TO_RIGHT"
style="fill:white;fill-opacity:0.800000;stroke:black;stroke-width:1.000000;stroke-opacity:1.000000" />


<path d="M410.000000 281.000000 C 409.000000 269.000000, 408.000000 248.000000,399.000000 232.000000" stroke="black"  fill="transparent"/>
<path d="M399.000000 232.000000 C 396.000000 226.000000, 391.000000 220.000000,386.000000 215.000000" stroke="black"  fill="transparent"/>

<line
x1="391" y1="220" x2="386" y2="215"
id="0"
style="stroke:black;stroke-width:1.000000;stroke-opacity:0" />


<line
x1="409" y1="269" x2="410" y2="281"
id="SmallMolecule_6b667c13809c8a69a3ea862004aea2e6--to--BiochemicalReaction_9f37a28e10428a6188ae94bc8af776c6_LEFT_TO_RIGHT-input"
style="stroke:black;stroke-width:1.000000;stroke-opacity:0" />


<path d="M385.000000 412.000000 C 399.000000 411.000000, 428.000000 407.000000,447.000000 405.000000" stroke="black"  fill="transparent"/>

<line
x1="399" y1="411" x2="385" y2="412"
id="0"
style="stroke:black;stroke-width:1.000000;stroke-opacity:0" />


<line
x1="428" y1="407" x2="447" y2="405"
id="BiochemicalReaction_6e1a8fc0f1ca8808b30257bff53b73ba_LEFT_TO_RIGHT-output--to--SmallMolecule_6a6198efd7e07feb02ba8e83b744f5f5"
style="stroke:black;stroke-width:1.000000;stroke-opacity:0" />


<polygon
points = "447,405 438.2,400.6 438.2,409.4"
id="line"
style="fill:black; stroke:#000000; stroke-width:1"
transform = "rotate(-6.009006 447.000000 405.000000)"
/>


<path d="M377.000000 405.000000 C 377.000000 379.000000, 379.000000 302.000000,379.000000 268.000000" stroke="black"  fill="transparent"/>

<line
x1="377" y1="379" x2="377" y2="405"
id="0"
style="stroke:black;stroke-width:1.000000;stroke-opacity:0" />


<line
x1="379" y1="302" x2="379" y2="268"
id="BiochemicalReaction_6e1a8fc0f1ca8808b30257bff53b73ba_LEFT_TO_RIGHT-output--to--SmallMolecule_ffac04d5ccc3af6b1569f1fb5f38bef3"
style="stroke:black;stroke-width:1.000000;stroke-opacity:0" />


<polygon
points = "379,268 370.2,263.6 370.2,272.4"
id="line"
style="fill:black; stroke:#000000; stroke-width:1"
transform = "rotate(270.000000 379.000000 268.000000)"
/>


<path d="M401.000000 295.000000 C 382.000000 308.000000, 332.000000 340.000000,306.000000 357.000000" stroke="black"  fill="transparent"/>

<line
x1="332" y1="340" x2="306" y2="357"
id="0"
style="stroke:black;stroke-width:1.000000;stroke-opacity:0" />


<line
x1="382" y1="308" x2="401" y2="295"
id="SmallMolecule_9cdaa4c6a2c966de16193d398f682879--to--BiochemicalReaction_9f37a28e10428a6188ae94bc8af776c6_LEFT_TO_RIGHT-input"
style="stroke:black;stroke-width:1.000000;stroke-opacity:0" />


<path d="M418.000000 295.000000 C 428.000000 302.000000, 445.000000 313.000000,458.000000 321.000000" stroke="black"  fill="transparent"/>

<line
x1="445" y1="313" x2="458" y2="321"
id="0"
style="stroke:black;stroke-width:1.000000;stroke-opacity:0" />


<line
x1="428" y1="302" x2="418" y2="295"
id="SmallMolecule_067280b8b822ca79f313ec8eebae1ca8--to--BiochemicalReaction_9f37a28e10428a6188ae94bc8af776c6_LEFT_TO_RIGHT-input"
style="stroke:black;stroke-width:1.000000;stroke-opacity:0" />


<path d="M275.000000 351.000000 C 263.000000 336.000000, 245.000000 315.000000,236.000000 303.000000" stroke="black"  fill="transparent"/>

<line
x1="245" y1="315" x2="236" y2="303"
id="0"
style="stroke:black;stroke-width:1.000000;stroke-opacity:0" />


<line
x1="263" y1="336" x2="275" y2="351"
id="BiochemicalReaction_8406fda6a8b443583aac808e71f713ad_LEFT_TO_RIGHT-output--to--SmallMolecule_9cdaa4c6a2c966de16193d398f682879"
style="stroke:black;stroke-width:1.000000;stroke-opacity:0" />


<polygon
points = "275,351 266.2,346.6 266.2,355.4"
id="line"
style="fill:black; stroke:#000000; stroke-width:1"
transform = "rotate(51.340192 275.000000 351.000000)"
/>


<path d="M158.000000 321.000000 C 179.000000 313.000000, 206.000000 303.000000,220.000000 298.000000" stroke="black"  fill="transparent"/>

<line
x1="179" y1="313" x2="158" y2="321"
id="0"
style="stroke:black;stroke-width:1.000000;stroke-opacity:0" />


<line
x1="206" y1="303" x2="220" y2="298"
id="Protein_62fea046603a48090f878cba27b3dfef--to--BiochemicalReaction_8406fda6a8b443583aac808e71f713ad_LEFT_TO_RIGHT"
style="stroke:black;stroke-width:1.000000;stroke-opacity:0" />


<ellipse
rx="4.400000"
ry="4.400000"
cx="215.856336"
cy="299.479880"
id="Protein_62fea046603a48090f878cba27b3dfef--to--BiochemicalReaction_8406fda6a8b443583aac808e71f713ad_LEFT_TO_RIGHT"
style="fill:white;fill-opacity:0.800000;stroke:black;stroke-width:1.000000;stroke-opacity:1.000000" />


<path d="M215.000000 183.000000 C 218.000000 210.000000, 225.000000 265.000000,227.000000 286.000000" stroke="black"  fill="transparent"/>

<line
x1="225" y1="265" x2="227" y2="286"
id="0"
style="stroke:black;stroke-width:1.000000;stroke-opacity:0" />


<line
x1="218" y1="210" x2="215" y2="183"
id="BiochemicalReaction_8406fda6a8b443583aac808e71f713ad_LEFT_TO_RIGHT-output--to--SmallMolecule_4b630fc939e0fc0192902d1c0bc39e6d"
style="stroke:black;stroke-width:1.000000;stroke-opacity:0" />


<polygon
points = "215,183 206.2,178.6 206.2,187.4"
id="line"
style="fill:black; stroke:#000000; stroke-width:1"
transform = "rotate(263.659808 215.000000 183.000000)"
/>


<path d="M393.000000 391.000000 C 390.000000 396.000000, 386.000000 401.000000,383.000000 405.000000" stroke="black"  fill="transparent"/>

<line
x1="386" y1="401" x2="383" y2="405"
id="0"
style="stroke:black;stroke-width:1.000000;stroke-opacity:0" />


<line
x1="390" y1="396" x2="393" y2="391"
id="BiochemicalReaction_6e1a8fc0f1ca8808b30257bff53b73ba_LEFT_TO_RIGHT-output--to--SmallMolecule_7c646e47fcf7743211f31a95a9be981b"
style="stroke:black;stroke-width:1.000000;stroke-opacity:0" />


<polygon
points = "393,391 384.2,386.6 384.2,395.4"
id="line"
style="fill:black; stroke:#000000; stroke-width:1"
transform = "rotate(-59.036243 393.000000 391.000000)"
/>


<path d="M305.000000 376.000000 C 324.000000 386.000000, 354.000000 401.000000,368.000000 409.000000" stroke="black"  fill="transparent"/>

<line
x1="324" y1="386" x2="305" y2="376"
id="0"
style="stroke:black;stroke-width:1.000000;stroke-opacity:0" />


<line
x1="354" y1="401" x2="368" y2="409"
id="SmallMolecule_9cdaa4c6a2c966de16193d398f682879--to--BiochemicalReaction_6e1a8fc0f1ca8808b30257bff53b73ba_LEFT_TO_RIGHT-input"
style="stroke:black;stroke-width:1.000000;stroke-opacity:0" />


<path d="M414.000000 298.000000 C 423.000000 317.000000, 444.000000 362.000000,455.000000 387.000000" stroke="black"  fill="transparent"/>

<line
x1="423" y1="317" x2="414" y2="298"
id="0"
style="stroke:black;stroke-width:1.000000;stroke-opacity:0" />


<line
x1="444" y1="362" x2="455" y2="387"
id="BiochemicalReaction_9f37a28e10428a6188ae94bc8af776c6_LEFT_TO_RIGHT-output--to--SmallMolecule_6a6198efd7e07feb02ba8e83b744f5f5"
style="stroke:black;stroke-width:1.000000;stroke-opacity:0" />


<polygon
points = "455,387 446.2,382.6 446.2,391.4"
id="line"
style="fill:black; stroke:#000000; stroke-width:1"
transform = "rotate(66.250506 455.000000 387.000000)"
/>


<path d="M403.000000 281.000000 C 400.000000 277.000000, 396.000000 273.000000,393.000000 268.000000" stroke="black"  fill="transparent"/>

<line
x1="400" y1="277" x2="403" y2="281"
id="0"
style="stroke:black;stroke-width:1.000000;stroke-opacity:0" />


<line
x1="396" y1="273" x2="393" y2="268"
id="BiochemicalReaction_9f37a28e10428a6188ae94bc8af776c6_LEFT_TO_RIGHT-output--to--SmallMolecule_ffac04d5ccc3af6b1569f1fb5f38bef3"
style="stroke:black;stroke-width:1.000000;stroke-opacity:0" />


<polygon
points = "393,268 384.2,263.6 384.2,272.4"
id="line"
style="fill:black; stroke:#000000; stroke-width:1"
transform = "rotate(239.036243 393.000000 268.000000)"
/>



</svg>
