<?xml version="1.0" encoding="UTF-8"?>
<svg width="1290.017439" height="920.946867"
xmlns="http://www.w3.org/2000/svg" xmlns:svg="http://www.w3.org/2000/svg"
>
<metadata id="metadata7">image/svg+xml</metadata>

<rect
width="508.086062"
height="521.820239"
rx="11.000000"
ry="11.000000"
x="451.931377"
y="199.126628"
id="mitochondrial_outer_membrane"
style="fill:white;fill-opacity:0.900000;stroke:black;stroke-width:5.000000;stroke-opacity:1.000000" />


<text
x="705.974408"
y="191.126628"
id="mitochondrial_outer_membrane"
style="font-size:6.000000px;text-anchor:middle;font-family:Arial,Helvetica;alignment-baseline:baseline;stroke.opacity:1;dominant-baseline:baseline"
fill="black"
>
mitochondrial outer membrane</text>


<rect
width="435.761046"
height="460.200139"
rx="11.000000"
ry="11.000000"
x="100.000000"
y="183.000000"
id="mitochondrial_matrix"
style="fill:white;fill-opacity:0.900000;stroke:black;stroke-width:5.000000;stroke-opacity:1.000000" />


<text
x="317.880523"
y="175.000000"
id="mitochondrial_matrix"
style="font-size:6.000000px;text-anchor:middle;font-family:Arial,Helvetica;alignment-baseline:baseline;stroke.opacity:1;dominant-baseline:baseline"
fill="black"
>
mitochondrial matrix</text>



<path
d="M 111 428.67309849061 111 510.689765157276 116.5 516.189765157276 181.433333333333 516.189765157276 186.933333333333 510.689765157276 186.933333333333 428.67309849061 181.433333333333 423.17309849061 116.5 423.17309849061 Z"
id="Complex_57f62ac787bc40c5d44d721eaeda2de4"
style="fill:white;fill-opacity:0.600000;stroke-width:1;stroke:black;stroke-opacity:1.000000"
transform = "rotate(0.000000 0.000000 0.000000)"
/>


<text
x="148.966667"
y="415.173098"
id="Complex_57f62ac787bc40c5d44d721eaeda2de4"
style="font-size:6.000000px;text-anchor:middle;font-family:Arial,Helvetica;alignment-baseline:baseline;stroke.opacity:1;dominant-baseline:baseline"
fill="black"
>
</text>


<path
d="M 602.193650924704 321.932280702822 602.193650924704 403.948947369489 607.693650924704 409.448947369489 739.710317591371 409.448947369489 745.210317591371 403.948947369489 745.210317591371 321.932280702822 739.710317591371 316.432280702822 607.693650924704 316.432280702822 Z"
id="Complex_94163c462afd16a7d76a6622083a4a5a"
style="fill:white;fill-opacity:0.600000;stroke-width:1;stroke:black;stroke-opacity:1.000000"
transform = "rotate(0.000000 0.000000 0.000000)"
/>


<text
x="673.701984"
y="308.432281"
id="Complex_94163c462afd16a7d76a6622083a4a5a"
style="font-size:6.000000px;text-anchor:middle;font-family:Arial,Helvetica;alignment-baseline:baseline;stroke.opacity:1;dominant-baseline:baseline"
fill="black"
>
Complex (Cyt bc1/UQ UQH2/ FAD FeS)</text>




<ellipse
rx="16.666667"
ry="16.666667"
cx="483.647905"
cy="263.827089"
id="SmallMolecule_b052d8c1dc360a41da90960bf7dd01a9"
style="fill:white;fill-opacity:0.000000;stroke:black;stroke-width:1.000000;stroke-opacity:1.000000" />


<text
x="483.647905"
y="265.827089"
id="SmallMolecule_b052d8c1dc360a41da90960bf7dd01a9"
style="font-size:6.000000px;text-anchor:middle;font-family:Arial,Helvetica;alignment-baseline:baseline;stroke.opacity:1;dominant-baseline:baseline"
fill="black"
>
H+</text>



<ellipse
rx="16.666667"
ry="16.666667"
cx="224.191874"
cy="615.533472"
id="SmallMolecule_3612ffc5a40d25ab187492273d177788"
style="fill:white;fill-opacity:0.000000;stroke:black;stroke-width:1.000000;stroke-opacity:1.000000" />


<text
x="224.191874"
y="617.533472"
id="SmallMolecule_3612ffc5a40d25ab187492273d177788"
style="font-size:6.000000px;text-anchor:middle;font-family:Arial,Helvetica;alignment-baseline:baseline;stroke.opacity:1;dominant-baseline:baseline"
fill="black"
>
H2O</text>



<ellipse
rx="16.666667"
ry="16.666667"
cx="508.094379"
cy="210.666667"
id="SmallMolecule_b512b4174060399835636259616e9481"
style="fill:white;fill-opacity:0.000000;stroke:black;stroke-width:1.000000;stroke-opacity:1.000000" />


<text
x="508.094379"
y="212.666667"
id="SmallMolecule_b512b4174060399835636259616e9481"
style="font-size:6.000000px;text-anchor:middle;font-family:Arial,Helvetica;alignment-baseline:baseline;stroke.opacity:1;dominant-baseline:baseline"
fill="black"
>
Pi-</text>



<ellipse
rx="16.666667"
ry="16.666667"
cx="402.279771"
cy="502.065392"
id="SmallMolecule_4a5372377436d8af8b239b16de0697f5"
style="fill:white;fill-opacity:0.000000;stroke:black;stroke-width:1.000000;stroke-opacity:1.000000" />


<text
x="402.279771"
y="504.065392"
id="SmallMolecule_4a5372377436d8af8b239b16de0697f5"
style="font-size:6.000000px;text-anchor:middle;font-family:Arial,Helvetica;alignment-baseline:baseline;stroke.opacity:1;dominant-baseline:baseline"
fill="black"
>
NAD+</text>



<ellipse
rx="16.666667"
ry="16.666667"
cx="345.381603"
cy="453.375607"
id="SmallMolecule_85a1ee508f7370230526f220c9852215"
style="fill:white;fill-opacity:0.000000;stroke:black;stroke-width:1.000000;stroke-opacity:1.000000" />


<text
x="345.381603"
y="455.375607"
id="SmallMolecule_85a1ee508f7370230526f220c9852215"
style="font-size:6.000000px;text-anchor:middle;font-family:Arial,Helvetica;alignment-baseline:baseline;stroke.opacity:1;dominant-baseline:baseline"
fill="black"
>
NADH</text>



<ellipse
rx="16.666667"
ry="16.666667"
cx="372.463485"
cy="354.603754"
id="SmallMolecule_ae7fbc6230f2ec8a414e363139223a65"
style="fill:white;fill-opacity:0.000000;stroke:black;stroke-width:1.000000;stroke-opacity:1.000000" />


<text
x="372.463485"
y="356.603754"
id="SmallMolecule_ae7fbc6230f2ec8a414e363139223a65"
style="font-size:6.000000px;text-anchor:middle;font-family:Arial,Helvetica;alignment-baseline:baseline;stroke.opacity:1;dominant-baseline:baseline"
fill="black"
>
Succinate</text>



<ellipse
rx="16.666667"
ry="16.666667"
cx="306.585742"
cy="281.638054"
id="SmallMolecule_6fdc331d0ad0760ffdbe05f5995b2369"
style="fill:white;fill-opacity:0.000000;stroke:black;stroke-width:1.000000;stroke-opacity:1.000000" />


<text
x="306.585742"
y="283.638054"
id="SmallMolecule_6fdc331d0ad0760ffdbe05f5995b2369"
style="font-size:6.000000px;text-anchor:middle;font-family:Arial,Helvetica;alignment-baseline:baseline;stroke.opacity:1;dominant-baseline:baseline"
fill="black"
>
Fumarate</text>



<ellipse
rx="16.666667"
ry="16.666667"
cx="391.431293"
cy="211.671727"
id="SmallMolecule_1c98e8f191326f6f1cd657f11cd1b395"
style="fill:white;fill-opacity:0.000000;stroke:black;stroke-width:1.000000;stroke-opacity:1.000000" />


<text
x="391.431293"
y="213.671727"
id="SmallMolecule_1c98e8f191326f6f1cd657f11cd1b395"
style="font-size:6.000000px;text-anchor:middle;font-family:Arial,Helvetica;alignment-baseline:baseline;stroke.opacity:1;dominant-baseline:baseline"
fill="black"
>
ATP3-</text>



<ellipse
rx="16.666667"
ry="16.666667"
cx="158.961873"
cy="615.517034"
id="SmallMolecule_175012447ba7811df04a0b7cc283184e"
style="fill:white;fill-opacity:0.000000;stroke:black;stroke-width:1.000000;stroke-opacity:1.000000" />


<text
x="158.961873"
y="617.517034"
id="SmallMolecule_175012447ba7811df04a0b7cc283184e"
style="font-size:6.000000px;text-anchor:middle;font-family:Arial,Helvetica;alignment-baseline:baseline;stroke.opacity:1;dominant-baseline:baseline"
fill="black"
>
2H+ + 1/2O2</text>



<rect
width="58.333333"
height="33.333333"
rx="3.333333"
ry="3.333333"
x="119.800000"
y="431.973098"
id="Protein_b86d208e643fc13574be38399954f11c_Complex_57f62ac787bc40c5d44d721eaeda2de4"
style="fill:white;fill-opacity:1.000000;stroke:black;stroke-width:1.000000;stroke-opacity:1.000000" />


<text
x="148.966667"
y="450.639765"
id="Protein_b86d208e643fc13574be38399954f11c_Complex_57f62ac787bc40c5d44d721eaeda2de4"
style="font-size:6.000000px;text-anchor:middle;font-family:Arial,Helvetica;alignment-baseline:baseline;stroke.opacity:1;dominant-baseline:baseline"
fill="black"
>
ATP5C1</text>



<rect
width="58.333333"
height="33.333333"
rx="3.333333"
ry="3.333333"
x="119.800000"
y="474.056432"
id="Protein_334f65affd0a80405503870c09e7f8df_Complex_57f62ac787bc40c5d44d721eaeda2de4"
style="fill:white;fill-opacity:1.000000;stroke:black;stroke-width:1.000000;stroke-opacity:1.000000" />


<text
x="148.966667"
y="492.723098"
id="Protein_334f65affd0a80405503870c09e7f8df_Complex_57f62ac787bc40c5d44d721eaeda2de4"
style="font-size:6.000000px;text-anchor:middle;font-family:Arial,Helvetica;alignment-baseline:baseline;stroke.opacity:1;dominant-baseline:baseline"
fill="black"
>
ATP5B</text>


<rect
width="16.666667"
height="16.666667"
rx="0.000000"
ry="0.000000"
x="441.316711"
y="203.206015"
id="BiochemicalReaction_83cfa15256e76c1f876c31da295049ab_LEFT_TO_RIGHT"
style="fill:white;fill-opacity:0.600000;stroke:black;stroke-width:1.000000;stroke-opacity:1.000000" />



<rect
width="16.666667"
height="16.666667"
rx="0.000000"
ry="0.000000"
x="280.125896"
y="510.331172"
id="BiochemicalReaction_0687b05f04e0d9ed3ca01432eb1bab23_LEFT_TO_RIGHT"
style="fill:white;fill-opacity:0.600000;stroke:black;stroke-width:1.000000;stroke-opacity:1.000000" />



<rect
width="16.666667"
height="16.666667"
rx="0.000000"
ry="0.000000"
x="321.233315"
y="322.402445"
id="BiochemicalReaction_a42b5dfb35d86119627246c4bc6b503a_LEFT_TO_RIGHT"
style="fill:white;fill-opacity:0.600000;stroke:black;stroke-width:1.000000;stroke-opacity:1.000000" />



<rect
width="16.666667"
height="16.666667"
rx="0.000000"
ry="0.000000"
x="480.885198"
y="349.370274"
id="BiochemicalReaction_44216ac15e72de6ececc722b5de48df1_LEFT_TO_RIGHT"
style="fill:white;fill-opacity:0.600000;stroke:black;stroke-width:1.000000;stroke-opacity:1.000000" />




<rect
width="58.333333"
height="33.333333"
rx="3.333333"
ry="3.333333"
x="462.931377"
y="676.613533"
id="Protein_006eab22a6bb92ebcff15336a53a3daf"
style="fill:white;fill-opacity:1.000000;stroke:black;stroke-width:1.000000;stroke-opacity:1.000000" />


<text
x="492.098043"
y="695.280200"
id="Protein_006eab22a6bb92ebcff15336a53a3daf"
style="font-size:6.000000px;text-anchor:middle;font-family:Arial,Helvetica;alignment-baseline:baseline;stroke.opacity:1;dominant-baseline:baseline"
fill="black"
>
Cytochrome oxidase aa3</text>



<ellipse
rx="16.666667"
ry="16.666667"
cx="604.950575"
cy="246.775411"
id="SmallMolecule_91400f4932a4c3a038339cfeea054f19"
style="fill:white;fill-opacity:0.000000;stroke:black;stroke-width:1.000000;stroke-opacity:1.000000" />


<text
x="604.950575"
y="248.775411"
id="SmallMolecule_91400f4932a4c3a038339cfeea054f19"
style="font-size:6.000000px;text-anchor:middle;font-family:Arial,Helvetica;alignment-baseline:baseline;stroke.opacity:1;dominant-baseline:baseline"
fill="black"
>
ATP3-</text>



<rect
width="58.333333"
height="33.333333"
rx="3.333333"
ry="3.333333"
x="646.952365"
y="597.150139"
id="Protein_8f829490e18168fc229bcbaa9032d3ae"
style="fill:white;fill-opacity:1.000000;stroke:black;stroke-width:1.000000;stroke-opacity:1.000000" />


<text
x="676.119032"
y="615.816806"
id="Protein_8f829490e18168fc229bcbaa9032d3ae"
style="font-size:6.000000px;text-anchor:middle;font-family:Arial,Helvetica;alignment-baseline:baseline;stroke.opacity:1;dominant-baseline:baseline"
fill="black"
>
FMN FeS</text>



<ellipse
rx="16.666667"
ry="16.666667"
cx="614.012622"
cy="555.576115"
id="SmallMolecule_f719b67e397591a71a1a982bdc45e407"
style="fill:white;fill-opacity:0.000000;stroke:black;stroke-width:1.000000;stroke-opacity:1.000000" />


<text
x="614.012622"
y="557.576115"
id="SmallMolecule_f719b67e397591a71a1a982bdc45e407"
style="font-size:6.000000px;text-anchor:middle;font-family:Arial,Helvetica;alignment-baseline:baseline;stroke.opacity:1;dominant-baseline:baseline"
fill="black"
>
H+</text>



<rect
width="58.333333"
height="33.333333"
rx="3.333333"
ry="3.333333"
x="610.993651"
y="325.232281"
id="Protein_5f6d71534d308c8df45d9744ade8b795_Complex_94163c462afd16a7d76a6622083a4a5a"
style="fill:white;fill-opacity:1.000000;stroke:black;stroke-width:1.000000;stroke-opacity:1.000000" />


<text
x="640.160318"
y="343.898947"
id="Protein_5f6d71534d308c8df45d9744ade8b795_Complex_94163c462afd16a7d76a6622083a4a5a"
style="font-size:6.000000px;text-anchor:middle;font-family:Arial,Helvetica;alignment-baseline:baseline;stroke.opacity:1;dominant-baseline:baseline"
fill="black"
>
Cyt bc1</text>



<rect
width="58.333333"
height="33.333333"
rx="3.333333"
ry="3.333333"
x="610.993651"
y="367.315614"
id="Protein_da77eea6ef172d86bbf9dfca22af6298_Complex_94163c462afd16a7d76a6622083a4a5a"
style="fill:white;fill-opacity:1.000000;stroke:black;stroke-width:1.000000;stroke-opacity:1.000000" />


<text
x="640.160318"
y="385.982281"
id="Protein_da77eea6ef172d86bbf9dfca22af6298_Complex_94163c462afd16a7d76a6622083a4a5a"
style="font-size:6.000000px;text-anchor:middle;font-family:Arial,Helvetica;alignment-baseline:baseline;stroke.opacity:1;dominant-baseline:baseline"
fill="black"
>
FAD FeS</text>



<rect
width="58.333333"
height="33.333333"
rx="3.333333"
ry="3.333333"
x="678.076984"
y="325.232281"
id="Protein_78d66f994c0d7e9cc1577e0eedd33d58_Complex_94163c462afd16a7d76a6622083a4a5a"
style="fill:white;fill-opacity:1.000000;stroke:black;stroke-width:1.000000;stroke-opacity:1.000000" />


<text
x="707.243651"
y="343.898947"
id="Protein_78d66f994c0d7e9cc1577e0eedd33d58_Complex_94163c462afd16a7d76a6622083a4a5a"
style="font-size:6.000000px;text-anchor:middle;font-family:Arial,Helvetica;alignment-baseline:baseline;stroke.opacity:1;dominant-baseline:baseline"
fill="black"
>
UQ UQH2</text>



<rect
width="58.333333"
height="33.333333"
rx="3.333333"
ry="3.333333"
x="846.814310"
y="322.085811"
id="Protein_7414c785eabe694e02dc306d4ba19db3"
style="fill:white;fill-opacity:1.000000;stroke:black;stroke-width:1.000000;stroke-opacity:1.000000" />


<text
x="875.980976"
y="340.752477"
id="Protein_7414c785eabe694e02dc306d4ba19db3"
style="font-size:6.000000px;text-anchor:middle;font-family:Arial,Helvetica;alignment-baseline:baseline;stroke.opacity:1;dominant-baseline:baseline"
fill="black"
>
Phosphate transporter</text>



<rect
width="58.333333"
height="33.333333"
rx="3.333333"
ry="3.333333"
x="647.629494"
y="210.126628"
id="Protein_9ce5282c7a874e582b6a87bfd1f38106"
style="fill:white;fill-opacity:1.000000;stroke:black;stroke-width:1.000000;stroke-opacity:1.000000" />



<text
x="676.796161"
y="225.793294"
id="Protein_9ce5282c7a874e582b6a87bfd1f38106"
style="font-size:6.000000px;text-anchor:middle;font-family:Arial,Helvetica;alignment-baseline:baseline;stroke.opacity:1;dominant-baseline:baseline"
fill="black"
>
Adenine nucleotide </text>


<text
x="676.796161"
y="231.793294"
id="Protein_9ce5282c7a874e582b6a87bfd1f38106"
style="font-size:6.000000px;text-anchor:middle;font-family:Arial,Helvetica;alignment-baseline:baseline;stroke.opacity:1;dominant-baseline:baseline"
fill="black"
>
transporter</text>



<ellipse
rx="16.666667"
ry="16.666667"
cx="932.350772"
cy="260.855077"
id="SmallMolecule_f371887d2b919b0b559619d5cd10b479"
style="fill:white;fill-opacity:0.000000;stroke:black;stroke-width:1.000000;stroke-opacity:1.000000" />


<text
x="932.350772"
y="262.855077"
id="SmallMolecule_f371887d2b919b0b559619d5cd10b479"
style="font-size:6.000000px;text-anchor:middle;font-family:Arial,Helvetica;alignment-baseline:baseline;stroke.opacity:1;dominant-baseline:baseline"
fill="black"
>
Pi-</text>


<rect
width="16.666667"
height="16.666667"
rx="0.000000"
ry="0.000000"
x="547.287736"
y="345.456568"
id="TransportWithBiochemicalReaction_964f26d2e3ff4122b2ee5e478b1a6ce5_LEFT_TO_RIGHT"
style="fill:white;fill-opacity:0.600000;stroke:black;stroke-width:1.000000;stroke-opacity:1.000000" />



<rect
width="16.666667"
height="16.666667"
rx="0.000000"
ry="0.000000"
x="730.416018"
y="463.153668"
id="TransportWithBiochemicalReaction_c7d01fd2db329484d65ba65ab3213e55_LEFT_TO_RIGHT"
style="fill:white;fill-opacity:0.600000;stroke:black;stroke-width:1.000000;stroke-opacity:1.000000" />



<rect
width="16.666667"
height="16.666667"
rx="0.000000"
ry="0.000000"
x="804.234401"
y="411.495298"
id="TransportWithBiochemicalReaction_c1ac7d4211da491cc05034ca4fcd8317_LEFT_TO_RIGHT"
style="fill:white;fill-opacity:0.600000;stroke:black;stroke-width:1.000000;stroke-opacity:1.000000" />





<path d="M524.000000 225.000000 C 539.000000 237.000000, 562.000000 255.000000,585.000000 266.000000" stroke="black"  fill="transparent"/>
<path d="M585.000000 266.000000 C 653.000000 299.000000, 688.000000 267.000000,748.000000 313.000000" stroke="black"  fill="transparent"/>
<path d="M748.000000 313.000000 C 783.000000 339.000000, 802.000000 390.000000,809.000000 411.000000" stroke="black"  fill="transparent"/>

<line
x1="802" y1="390" x2="809" y2="411"
id="0"
style="stroke:black;stroke-width:1.000000;stroke-opacity:0" />


<line
x1="539" y1="237" x2="524" y2="225"
id="TransportWithBiochemicalReaction_c1ac7d4211da491cc05034ca4fcd8317_LEFT_TO_RIGHT-output--to--SmallMolecule_b512b4174060399835636259616e9481"
style="stroke:black;stroke-width:1.000000;stroke-opacity:0" />


<polygon
points = "524,225 515.2,220.6 515.2,229.4"
id="line"
style="fill:black; stroke:#000000; stroke-width:1"
transform = "rotate(218.659808 524.000000 225.000000)"
/>


<path d="M406.000000 228.000000 C 421.000000 243.000000, 443.000000 265.000000,463.000000 283.000000" stroke="black"  fill="transparent"/>
<path d="M463.000000 283.000000 C 493.000000 308.000000, 530.000000 335.000000,546.000000 347.000000" stroke="black"  fill="transparent"/>

<line
x1="421" y1="243" x2="406" y2="228"
id="0"
style="stroke:black;stroke-width:1.000000;stroke-opacity:0" />


<line
x1="530" y1="335" x2="546" y2="347"
id="SmallMolecule_1c98e8f191326f6f1cd657f11cd1b395--to--TransportWithBiochemicalReaction_964f26d2e3ff4122b2ee5e478b1a6ce5_LEFT_TO_RIGHT-input"
style="stroke:black;stroke-width:1.000000;stroke-opacity:0" />


<path d="M491.000000 221.000000 C 454.000000 246.000000, 366.000000 306.000000,338.000000 324.000000" stroke="black"  fill="transparent"/>

<line
x1="454" y1="246" x2="491" y2="221"
id="0"
style="stroke:black;stroke-width:1.000000;stroke-opacity:0" />


<line
x1="366" y1="306" x2="338" y2="324"
id="SmallMolecule_b512b4174060399835636259616e9481--to--BiochemicalReaction_a42b5dfb35d86119627246c4bc6b503a_LEFT_TO_RIGHT-input"
style="stroke:black;stroke-width:1.000000;stroke-opacity:0" />


<path d="M494.000000 366.000000 C 513.000000 396.000000, 578.000000 498.000000,603.000000 539.000000" stroke="black"  fill="transparent"/>

<line
x1="513" y1="396" x2="494" y2="366"
id="0"
style="stroke:black;stroke-width:1.000000;stroke-opacity:0" />


<line
x1="578" y1="498" x2="603" y2="539"
id="BiochemicalReaction_44216ac15e72de6ececc722b5de48df1_LEFT_TO_RIGHT-output--to--SmallMolecule_f719b67e397591a71a1a982bdc45e407"
style="stroke:black;stroke-width:1.000000;stroke-opacity:0" />


<polygon
points = "603,539 594.2,534.6 594.2,543.4"
id="line"
style="fill:black; stroke:#000000; stroke-width:1"
transform = "rotate(58.626995 603.000000 539.000000)"
/>


<path d="M660.000000 243.000000 C 634.000000 270.000000, 583.000000 324.000000,563.000000 345.000000" stroke="black"  fill="transparent"/>

<line
x1="634" y1="270" x2="660" y2="243"
id="0"
style="stroke:black;stroke-width:1.000000;stroke-opacity:0" />


<line
x1="583" y1="324" x2="563" y2="345"
id="Protein_9ce5282c7a874e582b6a87bfd1f38106--to--TransportWithBiochemicalReaction_964f26d2e3ff4122b2ee5e478b1a6ce5_LEFT_TO_RIGHT"
style="stroke:black;stroke-width:1.000000;stroke-opacity:0" />


<polygon
points = "563,345 549.8,340.6 549.8,349.4"
id="line"
style="fill:white; stroke:#000000; stroke-width:1"
transform = "rotate(133.602819 563.000000 345.000000)"
/>


<path d="M862.000000 355.000000 C 849.000000 372.000000, 829.000000 397.000000,819.000000 411.000000" stroke="black"  fill="transparent"/>

<line
x1="849" y1="372" x2="862" y2="355"
id="0"
style="stroke:black;stroke-width:1.000000;stroke-opacity:0" />


<line
x1="829" y1="397" x2="819" y2="411"
id="Protein_7414c785eabe694e02dc306d4ba19db3--to--TransportWithBiochemicalReaction_c1ac7d4211da491cc05034ca4fcd8317_LEFT_TO_RIGHT"
style="stroke:black;stroke-width:1.000000;stroke-opacity:0" />


<polygon
points = "819,411 805.8,406.6 805.8,415.4"
id="line"
style="fill:white; stroke:#000000; stroke-width:1"
transform = "rotate(125.537678 819.000000 411.000000)"
/>


<path d="M630.000000 544.000000 C 657.000000 526.000000, 710.000000 490.000000,730.000000 477.000000" stroke="black"  fill="transparent"/>

<line
x1="657" y1="526" x2="630" y2="544"
id="0"
style="stroke:black;stroke-width:1.000000;stroke-opacity:0" />


<line
x1="710" y1="490" x2="730" y2="477"
id="SmallMolecule_f719b67e397591a71a1a982bdc45e407--to--TransportWithBiochemicalReaction_c7d01fd2db329484d65ba65ab3213e55_LEFT_TO_RIGHT-input"
style="stroke:black;stroke-width:1.000000;stroke-opacity:0" />


<path d="M597.000000 263.000000 C 586.000000 286.000000, 567.000000 327.000000,559.000000 345.000000" stroke="black"  fill="transparent"/>

<line
x1="567" y1="327" x2="559" y2="345"
id="0"
style="stroke:black;stroke-width:1.000000;stroke-opacity:0" />


<line
x1="586" y1="286" x2="597" y2="263"
id="TransportWithBiochemicalReaction_964f26d2e3ff4122b2ee5e478b1a6ce5_LEFT_TO_RIGHT-output--to--SmallMolecule_91400f4932a4c3a038339cfeea054f19"
style="stroke:black;stroke-width:1.000000;stroke-opacity:0" />


<polygon
points = "597,263 588.2,258.6 588.2,267.4"
id="line"
style="fill:black; stroke:#000000; stroke-width:1"
transform = "rotate(-64.440035 597.000000 263.000000)"
/>


<path d="M296.000000 525.000000 C 327.000000 551.000000, 429.000000 639.000000,472.000000 676.000000" stroke="black"  fill="transparent"/>

<line
x1="429" y1="639" x2="472" y2="676"
id="0"
style="stroke:black;stroke-width:1.000000;stroke-opacity:0" />


<line
x1="327" y1="551" x2="296" y2="525"
id="Protein_006eab22a6bb92ebcff15336a53a3daf--to--BiochemicalReaction_0687b05f04e0d9ed3ca01432eb1bab23_LEFT_TO_RIGHT"
style="stroke:black;stroke-width:1.000000;stroke-opacity:0" />


<ellipse
rx="4.400000"
ry="4.400000"
cx="299.371243"
cy="527.827494"
id="Protein_006eab22a6bb92ebcff15336a53a3daf--to--BiochemicalReaction_0687b05f04e0d9ed3ca01432eb1bab23_LEFT_TO_RIGHT"
style="fill:white;fill-opacity:0.800000;stroke:black;stroke-width:1.000000;stroke-opacity:1.000000" />


<path d="M381.000000 337.000000 C 397.000000 307.000000, 432.000000 243.000000,444.000000 220.000000" stroke="black"  fill="transparent"/>

<line
x1="397" y1="307" x2="381" y2="337"
id="0"
style="stroke:black;stroke-width:1.000000;stroke-opacity:0" />


<line
x1="432" y1="243" x2="444" y2="220"
id="SmallMolecule_ae7fbc6230f2ec8a414e363139223a65--to--BiochemicalReaction_83cfa15256e76c1f876c31da295049ab_LEFT_TO_RIGHT-input"
style="stroke:black;stroke-width:1.000000;stroke-opacity:0" />


<path d="M915.000000 267.000000 C 895.000000 276.000000, 862.000000 293.000000,843.000000 319.000000" stroke="black"  fill="transparent"/>
<path d="M843.000000 319.000000 C 821.000000 348.000000, 815.000000 392.000000,813.000000 411.000000" stroke="black"  fill="transparent"/>

<line
x1="895" y1="276" x2="915" y2="267"
id="0"
style="stroke:black;stroke-width:1.000000;stroke-opacity:0" />


<line
x1="815" y1="392" x2="813" y2="411"
id="SmallMolecule_f371887d2b919b0b559619d5cd10b479--to--TransportWithBiochemicalReaction_c1ac7d4211da491cc05034ca4fcd8317_LEFT_TO_RIGHT-input"
style="stroke:black;stroke-width:1.000000;stroke-opacity:0" />


<path d="M458.000000 216.000000 C 468.000000 222.000000, 487.000000 233.000000,503.000000 244.000000" stroke="black"  fill="transparent"/>
<path d="M503.000000 244.000000 C 538.000000 267.000000, 577.000000 293.000000,608.000000 316.000000" stroke="black"  fill="transparent"/>

<line
x1="577" y1="293" x2="608" y2="316"
id="0"
style="stroke:black;stroke-width:1.000000;stroke-opacity:0" />


<line
x1="468" y1="222" x2="458" y2="216"
id="Complex_94163c462afd16a7d76a6622083a4a5a--to--BiochemicalReaction_83cfa15256e76c1f876c31da295049ab_LEFT_TO_RIGHT"
style="stroke:black;stroke-width:1.000000;stroke-opacity:0" />


<ellipse
rx="4.400000"
ry="4.400000"
cx="461.772969"
cy="218.263781"
id="Complex_94163c462afd16a7d76a6622083a4a5a--to--BiochemicalReaction_83cfa15256e76c1f876c31da295049ab_LEFT_TO_RIGHT"
style="fill:white;fill-opacity:0.800000;stroke:black;stroke-width:1.000000;stroke-opacity:1.000000" />


<path d="M491.000000 280.000000 C 501.000000 301.000000, 521.000000 338.000000,543.000000 365.000000" stroke="black"  fill="transparent"/>
<path d="M543.000000 365.000000 C 564.000000 390.000000, 571.000000 395.000000,599.000000 412.000000" stroke="black"  fill="transparent"/>
<path d="M599.000000 412.000000 C 645.000000 441.000000, 707.000000 461.000000,730.000000 468.000000" stroke="black"  fill="transparent"/>

<line
x1="707" y1="461" x2="730" y2="468"
id="0"
style="stroke:black;stroke-width:1.000000;stroke-opacity:0" />


<line
x1="501" y1="301" x2="491" y2="280"
id="TransportWithBiochemicalReaction_c7d01fd2db329484d65ba65ab3213e55_LEFT_TO_RIGHT-output--to--SmallMolecule_b052d8c1dc360a41da90960bf7dd01a9"
style="stroke:black;stroke-width:1.000000;stroke-opacity:0" />


<polygon
points = "491,280 482.2,275.6 482.2,284.4"
id="line"
style="fill:black; stroke:#000000; stroke-width:1"
transform = "rotate(244.536655 491.000000 280.000000)"
/>


<path d="M857.000000 355.000000 C 842.000000 369.000000, 819.000000 389.000000,800.000000 408.000000" stroke="black"  fill="transparent"/>
<path d="M800.000000 408.000000 C 781.000000 427.000000, 758.000000 450.000000,747.000000 462.000000" stroke="black"  fill="transparent"/>

<line
x1="842" y1="369" x2="857" y2="355"
id="0"
style="stroke:black;stroke-width:1.000000;stroke-opacity:0" />


<line
x1="758" y1="450" x2="747" y2="462"
id="Protein_7414c785eabe694e02dc306d4ba19db3--to--TransportWithBiochemicalReaction_c7d01fd2db329484d65ba65ab3213e55_LEFT_TO_RIGHT"
style="stroke:black;stroke-width:1.000000;stroke-opacity:0" />


<polygon
points = "747,462 733.8,457.6 733.8,466.4"
id="line"
style="fill:white; stroke:#000000; stroke-width:1"
transform = "rotate(132.510447 747.000000 462.000000)"
/>


<path d="M412.000000 485.000000 C 430.000000 454.000000, 470.000000 389.000000,484.000000 366.000000" stroke="black"  fill="transparent"/>

<line
x1="470" y1="389" x2="484" y2="366"
id="0"
style="stroke:black;stroke-width:1.000000;stroke-opacity:0" />


<line
x1="430" y1="454" x2="412" y2="485"
id="BiochemicalReaction_44216ac15e72de6ececc722b5de48df1_LEFT_TO_RIGHT-output--to--SmallMolecule_4a5372377436d8af8b239b16de0697f5"
style="stroke:black;stroke-width:1.000000;stroke-opacity:0" />


<polygon
points = "412,485 403.2,480.6 403.2,489.4"
id="line"
style="fill:black; stroke:#000000; stroke-width:1"
transform = "rotate(120.141386 412.000000 485.000000)"
/>


<path d="M362.000000 442.000000 C 392.000000 421.000000, 457.000000 378.000000,480.000000 363.000000" stroke="black"  fill="transparent"/>

<line
x1="392" y1="421" x2="362" y2="442"
id="0"
style="stroke:black;stroke-width:1.000000;stroke-opacity:0" />


<line
x1="457" y1="378" x2="480" y2="363"
id="SmallMolecule_85a1ee508f7370230526f220c9852215--to--BiochemicalReaction_44216ac15e72de6ececc722b5de48df1_LEFT_TO_RIGHT-input"
style="stroke:black;stroke-width:1.000000;stroke-opacity:0" />


<path d="M497.000000 366.000000 C 520.000000 391.000000, 587.000000 466.000000,633.000000 535.000000" stroke="black"  fill="transparent"/>
<path d="M633.000000 535.000000 C 647.000000 556.000000, 660.000000 581.000000,668.000000 597.000000" stroke="black"  fill="transparent"/>

<line
x1="660" y1="581" x2="668" y2="597"
id="0"
style="stroke:black;stroke-width:1.000000;stroke-opacity:0" />


<line
x1="520" y1="391" x2="497" y2="366"
id="Protein_8f829490e18168fc229bcbaa9032d3ae--to--BiochemicalReaction_44216ac15e72de6ececc722b5de48df1_LEFT_TO_RIGHT"
style="stroke:black;stroke-width:1.000000;stroke-opacity:0" />


<ellipse
rx="4.400000"
ry="4.400000"
cx="499.979049"
cy="369.238096"
id="Protein_8f829490e18168fc229bcbaa9032d3ae--to--BiochemicalReaction_44216ac15e72de6ececc722b5de48df1_LEFT_TO_RIGHT"
style="fill:white;fill-opacity:0.800000;stroke:black;stroke-width:1.000000;stroke-opacity:1.000000" />


<path d="M323.000000 273.000000 C 344.000000 263.000000, 380.000000 246.000000,411.000000 231.000000" stroke="black"  fill="transparent"/>
<path d="M411.000000 231.000000 C 421.000000 226.000000, 433.000000 220.000000,441.000000 216.000000" stroke="black"  fill="transparent"/>

<line
x1="433" y1="220" x2="441" y2="216"
id="0"
style="stroke:black;stroke-width:1.000000;stroke-opacity:0" />


<line
x1="344" y1="263" x2="323" y2="273"
id="BiochemicalReaction_83cfa15256e76c1f876c31da295049ab_LEFT_TO_RIGHT-output--to--SmallMolecule_6fdc331d0ad0760ffdbe05f5995b2369"
style="stroke:black;stroke-width:1.000000;stroke-opacity:0" />


<polygon
points = "323,273 314.2,268.6 314.2,277.4"
id="line"
style="fill:black; stroke:#000000; stroke-width:1"
transform = "rotate(154.536655 323.000000 273.000000)"
/>


<path d="M450.000000 220.000000 C 451.000000 234.000000, 455.000000 261.000000,463.000000 283.000000" stroke="black"  fill="transparent"/>
<path d="M463.000000 283.000000 C 475.000000 313.000000, 485.000000 317.000000,500.000000 346.000000" stroke="black"  fill="transparent"/>
<path d="M500.000000 346.000000 C 541.000000 417.000000, 586.000000 503.000000,605.000000 538.000000" stroke="black"  fill="transparent"/>

<line
x1="451" y1="234" x2="450" y2="220"
id="0"
style="stroke:black;stroke-width:1.000000;stroke-opacity:0" />


<line
x1="586" y1="503" x2="605" y2="538"
id="BiochemicalReaction_83cfa15256e76c1f876c31da295049ab_LEFT_TO_RIGHT-output--to--SmallMolecule_f719b67e397591a71a1a982bdc45e407"
style="stroke:black;stroke-width:1.000000;stroke-opacity:0" />


<polygon
points = "605,538 596.2,533.6 596.2,542.4"
id="line"
style="fill:black; stroke:#000000; stroke-width:1"
transform = "rotate(61.504361 605.000000 538.000000)"
/>


<path d="M187.000000 440.000000 C 230.000000 406.000000, 298.000000 355.000000,321.000000 337.000000" stroke="black"  fill="transparent"/>

<line
x1="230" y1="406" x2="187" y2="440"
id="0"
style="stroke:black;stroke-width:1.000000;stroke-opacity:0" />


<line
x1="298" y1="355" x2="321" y2="337"
id="Complex_57f62ac787bc40c5d44d721eaeda2de4--to--BiochemicalReaction_a42b5dfb35d86119627246c4bc6b503a_LEFT_TO_RIGHT"
style="stroke:black;stroke-width:1.000000;stroke-opacity:0" />


<ellipse
rx="4.400000"
ry="4.400000"
cx="317.534978"
cy="339.711756"
id="Complex_57f62ac787bc40c5d44d721eaeda2de4--to--BiochemicalReaction_a42b5dfb35d86119627246c4bc6b503a_LEFT_TO_RIGHT"
style="fill:white;fill-opacity:0.800000;stroke:black;stroke-width:1.000000;stroke-opacity:1.000000" />


<path d="M382.000000 228.000000 C 369.000000 253.000000, 344.000000 302.000000,334.000000 322.000000" stroke="black"  fill="transparent"/>

<line
x1="369" y1="253" x2="382" y2="228"
id="0"
style="stroke:black;stroke-width:1.000000;stroke-opacity:0" />


<line
x1="344" y1="302" x2="334" y2="322"
id="SmallMolecule_1c98e8f191326f6f1cd657f11cd1b395--to--BiochemicalReaction_a42b5dfb35d86119627246c4bc6b503a_LEFT_TO_RIGHT-input"
style="stroke:black;stroke-width:1.000000;stroke-opacity:0" />


<path d="M175.000000 603.000000 C 203.000000 582.000000, 259.000000 540.000000,280.000000 524.000000" stroke="black"  fill="transparent"/>

<line
x1="203" y1="582" x2="175" y2="603"
id="0"
style="stroke:black;stroke-width:1.000000;stroke-opacity:0" />


<line
x1="259" y1="540" x2="280" y2="524"
id="SmallMolecule_175012447ba7811df04a0b7cc283184e--to--BiochemicalReaction_0687b05f04e0d9ed3ca01432eb1bab23_LEFT_TO_RIGHT-input"
style="stroke:black;stroke-width:1.000000;stroke-opacity:0" />


<path d="M235.000000 598.000000 C 249.000000 577.000000, 272.000000 543.000000,282.000000 527.000000" stroke="black"  fill="transparent"/>

<line
x1="272" y1="543" x2="282" y2="527"
id="0"
style="stroke:black;stroke-width:1.000000;stroke-opacity:0" />


<line
x1="249" y1="577" x2="235" y2="598"
id="BiochemicalReaction_0687b05f04e0d9ed3ca01432eb1bab23_LEFT_TO_RIGHT-output--to--SmallMolecule_3612ffc5a40d25ab187492273d177788"
style="stroke:black;stroke-width:1.000000;stroke-opacity:0" />


<polygon
points = "235,598 226.2,593.6 226.2,602.4"
id="line"
style="fill:black; stroke:#000000; stroke-width:1"
transform = "rotate(123.690068 235.000000 598.000000)"
/>


<path d="M386.000000 228.000000 C 373.000000 253.000000, 348.000000 302.000000,337.899982 322.000000" stroke="black"  fill="transparent"/>

<line
x1="348" y1="302" x2="337.89998215047" y2="322"
id="0"
style="stroke:black;stroke-width:1.000000;stroke-opacity:0" />


<line
x1="373" y1="253" x2="386" y2="228"
id="BiochemicalReaction_a42b5dfb35d86119627246c4bc6b503a_LEFT_TO_RIGHT-output--to--SmallMolecule_1c98e8f191326f6f1cd657f11cd1b395"
style="stroke:black;stroke-width:1.000000;stroke-opacity:0" />


<polygon
points = "386,228 377.2,223.6 377.2,232.4"
id="line"
style="fill:black; stroke:#000000; stroke-width:1"
transform = "rotate(-62.525568 386.000000 228.000000)"
/>



</svg>
