<?xml version="1.0" encoding="UTF-8"?>
<svg width="1170.317191" height="1048.075825"
xmlns="http://www.w3.org/2000/svg" xmlns:svg="http://www.w3.org/2000/svg"
>
<metadata id="metadata7">image/svg+xml</metadata>

<rect
width="386.225099"
height="252.787766"
rx="11.000000"
ry="11.000000"
x="454.092092"
y="183.000000"
id="cytosol"
style="fill:white;fill-opacity:0.900000;stroke:black;stroke-width:5.000000;stroke-opacity:1.000000" />


<text
x="647.204642"
y="175.000000"
id="cytosol"
style="font-size:6.000000px;text-anchor:middle;font-family:Arial,Helvetica;alignment-baseline:baseline;stroke.opacity:1;dominant-baseline:baseline"
fill="black"
>
cytosol</text>


<rect
width="238.339562"
height="246.278222"
rx="11.000000"
ry="11.000000"
x="100.000000"
y="272.699993"
id="dense_core_granule"
style="fill:white;fill-opacity:0.900000;stroke:black;stroke-width:5.000000;stroke-opacity:1.000000" />


<text
x="219.169781"
y="264.699993"
id="dense_core_granule"
style="font-size:6.000000px;text-anchor:middle;font-family:Arial,Helvetica;alignment-baseline:baseline;stroke.opacity:1;dominant-baseline:baseline"
fill="black"
>
dense core granule</text>



<path
d="M 518.521766972355 570.774328917592 518.521766972355 652.790995584259 524.021766972355 658.290995584259 588.955100305688 658.290995584259 594.455100305688 652.790995584259 594.455100305688 570.774328917592 588.955100305688 565.274328917592 524.021766972355 565.274328917592 Z"
id="Complex_fb8b9741d084436db5a2575ff3bb97dd"
style="fill:white;fill-opacity:0.600000;stroke-width:1;stroke:black;stroke-opacity:1.000000"
transform = "rotate(0.000000 0.000000 0.000000)"
/>


<text
x="556.488434"
y="557.274329"
id="Complex_fb8b9741d084436db5a2575ff3bb97dd"
style="font-size:6.000000px;text-anchor:middle;font-family:Arial,Helvetica;alignment-baseline:baseline;stroke.opacity:1;dominant-baseline:baseline"
fill="black"
>
Complex (5HT3 Rec/5HT+)</text>




<ellipse
rx="16.666667"
ry="16.666667"
cx="393.704293"
cy="530.069100"
id="SmallMolecule_1e12665a8938ad410046ca2830a35933"
style="fill:white;fill-opacity:0.000000;stroke:black;stroke-width:1.000000;stroke-opacity:1.000000" />



<text
x="393.704293"
y="526.069100"
id="SmallMolecule_1e12665a8938ad410046ca2830a35933"
style="font-size:6.000000px;text-anchor:middle;font-family:Arial,Helvetica;alignment-baseline:baseline;stroke.opacity:1;dominant-baseline:baseline"
fill="black"
>
5-Hydroxytr-</text>


<text
x="393.704293"
y="532.069100"
id="SmallMolecule_1e12665a8938ad410046ca2830a35933"
style="font-size:6.000000px;text-anchor:middle;font-family:Arial,Helvetica;alignment-baseline:baseline;stroke.opacity:1;dominant-baseline:baseline"
fill="black"
>
yptamine (s-</text>


<text
x="393.704293"
y="538.069100"
id="SmallMolecule_1e12665a8938ad410046ca2830a35933"
style="font-size:6.000000px;text-anchor:middle;font-family:Arial,Helvetica;alignment-baseline:baseline;stroke.opacity:1;dominant-baseline:baseline"
fill="black"
>
erotonin)</text>



<rect
width="58.333333"
height="33.333333"
rx="3.333333"
ry="3.333333"
x="451.188918"
y="685.658672"
id="Protein_e698f77e33d0402f4af9bb0da9c8de84"
style="fill:white;fill-opacity:1.000000;stroke:black;stroke-width:1.000000;stroke-opacity:1.000000" />


<text
x="480.355585"
y="704.325339"
id="Protein_e698f77e33d0402f4af9bb0da9c8de84"
style="font-size:6.000000px;text-anchor:middle;font-family:Arial,Helvetica;alignment-baseline:baseline;stroke.opacity:1;dominant-baseline:baseline"
fill="black"
>
5HT3 receptor</text>


<rect
width="16.666667"
height="16.666667"
rx="0.000000"
ry="0.000000"
x="712.028757"
y="547.803245"
id="TransportWithBiochemicalReaction_0d70bd71a06cf3eda8233703c254c36e_LEFT_TO_RIGHT"
style="fill:white;fill-opacity:0.600000;stroke:black;stroke-width:1.000000;stroke-opacity:1.000000" />



<rect
width="16.666667"
height="16.666667"
rx="0.000000"
ry="0.000000"
x="451.221131"
y="612.311907"
id="ComplexAssembly_5eb9db8980dc100cc0cdbefc32528b07_LEFT_TO_RIGHT"
style="fill:white;fill-opacity:0.600000;stroke:black;stroke-width:1.000000;stroke-opacity:1.000000" />




<ellipse
rx="16.666667"
ry="16.666667"
cx="368.970344"
cy="192.561216"
id="SmallMolecule_c7bf06a830dcba90d0c9a2ad5fd90274"
style="fill:white;fill-opacity:0.000000;stroke:black;stroke-width:1.000000;stroke-opacity:1.000000" />


<text
x="368.970344"
y="194.561216"
id="SmallMolecule_c7bf06a830dcba90d0c9a2ad5fd90274"
style="font-size:6.000000px;text-anchor:middle;font-family:Arial,Helvetica;alignment-baseline:baseline;stroke.opacity:1;dominant-baseline:baseline"
fill="black"
>
Cl-</text>



<ellipse
rx="16.666667"
ry="16.666667"
cx="446.187370"
cy="491.157925"
id="SmallMolecule_164c1995c3155a019059727b20a0f5e5"
style="fill:white;fill-opacity:0.000000;stroke:black;stroke-width:1.000000;stroke-opacity:1.000000" />


<text
x="446.187370"
y="493.157925"
id="SmallMolecule_164c1995c3155a019059727b20a0f5e5"
style="font-size:6.000000px;text-anchor:middle;font-family:Arial,Helvetica;alignment-baseline:baseline;stroke.opacity:1;dominant-baseline:baseline"
fill="black"
>
Na+</text>



<ellipse
rx="16.666667"
ry="16.666667"
cx="804.508450"
cy="511.479763"
id="SmallMolecule_b30424a9f43724f9071bd3604ea53258"
style="fill:white;fill-opacity:0.000000;stroke:black;stroke-width:1.000000;stroke-opacity:1.000000" />


<text
x="804.508450"
y="513.479763"
id="SmallMolecule_b30424a9f43724f9071bd3604ea53258"
style="font-size:6.000000px;text-anchor:middle;font-family:Arial,Helvetica;alignment-baseline:baseline;stroke.opacity:1;dominant-baseline:baseline"
fill="black"
>
K+</text>



<ellipse
rx="16.666667"
ry="16.666667"
cx="372.958833"
cy="619.172554"
id="SmallMolecule_0e4aca59c0666588490ec3d9eb386636"
style="fill:white;fill-opacity:0.000000;stroke:black;stroke-width:1.000000;stroke-opacity:1.000000" />



<text
x="372.958833"
y="618.172554"
id="SmallMolecule_0e4aca59c0666588490ec3d9eb386636"
style="font-size:6.000000px;text-anchor:middle;font-family:Arial,Helvetica;alignment-baseline:baseline;stroke.opacity:1;dominant-baseline:baseline"
fill="black"
>
ondansetron</text>


<text
x="372.958833"
y="624.172554"
id="SmallMolecule_0e4aca59c0666588490ec3d9eb386636"
style="font-size:6.000000px;text-anchor:middle;font-family:Arial,Helvetica;alignment-baseline:baseline;stroke.opacity:1;dominant-baseline:baseline"
fill="black"
>
 (Zofran)</text>



<ellipse
rx="16.666667"
ry="16.666667"
cx="390.248409"
cy="693.767594"
id="SmallMolecule_90964af3a306e5de9c77893837fe37f7"
style="fill:white;fill-opacity:0.000000;stroke:black;stroke-width:1.000000;stroke-opacity:1.000000" />


<text
x="390.248409"
y="695.767594"
id="SmallMolecule_90964af3a306e5de9c77893837fe37f7"
style="font-size:6.000000px;text-anchor:middle;font-family:Arial,Helvetica;alignment-baseline:baseline;stroke.opacity:1;dominant-baseline:baseline"
fill="black"
>
metoclopramine</text>



<ellipse
rx="16.666667"
ry="16.666667"
cx="644.738839"
cy="831.409158"
id="SmallMolecule_c51d3df91f4fc90a3bdcd0524aa3d364"
style="fill:white;fill-opacity:0.000000;stroke:black;stroke-width:1.000000;stroke-opacity:1.000000" />


<text
x="644.738839"
y="833.409158"
id="SmallMolecule_c51d3df91f4fc90a3bdcd0524aa3d364"
style="font-size:6.000000px;text-anchor:middle;font-family:Arial,Helvetica;alignment-baseline:baseline;stroke.opacity:1;dominant-baseline:baseline"
fill="black"
>
Ca2+</text>



<rect
width="58.333333"
height="33.333333"
rx="3.333333"
ry="3.333333"
x="527.321767"
y="574.074329"
id="Protein_41bf91f55447dfdc92147e3374d9d348_Complex_fb8b9741d084436db5a2575ff3bb97dd"
style="fill:white;fill-opacity:1.000000;stroke:black;stroke-width:1.000000;stroke-opacity:1.000000" />


<text
x="556.488434"
y="592.740996"
id="Protein_41bf91f55447dfdc92147e3374d9d348_Complex_fb8b9741d084436db5a2575ff3bb97dd"
style="font-size:6.000000px;text-anchor:middle;font-family:Arial,Helvetica;alignment-baseline:baseline;stroke.opacity:1;dominant-baseline:baseline"
fill="black"
>
5HT3 receptor</text>



<ellipse
rx="16.666667"
ry="16.666667"
cx="543.988434"
cy="632.824329"
id="SmallMolecule_ffe0a492c0b6901171ca38d64565d69d_Complex_fb8b9741d084436db5a2575ff3bb97dd"
style="fill:white;fill-opacity:0.000000;stroke:black;stroke-width:1.000000;stroke-opacity:1.000000" />


<text
x="543.988434"
y="634.824329"
id="SmallMolecule_ffe0a492c0b6901171ca38d64565d69d_Complex_fb8b9741d084436db5a2575ff3bb97dd"
style="font-size:6.000000px;text-anchor:middle;font-family:Arial,Helvetica;alignment-baseline:baseline;stroke.opacity:1;dominant-baseline:baseline"
fill="black"
>
5HT+</text>


<rect
width="16.666667"
height="16.666667"
rx="0.000000"
ry="0.000000"
x="604.341555"
y="744.401761"
id="TransportWithBiochemicalReaction_0c3b671a02a4e24a56badc49076ffa26_LEFT_TO_RIGHT"
style="fill:white;fill-opacity:0.600000;stroke:black;stroke-width:1.000000;stroke-opacity:1.000000" />



<rect
width="16.666667"
height="16.666667"
rx="0.000000"
ry="0.000000"
x="479.562944"
y="565.428997"
id="TransportWithBiochemicalReaction_6f89a3cbf8f4b3698b055d0a90ea94ee_LEFT_TO_RIGHT"
style="fill:white;fill-opacity:0.600000;stroke:black;stroke-width:1.000000;stroke-opacity:1.000000" />




<ellipse
rx="16.666667"
ry="16.666667"
cx="513.201699"
cy="505.266519"
id="SmallMolecule_fd99ce3cbe50e6825c8918216b06b645"
style="fill:white;fill-opacity:0.000000;stroke:black;stroke-width:1.000000;stroke-opacity:1.000000" />


<text
x="513.201699"
y="507.266519"
id="SmallMolecule_fd99ce3cbe50e6825c8918216b06b645"
style="font-size:6.000000px;text-anchor:middle;font-family:Arial,Helvetica;alignment-baseline:baseline;stroke.opacity:1;dominant-baseline:baseline"
fill="black"
>
Na+</text>



<ellipse
rx="16.666667"
ry="16.666667"
cx="787.489154"
cy="620.638126"
id="SmallMolecule_72f0135a4559bdd8d3f5b342f908e129"
style="fill:white;fill-opacity:0.000000;stroke:black;stroke-width:1.000000;stroke-opacity:1.000000" />


<text
x="787.489154"
y="622.638126"
id="SmallMolecule_72f0135a4559bdd8d3f5b342f908e129"
style="font-size:6.000000px;text-anchor:middle;font-family:Arial,Helvetica;alignment-baseline:baseline;stroke.opacity:1;dominant-baseline:baseline"
fill="black"
>
K+</text>



<ellipse
rx="16.666667"
ry="16.666667"
cx="535.022093"
cy="801.283020"
id="SmallMolecule_b0304d512b979a1eca48f865224c1055"
style="fill:white;fill-opacity:0.000000;stroke:black;stroke-width:1.000000;stroke-opacity:1.000000" />


<text
x="535.022093"
y="803.283020"
id="SmallMolecule_b0304d512b979a1eca48f865224c1055"
style="font-size:6.000000px;text-anchor:middle;font-family:Arial,Helvetica;alignment-baseline:baseline;stroke.opacity:1;dominant-baseline:baseline"
fill="black"
>
Ca2+</text>



<rect
width="58.333333"
height="33.333333"
rx="3.333333"
ry="3.333333"
x="181.208757"
y="283.699993"
id="Protein_08ee29f28cbc6753841088dbce533ff1"
style="fill:white;fill-opacity:1.000000;stroke:black;stroke-width:1.000000;stroke-opacity:1.000000" />



<text
x="210.375424"
y="299.366659"
id="Protein_08ee29f28cbc6753841088dbce533ff1"
style="font-size:6.000000px;text-anchor:middle;font-family:Arial,Helvetica;alignment-baseline:baseline;stroke.opacity:1;dominant-baseline:baseline"
fill="black"
>
5HT vesicular trans-</text>


<text
x="210.375424"
y="305.366659"
id="Protein_08ee29f28cbc6753841088dbce533ff1"
style="font-size:6.000000px;text-anchor:middle;font-family:Arial,Helvetica;alignment-baseline:baseline;stroke.opacity:1;dominant-baseline:baseline"
fill="black"
>
porter</text>



<rect
width="58.333333"
height="33.333333"
rx="3.333333"
ry="3.333333"
x="111.000000"
y="474.644882"
id="Protein_d2666567fa1cd3089c4a9eca57d7a658"
style="fill:white;fill-opacity:1.000000;stroke:black;stroke-width:1.000000;stroke-opacity:1.000000" />


<text
x="140.166667"
y="493.311548"
id="Protein_d2666567fa1cd3089c4a9eca57d7a658"
style="font-size:6.000000px;text-anchor:middle;font-family:Arial,Helvetica;alignment-baseline:baseline;stroke.opacity:1;dominant-baseline:baseline"
fill="black"
>
SNARE Complex</text>



<ellipse
rx="16.666667"
ry="16.666667"
cx="244.195412"
cy="397.175604"
id="SmallMolecule_805f8d9dc2575026390179f6c837f839"
style="fill:white;fill-opacity:0.000000;stroke:black;stroke-width:1.000000;stroke-opacity:1.000000" />


<text
x="244.195412"
y="399.175604"
id="SmallMolecule_805f8d9dc2575026390179f6c837f839"
style="font-size:6.000000px;text-anchor:middle;font-family:Arial,Helvetica;alignment-baseline:baseline;stroke.opacity:1;dominant-baseline:baseline"
fill="black"
>
5HT+</text>


<rect
width="16.666667"
height="16.666667"
rx="0.000000"
ry="0.000000"
x="310.672896"
y="318.781902"
id="TransportWithBiochemicalReaction_f7a2b303d066995aa8bf293283570028_LEFT_TO_RIGHT"
style="fill:white;fill-opacity:0.600000;stroke:black;stroke-width:1.000000;stroke-opacity:1.000000" />



<rect
width="16.666667"
height="16.666667"
rx="0.000000"
ry="0.000000"
x="243.288222"
y="478.344637"
id="TransportWithBiochemicalReaction_6f95264406ef37ea13562d57e5c152ed_LEFT_TO_RIGHT"
style="fill:white;fill-opacity:0.600000;stroke:black;stroke-width:1.000000;stroke-opacity:1.000000" />




<ellipse
rx="16.666667"
ry="16.666667"
cx="603.629188"
cy="348.586640"
id="SmallMolecule_528e4d8ee3f3aea82fbe25cc980c33c9"
style="fill:white;fill-opacity:0.000000;stroke:black;stroke-width:1.000000;stroke-opacity:1.000000" />


<text
x="603.629188"
y="350.586640"
id="SmallMolecule_528e4d8ee3f3aea82fbe25cc980c33c9"
style="font-size:6.000000px;text-anchor:middle;font-family:Arial,Helvetica;alignment-baseline:baseline;stroke.opacity:1;dominant-baseline:baseline"
fill="black"
>
Cl-</text>



<ellipse
rx="16.666667"
ry="16.666667"
cx="812.650525"
cy="267.385271"
id="SmallMolecule_042c4b2867dd67705dcdf3560e02c09f"
style="fill:white;fill-opacity:0.000000;stroke:black;stroke-width:1.000000;stroke-opacity:1.000000" />


<text
x="812.650525"
y="269.385271"
id="SmallMolecule_042c4b2867dd67705dcdf3560e02c09f"
style="font-size:6.000000px;text-anchor:middle;font-family:Arial,Helvetica;alignment-baseline:baseline;stroke.opacity:1;dominant-baseline:baseline"
fill="black"
>
K+</text>



<ellipse
rx="16.666667"
ry="16.666667"
cx="481.758759"
cy="258.815572"
id="SmallMolecule_450cd2183eecd45c5c67ab7e6215b7a7"
style="fill:white;fill-opacity:0.000000;stroke:black;stroke-width:1.000000;stroke-opacity:1.000000" />


<text
x="481.758759"
y="260.815572"
id="SmallMolecule_450cd2183eecd45c5c67ab7e6215b7a7"
style="font-size:6.000000px;text-anchor:middle;font-family:Arial,Helvetica;alignment-baseline:baseline;stroke.opacity:1;dominant-baseline:baseline"
fill="black"
>
Imipramine</text>



<rect
width="58.333333"
height="33.333333"
rx="3.333333"
ry="3.333333"
x="594.577963"
y="253.880676"
id="Protein_7a50a847a6805ddac4304035dd56b053"
style="fill:white;fill-opacity:1.000000;stroke:black;stroke-width:1.000000;stroke-opacity:1.000000" />


<text
x="623.744630"
y="272.547342"
id="Protein_7a50a847a6805ddac4304035dd56b053"
style="font-size:6.000000px;text-anchor:middle;font-family:Arial,Helvetica;alignment-baseline:baseline;stroke.opacity:1;dominant-baseline:baseline"
fill="black"
>
5HT transporter</text>



<ellipse
rx="16.666667"
ry="16.666667"
cx="543.234892"
cy="210.666667"
id="SmallMolecule_1001e1fb13025a56e761165c244fc5ac"
style="fill:white;fill-opacity:0.000000;stroke:black;stroke-width:1.000000;stroke-opacity:1.000000" />


<text
x="543.234892"
y="212.666667"
id="SmallMolecule_1001e1fb13025a56e761165c244fc5ac"
style="font-size:6.000000px;text-anchor:middle;font-family:Arial,Helvetica;alignment-baseline:baseline;stroke.opacity:1;dominant-baseline:baseline"
fill="black"
>
Na+</text>



<ellipse
rx="16.666667"
ry="16.666667"
cx="525.191928"
cy="408.121099"
id="SmallMolecule_e08c222e4cb8cd075ca97b0a5a5af4b7"
style="fill:white;fill-opacity:0.000000;stroke:black;stroke-width:1.000000;stroke-opacity:1.000000" />


<text
x="525.191928"
y="410.121099"
id="SmallMolecule_e08c222e4cb8cd075ca97b0a5a5af4b7"
style="font-size:6.000000px;text-anchor:middle;font-family:Arial,Helvetica;alignment-baseline:baseline;stroke.opacity:1;dominant-baseline:baseline"
fill="black"
>
reserpine</text>



<rect
width="58.333333"
height="33.333333"
rx="3.333333"
ry="3.333333"
x="701.530077"
y="213.163757"
id="Protein_8c46f8717a1bff1a5f5d08e384d3e6ec"
style="fill:white;fill-opacity:1.000000;stroke:black;stroke-width:1.000000;stroke-opacity:1.000000" />


<text
x="730.696744"
y="231.830424"
id="Protein_8c46f8717a1bff1a5f5d08e384d3e6ec"
style="font-size:6.000000px;text-anchor:middle;font-family:Arial,Helvetica;alignment-baseline:baseline;stroke.opacity:1;dominant-baseline:baseline"
fill="black"
>
K+ channel</text>



<ellipse
rx="16.666667"
ry="16.666667"
cx="548.748830"
cy="272.593843"
id="SmallMolecule_cfac113d3f631c1b74d71632a722035a"
style="fill:white;fill-opacity:0.000000;stroke:black;stroke-width:1.000000;stroke-opacity:1.000000" />


<text
x="548.748830"
y="274.593843"
id="SmallMolecule_cfac113d3f631c1b74d71632a722035a"
style="font-size:6.000000px;text-anchor:middle;font-family:Arial,Helvetica;alignment-baseline:baseline;stroke.opacity:1;dominant-baseline:baseline"
fill="black"
>
5HT+</text>


<rect
width="16.666667"
height="16.666667"
rx="0.000000"
ry="0.000000"
x="504.479367"
y="326.113759"
id="TransportWithBiochemicalReaction_60b5b7915e799668b80ea2b93e7d7edc_LEFT_TO_RIGHT"
style="fill:white;fill-opacity:0.600000;stroke:black;stroke-width:1.000000;stroke-opacity:1.000000" />



<rect
width="16.666667"
height="16.666667"
rx="0.000000"
ry="0.000000"
x="746.090175"
y="323.634171"
id="TransportWithBiochemicalReaction_de55238991c4c44dc62d9218dcb7bcfd_LEFT_TO_RIGHT"
style="fill:white;fill-opacity:0.600000;stroke:black;stroke-width:1.000000;stroke-opacity:1.000000" />





<path d="M594.000000 287.000000 C 570.000000 301.000000, 537.000000 320.000000,521.000000 329.000000" stroke="black"  fill="transparent"/>

<line
x1="570" y1="301" x2="594" y2="287"
id="0"
style="stroke:black;stroke-width:1.000000;stroke-opacity:0" />


<line
x1="537" y1="320" x2="521" y2="329"
id="Protein_7a50a847a6805ddac4304035dd56b053--to--TransportWithBiochemicalReaction_60b5b7915e799668b80ea2b93e7d7edc_LEFT_TO_RIGHT"
style="stroke:black;stroke-width:1.000000;stroke-opacity:0" />


<polygon
points = "521,329 507.8,324.6 507.8,333.4"
id="line"
style="fill:white; stroke:#000000; stroke-width:1"
transform = "rotate(150.642246 521.000000 329.000000)"
/>


<path d="M604.000000 757.000000 C 591.000000 765.000000, 567.000000 780.000000,551.000000 790.000000" stroke="black"  fill="transparent"/>

<line
x1="591" y1="765" x2="604" y2="757"
id="0"
style="stroke:black;stroke-width:1.000000;stroke-opacity:0" />


<line
x1="567" y1="780" x2="551" y2="790"
id="TransportWithBiochemicalReaction_0c3b671a02a4e24a56badc49076ffa26_LEFT_TO_RIGHT-output--to--SmallMolecule_b0304d512b979a1eca48f865224c1055"
style="stroke:black;stroke-width:1.000000;stroke-opacity:0" />


<polygon
points = "551,790 542.2,785.6 542.2,794.4"
id="line"
style="fill:black; stroke:#000000; stroke-width:1"
transform = "rotate(147.994617 551.000000 790.000000)"
/>


<path d="M491.000000 565.000000 C 495.000000 554.000000, 501.000000 535.000000,507.000000 521.000000" stroke="black"  fill="transparent"/>

<line
x1="501" y1="535" x2="507" y2="521"
id="0"
style="stroke:black;stroke-width:1.000000;stroke-opacity:0" />


<line
x1="495" y1="554" x2="491" y2="565"
id="SmallMolecule_fd99ce3cbe50e6825c8918216b06b645--to--TransportWithBiochemicalReaction_6f89a3cbf8f4b3698b055d0a90ea94ee_LEFT_TO_RIGHT-input"
style="stroke:black;stroke-width:1.000000;stroke-opacity:0" />


<path d="M797.000000 284.000000 C 786.000000 296.000000, 771.000000 313.000000,762.000000 323.000000" stroke="black"  fill="transparent"/>

<line
x1="786" y1="296" x2="797" y2="284"
id="0"
style="stroke:black;stroke-width:1.000000;stroke-opacity:0" />


<line
x1="771" y1="313" x2="762" y2="323"
id="SmallMolecule_042c4b2867dd67705dcdf3560e02c09f--to--TransportWithBiochemicalReaction_de55238991c4c44dc62d9218dcb7bcfd_LEFT_TO_RIGHT-input"
style="stroke:black;stroke-width:1.000000;stroke-opacity:0" />


<path d="M510.000000 488.000000 C 507.000000 465.000000, 503.000000 424.000000,505.000000 388.000000" stroke="black"  fill="transparent"/>
<path d="M505.000000 388.000000 C 506.000000 372.000000, 509.000000 353.000000,511.000000 343.000000" stroke="black"  fill="transparent"/>

<line
x1="507" y1="465" x2="510" y2="488"
id="0"
style="stroke:black;stroke-width:1.000000;stroke-opacity:0" />


<line
x1="509" y1="353" x2="511" y2="343"
id="SmallMolecule_fd99ce3cbe50e6825c8918216b06b645--to--TransportWithBiochemicalReaction_60b5b7915e799668b80ea2b93e7d7edc_LEFT_TO_RIGHT-input"
style="stroke:black;stroke-width:1.000000;stroke-opacity:0" />


<path d="M454.000000 507.000000 C 463.000000 525.000000, 476.000000 551.000000,483.000000 565.000000" stroke="black"  fill="transparent"/>

<line
x1="476" y1="551" x2="483" y2="565"
id="0"
style="stroke:black;stroke-width:1.000000;stroke-opacity:0" />


<line
x1="463" y1="525" x2="454" y2="507"
id="TransportWithBiochemicalReaction_6f89a3cbf8f4b3698b055d0a90ea94ee_LEFT_TO_RIGHT-output--to--SmallMolecule_164c1995c3155a019059727b20a0f5e5"
style="stroke:black;stroke-width:1.000000;stroke-opacity:0" />


<polygon
points = "454,507 445.2,502.6 445.2,511.4"
id="line"
style="fill:black; stroke:#000000; stroke-width:1"
transform = "rotate(243.434949 454.000000 507.000000)"
/>


<path d="M539.000000 289.000000 C 532.000000 300.000000, 523.000000 316.000000,517.000000 325.000000" stroke="black"  fill="transparent"/>

<line
x1="523" y1="316" x2="517" y2="325"
id="0"
style="stroke:black;stroke-width:1.000000;stroke-opacity:0" />


<line
x1="532" y1="300" x2="539" y2="289"
id="TransportWithBiochemicalReaction_60b5b7915e799668b80ea2b93e7d7edc_LEFT_TO_RIGHT-output--to--SmallMolecule_cfac113d3f631c1b74d71632a722035a"
style="stroke:black;stroke-width:1.000000;stroke-opacity:0" />


<polygon
points = "539,289 530.2,284.6 530.2,293.4"
id="line"
style="fill:black; stroke:#000000; stroke-width:1"
transform = "rotate(-57.528808 539.000000 289.000000)"
/>


<path d="M734.000000 246.000000 C 739.000000 268.000000, 748.000000 306.000000,752.000000 323.000000" stroke="black"  fill="transparent"/>

<line
x1="739" y1="268" x2="734" y2="246"
id="0"
style="stroke:black;stroke-width:1.000000;stroke-opacity:0" />


<line
x1="748" y1="306" x2="752" y2="323"
id="Protein_8c46f8717a1bff1a5f5d08e384d3e6ec--to--TransportWithBiochemicalReaction_de55238991c4c44dc62d9218dcb7bcfd_LEFT_TO_RIGHT"
style="stroke:black;stroke-width:1.000000;stroke-opacity:0" />


<polygon
points = "752,323 738.8,318.6 738.8,327.4"
id="line"
style="fill:white; stroke:#000000; stroke-width:1"
transform = "rotate(76.759480 752.000000 323.000000)"
/>


<path d="M239.000000 307.000000 C 263.000000 313.000000, 294.000000 321.000000,310.000000 324.000000" stroke="black"  fill="transparent"/>

<line
x1="263" y1="313" x2="239" y2="307"
id="0"
style="stroke:black;stroke-width:1.000000;stroke-opacity:0" />


<line
x1="294" y1="321" x2="310" y2="324"
id="Protein_08ee29f28cbc6753841088dbce533ff1--to--TransportWithBiochemicalReaction_f7a2b303d066995aa8bf293283570028_LEFT_TO_RIGHT"
style="stroke:black;stroke-width:1.000000;stroke-opacity:0" />


<ellipse
rx="4.400000"
ry="4.400000"
cx="305.675362"
cy="323.189130"
id="Protein_08ee29f28cbc6753841088dbce533ff1--to--TransportWithBiochemicalReaction_f7a2b303d066995aa8bf293283570028_LEFT_TO_RIGHT"
style="fill:white;fill-opacity:0.800000;stroke:black;stroke-width:1.000000;stroke-opacity:1.000000" />


<path d="M327.000000 325.000000 C 361.000000 317.000000, 486.000000 287.000000,532.000000 276.000000" stroke="black"  fill="transparent"/>

<line
x1="486" y1="287" x2="532" y2="276"
id="0"
style="stroke:black;stroke-width:1.000000;stroke-opacity:0" />


<line
x1="361" y1="317" x2="327" y2="325"
id="SmallMolecule_cfac113d3f631c1b74d71632a722035a--to--TransportWithBiochemicalReaction_f7a2b303d066995aa8bf293283570028_LEFT_TO_RIGHT-input"
style="stroke:black;stroke-width:1.000000;stroke-opacity:0" />


<path d="M518.000000 590.000000 C 509.000000 585.000000, 502.000000 581.000000,496.000000 578.000000" stroke="black"  fill="transparent"/>

<line
x1="509" y1="585" x2="518" y2="590"
id="0"
style="stroke:black;stroke-width:1.000000;stroke-opacity:0" />


<line
x1="502" y1="581" x2="496" y2="578"
id="Complex_fb8b9741d084436db5a2575ff3bb97dd--to--TransportWithBiochemicalReaction_6f89a3cbf8f4b3698b055d0a90ea94ee_LEFT_TO_RIGHT"
style="stroke:black;stroke-width:1.000000;stroke-opacity:0" />


<polygon
points = "496,578 482.8,573.6 482.8,582.4"
id="line"
style="fill:white; stroke:#000000; stroke-width:1"
transform = "rotate(206.565051 496.000000 578.000000)"
/>


<path d="M260.000000 381.000000 C 276.000000 367.000000, 298.000000 346.000000,310.000000 335.000000" stroke="black"  fill="transparent"/>

<line
x1="298" y1="346" x2="310" y2="335"
id="0"
style="stroke:black;stroke-width:1.000000;stroke-opacity:0" />


<line
x1="276" y1="367" x2="260" y2="381"
id="TransportWithBiochemicalReaction_f7a2b303d066995aa8bf293283570028_LEFT_TO_RIGHT-output--to--SmallMolecule_805f8d9dc2575026390179f6c837f839"
style="stroke:black;stroke-width:1.000000;stroke-opacity:0" />


<polygon
points = "260,381 251.2,376.6 251.2,385.4"
id="line"
style="fill:black; stroke:#000000; stroke-width:1"
transform = "rotate(138.814075 260.000000 381.000000)"
/>


<path d="M169.000000 490.000000 C 193.000000 489.000000, 227.000000 487.000000,242.000000 487.000000" stroke="black"  fill="transparent"/>

<line
x1="193" y1="489" x2="169" y2="490"
id="0"
style="stroke:black;stroke-width:1.000000;stroke-opacity:0" />


<line
x1="227" y1="487" x2="242" y2="487"
id="Protein_d2666567fa1cd3089c4a9eca57d7a658--to--TransportWithBiochemicalReaction_6f95264406ef37ea13562d57e5c152ed_LEFT_TO_RIGHT"
style="stroke:black;stroke-width:1.000000;stroke-opacity:0" />


<polygon
points = "242,487 228.8,482.6 228.8,491.4"
id="line"
style="fill:white; stroke:#000000; stroke-width:1"
transform = "rotate(-0.000000 242.000000 487.000000)"
/>


<path d="M728.000000 564.000000 C 739.000000 574.000000, 757.000000 591.000000,770.000000 604.000000" stroke="black"  fill="transparent"/>

<line
x1="757" y1="591" x2="770" y2="604"
id="0"
style="stroke:black;stroke-width:1.000000;stroke-opacity:0" />


<line
x1="739" y1="574" x2="728" y2="564"
id="SmallMolecule_72f0135a4559bdd8d3f5b342f908e129--to--TransportWithBiochemicalReaction_0d70bd71a06cf3eda8233703c254c36e_LEFT_TO_RIGHT-input"
style="stroke:black;stroke-width:1.000000;stroke-opacity:0" />


<path d="M402.000000 513.000000 C 409.000000 501.000000, 418.000000 485.000000,426.000000 471.000000" stroke="black"  fill="transparent"/>
<path d="M426.000000 471.000000 C 455.000000 422.000000, 493.000000 364.000000,507.000000 343.000000" stroke="black"  fill="transparent"/>

<line
x1="409" y1="501" x2="402" y2="513"
id="0"
style="stroke:black;stroke-width:1.000000;stroke-opacity:0" />


<line
x1="493" y1="364" x2="507" y2="343"
id="SmallMolecule_1e12665a8938ad410046ca2830a35933--to--TransportWithBiochemicalReaction_60b5b7915e799668b80ea2b93e7d7edc_LEFT_TO_RIGHT-input"
style="stroke:black;stroke-width:1.000000;stroke-opacity:0" />


<path d="M712.000000 558.000000 C 690.000000 566.000000, 633.000000 585.000000,594.000000 598.000000" stroke="black"  fill="transparent"/>

<line
x1="633" y1="585" x2="594" y2="598"
id="0"
style="stroke:black;stroke-width:1.000000;stroke-opacity:0" />


<line
x1="690" y1="566" x2="712" y2="558"
id="Complex_fb8b9741d084436db5a2575ff3bb97dd--to--TransportWithBiochemicalReaction_0d70bd71a06cf3eda8233703c254c36e_LEFT_TO_RIGHT"
style="stroke:black;stroke-width:1.000000;stroke-opacity:0" />


<polygon
points = "712,558 698.8,553.6 698.8,562.4"
id="line"
style="fill:white; stroke:#000000; stroke-width:1"
transform = "rotate(-19.983107 712.000000 558.000000)"
/>


<path d="M637.000000 814.000000 C 631.000000 798.000000, 621.000000 774.000000,616.000000 761.000000" stroke="black"  fill="transparent"/>

<line
x1="631" y1="798" x2="637" y2="814"
id="0"
style="stroke:black;stroke-width:1.000000;stroke-opacity:0" />


<line
x1="621" y1="774" x2="616" y2="761"
id="SmallMolecule_c51d3df91f4fc90a3bdcd0524aa3d364--to--TransportWithBiochemicalReaction_0c3b671a02a4e24a56badc49076ffa26_LEFT_TO_RIGHT-input"
style="stroke:black;stroke-width:1.000000;stroke-opacity:0" />


<path d="M575.000000 658.000000 C 587.000000 689.000000, 602.000000 727.000000,609.000000 744.000000" stroke="black"  fill="transparent"/>

<line
x1="587" y1="689" x2="575" y2="658"
id="0"
style="stroke:black;stroke-width:1.000000;stroke-opacity:0" />


<line
x1="602" y1="727" x2="609" y2="744"
id="Complex_fb8b9741d084436db5a2575ff3bb97dd--to--TransportWithBiochemicalReaction_0c3b671a02a4e24a56badc49076ffa26_LEFT_TO_RIGHT"
style="stroke:black;stroke-width:1.000000;stroke-opacity:0" />


<polygon
points = "609,744 595.8,739.6 595.8,748.4"
id="line"
style="fill:white; stroke:#000000; stroke-width:1"
transform = "rotate(67.619865 609.000000 744.000000)"
/>


<path d="M467.000000 619.000000 C 478.000000 618.000000, 499.000000 616.000000,518.000000 615.000000" stroke="black"  fill="transparent"/>

<line
x1="478" y1="618" x2="467" y2="619"
id="0"
style="stroke:black;stroke-width:1.000000;stroke-opacity:0" />


<line
x1="499" y1="616" x2="518" y2="615"
id="ComplexAssembly_5eb9db8980dc100cc0cdbefc32528b07_LEFT_TO_RIGHT-output--to--Complex_fb8b9741d084436db5a2575ff3bb97dd"
style="stroke:black;stroke-width:1.000000;stroke-opacity:0" />


<polygon
points = "518,615 509.2,610.6 509.2,619.4"
id="line"
style="fill:black; stroke:#000000; stroke-width:1"
transform = "rotate(-3.012788 518.000000 615.000000)"
/>


<path d="M245.000000 414.000000 C 247.000000 433.000000, 249.000000 463.000000,250.000000 478.000000" stroke="black"  fill="transparent"/>

<line
x1="247" y1="433" x2="245" y2="414"
id="0"
style="stroke:black;stroke-width:1.000000;stroke-opacity:0" />


<line
x1="249" y1="463" x2="250" y2="478"
id="SmallMolecule_805f8d9dc2575026390179f6c837f839--to--TransportWithBiochemicalReaction_6f95264406ef37ea13562d57e5c152ed_LEFT_TO_RIGHT-input"
style="stroke:black;stroke-width:1.000000;stroke-opacity:0" />


<path d="M385.000000 208.000000 C 416.000000 239.000000, 481.000000 303.000000,504.000000 326.000000" stroke="black"  fill="transparent"/>

<line
x1="416" y1="239" x2="385" y2="208"
id="0"
style="stroke:black;stroke-width:1.000000;stroke-opacity:0" />


<line
x1="481" y1="303" x2="504" y2="326"
id="SmallMolecule_c7bf06a830dcba90d0c9a2ad5fd90274--to--TransportWithBiochemicalReaction_60b5b7915e799668b80ea2b93e7d7edc_LEFT_TO_RIGHT-input"
style="stroke:black;stroke-width:1.000000;stroke-opacity:0" />


<path d="M451.000000 629.000000 C 440.000000 641.000000, 420.000000 662.000000,406.000000 677.000000" stroke="black"  fill="transparent"/>

<line
x1="420" y1="662" x2="406" y2="677"
id="0"
style="stroke:black;stroke-width:1.000000;stroke-opacity:0" />


<line
x1="440" y1="641" x2="451" y2="629"
id="SmallMolecule_90964af3a306e5de9c77893837fe37f7--to--ComplexAssembly_5eb9db8980dc100cc0cdbefc32528b07_LEFT_TO_RIGHT"
style="stroke:black;stroke-width:1.000000;stroke-opacity:0" />


<path
d="M 447 622.4 447 635.6"
id="SmallMolecule_90964af3a306e5de9c77893837fe37f7--to--ComplexAssembly_5eb9db8980dc100cc0cdbefc32528b07_LEFT_TO_RIGHT"
style="fill:black;fill-opacity:0.600000;stroke-width:1;stroke:black;stroke-opacity:1.000000"
transform = "rotate(-47.489553 451.000000 629.000000)"
/>


<path d="M537.000000 227.000000 C 534.000000 235.000000, 531.000000 244.000000,529.000000 252.000000" stroke="black"  fill="transparent"/>
<path d="M529.000000 252.000000 C 522.000000 279.000000, 516.000000 310.000000,514.000000 325.000000" stroke="black"  fill="transparent"/>

<line
x1="516" y1="310" x2="514" y2="325"
id="0"
style="stroke:black;stroke-width:1.000000;stroke-opacity:0" />


<line
x1="534" y1="235" x2="537" y2="227"
id="TransportWithBiochemicalReaction_60b5b7915e799668b80ea2b93e7d7edc_LEFT_TO_RIGHT-output--to--SmallMolecule_1001e1fb13025a56e761165c244fc5ac"
style="stroke:black;stroke-width:1.000000;stroke-opacity:0" />


<polygon
points = "537,227 528.2,222.6 528.2,231.4"
id="line"
style="fill:black; stroke:#000000; stroke-width:1"
transform = "rotate(-69.443955 537.000000 227.000000)"
/>


<path d="M327.000000 330.000000 C 358.000000 342.000000, 466.000000 385.000000,508.000000 401.000000" stroke="black"  fill="transparent"/>

<line
x1="466" y1="385" x2="508" y2="401"
id="0"
style="stroke:black;stroke-width:1.000000;stroke-opacity:0" />


<line
x1="358" y1="342" x2="327" y2="330"
id="SmallMolecule_e08c222e4cb8cd075ca97b0a5a5af4b7--to--TransportWithBiochemicalReaction_f7a2b303d066995aa8bf293283570028_LEFT_TO_RIGHT"
style="stroke:black;stroke-width:1.000000;stroke-opacity:0" />


<path
d="M 331 323.4 331 336.6"
id="SmallMolecule_e08c222e4cb8cd075ca97b0a5a5af4b7--to--TransportWithBiochemicalReaction_f7a2b303d066995aa8bf293283570028_LEFT_TO_RIGHT"
style="fill:black;fill-opacity:0.600000;stroke-width:1;stroke:black;stroke-opacity:1.000000"
transform = "rotate(21.161260 327.000000 330.000000)"
/>


<path d="M377.000000 525.000000 C 347.000000 515.000000, 283.000000 496.000000,260.000000 489.000000" stroke="black"  fill="transparent"/>

<line
x1="283" y1="496" x2="260" y2="489"
id="0"
style="stroke:black;stroke-width:1.000000;stroke-opacity:0" />


<line
x1="347" y1="515" x2="377" y2="525"
id="TransportWithBiochemicalReaction_6f95264406ef37ea13562d57e5c152ed_LEFT_TO_RIGHT-output--to--SmallMolecule_1e12665a8938ad410046ca2830a35933"
style="stroke:black;stroke-width:1.000000;stroke-opacity:0" />


<polygon
points = "377,525 368.2,520.6 368.2,529.4"
id="line"
style="fill:black; stroke:#000000; stroke-width:1"
transform = "rotate(18.434949 377.000000 525.000000)"
/>


<path d="M405.000000 546.000000 C 419.000000 565.000000, 442.000000 596.000000,453.000000 611.000000" stroke="black"  fill="transparent"/>

<line
x1="419" y1="565" x2="405" y2="546"
id="0"
style="stroke:black;stroke-width:1.000000;stroke-opacity:0" />


<line
x1="442" y1="596" x2="453" y2="611"
id="SmallMolecule_1e12665a8938ad410046ca2830a35933--to--ComplexAssembly_5eb9db8980dc100cc0cdbefc32528b07_LEFT_TO_RIGHT-input"
style="stroke:black;stroke-width:1.000000;stroke-opacity:0" />


<path d="M488.000000 275.000000 C 495.000000 291.000000, 504.000000 313.000000,509.000000 325.000000" stroke="black"  fill="transparent"/>

<line
x1="495" y1="291" x2="488" y2="275"
id="0"
style="stroke:black;stroke-width:1.000000;stroke-opacity:0" />


<line
x1="504" y1="313" x2="509" y2="325"
id="SmallMolecule_450cd2183eecd45c5c67ab7e6215b7a7--to--TransportWithBiochemicalReaction_60b5b7915e799668b80ea2b93e7d7edc_LEFT_TO_RIGHT"
style="stroke:black;stroke-width:1.000000;stroke-opacity:0" />


<path
d="M 505 318.4 505 331.6"
id="SmallMolecule_450cd2183eecd45c5c67ab7e6215b7a7--to--TransportWithBiochemicalReaction_60b5b7915e799668b80ea2b93e7d7edc_LEFT_TO_RIGHT"
style="fill:black;fill-opacity:0.600000;stroke-width:1;stroke:black;stroke-opacity:1.000000"
transform = "rotate(67.380135 509.000000 325.000000)"
/>


<path d="M451.000000 620.000000 C 437.000000 620.000000, 408.000000 619.000000,389.000000 619.000000" stroke="black"  fill="transparent"/>

<line
x1="408" y1="619" x2="389" y2="619"
id="0"
style="stroke:black;stroke-width:1.000000;stroke-opacity:0" />


<line
x1="437" y1="620" x2="451" y2="620"
id="SmallMolecule_0e4aca59c0666588490ec3d9eb386636--to--ComplexAssembly_5eb9db8980dc100cc0cdbefc32528b07_LEFT_TO_RIGHT"
style="stroke:black;stroke-width:1.000000;stroke-opacity:0" />


<path
d="M 447 613.4 447 626.6"
id="SmallMolecule_0e4aca59c0666588490ec3d9eb386636--to--ComplexAssembly_5eb9db8980dc100cc0cdbefc32528b07_LEFT_TO_RIGHT"
style="fill:black;fill-opacity:0.600000;stroke-width:1;stroke:black;stroke-opacity:1.000000"
transform = "rotate(-0.000000 451.000000 620.000000)"
/>


<path d="M729.000000 551.000000 C 742.000000 544.000000, 770.000000 529.000000,787.000000 520.000000" stroke="black"  fill="transparent"/>

<line
x1="742" y1="544" x2="729" y2="551"
id="0"
style="stroke:black;stroke-width:1.000000;stroke-opacity:0" />


<line
x1="770" y1="529" x2="787" y2="520"
id="TransportWithBiochemicalReaction_0d70bd71a06cf3eda8233703c254c36e_LEFT_TO_RIGHT-output--to--SmallMolecule_b30424a9f43724f9071bd3604ea53258"
style="stroke:black;stroke-width:1.000000;stroke-opacity:0" />


<polygon
points = "787,520 778.2,515.6 778.2,524.4"
id="line"
style="fill:black; stroke:#000000; stroke-width:1"
transform = "rotate(-27.897271 787.000000 520.000000)"
/>


<path d="M586.000000 345.000000 C 567.000000 342.000000, 536.000000 338.000000,521.000000 335.000000" stroke="black"  fill="transparent"/>

<line
x1="536" y1="338" x2="521" y2="335"
id="0"
style="stroke:black;stroke-width:1.000000;stroke-opacity:0" />


<line
x1="567" y1="342" x2="586" y2="345"
id="TransportWithBiochemicalReaction_60b5b7915e799668b80ea2b93e7d7edc_LEFT_TO_RIGHT-output--to--SmallMolecule_528e4d8ee3f3aea82fbe25cc980c33c9"
style="stroke:black;stroke-width:1.000000;stroke-opacity:0" />


<polygon
points = "586,345 577.2,340.6 577.2,349.4"
id="line"
style="fill:black; stroke:#000000; stroke-width:1"
transform = "rotate(8.972627 586.000000 345.000000)"
/>


<path d="M799.000000 494.000000 C 789.000000 457.000000, 764.000000 368.000000,756.000000 340.000000" stroke="black"  fill="transparent"/>

<line
x1="764" y1="368" x2="756" y2="340"
id="0"
style="stroke:black;stroke-width:1.000000;stroke-opacity:0" />


<line
x1="789" y1="457" x2="799" y2="494"
id="TransportWithBiochemicalReaction_de55238991c4c44dc62d9218dcb7bcfd_LEFT_TO_RIGHT-output--to--SmallMolecule_b30424a9f43724f9071bd3604ea53258"
style="stroke:black;stroke-width:1.000000;stroke-opacity:0" />


<polygon
points = "799,494 790.2,489.6 790.2,498.4"
id="line"
style="fill:black; stroke:#000000; stroke-width:1"
transform = "rotate(74.875993 799.000000 494.000000)"
/>


<path d="M476.000000 685.000000 C 471.000000 668.000000, 465.000000 643.000000,461.000000 629.000000" stroke="black"  fill="transparent"/>

<line
x1="471" y1="668" x2="476" y2="685"
id="0"
style="stroke:black;stroke-width:1.000000;stroke-opacity:0" />


<line
x1="465" y1="643" x2="461" y2="629"
id="Protein_e698f77e33d0402f4af9bb0da9c8de84--to--ComplexAssembly_5eb9db8980dc100cc0cdbefc32528b07_LEFT_TO_RIGHT-input"
style="stroke:black;stroke-width:1.000000;stroke-opacity:0" />



</svg>
