<?xml version="1.0" encoding="UTF-8"?>
<svg width="754.722894" height="849.532341"
xmlns="http://www.w3.org/2000/svg" xmlns:svg="http://www.w3.org/2000/svg"
>
<metadata id="metadata7">image/svg+xml</metadata>

<rect
width="324.722894"
height="219.012303"
rx="11.000000"
ry="11.000000"
x="100.000000"
y="183.000000"
id="cytosol"
style="fill:white;fill-opacity:0.900000;stroke:black;stroke-width:5.000000;stroke-opacity:1.000000" />


<text
x="262.361447"
y="175.000000"
id="cytosol"
style="font-size:6.000000px;text-anchor:middle;font-family:Arial,Helvetica;alignment-baseline:baseline;stroke.opacity:1;dominant-baseline:baseline"
fill="black"
>
cytosol</text>


<rect
width="256.957386"
height="187.564773"
rx="11.000000"
ry="11.000000"
x="127.456597"
y="461.967568"
id="mitochondrial_outer_membrane"
style="fill:white;fill-opacity:0.900000;stroke:black;stroke-width:5.000000;stroke-opacity:1.000000" />


<text
x="255.935290"
y="453.967568"
id="mitochondrial_outer_membrane"
style="font-size:6.000000px;text-anchor:middle;font-family:Arial,Helvetica;alignment-baseline:baseline;stroke.opacity:1;dominant-baseline:baseline"
fill="black"
>
mitochondrial outer membrane</text>



<path
d="M 138.456596794539 551.015674180257 138.456596794539 633.032340846924 143.956596794539 638.532340846924 208.889930127872 638.532340846924 214.389930127872 633.032340846924 214.389930127872 551.015674180257 208.889930127872 545.515674180257 143.956596794539 545.515674180257 Z"
id="Complex_a0e55c1397526b7e3761a7af0f9f9159"
style="fill:white;fill-opacity:0.600000;stroke-width:1;stroke:black;stroke-opacity:1.000000"
transform = "rotate(0.000000 0.000000 0.000000)"
/>


<text
x="176.423263"
y="537.515674"
id="Complex_a0e55c1397526b7e3761a7af0f9f9159"
style="font-size:6.000000px;text-anchor:middle;font-family:Arial,Helvetica;alignment-baseline:baseline;stroke.opacity:1;dominant-baseline:baseline"
fill="black"
>
MAOB:FAD</text>


<path
d="M 297.480649403786 484.467567537205 297.480649403786 566.484234203871 302.980649403786 571.984234203871 367.913982737119 571.984234203871 373.413982737119 566.484234203871 373.413982737119 484.467567537205 367.913982737119 478.967567537205 302.980649403786 478.967567537205 Z"
id="Complex_c99741b8b6cd9d5d65c1ee3d5ac555b1"
style="fill:white;fill-opacity:0.600000;stroke-width:1;stroke:black;stroke-opacity:1.000000"
transform = "rotate(0.000000 0.000000 0.000000)"
/>


<text
x="335.447316"
y="470.967568"
id="Complex_c99741b8b6cd9d5d65c1ee3d5ac555b1"
style="font-size:6.000000px;text-anchor:middle;font-family:Arial,Helvetica;alignment-baseline:baseline;stroke.opacity:1;dominant-baseline:baseline"
fill="black"
>
MAOA:FAD</text>




<ellipse
rx="16.666667"
ry="16.666667"
cx="312.059444"
cy="374.345637"
id="SmallMolecule_7d6531c641be89956ba700236e7101ef"
style="fill:white;fill-opacity:0.000000;stroke:black;stroke-width:1.000000;stroke-opacity:1.000000" />


<text
x="312.059444"
y="376.345637"
id="SmallMolecule_7d6531c641be89956ba700236e7101ef"
style="font-size:6.000000px;text-anchor:middle;font-family:Arial,Helvetica;alignment-baseline:baseline;stroke.opacity:1;dominant-baseline:baseline"
fill="black"
>
H2O2</text>



<ellipse
rx="16.666667"
ry="16.666667"
cx="397.056227"
cy="331.906435"
id="SmallMolecule_dafcb35dee83ff19c0b0bfee1b836830"
style="fill:white;fill-opacity:0.000000;stroke:black;stroke-width:1.000000;stroke-opacity:1.000000" />


<text
x="397.056227"
y="333.906435"
id="SmallMolecule_dafcb35dee83ff19c0b0bfee1b836830"
style="font-size:6.000000px;text-anchor:middle;font-family:Arial,Helvetica;alignment-baseline:baseline;stroke.opacity:1;dominant-baseline:baseline"
fill="black"
>
5HT</text>



<ellipse
rx="16.666667"
ry="16.666667"
cx="254.497082"
cy="350.129100"
id="SmallMolecule_c0ca28dffc1509687ca5f0eb4e5e97d9"
style="fill:white;fill-opacity:0.000000;stroke:black;stroke-width:1.000000;stroke-opacity:1.000000" />



<text
x="254.497082"
y="349.129100"
id="SmallMolecule_c0ca28dffc1509687ca5f0eb4e5e97d9"
style="font-size:6.000000px;text-anchor:middle;font-family:Arial,Helvetica;alignment-baseline:baseline;stroke.opacity:1;dominant-baseline:baseline"
fill="black"
>
Phenylaceta-</text>


<text
x="254.497082"
y="355.129100"
id="SmallMolecule_c0ca28dffc1509687ca5f0eb4e5e97d9"
style="font-size:6.000000px;text-anchor:middle;font-family:Arial,Helvetica;alignment-baseline:baseline;stroke.opacity:1;dominant-baseline:baseline"
fill="black"
>
ldehyde</text>



<ellipse
rx="16.666667"
ry="16.666667"
cx="131.845237"
cy="312.250814"
id="SmallMolecule_a8490e7c3d433e2df23626863ae416ed"
style="fill:white;fill-opacity:0.000000;stroke:black;stroke-width:1.000000;stroke-opacity:1.000000" />


<text
x="131.845237"
y="314.250814"
id="SmallMolecule_a8490e7c3d433e2df23626863ae416ed"
style="font-size:6.000000px;text-anchor:middle;font-family:Arial,Helvetica;alignment-baseline:baseline;stroke.opacity:1;dominant-baseline:baseline"
fill="black"
>
TYR</text>



<ellipse
rx="16.666667"
ry="16.666667"
cx="204.484232"
cy="367.660690"
id="SmallMolecule_1ced3848a2a902870840337ecdb00d4c"
style="fill:white;fill-opacity:0.000000;stroke:black;stroke-width:1.000000;stroke-opacity:1.000000" />


<text
x="204.484232"
y="369.660690"
id="SmallMolecule_1ced3848a2a902870840337ecdb00d4c"
style="font-size:6.000000px;text-anchor:middle;font-family:Arial,Helvetica;alignment-baseline:baseline;stroke.opacity:1;dominant-baseline:baseline"
fill="black"
>
NH3</text>



<ellipse
rx="16.666667"
ry="16.666667"
cx="317.521122"
cy="224.626297"
id="SmallMolecule_bfe0d4cd6c12bac80101dff1b5e1f783"
style="fill:white;fill-opacity:0.000000;stroke:black;stroke-width:1.000000;stroke-opacity:1.000000" />


<text
x="317.521122"
y="226.626297"
id="SmallMolecule_bfe0d4cd6c12bac80101dff1b5e1f783"
style="font-size:6.000000px;text-anchor:middle;font-family:Arial,Helvetica;alignment-baseline:baseline;stroke.opacity:1;dominant-baseline:baseline"
fill="black"
>
H2O</text>



<ellipse
rx="16.666667"
ry="16.666667"
cx="391.725313"
cy="241.412529"
id="SmallMolecule_2e3f44ae38806b7e8a0f1ca9d217b2b5"
style="fill:white;fill-opacity:0.000000;stroke:black;stroke-width:1.000000;stroke-opacity:1.000000" />


<text
x="391.725313"
y="243.412529"
id="SmallMolecule_2e3f44ae38806b7e8a0f1ca9d217b2b5"
style="font-size:6.000000px;text-anchor:middle;font-family:Arial,Helvetica;alignment-baseline:baseline;stroke.opacity:1;dominant-baseline:baseline"
fill="black"
>
5HIALD</text>



<ellipse
rx="16.666667"
ry="16.666667"
cx="127.666667"
cy="239.546372"
id="SmallMolecule_b5beda4e88a2d2c40ca44a6a436f06a5"
style="fill:white;fill-opacity:0.000000;stroke:black;stroke-width:1.000000;stroke-opacity:1.000000" />


<text
x="127.666667"
y="241.546372"
id="SmallMolecule_b5beda4e88a2d2c40ca44a6a436f06a5"
style="font-size:6.000000px;text-anchor:middle;font-family:Arial,Helvetica;alignment-baseline:baseline;stroke.opacity:1;dominant-baseline:baseline"
fill="black"
>
HPHAC</text>



<ellipse
rx="16.666667"
ry="16.666667"
cx="257.152848"
cy="210.666667"
id="SmallMolecule_6f5aca45478229c260a507647b0a7d2b"
style="fill:white;fill-opacity:0.000000;stroke:black;stroke-width:1.000000;stroke-opacity:1.000000" />


<text
x="257.152848"
y="212.666667"
id="SmallMolecule_6f5aca45478229c260a507647b0a7d2b"
style="font-size:6.000000px;text-anchor:middle;font-family:Arial,Helvetica;alignment-baseline:baseline;stroke.opacity:1;dominant-baseline:baseline"
fill="black"
>
O2</text>



<ellipse
rx="16.666667"
ry="16.666667"
cx="191.871211"
cy="215.781916"
id="SmallMolecule_037008728bcfc5d9b57a5392c13e20ee"
style="fill:white;fill-opacity:0.000000;stroke:black;stroke-width:1.000000;stroke-opacity:1.000000" />


<text
x="191.871211"
y="217.781916"
id="SmallMolecule_037008728bcfc5d9b57a5392c13e20ee"
style="font-size:6.000000px;text-anchor:middle;font-family:Arial,Helvetica;alignment-baseline:baseline;stroke.opacity:1;dominant-baseline:baseline"
fill="black"
>
PEA</text>


<rect
width="16.666667"
height="16.666667"
rx="0.000000"
ry="0.000000"
x="306.557458"
y="297.620541"
id="reactome_R-HSA-141186_LEFT_TO_RIGHT"
style="fill:white;fill-opacity:0.600000;stroke:black;stroke-width:1.000000;stroke-opacity:1.000000" />



<rect
width="16.666667"
height="16.666667"
rx="0.000000"
ry="0.000000"
x="216.326042"
y="285.222643"
id="reactome_R-HSA-141202_LEFT_TO_RIGHT"
style="fill:white;fill-opacity:0.600000;stroke:black;stroke-width:1.000000;stroke-opacity:1.000000" />



<rect
width="16.666667"
height="16.666667"
rx="0.000000"
ry="0.000000"
x="257.818418"
y="280.397784"
id="reactome_R-HSA-141200_LEFT_TO_RIGHT"
style="fill:white;fill-opacity:0.600000;stroke:black;stroke-width:1.000000;stroke-opacity:1.000000" />




<rect
width="58.333333"
height="33.333333"
rx="3.333333"
ry="3.333333"
x="147.256597"
y="554.315674"
id="Protein_73ed3ebcb2485a4762ef212ad649525d_Complex_a0e55c1397526b7e3761a7af0f9f9159"
style="fill:white;fill-opacity:1.000000;stroke:black;stroke-width:1.000000;stroke-opacity:1.000000" />


<text
x="176.423263"
y="572.982341"
id="Protein_73ed3ebcb2485a4762ef212ad649525d_Complex_a0e55c1397526b7e3761a7af0f9f9159"
style="font-size:6.000000px;text-anchor:middle;font-family:Arial,Helvetica;alignment-baseline:baseline;stroke.opacity:1;dominant-baseline:baseline"
fill="black"
>
MAOB</text>


<ellipse
rx="14.583333"
ry="7.291667"
cx="161.839930"
cy="554.315674"
id="Protein_73ed3ebcb2485a4762ef212ad649525d_Complex_a0e55c1397526b7e3761a7af0f9f9159.info.1"
style="fill:white;fill-opacity:1.000000;stroke:black;stroke-width:1.000000;stroke-opacity:1.000000" />


<text
x="161.839930"
y="556.315674"
id="Protein_73ed3ebcb2485a4762ef212ad649525d_Complex_a0e55c1397526b7e3761a7af0f9f9159.info.1"
style="font-size:6.000000px;text-anchor:middle;font-family:Arial,Helvetica;alignment-baseline:baseline;stroke.opacity:1;dominant-baseline:baseline"
fill="black"
>
x[2-520]</text>



<ellipse
rx="16.666667"
ry="16.666667"
cx="163.923263"
cy="613.065674"
id="SmallMolecule_677cee9e2359ba9c78b0f83631269412_Complex_a0e55c1397526b7e3761a7af0f9f9159"
style="fill:white;fill-opacity:0.000000;stroke:black;stroke-width:1.000000;stroke-opacity:1.000000" />


<text
x="163.923263"
y="615.065674"
id="SmallMolecule_677cee9e2359ba9c78b0f83631269412_Complex_a0e55c1397526b7e3761a7af0f9f9159"
style="font-size:6.000000px;text-anchor:middle;font-family:Arial,Helvetica;alignment-baseline:baseline;stroke.opacity:1;dominant-baseline:baseline"
fill="black"
>
FAD</text>



<ellipse
rx="16.666667"
ry="16.666667"
cx="322.947316"
cy="546.517568"
id="SmallMolecule_677cee9e2359ba9c78b0f83631269412_Complex_c99741b8b6cd9d5d65c1ee3d5ac555b1"
style="fill:white;fill-opacity:0.000000;stroke:black;stroke-width:1.000000;stroke-opacity:1.000000" />


<text
x="322.947316"
y="548.517568"
id="SmallMolecule_677cee9e2359ba9c78b0f83631269412_Complex_c99741b8b6cd9d5d65c1ee3d5ac555b1"
style="font-size:6.000000px;text-anchor:middle;font-family:Arial,Helvetica;alignment-baseline:baseline;stroke.opacity:1;dominant-baseline:baseline"
fill="black"
>
FAD</text>



<rect
width="58.333333"
height="33.333333"
rx="3.333333"
ry="3.333333"
x="306.280649"
y="487.767568"
id="Protein_ea71ec75f9862832240fec5128da1595_Complex_c99741b8b6cd9d5d65c1ee3d5ac555b1"
style="fill:white;fill-opacity:1.000000;stroke:black;stroke-width:1.000000;stroke-opacity:1.000000" />


<text
x="335.447316"
y="506.434234"
id="Protein_ea71ec75f9862832240fec5128da1595_Complex_c99741b8b6cd9d5d65c1ee3d5ac555b1"
style="font-size:6.000000px;text-anchor:middle;font-family:Arial,Helvetica;alignment-baseline:baseline;stroke.opacity:1;dominant-baseline:baseline"
fill="black"
>
MAOA</text>


<ellipse
rx="14.583333"
ry="7.291667"
cx="320.863983"
cy="487.767568"
id="Protein_ea71ec75f9862832240fec5128da1595_Complex_c99741b8b6cd9d5d65c1ee3d5ac555b1.info.1"
style="fill:white;fill-opacity:1.000000;stroke:black;stroke-width:1.000000;stroke-opacity:1.000000" />


<text
x="320.863983"
y="489.767568"
id="Protein_ea71ec75f9862832240fec5128da1595_Complex_c99741b8b6cd9d5d65c1ee3d5ac555b1.info.1"
style="font-size:6.000000px;text-anchor:middle;font-family:Arial,Helvetica;alignment-baseline:baseline;stroke.opacity:1;dominant-baseline:baseline"
fill="black"
>
x[1-527]</text>




<path d="M303.000000 357.000000 C 293.000000 339.000000, 278.000000 311.000000,270.000000 297.000000" stroke="black"  fill="transparent"/>

<line
x1="278" y1="311" x2="270" y2="297"
id="0"
style="stroke:black;stroke-width:1.000000;stroke-opacity:0" />


<line
x1="293" y1="339" x2="303" y2="357"
id="reactome_R-HSA-141200_LEFT_TO_RIGHT-output--to--SmallMolecule_7d6531c641be89956ba700236e7101ef"
style="stroke:black;stroke-width:1.000000;stroke-opacity:0" />


<polygon
points = "303,357 294.2,352.6 294.2,361.4"
id="line"
style="fill:black; stroke:#000000; stroke-width:1"
transform = "rotate(60.945396 303.000000 357.000000)"
/>


<path d="M257.000000 297.000000 C 250.000000 305.000000, 240.000000 317.000000,234.000000 330.000000" stroke="black"  fill="transparent"/>
<path d="M234.000000 330.000000 C 224.000000 353.000000, 229.000000 362.000000,224.000000 387.000000" stroke="black"  fill="transparent"/>
<path d="M224.000000 387.000000 C 212.000000 441.000000, 197.000000 504.000000,187.000000 545.000000" stroke="black"  fill="transparent"/>

<line
x1="197" y1="504" x2="187" y2="545"
id="0"
style="stroke:black;stroke-width:1.000000;stroke-opacity:0" />


<line
x1="250" y1="305" x2="257" y2="297"
id="Complex_a0e55c1397526b7e3761a7af0f9f9159--to--reactome_R-HSA-141200_LEFT_TO_RIGHT"
style="stroke:black;stroke-width:1.000000;stroke-opacity:0" />


<ellipse
rx="4.400000"
ry="4.400000"
cx="254.102580"
cy="300.311337"
id="Complex_a0e55c1397526b7e3761a7af0f9f9159--to--reactome_R-HSA-141200_LEFT_TO_RIGHT"
style="fill:white;fill-opacity:0.800000;stroke:black;stroke-width:1.000000;stroke-opacity:1.000000" />


<path d="M148.000000 308.000000 C 168.000000 304.000000, 200.000000 298.000000,216.000000 295.000000" stroke="black"  fill="transparent"/>

<line
x1="168" y1="304" x2="148" y2="308"
id="0"
style="stroke:black;stroke-width:1.000000;stroke-opacity:0" />


<line
x1="200" y1="298" x2="216" y2="295"
id="SmallMolecule_a8490e7c3d433e2df23626863ae416ed--to--reactome_R-HSA-141202_LEFT_TO_RIGHT-input"
style="stroke:black;stroke-width:1.000000;stroke-opacity:0" />


<path d="M299.000000 357.000000 C 292.000000 349.000000, 283.000000 338.000000,274.000000 330.000000" stroke="black"  fill="transparent"/>
<path d="M274.000000 330.000000 C 261.000000 318.000000, 243.000000 306.000000,233.000000 299.000000" stroke="black"  fill="transparent"/>

<line
x1="243" y1="306" x2="233" y2="299"
id="0"
style="stroke:black;stroke-width:1.000000;stroke-opacity:0" />


<line
x1="292" y1="349" x2="299" y2="357"
id="reactome_R-HSA-141202_LEFT_TO_RIGHT-output--to--SmallMolecule_7d6531c641be89956ba700236e7101ef"
style="stroke:black;stroke-width:1.000000;stroke-opacity:0" />


<polygon
points = "299,357 290.2,352.6 290.2,361.4"
id="line"
style="fill:black; stroke:#000000; stroke-width:1"
transform = "rotate(48.814075 299.000000 357.000000)"
/>


<path d="M375.000000 255.000000 C 359.000000 268.000000, 335.000000 288.000000,323.000000 298.000000" stroke="black"  fill="transparent"/>

<line
x1="335" y1="288" x2="323" y2="298"
id="0"
style="stroke:black;stroke-width:1.000000;stroke-opacity:0" />


<line
x1="359" y1="268" x2="375" y2="255"
id="reactome_R-HSA-141186_LEFT_TO_RIGHT-output--to--SmallMolecule_2e3f44ae38806b7e8a0f1ca9d217b2b5"
style="stroke:black;stroke-width:1.000000;stroke-opacity:0" />


<polygon
points = "375,255 366.2,250.6 366.2,259.4"
id="line"
style="fill:black; stroke:#000000; stroke-width:1"
transform = "rotate(-39.093859 375.000000 255.000000)"
/>


<path d="M225.000000 302.000000 C 226.000000 318.000000, 227.000000 356.000000,224.000000 387.000000" stroke="black"  fill="transparent"/>
<path d="M224.000000 387.000000 C 217.000000 442.000000, 202.000000 504.000000,190.000000 545.000000" stroke="black"  fill="transparent"/>

<line
x1="202" y1="504" x2="190" y2="545"
id="0"
style="stroke:black;stroke-width:1.000000;stroke-opacity:0" />


<line
x1="226" y1="318" x2="225" y2="302"
id="Complex_a0e55c1397526b7e3761a7af0f9f9159--to--reactome_R-HSA-141202_LEFT_TO_RIGHT"
style="stroke:black;stroke-width:1.000000;stroke-opacity:0" />


<ellipse
rx="4.400000"
ry="4.400000"
cx="225.274464"
cy="306.391431"
id="Complex_a0e55c1397526b7e3761a7af0f9f9159--to--reactome_R-HSA-141202_LEFT_TO_RIGHT"
style="fill:white;fill-opacity:0.800000;stroke:black;stroke-width:1.000000;stroke-opacity:1.000000" />


<path d="M259.000000 227.000000 C 260.000000 243.000000, 263.000000 267.000000,265.000000 279.000000" stroke="black"  fill="transparent"/>

<line
x1="260" y1="243" x2="259" y2="227"
id="0"
style="stroke:black;stroke-width:1.000000;stroke-opacity:0" />


<line
x1="263" y1="267" x2="265" y2="279"
id="SmallMolecule_6f5aca45478229c260a507647b0a7d2b--to--reactome_R-HSA-141200_LEFT_TO_RIGHT-input"
style="stroke:black;stroke-width:1.000000;stroke-opacity:0" />


<path d="M300.000000 236.000000 C 281.000000 251.000000, 248.000000 275.000000,233.000000 287.000000" stroke="black"  fill="transparent"/>

<line
x1="281" y1="251" x2="300" y2="236"
id="0"
style="stroke:black;stroke-width:1.000000;stroke-opacity:0" />


<line
x1="248" y1="275" x2="233" y2="287"
id="SmallMolecule_bfe0d4cd6c12bac80101dff1b5e1f783--to--reactome_R-HSA-141202_LEFT_TO_RIGHT-input"
style="stroke:black;stroke-width:1.000000;stroke-opacity:0" />


<path d="M312.000000 357.000000 C 313.000000 344.000000, 314.000000 325.000000,314.000000 314.000000" stroke="black"  fill="transparent"/>

<line
x1="314" y1="325" x2="314" y2="314"
id="0"
style="stroke:black;stroke-width:1.000000;stroke-opacity:0" />


<line
x1="313" y1="344" x2="312" y2="357"
id="reactome_R-HSA-141186_LEFT_TO_RIGHT-output--to--SmallMolecule_7d6531c641be89956ba700236e7101ef"
style="stroke:black;stroke-width:1.000000;stroke-opacity:0" />


<polygon
points = "312,357 303.2,352.6 303.2,361.4"
id="line"
style="fill:black; stroke:#000000; stroke-width:1"
transform = "rotate(94.398705 312.000000 357.000000)"
/>


<path d="M380.000000 326.000000 C 363.000000 321.000000, 336.000000 312.000000,323.000000 308.000000" stroke="black"  fill="transparent"/>

<line
x1="363" y1="321" x2="380" y2="326"
id="0"
style="stroke:black;stroke-width:1.000000;stroke-opacity:0" />


<line
x1="336" y1="312" x2="323" y2="308"
id="SmallMolecule_dafcb35dee83ff19c0b0bfee1b836830--to--reactome_R-HSA-141186_LEFT_TO_RIGHT-input"
style="stroke:black;stroke-width:1.000000;stroke-opacity:0" />


<path d="M217.000000 350.000000 C 230.000000 334.000000, 249.000000 310.000000,259.000000 297.000000" stroke="black"  fill="transparent"/>

<line
x1="249" y1="310" x2="259" y2="297"
id="0"
style="stroke:black;stroke-width:1.000000;stroke-opacity:0" />


<line
x1="230" y1="334" x2="217" y2="350"
id="reactome_R-HSA-141200_LEFT_TO_RIGHT-output--to--SmallMolecule_1ced3848a2a902870840337ecdb00d4c"
style="stroke:black;stroke-width:1.000000;stroke-opacity:0" />


<polygon
points = "217,350 208.2,345.6 208.2,354.4"
id="line"
style="fill:black; stroke:#000000; stroke-width:1"
transform = "rotate(129.093859 217.000000 350.000000)"
/>


<path d="M257.000000 333.000000 C 259.000000 321.000000, 262.000000 306.000000,264.000000 297.000000" stroke="black"  fill="transparent"/>

<line
x1="262" y1="306" x2="264" y2="297"
id="0"
style="stroke:black;stroke-width:1.000000;stroke-opacity:0" />


<line
x1="259" y1="321" x2="257" y2="333"
id="reactome_R-HSA-141200_LEFT_TO_RIGHT-output--to--SmallMolecule_c0ca28dffc1509687ca5f0eb4e5e97d9"
style="stroke:black;stroke-width:1.000000;stroke-opacity:0" />


<polygon
points = "257,333 248.2,328.6 248.2,337.4"
id="line"
style="fill:black; stroke:#000000; stroke-width:1"
transform = "rotate(99.462322 257.000000 333.000000)"
/>


<path d="M209.000000 350.000000 C 213.000000 335.000000, 218.000000 314.000000,222.000000 302.000000" stroke="black"  fill="transparent"/>

<line
x1="218" y1="314" x2="222" y2="302"
id="0"
style="stroke:black;stroke-width:1.000000;stroke-opacity:0" />


<line
x1="213" y1="335" x2="209" y2="350"
id="reactome_R-HSA-141202_LEFT_TO_RIGHT-output--to--SmallMolecule_1ced3848a2a902870840337ecdb00d4c"
style="stroke:black;stroke-width:1.000000;stroke-opacity:0" />


<polygon
points = "209,350 200.2,345.6 200.2,354.4"
id="line"
style="fill:black; stroke:#000000; stroke-width:1"
transform = "rotate(104.931417 209.000000 350.000000)"
/>


<path d="M304.000000 241.000000 C 294.000000 253.000000, 280.000000 270.000000,273.000000 280.000000" stroke="black"  fill="transparent"/>

<line
x1="294" y1="253" x2="304" y2="241"
id="0"
style="stroke:black;stroke-width:1.000000;stroke-opacity:0" />


<line
x1="280" y1="270" x2="273" y2="280"
id="SmallMolecule_bfe0d4cd6c12bac80101dff1b5e1f783--to--reactome_R-HSA-141200_LEFT_TO_RIGHT-input"
style="stroke:black;stroke-width:1.000000;stroke-opacity:0" />


<path d="M316.000000 241.000000 C 316.000000 258.000000, 315.000000 283.000000,315.000000 297.000000" stroke="black"  fill="transparent"/>

<line
x1="316" y1="258" x2="316" y2="241"
id="0"
style="stroke:black;stroke-width:1.000000;stroke-opacity:0" />


<line
x1="315" y1="283" x2="315" y2="297"
id="SmallMolecule_bfe0d4cd6c12bac80101dff1b5e1f783--to--reactome_R-HSA-141186_LEFT_TO_RIGHT-input"
style="stroke:black;stroke-width:1.000000;stroke-opacity:0" />


<path d="M144.000000 248.000000 C 165.000000 260.000000, 200.000000 279.000000,216.000000 288.000000" stroke="black"  fill="transparent"/>

<line
x1="200" y1="279" x2="216" y2="288"
id="0"
style="stroke:black;stroke-width:1.000000;stroke-opacity:0" />


<line
x1="165" y1="260" x2="144" y2="248"
id="reactome_R-HSA-141202_LEFT_TO_RIGHT-output--to--SmallMolecule_b5beda4e88a2d2c40ca44a6a436f06a5"
style="stroke:black;stroke-width:1.000000;stroke-opacity:0" />


<polygon
points = "144,248 135.2,243.6 135.2,252.4"
id="line"
style="fill:black; stroke:#000000; stroke-width:1"
transform = "rotate(209.744881 144.000000 248.000000)"
/>


<path d="M208.000000 232.000000 C 223.000000 247.000000, 245.000000 268.000000,257.000000 280.000000" stroke="black"  fill="transparent"/>

<line
x1="223" y1="247" x2="208" y2="232"
id="0"
style="stroke:black;stroke-width:1.000000;stroke-opacity:0" />


<line
x1="245" y1="268" x2="257" y2="280"
id="SmallMolecule_037008728bcfc5d9b57a5392c13e20ee--to--reactome_R-HSA-141200_LEFT_TO_RIGHT-input"
style="stroke:black;stroke-width:1.000000;stroke-opacity:0" />


<path d="M267.000000 227.000000 C 279.000000 247.000000, 300.000000 281.000000,309.000000 297.000000" stroke="black"  fill="transparent"/>

<line
x1="279" y1="247" x2="267" y2="227"
id="0"
style="stroke:black;stroke-width:1.000000;stroke-opacity:0" />


<line
x1="300" y1="281" x2="309" y2="297"
id="SmallMolecule_6f5aca45478229c260a507647b0a7d2b--to--reactome_R-HSA-141186_LEFT_TO_RIGHT-input"
style="stroke:black;stroke-width:1.000000;stroke-opacity:0" />


<path d="M318.000000 314.000000 C 322.000000 324.000000, 329.000000 340.000000,331.000000 354.000000" stroke="black"  fill="transparent"/>
<path d="M331.000000 354.000000 C 339.000000 396.000000, 339.000000 444.000000,338.000000 478.000000" stroke="black"  fill="transparent"/>

<line
x1="339" y1="444" x2="338" y2="478"
id="0"
style="stroke:black;stroke-width:1.000000;stroke-opacity:0" />


<line
x1="322" y1="324" x2="318" y2="314"
id="Complex_c99741b8b6cd9d5d65c1ee3d5ac555b1--to--reactome_R-HSA-141186_LEFT_TO_RIGHT"
style="stroke:black;stroke-width:1.000000;stroke-opacity:0" />


<ellipse
rx="4.400000"
ry="4.400000"
cx="319.634119"
cy="318.085297"
id="Complex_c99741b8b6cd9d5d65c1ee3d5ac555b1--to--reactome_R-HSA-141186_LEFT_TO_RIGHT"
style="fill:white;fill-opacity:0.800000;stroke:black;stroke-width:1.000000;stroke-opacity:1.000000" />


<path d="M214.000000 350.000000 C 220.000000 343.000000, 226.000000 335.000000,234.000000 330.000000" stroke="black"  fill="transparent"/>
<path d="M234.000000 330.000000 C 257.000000 315.000000, 290.000000 308.000000,306.000000 306.000000" stroke="black"  fill="transparent"/>

<line
x1="290" y1="308" x2="306" y2="306"
id="0"
style="stroke:black;stroke-width:1.000000;stroke-opacity:0" />


<line
x1="220" y1="343" x2="214" y2="350"
id="reactome_R-HSA-141186_LEFT_TO_RIGHT-output--to--SmallMolecule_1ced3848a2a902870840337ecdb00d4c"
style="stroke:black;stroke-width:1.000000;stroke-opacity:0" />


<polygon
points = "214,350 205.2,345.6 205.2,354.4"
id="line"
style="fill:black; stroke:#000000; stroke-width:1"
transform = "rotate(130.601295 214.000000 350.000000)"
/>


<path d="M250.000000 227.000000 C 243.000000 244.000000, 233.000000 271.000000,228.000000 284.000000" stroke="black"  fill="transparent"/>

<line
x1="243" y1="244" x2="250" y2="227"
id="0"
style="stroke:black;stroke-width:1.000000;stroke-opacity:0" />


<line
x1="233" y1="271" x2="228" y2="284"
id="SmallMolecule_6f5aca45478229c260a507647b0a7d2b--to--reactome_R-HSA-141202_LEFT_TO_RIGHT-input"
style="stroke:black;stroke-width:1.000000;stroke-opacity:0" />



</svg>
