<?xml version="1.0" encoding="UTF-8"?>
<svg width="1280.245830" height="930.695586"
xmlns="http://www.w3.org/2000/svg" xmlns:svg="http://www.w3.org/2000/svg"
>
<metadata id="metadata7">image/svg+xml</metadata>





<ellipse
rx="16.666667"
ry="16.666667"
cx="361.200897"
cy="640.779889"
id="SmallMolecule_b8f066fd98d5bb230271a79c3f3a523f"
style="fill:white;fill-opacity:0.000000;stroke:black;stroke-width:1.000000;stroke-opacity:1.000000" />


<text
x="361.200897"
y="642.779889"
id="SmallMolecule_b8f066fd98d5bb230271a79c3f3a523f"
style="font-size:6.000000px;text-anchor:middle;font-family:Arial,Helvetica;alignment-baseline:baseline;stroke.opacity:1;dominant-baseline:baseline"
fill="black"
>
NAD+</text>



<ellipse
rx="16.666667"
ry="16.666667"
cx="688.655805"
cy="265.730810"
id="SmallMolecule_a3b1a1da17a4d622fdff28aef04b14cd"
style="fill:white;fill-opacity:0.000000;stroke:black;stroke-width:1.000000;stroke-opacity:1.000000" />



<text
x="688.655805"
y="264.730810"
id="SmallMolecule_a3b1a1da17a4d622fdff28aef04b14cd"
style="font-size:6.000000px;text-anchor:middle;font-family:Arial,Helvetica;alignment-baseline:baseline;stroke.opacity:1;dominant-baseline:baseline"
fill="black"
>
Glucose 1-p-</text>


<text
x="688.655805"
y="270.730810"
id="SmallMolecule_a3b1a1da17a4d622fdff28aef04b14cd"
style="font-size:6.000000px;text-anchor:middle;font-family:Arial,Helvetica;alignment-baseline:baseline;stroke.opacity:1;dominant-baseline:baseline"
fill="black"
>
hosphate</text>


<rect
width="16.666667"
height="16.666667"
rx="0.000000"
ry="0.000000"
x="321.670267"
y="287.391127"
id="Conversion_e81314ac645e78f6ba7468cc136930ca_LEFT_TO_RIGHT"
style="fill:white;fill-opacity:0.600000;stroke:black;stroke-width:1.000000;stroke-opacity:1.000000" />




<ellipse
rx="16.666667"
ry="16.666667"
cx="328.829476"
cy="517.552704"
id="SmallMolecule_24bc3dfe8df8f812b7c13f4adaee6311"
style="fill:white;fill-opacity:0.000000;stroke:black;stroke-width:1.000000;stroke-opacity:1.000000" />



<text
x="328.829476"
y="516.552704"
id="SmallMolecule_24bc3dfe8df8f812b7c13f4adaee6311"
style="font-size:6.000000px;text-anchor:middle;font-family:Arial,Helvetica;alignment-baseline:baseline;stroke.opacity:1;dominant-baseline:baseline"
fill="black"
>
Fructose 1-</text>


<text
x="328.829476"
y="522.552704"
id="SmallMolecule_24bc3dfe8df8f812b7c13f4adaee6311"
style="font-size:6.000000px;text-anchor:middle;font-family:Arial,Helvetica;alignment-baseline:baseline;stroke.opacity:1;dominant-baseline:baseline"
fill="black"
>
Phosphate</text>


<rect
width="16.666667"
height="16.666667"
rx="0.000000"
ry="0.000000"
x="554.380185"
y="477.668130"
id="BiochemicalReaction_37720768e9d73a36c71f7e69711e1ac4_LEFT_TO_RIGHT"
style="fill:white;fill-opacity:0.600000;stroke:black;stroke-width:1.000000;stroke-opacity:1.000000" />




<ellipse
rx="16.666667"
ry="16.666667"
cx="201.699111"
cy="265.469560"
id="SmallMolecule_4392a85ec9e170ec995a9b7f9f5fcf36"
style="fill:white;fill-opacity:0.000000;stroke:black;stroke-width:1.000000;stroke-opacity:1.000000" />



<text
x="201.699111"
y="264.469560"
id="SmallMolecule_4392a85ec9e170ec995a9b7f9f5fcf36"
style="font-size:6.000000px;text-anchor:middle;font-family:Arial,Helvetica;alignment-baseline:baseline;stroke.opacity:1;dominant-baseline:baseline"
fill="black"
>
Fructose 1,</text>


<text
x="201.699111"
y="270.469560"
id="SmallMolecule_4392a85ec9e170ec995a9b7f9f5fcf36"
style="font-size:6.000000px;text-anchor:middle;font-family:Arial,Helvetica;alignment-baseline:baseline;stroke.opacity:1;dominant-baseline:baseline"
fill="black"
>
6-phosphate</text>


<rect
width="16.666667"
height="16.666667"
rx="0.000000"
ry="0.000000"
x="228.263953"
y="494.399919"
id="BiochemicalReaction_371f4517b1c41f3a2592f899afee377c_LEFT_TO_RIGHT"
style="fill:white;fill-opacity:0.600000;stroke:black;stroke-width:1.000000;stroke-opacity:1.000000" />




<ellipse
rx="16.666667"
ry="16.666667"
cx="481.051874"
cy="426.559790"
id="SmallMolecule_067280b8b822ca79f313ec8eebae1ca8"
style="fill:white;fill-opacity:0.000000;stroke:black;stroke-width:1.000000;stroke-opacity:1.000000" />


<text
x="481.051874"
y="428.559790"
id="SmallMolecule_067280b8b822ca79f313ec8eebae1ca8"
style="font-size:6.000000px;text-anchor:middle;font-family:Arial,Helvetica;alignment-baseline:baseline;stroke.opacity:1;dominant-baseline:baseline"
fill="black"
>
ATP</text>



<ellipse
rx="16.666667"
ry="16.666667"
cx="892.599197"
cy="498.168179"
id="SmallMolecule_52862d2b481d37cc258d1b3fad5fa48e"
style="fill:white;fill-opacity:0.000000;stroke:black;stroke-width:1.000000;stroke-opacity:1.000000" />


<text
x="892.599197"
y="500.168179"
id="SmallMolecule_52862d2b481d37cc258d1b3fad5fa48e"
style="font-size:6.000000px;text-anchor:middle;font-family:Arial,Helvetica;alignment-baseline:baseline;stroke.opacity:1;dominant-baseline:baseline"
fill="black"
>
UDP Glucose</text>


<rect
width="16.666667"
height="16.666667"
rx="0.000000"
ry="0.000000"
x="607.183773"
y="207.788788"
id="BiochemicalReaction_840afb1f4e45092db07e281473e607f0_LEFT_TO_RIGHT"
style="fill:white;fill-opacity:0.600000;stroke:black;stroke-width:1.000000;stroke-opacity:1.000000" />



<rect
width="16.666667"
height="16.666667"
rx="0.000000"
ry="0.000000"
x="562.323050"
y="275.347044"
id="BiochemicalReaction_e124cee0a18d6fb6033816dc6577c54d_LEFT_TO_RIGHT"
style="fill:white;fill-opacity:0.600000;stroke:black;stroke-width:1.000000;stroke-opacity:1.000000" />



<rect
width="16.666667"
height="16.666667"
rx="0.000000"
ry="0.000000"
x="437.790772"
y="165.259130"
id="BiochemicalReaction_1edb093b36c6eab59bad3a84e9775ff0_LEFT_TO_RIGHT"
style="fill:white;fill-opacity:0.600000;stroke:black;stroke-width:1.000000;stroke-opacity:1.000000" />




<rect
width="58.333333"
height="33.333333"
rx="3.333333"
ry="3.333333"
x="100.000000"
y="473.614869"
id="Protein_a659624e19f25ff458901f01475fba55"
style="fill:white;fill-opacity:1.000000;stroke:black;stroke-width:1.000000;stroke-opacity:1.000000" />



<text
x="129.166667"
y="489.281535"
id="Protein_a659624e19f25ff458901f01475fba55"
style="font-size:6.000000px;text-anchor:middle;font-family:Arial,Helvetica;alignment-baseline:baseline;stroke.opacity:1;dominant-baseline:baseline"
fill="black"
>
Fructose bisphospha-</text>


<text
x="129.166667"
y="495.281535"
id="Protein_a659624e19f25ff458901f01475fba55"
style="font-size:6.000000px;text-anchor:middle;font-family:Arial,Helvetica;alignment-baseline:baseline;stroke.opacity:1;dominant-baseline:baseline"
fill="black"
>
te aldolase</text>



<ellipse
rx="16.666667"
ry="16.666667"
cx="493.709669"
cy="307.337213"
id="SmallMolecule_a5223a3e2d59bd05449436f1008212a3"
style="fill:white;fill-opacity:0.000000;stroke:black;stroke-width:1.000000;stroke-opacity:1.000000" />


<text
x="493.709669"
y="309.337213"
id="SmallMolecule_a5223a3e2d59bd05449436f1008212a3"
style="font-size:6.000000px;text-anchor:middle;font-family:Arial,Helvetica;alignment-baseline:baseline;stroke.opacity:1;dominant-baseline:baseline"
fill="black"
>
Glucose</text>



<ellipse
rx="16.666667"
ry="16.666667"
cx="293.939022"
cy="663.016366"
id="SmallMolecule_d0181c8049e2cf54cea6d28e91facd60"
style="fill:white;fill-opacity:0.000000;stroke:black;stroke-width:1.000000;stroke-opacity:1.000000" />


<text
x="293.939022"
y="665.016366"
id="SmallMolecule_d0181c8049e2cf54cea6d28e91facd60"
style="font-size:6.000000px;text-anchor:middle;font-family:Arial,Helvetica;alignment-baseline:baseline;stroke.opacity:1;dominant-baseline:baseline"
fill="black"
>
Glycerol</text>


<rect
width="16.666667"
height="16.666667"
rx="0.000000"
ry="0.000000"
x="279.981020"
y="563.863521"
id="BiochemicalReaction_ed0f5666badb754edb66f91c91248f38_LEFT_TO_RIGHT"
style="fill:white;fill-opacity:0.600000;stroke:black;stroke-width:1.000000;stroke-opacity:1.000000" />




<ellipse
rx="16.666667"
ry="16.666667"
cx="822.992820"
cy="345.605235"
id="SmallMolecule_e07e6a4df25ae66667e34d13f607340d"
style="fill:white;fill-opacity:0.000000;stroke:black;stroke-width:1.000000;stroke-opacity:1.000000" />


<text
x="822.992820"
y="347.605235"
id="SmallMolecule_e07e6a4df25ae66667e34d13f607340d"
style="font-size:6.000000px;text-anchor:middle;font-family:Arial,Helvetica;alignment-baseline:baseline;stroke.opacity:1;dominant-baseline:baseline"
fill="black"
>
UDP Galactose</text>



<ellipse
rx="16.666667"
ry="16.666667"
cx="223.119046"
cy="644.733354"
id="SmallMolecule_90ce7c9048d46d7d9df069e977d4404e"
style="fill:white;fill-opacity:0.000000;stroke:black;stroke-width:1.000000;stroke-opacity:1.000000" />


<text
x="223.119046"
y="646.733354"
id="SmallMolecule_90ce7c9048d46d7d9df069e977d4404e"
style="font-size:6.000000px;text-anchor:middle;font-family:Arial,Helvetica;alignment-baseline:baseline;stroke.opacity:1;dominant-baseline:baseline"
fill="black"
>
NADH + H+</text>



<ellipse
rx="16.666667"
ry="16.666667"
cx="198.603689"
cy="420.577087"
id="SmallMolecule_f6a6d2950ece137127337a7f93e23820"
style="fill:white;fill-opacity:0.000000;stroke:black;stroke-width:1.000000;stroke-opacity:1.000000" />



<text
x="198.603689"
y="419.577087"
id="SmallMolecule_f6a6d2950ece137127337a7f93e23820"
style="font-size:6.000000px;text-anchor:middle;font-family:Arial,Helvetica;alignment-baseline:baseline;stroke.opacity:1;dominant-baseline:baseline"
fill="black"
>
Dihydroxyac-</text>


<text
x="198.603689"
y="425.577087"
id="SmallMolecule_f6a6d2950ece137127337a7f93e23820"
style="font-size:6.000000px;text-anchor:middle;font-family:Arial,Helvetica;alignment-baseline:baseline;stroke.opacity:1;dominant-baseline:baseline"
fill="black"
>
etone 3-P</text>



<rect
width="58.333333"
height="33.333333"
rx="3.333333"
ry="3.333333"
x="376.527025"
y="339.572841"
id="Protein_5c20a87e907583ce0ba0292c6bd5325e"
style="fill:white;fill-opacity:1.000000;stroke:black;stroke-width:1.000000;stroke-opacity:1.000000" />


<text
x="405.693691"
y="358.239508"
id="Protein_5c20a87e907583ce0ba0292c6bd5325e"
style="font-size:6.000000px;text-anchor:middle;font-family:Arial,Helvetica;alignment-baseline:baseline;stroke.opacity:1;dominant-baseline:baseline"
fill="black"
>
Triokinase</text>



<ellipse
rx="16.666667"
ry="16.666667"
cx="593.883277"
cy="409.485741"
id="SmallMolecule_1aaee5ceea22ae9b0555785abc98cbda"
style="fill:white;fill-opacity:0.000000;stroke:black;stroke-width:1.000000;stroke-opacity:1.000000" />



<text
x="593.883277"
y="408.485741"
id="SmallMolecule_1aaee5ceea22ae9b0555785abc98cbda"
style="font-size:6.000000px;text-anchor:middle;font-family:Arial,Helvetica;alignment-baseline:baseline;stroke.opacity:1;dominant-baseline:baseline"
fill="black"
>
Galactose 1</text>


<text
x="593.883277"
y="414.485741"
id="SmallMolecule_1aaee5ceea22ae9b0555785abc98cbda"
style="font-size:6.000000px;text-anchor:middle;font-family:Arial,Helvetica;alignment-baseline:baseline;stroke.opacity:1;dominant-baseline:baseline"
fill="black"
>
-phosphate</text>



<ellipse
rx="16.666667"
ry="16.666667"
cx="484.087710"
cy="491.433353"
id="SmallMolecule_68d9752916a73cd26503beaec2ab3811"
style="fill:white;fill-opacity:0.000000;stroke:black;stroke-width:1.000000;stroke-opacity:1.000000" />


<text
x="484.087710"
y="493.433353"
id="SmallMolecule_68d9752916a73cd26503beaec2ab3811"
style="font-size:6.000000px;text-anchor:middle;font-family:Arial,Helvetica;alignment-baseline:baseline;stroke.opacity:1;dominant-baseline:baseline"
fill="black"
>
ADP</text>



<ellipse
rx="16.666667"
ry="16.666667"
cx="317.875658"
cy="376.711654"
id="SmallMolecule_b6889598a1d5b1968aa07721bac66e26"
style="fill:white;fill-opacity:0.000000;stroke:black;stroke-width:1.000000;stroke-opacity:1.000000" />



<text
x="317.875658"
y="375.711654"
id="SmallMolecule_b6889598a1d5b1968aa07721bac66e26"
style="font-size:6.000000px;text-anchor:middle;font-family:Arial,Helvetica;alignment-baseline:baseline;stroke.opacity:1;dominant-baseline:baseline"
fill="black"
>
Glyceraldeh-</text>


<text
x="317.875658"
y="381.711654"
id="SmallMolecule_b6889598a1d5b1968aa07721bac66e26"
style="font-size:6.000000px;text-anchor:middle;font-family:Arial,Helvetica;alignment-baseline:baseline;stroke.opacity:1;dominant-baseline:baseline"
fill="black"
>
yde 3-P</text>



<ellipse
rx="16.666667"
ry="16.666667"
cx="404.454288"
cy="254.699809"
id="SmallMolecule_5c06eba5a4e4125731a3c5a8f522e195"
style="fill:white;fill-opacity:0.000000;stroke:black;stroke-width:1.000000;stroke-opacity:1.000000" />


<text
x="404.454288"
y="256.699809"
id="SmallMolecule_5c06eba5a4e4125731a3c5a8f522e195"
style="font-size:6.000000px;text-anchor:middle;font-family:Arial,Helvetica;alignment-baseline:baseline;stroke.opacity:1;dominant-baseline:baseline"
fill="black"
>
Pyruvate</text>


<rect
width="16.666667"
height="16.666667"
rx="0.000000"
ry="0.000000"
x="818.134005"
y="423.511533"
id="BiochemicalReaction_00377852d22b743e660e4049d850f011_LEFT_TO_RIGHT"
style="fill:white;fill-opacity:0.600000;stroke:black;stroke-width:1.000000;stroke-opacity:1.000000" />




<ellipse
rx="16.666667"
ry="16.666667"
cx="569.397123"
cy="714.028920"
id="SmallMolecule_f6a84cbd339bc7260ec22b44a3ce89e2"
style="fill:white;fill-opacity:0.000000;stroke:black;stroke-width:1.000000;stroke-opacity:1.000000" />


<text
x="569.397123"
y="716.028920"
id="SmallMolecule_f6a84cbd339bc7260ec22b44a3ce89e2"
style="font-size:6.000000px;text-anchor:middle;font-family:Arial,Helvetica;alignment-baseline:baseline;stroke.opacity:1;dominant-baseline:baseline"
fill="black"
>
Sorbitol</text>



<ellipse
rx="16.666667"
ry="16.666667"
cx="356.255350"
cy="166.666667"
id="SmallMolecule_d96db7b1af587a5f6a5d08a57a929bf5"
style="fill:white;fill-opacity:0.000000;stroke:black;stroke-width:1.000000;stroke-opacity:1.000000" />



<text
x="356.255350"
y="165.666667"
id="SmallMolecule_d96db7b1af587a5f6a5d08a57a929bf5"
style="font-size:6.000000px;text-anchor:middle;font-family:Arial,Helvetica;alignment-baseline:baseline;stroke.opacity:1;dominant-baseline:baseline"
fill="black"
>
Fructose 6-</text>


<text
x="356.255350"
y="171.666667"
id="SmallMolecule_d96db7b1af587a5f6a5d08a57a929bf5"
style="font-size:6.000000px;text-anchor:middle;font-family:Arial,Helvetica;alignment-baseline:baseline;stroke.opacity:1;dominant-baseline:baseline"
fill="black"
>
phosphate</text>



<rect
width="58.333333"
height="33.333333"
rx="3.333333"
ry="3.333333"
x="154.584492"
y="553.226403"
id="Protein_99ad4284f613e19b81372bd05a980729"
style="fill:white;fill-opacity:1.000000;stroke:black;stroke-width:1.000000;stroke-opacity:1.000000" />


<text
x="183.751159"
y="571.893069"
id="Protein_99ad4284f613e19b81372bd05a980729"
style="font-size:6.000000px;text-anchor:middle;font-family:Arial,Helvetica;alignment-baseline:baseline;stroke.opacity:1;dominant-baseline:baseline"
fill="black"
>
Aldehyde reductase</text>


<rect
width="16.666667"
height="16.666667"
rx="0.000000"
ry="0.000000"
x="530.489111"
y="629.761312"
id="BiochemicalReaction_811b11ee55eb67bf33db348fa0bf3d05_LEFT_TO_RIGHT"
style="fill:white;fill-opacity:0.600000;stroke:black;stroke-width:1.000000;stroke-opacity:1.000000" />



<rect
width="16.666667"
height="16.666667"
rx="0.000000"
ry="0.000000"
x="652.464120"
y="338.144747"
id="BiochemicalReaction_63e69d1c3fe5bf6e4354ffd7f4c426d9_LEFT_TO_RIGHT"
style="fill:white;fill-opacity:0.600000;stroke:black;stroke-width:1.000000;stroke-opacity:1.000000" />




<rect
width="58.333333"
height="33.333333"
rx="3.333333"
ry="3.333333"
x="891.912496"
y="384.872403"
id="Protein_b5376f358ded34fae81c44bcf240e2ca"
style="fill:white;fill-opacity:1.000000;stroke:black;stroke-width:1.000000;stroke-opacity:1.000000" />


<text
x="921.079163"
y="403.539069"
id="Protein_b5376f358ded34fae81c44bcf240e2ca"
style="font-size:6.000000px;text-anchor:middle;font-family:Arial,Helvetica;alignment-baseline:baseline;stroke.opacity:1;dominant-baseline:baseline"
fill="black"
>
GALE</text>


<rect
width="16.666667"
height="16.666667"
rx="0.000000"
ry="0.000000"
x="230.419038"
y="337.763909"
id="BiochemicalReaction_ed05854471990516fcd101268a7ba61b_LEFT_TO_RIGHT"
style="fill:white;fill-opacity:0.600000;stroke:black;stroke-width:1.000000;stroke-opacity:1.000000" />




<ellipse
rx="16.666667"
ry="16.666667"
cx="528.663574"
cy="203.004707"
id="SmallMolecule_a6391246486ed41379870d3a185017b4"
style="fill:white;fill-opacity:0.000000;stroke:black;stroke-width:1.000000;stroke-opacity:1.000000" />



<text
x="528.663574"
y="202.004707"
id="SmallMolecule_a6391246486ed41379870d3a185017b4"
style="font-size:6.000000px;text-anchor:middle;font-family:Arial,Helvetica;alignment-baseline:baseline;stroke.opacity:1;dominant-baseline:baseline"
fill="black"
>
Glucose 6-p-</text>


<text
x="528.663574"
y="208.004707"
id="SmallMolecule_a6391246486ed41379870d3a185017b4"
style="font-size:6.000000px;text-anchor:middle;font-family:Arial,Helvetica;alignment-baseline:baseline;stroke.opacity:1;dominant-baseline:baseline"
fill="black"
>
hosphate</text>



<ellipse
rx="16.666667"
ry="16.666667"
cx="304.825771"
cy="460.067903"
id="SmallMolecule_33e0f5924fd06608a318c1e810639bf0"
style="fill:white;fill-opacity:0.000000;stroke:black;stroke-width:1.000000;stroke-opacity:1.000000" />


<text
x="304.825771"
y="462.067903"
id="SmallMolecule_33e0f5924fd06608a318c1e810639bf0"
style="font-size:6.000000px;text-anchor:middle;font-family:Arial,Helvetica;alignment-baseline:baseline;stroke.opacity:1;dominant-baseline:baseline"
fill="black"
>
Glyceraldehyde</text>



<rect
width="58.333333"
height="33.333333"
rx="3.333333"
ry="3.333333"
x="356.527513"
y="559.146768"
id="Protein_7b865ef8d6ad0c984fc28c6f6b64a8f2"
style="fill:white;fill-opacity:1.000000;stroke:black;stroke-width:1.000000;stroke-opacity:1.000000" />


<text
x="385.694180"
y="577.813435"
id="Protein_7b865ef8d6ad0c984fc28c6f6b64a8f2"
style="font-size:6.000000px;text-anchor:middle;font-family:Arial,Helvetica;alignment-baseline:baseline;stroke.opacity:1;dominant-baseline:baseline"
fill="black"
>
KHK</text>


<rect
width="16.666667"
height="16.666667"
rx="0.000000"
ry="0.000000"
x="269.183963"
y="202.497368"
id="BiochemicalReaction_3723a4a8b4b69dbe51ceb5683c220946_LEFT_TO_RIGHT"
style="fill:white;fill-opacity:0.600000;stroke:black;stroke-width:1.000000;stroke-opacity:1.000000" />




<rect
width="58.333333"
height="33.333333"
rx="3.333333"
ry="3.333333"
x="436.167998"
y="688.269851"
id="Protein_962edfac7e91ff7911cc8ee551c68b74"
style="fill:white;fill-opacity:1.000000;stroke:black;stroke-width:1.000000;stroke-opacity:1.000000" />


<text
x="465.334665"
y="706.936518"
id="Protein_962edfac7e91ff7911cc8ee551c68b74"
style="font-size:6.000000px;text-anchor:middle;font-family:Arial,Helvetica;alignment-baseline:baseline;stroke.opacity:1;dominant-baseline:baseline"
fill="black"
>
Hexokinase</text>



<rect
width="58.333333"
height="33.333333"
rx="3.333333"
ry="3.333333"
x="693.958912"
y="397.083901"
id="Protein_6dd9ae421cb66b9d224b7dcc458b3dfb"
style="fill:white;fill-opacity:1.000000;stroke:black;stroke-width:1.000000;stroke-opacity:1.000000" />



<text
x="723.125579"
y="412.750568"
id="Protein_6dd9ae421cb66b9d224b7dcc458b3dfb"
style="font-size:6.000000px;text-anchor:middle;font-family:Arial,Helvetica;alignment-baseline:baseline;stroke.opacity:1;dominant-baseline:baseline"
fill="black"
>
Hexose 1-P uridyltr-</text>


<text
x="723.125579"
y="418.750568"
id="Protein_6dd9ae421cb66b9d224b7dcc458b3dfb"
style="font-size:6.000000px;text-anchor:middle;font-family:Arial,Helvetica;alignment-baseline:baseline;stroke.opacity:1;dominant-baseline:baseline"
fill="black"
>
ansferase</text>



<ellipse
rx="16.666667"
ry="16.666667"
cx="471.386995"
cy="576.636010"
id="SmallMolecule_d3e452ff6ce941b400cba12bdf06e19b"
style="fill:white;fill-opacity:0.000000;stroke:black;stroke-width:1.000000;stroke-opacity:1.000000" />


<text
x="471.386995"
y="578.636010"
id="SmallMolecule_d3e452ff6ce941b400cba12bdf06e19b"
style="font-size:6.000000px;text-anchor:middle;font-family:Arial,Helvetica;alignment-baseline:baseline;stroke.opacity:1;dominant-baseline:baseline"
fill="black"
>
Fructose</text>



<ellipse
rx="16.666667"
ry="16.666667"
cx="640.916349"
cy="517.908207"
id="SmallMolecule_e58442827a084fd03b8c01df9a21277a"
style="fill:white;fill-opacity:0.000000;stroke:black;stroke-width:1.000000;stroke-opacity:1.000000" />


<text
x="640.916349"
y="519.908207"
id="SmallMolecule_e58442827a084fd03b8c01df9a21277a"
style="font-size:6.000000px;text-anchor:middle;font-family:Arial,Helvetica;alignment-baseline:baseline;stroke.opacity:1;dominant-baseline:baseline"
fill="black"
>
Galactose</text>


<rect
width="16.666667"
height="16.666667"
rx="0.000000"
ry="0.000000"
x="389.169448"
y="430.973170"
id="BiochemicalReaction_401d076a31c2034b2f8a9cd8a230dcf9_LEFT_TO_RIGHT"
style="fill:white;fill-opacity:0.600000;stroke:black;stroke-width:1.000000;stroke-opacity:1.000000" />



<rect
width="16.666667"
height="16.666667"
rx="0.000000"
ry="0.000000"
x="406.504017"
y="494.185609"
id="BiochemicalReaction_7f1eb0e99c333e16842ad4e354ffdb2f_LEFT_TO_RIGHT"
style="fill:white;fill-opacity:0.600000;stroke:black;stroke-width:1.000000;stroke-opacity:1.000000" />





<path d="M228.000000 501.000000 C 213.000000 500.000000, 181.000000 496.000000,158.000000 493.000000" stroke="black"  fill="transparent"/>

<line
x1="181" y1="496" x2="158" y2="493"
id="0"
style="stroke:black;stroke-width:1.000000;stroke-opacity:0" />


<line
x1="213" y1="500" x2="228" y2="501"
id="Protein_a659624e19f25ff458901f01475fba55--to--BiochemicalReaction_371f4517b1c41f3a2592f899afee377c_LEFT_TO_RIGHT"
style="stroke:black;stroke-width:1.000000;stroke-opacity:0" />


<ellipse
rx="4.400000"
ry="4.400000"
cx="223.609745"
cy="500.707316"
id="Protein_a659624e19f25ff458901f01475fba55--to--BiochemicalReaction_371f4517b1c41f3a2592f899afee377c_LEFT_TO_RIGHT"
style="fill:white;fill-opacity:0.800000;stroke:black;stroke-width:1.000000;stroke-opacity:1.000000" />


<path d="M553.000000 479.000000 C 540.000000 469.000000, 514.000000 451.000000,497.000000 438.000000" stroke="black"  fill="transparent"/>

<line
x1="514" y1="451" x2="497" y2="438"
id="0"
style="stroke:black;stroke-width:1.000000;stroke-opacity:0" />


<line
x1="540" y1="469" x2="553" y2="479"
id="SmallMolecule_067280b8b822ca79f313ec8eebae1ca8--to--BiochemicalReaction_37720768e9d73a36c71f7e69711e1ac4_LEFT_TO_RIGHT-input"
style="stroke:black;stroke-width:1.000000;stroke-opacity:0" />


<path d="M818.000000 430.000000 C 803.000000 427.000000, 774.000000 422.000000,752.000000 418.000000" stroke="black"  fill="transparent"/>

<line
x1="774" y1="422" x2="752" y2="418"
id="0"
style="stroke:black;stroke-width:1.000000;stroke-opacity:0" />


<line
x1="803" y1="427" x2="818" y2="430"
id="Protein_6dd9ae421cb66b9d224b7dcc458b3dfb--to--BiochemicalReaction_00377852d22b743e660e4049d850f011_LEFT_TO_RIGHT"
style="stroke:black;stroke-width:1.000000;stroke-opacity:0" />


<ellipse
rx="4.400000"
ry="4.400000"
cx="813.685445"
cy="429.137089"
id="Protein_6dd9ae421cb66b9d224b7dcc458b3dfb--to--BiochemicalReaction_00377852d22b743e660e4049d850f011_LEFT_TO_RIGHT"
style="fill:white;fill-opacity:0.800000;stroke:black;stroke-width:1.000000;stroke-opacity:1.000000" />


<path d="M301.000000 370.000000 C 285.000000 363.000000, 260.000000 354.000000,247.000000 349.000000" stroke="black"  fill="transparent"/>

<line
x1="260" y1="354" x2="247" y2="349"
id="0"
style="stroke:black;stroke-width:1.000000;stroke-opacity:0" />


<line
x1="285" y1="363" x2="301" y2="370"
id="BiochemicalReaction_ed05854471990516fcd101268a7ba61b_LEFT_TO_RIGHT-output--to--SmallMolecule_b6889598a1d5b1968aa07721bac66e26"
style="stroke:black;stroke-width:1.000000;stroke-opacity:0" />


<polygon
points = "301,370 292.2,365.6 292.2,374.4"
id="line"
style="fill:black; stroke:#000000; stroke-width:1"
transform = "rotate(23.629378 301.000000 370.000000)"
/>


<path d="M834.000000 429.000000 C 847.000000 425.000000, 872.000000 417.000000,891.000000 410.000000" stroke="black"  fill="transparent"/>

<line
x1="872" y1="417" x2="891" y2="410"
id="0"
style="stroke:black;stroke-width:1.000000;stroke-opacity:0" />


<line
x1="847" y1="425" x2="834" y2="429"
id="Protein_b5376f358ded34fae81c44bcf240e2ca--to--BiochemicalReaction_00377852d22b743e660e4049d850f011_LEFT_TO_RIGHT"
style="stroke:black;stroke-width:1.000000;stroke-opacity:0" />


<ellipse
rx="4.400000"
ry="4.400000"
cx="838.205428"
cy="427.706022"
id="Protein_b5376f358ded34fae81c44bcf240e2ca--to--BiochemicalReaction_00377852d22b743e660e4049d850f011_LEFT_TO_RIGHT"
style="fill:white;fill-opacity:0.800000;stroke:black;stroke-width:1.000000;stroke-opacity:1.000000" />


<path d="M571.000000 489.000000 C 583.000000 494.000000, 607.000000 504.000000,624.000000 511.000000" stroke="black"  fill="transparent"/>

<line
x1="607" y1="504" x2="624" y2="511"
id="0"
style="stroke:black;stroke-width:1.000000;stroke-opacity:0" />


<line
x1="583" y1="494" x2="571" y2="489"
id="SmallMolecule_e58442827a084fd03b8c01df9a21277a--to--BiochemicalReaction_37720768e9d73a36c71f7e69711e1ac4_LEFT_TO_RIGHT-input"
style="stroke:black;stroke-width:1.000000;stroke-opacity:0" />


<path d="M566.000000 477.000000 C 571.000000 464.000000, 580.000000 441.000000,587.000000 426.000000" stroke="black"  fill="transparent"/>

<line
x1="571" y1="464" x2="566" y2="477"
id="0"
style="stroke:black;stroke-width:1.000000;stroke-opacity:0" />


<line
x1="580" y1="441" x2="587" y2="426"
id="BiochemicalReaction_37720768e9d73a36c71f7e69711e1ac4_LEFT_TO_RIGHT-output--to--SmallMolecule_1aaee5ceea22ae9b0555785abc98cbda"
style="stroke:black;stroke-width:1.000000;stroke-opacity:0" />


<polygon
points = "587,426 578.2,421.6 578.2,430.4"
id="line"
style="fill:black; stroke:#000000; stroke-width:1"
transform = "rotate(-64.983107 587.000000 426.000000)"
/>


<path d="M668.000000 354.000000 C 678.000000 365.000000, 695.000000 383.000000,707.000000 397.000000" stroke="black"  fill="transparent"/>

<line
x1="695" y1="383" x2="707" y2="397"
id="0"
style="stroke:black;stroke-width:1.000000;stroke-opacity:0" />


<line
x1="678" y1="365" x2="668" y2="354"
id="Protein_6dd9ae421cb66b9d224b7dcc458b3dfb--to--BiochemicalReaction_63e69d1c3fe5bf6e4354ffd7f4c426d9_LEFT_TO_RIGHT"
style="stroke:black;stroke-width:1.000000;stroke-opacity:0" />


<ellipse
rx="4.400000"
ry="4.400000"
cx="670.959760"
cy="357.255736"
id="Protein_6dd9ae421cb66b9d224b7dcc458b3dfb--to--BiochemicalReaction_63e69d1c3fe5bf6e4354ffd7f4c426d9_LEFT_TO_RIGHT"
style="fill:white;fill-opacity:0.800000;stroke:black;stroke-width:1.000000;stroke-opacity:1.000000" />


<path d="M209.000000 282.000000 C 217.000000 298.000000, 228.000000 324.000000,234.000000 337.000000" stroke="black"  fill="transparent"/>

<line
x1="217" y1="298" x2="209" y2="282"
id="0"
style="stroke:black;stroke-width:1.000000;stroke-opacity:0" />


<line
x1="228" y1="324" x2="234" y2="337"
id="SmallMolecule_4392a85ec9e170ec995a9b7f9f5fcf36--to--BiochemicalReaction_ed05854471990516fcd101268a7ba61b_LEFT_TO_RIGHT-input"
style="stroke:black;stroke-width:1.000000;stroke-opacity:0" />


<path d="M610.000000 393.000000 C 623.000000 381.000000, 641.000000 364.000000,652.000000 354.000000" stroke="black"  fill="transparent"/>

<line
x1="623" y1="381" x2="610" y2="393"
id="0"
style="stroke:black;stroke-width:1.000000;stroke-opacity:0" />


<line
x1="641" y1="364" x2="652" y2="354"
id="SmallMolecule_1aaee5ceea22ae9b0555785abc98cbda--to--BiochemicalReaction_63e69d1c3fe5bf6e4354ffd7f4c426d9_LEFT_TO_RIGHT-input"
style="stroke:black;stroke-width:1.000000;stroke-opacity:0" />


<path d="M467.000000 481.000000 C 449.000000 470.000000, 420.000000 452.000000,405.000000 444.000000" stroke="black"  fill="transparent"/>

<line
x1="420" y1="452" x2="405" y2="444"
id="0"
style="stroke:black;stroke-width:1.000000;stroke-opacity:0" />


<line
x1="449" y1="470" x2="467" y2="481"
id="BiochemicalReaction_401d076a31c2034b2f8a9cd8a230dcf9_LEFT_TO_RIGHT-output--to--SmallMolecule_68d9752916a73cd26503beaec2ab3811"
style="stroke:black;stroke-width:1.000000;stroke-opacity:0" />


<polygon
points = "467,481 458.2,476.6 458.2,485.4"
id="line"
style="fill:black; stroke:#000000; stroke-width:1"
transform = "rotate(31.429566 467.000000 481.000000)"
/>


<path d="M562.000000 697.000000 C 556.000000 681.000000, 547.000000 659.000000,542.000000 646.000000" stroke="black"  fill="transparent"/>

<line
x1="556" y1="681" x2="562" y2="697"
id="0"
style="stroke:black;stroke-width:1.000000;stroke-opacity:0" />


<line
x1="547" y1="659" x2="542" y2="646"
id="SmallMolecule_f6a84cbd339bc7260ec22b44a3ce89e2--to--BiochemicalReaction_811b11ee55eb67bf33db348fa0bf3d05_LEFT_TO_RIGHT-input"
style="stroke:black;stroke-width:1.000000;stroke-opacity:0" />


<path d="M244.000000 497.000000 C 255.000000 490.000000, 274.000000 478.000000,288.000000 470.000000" stroke="black"  fill="transparent"/>

<line
x1="255" y1="490" x2="244" y2="497"
id="0"
style="stroke:black;stroke-width:1.000000;stroke-opacity:0" />


<line
x1="274" y1="478" x2="288" y2="470"
id="BiochemicalReaction_371f4517b1c41f3a2592f899afee377c_LEFT_TO_RIGHT-output--to--SmallMolecule_33e0f5924fd06608a318c1e810639bf0"
style="stroke:black;stroke-width:1.000000;stroke-opacity:0" />


<polygon
points = "288,470 279.2,465.6 279.2,474.4"
id="line"
style="fill:black; stroke:#000000; stroke-width:1"
transform = "rotate(-29.744881 288.000000 470.000000)"
/>


<path d="M311.000000 514.000000 C 292.000000 511.000000, 260.000000 506.000000,245.000000 504.000000" stroke="black"  fill="transparent"/>

<line
x1="292" y1="511" x2="311" y2="514"
id="0"
style="stroke:black;stroke-width:1.000000;stroke-opacity:0" />


<line
x1="260" y1="506" x2="245" y2="504"
id="SmallMolecule_24bc3dfe8df8f812b7c13f4adaee6311--to--BiochemicalReaction_371f4517b1c41f3a2592f899afee377c_LEFT_TO_RIGHT-input"
style="stroke:black;stroke-width:1.000000;stroke-opacity:0" />


<path d="M392.000000 559.000000 C 398.000000 544.000000, 406.000000 523.000000,411.000000 511.000000" stroke="black"  fill="transparent"/>

<line
x1="398" y1="544" x2="392" y2="559"
id="0"
style="stroke:black;stroke-width:1.000000;stroke-opacity:0" />


<line
x1="406" y1="523" x2="411" y2="511"
id="Protein_7b865ef8d6ad0c984fc28c6f6b64a8f2--to--BiochemicalReaction_7f1eb0e99c333e16842ad4e354ffdb2f_LEFT_TO_RIGHT"
style="stroke:black;stroke-width:1.000000;stroke-opacity:0" />


<ellipse
rx="4.400000"
ry="4.400000"
cx="409.307692"
cy="515.061538"
id="Protein_7b865ef8d6ad0c984fc28c6f6b64a8f2--to--BiochemicalReaction_7f1eb0e99c333e16842ad4e354ffdb2f_LEFT_TO_RIGHT"
style="fill:white;fill-opacity:0.800000;stroke:black;stroke-width:1.000000;stroke-opacity:1.000000" />


<path d="M823.000000 362.000000 C 824.000000 380.000000, 825.000000 408.000000,826.000000 423.000000" stroke="black"  fill="transparent"/>

<line
x1="825" y1="408" x2="826" y2="423"
id="0"
style="stroke:black;stroke-width:1.000000;stroke-opacity:0" />


<line
x1="824" y1="380" x2="823" y2="362"
id="BiochemicalReaction_00377852d22b743e660e4049d850f011_LEFT_TO_RIGHT-output--to--SmallMolecule_e07e6a4df25ae66667e34d13f607340d"
style="stroke:black;stroke-width:1.000000;stroke-opacity:0" />


<polygon
points = "823,362 814.2,357.6 814.2,366.4"
id="line"
style="fill:black; stroke:#000000; stroke-width:1"
transform = "rotate(266.820170 823.000000 362.000000)"
/>


<path d="M328.000000 304.000000 C 326.000000 317.000000, 322.000000 343.000000,320.000000 359.000000" stroke="black"  fill="transparent"/>

<line
x1="322" y1="343" x2="320" y2="359"
id="0"
style="stroke:black;stroke-width:1.000000;stroke-opacity:0" />


<line
x1="326" y1="317" x2="328" y2="304"
id="SmallMolecule_b6889598a1d5b1968aa07721bac66e26--to--Conversion_e81314ac645e78f6ba7468cc136930ca_LEFT_TO_RIGHT-input"
style="stroke:black;stroke-width:1.000000;stroke-opacity:0" />


<path d="M464.000000 429.000000 C 447.000000 431.000000, 420.000000 435.000000,406.000000 437.000000" stroke="black"  fill="transparent"/>

<line
x1="447" y1="431" x2="464" y2="429"
id="0"
style="stroke:black;stroke-width:1.000000;stroke-opacity:0" />


<line
x1="420" y1="435" x2="406" y2="437"
id="SmallMolecule_067280b8b822ca79f313ec8eebae1ca8--to--BiochemicalReaction_401d076a31c2034b2f8a9cd8a230dcf9_LEFT_TO_RIGHT-input"
style="stroke:black;stroke-width:1.000000;stroke-opacity:0" />


<path d="M530.000000 645.000000 C 519.000000 656.000000, 498.000000 674.000000,483.000000 688.000000" stroke="black"  fill="transparent"/>

<line
x1="498" y1="674" x2="483" y2="688"
id="0"
style="stroke:black;stroke-width:1.000000;stroke-opacity:0" />


<line
x1="519" y1="656" x2="530" y2="645"
id="Protein_962edfac7e91ff7911cc8ee551c68b74--to--BiochemicalReaction_811b11ee55eb67bf33db348fa0bf3d05_LEFT_TO_RIGHT"
style="stroke:black;stroke-width:1.000000;stroke-opacity:0" />


<ellipse
rx="4.400000"
ry="4.400000"
cx="526.888730"
cy="648.111270"
id="Protein_962edfac7e91ff7911cc8ee551c68b74--to--BiochemicalReaction_811b11ee55eb67bf33db348fa0bf3d05_LEFT_TO_RIGHT"
style="fill:white;fill-opacity:0.800000;stroke:black;stroke-width:1.000000;stroke-opacity:1.000000" />


<path d="M232.000000 493.000000 C 226.000000 480.000000, 214.000000 454.000000,206.000000 437.000000" stroke="black"  fill="transparent"/>

<line
x1="226" y1="480" x2="232" y2="493"
id="0"
style="stroke:black;stroke-width:1.000000;stroke-opacity:0" />


<line
x1="214" y1="454" x2="206" y2="437"
id="BiochemicalReaction_371f4517b1c41f3a2592f899afee377c_LEFT_TO_RIGHT-output--to--SmallMolecule_f6a6d2950ece137127337a7f93e23820"
style="stroke:black;stroke-width:1.000000;stroke-opacity:0" />


<polygon
points = "206,437 197.2,432.6 197.2,441.4"
id="line"
style="fill:black; stroke:#000000; stroke-width:1"
transform = "rotate(244.798876 206.000000 437.000000)"
/>


<path d="M672.000000 254.000000 C 657.000000 244.000000, 636.000000 230.000000,624.000000 222.000000" stroke="black"  fill="transparent"/>

<line
x1="657" y1="244" x2="672" y2="254"
id="0"
style="stroke:black;stroke-width:1.000000;stroke-opacity:0" />


<line
x1="636" y1="230" x2="624" y2="222"
id="SmallMolecule_a3b1a1da17a4d622fdff28aef04b14cd--to--BiochemicalReaction_840afb1f4e45092db07e281473e607f0_LEFT_TO_RIGHT-input"
style="stroke:black;stroke-width:1.000000;stroke-opacity:0" />


<path d="M466.000000 443.000000 C 452.000000 458.000000, 433.000000 481.000000,422.000000 493.000000" stroke="black"  fill="transparent"/>

<line
x1="452" y1="458" x2="466" y2="443"
id="0"
style="stroke:black;stroke-width:1.000000;stroke-opacity:0" />


<line
x1="433" y1="481" x2="422" y2="493"
id="SmallMolecule_067280b8b822ca79f313ec8eebae1ca8--to--BiochemicalReaction_7f1eb0e99c333e16842ad4e354ffdb2f_LEFT_TO_RIGHT-input"
style="stroke:black;stroke-width:1.000000;stroke-opacity:0" />


<path d="M279.000000 572.000000 C 265.000000 571.000000, 235.000000 571.000000,212.000000 570.000000" stroke="black"  fill="transparent"/>

<line
x1="235" y1="571" x2="212" y2="570"
id="0"
style="stroke:black;stroke-width:1.000000;stroke-opacity:0" />


<line
x1="265" y1="571" x2="279" y2="572"
id="Protein_99ad4284f613e19b81372bd05a980729--to--BiochemicalReaction_ed0f5666badb754edb66f91c91248f38_LEFT_TO_RIGHT"
style="stroke:black;stroke-width:1.000000;stroke-opacity:0" />


<ellipse
rx="4.400000"
ry="4.400000"
cx="274.611182"
cy="571.686513"
id="Protein_99ad4284f613e19b81372bd05a980729--to--BiochemicalReaction_ed0f5666badb754edb66f91c91248f38_LEFT_TO_RIGHT"
style="fill:white;fill-opacity:0.800000;stroke:black;stroke-width:1.000000;stroke-opacity:1.000000" />


<path d="M566.000000 275.000000 C 559.000000 261.000000, 546.000000 236.000000,537.000000 219.000000" stroke="black"  fill="transparent"/>

<line
x1="559" y1="261" x2="566" y2="275"
id="0"
style="stroke:black;stroke-width:1.000000;stroke-opacity:0" />


<line
x1="546" y1="236" x2="537" y2="219"
id="BiochemicalReaction_e124cee0a18d6fb6033816dc6577c54d_LEFT_TO_RIGHT-output--to--SmallMolecule_a6391246486ed41379870d3a185017b4"
style="stroke:black;stroke-width:1.000000;stroke-opacity:0" />


<polygon
points = "537,219 528.2,214.6 528.2,223.4"
id="line"
style="fill:black; stroke:#000000; stroke-width:1"
transform = "rotate(242.102729 537.000000 219.000000)"
/>


<path d="M454.000000 176.000000 C 468.000000 181.000000, 495.000000 191.000000,512.000000 197.000000" stroke="black"  fill="transparent"/>

<line
x1="495" y1="191" x2="512" y2="197"
id="0"
style="stroke:black;stroke-width:1.000000;stroke-opacity:0" />


<line
x1="468" y1="181" x2="454" y2="176"
id="SmallMolecule_a6391246486ed41379870d3a185017b4--to--BiochemicalReaction_1edb093b36c6eab59bad3a84e9775ff0_LEFT_TO_RIGHT-input"
style="stroke:black;stroke-width:1.000000;stroke-opacity:0" />


<path d="M289.000000 563.000000 C 292.000000 544.000000, 298.000000 500.000000,302.000000 476.000000" stroke="black"  fill="transparent"/>

<line
x1="298" y1="500" x2="302" y2="476"
id="0"
style="stroke:black;stroke-width:1.000000;stroke-opacity:0" />


<line
x1="292" y1="544" x2="289" y2="563"
id="SmallMolecule_33e0f5924fd06608a318c1e810639bf0--to--BiochemicalReaction_ed0f5666badb754edb66f91c91248f38_LEFT_TO_RIGHT-input"
style="stroke:black;stroke-width:1.000000;stroke-opacity:0" />


<path d="M321.000000 456.000000 C 341.000000 451.000000, 373.000000 444.000000,388.000000 441.000000" stroke="black"  fill="transparent"/>

<line
x1="341" y1="451" x2="321" y2="456"
id="0"
style="stroke:black;stroke-width:1.000000;stroke-opacity:0" />


<line
x1="373" y1="444" x2="388" y2="441"
id="SmallMolecule_33e0f5924fd06608a318c1e810639bf0--to--BiochemicalReaction_401d076a31c2034b2f8a9cd8a230dcf9_LEFT_TO_RIGHT-input"
style="stroke:black;stroke-width:1.000000;stroke-opacity:0" />


<path d="M207.000000 404.000000 C 215.000000 388.000000, 227.000000 366.000000,234.000000 354.000000" stroke="black"  fill="transparent"/>

<line
x1="227" y1="366" x2="234" y2="354"
id="0"
style="stroke:black;stroke-width:1.000000;stroke-opacity:0" />


<line
x1="215" y1="388" x2="207" y2="404"
id="BiochemicalReaction_ed05854471990516fcd101268a7ba61b_LEFT_TO_RIGHT-output--to--SmallMolecule_f6a6d2950ece137127337a7f93e23820"
style="stroke:black;stroke-width:1.000000;stroke-opacity:0" />


<polygon
points = "207,404 198.2,399.6 198.2,408.4"
id="line"
style="fill:black; stroke:#000000; stroke-width:1"
transform = "rotate(116.565051 207.000000 404.000000)"
/>


<path d="M607.000000 214.000000 C 593.000000 212.000000, 563.000000 208.000000,545.000000 205.000000" stroke="black"  fill="transparent"/>

<line
x1="593" y1="212" x2="607" y2="214"
id="0"
style="stroke:black;stroke-width:1.000000;stroke-opacity:0" />


<line
x1="563" y1="208" x2="545" y2="205"
id="BiochemicalReaction_840afb1f4e45092db07e281473e607f0_LEFT_TO_RIGHT-output--to--SmallMolecule_a6391246486ed41379870d3a185017b4"
style="stroke:black;stroke-width:1.000000;stroke-opacity:0" />


<polygon
points = "545,205 536.2,200.6 536.2,209.4"
id="line"
style="fill:black; stroke:#000000; stroke-width:1"
transform = "rotate(189.462322 545.000000 205.000000)"
/>


<path d="M404.000000 373.000000 C 402.000000 390.000000, 399.000000 417.000000,398.000000 430.000000" stroke="black"  fill="transparent"/>

<line
x1="402" y1="390" x2="404" y2="373"
id="0"
style="stroke:black;stroke-width:1.000000;stroke-opacity:0" />


<line
x1="399" y1="417" x2="398" y2="430"
id="Protein_5c20a87e907583ce0ba0292c6bd5325e--to--BiochemicalReaction_401d076a31c2034b2f8a9cd8a230dcf9_LEFT_TO_RIGHT"
style="stroke:black;stroke-width:1.000000;stroke-opacity:0" />


<ellipse
rx="4.400000"
ry="4.400000"
cx="398.337465"
cy="425.612960"
id="Protein_5c20a87e907583ce0ba0292c6bd5325e--to--BiochemicalReaction_401d076a31c2034b2f8a9cd8a230dcf9_LEFT_TO_RIGHT"
style="fill:white;fill-opacity:0.800000;stroke:black;stroke-width:1.000000;stroke-opacity:1.000000" />


<path d="M562.000000 286.000000 C 549.000000 290.000000, 526.000000 297.000000,510.000000 302.000000" stroke="black"  fill="transparent"/>

<line
x1="526" y1="297" x2="510" y2="302"
id="0"
style="stroke:black;stroke-width:1.000000;stroke-opacity:0" />


<line
x1="549" y1="290" x2="562" y2="286"
id="SmallMolecule_a5223a3e2d59bd05449436f1008212a3--to--BiochemicalReaction_e124cee0a18d6fb6033816dc6577c54d_LEFT_TO_RIGHT-input"
style="stroke:black;stroke-width:1.000000;stroke-opacity:0" />


<path d="M554.000000 486.000000 C 541.000000 487.000000, 517.000000 489.000000,500.000000 490.000000" stroke="black"  fill="transparent"/>

<line
x1="541" y1="487" x2="554" y2="486"
id="0"
style="stroke:black;stroke-width:1.000000;stroke-opacity:0" />


<line
x1="517" y1="489" x2="500" y2="490"
id="BiochemicalReaction_37720768e9d73a36c71f7e69711e1ac4_LEFT_TO_RIGHT-output--to--SmallMolecule_68d9752916a73cd26503beaec2ab3811"
style="stroke:black;stroke-width:1.000000;stroke-opacity:0" />


<polygon
points = "500,490 491.2,485.6 491.2,494.4"
id="line"
style="fill:black; stroke:#000000; stroke-width:1"
transform = "rotate(176.633539 500.000000 490.000000)"
/>


<path d="M334.000000 389.000000 C 350.000000 402.000000, 375.000000 422.000000,388.000000 432.000000" stroke="black"  fill="transparent"/>

<line
x1="375" y1="422" x2="388" y2="432"
id="0"
style="stroke:black;stroke-width:1.000000;stroke-opacity:0" />


<line
x1="350" y1="402" x2="334" y2="389"
id="BiochemicalReaction_401d076a31c2034b2f8a9cd8a230dcf9_LEFT_TO_RIGHT-output--to--SmallMolecule_b6889598a1d5b1968aa07721bac66e26"
style="stroke:black;stroke-width:1.000000;stroke-opacity:0" />


<polygon
points = "334,389 325.2,384.6 325.2,393.4"
id="line"
style="fill:black; stroke:#000000; stroke-width:1"
transform = "rotate(219.093859 334.000000 389.000000)"
/>


<path d="M218.000000 253.000000 C 233.000000 242.000000, 256.000000 226.000000,268.000000 217.000000" stroke="black"  fill="transparent"/>

<line
x1="256" y1="226" x2="268" y2="217"
id="0"
style="stroke:black;stroke-width:1.000000;stroke-opacity:0" />


<line
x1="233" y1="242" x2="218" y2="253"
id="BiochemicalReaction_3723a4a8b4b69dbe51ceb5683c220946_LEFT_TO_RIGHT-output--to--SmallMolecule_4392a85ec9e170ec995a9b7f9f5fcf36"
style="stroke:black;stroke-width:1.000000;stroke-opacity:0" />


<polygon
points = "218,253 209.2,248.6 209.2,257.4"
id="line"
style="fill:black; stroke:#000000; stroke-width:1"
transform = "rotate(143.746162 218.000000 253.000000)"
/>


<path d="M467.000000 494.000000 C 453.000000 496.000000, 434.000000 499.000000,423.000000 501.000000" stroke="black"  fill="transparent"/>

<line
x1="434" y1="499" x2="423" y2="501"
id="0"
style="stroke:black;stroke-width:1.000000;stroke-opacity:0" />


<line
x1="453" y1="496" x2="467" y2="494"
id="BiochemicalReaction_7f1eb0e99c333e16842ad4e354ffdb2f_LEFT_TO_RIGHT-output--to--SmallMolecule_68d9752916a73cd26503beaec2ab3811"
style="stroke:black;stroke-width:1.000000;stroke-opacity:0" />


<polygon
points = "467,494 458.2,489.6 458.2,498.4"
id="line"
style="fill:black; stroke:#000000; stroke-width:1"
transform = "rotate(-8.130102 467.000000 494.000000)"
/>


<path d="M530.000000 630.000000 C 520.000000 620.000000, 501.000000 604.000000,487.000000 591.000000" stroke="black"  fill="transparent"/>

<line
x1="520" y1="620" x2="530" y2="630"
id="0"
style="stroke:black;stroke-width:1.000000;stroke-opacity:0" />


<line
x1="501" y1="604" x2="487" y2="591"
id="BiochemicalReaction_811b11ee55eb67bf33db348fa0bf3d05_LEFT_TO_RIGHT-output--to--SmallMolecule_d3e452ff6ce941b400cba12bdf06e19b"
style="stroke:black;stroke-width:1.000000;stroke-opacity:0" />


<polygon
points = "487,591 478.2,586.6 478.2,595.4"
id="line"
style="fill:black; stroke:#000000; stroke-width:1"
transform = "rotate(222.878904 487.000000 591.000000)"
/>


<path d="M875.000000 481.000000 C 862.000000 468.000000, 845.000000 450.000000,835.000000 440.000000" stroke="black"  fill="transparent"/>

<line
x1="862" y1="468" x2="875" y2="481"
id="0"
style="stroke:black;stroke-width:1.000000;stroke-opacity:0" />


<line
x1="845" y1="450" x2="835" y2="440"
id="SmallMolecule_52862d2b481d37cc258d1b3fad5fa48e--to--BiochemicalReaction_00377852d22b743e660e4049d850f011_LEFT_TO_RIGHT-input"
style="stroke:black;stroke-width:1.000000;stroke-opacity:0" />


<path d="M280.000000 580.000000 C 270.000000 592.000000, 251.000000 613.000000,238.000000 628.000000" stroke="black"  fill="transparent"/>

<line
x1="251" y1="613" x2="238" y2="628"
id="0"
style="stroke:black;stroke-width:1.000000;stroke-opacity:0" />


<line
x1="270" y1="592" x2="280" y2="580"
id="SmallMolecule_90ce7c9048d46d7d9df069e977d4404e--to--BiochemicalReaction_ed0f5666badb754edb66f91c91248f38_LEFT_TO_RIGHT-input"
style="stroke:black;stroke-width:1.000000;stroke-opacity:0" />


<path d="M292.000000 646.000000 C 291.000000 627.000000, 289.000000 596.000000,288.000000 581.000000" stroke="black"  fill="transparent"/>

<line
x1="289" y1="596" x2="288" y2="581"
id="0"
style="stroke:black;stroke-width:1.000000;stroke-opacity:0" />


<line
x1="291" y1="627" x2="292" y2="646"
id="BiochemicalReaction_ed0f5666badb754edb66f91c91248f38_LEFT_TO_RIGHT-output--to--SmallMolecule_d0181c8049e2cf54cea6d28e91facd60"
style="stroke:black;stroke-width:1.000000;stroke-opacity:0" />


<polygon
points = "292,646 283.2,641.6 283.2,650.4"
id="line"
style="fill:black; stroke:#000000; stroke-width:1"
transform = "rotate(86.987212 292.000000 646.000000)"
/>


<path d="M458.000000 559.000000 C 447.000000 544.000000, 430.000000 523.000000,421.000000 511.000000" stroke="black"  fill="transparent"/>

<line
x1="447" y1="544" x2="458" y2="559"
id="0"
style="stroke:black;stroke-width:1.000000;stroke-opacity:0" />


<line
x1="430" y1="523" x2="421" y2="511"
id="SmallMolecule_d3e452ff6ce941b400cba12bdf06e19b--to--BiochemicalReaction_7f1eb0e99c333e16842ad4e354ffdb2f_LEFT_TO_RIGHT-input"
style="stroke:black;stroke-width:1.000000;stroke-opacity:0" />


<path d="M338.000000 291.000000 C 350.000000 284.000000, 372.000000 272.000000,387.000000 263.000000" stroke="black"  fill="transparent"/>

<line
x1="350" y1="284" x2="338" y2="291"
id="0"
style="stroke:black;stroke-width:1.000000;stroke-opacity:0" />


<line
x1="372" y1="272" x2="387" y2="263"
id="Conversion_e81314ac645e78f6ba7468cc136930ca_LEFT_TO_RIGHT-output--to--SmallMolecule_5c06eba5a4e4125731a3c5a8f522e195"
style="stroke:black;stroke-width:1.000000;stroke-opacity:0" />


<polygon
points = "387,263 378.2,258.6 378.2,267.4"
id="line"
style="fill:black; stroke:#000000; stroke-width:1"
transform = "rotate(-30.963757 387.000000 263.000000)"
/>


<path d="M682.000000 282.000000 C 677.000000 299.000000, 668.000000 324.000000,663.000000 337.000000" stroke="black"  fill="transparent"/>

<line
x1="668" y1="324" x2="663" y2="337"
id="0"
style="stroke:black;stroke-width:1.000000;stroke-opacity:0" />


<line
x1="677" y1="299" x2="682" y2="282"
id="BiochemicalReaction_63e69d1c3fe5bf6e4354ffd7f4c426d9_LEFT_TO_RIGHT-output--to--SmallMolecule_a3b1a1da17a4d622fdff28aef04b14cd"
style="stroke:black;stroke-width:1.000000;stroke-opacity:0" />


<polygon
points = "682,282 673.2,277.6 673.2,286.4"
id="line"
style="fill:black; stroke:#000000; stroke-width:1"
transform = "rotate(-73.610460 682.000000 282.000000)"
/>


<path d="M437.000000 172.000000 C 422.000000 171.000000, 392.000000 169.000000,372.000000 167.000000" stroke="black"  fill="transparent"/>

<line
x1="422" y1="171" x2="437" y2="172"
id="0"
style="stroke:black;stroke-width:1.000000;stroke-opacity:0" />


<line
x1="392" y1="169" x2="372" y2="167"
id="BiochemicalReaction_1edb093b36c6eab59bad3a84e9775ff0_LEFT_TO_RIGHT-output--to--SmallMolecule_d96db7b1af587a5f6a5d08a57a929bf5"
style="stroke:black;stroke-width:1.000000;stroke-opacity:0" />


<polygon
points = "372,167 363.2,162.6 363.2,171.4"
id="line"
style="fill:black; stroke:#000000; stroke-width:1"
transform = "rotate(185.710593 372.000000 167.000000)"
/>


<path d="M339.000000 175.000000 C 323.000000 185.000000, 298.000000 198.000000,286.000000 206.000000" stroke="black"  fill="transparent"/>

<line
x1="323" y1="185" x2="339" y2="175"
id="0"
style="stroke:black;stroke-width:1.000000;stroke-opacity:0" />


<line
x1="298" y1="198" x2="286" y2="206"
id="SmallMolecule_d96db7b1af587a5f6a5d08a57a929bf5--to--BiochemicalReaction_3723a4a8b4b69dbe51ceb5683c220946_LEFT_TO_RIGHT-input"
style="stroke:black;stroke-width:1.000000;stroke-opacity:0" />


<path d="M344.000000 625.000000 C 329.000000 611.000000, 308.000000 591.000000,297.000000 580.000000" stroke="black"  fill="transparent"/>

<line
x1="308" y1="591" x2="297" y2="580"
id="0"
style="stroke:black;stroke-width:1.000000;stroke-opacity:0" />


<line
x1="329" y1="611" x2="344" y2="625"
id="BiochemicalReaction_ed0f5666badb754edb66f91c91248f38_LEFT_TO_RIGHT-output--to--SmallMolecule_b8f066fd98d5bb230271a79c3f3a523f"
style="stroke:black;stroke-width:1.000000;stroke-opacity:0" />


<polygon
points = "344,625 335.2,620.6 335.2,629.4"
id="line"
style="fill:black; stroke:#000000; stroke-width:1"
transform = "rotate(43.025066 344.000000 625.000000)"
/>


<path d="M345.000000 514.000000 C 363.000000 511.000000, 391.000000 506.000000,406.000000 504.000000" stroke="black"  fill="transparent"/>

<line
x1="391" y1="506" x2="406" y2="504"
id="0"
style="stroke:black;stroke-width:1.000000;stroke-opacity:0" />


<line
x1="363" y1="511" x2="345" y2="514"
id="BiochemicalReaction_7f1eb0e99c333e16842ad4e354ffdb2f_LEFT_TO_RIGHT-output--to--SmallMolecule_24bc3dfe8df8f812b7c13f4adaee6311"
style="stroke:black;stroke-width:1.000000;stroke-opacity:0" />


<polygon
points = "345,514 336.2,509.6 336.2,518.4"
id="line"
style="fill:black; stroke:#000000; stroke-width:1"
transform = "rotate(170.537678 345.000000 514.000000)"
/>



</svg>
