<?xml version="1.0" encoding="UTF-8"?>
<svg width="1706.294844" height="1422.269463"
xmlns="http://www.w3.org/2000/svg" xmlns:svg="http://www.w3.org/2000/svg"
>
<metadata id="metadata7">image/svg+xml</metadata>

<rect
width="283.828871"
height="275.966738"
rx="11.000000"
ry="11.000000"
x="109.982807"
y="240.087560"
id="nucleus"
style="fill:white;fill-opacity:0.900000;stroke:black;stroke-width:5.000000;stroke-opacity:1.000000" />


<text
x="251.897243"
y="232.087560"
id="nucleus"
style="font-size:6.000000px;text-anchor:middle;font-family:Arial,Helvetica;alignment-baseline:baseline;stroke.opacity:1;dominant-baseline:baseline"
fill="black"
>
nucleus</text>


<rect
width="282.803976"
height="220.616954"
rx="11.000000"
ry="11.000000"
x="1071.245480"
y="344.632496"
id="exocytic_vesicle"
style="fill:white;fill-opacity:0.900000;stroke:black;stroke-width:5.000000;stroke-opacity:1.000000" />


<text
x="1212.647468"
y="336.632496"
id="exocytic_vesicle"
style="font-size:6.000000px;text-anchor:middle;font-family:Arial,Helvetica;alignment-baseline:baseline;stroke.opacity:1;dominant-baseline:baseline"
fill="black"
>
exocytic vesicle</text>


<rect
width="305.020822"
height="1039.269463"
rx="11.000000"
ry="11.000000"
x="741.324122"
y="183.000000"
id="cell"
style="fill:white;fill-opacity:0.900000;stroke:black;stroke-width:5.000000;stroke-opacity:1.000000" />


<text
x="893.834533"
y="175.000000"
id="cell"
style="font-size:6.000000px;text-anchor:middle;font-family:Arial,Helvetica;alignment-baseline:baseline;stroke.opacity:1;dominant-baseline:baseline"
fill="black"
>
cell</text>


<rect
width="251.516863"
height="247.560888"
rx="11.000000"
ry="11.000000"
x="395.958957"
y="356.592249"
id="endoplasmic_reticulum"
style="fill:white;fill-opacity:0.900000;stroke:black;stroke-width:5.000000;stroke-opacity:1.000000" />


<text
x="521.717388"
y="348.592249"
id="endoplasmic_reticulum"
style="font-size:6.000000px;text-anchor:middle;font-family:Arial,Helvetica;alignment-baseline:baseline;stroke.opacity:1;dominant-baseline:baseline"
fill="black"
>
endoplasmic reticulum</text>



<path
d="M 754.668159417258 751.255336245189 754.668159417258 833.272002911859 760.168159417258 838.772002911859 825.101492750591 838.772002911859 830.601492750591 833.272002911859 830.601492750591 751.255336245189 825.101492750591 745.755336245189 760.168159417258 745.755336245189 Z"
id="Complex_1184ff8cb38dc8c4233d98977a313880"
style="fill:white;fill-opacity:0.600000;stroke-width:1;stroke:black;stroke-opacity:1.000000"
transform = "rotate(0.000000 0.000000 0.000000)"
/>


<text
x="792.634826"
y="737.755336"
id="Complex_1184ff8cb38dc8c4233d98977a313880"
style="font-size:6.000000px;text-anchor:middle;font-family:Arial,Helvetica;alignment-baseline:baseline;stroke.opacity:1;dominant-baseline:baseline"
fill="black"
>
Complex (GTP/G-protein)</text>


<path
d="M 752.32412201897 465.764062231429 752.32412201897 547.780728898096 757.82412201897 553.280728898096 889.840788685636 553.280728898096 895.340788685636 547.780728898096 895.340788685636 465.764062231429 889.840788685636 460.264062231429 757.82412201897 460.264062231429 Z"
id="Complex_ac1e57f86dab369498a0fce4e2187886"
style="fill:white;fill-opacity:0.600000;stroke-width:1;stroke:black;stroke-opacity:1.000000"
transform = "rotate(0.000000 0.000000 0.000000)"
/>


<text
x="823.832455"
y="452.264062"
id="Complex_ac1e57f86dab369498a0fce4e2187886"
style="font-size:6.000000px;text-anchor:middle;font-family:Arial,Helvetica;alignment-baseline:baseline;stroke.opacity:1;dominant-baseline:baseline"
fill="black"
>
</text>


<path
d="M 959.411610949053 650.859851531579 959.411610949053 732.876518198245 964.911610949053 738.376518198245 1029.84494428239 738.376518198245 1035.34494428239 732.876518198245 1035.34494428239 650.859851531579 1029.84494428239 645.359851531579 964.911610949053 645.359851531579 Z"
id="Complex_d46726ac1436f7c5005c673a042deceb"
style="fill:white;fill-opacity:0.600000;stroke-width:1;stroke:black;stroke-opacity:1.000000"
transform = "rotate(0.000000 0.000000 0.000000)"
/>


<text
x="997.378278"
y="637.359852"
id="Complex_d46726ac1436f7c5005c673a042deceb"
style="font-size:6.000000px;text-anchor:middle;font-family:Arial,Helvetica;alignment-baseline:baseline;stroke.opacity:1;dominant-baseline:baseline"
fill="black"
>
</text>


<path
d="M 812.140266185803 205.5 812.140266185803 287.516666666666 817.640266185803 293.016666666666 924.656932852469 293.016666666666 930.156932852469 287.516666666666 930.156932852469 205.5 924.656932852469 200 817.640266185803 200 Z"
id="Complex_350359a84e9689f5ba00fc1f5e419573"
style="fill:white;fill-opacity:0.600000;stroke-width:1;stroke:black;stroke-opacity:1.000000"
transform = "rotate(0.000000 0.000000 0.000000)"
/>


<text
x="871.148600"
y="192.000000"
id="Complex_350359a84e9689f5ba00fc1f5e419573"
style="font-size:6.000000px;text-anchor:middle;font-family:Arial,Helvetica;alignment-baseline:baseline;stroke.opacity:1;dominant-baseline:baseline"
fill="black"
>
Complex (GDP/G-protein/ Sigma Receptor)</text>




<rect
width="58.333333"
height="33.333333"
rx="3.333333"
ry="3.333333"
x="1147.587005"
y="618.772258"
id="Protein_2b4ff3d43d4dccac33de8ef4401c0bc2"
style="fill:white;fill-opacity:1.000000;stroke:black;stroke-width:1.000000;stroke-opacity:1.000000" />


<text
x="1176.753672"
y="637.438925"
id="Protein_2b4ff3d43d4dccac33de8ef4401c0bc2"
style="font-size:6.000000px;text-anchor:middle;font-family:Arial,Helvetica;alignment-baseline:baseline;stroke.opacity:1;dominant-baseline:baseline"
fill="black"
>
PDYN</text>



<ellipse
rx="29.166667"
ry="16.666667"
cx="129.166667"
cy="168.319885"
id="PhysicalEntity_76dece61f7f76b67a40aa19d9ca5faf4"
style="fill:white;fill-opacity:1.000000;stroke:black;stroke-width:1.000000;stroke-opacity:1.000000" />



<text
x="129.166667"
y="167.319885"
id="PhysicalEntity_76dece61f7f76b67a40aa19d9ca5faf4"
style="font-size:6.000000px;text-anchor:middle;font-family:Arial,Helvetica;alignment-baseline:baseline;stroke.opacity:1;dominant-baseline:baseline"
fill="black"
>
dehydration or salt</text>


<text
x="129.166667"
y="173.319885"
id="PhysicalEntity_76dece61f7f76b67a40aa19d9ca5faf4"
style="font-size:6.000000px;text-anchor:middle;font-family:Arial,Helvetica;alignment-baseline:baseline;stroke.opacity:1;dominant-baseline:baseline"
fill="black"
>
 loading stress</text>



<rect
width="58.333333"
height="33.333333"
rx="3.333333"
ry="3.333333"
x="1317.961511"
y="621.743371"
id="Protein_c07fd5ac8e41ef127129b48032181ff5"
style="fill:white;fill-opacity:1.000000;stroke:black;stroke-width:1.000000;stroke-opacity:1.000000" />


<text
x="1347.128178"
y="640.410038"
id="Protein_c07fd5ac8e41ef127129b48032181ff5"
style="font-size:6.000000px;text-anchor:middle;font-family:Arial,Helvetica;alignment-baseline:baseline;stroke.opacity:1;dominant-baseline:baseline"
fill="black"
>
vasopressin</text>



<rect
width="58.333333"
height="33.333333"
rx="3.333333"
ry="3.333333"
x="510.424830"
y="413.778761"
id="Protein_2ef7c235b8a46168630ba873900fa214"
style="fill:white;fill-opacity:1.000000;stroke:black;stroke-width:1.000000;stroke-opacity:1.000000" />


<text
x="539.591497"
y="432.445428"
id="Protein_2ef7c235b8a46168630ba873900fa214"
style="font-size:6.000000px;text-anchor:middle;font-family:Arial,Helvetica;alignment-baseline:baseline;stroke.opacity:1;dominant-baseline:baseline"
fill="black"
>
PDYN</text>



<rect
width="58.333333"
height="33.333333"
rx="3.333333"
ry="3.333333"
x="454.044019"
y="535.780628"
id="Protein_43451d463812f36594d1bf70c965e448"
style="fill:white;fill-opacity:1.000000;stroke:black;stroke-width:1.000000;stroke-opacity:1.000000" />


<text
x="483.210686"
y="554.447295"
id="Protein_43451d463812f36594d1bf70c965e448"
style="font-size:6.000000px;text-anchor:middle;font-family:Arial,Helvetica;alignment-baseline:baseline;stroke.opacity:1;dominant-baseline:baseline"
fill="black"
>
provasopressin</text>


<rect
width="16.666667"
height="16.666667"
rx="0.000000"
ry="0.000000"
x="619.809153"
y="481.568373"
id="Conversion_15718c4519a64687678a63098bbfc65c_LEFT_TO_RIGHT"
style="fill:white;fill-opacity:0.600000;stroke:black;stroke-width:1.000000;stroke-opacity:1.000000" />



<rect
width="16.666667"
height="16.666667"
rx="0.000000"
ry="0.000000"
x="406.958957"
y="465.525785"
id="Conversion_f710963a6e1aef3c9c481ec8ba4839e8_LEFT_TO_RIGHT"
style="fill:white;fill-opacity:0.600000;stroke:black;stroke-width:1.000000;stroke-opacity:1.000000" />



<rect
width="16.666667"
height="16.666667"
rx="0.000000"
ry="0.000000"
x="439.557682"
y="367.592249"
id="Conversion_05620b012d891af022fd495cc380e1dd_LEFT_TO_RIGHT"
style="fill:white;fill-opacity:0.600000;stroke:black;stroke-width:1.000000;stroke-opacity:1.000000" />



<rect
width="16.666667"
height="16.666667"
rx="0.000000"
ry="0.000000"
x="585.309605"
y="576.486471"
id="Conversion_4d7dde5c1fe5068386cf07a8aaf16a81_LEFT_TO_RIGHT"
style="fill:white;fill-opacity:0.600000;stroke:black;stroke-width:1.000000;stroke-opacity:1.000000" />




<path
d="M 324.478345337124 378.14543754286 Q 324.478345337124 378.14543754286 324.478345337124 378.14543754286 L 382.811678670457 378.14543754286 Q 382.811678670457 378.14543754286 382.811678670457 378.14543754286 L 382.811678670457 405.64543754286 Q 382.811678670457 411.478770876193 376.978345337124 411.478770876193 L 330.311678670457 411.478770876193 Q 324.478345337124 411.478770876193 324.478345337124 405.64543754286 Z"
id="RnaRegion_db48a2feff7cd2018c9c789eb600e574"
style="fill:white;fill-opacity:1.000000;stroke-width:1;stroke:black;stroke-opacity:1.000000"
transform = "rotate(0.000000 0.000000 0.000000)"
/>


<text
x="353.645012"
y="396.812104"
id="RnaRegion_db48a2feff7cd2018c9c789eb600e574"
style="font-size:6.000000px;text-anchor:middle;font-family:Arial,Helvetica;alignment-baseline:baseline;stroke.opacity:1;dominant-baseline:baseline"
fill="black"
>
preprodynorphin</text>


<rect
width="29.166667"
height="14.583333"
rx="0.000000"
ry="0.000000"
x="324.478345"
y="370.853771"
id="RnaRegion_db48a2feff7cd2018c9c789eb600e574.info.1"
style="fill:white;fill-opacity:1.000000;stroke:black;stroke-width:1.000000;stroke-opacity:1.000000" />


<text
x="339.061679"
y="380.145438"
id="RnaRegion_db48a2feff7cd2018c9c789eb600e574.info.1"
style="font-size:6.000000px;text-anchor:middle;font-family:Arial,Helvetica;alignment-baseline:baseline;stroke.opacity:1;dominant-baseline:baseline"
fill="black"
>
ct:RNA</text>



<path
d="M 120.982807402941 456.265484250784 Q 120.982807402941 456.265484250784 120.982807402941 456.265484250784 L 179.316140736274 456.265484250784 Q 179.316140736274 456.265484250784 179.316140736274 456.265484250784 L 179.316140736274 483.765484250784 Q 179.316140736274 489.598817584117 173.482807402941 489.598817584117 L 126.816140736274 489.598817584117 Q 120.982807402941 489.598817584117 120.982807402941 483.765484250784 Z"
id="DnaRegion_48e1806a3949ec7234cfbbf162b13b64"
style="fill:white;fill-opacity:1.000000;stroke-width:1;stroke:black;stroke-opacity:1.000000"
transform = "rotate(0.000000 0.000000 0.000000)"
/>


<text
x="150.149474"
y="474.932151"
id="DnaRegion_48e1806a3949ec7234cfbbf162b13b64"
style="font-size:6.000000px;text-anchor:middle;font-family:Arial,Helvetica;alignment-baseline:baseline;stroke.opacity:1;dominant-baseline:baseline"
fill="black"
>
prepropressophysin</text>


<rect
width="29.166667"
height="14.583333"
rx="0.000000"
ry="0.000000"
x="120.982807"
y="448.973818"
id="DnaRegion_48e1806a3949ec7234cfbbf162b13b64.info.1"
style="fill:white;fill-opacity:1.000000;stroke:black;stroke-width:1.000000;stroke-opacity:1.000000" />


<text
x="135.566141"
y="458.265484"
id="DnaRegion_48e1806a3949ec7234cfbbf162b13b64.info.1"
style="font-size:6.000000px;text-anchor:middle;font-family:Arial,Helvetica;alignment-baseline:baseline;stroke.opacity:1;dominant-baseline:baseline"
fill="black"
>
ct:DNA</text>



<path
d="M 277.992320163163 471.720964275528 Q 277.992320163163 471.720964275528 277.992320163163 471.720964275528 L 336.325653496496 471.720964275528 Q 336.325653496496 471.720964275528 336.325653496496 471.720964275528 L 336.325653496496 499.220964275528 Q 336.325653496496 505.054297608861 330.492320163163 505.054297608861 L 283.825653496496 505.054297608861 Q 277.992320163163 505.054297608861 277.992320163163 499.220964275528 Z"
id="RnaRegion_6008a438215b9602410710627555bc99"
style="fill:white;fill-opacity:1.000000;stroke-width:1;stroke:black;stroke-opacity:1.000000"
transform = "rotate(0.000000 0.000000 0.000000)"
/>


<text
x="307.158987"
y="490.387631"
id="RnaRegion_6008a438215b9602410710627555bc99"
style="font-size:6.000000px;text-anchor:middle;font-family:Arial,Helvetica;alignment-baseline:baseline;stroke.opacity:1;dominant-baseline:baseline"
fill="black"
>
prepropressophysin</text>


<rect
width="29.166667"
height="14.583333"
rx="0.000000"
ry="0.000000"
x="277.992320"
y="464.429298"
id="RnaRegion_6008a438215b9602410710627555bc99.info.1"
style="fill:white;fill-opacity:1.000000;stroke:black;stroke-width:1.000000;stroke-opacity:1.000000" />


<text
x="292.575653"
y="473.720964"
id="RnaRegion_6008a438215b9602410710627555bc99.info.1"
style="font-size:6.000000px;text-anchor:middle;font-family:Arial,Helvetica;alignment-baseline:baseline;stroke.opacity:1;dominant-baseline:baseline"
fill="black"
>
ct:RNA</text>



<path
d="M 292.352595918136 251.087559685408 Q 292.352595918136 251.087559685408 292.352595918136 251.087559685408 L 350.685929251469 251.087559685408 Q 350.685929251469 251.087559685408 350.685929251469 251.087559685408 L 350.685929251469 278.587559685408 Q 350.685929251469 284.420893018741 344.852595918136 284.420893018741 L 298.185929251469 284.420893018741 Q 292.352595918136 284.420893018741 292.352595918136 278.587559685408 Z"
id="DnaRegion_760b66888cc960e3ec81a660a47a87a2"
style="fill:white;fill-opacity:1.000000;stroke-width:1;stroke:black;stroke-opacity:1.000000"
transform = "rotate(0.000000 0.000000 0.000000)"
/>


<text
x="321.519263"
y="269.754226"
id="DnaRegion_760b66888cc960e3ec81a660a47a87a2"
style="font-size:6.000000px;text-anchor:middle;font-family:Arial,Helvetica;alignment-baseline:baseline;stroke.opacity:1;dominant-baseline:baseline"
fill="black"
>
preprodynorphin</text>


<rect
width="29.166667"
height="14.583333"
rx="0.000000"
ry="0.000000"
x="292.352596"
y="243.795893"
id="DnaRegion_760b66888cc960e3ec81a660a47a87a2.info.1"
style="fill:white;fill-opacity:1.000000;stroke:black;stroke-width:1.000000;stroke-opacity:1.000000" />


<text
x="306.935929"
y="253.087560"
id="DnaRegion_760b66888cc960e3ec81a660a47a87a2.info.1"
style="font-size:6.000000px;text-anchor:middle;font-family:Arial,Helvetica;alignment-baseline:baseline;stroke.opacity:1;dominant-baseline:baseline"
fill="black"
>
ct:DNA</text>


<rect
width="16.666667"
height="16.666667"
rx="0.000000"
ry="0.000000"
x="241.643866"
y="324.373444"
id="TemplateReaction_6ab363b09bafc2d8e5e17e78d1b5aa6f"
style="fill:white;fill-opacity:0.600000;stroke:black;stroke-width:1.000000;stroke-opacity:1.000000" />



<rect
width="16.666667"
height="16.666667"
rx="0.000000"
ry="0.000000"
x="204.235732"
y="394.668660"
id="TemplateReaction_5f92fbce0d42d95b57ea85d09c262200"
style="fill:white;fill-opacity:0.600000;stroke:black;stroke-width:1.000000;stroke-opacity:1.000000" />




<ellipse
rx="16.666667"
ry="16.666667"
cx="910.143593"
cy="1194.602796"
id="SmallMolecule_114a04f499a97d0e44d44f4a2303f70c"
style="fill:white;fill-opacity:0.000000;stroke:black;stroke-width:1.000000;stroke-opacity:1.000000" />


<text
x="910.143593"
y="1196.602796"
id="SmallMolecule_114a04f499a97d0e44d44f4a2303f70c"
style="font-size:6.000000px;text-anchor:middle;font-family:Arial,Helvetica;alignment-baseline:baseline;stroke.opacity:1;dominant-baseline:baseline"
fill="black"
>
ATP</text>



<ellipse
rx="16.666667"
ry="16.666667"
cx="780.134826"
cy="813.305336"
id="SmallMolecule_2889e7d5d58cd8d93801c8fb6aac6926_Complex_1184ff8cb38dc8c4233d98977a313880"
style="fill:white;fill-opacity:0.000000;stroke:black;stroke-width:1.000000;stroke-opacity:1.000000" />


<text
x="780.134826"
y="815.305336"
id="SmallMolecule_2889e7d5d58cd8d93801c8fb6aac6926_Complex_1184ff8cb38dc8c4233d98977a313880"
style="font-size:6.000000px;text-anchor:middle;font-family:Arial,Helvetica;alignment-baseline:baseline;stroke.opacity:1;dominant-baseline:baseline"
fill="black"
>
GTP</text>



<rect
width="58.333333"
height="33.333333"
rx="3.333333"
ry="3.333333"
x="763.468159"
y="754.555336"
id="Protein_9608177f2be0e73641be9f28d6550d61_Complex_1184ff8cb38dc8c4233d98977a313880"
style="fill:white;fill-opacity:1.000000;stroke:black;stroke-width:1.000000;stroke-opacity:1.000000" />


<text
x="792.634826"
y="773.222003"
id="Protein_9608177f2be0e73641be9f28d6550d61_Complex_1184ff8cb38dc8c4233d98977a313880"
style="font-size:6.000000px;text-anchor:middle;font-family:Arial,Helvetica;alignment-baseline:baseline;stroke.opacity:1;dominant-baseline:baseline"
fill="black"
>
G-protein</text>



<rect
width="58.333333"
height="33.333333"
rx="3.333333"
ry="3.333333"
x="761.124122"
y="469.064062"
id="Protein_cea19cc2d9e39ecc2798e9cc5d5d1c96_Complex_ac1e57f86dab369498a0fce4e2187886"
style="fill:white;fill-opacity:1.000000;stroke:black;stroke-width:1.000000;stroke-opacity:1.000000" />


<text
x="790.290789"
y="487.730729"
id="Protein_cea19cc2d9e39ecc2798e9cc5d5d1c96_Complex_ac1e57f86dab369498a0fce4e2187886"
style="font-size:6.000000px;text-anchor:middle;font-family:Arial,Helvetica;alignment-baseline:baseline;stroke.opacity:1;dominant-baseline:baseline"
fill="black"
>
PDYN</text>



<rect
width="58.333333"
height="33.333333"
rx="3.333333"
ry="3.333333"
x="761.124122"
y="511.147396"
id="Protein_e4b9810190adf4369033aa2fadd54388_Complex_ac1e57f86dab369498a0fce4e2187886"
style="fill:white;fill-opacity:1.000000;stroke:black;stroke-width:1.000000;stroke-opacity:1.000000" />


<text
x="790.290789"
y="529.814062"
id="Protein_e4b9810190adf4369033aa2fadd54388_Complex_ac1e57f86dab369498a0fce4e2187886"
style="font-size:6.000000px;text-anchor:middle;font-family:Arial,Helvetica;alignment-baseline:baseline;stroke.opacity:1;dominant-baseline:baseline"
fill="black"
>
G-protein</text>



<rect
width="58.333333"
height="33.333333"
rx="3.333333"
ry="3.333333"
x="828.207455"
y="469.064062"
id="Protein_91317e1d1a95d9dfd0b80ae9153a8279_Complex_ac1e57f86dab369498a0fce4e2187886"
style="fill:white;fill-opacity:1.000000;stroke:black;stroke-width:1.000000;stroke-opacity:1.000000" />


<text
x="857.374122"
y="487.730729"
id="Protein_91317e1d1a95d9dfd0b80ae9153a8279_Complex_ac1e57f86dab369498a0fce4e2187886"
style="font-size:6.000000px;text-anchor:middle;font-family:Arial,Helvetica;alignment-baseline:baseline;stroke.opacity:1;dominant-baseline:baseline"
fill="black"
>
Kappa Receptor</text>



<ellipse
rx="16.666667"
ry="16.666667"
cx="844.874122"
cy="527.814062"
id="SmallMolecule_5208a0d8911993a02a7c45e596d384d1_Complex_ac1e57f86dab369498a0fce4e2187886"
style="fill:white;fill-opacity:0.000000;stroke:black;stroke-width:1.000000;stroke-opacity:1.000000" />


<text
x="844.874122"
y="529.814062"
id="SmallMolecule_5208a0d8911993a02a7c45e596d384d1_Complex_ac1e57f86dab369498a0fce4e2187886"
style="font-size:6.000000px;text-anchor:middle;font-family:Arial,Helvetica;alignment-baseline:baseline;stroke.opacity:1;dominant-baseline:baseline"
fill="black"
>
GDP</text>



<rect
width="58.333333"
height="33.333333"
rx="3.333333"
ry="3.333333"
x="968.211611"
y="654.159852"
id="Protein_3922c3cd43921a7c2be8ddc6ac5831f0_Complex_d46726ac1436f7c5005c673a042deceb"
style="fill:white;fill-opacity:1.000000;stroke:black;stroke-width:1.000000;stroke-opacity:1.000000" />


<text
x="997.378278"
y="672.826518"
id="Protein_3922c3cd43921a7c2be8ddc6ac5831f0_Complex_d46726ac1436f7c5005c673a042deceb"
style="font-size:6.000000px;text-anchor:middle;font-family:Arial,Helvetica;alignment-baseline:baseline;stroke.opacity:1;dominant-baseline:baseline"
fill="black"
>
PDYN</text>



<rect
width="58.333333"
height="33.333333"
rx="3.333333"
ry="3.333333"
x="968.211611"
y="696.243185"
id="Protein_5e5280abf53012f8aa58df12da32b870_Complex_d46726ac1436f7c5005c673a042deceb"
style="fill:white;fill-opacity:1.000000;stroke:black;stroke-width:1.000000;stroke-opacity:1.000000" />


<text
x="997.378278"
y="714.909852"
id="Protein_5e5280abf53012f8aa58df12da32b870_Complex_d46726ac1436f7c5005c673a042deceb"
style="font-size:6.000000px;text-anchor:middle;font-family:Arial,Helvetica;alignment-baseline:baseline;stroke.opacity:1;dominant-baseline:baseline"
fill="black"
>
Kappa Receptor</text>



<rect
width="58.333333"
height="33.333333"
rx="3.333333"
ry="3.333333"
x="832.929096"
y="1008.587961"
id="Protein_fa484098edf23a578b64d02003060a08"
style="fill:white;fill-opacity:1.000000;stroke:black;stroke-width:1.000000;stroke-opacity:1.000000" />


<text
x="862.095762"
y="1027.254628"
id="Protein_fa484098edf23a578b64d02003060a08"
style="font-size:6.000000px;text-anchor:middle;font-family:Arial,Helvetica;alignment-baseline:baseline;stroke.opacity:1;dominant-baseline:baseline"
fill="black"
>
AC</text>



<ellipse
rx="16.666667"
ry="16.666667"
cx="904.690266"
cy="225.466667"
id="SmallMolecule_82ce8d4d66c1d5f394c3bf5111c09dda_Complex_350359a84e9689f5ba00fc1f5e419573"
style="fill:white;fill-opacity:0.000000;stroke:black;stroke-width:1.000000;stroke-opacity:1.000000" />


<text
x="904.690266"
y="227.466667"
id="SmallMolecule_82ce8d4d66c1d5f394c3bf5111c09dda_Complex_350359a84e9689f5ba00fc1f5e419573"
style="font-size:6.000000px;text-anchor:middle;font-family:Arial,Helvetica;alignment-baseline:baseline;stroke.opacity:1;dominant-baseline:baseline"
fill="black"
>
GDP</text>



<rect
width="58.333333"
height="33.333333"
rx="3.333333"
ry="3.333333"
x="820.940266"
y="208.800000"
id="Protein_880a01a66b3c9d5989b8aa9ced2dfbbe_Complex_350359a84e9689f5ba00fc1f5e419573"
style="fill:white;fill-opacity:1.000000;stroke:black;stroke-width:1.000000;stroke-opacity:1.000000" />


<text
x="850.106933"
y="227.466667"
id="Protein_880a01a66b3c9d5989b8aa9ced2dfbbe_Complex_350359a84e9689f5ba00fc1f5e419573"
style="font-size:6.000000px;text-anchor:middle;font-family:Arial,Helvetica;alignment-baseline:baseline;stroke.opacity:1;dominant-baseline:baseline"
fill="black"
>
Kappa Receptor</text>



<rect
width="58.333333"
height="33.333333"
rx="3.333333"
ry="3.333333"
x="820.940266"
y="250.883333"
id="Protein_53b744cafb4e2142bd5492e175ad3f41_Complex_350359a84e9689f5ba00fc1f5e419573"
style="fill:white;fill-opacity:1.000000;stroke:black;stroke-width:1.000000;stroke-opacity:1.000000" />


<text
x="850.106933"
y="269.550000"
id="Protein_53b744cafb4e2142bd5492e175ad3f41_Complex_350359a84e9689f5ba00fc1f5e419573"
style="font-size:6.000000px;text-anchor:middle;font-family:Arial,Helvetica;alignment-baseline:baseline;stroke.opacity:1;dominant-baseline:baseline"
fill="black"
>
G-protein</text>



<ellipse
rx="16.666667"
ry="16.666667"
cx="797.684396"
cy="1135.899974"
id="SmallMolecule_d94a6c312abc6bcada84a3aeff68ad5b"
style="fill:white;fill-opacity:0.000000;stroke:black;stroke-width:1.000000;stroke-opacity:1.000000" />


<text
x="797.684396"
y="1137.899974"
id="SmallMolecule_d94a6c312abc6bcada84a3aeff68ad5b"
style="font-size:6.000000px;text-anchor:middle;font-family:Arial,Helvetica;alignment-baseline:baseline;stroke.opacity:1;dominant-baseline:baseline"
fill="black"
>
cAMP</text>



<ellipse
rx="16.666667"
ry="16.666667"
cx="936.247440"
cy="825.649255"
id="SmallMolecule_44786b9dde6b8e7e9ed2c837aff820e4"
style="fill:white;fill-opacity:0.000000;stroke:black;stroke-width:1.000000;stroke-opacity:1.000000" />


<text
x="936.247440"
y="827.649255"
id="SmallMolecule_44786b9dde6b8e7e9ed2c837aff820e4"
style="font-size:6.000000px;text-anchor:middle;font-family:Arial,Helvetica;alignment-baseline:baseline;stroke.opacity:1;dominant-baseline:baseline"
fill="black"
>
GTP</text>



<rect
width="58.333333"
height="33.333333"
rx="3.333333"
ry="3.333333"
x="937.022605"
y="918.517280"
id="Protein_46abb3e28517662467deb46ed591fb7d"
style="fill:white;fill-opacity:1.000000;stroke:black;stroke-width:1.000000;stroke-opacity:1.000000" />


<text
x="966.189272"
y="937.183946"
id="Protein_46abb3e28517662467deb46ed591fb7d"
style="font-size:6.000000px;text-anchor:middle;font-family:Arial,Helvetica;alignment-baseline:baseline;stroke.opacity:1;dominant-baseline:baseline"
fill="black"
>
AC</text>



<ellipse
rx="16.666667"
ry="16.666667"
cx="966.941080"
cy="592.808099"
id="SmallMolecule_9e09b2e37214f06b14ee95c59896ab20"
style="fill:white;fill-opacity:0.000000;stroke:black;stroke-width:1.000000;stroke-opacity:1.000000" />


<text
x="966.941080"
y="594.808099"
id="SmallMolecule_9e09b2e37214f06b14ee95c59896ab20"
style="font-size:6.000000px;text-anchor:middle;font-family:Arial,Helvetica;alignment-baseline:baseline;stroke.opacity:1;dominant-baseline:baseline"
fill="black"
>
GDP</text>


<rect
width="16.666667"
height="16.666667"
rx="0.000000"
ry="0.000000"
x="873.504211"
y="1105.338041"
id="BiochemicalReaction_0b2a6b4adfb09128b6404b1d63177c03_LEFT_TO_RIGHT"
style="fill:white;fill-opacity:0.600000;stroke:black;stroke-width:1.000000;stroke-opacity:1.000000" />



<rect
width="16.666667"
height="16.666667"
rx="0.000000"
ry="0.000000"
x="911.628918"
y="372.467912"
id="ComplexAssembly_f1ca25686bbac4576201a953b9549f21_LEFT_TO_RIGHT"
style="fill:white;fill-opacity:0.600000;stroke:black;stroke-width:1.000000;stroke-opacity:1.000000" />



<rect
width="16.666667"
height="16.666667"
rx="0.000000"
ry="0.000000"
x="896.722922"
y="656.388428"
id="ComplexAssembly_b92e2f4664412e793ac059480903f0cb_LEFT_TO_RIGHT"
style="fill:white;fill-opacity:0.600000;stroke:black;stroke-width:1.000000;stroke-opacity:1.000000" />



<rect
width="16.666667"
height="16.666667"
rx="0.000000"
ry="0.000000"
x="861.509668"
y="929.356069"
id="BiochemicalReaction_a2dfff37d4b5974c97a889ec2766527d_LEFT_TO_RIGHT"
style="fill:white;fill-opacity:0.600000;stroke:black;stroke-width:1.000000;stroke-opacity:1.000000" />




<rect
width="58.333333"
height="33.333333"
rx="3.333333"
ry="3.333333"
x="1166.399328"
y="355.632496"
id="Protein_668adc561e222577cdb5c67f39b75420"
style="fill:white;fill-opacity:1.000000;stroke:black;stroke-width:1.000000;stroke-opacity:1.000000" />


<text
x="1195.565994"
y="374.299162"
id="Protein_668adc561e222577cdb5c67f39b75420"
style="font-size:6.000000px;text-anchor:middle;font-family:Arial,Helvetica;alignment-baseline:baseline;stroke.opacity:1;dominant-baseline:baseline"
fill="black"
>
PDYN</text>



<rect
width="58.333333"
height="33.333333"
rx="3.333333"
ry="3.333333"
x="1082.245480"
y="501.941905"
id="Protein_4dab6678dd0374a44cd649c308c5d411"
style="fill:white;fill-opacity:1.000000;stroke:black;stroke-width:1.000000;stroke-opacity:1.000000" />


<text
x="1111.412147"
y="520.608572"
id="Protein_4dab6678dd0374a44cd649c308c5d411"
style="font-size:6.000000px;text-anchor:middle;font-family:Arial,Helvetica;alignment-baseline:baseline;stroke.opacity:1;dominant-baseline:baseline"
fill="black"
>
vasopressin</text>



<rect
width="58.333333"
height="33.333333"
rx="3.333333"
ry="3.333333"
x="1284.716123"
y="451.550168"
id="Protein_b0fdfdabd8340492bca9219ced84f497"
style="fill:white;fill-opacity:1.000000;stroke:black;stroke-width:1.000000;stroke-opacity:1.000000" />


<text
x="1313.882789"
y="470.216835"
id="Protein_b0fdfdabd8340492bca9219ced84f497"
style="font-size:6.000000px;text-anchor:middle;font-family:Arial,Helvetica;alignment-baseline:baseline;stroke.opacity:1;dominant-baseline:baseline"
fill="black"
>
SNARE COMPLEX</text>


<rect
width="16.666667"
height="16.666667"
rx="0.000000"
ry="0.000000"
x="1307.174375"
y="537.582782"
id="TransportWithBiochemicalReaction_2ba69663304c9f59529739baa5700c66_LEFT_TO_RIGHT"
style="fill:white;fill-opacity:0.600000;stroke:black;stroke-width:1.000000;stroke-opacity:1.000000" />



<rect
width="16.666667"
height="16.666667"
rx="0.000000"
ry="0.000000"
x="1300.368673"
y="391.112234"
id="TransportWithBiochemicalReaction_74b3af16b4c6041ac212128f212a8a92_LEFT_TO_RIGHT"
style="fill:white;fill-opacity:0.600000;stroke:black;stroke-width:1.000000;stroke-opacity:1.000000" />





<path d="M1312.000000 451.000000 C 1311.000000 437.000000, 1310.000000 419.000000,1309.000000 408.000000" stroke="black"  fill="transparent"/>

<line
x1="1311" y1="437" x2="1312" y2="451"
id="0"
style="stroke:black;stroke-width:1.000000;stroke-opacity:0" />


<line
x1="1310" y1="419" x2="1309" y2="408"
id="Protein_b0fdfdabd8340492bca9219ced84f497--to--TransportWithBiochemicalReaction_74b3af16b4c6041ac212128f212a8a92_LEFT_TO_RIGHT"
style="stroke:black;stroke-width:1.000000;stroke-opacity:0" />


<polygon
points = "1309,408 1295.8,403.6 1295.8,412.4"
id="line"
style="fill:white; stroke:#000000; stroke-width:1"
transform = "rotate(264.805571 1309.000000 408.000000)"
/>


<path d="M439.000000 377.000000 C 426.000000 380.000000, 402.000000 385.000000,382.000000 388.000000" stroke="black"  fill="transparent"/>

<line
x1="402" y1="385" x2="382" y2="388"
id="0"
style="stroke:black;stroke-width:1.000000;stroke-opacity:0" />


<line
x1="426" y1="380" x2="439" y2="377"
id="RnaRegion_db48a2feff7cd2018c9c789eb600e574--to--Conversion_05620b012d891af022fd495cc380e1dd_LEFT_TO_RIGHT-input"
style="stroke:black;stroke-width:1.000000;stroke-opacity:0" />


<path d="M859.000000 460.000000 C 879.000000 434.000000, 902.000000 404.000000,913.000000 389.000000" stroke="black"  fill="transparent"/>

<line
x1="902" y1="404" x2="913" y2="389"
id="0"
style="stroke:black;stroke-width:1.000000;stroke-opacity:0" />


<line
x1="879" y1="434" x2="859" y2="460"
id="ComplexAssembly_f1ca25686bbac4576201a953b9549f21_LEFT_TO_RIGHT-output--to--Complex_ac1e57f86dab369498a0fce4e2187886"
style="stroke:black;stroke-width:1.000000;stroke-opacity:0" />


<polygon
points = "859,460 850.2,455.6 850.2,464.4"
id="line"
style="fill:black; stroke:#000000; stroke-width:1"
transform = "rotate(127.568592 859.000000 460.000000)"
/>


<path d="M952.000000 609.000000 C 940.000000 624.000000, 922.000000 644.000000,912.000000 656.000000" stroke="black"  fill="transparent"/>

<line
x1="922" y1="644" x2="912" y2="656"
id="0"
style="stroke:black;stroke-width:1.000000;stroke-opacity:0" />


<line
x1="940" y1="624" x2="952" y2="609"
id="ComplexAssembly_b92e2f4664412e793ac059480903f0cb_LEFT_TO_RIGHT-output--to--SmallMolecule_9e09b2e37214f06b14ee95c59896ab20"
style="stroke:black;stroke-width:1.000000;stroke-opacity:0" />


<polygon
points = "952,609 943.2,604.6 943.2,613.4"
id="line"
style="fill:black; stroke:#000000; stroke-width:1"
transform = "rotate(-51.340192 952.000000 609.000000)"
/>


<path d="M904.000000 1177.000000 C 898.000000 1160.000000, 889.000000 1135.000000,884.000000 1122.000000" stroke="black"  fill="transparent"/>

<line
x1="898" y1="1160" x2="904" y2="1177"
id="0"
style="stroke:black;stroke-width:1.000000;stroke-opacity:0" />


<line
x1="889" y1="1135" x2="884" y2="1122"
id="SmallMolecule_114a04f499a97d0e44d44f4a2303f70c--to--BiochemicalReaction_0b2a6b4adfb09128b6404b1d63177c03_LEFT_TO_RIGHT-input"
style="stroke:black;stroke-width:1.000000;stroke-opacity:0" />


<path d="M288.000000 471.000000 C 268.000000 453.000000, 236.000000 424.000000,221.000000 410.000000" stroke="black"  fill="transparent"/>

<line
x1="236" y1="424" x2="221" y2="410"
id="0"
style="stroke:black;stroke-width:1.000000;stroke-opacity:0" />


<line
x1="268" y1="453" x2="288" y2="471"
id="TemplateReaction_5f92fbce0d42d95b57ea85d09c262200-output--to--RnaRegion_6008a438215b9602410710627555bc99"
style="stroke:black;stroke-width:1.000000;stroke-opacity:0" />


<polygon
points = "288,471 279.2,466.6 279.2,475.4"
id="line"
style="fill:black; stroke:#000000; stroke-width:1"
transform = "rotate(41.987212 288.000000 471.000000)"
/>


<path d="M303.000000 284.000000 C 288.000000 297.000000, 269.000000 315.000000,258.000000 325.000000" stroke="black"  fill="transparent"/>

<line
x1="288" y1="297" x2="303" y2="284"
id="0"
style="stroke:black;stroke-width:1.000000;stroke-opacity:0" />


<line
x1="269" y1="315" x2="258" y2="325"
id="DnaRegion_760b66888cc960e3ec81a660a47a87a2--to--TemplateReaction_6ab363b09bafc2d8e5e17e78d1b5aa6f-input"
style="stroke:black;stroke-width:1.000000;stroke-opacity:0" />


<polygon
points = "258,325 244.8,320.6 249.2,325 244.8,329.4"
id="line"
style="fill:black; stroke:#000000; stroke-width:1"
transform = "rotate(137.726311 258.000000 325.000000)"
/>


<path d="M865.000000 1041.000000 C 870.000000 1060.000000, 876.000000 1090.000000,879.000000 1105.000000" stroke="black"  fill="transparent"/>

<line
x1="870" y1="1060" x2="865" y2="1041"
id="0"
style="stroke:black;stroke-width:1.000000;stroke-opacity:0" />


<line
x1="876" y1="1090" x2="879" y2="1105"
id="Protein_fa484098edf23a578b64d02003060a08--to--BiochemicalReaction_0b2a6b4adfb09128b6404b1d63177c03_LEFT_TO_RIGHT"
style="stroke:black;stroke-width:1.000000;stroke-opacity:0" />


<ellipse
rx="4.400000"
ry="4.400000"
cx="878.137089"
cy="1100.685445"
id="Protein_fa484098edf23a578b64d02003060a08--to--BiochemicalReaction_0b2a6b4adfb09128b6404b1d63177c03_LEFT_TO_RIGHT"
style="fill:white;fill-opacity:0.800000;stroke:black;stroke-width:1.000000;stroke-opacity:1.000000" />


<path d="M141.000000 184.000000 C 166.000000 219.000000, 224.000000 298.000000,243.000000 324.000000" stroke="black"  fill="transparent"/>

<line
x1="166" y1="219" x2="141" y2="184"
id="0"
style="stroke:black;stroke-width:1.000000;stroke-opacity:0" />


<line
x1="224" y1="298" x2="243" y2="324"
id="PhysicalEntity_76dece61f7f76b67a40aa19d9ca5faf4--to--TemplateReaction_6ab363b09bafc2d8e5e17e78d1b5aa6f"
style="stroke:black;stroke-width:1.000000;stroke-opacity:0" />


<polygon
points = "243,324 229.8,319.6 229.8,328.4"
id="line"
style="fill:white; stroke:#000000; stroke-width:1"
transform = "rotate(53.841815 243.000000 324.000000)"
/>


<path d="M814.000000 1131.000000 C 832.000000 1126.000000, 859.000000 1119.000000,873.000000 1115.000000" stroke="black"  fill="transparent"/>

<line
x1="859" y1="1119" x2="873" y2="1115"
id="0"
style="stroke:black;stroke-width:1.000000;stroke-opacity:0" />


<line
x1="832" y1="1126" x2="814" y2="1131"
id="BiochemicalReaction_0b2a6b4adfb09128b6404b1d63177c03_LEFT_TO_RIGHT-output--to--SmallMolecule_d94a6c312abc6bcada84a3aeff68ad5b"
style="stroke:black;stroke-width:1.000000;stroke-opacity:0" />


<polygon
points = "814,1131 805.2,1126.6 805.2,1135.4"
id="line"
style="fill:black; stroke:#000000; stroke-width:1"
transform = "rotate(164.475889 814.000000 1131.000000)"
/>


<path d="M863.000000 1008.000000 C 865.000000 989.000000, 867.000000 960.000000,869.000000 946.000000" stroke="black"  fill="transparent"/>

<line
x1="867" y1="960" x2="869" y2="946"
id="0"
style="stroke:black;stroke-width:1.000000;stroke-opacity:0" />


<line
x1="865" y1="989" x2="863" y2="1008"
id="BiochemicalReaction_a2dfff37d4b5974c97a889ec2766527d_LEFT_TO_RIGHT-output--to--Protein_fa484098edf23a578b64d02003060a08"
style="stroke:black;stroke-width:1.000000;stroke-opacity:0" />


<polygon
points = "863,1008 854.2,1003.6 854.2,1012.4"
id="line"
style="fill:black; stroke:#000000; stroke-width:1"
transform = "rotate(96.009006 863.000000 1008.000000)"
/>


<path d="M888.000000 293.000000 C 898.000000 321.000000, 911.000000 356.000000,916.000000 372.000000" stroke="black"  fill="transparent"/>

<line
x1="898" y1="321" x2="888" y2="293"
id="0"
style="stroke:black;stroke-width:1.000000;stroke-opacity:0" />


<line
x1="911" y1="356" x2="916" y2="372"
id="Complex_350359a84e9689f5ba00fc1f5e419573--to--ComplexAssembly_f1ca25686bbac4576201a953b9549f21_LEFT_TO_RIGHT-input"
style="stroke:black;stroke-width:1.000000;stroke-opacity:0" />


<path d="M937.000000 935.000000 C 916.000000 936.000000, 891.000000 937.000000,878.000000 937.000000" stroke="black"  fill="transparent"/>

<line
x1="916" y1="936" x2="937" y2="935"
id="0"
style="stroke:black;stroke-width:1.000000;stroke-opacity:0" />


<line
x1="891" y1="937" x2="878" y2="937"
id="Protein_46abb3e28517662467deb46ed591fb7d--to--BiochemicalReaction_a2dfff37d4b5974c97a889ec2766527d_LEFT_TO_RIGHT-input"
style="stroke:black;stroke-width:1.000000;stroke-opacity:0" />


<path d="M817.000000 839.000000 C 834.000000 871.000000, 856.000000 911.000000,865.000000 929.000000" stroke="black"  fill="transparent"/>

<line
x1="834" y1="871" x2="817" y2="839"
id="0"
style="stroke:black;stroke-width:1.000000;stroke-opacity:0" />


<line
x1="856" y1="911" x2="865" y2="929"
id="Complex_1184ff8cb38dc8c4233d98977a313880--to--BiochemicalReaction_a2dfff37d4b5974c97a889ec2766527d_LEFT_TO_RIGHT"
style="stroke:black;stroke-width:1.000000;stroke-opacity:0" />


<path
d="M 861 922.4 861 935.6"
id="Complex_1184ff8cb38dc8c4233d98977a313880--to--BiochemicalReaction_a2dfff37d4b5974c97a889ec2766527d_LEFT_TO_RIGHT"
style="fill:black;fill-opacity:0.600000;stroke-width:1;stroke:black;stroke-opacity:1.000000"
transform = "rotate(63.434949 865.000000 929.000000)"
/>


<path d="M164.000000 456.000000 C 177.000000 442.000000, 194.000000 422.000000,204.000000 411.000000" stroke="black"  fill="transparent"/>

<line
x1="177" y1="442" x2="164" y2="456"
id="0"
style="stroke:black;stroke-width:1.000000;stroke-opacity:0" />


<line
x1="194" y1="422" x2="204" y2="411"
id="DnaRegion_48e1806a3949ec7234cfbbf162b13b64--to--TemplateReaction_5f92fbce0d42d95b57ea85d09c262200-input"
style="stroke:black;stroke-width:1.000000;stroke-opacity:0" />


<polygon
points = "204,411 190.8,406.6 195.2,411 190.8,415.4"
id="line"
style="fill:black; stroke:#000000; stroke-width:1"
transform = "rotate(-47.726311 204.000000 411.000000)"
/>


<path d="M636.000000 487.000000 C 656.000000 481.000000, 706.000000 466.000000,749.000000 457.000000" stroke="black"  fill="transparent"/>
<path d="M749.000000 457.000000 C 905.000000 421.000000, 1094.000000 388.000000,1166.000000 377.000000" stroke="black"  fill="transparent"/>

<line
x1="656" y1="481" x2="636" y2="487"
id="0"
style="stroke:black;stroke-width:1.000000;stroke-opacity:0" />


<line
x1="1094" y1="388" x2="1166" y2="377"
id="Conversion_15718c4519a64687678a63098bbfc65c_LEFT_TO_RIGHT-output--to--Protein_668adc561e222577cdb5c67f39b75420"
style="stroke:black;stroke-width:1.000000;stroke-opacity:0" />


<polygon
points = "1166,377 1157.2,372.6 1157.2,381.4"
id="line"
style="fill:black; stroke:#000000; stroke-width:1"
transform = "rotate(-8.686355 1166.000000 377.000000)"
/>


<path d="M1186.000000 618.000000 C 1211.000000 572.000000, 1284.000000 442.000000,1303.000000 408.000000" stroke="black"  fill="transparent"/>

<line
x1="1284" y1="442" x2="1303" y2="408"
id="0"
style="stroke:black;stroke-width:1.000000;stroke-opacity:0" />


<line
x1="1211" y1="572" x2="1186" y2="618"
id="TransportWithBiochemicalReaction_74b3af16b4c6041ac212128f212a8a92_LEFT_TO_RIGHT-output--to--Protein_2b4ff3d43d4dccac33de8ef4401c0bc2"
style="stroke:black;stroke-width:1.000000;stroke-opacity:0" />


<polygon
points = "1186,618 1177.2,613.6 1177.2,622.4"
id="line"
style="fill:black; stroke:#000000; stroke-width:1"
transform = "rotate(118.523119 1186.000000 618.000000)"
/>


<path d="M933.000000 809.000000 C 926.000000 775.000000, 911.000000 699.000000,906.000000 673.000000" stroke="black"  fill="transparent"/>

<line
x1="926" y1="775" x2="933" y2="809"
id="0"
style="stroke:black;stroke-width:1.000000;stroke-opacity:0" />


<line
x1="911" y1="699" x2="906" y2="673"
id="SmallMolecule_44786b9dde6b8e7e9ed2c837aff820e4--to--ComplexAssembly_b92e2f4664412e793ac059480903f0cb_LEFT_TO_RIGHT-input"
style="stroke:black;stroke-width:1.000000;stroke-opacity:0" />


<path d="M959.000000 680.000000 C 942.000000 675.000000, 924.000000 670.000000,913.000000 667.000000" stroke="black"  fill="transparent"/>

<line
x1="924" y1="670" x2="913" y2="667"
id="0"
style="stroke:black;stroke-width:1.000000;stroke-opacity:0" />


<line
x1="942" y1="675" x2="959" y2="680"
id="ComplexAssembly_b92e2f4664412e793ac059480903f0cb_LEFT_TO_RIGHT-output--to--Complex_d46726ac1436f7c5005c673a042deceb"
style="stroke:black;stroke-width:1.000000;stroke-opacity:0" />


<polygon
points = "959,680 950.2,675.6 950.2,684.4"
id="line"
style="fill:black; stroke:#000000; stroke-width:1"
transform = "rotate(16.389540 959.000000 680.000000)"
/>


<path d="M135.000000 184.000000 C 151.000000 230.000000, 197.000000 360.000000,209.000000 394.000000" stroke="black"  fill="transparent"/>

<line
x1="151" y1="230" x2="135" y2="184"
id="0"
style="stroke:black;stroke-width:1.000000;stroke-opacity:0" />


<line
x1="197" y1="360" x2="209" y2="394"
id="PhysicalEntity_76dece61f7f76b67a40aa19d9ca5faf4--to--TemplateReaction_5f92fbce0d42d95b57ea85d09c262200"
style="stroke:black;stroke-width:1.000000;stroke-opacity:0" />


<polygon
points = "209,394 195.8,389.6 195.8,398.4"
id="line"
style="fill:white; stroke:#000000; stroke-width:1"
transform = "rotate(70.559965 209.000000 394.000000)"
/>


<path d="M1159.000000 618.000000 C 1110.000000 569.000000, 966.000000 426.000000,928.000000 389.000000" stroke="black"  fill="transparent"/>

<line
x1="1110" y1="569" x2="1159" y2="618"
id="0"
style="stroke:black;stroke-width:1.000000;stroke-opacity:0" />


<line
x1="966" y1="426" x2="928" y2="389"
id="Protein_2b4ff3d43d4dccac33de8ef4401c0bc2--to--ComplexAssembly_f1ca25686bbac4576201a953b9549f21_LEFT_TO_RIGHT-input"
style="stroke:black;stroke-width:1.000000;stroke-opacity:0" />


<path d="M1314.000000 485.000000 C 1314.000000 501.000000, 1315.000000 524.000000,1315.000000 537.000000" stroke="black"  fill="transparent"/>

<line
x1="1314" y1="501" x2="1314" y2="485"
id="0"
style="stroke:black;stroke-width:1.000000;stroke-opacity:0" />


<line
x1="1315" y1="524" x2="1315" y2="537"
id="Protein_b0fdfdabd8340492bca9219ced84f497--to--TransportWithBiochemicalReaction_2ba69663304c9f59529739baa5700c66_LEFT_TO_RIGHT"
style="stroke:black;stroke-width:1.000000;stroke-opacity:0" />


<polygon
points = "1315,537 1301.8,532.6 1301.8,541.4"
id="line"
style="fill:white; stroke:#000000; stroke-width:1"
transform = "rotate(90.000000 1315.000000 537.000000)"
/>


<path d="M1341.000000 621.000000 C 1334.000000 602.000000, 1323.000000 569.000000,1318.000000 554.000000" stroke="black"  fill="transparent"/>

<line
x1="1323" y1="569" x2="1318" y2="554"
id="0"
style="stroke:black;stroke-width:1.000000;stroke-opacity:0" />


<line
x1="1334" y1="602" x2="1341" y2="621"
id="TransportWithBiochemicalReaction_2ba69663304c9f59529739baa5700c66_LEFT_TO_RIGHT-output--to--Protein_c07fd5ac8e41ef127129b48032181ff5"
style="stroke:black;stroke-width:1.000000;stroke-opacity:0" />


<polygon
points = "1341,621 1332.2,616.6 1332.2,625.4"
id="line"
style="fill:black; stroke:#000000; stroke-width:1"
transform = "rotate(69.775141 1341.000000 621.000000)"
/>


<path d="M511.000000 413.000000 C 492.000000 402.000000, 469.000000 388.000000,456.000000 381.000000" stroke="black"  fill="transparent"/>

<line
x1="469" y1="388" x2="456" y2="381"
id="0"
style="stroke:black;stroke-width:1.000000;stroke-opacity:0" />


<line
x1="492" y1="402" x2="511" y2="413"
id="Conversion_05620b012d891af022fd495cc380e1dd_LEFT_TO_RIGHT-output--to--Protein_2ef7c235b8a46168630ba873900fa214"
style="stroke:black;stroke-width:1.000000;stroke-opacity:0" />


<polygon
points = "511,413 502.2,408.6 502.2,417.4"
id="line"
style="fill:black; stroke:#000000; stroke-width:1"
transform = "rotate(30.068583 511.000000 413.000000)"
/>


<path d="M468.000000 535.000000 C 454.000000 519.000000, 434.000000 495.000000,422.000000 482.000000" stroke="black"  fill="transparent"/>

<line
x1="434" y1="495" x2="422" y2="482"
id="0"
style="stroke:black;stroke-width:1.000000;stroke-opacity:0" />


<line
x1="454" y1="519" x2="468" y2="535"
id="Conversion_f710963a6e1aef3c9c481ec8ba4839e8_LEFT_TO_RIGHT-output--to--Protein_43451d463812f36594d1bf70c965e448"
style="stroke:black;stroke-width:1.000000;stroke-opacity:0" />


<polygon
points = "468,535 459.2,530.6 459.2,539.4"
id="line"
style="fill:black; stroke:#000000; stroke-width:1"
transform = "rotate(48.814075 468.000000 535.000000)"
/>


<path d="M325.000000 378.000000 C 303.000000 364.000000, 272.000000 346.000000,258.000000 337.000000" stroke="black"  fill="transparent"/>

<line
x1="272" y1="346" x2="258" y2="337"
id="0"
style="stroke:black;stroke-width:1.000000;stroke-opacity:0" />


<line
x1="303" y1="364" x2="325" y2="378"
id="TemplateReaction_6ab363b09bafc2d8e5e17e78d1b5aa6f-output--to--RnaRegion_db48a2feff7cd2018c9c789eb600e574"
style="stroke:black;stroke-width:1.000000;stroke-opacity:0" />


<polygon
points = "325,378 316.2,373.6 316.2,382.4"
id="line"
style="fill:black; stroke:#000000; stroke-width:1"
transform = "rotate(32.471192 325.000000 378.000000)"
/>


<path d="M602.000000 584.000000 C 638.000000 581.000000, 781.000000 572.000000,898.000000 556.000000" stroke="black"  fill="transparent"/>
<path d="M898.000000 556.000000 C 964.000000 547.000000, 1041.000000 532.000000,1082.000000 524.000000" stroke="black"  fill="transparent"/>

<line
x1="638" y1="581" x2="602" y2="584"
id="0"
style="stroke:black;stroke-width:1.000000;stroke-opacity:0" />


<line
x1="1041" y1="532" x2="1082" y2="524"
id="Conversion_4d7dde5c1fe5068386cf07a8aaf16a81_LEFT_TO_RIGHT-output--to--Protein_4dab6678dd0374a44cd649c308c5d411"
style="stroke:black;stroke-width:1.000000;stroke-opacity:0" />


<polygon
points = "1082,524 1073.2,519.6 1073.2,528.4"
id="line"
style="fill:black; stroke:#000000; stroke-width:1"
transform = "rotate(-11.040940 1082.000000 524.000000)"
/>


<path d="M847.000000 553.000000 C 866.000000 589.000000, 890.000000 636.000000,900.000000 655.000000" stroke="black"  fill="transparent"/>

<line
x1="866" y1="589" x2="847" y2="553"
id="0"
style="stroke:black;stroke-width:1.000000;stroke-opacity:0" />


<line
x1="890" y1="636" x2="900" y2="655"
id="Complex_ac1e57f86dab369498a0fce4e2187886--to--ComplexAssembly_b92e2f4664412e793ac059480903f0cb_LEFT_TO_RIGHT-input"
style="stroke:black;stroke-width:1.000000;stroke-opacity:0" />


<path d="M830.000000 749.000000 C 854.000000 721.000000, 883.000000 689.000000,897.000000 673.000000" stroke="black"  fill="transparent"/>

<line
x1="883" y1="689" x2="897" y2="673"
id="0"
style="stroke:black;stroke-width:1.000000;stroke-opacity:0" />


<line
x1="854" y1="721" x2="830" y2="749"
id="ComplexAssembly_b92e2f4664412e793ac059480903f0cb_LEFT_TO_RIGHT-output--to--Complex_1184ff8cb38dc8c4233d98977a313880"
style="stroke:black;stroke-width:1.000000;stroke-opacity:0" />


<polygon
points = "830,749 821.2,744.6 821.2,753.4"
id="line"
style="fill:black; stroke:#000000; stroke-width:1"
transform = "rotate(130.601295 830.000000 749.000000)"
/>


<path d="M406.000000 474.000000 C 391.000000 477.000000, 360.000000 481.000000,336.000000 484.000000" stroke="black"  fill="transparent"/>

<line
x1="360" y1="481" x2="336" y2="484"
id="0"
style="stroke:black;stroke-width:1.000000;stroke-opacity:0" />


<line
x1="391" y1="477" x2="406" y2="474"
id="RnaRegion_6008a438215b9602410710627555bc99--to--Conversion_f710963a6e1aef3c9c481ec8ba4839e8_LEFT_TO_RIGHT-input"
style="stroke:black;stroke-width:1.000000;stroke-opacity:0" />


<path d="M564.000000 447.000000 C 582.000000 459.000000, 606.000000 475.000000,619.000000 484.000000" stroke="black"  fill="transparent"/>

<line
x1="582" y1="459" x2="564" y2="447"
id="0"
style="stroke:black;stroke-width:1.000000;stroke-opacity:0" />


<line
x1="606" y1="475" x2="619" y2="484"
id="Protein_2ef7c235b8a46168630ba873900fa214--to--Conversion_15718c4519a64687678a63098bbfc65c_LEFT_TO_RIGHT-input"
style="stroke:black;stroke-width:1.000000;stroke-opacity:0" />


<path d="M1140.000000 522.000000 C 1187.000000 528.000000, 1278.000000 541.000000,1307.000000 544.000000" stroke="black"  fill="transparent"/>

<line
x1="1187" y1="528" x2="1140" y2="522"
id="0"
style="stroke:black;stroke-width:1.000000;stroke-opacity:0" />


<line
x1="1278" y1="541" x2="1307" y2="544"
id="Protein_4dab6678dd0374a44cd649c308c5d411--to--TransportWithBiochemicalReaction_2ba69663304c9f59529739baa5700c66_LEFT_TO_RIGHT-input"
style="stroke:black;stroke-width:1.000000;stroke-opacity:0" />


<path d="M1224.000000 379.000000 C 1249.000000 385.000000, 1284.000000 393.000000,1300.000000 397.000000" stroke="black"  fill="transparent"/>

<line
x1="1249" y1="385" x2="1224" y2="379"
id="0"
style="stroke:black;stroke-width:1.000000;stroke-opacity:0" />


<line
x1="1284" y1="393" x2="1300" y2="397"
id="Protein_668adc561e222577cdb5c67f39b75420--to--TransportWithBiochemicalReaction_74b3af16b4c6041ac212128f212a8a92_LEFT_TO_RIGHT-input"
style="stroke:black;stroke-width:1.000000;stroke-opacity:0" />


<path d="M511.000000 560.000000 C 536.000000 567.000000, 569.000000 577.000000,584.000000 582.000000" stroke="black"  fill="transparent"/>

<line
x1="536" y1="567" x2="511" y2="560"
id="0"
style="stroke:black;stroke-width:1.000000;stroke-opacity:0" />


<line
x1="569" y1="577" x2="584" y2="582"
id="Protein_43451d463812f36594d1bf70c965e448--to--Conversion_4d7dde5c1fe5068386cf07a8aaf16a81_LEFT_TO_RIGHT-input"
style="stroke:black;stroke-width:1.000000;stroke-opacity:0" />



</svg>
