<?xml version="1.0" encoding="UTF-8"?>
<svg width="839.880441" height="740.748758"
xmlns="http://www.w3.org/2000/svg" xmlns:svg="http://www.w3.org/2000/svg"
>
<metadata id="metadata7">image/svg+xml</metadata>





<ellipse
rx="16.666667"
ry="16.666667"
cx="313.924306"
cy="353.957411"
id="SmallMolecule_795466455b4464efddc0284abc62118f"
style="fill:white;fill-opacity:0.000000;stroke:black;stroke-width:1.000000;stroke-opacity:1.000000" />



<text
x="313.924306"
y="352.957411"
id="SmallMolecule_795466455b4464efddc0284abc62118f"
style="font-size:6.000000px;text-anchor:middle;font-family:Arial,Helvetica;alignment-baseline:baseline;stroke.opacity:1;dominant-baseline:baseline"
fill="black"
>
pyridoxal-5</text>


<text
x="313.924306"
y="358.957411"
id="SmallMolecule_795466455b4464efddc0284abc62118f"
style="font-size:6.000000px;text-anchor:middle;font-family:Arial,Helvetica;alignment-baseline:baseline;stroke.opacity:1;dominant-baseline:baseline"
fill="black"
>
-phosphate</text>



<ellipse
rx="16.666667"
ry="16.666667"
cx="479.140561"
cy="430.986526"
id="SmallMolecule_68d9752916a73cd26503beaec2ab3811"
style="fill:white;fill-opacity:0.000000;stroke:black;stroke-width:1.000000;stroke-opacity:1.000000" />


<text
x="479.140561"
y="432.986526"
id="SmallMolecule_68d9752916a73cd26503beaec2ab3811"
style="font-size:6.000000px;text-anchor:middle;font-family:Arial,Helvetica;alignment-baseline:baseline;stroke.opacity:1;dominant-baseline:baseline"
fill="black"
>
ADP</text>



<ellipse
rx="16.666667"
ry="16.666667"
cx="385.411734"
cy="218.480766"
id="SmallMolecule_dff7a5252e99731a889e05223bceee9f"
style="fill:white;fill-opacity:0.000000;stroke:black;stroke-width:1.000000;stroke-opacity:1.000000" />


<text
x="385.411734"
y="220.480766"
id="SmallMolecule_dff7a5252e99731a889e05223bceee9f"
style="font-size:6.000000px;text-anchor:middle;font-family:Arial,Helvetica;alignment-baseline:baseline;stroke.opacity:1;dominant-baseline:baseline"
fill="black"
>
H2O</text>


<rect
width="16.666667"
height="16.666667"
rx="0.000000"
ry="0.000000"
x="392.498806"
y="422.752596"
id="BiochemicalReaction_0a4137318cd3a2e81e3ae471733023cb_LEFT_TO_RIGHT"
style="fill:white;fill-opacity:0.600000;stroke:black;stroke-width:1.000000;stroke-opacity:1.000000" />




<rect
width="58.333333"
height="33.333333"
rx="3.333333"
ry="3.333333"
x="280.210129"
y="150.000000"
id="Protein_d58a28324ab7e53d52356183db182fc6"
style="fill:white;fill-opacity:1.000000;stroke:black;stroke-width:1.000000;stroke-opacity:1.000000" />



<text
x="309.376796"
y="165.666667"
id="Protein_d58a28324ab7e53d52356183db182fc6"
style="font-size:6.000000px;text-anchor:middle;font-family:Arial,Helvetica;alignment-baseline:baseline;stroke.opacity:1;dominant-baseline:baseline"
fill="black"
>
Pyridoxamine-5-phos-</text>


<text
x="309.376796"
y="171.666667"
id="Protein_d58a28324ab7e53d52356183db182fc6"
style="font-size:6.000000px;text-anchor:middle;font-family:Arial,Helvetica;alignment-baseline:baseline;stroke.opacity:1;dominant-baseline:baseline"
fill="black"
>
phate oxidase</text>



<ellipse
rx="16.666667"
ry="16.666667"
cx="184.298858"
cy="296.100050"
id="SmallMolecule_9fc7e4a656054370c58aa4dd7484b712"
style="fill:white;fill-opacity:0.000000;stroke:black;stroke-width:1.000000;stroke-opacity:1.000000" />


<text
x="184.298858"
y="298.100050"
id="SmallMolecule_9fc7e4a656054370c58aa4dd7484b712"
style="font-size:6.000000px;text-anchor:middle;font-family:Arial,Helvetica;alignment-baseline:baseline;stroke.opacity:1;dominant-baseline:baseline"
fill="black"
>
O2</text>


<rect
width="16.666667"
height="16.666667"
rx="0.000000"
ry="0.000000"
x="228.182088"
y="358.856759"
id="BiochemicalReaction_5544aa81fa464740da1444856cdd255e_LEFT_TO_RIGHT"
style="fill:white;fill-opacity:0.600000;stroke:black;stroke-width:1.000000;stroke-opacity:1.000000" />



<rect
width="16.666667"
height="16.666667"
rx="0.000000"
ry="0.000000"
x="294.669331"
y="252.562048"
id="BiochemicalReaction_51dfd75c1b0ff380def0df38aec3580e_LEFT_TO_RIGHT"
style="fill:white;fill-opacity:0.600000;stroke:black;stroke-width:1.000000;stroke-opacity:1.000000" />




<rect
width="58.333333"
height="33.333333"
rx="3.333333"
ry="3.333333"
x="100.000000"
y="365.687845"
id="Protein_fb32daadd260d88f2b9cdceab0d09585"
style="fill:white;fill-opacity:1.000000;stroke:black;stroke-width:1.000000;stroke-opacity:1.000000" />



<text
x="129.166667"
y="381.354511"
id="Protein_fb32daadd260d88f2b9cdceab0d09585"
style="font-size:6.000000px;text-anchor:middle;font-family:Arial,Helvetica;alignment-baseline:baseline;stroke.opacity:1;dominant-baseline:baseline"
fill="black"
>
Pyridoxine-5-phosph-</text>


<text
x="129.166667"
y="387.354511"
id="Protein_fb32daadd260d88f2b9cdceab0d09585"
style="font-size:6.000000px;text-anchor:middle;font-family:Arial,Helvetica;alignment-baseline:baseline;stroke.opacity:1;dominant-baseline:baseline"
fill="black"
>
ate oxidase</text>



<ellipse
rx="16.666667"
ry="16.666667"
cx="493.213775"
cy="289.036534"
id="SmallMolecule_e558392f2a4a490edc13c6ff4c8fc836"
style="fill:white;fill-opacity:0.000000;stroke:black;stroke-width:1.000000;stroke-opacity:1.000000" />


<text
x="493.213775"
y="291.036534"
id="SmallMolecule_e558392f2a4a490edc13c6ff4c8fc836"
style="font-size:6.000000px;text-anchor:middle;font-family:Arial,Helvetica;alignment-baseline:baseline;stroke.opacity:1;dominant-baseline:baseline"
fill="black"
>
Pyridoxamine</text>



<ellipse
rx="16.666667"
ry="16.666667"
cx="224.007913"
cy="189.184222"
id="SmallMolecule_09ba22bf3f6a670f1f975e2cf976df0f"
style="fill:white;fill-opacity:0.000000;stroke:black;stroke-width:1.000000;stroke-opacity:1.000000" />


<text
x="224.007913"
y="191.184222"
id="SmallMolecule_09ba22bf3f6a670f1f975e2cf976df0f"
style="font-size:6.000000px;text-anchor:middle;font-family:Arial,Helvetica;alignment-baseline:baseline;stroke.opacity:1;dominant-baseline:baseline"
fill="black"
>
NH3</text>



<ellipse
rx="16.666667"
ry="16.666667"
cx="375.397083"
cy="524.082092"
id="SmallMolecule_918bec3a37403ad41f85c852b70494f1"
style="fill:white;fill-opacity:0.000000;stroke:black;stroke-width:1.000000;stroke-opacity:1.000000" />


<text
x="375.397083"
y="526.082092"
id="SmallMolecule_918bec3a37403ad41f85c852b70494f1"
style="font-size:6.000000px;text-anchor:middle;font-family:Arial,Helvetica;alignment-baseline:baseline;stroke.opacity:1;dominant-baseline:baseline"
fill="black"
>
Pyridoxal</text>



<ellipse
rx="16.666667"
ry="16.666667"
cx="241.979466"
cy="270.836807"
id="SmallMolecule_ab4bf2f5a015554437cdd46de4dce3b4"
style="fill:white;fill-opacity:0.000000;stroke:black;stroke-width:1.000000;stroke-opacity:1.000000" />


<text
x="241.979466"
y="272.836807"
id="SmallMolecule_ab4bf2f5a015554437cdd46de4dce3b4"
style="font-size:6.000000px;text-anchor:middle;font-family:Arial,Helvetica;alignment-baseline:baseline;stroke.opacity:1;dominant-baseline:baseline"
fill="black"
>
H2O2</text>



<ellipse
rx="16.666667"
ry="16.666667"
cx="379.018507"
cy="366.731680"
id="SmallMolecule_067280b8b822ca79f313ec8eebae1ca8"
style="fill:white;fill-opacity:0.000000;stroke:black;stroke-width:1.000000;stroke-opacity:1.000000" />


<text
x="379.018507"
y="368.731680"
id="SmallMolecule_067280b8b822ca79f313ec8eebae1ca8"
style="font-size:6.000000px;text-anchor:middle;font-family:Arial,Helvetica;alignment-baseline:baseline;stroke.opacity:1;dominant-baseline:baseline"
fill="black"
>
ATP</text>



<ellipse
rx="16.666667"
ry="16.666667"
cx="287.148880"
cy="414.108012"
id="SmallMolecule_20344f8587ceb3b7c44128aeeac9436b"
style="fill:white;fill-opacity:0.000000;stroke:black;stroke-width:1.000000;stroke-opacity:1.000000" />


<text
x="287.148880"
y="416.108012"
id="SmallMolecule_20344f8587ceb3b7c44128aeeac9436b"
style="font-size:6.000000px;text-anchor:middle;font-family:Arial,Helvetica;alignment-baseline:baseline;stroke.opacity:1;dominant-baseline:baseline"
fill="black"
>
pyridoxine</text>


<rect
width="16.666667"
height="16.666667"
rx="0.000000"
ry="0.000000"
x="449.564586"
y="362.790834"
id="BiochemicalReaction_cf64cc9c6c28cb9528707d44cd4d83ed_LEFT_TO_RIGHT"
style="fill:white;fill-opacity:0.600000;stroke:black;stroke-width:1.000000;stroke-opacity:1.000000" />



<rect
width="16.666667"
height="16.666667"
rx="0.000000"
ry="0.000000"
x="327.402717"
y="436.725530"
id="BiochemicalReaction_dd282896875d3076a0484237afb3de5e_LEFT_TO_RIGHT"
style="fill:white;fill-opacity:0.600000;stroke:black;stroke-width:1.000000;stroke-opacity:1.000000" />




<ellipse
rx="16.666667"
ry="16.666667"
cx="271.762855"
cy="475.257558"
id="SmallMolecule_2cb44e14d04f67aa573e9550c11cc08b"
style="fill:white;fill-opacity:0.000000;stroke:black;stroke-width:1.000000;stroke-opacity:1.000000" />



<text
x="271.762855"
y="474.257558"
id="SmallMolecule_2cb44e14d04f67aa573e9550c11cc08b"
style="font-size:6.000000px;text-anchor:middle;font-family:Arial,Helvetica;alignment-baseline:baseline;stroke.opacity:1;dominant-baseline:baseline"
fill="black"
>
pyridoxine-</text>


<text
x="271.762855"
y="480.257558"
id="SmallMolecule_2cb44e14d04f67aa573e9550c11cc08b"
style="font-size:6.000000px;text-anchor:middle;font-family:Arial,Helvetica;alignment-baseline:baseline;stroke.opacity:1;dominant-baseline:baseline"
fill="black"
>
5-phosphate</text>



<rect
width="58.333333"
height="33.333333"
rx="3.333333"
ry="3.333333"
x="438.267731"
y="469.439093"
id="Protein_f323a2ab07e9f37f2e86d041fd1e1a36"
style="fill:white;fill-opacity:1.000000;stroke:black;stroke-width:1.000000;stroke-opacity:1.000000" />


<text
x="467.434398"
y="488.105760"
id="Protein_f323a2ab07e9f37f2e86d041fd1e1a36"
style="font-size:6.000000px;text-anchor:middle;font-family:Arial,Helvetica;alignment-baseline:baseline;stroke.opacity:1;dominant-baseline:baseline"
fill="black"
>
PDXK</text>



<ellipse
rx="16.666667"
ry="16.666667"
cx="390.072221"
cy="293.020647"
id="SmallMolecule_be86c2c6ab6ff98aa0dba18e0962f048"
style="fill:white;fill-opacity:0.000000;stroke:black;stroke-width:1.000000;stroke-opacity:1.000000" />



<text
x="390.072221"
y="292.020647"
id="SmallMolecule_be86c2c6ab6ff98aa0dba18e0962f048"
style="font-size:6.000000px;text-anchor:middle;font-family:Arial,Helvetica;alignment-baseline:baseline;stroke.opacity:1;dominant-baseline:baseline"
fill="black"
>
pyridoxamin-</text>


<text
x="390.072221"
y="298.020647"
id="SmallMolecule_be86c2c6ab6ff98aa0dba18e0962f048"
style="font-size:6.000000px;text-anchor:middle;font-family:Arial,Helvetica;alignment-baseline:baseline;stroke.opacity:1;dominant-baseline:baseline"
fill="black"
>
e-5-phosphate</text>


<rect
width="16.666667"
height="16.666667"
rx="0.000000"
ry="0.000000"
x="367.378576"
y="457.150735"
id="BiochemicalReaction_f08e346e988afbe39603e624c4be8f18_LEFT_TO_RIGHT"
style="fill:white;fill-opacity:0.600000;stroke:black;stroke-width:1.000000;stroke-opacity:1.000000" />



<rect
width="16.666667"
height="16.666667"
rx="0.000000"
ry="0.000000"
x="218.549474"
y="401.934657"
id="BiochemicalReaction_b1d5b7a428d09ccddd2e0979e5a5c1b4_LEFT_TO_RIGHT"
style="fill:white;fill-opacity:0.600000;stroke:black;stroke-width:1.000000;stroke-opacity:1.000000" />





<path d="M200.000000 297.000000 C 216.000000 298.000000, 241.000000 297.000000,261.000000 290.000000" stroke="black"  fill="transparent"/>
<path d="M261.000000 290.000000 C 274.000000 285.000000, 286.000000 276.000000,294.000000 269.000000" stroke="black"  fill="transparent"/>

<line
x1="216" y1="298" x2="200" y2="297"
id="0"
style="stroke:black;stroke-width:1.000000;stroke-opacity:0" />


<line
x1="286" y1="276" x2="294" y2="269"
id="SmallMolecule_9fc7e4a656054370c58aa4dd7484b712--to--BiochemicalReaction_51dfd75c1b0ff380def0df38aec3580e_LEFT_TO_RIGHT-input"
style="stroke:black;stroke-width:1.000000;stroke-opacity:0" />


<path d="M311.000000 263.000000 C 325.000000 269.000000, 354.000000 279.000000,373.000000 286.000000" stroke="black"  fill="transparent"/>

<line
x1="354" y1="279" x2="373" y2="286"
id="0"
style="stroke:black;stroke-width:1.000000;stroke-opacity:0" />


<line
x1="325" y1="269" x2="311" y2="263"
id="SmallMolecule_be86c2c6ab6ff98aa0dba18e0962f048--to--BiochemicalReaction_51dfd75c1b0ff380def0df38aec3580e_LEFT_TO_RIGHT-input"
style="stroke:black;stroke-width:1.000000;stroke-opacity:0" />


<path d="M239.000000 376.000000 C 245.000000 394.000000, 258.000000 435.000000,266.000000 458.000000" stroke="black"  fill="transparent"/>

<line
x1="258" y1="435" x2="266" y2="458"
id="0"
style="stroke:black;stroke-width:1.000000;stroke-opacity:0" />


<line
x1="245" y1="394" x2="239" y2="376"
id="SmallMolecule_2cb44e14d04f67aa573e9550c11cc08b--to--BiochemicalReaction_5544aa81fa464740da1444856cdd255e_LEFT_TO_RIGHT-input"
style="stroke:black;stroke-width:1.000000;stroke-opacity:0" />


<path d="M438.000000 479.000000 C 419.000000 475.000000, 396.000000 470.000000,384.000000 467.000000" stroke="black"  fill="transparent"/>

<line
x1="419" y1="475" x2="438" y2="479"
id="0"
style="stroke:black;stroke-width:1.000000;stroke-opacity:0" />


<line
x1="396" y1="470" x2="384" y2="467"
id="Protein_f323a2ab07e9f37f2e86d041fd1e1a36--to--BiochemicalReaction_f08e346e988afbe39603e624c4be8f18_LEFT_TO_RIGHT"
style="stroke:black;stroke-width:1.000000;stroke-opacity:0" />


<ellipse
rx="4.400000"
ry="4.400000"
cx="388.268627"
cy="468.067157"
id="Protein_f323a2ab07e9f37f2e86d041fd1e1a36--to--BiochemicalReaction_f08e346e988afbe39603e624c4be8f18_LEFT_TO_RIGHT"
style="fill:white;fill-opacity:0.800000;stroke:black;stroke-width:1.000000;stroke-opacity:1.000000" />


<path d="M398.000000 439.000000 C 394.000000 455.000000, 385.000000 487.000000,379.000000 507.000000" stroke="black"  fill="transparent"/>

<line
x1="385" y1="487" x2="379" y2="507"
id="0"
style="stroke:black;stroke-width:1.000000;stroke-opacity:0" />


<line
x1="394" y1="455" x2="398" y2="439"
id="SmallMolecule_918bec3a37403ad41f85c852b70494f1--to--BiochemicalReaction_0a4137318cd3a2e81e3ae471733023cb_LEFT_TO_RIGHT-input"
style="stroke:black;stroke-width:1.000000;stroke-opacity:0" />


<path d="M462.000000 431.000000 C 446.000000 431.000000, 421.000000 431.000000,409.000000 431.000000" stroke="black"  fill="transparent"/>

<line
x1="421" y1="431" x2="409" y2="431"
id="0"
style="stroke:black;stroke-width:1.000000;stroke-opacity:0" />


<line
x1="446" y1="431" x2="462" y2="431"
id="BiochemicalReaction_0a4137318cd3a2e81e3ae471733023cb_LEFT_TO_RIGHT-output--to--SmallMolecule_68d9752916a73cd26503beaec2ab3811"
style="stroke:black;stroke-width:1.000000;stroke-opacity:0" />


<polygon
points = "462,431 453.2,426.6 453.2,435.4"
id="line"
style="fill:black; stroke:#000000; stroke-width:1"
transform = "rotate(-0.000000 462.000000 431.000000)"
/>


<path d="M196.000000 312.000000 C 207.000000 327.000000, 221.000000 347.000000,230.000000 358.000000" stroke="black"  fill="transparent"/>

<line
x1="207" y1="327" x2="196" y2="312"
id="0"
style="stroke:black;stroke-width:1.000000;stroke-opacity:0" />


<line
x1="221" y1="347" x2="230" y2="358"
id="SmallMolecule_9fc7e4a656054370c58aa4dd7484b712--to--BiochemicalReaction_5544aa81fa464740da1444856cdd255e_LEFT_TO_RIGHT-input"
style="stroke:black;stroke-width:1.000000;stroke-opacity:0" />


<path d="M311.000000 337.000000 C 309.000000 317.000000, 305.000000 284.000000,304.000000 269.000000" stroke="black"  fill="transparent"/>

<line
x1="305" y1="284" x2="304" y2="269"
id="0"
style="stroke:black;stroke-width:1.000000;stroke-opacity:0" />


<line
x1="309" y1="317" x2="311" y2="337"
id="BiochemicalReaction_51dfd75c1b0ff380def0df38aec3580e_LEFT_TO_RIGHT-output--to--SmallMolecule_795466455b4464efddc0284abc62118f"
style="stroke:black;stroke-width:1.000000;stroke-opacity:0" />


<polygon
points = "311,337 302.2,332.6 302.2,341.4"
id="line"
style="fill:black; stroke:#000000; stroke-width:1"
transform = "rotate(84.289407 311.000000 337.000000)"
/>


<path d="M260.000000 458.000000 C 251.000000 445.000000, 239.000000 429.000000,232.000000 418.000000" stroke="black"  fill="transparent"/>

<line
x1="251" y1="445" x2="260" y2="458"
id="0"
style="stroke:black;stroke-width:1.000000;stroke-opacity:0" />


<line
x1="239" y1="429" x2="232" y2="418"
id="SmallMolecule_2cb44e14d04f67aa573e9550c11cc08b--to--BiochemicalReaction_b1d5b7a428d09ccddd2e0979e5a5c1b4_LEFT_TO_RIGHT-input"
style="stroke:black;stroke-width:1.000000;stroke-opacity:0" />


<path d="M237.000000 358.000000 C 237.000000 342.000000, 239.000000 308.000000,241.000000 287.000000" stroke="black"  fill="transparent"/>

<line
x1="237" y1="342" x2="237" y2="358"
id="0"
style="stroke:black;stroke-width:1.000000;stroke-opacity:0" />


<line
x1="239" y1="308" x2="241" y2="287"
id="BiochemicalReaction_5544aa81fa464740da1444856cdd255e_LEFT_TO_RIGHT-output--to--SmallMolecule_ab4bf2f5a015554437cdd46de4dce3b4"
style="stroke:black;stroke-width:1.000000;stroke-opacity:0" />


<polygon
points = "241,287 232.2,282.6 232.2,291.4"
id="line"
style="fill:black; stroke:#000000; stroke-width:1"
transform = "rotate(-84.559668 241.000000 287.000000)"
/>


<path d="M457.000000 379.000000 C 456.000000 394.000000, 456.000000 425.000000,459.000000 450.000000" stroke="black"  fill="transparent"/>
<path d="M459.000000 450.000000 C 460.000000 456.000000, 461.000000 463.000000,462.000000 469.000000" stroke="black"  fill="transparent"/>

<line
x1="461" y1="463" x2="462" y2="469"
id="0"
style="stroke:black;stroke-width:1.000000;stroke-opacity:0" />


<line
x1="456" y1="394" x2="457" y2="379"
id="Protein_f323a2ab07e9f37f2e86d041fd1e1a36--to--BiochemicalReaction_cf64cc9c6c28cb9528707d44cd4d83ed_LEFT_TO_RIGHT"
style="stroke:black;stroke-width:1.000000;stroke-opacity:0" />


<ellipse
rx="4.400000"
ry="4.400000"
cx="456.707316"
cy="383.390255"
id="Protein_f323a2ab07e9f37f2e86d041fd1e1a36--to--BiochemicalReaction_cf64cc9c6c28cb9528707d44cd4d83ed_LEFT_TO_RIGHT"
style="fill:white;fill-opacity:0.800000;stroke:black;stroke-width:1.000000;stroke-opacity:1.000000" />


<path d="M294.000000 253.000000 C 281.000000 241.000000, 257.000000 219.000000,240.000000 204.000000" stroke="black"  fill="transparent"/>

<line
x1="281" y1="241" x2="294" y2="253"
id="0"
style="stroke:black;stroke-width:1.000000;stroke-opacity:0" />


<line
x1="257" y1="219" x2="240" y2="204"
id="BiochemicalReaction_51dfd75c1b0ff380def0df38aec3580e_LEFT_TO_RIGHT-output--to--SmallMolecule_09ba22bf3f6a670f1f975e2cf976df0f"
style="stroke:black;stroke-width:1.000000;stroke-opacity:0" />


<polygon
points = "240,204 231.2,199.6 231.2,208.4"
id="line"
style="fill:black; stroke:#000000; stroke-width:1"
transform = "rotate(221.423666 240.000000 204.000000)"
/>


<path d="M397.000000 422.000000 C 394.000000 412.000000, 388.000000 395.000000,384.000000 383.000000" stroke="black"  fill="transparent"/>

<line
x1="388" y1="395" x2="384" y2="383"
id="0"
style="stroke:black;stroke-width:1.000000;stroke-opacity:0" />


<line
x1="394" y1="412" x2="397" y2="422"
id="SmallMolecule_067280b8b822ca79f313ec8eebae1ca8--to--BiochemicalReaction_0a4137318cd3a2e81e3ae471733023cb_LEFT_TO_RIGHT-input"
style="stroke:black;stroke-width:1.000000;stroke-opacity:0" />


<path d="M368.000000 227.000000 C 351.000000 235.000000, 325.000000 249.000000,311.000000 256.000000" stroke="black"  fill="transparent"/>

<line
x1="351" y1="235" x2="368" y2="227"
id="0"
style="stroke:black;stroke-width:1.000000;stroke-opacity:0" />


<line
x1="325" y1="249" x2="311" y2="256"
id="SmallMolecule_dff7a5252e99731a889e05223bceee9f--to--BiochemicalReaction_51dfd75c1b0ff380def0df38aec3580e_LEFT_TO_RIGHT-input"
style="stroke:black;stroke-width:1.000000;stroke-opacity:0" />


<path d="M297.000000 356.000000 C 281.000000 359.000000, 257.000000 363.000000,245.000000 365.000000" stroke="black"  fill="transparent"/>

<line
x1="257" y1="363" x2="245" y2="365"
id="0"
style="stroke:black;stroke-width:1.000000;stroke-opacity:0" />


<line
x1="281" y1="359" x2="297" y2="356"
id="BiochemicalReaction_5544aa81fa464740da1444856cdd255e_LEFT_TO_RIGHT-output--to--SmallMolecule_795466455b4464efddc0284abc62118f"
style="stroke:black;stroke-width:1.000000;stroke-opacity:0" />


<polygon
points = "297,356 288.2,351.6 288.2,360.4"
id="line"
style="fill:black; stroke:#000000; stroke-width:1"
transform = "rotate(-10.619655 297.000000 356.000000)"
/>


<path d="M303.000000 416.000000 C 316.000000 419.000000, 334.000000 424.000000,347.000000 433.000000" stroke="black"  fill="transparent"/>
<path d="M347.000000 433.000000 C 356.000000 439.000000, 365.000000 449.000000,370.000000 456.000000" stroke="black"  fill="transparent"/>

<line
x1="316" y1="419" x2="303" y2="416"
id="0"
style="stroke:black;stroke-width:1.000000;stroke-opacity:0" />


<line
x1="365" y1="449" x2="370" y2="456"
id="SmallMolecule_20344f8587ceb3b7c44128aeeac9436b--to--BiochemicalReaction_f08e346e988afbe39603e624c4be8f18_LEFT_TO_RIGHT-input"
style="stroke:black;stroke-width:1.000000;stroke-opacity:0" />


<path d="M462.000000 436.000000 C 440.000000 443.000000, 401.000000 456.000000,384.000000 462.000000" stroke="black"  fill="transparent"/>

<line
x1="401" y1="456" x2="384" y2="462"
id="0"
style="stroke:black;stroke-width:1.000000;stroke-opacity:0" />


<line
x1="440" y1="443" x2="462" y2="436"
id="BiochemicalReaction_f08e346e988afbe39603e624c4be8f18_LEFT_TO_RIGHT-output--to--SmallMolecule_68d9752916a73cd26503beaec2ab3811"
style="stroke:black;stroke-width:1.000000;stroke-opacity:0" />


<polygon
points = "462,436 453.2,431.6 453.2,440.4"
id="line"
style="fill:black; stroke:#000000; stroke-width:1"
transform = "rotate(-17.650124 462.000000 436.000000)"
/>


<path d="M450.000000 362.000000 C 439.000000 349.000000, 418.000000 325.000000,404.000000 309.000000" stroke="black"  fill="transparent"/>

<line
x1="439" y1="349" x2="450" y2="362"
id="0"
style="stroke:black;stroke-width:1.000000;stroke-opacity:0" />


<line
x1="418" y1="325" x2="404" y2="309"
id="BiochemicalReaction_cf64cc9c6c28cb9528707d44cd4d83ed_LEFT_TO_RIGHT-output--to--SmallMolecule_be86c2c6ab6ff98aa0dba18e0962f048"
style="stroke:black;stroke-width:1.000000;stroke-opacity:0" />


<polygon
points = "404,309 395.2,304.6 395.2,313.4"
id="line"
style="fill:black; stroke:#000000; stroke-width:1"
transform = "rotate(228.814075 404.000000 309.000000)"
/>


<path d="M297.000000 364.000000 C 279.000000 376.000000, 250.000000 395.000000,235.000000 404.000000" stroke="black"  fill="transparent"/>

<line
x1="250" y1="395" x2="235" y2="404"
id="0"
style="stroke:black;stroke-width:1.000000;stroke-opacity:0" />


<line
x1="279" y1="376" x2="297" y2="364"
id="BiochemicalReaction_b1d5b7a428d09ccddd2e0979e5a5c1b4_LEFT_TO_RIGHT-output--to--SmallMolecule_795466455b4464efddc0284abc62118f"
style="stroke:black;stroke-width:1.000000;stroke-opacity:0" />


<polygon
points = "297,364 288.2,359.6 288.2,368.4"
id="line"
style="fill:black; stroke:#000000; stroke-width:1"
transform = "rotate(-33.690068 297.000000 364.000000)"
/>


<path d="M308.000000 183.000000 C 306.000000 203.000000, 304.000000 236.000000,303.000000 252.000000" stroke="black"  fill="transparent"/>

<line
x1="306" y1="203" x2="308" y2="183"
id="0"
style="stroke:black;stroke-width:1.000000;stroke-opacity:0" />


<line
x1="304" y1="236" x2="303" y2="252"
id="Protein_d58a28324ab7e53d52356183db182fc6--to--BiochemicalReaction_51dfd75c1b0ff380def0df38aec3580e_LEFT_TO_RIGHT"
style="stroke:black;stroke-width:1.000000;stroke-opacity:0" />


<ellipse
rx="4.400000"
ry="4.400000"
cx="303.274464"
cy="247.608569"
id="Protein_d58a28324ab7e53d52356183db182fc6--to--BiochemicalReaction_51dfd75c1b0ff380def0df38aec3580e_LEFT_TO_RIGHT"
style="fill:white;fill-opacity:0.800000;stroke:black;stroke-width:1.000000;stroke-opacity:1.000000" />


<path d="M294.000000 262.000000 C 285.000000 263.000000, 270.000000 266.000000,258.000000 268.000000" stroke="black"  fill="transparent"/>

<line
x1="285" y1="263" x2="294" y2="262"
id="0"
style="stroke:black;stroke-width:1.000000;stroke-opacity:0" />


<line
x1="270" y1="266" x2="258" y2="268"
id="BiochemicalReaction_51dfd75c1b0ff380def0df38aec3580e_LEFT_TO_RIGHT-output--to--SmallMolecule_ab4bf2f5a015554437cdd46de4dce3b4"
style="stroke:black;stroke-width:1.000000;stroke-opacity:0" />


<polygon
points = "258,268 249.2,263.6 249.2,272.4"
id="line"
style="fill:black; stroke:#000000; stroke-width:1"
transform = "rotate(170.537678 258.000000 268.000000)"
/>


<path d="M366.000000 507.000000 C 358.000000 491.000000, 346.000000 466.000000,340.000000 453.000000" stroke="black"  fill="transparent"/>

<line
x1="358" y1="491" x2="366" y2="507"
id="0"
style="stroke:black;stroke-width:1.000000;stroke-opacity:0" />


<line
x1="346" y1="466" x2="340" y2="453"
id="SmallMolecule_918bec3a37403ad41f85c852b70494f1--to--BiochemicalReaction_dd282896875d3076a0484237afb3de5e_LEFT_TO_RIGHT-input"
style="stroke:black;stroke-width:1.000000;stroke-opacity:0" />


<path d="M378.000000 383.000000 C 377.000000 404.000000, 376.000000 440.000000,376.000000 456.000000" stroke="black"  fill="transparent"/>

<line
x1="377" y1="404" x2="378" y2="383"
id="0"
style="stroke:black;stroke-width:1.000000;stroke-opacity:0" />


<line
x1="376" y1="440" x2="376" y2="456"
id="SmallMolecule_067280b8b822ca79f313ec8eebae1ca8--to--BiochemicalReaction_f08e346e988afbe39603e624c4be8f18_LEFT_TO_RIGHT-input"
style="stroke:black;stroke-width:1.000000;stroke-opacity:0" />


<path d="M317.000000 370.000000 C 322.000000 389.000000, 329.000000 421.000000,333.000000 436.000000" stroke="black"  fill="transparent"/>

<line
x1="329" y1="421" x2="333" y2="436"
id="0"
style="stroke:black;stroke-width:1.000000;stroke-opacity:0" />


<line
x1="322" y1="389" x2="317" y2="370"
id="BiochemicalReaction_dd282896875d3076a0484237afb3de5e_LEFT_TO_RIGHT-output--to--SmallMolecule_795466455b4464efddc0284abc62118f"
style="stroke:black;stroke-width:1.000000;stroke-opacity:0" />


<polygon
points = "317,370 308.2,365.6 308.2,374.4"
id="line"
style="fill:black; stroke:#000000; stroke-width:1"
transform = "rotate(255.256437 317.000000 370.000000)"
/>


<path d="M473.000000 414.000000 C 469.000000 403.000000, 464.000000 388.000000,460.000000 379.000000" stroke="black"  fill="transparent"/>

<line
x1="464" y1="388" x2="460" y2="379"
id="0"
style="stroke:black;stroke-width:1.000000;stroke-opacity:0" />


<line
x1="469" y1="403" x2="473" y2="414"
id="BiochemicalReaction_cf64cc9c6c28cb9528707d44cd4d83ed_LEFT_TO_RIGHT-output--to--SmallMolecule_68d9752916a73cd26503beaec2ab3811"
style="stroke:black;stroke-width:1.000000;stroke-opacity:0" />


<polygon
points = "473,414 464.2,409.6 464.2,418.4"
id="line"
style="fill:black; stroke:#000000; stroke-width:1"
transform = "rotate(70.016893 473.000000 414.000000)"
/>


<path d="M330.000000 368.000000 C 349.000000 385.000000, 377.000000 410.000000,392.000000 423.000000" stroke="black"  fill="transparent"/>

<line
x1="377" y1="410" x2="392" y2="423"
id="0"
style="stroke:black;stroke-width:1.000000;stroke-opacity:0" />


<line
x1="349" y1="385" x2="330" y2="368"
id="BiochemicalReaction_0a4137318cd3a2e81e3ae471733023cb_LEFT_TO_RIGHT-output--to--SmallMolecule_795466455b4464efddc0284abc62118f"
style="stroke:black;stroke-width:1.000000;stroke-opacity:0" />


<polygon
points = "330,368 321.2,363.6 321.2,372.4"
id="line"
style="fill:black; stroke:#000000; stroke-width:1"
transform = "rotate(221.820170 330.000000 368.000000)"
/>


<path d="M288.000000 473.000000 C 310.000000 471.000000, 350.000000 467.000000,367.000000 466.000000" stroke="black"  fill="transparent"/>

<line
x1="350" y1="467" x2="367" y2="466"
id="0"
style="stroke:black;stroke-width:1.000000;stroke-opacity:0" />


<line
x1="310" y1="471" x2="288" y2="473"
id="BiochemicalReaction_f08e346e988afbe39603e624c4be8f18_LEFT_TO_RIGHT-output--to--SmallMolecule_2cb44e14d04f67aa573e9550c11cc08b"
style="stroke:black;stroke-width:1.000000;stroke-opacity:0" />


<polygon
points = "288,473 279.2,468.6 279.2,477.4"
id="line"
style="fill:black; stroke:#000000; stroke-width:1"
transform = "rotate(174.805571 288.000000 473.000000)"
/>


<path d="M395.000000 367.000000 C 411.000000 368.000000, 436.000000 369.000000,449.000000 370.000000" stroke="black"  fill="transparent"/>

<line
x1="411" y1="368" x2="395" y2="367"
id="0"
style="stroke:black;stroke-width:1.000000;stroke-opacity:0" />


<line
x1="436" y1="369" x2="449" y2="370"
id="SmallMolecule_067280b8b822ca79f313ec8eebae1ca8--to--BiochemicalReaction_cf64cc9c6c28cb9528707d44cd4d83ed_LEFT_TO_RIGHT-input"
style="stroke:black;stroke-width:1.000000;stroke-opacity:0" />


<path d="M228.000000 368.000000 C 213.000000 370.000000, 181.000000 374.000000,158.000000 378.000000" stroke="black"  fill="transparent"/>

<line
x1="181" y1="374" x2="158" y2="378"
id="0"
style="stroke:black;stroke-width:1.000000;stroke-opacity:0" />


<line
x1="213" y1="370" x2="228" y2="368"
id="Protein_fb32daadd260d88f2b9cdceab0d09585--to--BiochemicalReaction_5544aa81fa464740da1444856cdd255e_LEFT_TO_RIGHT"
style="stroke:black;stroke-width:1.000000;stroke-opacity:0" />


<ellipse
rx="4.400000"
ry="4.400000"
cx="223.638597"
cy="368.581520"
id="Protein_fb32daadd260d88f2b9cdceab0d09585--to--BiochemicalReaction_5544aa81fa464740da1444856cdd255e_LEFT_TO_RIGHT"
style="fill:white;fill-opacity:0.800000;stroke:black;stroke-width:1.000000;stroke-opacity:1.000000" />


<path d="M409.000000 438.000000 C 418.000000 445.000000, 434.000000 458.000000,447.000000 469.000000" stroke="black"  fill="transparent"/>

<line
x1="434" y1="458" x2="447" y2="469"
id="0"
style="stroke:black;stroke-width:1.000000;stroke-opacity:0" />


<line
x1="418" y1="445" x2="409" y2="438"
id="Protein_f323a2ab07e9f37f2e86d041fd1e1a36--to--BiochemicalReaction_0a4137318cd3a2e81e3ae471733023cb_LEFT_TO_RIGHT"
style="stroke:black;stroke-width:1.000000;stroke-opacity:0" />


<ellipse
rx="4.400000"
ry="4.400000"
cx="412.473150"
cy="440.701339"
id="Protein_f323a2ab07e9f37f2e86d041fd1e1a36--to--BiochemicalReaction_0a4137318cd3a2e81e3ae471733023cb_LEFT_TO_RIGHT"
style="fill:white;fill-opacity:0.800000;stroke:black;stroke-width:1.000000;stroke-opacity:1.000000" />


<path d="M486.000000 305.000000 C 478.000000 322.000000, 467.000000 349.000000,461.000000 362.000000" stroke="black"  fill="transparent"/>

<line
x1="478" y1="322" x2="486" y2="305"
id="0"
style="stroke:black;stroke-width:1.000000;stroke-opacity:0" />


<line
x1="467" y1="349" x2="461" y2="362"
id="SmallMolecule_e558392f2a4a490edc13c6ff4c8fc836--to--BiochemicalReaction_cf64cc9c6c28cb9528707d44cd4d83ed_LEFT_TO_RIGHT-input"
style="stroke:black;stroke-width:1.000000;stroke-opacity:0" />



</svg>
