<?xml version="1.0" encoding="UTF-8"?>
<svg width="970.940442" height="906.833316"
xmlns="http://www.w3.org/2000/svg" xmlns:svg="http://www.w3.org/2000/svg"
>
<metadata id="metadata7">image/svg+xml</metadata>

<rect
width="243.699549"
height="274.445038"
rx="11.000000"
ry="11.000000"
x="100.000000"
y="183.000000"
id="endocytic_vesicle_membrane"
style="fill:white;fill-opacity:0.900000;stroke:black;stroke-width:5.000000;stroke-opacity:1.000000" />


<text
x="221.849774"
y="175.000000"
id="endocytic_vesicle_membrane"
style="font-size:6.000000px;text-anchor:middle;font-family:Arial,Helvetica;alignment-baseline:baseline;stroke.opacity:1;dominant-baseline:baseline"
fill="black"
>
endocytic vesicle membrane</text>


<rect
width="206.031130"
height="386.340265"
rx="11.000000"
ry="11.000000"
x="253.377350"
y="395.493051"
id="golgi_membrane"
style="fill:white;fill-opacity:0.900000;stroke:black;stroke-width:5.000000;stroke-opacity:1.000000" />


<text
x="356.392915"
y="387.493051"
id="golgi_membrane"
style="font-size:6.000000px;text-anchor:middle;font-family:Arial,Helvetica;alignment-baseline:baseline;stroke.opacity:1;dominant-baseline:baseline"
fill="black"
>
golgi membrane</text>


<rect
width="173.884051"
height="379.838092"
rx="11.000000"
ry="11.000000"
x="467.056390"
y="221.573486"
id="endoplasmic_reticulum_membrane"
style="fill:white;fill-opacity:0.900000;stroke:black;stroke-width:5.000000;stroke-opacity:1.000000" />


<text
x="553.998416"
y="213.573486"
id="endoplasmic_reticulum_membrane"
style="font-size:6.000000px;text-anchor:middle;font-family:Arial,Helvetica;alignment-baseline:baseline;stroke.opacity:1;dominant-baseline:baseline"
fill="black"
>
endoplasmic reticulum membrane</text>



<path
d="M 256.76621522515 212.811565402252 256.76621522515 252.744898735585 262.26621522515 258.244898735585 327.199548558483 258.244898735585 332.699548558483 252.744898735585 332.699548558483 212.811565402252 327.199548558483 207.311565402252 262.26621522515 207.311565402252 Z"
id="Complex_101b4d092ce2ac8519b1c3944dc033c8"
style="fill:white;fill-opacity:0.600000;stroke-width:1;stroke:black;stroke-opacity:1.000000"
transform = "rotate(0.000000 0.000000 0.000000)"
/>



<text
x="294.732882"
y="199.311565"
id="Complex_101b4d092ce2ac8519b1c3944dc033c8"
style="font-size:6.000000px;text-anchor:middle;font-family:Arial,Helvetica;alignment-baseline:baseline;stroke.opacity:1;dominant-baseline:baseline"
fill="black"
>
Glycosylated and folded H-</text>


<text
x="294.732882"
y="205.311565"
id="Complex_101b4d092ce2ac8519b1c3944dc033c8"
style="font-size:6.000000px;text-anchor:middle;font-family:Arial,Helvetica;alignment-baseline:baseline;stroke.opacity:1;dominant-baseline:baseline"
fill="black"
>
A trimer</text>


<path
d="M 145.837141014207 401.011704509429 145.837141014207 440.945037842762 151.337141014207 446.445037842762 216.27047434754 446.445037842762 221.77047434754 440.945037842762 221.77047434754 401.011704509429 216.27047434754 395.511704509429 151.337141014207 395.511704509429 Z"
id="Complex_a43eda6561b27a0e05bc087d631bbe7a"
style="fill:white;fill-opacity:0.600000;stroke-width:1;stroke:black;stroke-opacity:1.000000"
transform = "rotate(0.000000 0.000000 0.000000)"
/>


<text
x="183.803808"
y="387.511705"
id="Complex_a43eda6561b27a0e05bc087d631bbe7a"
style="font-size:6.000000px;text-anchor:middle;font-family:Arial,Helvetica;alignment-baseline:baseline;stroke.opacity:1;dominant-baseline:baseline"
fill="black"
>
M2 Tetramer</text>


<path
d="M 111 205.5 111 245.433333333333 116.5 250.933333333333 181.433333333333 250.933333333333 186.933333333333 245.433333333333 186.933333333333 205.5 181.433333333333 200 116.5 200 Z"
id="Complex_d624b900fd24199bc9cf678054ea44f7"
style="fill:white;fill-opacity:0.600000;stroke-width:1;stroke:black;stroke-opacity:1.000000"
transform = "rotate(0.000000 0.000000 0.000000)"
/>


<text
x="148.966667"
y="192.000000"
id="Complex_d624b900fd24199bc9cf678054ea44f7"
style="font-size:6.000000px;text-anchor:middle;font-family:Arial,Helvetica;alignment-baseline:baseline;stroke.opacity:1;dominant-baseline:baseline"
fill="black"
>
Glycosylated NA Tetramer</text>


<path
d="M 372.475146854039 725.399982254345 372.475146854039 765.333315587678 377.975146854039 770.833315587678 442.908480187372 770.833315587678 448.408480187372 765.333315587678 448.408480187372 725.399982254345 442.908480187372 719.899982254345 377.975146854039 719.899982254345 Z"
id="Complex_739f7e2158887e2d3276c79eb2389895"
style="fill:white;fill-opacity:0.600000;stroke-width:1;stroke:black;stroke-opacity:1.000000"
transform = "rotate(0.000000 0.000000 0.000000)"
/>


<text
x="410.441814"
y="711.899982"
id="Complex_739f7e2158887e2d3276c79eb2389895"
style="font-size:6.000000px;text-anchor:middle;font-family:Arial,Helvetica;alignment-baseline:baseline;stroke.opacity:1;dominant-baseline:baseline"
fill="black"
>
Glycosylated NA Tetramer</text>


<path
d="M 264.37734996775 423.993050704634 264.37734996775 463.926384037967 269.87734996775 469.426384037967 334.810683301083 469.426384037967 340.310683301083 463.926384037967 340.310683301083 423.993050704634 334.810683301083 418.493050704634 269.87734996775 418.493050704634 Z"
id="Complex_3906ebbfcc2086fb8d7afcd7394ad874"
style="fill:white;fill-opacity:0.600000;stroke-width:1;stroke:black;stroke-opacity:1.000000"
transform = "rotate(0.000000 0.000000 0.000000)"
/>



<text
x="302.344017"
y="410.493051"
id="Complex_3906ebbfcc2086fb8d7afcd7394ad874"
style="font-size:6.000000px;text-anchor:middle;font-family:Arial,Helvetica;alignment-baseline:baseline;stroke.opacity:1;dominant-baseline:baseline"
fill="black"
>
Glycosylated and folded H-</text>


<text
x="302.344017"
y="416.493051"
id="Complex_3906ebbfcc2086fb8d7afcd7394ad874"
style="font-size:6.000000px;text-anchor:middle;font-family:Arial,Helvetica;alignment-baseline:baseline;stroke.opacity:1;dominant-baseline:baseline"
fill="black"
>
A trimer</text>


<path
d="M 278.710748381635 582.433036488993 278.710748381635 622.366369822326 284.210748381635 627.866369822326 349.144081714968 627.866369822326 354.644081714968 622.366369822326 354.644081714968 582.433036488993 349.144081714968 576.933036488993 284.210748381635 576.933036488993 Z"
id="Complex_665cfae2c3c4d984f79e8b173bb60e53"
style="fill:white;fill-opacity:0.600000;stroke-width:1;stroke:black;stroke-opacity:1.000000"
transform = "rotate(0.000000 0.000000 0.000000)"
/>


<text
x="316.677415"
y="568.933036"
id="Complex_665cfae2c3c4d984f79e8b173bb60e53"
style="font-size:6.000000px;text-anchor:middle;font-family:Arial,Helvetica;alignment-baseline:baseline;stroke.opacity:1;dominant-baseline:baseline"
fill="black"
>
M2 Tetramer</text>


<path
d="M 554.0071081921 395.305722103168 554.0071081921 435.239055436501 559.5071081921 440.739055436501 624.440441525433 440.739055436501 629.940441525433 435.239055436501 629.940441525433 395.305722103168 624.440441525433 389.805722103168 559.5071081921 389.805722103168 Z"
id="Complex_7e611f5dc52412578ed7957c83a5f3a2"
style="fill:white;fill-opacity:0.600000;stroke-width:1;stroke:black;stroke-opacity:1.000000"
transform = "rotate(0.000000 0.000000 0.000000)"
/>



<text
x="591.973775"
y="381.805722"
id="Complex_7e611f5dc52412578ed7957c83a5f3a2"
style="font-size:6.000000px;text-anchor:middle;font-family:Arial,Helvetica;alignment-baseline:baseline;stroke.opacity:1;dominant-baseline:baseline"
fill="black"
>
Glycosylated and folded H-</text>


<text
x="591.973775"
y="387.805722"
id="Complex_7e611f5dc52412578ed7957c83a5f3a2"
style="font-size:6.000000px;text-anchor:middle;font-family:Arial,Helvetica;alignment-baseline:baseline;stroke.opacity:1;dominant-baseline:baseline"
fill="black"
>
A trimer</text>


<path
d="M 484.312194995601 544.978245111964 484.312194995601 584.911578445297 489.812194995601 590.411578445297 554.745528328934 590.411578445297 560.245528328934 584.911578445297 560.245528328934 544.978245111964 554.745528328934 539.478245111964 489.812194995601 539.478245111964 Z"
id="Complex_632bf692fdbe74ff7bf86f926c3bdf9d"
style="fill:white;fill-opacity:0.600000;stroke-width:1;stroke:black;stroke-opacity:1.000000"
transform = "rotate(0.000000 0.000000 0.000000)"
/>


<text
x="522.278862"
y="531.478245"
id="Complex_632bf692fdbe74ff7bf86f926c3bdf9d"
style="font-size:6.000000px;text-anchor:middle;font-family:Arial,Helvetica;alignment-baseline:baseline;stroke.opacity:1;dominant-baseline:baseline"
fill="black"
>
M2 Tetramer</text>


<path
d="M 478.056390076915 244.073486232044 478.056390076915 284.006819565377 483.556390076915 289.506819565377 548.489723410248 289.506819565377 553.989723410248 284.006819565377 553.989723410248 244.073486232044 548.489723410248 238.573486232044 483.556390076915 238.573486232044 Z"
id="Complex_313b5b19a90b25a7f1317b0166660dc6"
style="fill:white;fill-opacity:0.600000;stroke-width:1;stroke:black;stroke-opacity:1.000000"
transform = "rotate(0.000000 0.000000 0.000000)"
/>


<text
x="516.023057"
y="230.573486"
id="Complex_313b5b19a90b25a7f1317b0166660dc6"
style="font-size:6.000000px;text-anchor:middle;font-family:Arial,Helvetica;alignment-baseline:baseline;stroke.opacity:1;dominant-baseline:baseline"
fill="black"
>
Glycosylated NA Tetramer</text>




<rect
width="58.333333"
height="33.333333"
rx="3.333333"
ry="3.333333"
x="265.566215"
y="216.111565"
id="Protein_4ce8ee52d2ca35f26f8b9d94c042a2f6_Complex_101b4d092ce2ac8519b1c3944dc033c8"
style="fill:white;fill-opacity:1.000000;stroke:black;stroke-width:1.000000;stroke-opacity:1.000000" />



<text
x="294.732882"
y="231.778232"
id="Protein_4ce8ee52d2ca35f26f8b9d94c042a2f6_Complex_101b4d092ce2ac8519b1c3944dc033c8"
style="font-size:6.000000px;text-anchor:middle;font-family:Arial,Helvetica;alignment-baseline:baseline;stroke.opacity:1;dominant-baseline:baseline"
fill="black"
>
HA folded and glyco-</text>


<text
x="294.732882"
y="237.778232"
id="Protein_4ce8ee52d2ca35f26f8b9d94c042a2f6_Complex_101b4d092ce2ac8519b1c3944dc033c8"
style="font-size:6.000000px;text-anchor:middle;font-family:Arial,Helvetica;alignment-baseline:baseline;stroke.opacity:1;dominant-baseline:baseline"
fill="black"
>
sylated</text>



<rect
width="58.333333"
height="33.333333"
rx="3.333333"
ry="3.333333"
x="154.637141"
y="404.311705"
id="Protein_4a1a5564a041b49f672f17976146e6ea_Complex_a43eda6561b27a0e05bc087d631bbe7a"
style="fill:white;fill-opacity:1.000000;stroke:black;stroke-width:1.000000;stroke-opacity:1.000000" />


<text
x="183.803808"
y="422.978371"
id="Protein_4a1a5564a041b49f672f17976146e6ea_Complex_a43eda6561b27a0e05bc087d631bbe7a"
style="font-size:6.000000px;text-anchor:middle;font-family:Arial,Helvetica;alignment-baseline:baseline;stroke.opacity:1;dominant-baseline:baseline"
fill="black"
>
M2</text>



<rect
width="58.333333"
height="33.333333"
rx="3.333333"
ry="3.333333"
x="119.800000"
y="208.800000"
id="Protein_3b6594d54ff6519973d7c756dc152a61_Complex_d624b900fd24199bc9cf678054ea44f7"
style="fill:white;fill-opacity:1.000000;stroke:black;stroke-width:1.000000;stroke-opacity:1.000000" />


<text
x="148.966667"
y="227.466667"
id="Protein_3b6594d54ff6519973d7c756dc152a61_Complex_d624b900fd24199bc9cf678054ea44f7"
style="font-size:6.000000px;text-anchor:middle;font-family:Arial,Helvetica;alignment-baseline:baseline;stroke.opacity:1;dominant-baseline:baseline"
fill="black"
>
Glycosylated NA</text>


<rect
width="16.666667"
height="16.666667"
rx="0.000000"
ry="0.000000"
x="248.063085"
y="330.963093"
id="reactome_R-HSA-168869_LEFT_TO_RIGHT"
style="fill:white;fill-opacity:0.600000;stroke:black;stroke-width:1.000000;stroke-opacity:1.000000" />



<rect
width="16.666667"
height="16.666667"
rx="0.000000"
ry="0.000000"
x="179.788258"
y="325.899119"
id="reactome_R-HSA-168871_LEFT_TO_RIGHT"
style="fill:white;fill-opacity:0.600000;stroke:black;stroke-width:1.000000;stroke-opacity:1.000000" />




<rect
width="58.333333"
height="33.333333"
rx="3.333333"
ry="3.333333"
x="381.275147"
y="728.699982"
id="Protein_c11f0b060a28ac14774ca2f9254825a0_Complex_739f7e2158887e2d3276c79eb2389895"
style="fill:white;fill-opacity:1.000000;stroke:black;stroke-width:1.000000;stroke-opacity:1.000000" />


<text
x="410.441814"
y="747.366649"
id="Protein_c11f0b060a28ac14774ca2f9254825a0_Complex_739f7e2158887e2d3276c79eb2389895"
style="font-size:6.000000px;text-anchor:middle;font-family:Arial,Helvetica;alignment-baseline:baseline;stroke.opacity:1;dominant-baseline:baseline"
fill="black"
>
Glycosylated NA</text>



<rect
width="58.333333"
height="33.333333"
rx="3.333333"
ry="3.333333"
x="273.177350"
y="427.293051"
id="Protein_7200097d9fa50a0eda96c6459b1f74dd_Complex_3906ebbfcc2086fb8d7afcd7394ad874"
style="fill:white;fill-opacity:1.000000;stroke:black;stroke-width:1.000000;stroke-opacity:1.000000" />



<text
x="302.344017"
y="442.959717"
id="Protein_7200097d9fa50a0eda96c6459b1f74dd_Complex_3906ebbfcc2086fb8d7afcd7394ad874"
style="font-size:6.000000px;text-anchor:middle;font-family:Arial,Helvetica;alignment-baseline:baseline;stroke.opacity:1;dominant-baseline:baseline"
fill="black"
>
HA folded and glyco-</text>


<text
x="302.344017"
y="448.959717"
id="Protein_7200097d9fa50a0eda96c6459b1f74dd_Complex_3906ebbfcc2086fb8d7afcd7394ad874"
style="font-size:6.000000px;text-anchor:middle;font-family:Arial,Helvetica;alignment-baseline:baseline;stroke.opacity:1;dominant-baseline:baseline"
fill="black"
>
sylated</text>



<rect
width="58.333333"
height="33.333333"
rx="3.333333"
ry="3.333333"
x="287.510748"
y="585.733036"
id="Protein_17737e9d33e4ec6d09cbd74447ce087b_Complex_665cfae2c3c4d984f79e8b173bb60e53"
style="fill:white;fill-opacity:1.000000;stroke:black;stroke-width:1.000000;stroke-opacity:1.000000" />


<text
x="316.677415"
y="604.399703"
id="Protein_17737e9d33e4ec6d09cbd74447ce087b_Complex_665cfae2c3c4d984f79e8b173bb60e53"
style="font-size:6.000000px;text-anchor:middle;font-family:Arial,Helvetica;alignment-baseline:baseline;stroke.opacity:1;dominant-baseline:baseline"
fill="black"
>
M2</text>



<rect
width="58.333333"
height="33.333333"
rx="3.333333"
ry="3.333333"
x="562.807108"
y="398.605722"
id="Protein_b612c150923c9c1b2f700eaae03a5497_Complex_7e611f5dc52412578ed7957c83a5f3a2"
style="fill:white;fill-opacity:1.000000;stroke:black;stroke-width:1.000000;stroke-opacity:1.000000" />



<text
x="591.973775"
y="414.272389"
id="Protein_b612c150923c9c1b2f700eaae03a5497_Complex_7e611f5dc52412578ed7957c83a5f3a2"
style="font-size:6.000000px;text-anchor:middle;font-family:Arial,Helvetica;alignment-baseline:baseline;stroke.opacity:1;dominant-baseline:baseline"
fill="black"
>
Glycosylated and fo-</text>


<text
x="591.973775"
y="420.272389"
id="Protein_b612c150923c9c1b2f700eaae03a5497_Complex_7e611f5dc52412578ed7957c83a5f3a2"
style="font-size:6.000000px;text-anchor:middle;font-family:Arial,Helvetica;alignment-baseline:baseline;stroke.opacity:1;dominant-baseline:baseline"
fill="black"
>
lded HA</text>



<rect
width="58.333333"
height="33.333333"
rx="3.333333"
ry="3.333333"
x="493.112195"
y="548.278245"
id="Protein_ca7f71b0750029c571e946e36b260fa5_Complex_632bf692fdbe74ff7bf86f926c3bdf9d"
style="fill:white;fill-opacity:1.000000;stroke:black;stroke-width:1.000000;stroke-opacity:1.000000" />


<text
x="522.278862"
y="566.944912"
id="Protein_ca7f71b0750029c571e946e36b260fa5_Complex_632bf692fdbe74ff7bf86f926c3bdf9d"
style="font-size:6.000000px;text-anchor:middle;font-family:Arial,Helvetica;alignment-baseline:baseline;stroke.opacity:1;dominant-baseline:baseline"
fill="black"
>
M2</text>



<rect
width="58.333333"
height="33.333333"
rx="3.333333"
ry="3.333333"
x="486.856390"
y="247.373486"
id="Protein_e62f1a2faf2e83cdf42c189e876d9a51_Complex_313b5b19a90b25a7f1317b0166660dc6"
style="fill:white;fill-opacity:1.000000;stroke:black;stroke-width:1.000000;stroke-opacity:1.000000" />


<text
x="516.023057"
y="266.040153"
id="Protein_e62f1a2faf2e83cdf42c189e876d9a51_Complex_313b5b19a90b25a7f1317b0166660dc6"
style="font-size:6.000000px;text-anchor:middle;font-family:Arial,Helvetica;alignment-baseline:baseline;stroke.opacity:1;dominant-baseline:baseline"
fill="black"
>
Glycosylated NA</text>




<path d="M196.000000 342.000000 C 213.000000 358.000000, 249.000000 393.000000,275.000000 418.000000" stroke="black"  fill="transparent"/>

<line
x1="213" y1="358" x2="196" y2="342"
id="0"
style="stroke:black;stroke-width:1.000000;stroke-opacity:0" />


<line
x1="249" y1="393" x2="275" y2="418"
id="reactome_R-HSA-168871_LEFT_TO_RIGHT-output--to--Complex_3906ebbfcc2086fb8d7afcd7394ad874"
style="stroke:black;stroke-width:1.000000;stroke-opacity:0" />


<polygon
points = "275,418 266.2,413.6 266.2,422.4"
id="line"
style="fill:black; stroke:#000000; stroke-width:1"
transform = "rotate(43.876697 275.000000 418.000000)"
/>


<path d="M264.000000 341.000000 C 304.000000 350.000000, 476.000000 389.000000,553.000000 406.000000" stroke="black"  fill="transparent"/>

<line
x1="476" y1="389" x2="553" y2="406"
id="0"
style="stroke:black;stroke-width:1.000000;stroke-opacity:0" />


<line
x1="304" y1="350" x2="264" y2="341"
id="Complex_7e611f5dc52412578ed7957c83a5f3a2--to--reactome_R-HSA-168869_LEFT_TO_RIGHT-input"
style="stroke:black;stroke-width:1.000000;stroke-opacity:0" />


<path d="M185.000000 395.000000 C 185.000000 377.000000, 187.000000 354.000000,187.000000 342.000000" stroke="black"  fill="transparent"/>

<line
x1="185" y1="377" x2="185" y2="395"
id="0"
style="stroke:black;stroke-width:1.000000;stroke-opacity:0" />


<line
x1="187" y1="354" x2="187" y2="342"
id="Complex_a43eda6561b27a0e05bc087d631bbe7a--to--reactome_R-HSA-168871_LEFT_TO_RIGHT-input"
style="stroke:black;stroke-width:1.000000;stroke-opacity:0" />


<path d="M194.000000 343.000000 C 202.000000 354.000000, 215.000000 374.000000,225.000000 392.000000" stroke="black"  fill="transparent"/>
<path d="M225.000000 392.000000 C 234.000000 409.000000, 283.000000 524.000000,305.000000 576.000000" stroke="black"  fill="transparent"/>

<line
x1="202" y1="354" x2="194" y2="343"
id="0"
style="stroke:black;stroke-width:1.000000;stroke-opacity:0" />


<line
x1="283" y1="524" x2="305" y2="576"
id="reactome_R-HSA-168871_LEFT_TO_RIGHT-output--to--Complex_665cfae2c3c4d984f79e8b173bb60e53"
style="stroke:black;stroke-width:1.000000;stroke-opacity:0" />


<polygon
points = "305,576 296.2,571.6 296.2,580.4"
id="line"
style="fill:black; stroke:#000000; stroke-width:1"
transform = "rotate(67.067900 305.000000 576.000000)"
/>


<path d="M194.000000 343.000000 C 201.000000 354.000000, 215.000000 374.000000,225.000000 392.000000" stroke="black"  fill="transparent"/>
<path d="M225.000000 392.000000 C 243.000000 426.000000, 239.000000 440.000000,261.000000 472.000000" stroke="black"  fill="transparent"/>
<path d="M261.000000 472.000000 C 295.000000 524.000000, 326.000000 520.000000,357.000000 573.000000" stroke="black"  fill="transparent"/>
<path d="M357.000000 573.000000 C 385.000000 621.000000, 400.000000 684.000000,406.000000 719.000000" stroke="black"  fill="transparent"/>

<line
x1="201" y1="354" x2="194" y2="343"
id="0"
style="stroke:black;stroke-width:1.000000;stroke-opacity:0" />


<line
x1="400" y1="684" x2="406" y2="719"
id="reactome_R-HSA-168871_LEFT_TO_RIGHT-output--to--Complex_739f7e2158887e2d3276c79eb2389895"
style="stroke:black;stroke-width:1.000000;stroke-opacity:0" />


<polygon
points = "406,719 397.2,714.6 397.2,723.4"
id="line"
style="fill:black; stroke:#000000; stroke-width:1"
transform = "rotate(80.272421 406.000000 719.000000)"
/>


<path d="M264.000000 336.000000 C 297.000000 327.000000, 415.000000 293.000000,477.000000 275.000000" stroke="black"  fill="transparent"/>

<line
x1="415" y1="293" x2="477" y2="275"
id="0"
style="stroke:black;stroke-width:1.000000;stroke-opacity:0" />


<line
x1="297" y1="327" x2="264" y2="336"
id="Complex_313b5b19a90b25a7f1317b0166660dc6--to--reactome_R-HSA-168869_LEFT_TO_RIGHT-input"
style="stroke:black;stroke-width:1.000000;stroke-opacity:0" />


<path d="M206.000000 395.000000 C 221.000000 378.000000, 238.000000 358.000000,248.000000 347.000000" stroke="black"  fill="transparent"/>

<line
x1="238" y1="358" x2="248" y2="347"
id="0"
style="stroke:black;stroke-width:1.000000;stroke-opacity:0" />


<line
x1="221" y1="378" x2="206" y2="395"
id="reactome_R-HSA-168869_LEFT_TO_RIGHT-output--to--Complex_a43eda6561b27a0e05bc087d631bbe7a"
style="stroke:black;stroke-width:1.000000;stroke-opacity:0" />


<polygon
points = "206,395 197.2,390.6 197.2,399.4"
id="line"
style="fill:black; stroke:#000000; stroke-width:1"
transform = "rotate(131.423666 206.000000 395.000000)"
/>


<path d="M267.000000 258.000000 C 244.000000 280.000000, 212.000000 311.000000,197.000000 325.000000" stroke="black"  fill="transparent"/>

<line
x1="244" y1="280" x2="267" y2="258"
id="0"
style="stroke:black;stroke-width:1.000000;stroke-opacity:0" />


<line
x1="212" y1="311" x2="197" y2="325"
id="Complex_101b4d092ce2ac8519b1c3944dc033c8--to--reactome_R-HSA-168871_LEFT_TO_RIGHT-input"
style="stroke:black;stroke-width:1.000000;stroke-opacity:0" />


<path d="M158.000000 250.000000 C 166.000000 274.000000, 179.000000 309.000000,184.000000 325.000000" stroke="black"  fill="transparent"/>

<line
x1="166" y1="274" x2="158" y2="250"
id="0"
style="stroke:black;stroke-width:1.000000;stroke-opacity:0" />


<line
x1="179" y1="309" x2="184" y2="325"
id="Complex_d624b900fd24199bc9cf678054ea44f7--to--reactome_R-HSA-168871_LEFT_TO_RIGHT-input"
style="stroke:black;stroke-width:1.000000;stroke-opacity:0" />


<path d="M264.000000 346.000000 C 299.000000 376.000000, 431.000000 487.000000,491.000000 539.000000" stroke="black"  fill="transparent"/>

<line
x1="431" y1="487" x2="491" y2="539"
id="0"
style="stroke:black;stroke-width:1.000000;stroke-opacity:0" />


<line
x1="299" y1="376" x2="264" y2="346"
id="Complex_632bf692fdbe74ff7bf86f926c3bdf9d--to--reactome_R-HSA-168869_LEFT_TO_RIGHT-input"
style="stroke:black;stroke-width:1.000000;stroke-opacity:0" />


<path d="M173.000000 251.000000 C 197.000000 276.000000, 232.000000 314.000000,248.000000 330.000000" stroke="black"  fill="transparent"/>

<line
x1="232" y1="314" x2="248" y2="330"
id="0"
style="stroke:black;stroke-width:1.000000;stroke-opacity:0" />


<line
x1="197" y1="276" x2="173" y2="251"
id="reactome_R-HSA-168869_LEFT_TO_RIGHT-output--to--Complex_d624b900fd24199bc9cf678054ea44f7"
style="stroke:black;stroke-width:1.000000;stroke-opacity:0" />


<polygon
points = "173,251 164.2,246.6 164.2,255.4"
id="line"
style="fill:black; stroke:#000000; stroke-width:1"
transform = "rotate(226.169139 173.000000 251.000000)"
/>


<path d="M285.000000 258.000000 C 277.000000 281.000000, 265.000000 314.000000,259.000000 330.000000" stroke="black"  fill="transparent"/>

<line
x1="265" y1="314" x2="259" y2="330"
id="0"
style="stroke:black;stroke-width:1.000000;stroke-opacity:0" />


<line
x1="277" y1="281" x2="285" y2="258"
id="reactome_R-HSA-168869_LEFT_TO_RIGHT-output--to--Complex_101b4d092ce2ac8519b1c3944dc033c8"
style="stroke:black;stroke-width:1.000000;stroke-opacity:0" />


<polygon
points = "285,258 276.2,253.6 276.2,262.4"
id="line"
style="fill:black; stroke:#000000; stroke-width:1"
transform = "rotate(-70.820992 285.000000 258.000000)"
/>



</svg>
