<?xml version="1.0" encoding="UTF-8"?>
<svg width="737.043109" height="715.943468"
xmlns="http://www.w3.org/2000/svg" xmlns:svg="http://www.w3.org/2000/svg"
>
<metadata id="metadata7">image/svg+xml</metadata>




<rect
width="16.666667"
height="16.666667"
rx="0.000000"
ry="0.000000"
x="282.723922"
y="395.429681"
id="BiochemicalReaction_dfcfae5dee1e14dee2ebe649ee4e580f_LEFT_TO_RIGHT"
style="fill:white;fill-opacity:0.600000;stroke:black;stroke-width:1.000000;stroke-opacity:1.000000" />




<ellipse
rx="16.666667"
ry="16.666667"
cx="390.376443"
cy="403.529736"
id="SmallMolecule_018bfe0345097cde7dba01cff02248f8"
style="fill:white;fill-opacity:0.000000;stroke:black;stroke-width:1.000000;stroke-opacity:1.000000" />


<text
x="390.376443"
y="405.529736"
id="SmallMolecule_018bfe0345097cde7dba01cff02248f8"
style="font-size:6.000000px;text-anchor:middle;font-family:Arial,Helvetica;alignment-baseline:baseline;stroke.opacity:1;dominant-baseline:baseline"
fill="black"
>
acetate</text>



<rect
width="58.333333"
height="33.333333"
rx="3.333333"
ry="3.333333"
x="173.215581"
y="150.000000"
id="Protein_a6f5201418ae7f2b698928f9d8f13dba"
style="fill:white;fill-opacity:1.000000;stroke:black;stroke-width:1.000000;stroke-opacity:1.000000" />



<text
x="202.382248"
y="165.666667"
id="Protein_a6f5201418ae7f2b698928f9d8f13dba"
style="font-size:6.000000px;text-anchor:middle;font-family:Arial,Helvetica;alignment-baseline:baseline;stroke.opacity:1;dominant-baseline:baseline"
fill="black"
>
Phosphate acetyltra-</text>


<text
x="202.382248"
y="171.666667"
id="Protein_a6f5201418ae7f2b698928f9d8f13dba"
style="font-size:6.000000px;text-anchor:middle;font-family:Arial,Helvetica;alignment-baseline:baseline;stroke.opacity:1;dominant-baseline:baseline"
fill="black"
>
nsferase</text>



<ellipse
rx="16.666667"
ry="16.666667"
cx="247.075419"
cy="318.401978"
id="SmallMolecule_dad6f2465d919716f9916b29a2201e87"
style="fill:white;fill-opacity:0.000000;stroke:black;stroke-width:1.000000;stroke-opacity:1.000000" />


<text
x="247.075419"
y="320.401978"
id="SmallMolecule_dad6f2465d919716f9916b29a2201e87"
style="font-size:6.000000px;text-anchor:middle;font-family:Arial,Helvetica;alignment-baseline:baseline;stroke.opacity:1;dominant-baseline:baseline"
fill="black"
>
CoA</text>



<ellipse
rx="16.666667"
ry="16.666667"
cx="334.930563"
cy="454.125583"
id="SmallMolecule_ffac04d5ccc3af6b1569f1fb5f38bef3"
style="fill:white;fill-opacity:0.000000;stroke:black;stroke-width:1.000000;stroke-opacity:1.000000" />


<text
x="334.930563"
y="456.125583"
id="SmallMolecule_ffac04d5ccc3af6b1569f1fb5f38bef3"
style="font-size:6.000000px;text-anchor:middle;font-family:Arial,Helvetica;alignment-baseline:baseline;stroke.opacity:1;dominant-baseline:baseline"
fill="black"
>
AMP</text>



<ellipse
rx="16.666667"
ry="16.666667"
cx="318.172786"
cy="280.479197"
id="SmallMolecule_98c1c69deccdeb3d1ca343d5daa7d51e"
style="fill:white;fill-opacity:0.000000;stroke:black;stroke-width:1.000000;stroke-opacity:1.000000" />


<text
x="318.172786"
y="282.479197"
id="SmallMolecule_98c1c69deccdeb3d1ca343d5daa7d51e"
style="font-size:6.000000px;text-anchor:middle;font-family:Arial,Helvetica;alignment-baseline:baseline;stroke.opacity:1;dominant-baseline:baseline"
fill="black"
>
Acetyl-CoA</text>



<ellipse
rx="16.666667"
ry="16.666667"
cx="272.517115"
cy="499.276801"
id="SmallMolecule_68d9752916a73cd26503beaec2ab3811"
style="fill:white;fill-opacity:0.000000;stroke:black;stroke-width:1.000000;stroke-opacity:1.000000" />


<text
x="272.517115"
y="501.276801"
id="SmallMolecule_68d9752916a73cd26503beaec2ab3811"
style="font-size:6.000000px;text-anchor:middle;font-family:Arial,Helvetica;alignment-baseline:baseline;stroke.opacity:1;dominant-baseline:baseline"
fill="black"
>
ADP</text>



<ellipse
rx="16.666667"
ry="16.666667"
cx="382.679771"
cy="341.047562"
id="SmallMolecule_067280b8b822ca79f313ec8eebae1ca8"
style="fill:white;fill-opacity:0.000000;stroke:black;stroke-width:1.000000;stroke-opacity:1.000000" />


<text
x="382.679771"
y="343.047562"
id="SmallMolecule_067280b8b822ca79f313ec8eebae1ca8"
style="font-size:6.000000px;text-anchor:middle;font-family:Arial,Helvetica;alignment-baseline:baseline;stroke.opacity:1;dominant-baseline:baseline"
fill="black"
>
ATP</text>


<rect
width="16.666667"
height="16.666667"
rx="0.000000"
ry="0.000000"
x="304.585267"
y="345.504212"
id="BiochemicalReaction_3e7ca46feee956c062e28fc08072e50d_LEFT_TO_RIGHT"
style="fill:white;fill-opacity:0.600000;stroke:black;stroke-width:1.000000;stroke-opacity:1.000000" />



<rect
width="16.666667"
height="16.666667"
rx="0.000000"
ry="0.000000"
x="191.959867"
y="251.066888"
id="BiochemicalReaction_74417c95872005ce4da762221b8da9f2_LEFT_TO_RIGHT"
style="fill:white;fill-opacity:0.600000;stroke:black;stroke-width:1.000000;stroke-opacity:1.000000" />




<ellipse
rx="16.666667"
ry="16.666667"
cx="116.666667"
cy="203.836642"
id="SmallMolecule_893d4e9a3537b8b355892e0ccabca0cc"
style="fill:white;fill-opacity:0.000000;stroke:black;stroke-width:1.000000;stroke-opacity:1.000000" />


<text
x="116.666667"
y="205.836642"
id="SmallMolecule_893d4e9a3537b8b355892e0ccabca0cc"
style="font-size:6.000000px;text-anchor:middle;font-family:Arial,Helvetica;alignment-baseline:baseline;stroke.opacity:1;dominant-baseline:baseline"
fill="black"
>
PO4</text>



<ellipse
rx="16.666667"
ry="16.666667"
cx="238.916591"
cy="410.828545"
id="SmallMolecule_7c646e47fcf7743211f31a95a9be981b"
style="fill:white;fill-opacity:0.000000;stroke:black;stroke-width:1.000000;stroke-opacity:1.000000" />


<text
x="238.916591"
y="412.828545"
id="SmallMolecule_7c646e47fcf7743211f31a95a9be981b"
style="font-size:6.000000px;text-anchor:middle;font-family:Arial,Helvetica;alignment-baseline:baseline;stroke.opacity:1;dominant-baseline:baseline"
fill="black"
>
PPi</text>



<rect
width="58.333333"
height="33.333333"
rx="3.333333"
ry="3.333333"
x="234.908509"
y="216.980152"
id="Protein_007e4fcf4c12e3b00ace7a5810d21ab4"
style="fill:white;fill-opacity:1.000000;stroke:black;stroke-width:1.000000;stroke-opacity:1.000000" />


<text
x="264.075176"
y="235.646819"
id="Protein_007e4fcf4c12e3b00ace7a5810d21ab4"
style="font-size:6.000000px;text-anchor:middle;font-family:Arial,Helvetica;alignment-baseline:baseline;stroke.opacity:1;dominant-baseline:baseline"
fill="black"
>
Acetyl-CoA synthetase</text>



<ellipse
rx="16.666667"
ry="16.666667"
cx="185.478706"
cy="351.381964"
id="SmallMolecule_f3f15ac61a46a2ad352a462e65377fa7"
style="fill:white;fill-opacity:0.000000;stroke:black;stroke-width:1.000000;stroke-opacity:1.000000" />



<text
x="185.478706"
y="350.381964"
id="SmallMolecule_f3f15ac61a46a2ad352a462e65377fa7"
style="font-size:6.000000px;text-anchor:middle;font-family:Arial,Helvetica;alignment-baseline:baseline;stroke.opacity:1;dominant-baseline:baseline"
fill="black"
>
Acetylphosp-</text>


<text
x="185.478706"
y="356.381964"
id="SmallMolecule_f3f15ac61a46a2ad352a462e65377fa7"
style="font-size:6.000000px;text-anchor:middle;font-family:Arial,Helvetica;alignment-baseline:baseline;stroke.opacity:1;dominant-baseline:baseline"
fill="black"
>
hate</text>



<rect
width="58.333333"
height="33.333333"
rx="3.333333"
ry="3.333333"
x="149.360778"
y="449.020740"
id="Protein_c8a3d357495fa4edffb5ed23d26854be"
style="fill:white;fill-opacity:1.000000;stroke:black;stroke-width:1.000000;stroke-opacity:1.000000" />


<text
x="178.527445"
y="467.687407"
id="Protein_c8a3d357495fa4edffb5ed23d26854be"
style="font-size:6.000000px;text-anchor:middle;font-family:Arial,Helvetica;alignment-baseline:baseline;stroke.opacity:1;dominant-baseline:baseline"
fill="black"
>
Acetate kinase</text>




<path d="M309.000000 345.000000 C 301.000000 325.000000, 281.000000 276.000000,270.000000 250.000000" stroke="black"  fill="transparent"/>

<line
x1="281" y1="276" x2="270" y2="250"
id="0"
style="stroke:black;stroke-width:1.000000;stroke-opacity:0" />


<line
x1="301" y1="325" x2="309" y2="345"
id="Protein_007e4fcf4c12e3b00ace7a5810d21ab4--to--BiochemicalReaction_3e7ca46feee956c062e28fc08072e50d_LEFT_TO_RIGHT"
style="stroke:black;stroke-width:1.000000;stroke-opacity:0" />


<ellipse
rx="4.400000"
ry="4.400000"
cx="307.365881"
cy="340.914703"
id="Protein_007e4fcf4c12e3b00ace7a5810d21ab4--to--BiochemicalReaction_3e7ca46feee956c062e28fc08072e50d_LEFT_TO_RIGHT"
style="fill:white;fill-opacity:0.800000;stroke:black;stroke-width:1.000000;stroke-opacity:1.000000" />


<path d="M316.000000 297.000000 C 315.000000 312.000000, 314.000000 333.000000,313.000000 345.000000" stroke="black"  fill="transparent"/>

<line
x1="315" y1="312" x2="316" y2="297"
id="0"
style="stroke:black;stroke-width:1.000000;stroke-opacity:0" />


<line
x1="314" y1="333" x2="313" y2="345"
id="SmallMolecule_98c1c69deccdeb3d1ca343d5daa7d51e--to--BiochemicalReaction_3e7ca46feee956c062e28fc08072e50d_LEFT_TO_RIGHT-input"
style="stroke:black;stroke-width:1.000000;stroke-opacity:0" />


<path d="M191.000000 253.000000 C 178.000000 244.000000, 150.000000 226.000000,133.000000 214.000000" stroke="black"  fill="transparent"/>

<line
x1="178" y1="244" x2="191" y2="253"
id="0"
style="stroke:black;stroke-width:1.000000;stroke-opacity:0" />


<line
x1="150" y1="226" x2="133" y2="214"
id="BiochemicalReaction_74417c95872005ce4da762221b8da9f2_LEFT_TO_RIGHT-output--to--SmallMolecule_893d4e9a3537b8b355892e0ccabca0cc"
style="stroke:black;stroke-width:1.000000;stroke-opacity:0" />


<polygon
points = "133,214 124.2,209.6 124.2,218.4"
id="line"
style="fill:black; stroke:#000000; stroke-width:1"
transform = "rotate(215.217593 133.000000 214.000000)"
/>


<path d="M331.000000 437.000000 C 326.000000 415.000000, 318.000000 379.000000,314.000000 362.000000" stroke="black"  fill="transparent"/>

<line
x1="326" y1="415" x2="331" y2="437"
id="0"
style="stroke:black;stroke-width:1.000000;stroke-opacity:0" />


<line
x1="318" y1="379" x2="314" y2="362"
id="SmallMolecule_ffac04d5ccc3af6b1569f1fb5f38bef3--to--BiochemicalReaction_3e7ca46feee956c062e28fc08072e50d_LEFT_TO_RIGHT-input"
style="stroke:black;stroke-width:1.000000;stroke-opacity:0" />


<path d="M198.000000 268.000000 C 196.000000 283.000000, 191.000000 315.000000,188.000000 334.000000" stroke="black"  fill="transparent"/>

<line
x1="191" y1="315" x2="188" y2="334"
id="0"
style="stroke:black;stroke-width:1.000000;stroke-opacity:0" />


<line
x1="196" y1="283" x2="198" y2="268"
id="SmallMolecule_f3f15ac61a46a2ad352a462e65377fa7--to--BiochemicalReaction_74417c95872005ce4da762221b8da9f2_LEFT_TO_RIGHT-input"
style="stroke:black;stroke-width:1.000000;stroke-opacity:0" />


<path d="M299.000000 403.000000 C 316.000000 403.000000, 352.000000 403.000000,373.000000 403.000000" stroke="black"  fill="transparent"/>

<line
x1="352" y1="403" x2="373" y2="403"
id="0"
style="stroke:black;stroke-width:1.000000;stroke-opacity:0" />


<line
x1="316" y1="403" x2="299" y2="403"
id="SmallMolecule_018bfe0345097cde7dba01cff02248f8--to--BiochemicalReaction_dfcfae5dee1e14dee2ebe649ee4e580f_LEFT_TO_RIGHT-input"
style="stroke:black;stroke-width:1.000000;stroke-opacity:0" />


<path d="M299.000000 397.000000 C 314.000000 387.000000, 346.000000 365.000000,365.000000 352.000000" stroke="black"  fill="transparent"/>

<line
x1="346" y1="365" x2="365" y2="352"
id="0"
style="stroke:black;stroke-width:1.000000;stroke-opacity:0" />


<line
x1="314" y1="387" x2="299" y2="397"
id="SmallMolecule_067280b8b822ca79f313ec8eebae1ca8--to--BiochemicalReaction_dfcfae5dee1e14dee2ebe649ee4e580f_LEFT_TO_RIGHT-input"
style="stroke:black;stroke-width:1.000000;stroke-opacity:0" />


<path d="M282.000000 399.000000 C 265.000000 391.000000, 225.000000 371.000000,202.000000 359.000000" stroke="black"  fill="transparent"/>

<line
x1="265" y1="391" x2="282" y2="399"
id="0"
style="stroke:black;stroke-width:1.000000;stroke-opacity:0" />


<line
x1="225" y1="371" x2="202" y2="359"
id="BiochemicalReaction_dfcfae5dee1e14dee2ebe649ee4e580f_LEFT_TO_RIGHT-output--to--SmallMolecule_f3f15ac61a46a2ad352a462e65377fa7"
style="stroke:black;stroke-width:1.000000;stroke-opacity:0" />


<polygon
points = "202,359 193.2,354.6 193.2,363.4"
id="line"
style="fill:black; stroke:#000000; stroke-width:1"
transform = "rotate(207.552812 202.000000 359.000000)"
/>


<path d="M289.000000 412.000000 C 286.000000 428.000000, 279.000000 462.000000,275.000000 482.000000" stroke="black"  fill="transparent"/>

<line
x1="286" y1="428" x2="289" y2="412"
id="0"
style="stroke:black;stroke-width:1.000000;stroke-opacity:0" />


<line
x1="279" y1="462" x2="275" y2="482"
id="BiochemicalReaction_dfcfae5dee1e14dee2ebe649ee4e580f_LEFT_TO_RIGHT-output--to--SmallMolecule_68d9752916a73cd26503beaec2ab3811"
style="stroke:black;stroke-width:1.000000;stroke-opacity:0" />


<polygon
points = "275,482 266.2,477.6 266.2,486.4"
id="line"
style="fill:black; stroke:#000000; stroke-width:1"
transform = "rotate(101.309932 275.000000 482.000000)"
/>


<path d="M304.000000 360.000000 C 292.000000 369.000000, 270.000000 386.000000,255.000000 397.000000" stroke="black"  fill="transparent"/>

<line
x1="270" y1="386" x2="255" y2="397"
id="0"
style="stroke:black;stroke-width:1.000000;stroke-opacity:0" />


<line
x1="292" y1="369" x2="304" y2="360"
id="SmallMolecule_7c646e47fcf7743211f31a95a9be981b--to--BiochemicalReaction_3e7ca46feee956c062e28fc08072e50d_LEFT_TO_RIGHT-input"
style="stroke:black;stroke-width:1.000000;stroke-opacity:0" />


<path d="M233.000000 301.000000 C 225.000000 290.000000, 214.000000 276.000000,207.000000 268.000000" stroke="black"  fill="transparent"/>

<line
x1="225" y1="290" x2="233" y2="301"
id="0"
style="stroke:black;stroke-width:1.000000;stroke-opacity:0" />


<line
x1="214" y1="276" x2="207" y2="268"
id="SmallMolecule_dad6f2465d919716f9916b29a2201e87--to--BiochemicalReaction_74417c95872005ce4da762221b8da9f2_LEFT_TO_RIGHT-input"
style="stroke:black;stroke-width:1.000000;stroke-opacity:0" />


<path d="M202.000000 183.000000 C 201.000000 203.000000, 200.000000 235.000000,200.000000 250.000000" stroke="black"  fill="transparent"/>

<line
x1="201" y1="203" x2="202" y2="183"
id="0"
style="stroke:black;stroke-width:1.000000;stroke-opacity:0" />


<line
x1="200" y1="235" x2="200" y2="250"
id="Protein_a6f5201418ae7f2b698928f9d8f13dba--to--BiochemicalReaction_74417c95872005ce4da762221b8da9f2_LEFT_TO_RIGHT"
style="stroke:black;stroke-width:1.000000;stroke-opacity:0" />


<ellipse
rx="4.400000"
ry="4.400000"
cx="200.000000"
cy="245.600000"
id="Protein_a6f5201418ae7f2b698928f9d8f13dba--to--BiochemicalReaction_74417c95872005ce4da762221b8da9f2_LEFT_TO_RIGHT"
style="fill:white;fill-opacity:0.800000;stroke:black;stroke-width:1.000000;stroke-opacity:1.000000" />


<path d="M282.000000 411.000000 C 276.000000 417.000000, 267.000000 425.000000,258.000000 430.000000" stroke="black"  fill="transparent"/>
<path d="M258.000000 430.000000 C 242.000000 440.000000, 223.000000 448.000000,207.000000 455.000000" stroke="black"  fill="transparent"/>

<line
x1="223" y1="448" x2="207" y2="455"
id="0"
style="stroke:black;stroke-width:1.000000;stroke-opacity:0" />


<line
x1="276" y1="417" x2="282" y2="411"
id="Protein_c8a3d357495fa4edffb5ed23d26854be--to--BiochemicalReaction_dfcfae5dee1e14dee2ebe649ee4e580f_LEFT_TO_RIGHT"
style="stroke:black;stroke-width:1.000000;stroke-opacity:0" />


<ellipse
rx="4.400000"
ry="4.400000"
cx="278.888730"
cy="414.111270"
id="Protein_c8a3d357495fa4edffb5ed23d26854be--to--BiochemicalReaction_dfcfae5dee1e14dee2ebe649ee4e580f_LEFT_TO_RIGHT"
style="fill:white;fill-opacity:0.800000;stroke:black;stroke-width:1.000000;stroke-opacity:1.000000" />


<path d="M366.000000 344.000000 C 352.000000 346.000000, 332.000000 350.000000,321.000000 352.000000" stroke="black"  fill="transparent"/>

<line
x1="332" y1="350" x2="321" y2="352"
id="0"
style="stroke:black;stroke-width:1.000000;stroke-opacity:0" />


<line
x1="352" y1="346" x2="366" y2="344"
id="BiochemicalReaction_3e7ca46feee956c062e28fc08072e50d_LEFT_TO_RIGHT-output--to--SmallMolecule_067280b8b822ca79f313ec8eebae1ca8"
style="stroke:black;stroke-width:1.000000;stroke-opacity:0" />


<polygon
points = "366,344 357.2,339.6 357.2,348.4"
id="line"
style="fill:black; stroke:#000000; stroke-width:1"
transform = "rotate(-8.130102 366.000000 344.000000)"
/>


<path d="M373.000000 392.000000 C 357.000000 382.000000, 334.000000 367.000000,321.000000 359.000000" stroke="black"  fill="transparent"/>

<line
x1="334" y1="367" x2="321" y2="359"
id="0"
style="stroke:black;stroke-width:1.000000;stroke-opacity:0" />


<line
x1="357" y1="382" x2="373" y2="392"
id="BiochemicalReaction_3e7ca46feee956c062e28fc08072e50d_LEFT_TO_RIGHT-output--to--SmallMolecule_018bfe0345097cde7dba01cff02248f8"
style="stroke:black;stroke-width:1.000000;stroke-opacity:0" />


<polygon
points = "373,392 364.2,387.6 364.2,396.4"
id="line"
style="fill:black; stroke:#000000; stroke-width:1"
transform = "rotate(32.005383 373.000000 392.000000)"
/>


<path d="M263.000000 327.000000 C 276.000000 334.000000, 294.000000 343.000000,304.000000 349.000000" stroke="black"  fill="transparent"/>

<line
x1="294" y1="343" x2="304" y2="349"
id="0"
style="stroke:black;stroke-width:1.000000;stroke-opacity:0" />


<line
x1="276" y1="334" x2="263" y2="327"
id="BiochemicalReaction_3e7ca46feee956c062e28fc08072e50d_LEFT_TO_RIGHT-output--to--SmallMolecule_dad6f2465d919716f9916b29a2201e87"
style="stroke:black;stroke-width:1.000000;stroke-opacity:0" />


<polygon
points = "263,327 254.2,322.6 254.2,331.4"
id="line"
style="fill:black; stroke:#000000; stroke-width:1"
transform = "rotate(208.300756 263.000000 327.000000)"
/>


<path d="M301.000000 277.000000 C 276.000000 273.000000, 228.000000 264.000000,208.000000 260.000000" stroke="black"  fill="transparent"/>

<line
x1="228" y1="264" x2="208" y2="260"
id="0"
style="stroke:black;stroke-width:1.000000;stroke-opacity:0" />


<line
x1="276" y1="273" x2="301" y2="277"
id="BiochemicalReaction_74417c95872005ce4da762221b8da9f2_LEFT_TO_RIGHT-output--to--SmallMolecule_98c1c69deccdeb3d1ca343d5daa7d51e"
style="stroke:black;stroke-width:1.000000;stroke-opacity:0" />


<polygon
points = "301,277 292.2,272.6 292.2,281.4"
id="line"
style="fill:black; stroke:#000000; stroke-width:1"
transform = "rotate(9.090277 301.000000 277.000000)"
/>



</svg>
