<?xml version="1.0" encoding="UTF-8"?>
<svg width="1050.362428" height="1037.915949"
xmlns="http://www.w3.org/2000/svg" xmlns:svg="http://www.w3.org/2000/svg"
>
<metadata id="metadata7">image/svg+xml</metadata>

<rect
width="620.362428"
height="654.915949"
rx="11.000000"
ry="11.000000"
x="100.000000"
y="183.000000"
id="cytosol"
style="fill:white;fill-opacity:0.900000;stroke:black;stroke-width:5.000000;stroke-opacity:1.000000" />


<text
x="410.181214"
y="175.000000"
id="cytosol"
style="font-size:6.000000px;text-anchor:middle;font-family:Arial,Helvetica;alignment-baseline:baseline;stroke.opacity:1;dominant-baseline:baseline"
fill="black"
>
cytosol</text>


<rect
width="620.362428"
height="654.915949"
rx="11.000000"
ry="11.000000"
x="100.000000"
y="183.000000"
id="cytosol"
style="fill:white;fill-opacity:0.900000;stroke:black;stroke-width:5.000000;stroke-opacity:1.000000" />


<text
x="410.181214"
y="175.000000"
id="cytosol"
style="font-size:6.000000px;text-anchor:middle;font-family:Arial,Helvetica;alignment-baseline:baseline;stroke.opacity:1;dominant-baseline:baseline"
fill="black"
>
cytosol</text>

NULL
NULL
NULL
NULL
NULL
NULL
NULL
NULL
NULL
NULL
NULL
NULL
NULL
NULL
NULL
NULL
NULL
NULL
NULL
NULL
NULL
NULL
NULL
NULL
NULL


<path
d="M 267.340218043278 205.5 267.340218043278 287.516666666667 272.840218043278 293.016666666667 337.773551376611 293.016666666667 343.273551376611 287.516666666667 343.273551376611 205.5 337.773551376611 200 272.840218043278 200 Z"
id="Complex_e85578a4fd27fb76ff2d7725b9dc0a31"
style="fill:white;fill-opacity:0.600000;stroke-width:1;stroke:black;stroke-opacity:1.000000"
transform = "rotate(0.000000 0.000000 0.000000)"
/>


<text
x="305.306885"
y="192.000000"
id="Complex_e85578a4fd27fb76ff2d7725b9dc0a31"
style="font-size:6.000000px;text-anchor:middle;font-family:Arial,Helvetica;alignment-baseline:baseline;stroke.opacity:1;dominant-baseline:baseline"
fill="black"
>
</text>


<path
d="M 111 563.54360594951 111 645.560272616177 116.5 651.060272616177 181.433333333333 651.060272616177 186.933333333333 645.560272616177 186.933333333333 563.54360594951 181.433333333333 558.04360594951 116.5 558.04360594951 Z"
id="Complex_29a9c4663dfda8226497bf1f75f5a413"
style="fill:white;fill-opacity:0.600000;stroke-width:1;stroke:black;stroke-opacity:1.000000"
transform = "rotate(0.000000 0.000000 0.000000)"
/>


<text
x="148.966667"
y="550.043606"
id="Complex_29a9c4663dfda8226497bf1f75f5a413"
style="font-size:6.000000px;text-anchor:middle;font-family:Arial,Helvetica;alignment-baseline:baseline;stroke.opacity:1;dominant-baseline:baseline"
fill="black"
>
Complex (ubiquitin/E1)</text>




<rect
width="58.333333"
height="33.333333"
rx="3.333333"
ry="3.333333"
x="518.891209"
y="618.591606"
id="Protein_20703f8aeb0636e123e41644988d3963"
style="fill:white;fill-opacity:1.000000;stroke:black;stroke-width:1.000000;stroke-opacity:1.000000" />


<text
x="548.057876"
y="637.258272"
id="Protein_20703f8aeb0636e123e41644988d3963"
style="font-size:6.000000px;text-anchor:middle;font-family:Arial,Helvetica;alignment-baseline:baseline;stroke.opacity:1;dominant-baseline:baseline"
fill="black"
>
E2</text>



<rect
width="58.333333"
height="33.333333"
rx="3.333333"
ry="3.333333"
x="451.291258"
y="554.097951"
id="Protein_3ada21edcfce1c356d00f470e8242a60"
style="fill:white;fill-opacity:1.000000;stroke:black;stroke-width:1.000000;stroke-opacity:1.000000" />


<text
x="480.457925"
y="572.764617"
id="Protein_3ada21edcfce1c356d00f470e8242a60"
style="font-size:6.000000px;text-anchor:middle;font-family:Arial,Helvetica;alignment-baseline:baseline;stroke.opacity:1;dominant-baseline:baseline"
fill="black"
>
E2</text>



<ellipse
rx="29.166667"
ry="16.666667"
cx="506.283394"
cy="417.339118"
id="PhysicalEntity_e7280585e88e5ea344c44a06d1602c63"
style="fill:white;fill-opacity:1.000000;stroke:black;stroke-width:1.000000;stroke-opacity:1.000000" />


<text
x="506.283394"
y="419.339118"
id="PhysicalEntity_e7280585e88e5ea344c44a06d1602c63"
style="font-size:6.000000px;text-anchor:middle;font-family:Arial,Helvetica;alignment-baseline:baseline;stroke.opacity:1;dominant-baseline:baseline"
fill="black"
>
a24_degraded</text>



<rect
width="58.333333"
height="33.333333"
rx="3.333333"
ry="3.333333"
x="453.382285"
y="473.435855"
id="Protein_364f19e92bcd134e9d99aa74119087b1"
style="fill:white;fill-opacity:1.000000;stroke:black;stroke-width:1.000000;stroke-opacity:1.000000" />


<text
x="482.548951"
y="492.102522"
id="Protein_364f19e92bcd134e9d99aa74119087b1"
style="font-size:6.000000px;text-anchor:middle;font-family:Arial,Helvetica;alignment-baseline:baseline;stroke.opacity:1;dominant-baseline:baseline"
fill="black"
>
Protein target</text>



<rect
width="58.333333"
height="33.333333"
rx="3.333333"
ry="3.333333"
x="357.240857"
y="703.766469"
id="Protein_43b219598e58b58c0c1f0650001aeb74"
style="fill:white;fill-opacity:1.000000;stroke:black;stroke-width:1.000000;stroke-opacity:1.000000" />


<text
x="386.407524"
y="722.433136"
id="Protein_43b219598e58b58c0c1f0650001aeb74"
style="font-size:6.000000px;text-anchor:middle;font-family:Arial,Helvetica;alignment-baseline:baseline;stroke.opacity:1;dominant-baseline:baseline"
fill="black"
>
E1</text>



<ellipse
rx="16.666667"
ry="16.666667"
cx="321.581219"
cy="441.152615"
id="SmallMolecule_e6588e2cbab3ca6df310830aa125add4"
style="fill:white;fill-opacity:0.000000;stroke:black;stroke-width:1.000000;stroke-opacity:1.000000" />


<text
x="321.581219"
y="443.152615"
id="SmallMolecule_e6588e2cbab3ca6df310830aa125add4"
style="font-size:6.000000px;text-anchor:middle;font-family:Arial,Helvetica;alignment-baseline:baseline;stroke.opacity:1;dominant-baseline:baseline"
fill="black"
>
ubiquitin</text>



<ellipse
rx="16.666667"
ry="16.666667"
cx="459.489061"
cy="341.686289"
id="SmallMolecule_a76d15fbd1091924cc282d744850a1ce"
style="fill:white;fill-opacity:0.000000;stroke:black;stroke-width:1.000000;stroke-opacity:1.000000" />


<text
x="459.489061"
y="343.686289"
id="SmallMolecule_a76d15fbd1091924cc282d744850a1ce"
style="font-size:6.000000px;text-anchor:middle;font-family:Arial,Helvetica;alignment-baseline:baseline;stroke.opacity:1;dominant-baseline:baseline"
fill="black"
>
ADP</text>



<ellipse
rx="16.666667"
ry="16.666667"
cx="364.271837"
cy="357.644854"
id="SmallMolecule_20de5e5d6b2bd5ad306a6dc878702c59"
style="fill:white;fill-opacity:0.000000;stroke:black;stroke-width:1.000000;stroke-opacity:1.000000" />


<text
x="364.271837"
y="359.644854"
id="SmallMolecule_20de5e5d6b2bd5ad306a6dc878702c59"
style="font-size:6.000000px;text-anchor:middle;font-family:Arial,Helvetica;alignment-baseline:baseline;stroke.opacity:1;dominant-baseline:baseline"
fill="black"
>
Pi</text>



<rect
width="58.333333"
height="33.333333"
rx="3.333333"
ry="3.333333"
x="651.029095"
y="569.299697"
id="Protein_3078993c09e3acf5804460cd48bfed54"
style="fill:white;fill-opacity:1.000000;stroke:black;stroke-width:1.000000;stroke-opacity:1.000000" />


<text
x="680.195762"
y="587.966364"
id="Protein_3078993c09e3acf5804460cd48bfed54"
style="font-size:6.000000px;text-anchor:middle;font-family:Arial,Helvetica;alignment-baseline:baseline;stroke.opacity:1;dominant-baseline:baseline"
fill="black"
>
Protein target</text>



<rect
width="58.333333"
height="33.333333"
rx="3.333333"
ry="3.333333"
x="276.140218"
y="208.800000"
id="Protein_be6d3e13a454331ae82d74c1c408122b_Complex_e85578a4fd27fb76ff2d7725b9dc0a31"
style="fill:white;fill-opacity:1.000000;stroke:black;stroke-width:1.000000;stroke-opacity:1.000000" />


<text
x="305.306885"
y="227.466667"
id="Protein_be6d3e13a454331ae82d74c1c408122b_Complex_e85578a4fd27fb76ff2d7725b9dc0a31"
style="font-size:6.000000px;text-anchor:middle;font-family:Arial,Helvetica;alignment-baseline:baseline;stroke.opacity:1;dominant-baseline:baseline"
fill="black"
>
26S proteasome</text>



<rect
width="58.333333"
height="33.333333"
rx="3.333333"
ry="3.333333"
x="276.140218"
y="250.883333"
id="Protein_7034520b3a2ea218dc8af417b93995ce_Complex_e85578a4fd27fb76ff2d7725b9dc0a31"
style="fill:white;fill-opacity:1.000000;stroke:black;stroke-width:1.000000;stroke-opacity:1.000000" />


<text
x="305.306885"
y="269.550000"
id="Protein_7034520b3a2ea218dc8af417b93995ce_Complex_e85578a4fd27fb76ff2d7725b9dc0a31"
style="font-size:6.000000px;text-anchor:middle;font-family:Arial,Helvetica;alignment-baseline:baseline;stroke.opacity:1;dominant-baseline:baseline"
fill="black"
>
19S proteasome</text>



<ellipse
rx="16.666667"
ry="16.666667"
cx="241.301561"
cy="456.905172"
id="SmallMolecule_9595926d17a8f95cc48c8a41cfa26c1a"
style="fill:white;fill-opacity:0.000000;stroke:black;stroke-width:1.000000;stroke-opacity:1.000000" />


<text
x="241.301561"
y="458.905172"
id="SmallMolecule_9595926d17a8f95cc48c8a41cfa26c1a"
style="font-size:6.000000px;text-anchor:middle;font-family:Arial,Helvetica;alignment-baseline:baseline;stroke.opacity:1;dominant-baseline:baseline"
fill="black"
>
PPi</text>



<rect
width="58.333333"
height="33.333333"
rx="3.333333"
ry="3.333333"
x="318.146388"
y="589.361521"
id="Protein_9d6961136ede23ff0b78dd0dae589ac2"
style="fill:white;fill-opacity:1.000000;stroke:black;stroke-width:1.000000;stroke-opacity:1.000000" />


<text
x="347.313055"
y="608.028188"
id="Protein_9d6961136ede23ff0b78dd0dae589ac2"
style="font-size:6.000000px;text-anchor:middle;font-family:Arial,Helvetica;alignment-baseline:baseline;stroke.opacity:1;dominant-baseline:baseline"
fill="black"
>
E1</text>



<ellipse
rx="16.666667"
ry="16.666667"
cx="384.008853"
cy="502.440110"
id="SmallMolecule_c06006b95f84cab52e8e1ff7f7331b88"
style="fill:white;fill-opacity:0.000000;stroke:black;stroke-width:1.000000;stroke-opacity:1.000000" />


<text
x="384.008853"
y="504.440110"
id="SmallMolecule_c06006b95f84cab52e8e1ff7f7331b88"
style="font-size:6.000000px;text-anchor:middle;font-family:Arial,Helvetica;alignment-baseline:baseline;stroke.opacity:1;dominant-baseline:baseline"
fill="black"
>
ATP</text>



<ellipse
rx="16.666667"
ry="16.666667"
cx="136.466667"
cy="625.593606"
id="SmallMolecule_e74268a7e0fe206346b89f9a5232321f_Complex_29a9c4663dfda8226497bf1f75f5a413"
style="fill:white;fill-opacity:0.000000;stroke:black;stroke-width:1.000000;stroke-opacity:1.000000" />


<text
x="136.466667"
y="627.593606"
id="SmallMolecule_e74268a7e0fe206346b89f9a5232321f_Complex_29a9c4663dfda8226497bf1f75f5a413"
style="font-size:6.000000px;text-anchor:middle;font-family:Arial,Helvetica;alignment-baseline:baseline;stroke.opacity:1;dominant-baseline:baseline"
fill="black"
>
ubiquitin</text>



<rect
width="58.333333"
height="33.333333"
rx="3.333333"
ry="3.333333"
x="119.800000"
y="566.843606"
id="Protein_4b54c01cd96d527e369d3d120d5e1a0f_Complex_29a9c4663dfda8226497bf1f75f5a413"
style="fill:white;fill-opacity:1.000000;stroke:black;stroke-width:1.000000;stroke-opacity:1.000000" />


<text
x="148.966667"
y="585.510273"
id="Protein_4b54c01cd96d527e369d3d120d5e1a0f_Complex_29a9c4663dfda8226497bf1f75f5a413"
style="font-size:6.000000px;text-anchor:middle;font-family:Arial,Helvetica;alignment-baseline:baseline;stroke.opacity:1;dominant-baseline:baseline"
fill="black"
>
E1</text>



<ellipse
rx="16.666667"
ry="16.666667"
cx="285.129303"
cy="810.249282"
id="SmallMolecule_c727e3131394e5436d9e75a1ca3f9cd5"
style="fill:white;fill-opacity:0.000000;stroke:black;stroke-width:1.000000;stroke-opacity:1.000000" />


<text
x="285.129303"
y="812.249282"
id="SmallMolecule_c727e3131394e5436d9e75a1ca3f9cd5"
style="font-size:6.000000px;text-anchor:middle;font-family:Arial,Helvetica;alignment-baseline:baseline;stroke.opacity:1;dominant-baseline:baseline"
fill="black"
>
AMP</text>



<rect
width="58.333333"
height="33.333333"
rx="3.333333"
ry="3.333333"
x="603.578924"
y="454.787395"
id="Protein_b95f922c8cb2623dfb79c7df029c43f2"
style="fill:white;fill-opacity:1.000000;stroke:black;stroke-width:1.000000;stroke-opacity:1.000000" />


<text
x="632.745591"
y="473.454062"
id="Protein_b95f922c8cb2623dfb79c7df029c43f2"
style="font-size:6.000000px;text-anchor:middle;font-family:Arial,Helvetica;alignment-baseline:baseline;stroke.opacity:1;dominant-baseline:baseline"
fill="black"
>
E3</text>


<rect
width="16.666667"
height="16.666667"
rx="0.000000"
ry="0.000000"
x="294.684802"
y="521.662488"
id="BiochemicalReaction_34bea07bdcf0e079e40b4a7c3b49d198_LEFT_TO_RIGHT"
style="fill:white;fill-opacity:0.600000;stroke:black;stroke-width:1.000000;stroke-opacity:1.000000" />



<rect
width="16.666667"
height="16.666667"
rx="0.000000"
ry="0.000000"
x="283.057818"
y="720.022176"
id="BiochemicalReaction_1df125378b594a49e0065ddf1db1c143_LEFT_TO_RIGHT"
style="fill:white;fill-opacity:0.600000;stroke:black;stroke-width:1.000000;stroke-opacity:1.000000" />



<rect
width="16.666667"
height="16.666667"
rx="0.000000"
ry="0.000000"
x="574.629724"
y="542.337440"
id="BiochemicalReaction_183dd846e56d5dc93d110b4e04f59015_LEFT_TO_RIGHT"
style="fill:white;fill-opacity:0.600000;stroke:black;stroke-width:1.000000;stroke-opacity:1.000000" />



<rect
width="16.666667"
height="16.666667"
rx="0.000000"
ry="0.000000"
x="440.572088"
y="641.359935"
id="BiochemicalReaction_40749a45ec7c738cd1682ff0cbc97178_LEFT_TO_RIGHT"
style="fill:white;fill-opacity:0.600000;stroke:black;stroke-width:1.000000;stroke-opacity:1.000000" />



<rect
width="16.666667"
height="16.666667"
rx="0.000000"
ry="0.000000"
x="401.278767"
y="408.180260"
id="BiochemicalReaction_ec134d5a214e3c48533ab30517fe4978_LEFT_TO_RIGHT"
style="fill:white;fill-opacity:0.600000;stroke:black;stroke-width:1.000000;stroke-opacity:1.000000" />





<path d="M448.000000 358.000000 C 438.000000 373.000000, 423.000000 395.000000,415.000000 407.000000" stroke="black"  fill="transparent"/>

<line
x1="423" y1="395" x2="415" y2="407"
id="0"
style="stroke:black;stroke-width:1.000000;stroke-opacity:0" />


<line
x1="438" y1="373" x2="448" y2="358"
id="BiochemicalReaction_ec134d5a214e3c48533ab30517fe4978_LEFT_TO_RIGHT-output--to--SmallMolecule_a76d15fbd1091924cc282d744850a1ce"
style="stroke:black;stroke-width:1.000000;stroke-opacity:0" />


<polygon
points = "448,358 439.2,353.6 439.2,362.4"
id="line"
style="fill:black; stroke:#000000; stroke-width:1"
transform = "rotate(-56.309932 448.000000 358.000000)"
/>


<path d="M343.000000 283.000000 C 357.000000 299.000000, 373.000000 318.000000,383.000000 337.000000" stroke="black"  fill="transparent"/>
<path d="M383.000000 337.000000 C 397.000000 361.000000, 404.000000 392.000000,407.000000 407.000000" stroke="black"  fill="transparent"/>

<line
x1="357" y1="299" x2="343" y2="283"
id="0"
style="stroke:black;stroke-width:1.000000;stroke-opacity:0" />


<line
x1="404" y1="392" x2="407" y2="407"
id="Complex_e85578a4fd27fb76ff2d7725b9dc0a31--to--BiochemicalReaction_ec134d5a214e3c48533ab30517fe4978_LEFT_TO_RIGHT"
style="stroke:black;stroke-width:1.000000;stroke-opacity:0" />


<ellipse
rx="4.400000"
ry="4.400000"
cx="406.137089"
cy="402.685445"
id="Complex_e85578a4fd27fb76ff2d7725b9dc0a31--to--BiochemicalReaction_ec134d5a214e3c48533ab30517fe4978_LEFT_TO_RIGHT"
style="fill:white;fill-opacity:0.800000;stroke:black;stroke-width:1.000000;stroke-opacity:1.000000" />


<path d="M473.000000 587.000000 C 467.000000 603.000000, 457.000000 627.000000,452.000000 640.000000" stroke="black"  fill="transparent"/>

<line
x1="457" y1="627" x2="452" y2="640"
id="0"
style="stroke:black;stroke-width:1.000000;stroke-opacity:0" />


<line
x1="467" y1="603" x2="473" y2="587"
id="BiochemicalReaction_40749a45ec7c738cd1682ff0cbc97178_LEFT_TO_RIGHT-output--to--Protein_3ada21edcfce1c356d00f470e8242a60"
style="stroke:black;stroke-width:1.000000;stroke-opacity:0" />


<polygon
points = "473,587 464.2,582.6 464.2,591.4"
id="line"
style="fill:black; stroke:#000000; stroke-width:1"
transform = "rotate(-69.443955 473.000000 587.000000)"
/>


<path d="M465.000000 473.000000 C 451.000000 458.000000, 429.000000 436.000000,417.000000 424.000000" stroke="black"  fill="transparent"/>

<line
x1="451" y1="458" x2="465" y2="473"
id="0"
style="stroke:black;stroke-width:1.000000;stroke-opacity:0" />


<line
x1="429" y1="436" x2="417" y2="424"
id="Protein_364f19e92bcd134e9d99aa74119087b1--to--BiochemicalReaction_ec134d5a214e3c48533ab30517fe4978_LEFT_TO_RIGHT-input"
style="stroke:black;stroke-width:1.000000;stroke-opacity:0" />


<path d="M357.000000 722.000000 C 337.000000 724.000000, 313.000000 726.000000,300.000000 727.000000" stroke="black"  fill="transparent"/>

<line
x1="313" y1="726" x2="300" y2="727"
id="0"
style="stroke:black;stroke-width:1.000000;stroke-opacity:0" />


<line
x1="337" y1="724" x2="357" y2="722"
id="BiochemicalReaction_1df125378b594a49e0065ddf1db1c143_LEFT_TO_RIGHT-output--to--Protein_43b219598e58b58c0c1f0650001aeb74"
style="stroke:black;stroke-width:1.000000;stroke-opacity:0" />


<polygon
points = "357,722 348.2,717.6 348.2,726.4"
id="line"
style="fill:black; stroke:#000000; stroke-width:1"
transform = "rotate(-5.710593 357.000000 722.000000)"
/>


<path d="M509.000000 506.000000 C 531.000000 519.000000, 560.000000 537.000000,574.000000 545.000000" stroke="black"  fill="transparent"/>

<line
x1="560" y1="537" x2="574" y2="545"
id="0"
style="stroke:black;stroke-width:1.000000;stroke-opacity:0" />


<line
x1="531" y1="519" x2="509" y2="506"
id="BiochemicalReaction_183dd846e56d5dc93d110b4e04f59015_LEFT_TO_RIGHT-output--to--Protein_364f19e92bcd134e9d99aa74119087b1"
style="stroke:black;stroke-width:1.000000;stroke-opacity:0" />


<polygon
points = "509,506 500.2,501.6 500.2,510.4"
id="line"
style="fill:black; stroke:#000000; stroke-width:1"
transform = "rotate(210.579227 509.000000 506.000000)"
/>


<path d="M477.000000 417.000000 C 457.000000 416.000000, 431.000000 416.000000,418.000000 416.000000" stroke="black"  fill="transparent"/>

<line
x1="431" y1="416" x2="418" y2="416"
id="0"
style="stroke:black;stroke-width:1.000000;stroke-opacity:0" />


<line
x1="457" y1="416" x2="477" y2="417"
id="BiochemicalReaction_ec134d5a214e3c48533ab30517fe4978_LEFT_TO_RIGHT-output--to--PhysicalEntity_e7280585e88e5ea344c44a06d1602c63"
style="stroke:black;stroke-width:1.000000;stroke-opacity:0" />


<polygon
points = "477,417 468.2,412.6 468.2,421.4"
id="line"
style="fill:black; stroke:#000000; stroke-width:1"
transform = "rotate(2.862405 477.000000 417.000000)"
/>


<path d="M367.000000 508.000000 C 350.000000 513.000000, 324.000000 522.000000,311.000000 527.000000" stroke="black"  fill="transparent"/>

<line
x1="350" y1="513" x2="367" y2="508"
id="0"
style="stroke:black;stroke-width:1.000000;stroke-opacity:0" />


<line
x1="324" y1="522" x2="311" y2="527"
id="SmallMolecule_c06006b95f84cab52e8e1ff7f7331b88--to--BiochemicalReaction_34bea07bdcf0e079e40b4a7c3b49d198_LEFT_TO_RIGHT-input"
style="stroke:black;stroke-width:1.000000;stroke-opacity:0" />


<path d="M337.000000 589.000000 C 328.000000 573.000000, 315.000000 551.000000,308.000000 538.000000" stroke="black"  fill="transparent"/>

<line
x1="328" y1="573" x2="337" y2="589"
id="0"
style="stroke:black;stroke-width:1.000000;stroke-opacity:0" />


<line
x1="315" y1="551" x2="308" y2="538"
id="Protein_9d6961136ede23ff0b78dd0dae589ac2--to--BiochemicalReaction_34bea07bdcf0e079e40b4a7c3b49d198_LEFT_TO_RIGHT-input"
style="stroke:black;stroke-width:1.000000;stroke-opacity:0" />


<path d="M554.000000 618.000000 C 562.000000 600.000000, 573.000000 573.000000,579.000000 559.000000" stroke="black"  fill="transparent"/>

<line
x1="573" y1="573" x2="579" y2="559"
id="0"
style="stroke:black;stroke-width:1.000000;stroke-opacity:0" />


<line
x1="562" y1="600" x2="554" y2="618"
id="BiochemicalReaction_183dd846e56d5dc93d110b4e04f59015_LEFT_TO_RIGHT-output--to--Protein_20703f8aeb0636e123e41644988d3963"
style="stroke:black;stroke-width:1.000000;stroke-opacity:0" />


<polygon
points = "554,618 545.2,613.6 545.2,622.4"
id="line"
style="fill:black; stroke:#000000; stroke-width:1"
transform = "rotate(113.962489 554.000000 618.000000)"
/>


<path d="M187.000000 637.000000 C 219.000000 666.000000, 264.000000 705.000000,283.000000 721.000000" stroke="black"  fill="transparent"/>

<line
x1="219" y1="666" x2="187" y2="637"
id="0"
style="stroke:black;stroke-width:1.000000;stroke-opacity:0" />


<line
x1="264" y1="705" x2="283" y2="721"
id="Complex_29a9c4663dfda8226497bf1f75f5a413--to--BiochemicalReaction_1df125378b594a49e0065ddf1db1c143_LEFT_TO_RIGHT-input"
style="stroke:black;stroke-width:1.000000;stroke-opacity:0" />


<path d="M318.000000 457.000000 C 314.000000 476.000000, 307.000000 506.000000,304.000000 521.000000" stroke="black"  fill="transparent"/>

<line
x1="314" y1="476" x2="318" y2="457"
id="0"
style="stroke:black;stroke-width:1.000000;stroke-opacity:0" />


<line
x1="307" y1="506" x2="304" y2="521"
id="SmallMolecule_e6588e2cbab3ca6df310830aa125add4--to--BiochemicalReaction_34bea07bdcf0e079e40b4a7c3b49d198_LEFT_TO_RIGHT-input"
style="stroke:black;stroke-width:1.000000;stroke-opacity:0" />


<path d="M286.000000 793.000000 C 287.000000 776.000000, 289.000000 750.000000,290.000000 736.000000" stroke="black"  fill="transparent"/>

<line
x1="289" y1="750" x2="290" y2="736"
id="0"
style="stroke:black;stroke-width:1.000000;stroke-opacity:0" />


<line
x1="287" y1="776" x2="286" y2="793"
id="BiochemicalReaction_1df125378b594a49e0065ddf1db1c143_LEFT_TO_RIGHT-output--to--SmallMolecule_c727e3131394e5436d9e75a1ca3f9cd5"
style="stroke:black;stroke-width:1.000000;stroke-opacity:0" />


<polygon
points = "286,793 277.2,788.6 277.2,797.4"
id="line"
style="fill:black; stroke:#000000; stroke-width:1"
transform = "rotate(93.366461 286.000000 793.000000)"
/>


<path d="M651.000000 575.000000 C 630.000000 567.000000, 604.000000 558.000000,591.000000 553.000000" stroke="black"  fill="transparent"/>

<line
x1="630" y1="567" x2="651" y2="575"
id="0"
style="stroke:black;stroke-width:1.000000;stroke-opacity:0" />


<line
x1="604" y1="558" x2="591" y2="553"
id="Protein_3078993c09e3acf5804460cd48bfed54--to--BiochemicalReaction_183dd846e56d5dc93d110b4e04f59015_LEFT_TO_RIGHT-input"
style="stroke:black;stroke-width:1.000000;stroke-opacity:0" />


<path d="M622.000000 488.000000 C 611.000000 504.000000, 596.000000 528.000000,588.000000 541.000000" stroke="black"  fill="transparent"/>

<line
x1="611" y1="504" x2="622" y2="488"
id="0"
style="stroke:black;stroke-width:1.000000;stroke-opacity:0" />


<line
x1="596" y1="528" x2="588" y2="541"
id="Protein_b95f922c8cb2623dfb79c7df029c43f2--to--BiochemicalReaction_183dd846e56d5dc93d110b4e04f59015_LEFT_TO_RIGHT"
style="stroke:black;stroke-width:1.000000;stroke-opacity:0" />


<ellipse
rx="4.400000"
ry="4.400000"
cx="590.306029"
cy="537.252703"
id="Protein_b95f922c8cb2623dfb79c7df029c43f2--to--BiochemicalReaction_183dd846e56d5dc93d110b4e04f59015_LEFT_TO_RIGHT"
style="fill:white;fill-opacity:0.800000;stroke:black;stroke-width:1.000000;stroke-opacity:1.000000" />


<path d="M375.000000 618.000000 C 397.000000 627.000000, 426.000000 640.000000,440.000000 646.000000" stroke="black"  fill="transparent"/>

<line
x1="426" y1="640" x2="440" y2="646"
id="0"
style="stroke:black;stroke-width:1.000000;stroke-opacity:0" />


<line
x1="397" y1="627" x2="375" y2="618"
id="BiochemicalReaction_40749a45ec7c738cd1682ff0cbc97178_LEFT_TO_RIGHT-output--to--Protein_9d6961136ede23ff0b78dd0dae589ac2"
style="stroke:black;stroke-width:1.000000;stroke-opacity:0" />


<polygon
points = "375,618 366.2,613.6 366.2,622.4"
id="line"
style="fill:black; stroke:#000000; stroke-width:1"
transform = "rotate(202.249024 375.000000 618.000000)"
/>


<path d="M255.000000 473.000000 C 267.000000 488.000000, 285.000000 509.000000,295.000000 521.000000" stroke="black"  fill="transparent"/>

<line
x1="285" y1="509" x2="295" y2="521"
id="0"
style="stroke:black;stroke-width:1.000000;stroke-opacity:0" />


<line
x1="267" y1="488" x2="255" y2="473"
id="BiochemicalReaction_34bea07bdcf0e079e40b4a7c3b49d198_LEFT_TO_RIGHT-output--to--SmallMolecule_9595926d17a8f95cc48c8a41cfa26c1a"
style="stroke:black;stroke-width:1.000000;stroke-opacity:0" />


<polygon
points = "255,473 246.2,468.6 246.2,477.4"
id="line"
style="fill:black; stroke:#000000; stroke-width:1"
transform = "rotate(231.340192 255.000000 473.000000)"
/>


<path d="M388.000000 485.000000 C 394.000000 467.000000, 402.000000 439.000000,407.000000 425.000000" stroke="black"  fill="transparent"/>

<line
x1="394" y1="467" x2="388" y2="485"
id="0"
style="stroke:black;stroke-width:1.000000;stroke-opacity:0" />


<line
x1="402" y1="439" x2="407" y2="425"
id="SmallMolecule_c06006b95f84cab52e8e1ff7f7331b88--to--BiochemicalReaction_ec134d5a214e3c48533ab30517fe4978_LEFT_TO_RIGHT-input"
style="stroke:black;stroke-width:1.000000;stroke-opacity:0" />


<path d="M187.000000 586.000000 C 223.000000 568.000000, 274.000000 543.000000,294.000000 534.000000" stroke="black"  fill="transparent"/>

<line
x1="274" y1="543" x2="294" y2="534"
id="0"
style="stroke:black;stroke-width:1.000000;stroke-opacity:0" />


<line
x1="223" y1="568" x2="187" y2="586"
id="BiochemicalReaction_34bea07bdcf0e079e40b4a7c3b49d198_LEFT_TO_RIGHT-output--to--Complex_29a9c4663dfda8226497bf1f75f5a413"
style="stroke:black;stroke-width:1.000000;stroke-opacity:0" />


<polygon
points = "187,586 178.2,581.6 178.2,590.4"
id="line"
style="fill:black; stroke:#000000; stroke-width:1"
transform = "rotate(153.434949 187.000000 586.000000)"
/>


<path d="M401.000000 703.000000 C 413.000000 689.000000, 431.000000 669.000000,441.000000 658.000000" stroke="black"  fill="transparent"/>

<line
x1="413" y1="689" x2="401" y2="703"
id="0"
style="stroke:black;stroke-width:1.000000;stroke-opacity:0" />


<line
x1="431" y1="669" x2="441" y2="658"
id="Protein_43b219598e58b58c0c1f0650001aeb74--to--BiochemicalReaction_40749a45ec7c738cd1682ff0cbc97178_LEFT_TO_RIGHT-input"
style="stroke:black;stroke-width:1.000000;stroke-opacity:0" />


<path d="M338.000000 436.000000 C 356.000000 431.000000, 386.000000 422.000000,401.000000 418.000000" stroke="black"  fill="transparent"/>

<line
x1="386" y1="422" x2="401" y2="418"
id="0"
style="stroke:black;stroke-width:1.000000;stroke-opacity:0" />


<line
x1="356" y1="431" x2="338" y2="436"
id="BiochemicalReaction_ec134d5a214e3c48533ab30517fe4978_LEFT_TO_RIGHT-output--to--SmallMolecule_e6588e2cbab3ca6df310830aa125add4"
style="stroke:black;stroke-width:1.000000;stroke-opacity:0" />


<polygon
points = "338,436 329.2,431.6 329.2,440.4"
id="line"
style="fill:black; stroke:#000000; stroke-width:1"
transform = "rotate(164.475889 338.000000 436.000000)"
/>


<path d="M377.000000 374.000000 C 385.000000 385.000000, 396.000000 398.000000,402.000000 407.000000" stroke="black"  fill="transparent"/>

<line
x1="396" y1="398" x2="402" y2="407"
id="0"
style="stroke:black;stroke-width:1.000000;stroke-opacity:0" />


<line
x1="385" y1="385" x2="377" y2="374"
id="BiochemicalReaction_ec134d5a214e3c48533ab30517fe4978_LEFT_TO_RIGHT-output--to--SmallMolecule_20de5e5d6b2bd5ad306a6dc878702c59"
style="stroke:black;stroke-width:1.000000;stroke-opacity:0" />


<polygon
points = "377,374 368.2,369.6 368.2,378.4"
id="line"
style="fill:black; stroke:#000000; stroke-width:1"
transform = "rotate(233.972627 377.000000 374.000000)"
/>


<path d="M519.000000 639.000000 C 498.000000 642.000000, 471.000000 646.000000,457.000000 648.000000" stroke="black"  fill="transparent"/>

<line
x1="498" y1="642" x2="519" y2="639"
id="0"
style="stroke:black;stroke-width:1.000000;stroke-opacity:0" />


<line
x1="471" y1="646" x2="457" y2="648"
id="Protein_20703f8aeb0636e123e41644988d3963--to--BiochemicalReaction_40749a45ec7c738cd1682ff0cbc97178_LEFT_TO_RIGHT-input"
style="stroke:black;stroke-width:1.000000;stroke-opacity:0" />


<path d="M509.000000 565.000000 C 531.000000 560.000000, 560.000000 555.000000,574.000000 552.000000" stroke="black"  fill="transparent"/>

<line
x1="531" y1="560" x2="509" y2="565"
id="0"
style="stroke:black;stroke-width:1.000000;stroke-opacity:0" />


<line
x1="560" y1="555" x2="574" y2="552"
id="Protein_3ada21edcfce1c356d00f470e8242a60--to--BiochemicalReaction_183dd846e56d5dc93d110b4e04f59015_LEFT_TO_RIGHT-input"
style="stroke:black;stroke-width:1.000000;stroke-opacity:0" />



</svg>
