<?xml version="1.0" encoding="UTF-8"?>
<svg width="1081.905709" height="850.172307"
xmlns="http://www.w3.org/2000/svg" xmlns:svg="http://www.w3.org/2000/svg"
>
<metadata id="metadata7">image/svg+xml</metadata>




<rect
width="16.666667"
height="16.666667"
rx="0.000000"
ry="0.000000"
x="305.896994"
y="539.566189"
id="BiochemicalReaction_15ae7bf1efb440953b0fb976a9924643_LEFT_TO_RIGHT"
style="fill:white;fill-opacity:0.600000;stroke:black;stroke-width:1.000000;stroke-opacity:1.000000" />



<rect
width="16.666667"
height="16.666667"
rx="0.000000"
ry="0.000000"
x="192.897322"
y="428.176471"
id="BiochemicalReaction_b6f30fbf390add88184b86274317da26_LEFT_TO_RIGHT"
style="fill:white;fill-opacity:0.600000;stroke:black;stroke-width:1.000000;stroke-opacity:1.000000" />




<ellipse
rx="16.666667"
ry="16.666667"
cx="384.086554"
cy="313.545942"
id="SmallMolecule_f3e56897ebd2bdc192c1ef1bec941011"
style="fill:white;fill-opacity:0.000000;stroke:black;stroke-width:1.000000;stroke-opacity:1.000000" />


<text
x="384.086554"
y="315.545942"
id="SmallMolecule_f3e56897ebd2bdc192c1ef1bec941011"
style="font-size:6.000000px;text-anchor:middle;font-family:Arial,Helvetica;alignment-baseline:baseline;stroke.opacity:1;dominant-baseline:baseline"
fill="black"
>
H2O + H+</text>


<rect
width="16.666667"
height="16.666667"
rx="0.000000"
ry="0.000000"
x="390.662660"
y="394.579386"
id="BiochemicalReaction_d0b9155ad0d182ab71662daf76acd5a6_LEFT_TO_RIGHT"
style="fill:white;fill-opacity:0.600000;stroke:black;stroke-width:1.000000;stroke-opacity:1.000000" />




<ellipse
rx="16.666667"
ry="16.666667"
cx="474.506106"
cy="457.645321"
id="SmallMolecule_04cc0a63aa3ad2c546360ff3020124c1"
style="fill:white;fill-opacity:0.000000;stroke:black;stroke-width:1.000000;stroke-opacity:1.000000" />


<text
x="474.506106"
y="459.645321"
id="SmallMolecule_04cc0a63aa3ad2c546360ff3020124c1"
style="font-size:6.000000px;text-anchor:middle;font-family:Arial,Helvetica;alignment-baseline:baseline;stroke.opacity:1;dominant-baseline:baseline"
fill="black"
>
Guanine</text>


<rect
width="16.666667"
height="16.666667"
rx="0.000000"
ry="0.000000"
x="452.587272"
y="245.322070"
id="BiochemicalReaction_e8fa81155f01f72efead94e0c0bf01da_LEFT_TO_RIGHT"
style="fill:white;fill-opacity:0.600000;stroke:black;stroke-width:1.000000;stroke-opacity:1.000000" />




<ellipse
rx="16.666667"
ry="16.666667"
cx="228.626395"
cy="521.201006"
id="SmallMolecule_62bc12dba96aaf7f8ce4944b1ca2e2f0"
style="fill:white;fill-opacity:0.000000;stroke:black;stroke-width:1.000000;stroke-opacity:1.000000" />


<text
x="228.626395"
y="523.201006"
id="SmallMolecule_62bc12dba96aaf7f8ce4944b1ca2e2f0"
style="font-size:6.000000px;text-anchor:middle;font-family:Arial,Helvetica;alignment-baseline:baseline;stroke.opacity:1;dominant-baseline:baseline"
fill="black"
>
Urate</text>



<ellipse
rx="16.666667"
ry="16.666667"
cx="272.529319"
cy="616.194374"
id="SmallMolecule_552e090c09cb7e4fc0e0306b2ed4d7fc"
style="fill:white;fill-opacity:0.000000;stroke:black;stroke-width:1.000000;stroke-opacity:1.000000" />


<text
x="272.529319"
y="618.194374"
id="SmallMolecule_552e090c09cb7e4fc0e0306b2ed4d7fc"
style="font-size:6.000000px;text-anchor:middle;font-family:Arial,Helvetica;alignment-baseline:baseline;stroke.opacity:1;dominant-baseline:baseline"
fill="black"
>
2H+ + O2 -</text>



<ellipse
rx="16.666667"
ry="16.666667"
cx="206.182988"
cy="348.523732"
id="SmallMolecule_758e125e32486223dc900b6bfeec5675"
style="fill:white;fill-opacity:0.000000;stroke:black;stroke-width:1.000000;stroke-opacity:1.000000" />


<text
x="206.182988"
y="350.523732"
id="SmallMolecule_758e125e32486223dc900b6bfeec5675"
style="font-size:6.000000px;text-anchor:middle;font-family:Arial,Helvetica;alignment-baseline:baseline;stroke.opacity:1;dominant-baseline:baseline"
fill="black"
>
CO2</text>



<ellipse
rx="16.666667"
ry="16.666667"
cx="128.717999"
cy="486.178329"
id="SmallMolecule_750ef6ee98604daab9024a139c74521a"
style="fill:white;fill-opacity:0.000000;stroke:black;stroke-width:1.000000;stroke-opacity:1.000000" />


<text
x="128.717999"
y="488.178329"
id="SmallMolecule_750ef6ee98604daab9024a139c74521a"
style="font-size:6.000000px;text-anchor:middle;font-family:Arial,Helvetica;alignment-baseline:baseline;stroke.opacity:1;dominant-baseline:baseline"
fill="black"
>
allantoin</text>



<ellipse
rx="16.666667"
ry="16.666667"
cx="463.378121"
cy="333.554552"
id="SmallMolecule_ef8ed134df5e46acc4d928827e4e02bd"
style="fill:white;fill-opacity:0.000000;stroke:black;stroke-width:1.000000;stroke-opacity:1.000000" />


<text
x="463.378121"
y="335.554552"
id="SmallMolecule_ef8ed134df5e46acc4d928827e4e02bd"
style="font-size:6.000000px;text-anchor:middle;font-family:Arial,Helvetica;alignment-baseline:baseline;stroke.opacity:1;dominant-baseline:baseline"
fill="black"
>
NH4 +</text>



<ellipse
rx="16.666667"
ry="16.666667"
cx="445.558373"
cy="552.797405"
id="SmallMolecule_63f89358fe3879ac43e6aaa69a095be9"
style="fill:white;fill-opacity:0.000000;stroke:black;stroke-width:1.000000;stroke-opacity:1.000000" />


<text
x="445.558373"
y="554.797405"
id="SmallMolecule_63f89358fe3879ac43e6aaa69a095be9"
style="font-size:6.000000px;text-anchor:middle;font-family:Arial,Helvetica;alignment-baseline:baseline;stroke.opacity:1;dominant-baseline:baseline"
fill="black"
>
hypoxanthine</text>



<ellipse
rx="16.666667"
ry="16.666667"
cx="534.235975"
cy="207.339019"
id="SmallMolecule_ffac04d5ccc3af6b1569f1fb5f38bef3"
style="fill:white;fill-opacity:0.000000;stroke:black;stroke-width:1.000000;stroke-opacity:1.000000" />


<text
x="534.235975"
y="209.339019"
id="SmallMolecule_ffac04d5ccc3af6b1569f1fb5f38bef3"
style="font-size:6.000000px;text-anchor:middle;font-family:Arial,Helvetica;alignment-baseline:baseline;stroke.opacity:1;dominant-baseline:baseline"
fill="black"
>
AMP</text>


<rect
width="16.666667"
height="16.666667"
rx="0.000000"
ry="0.000000"
x="350.845599"
y="550.507500"
id="BiochemicalReaction_fbd2933911b1426500648b6fc9577ba9_LEFT_TO_RIGHT"
style="fill:white;fill-opacity:0.600000;stroke:black;stroke-width:1.000000;stroke-opacity:1.000000" />




<ellipse
rx="16.666667"
ry="16.666667"
cx="599.577919"
cy="438.590231"
id="SmallMolecule_f3e5ce1d1db018d4728756168c50456b"
style="fill:white;fill-opacity:0.000000;stroke:black;stroke-width:1.000000;stroke-opacity:1.000000" />


<text
x="599.577919"
y="440.590231"
id="SmallMolecule_f3e5ce1d1db018d4728756168c50456b"
style="font-size:6.000000px;text-anchor:middle;font-family:Arial,Helvetica;alignment-baseline:baseline;stroke.opacity:1;dominant-baseline:baseline"
fill="black"
>
Pi</text>



<rect
width="58.333333"
height="33.333333"
rx="3.333333"
ry="3.333333"
x="390.889840"
y="150.000000"
id="Protein_eaeab9b0828736cbdeb78a029721a104"
style="fill:white;fill-opacity:1.000000;stroke:black;stroke-width:1.000000;stroke-opacity:1.000000" />


<text
x="420.056506"
y="168.666667"
id="Protein_eaeab9b0828736cbdeb78a029721a104"
style="font-size:6.000000px;text-anchor:middle;font-family:Arial,Helvetica;alignment-baseline:baseline;stroke.opacity:1;dominant-baseline:baseline"
fill="black"
>
5'-AMP Deaminase</text>



<ellipse
rx="16.666667"
ry="16.666667"
cx="547.740397"
cy="294.885656"
id="SmallMolecule_4658aa2ff97d16b93736989801ecb032"
style="fill:white;fill-opacity:0.000000;stroke:black;stroke-width:1.000000;stroke-opacity:1.000000" />



<text
x="547.740397"
y="293.885656"
id="SmallMolecule_4658aa2ff97d16b93736989801ecb032"
style="font-size:6.000000px;text-anchor:middle;font-family:Arial,Helvetica;alignment-baseline:baseline;stroke.opacity:1;dominant-baseline:baseline"
fill="black"
>
Inosine-5'-</text>


<text
x="547.740397"
y="299.885656"
id="SmallMolecule_4658aa2ff97d16b93736989801ecb032"
style="font-size:6.000000px;text-anchor:middle;font-family:Arial,Helvetica;alignment-baseline:baseline;stroke.opacity:1;dominant-baseline:baseline"
fill="black"
>
phosphate</text>


<rect
width="16.666667"
height="16.666667"
rx="0.000000"
ry="0.000000"
x="620.981886"
y="354.542121"
id="BiochemicalReaction_ac8c7b5012f94ce67b09a26ee9e65a8a_LEFT_TO_RIGHT"
style="fill:white;fill-opacity:0.600000;stroke:black;stroke-width:1.000000;stroke-opacity:1.000000" />




<rect
width="58.333333"
height="33.333333"
rx="3.333333"
ry="3.333333"
x="693.572375"
y="296.527228"
id="Protein_f860a2da79fae638b44a902c1c4df30f"
style="fill:white;fill-opacity:1.000000;stroke:black;stroke-width:1.000000;stroke-opacity:1.000000" />


<text
x="722.739042"
y="315.193895"
id="Protein_f860a2da79fae638b44a902c1c4df30f"
style="font-size:6.000000px;text-anchor:middle;font-family:Arial,Helvetica;alignment-baseline:baseline;stroke.opacity:1;dominant-baseline:baseline"
fill="black"
>
NT5E</text>



<rect
width="58.333333"
height="33.333333"
rx="3.333333"
ry="3.333333"
x="269.789060"
y="367.760187"
id="Protein_f61b06ed01bacfc8552f4eeaa6812346"
style="fill:white;fill-opacity:1.000000;stroke:black;stroke-width:1.000000;stroke-opacity:1.000000" />


<text
x="298.955727"
y="386.426854"
id="Protein_f61b06ed01bacfc8552f4eeaa6812346"
style="font-size:6.000000px;text-anchor:middle;font-family:Arial,Helvetica;alignment-baseline:baseline;stroke.opacity:1;dominant-baseline:baseline"
fill="black"
>
GDA</text>



<rect
width="58.333333"
height="33.333333"
rx="3.333333"
ry="3.333333"
x="329.327386"
y="616.838974"
id="Protein_14169026872c3c99d177663bde83d9b7"
style="fill:white;fill-opacity:1.000000;stroke:black;stroke-width:1.000000;stroke-opacity:1.000000" />


<text
x="358.494052"
y="635.505641"
id="Protein_14169026872c3c99d177663bde83d9b7"
style="font-size:6.000000px;text-anchor:middle;font-family:Arial,Helvetica;alignment-baseline:baseline;stroke.opacity:1;dominant-baseline:baseline"
fill="black"
>
Xanthine Oxidase</text>



<ellipse
rx="16.666667"
ry="16.666667"
cx="539.168448"
cy="402.462959"
id="SmallMolecule_f5a213b30443040d296fe9c0ddb7f0a0"
style="fill:white;fill-opacity:0.000000;stroke:black;stroke-width:1.000000;stroke-opacity:1.000000" />


<text
x="539.168448"
y="404.462959"
id="SmallMolecule_f5a213b30443040d296fe9c0ddb7f0a0"
style="font-size:6.000000px;text-anchor:middle;font-family:Arial,Helvetica;alignment-baseline:baseline;stroke.opacity:1;dominant-baseline:baseline"
fill="black"
>
Inosine</text>


<rect
width="16.666667"
height="16.666667"
rx="0.000000"
ry="0.000000"
x="662.826811"
y="388.629653"
id="BiochemicalReaction_46cb7af1b4ab345596959b82394c8d83_LEFT_TO_RIGHT"
style="fill:white;fill-opacity:0.600000;stroke:black;stroke-width:1.000000;stroke-opacity:1.000000" />




<ellipse
rx="16.666667"
ry="16.666667"
cx="520.487756"
cy="586.143406"
id="SmallMolecule_27cee4d5012f3a1fdbc373a090734089"
style="fill:white;fill-opacity:0.000000;stroke:black;stroke-width:1.000000;stroke-opacity:1.000000" />



<text
x="520.487756"
y="585.143406"
id="SmallMolecule_27cee4d5012f3a1fdbc373a090734089"
style="font-size:6.000000px;text-anchor:middle;font-family:Arial,Helvetica;alignment-baseline:baseline;stroke.opacity:1;dominant-baseline:baseline"
fill="black"
>
Ribose 1-Ph-</text>


<text
x="520.487756"
y="591.143406"
id="SmallMolecule_27cee4d5012f3a1fdbc373a090734089"
style="font-size:6.000000px;text-anchor:middle;font-family:Arial,Helvetica;alignment-baseline:baseline;stroke.opacity:1;dominant-baseline:baseline"
fill="black"
>
osphate</text>



<ellipse
rx="16.666667"
ry="16.666667"
cx="116.666667"
cy="395.977798"
id="SmallMolecule_9fc7e4a656054370c58aa4dd7484b712"
style="fill:white;fill-opacity:0.000000;stroke:black;stroke-width:1.000000;stroke-opacity:1.000000" />


<text
x="116.666667"
y="397.977798"
id="SmallMolecule_9fc7e4a656054370c58aa4dd7484b712"
style="font-size:6.000000px;text-anchor:middle;font-family:Arial,Helvetica;alignment-baseline:baseline;stroke.opacity:1;dominant-baseline:baseline"
fill="black"
>
O2</text>



<ellipse
rx="16.666667"
ry="16.666667"
cx="323.565633"
cy="468.367826"
id="SmallMolecule_9492bcad93b3ed7f8316c8e263782c45"
style="fill:white;fill-opacity:0.000000;stroke:black;stroke-width:1.000000;stroke-opacity:1.000000" />


<text
x="323.565633"
y="470.367826"
id="SmallMolecule_9492bcad93b3ed7f8316c8e263782c45"
style="font-size:6.000000px;text-anchor:middle;font-family:Arial,Helvetica;alignment-baseline:baseline;stroke.opacity:1;dominant-baseline:baseline"
fill="black"
>
Xanthine</text>


<rect
width="16.666667"
height="16.666667"
rx="0.000000"
ry="0.000000"
x="519.773095"
y="494.568816"
id="BiochemicalReaction_b877d414021ca7b59da6a665ce7879bf_LEFT_TO_RIGHT"
style="fill:white;fill-opacity:0.600000;stroke:black;stroke-width:1.000000;stroke-opacity:1.000000" />




<rect
width="58.333333"
height="33.333333"
rx="3.333333"
ry="3.333333"
x="578.052969"
y="559.131028"
id="Protein_c5a468f16c7d367f08c00856a901f6d1"
style="fill:white;fill-opacity:1.000000;stroke:black;stroke-width:1.000000;stroke-opacity:1.000000" />



<text
x="607.219636"
y="574.797695"
id="Protein_c5a468f16c7d367f08c00856a901f6d1"
style="font-size:6.000000px;text-anchor:middle;font-family:Arial,Helvetica;alignment-baseline:baseline;stroke.opacity:1;dominant-baseline:baseline"
fill="black"
>
Nucleoside Phosphor-</text>


<text
x="607.219636"
y="580.797695"
id="Protein_c5a468f16c7d367f08c00856a901f6d1"
style="font-size:6.000000px;text-anchor:middle;font-family:Arial,Helvetica;alignment-baseline:baseline;stroke.opacity:1;dominant-baseline:baseline"
fill="black"
>
ylase</text>



<ellipse
rx="16.666667"
ry="16.666667"
cx="735.069312"
cy="380.719806"
id="SmallMolecule_dff7a5252e99731a889e05223bceee9f"
style="fill:white;fill-opacity:0.000000;stroke:black;stroke-width:1.000000;stroke-opacity:1.000000" />


<text
x="735.069312"
y="382.719806"
id="SmallMolecule_dff7a5252e99731a889e05223bceee9f"
style="font-size:6.000000px;text-anchor:middle;font-family:Arial,Helvetica;alignment-baseline:baseline;stroke.opacity:1;dominant-baseline:baseline"
fill="black"
>
H2O</text>



<ellipse
rx="16.666667"
ry="16.666667"
cx="642.393461"
cy="302.147472"
id="SmallMolecule_95bbe3740a74491c29736386d3e06125"
style="fill:white;fill-opacity:0.000000;stroke:black;stroke-width:1.000000;stroke-opacity:1.000000" />


<text
x="642.393461"
y="304.147472"
id="SmallMolecule_95bbe3740a74491c29736386d3e06125"
style="font-size:6.000000px;text-anchor:middle;font-family:Arial,Helvetica;alignment-baseline:baseline;stroke.opacity:1;dominant-baseline:baseline"
fill="black"
>
GMP</text>



<ellipse
rx="16.666667"
ry="16.666667"
cx="661.753743"
cy="488.032424"
id="SmallMolecule_7cb188e9752dd7c622f38963bfbcab28"
style="fill:white;fill-opacity:0.000000;stroke:black;stroke-width:1.000000;stroke-opacity:1.000000" />


<text
x="661.753743"
y="490.032424"
id="SmallMolecule_7cb188e9752dd7c622f38963bfbcab28"
style="font-size:6.000000px;text-anchor:middle;font-family:Arial,Helvetica;alignment-baseline:baseline;stroke.opacity:1;dominant-baseline:baseline"
fill="black"
>
Guanosine</text>



<ellipse
rx="16.666667"
ry="16.666667"
cx="390.476114"
cy="484.179060"
id="SmallMolecule_e4ff254d4ff968d3c35e9f06bec9e424"
style="fill:white;fill-opacity:0.000000;stroke:black;stroke-width:1.000000;stroke-opacity:1.000000" />


<text
x="390.476114"
y="486.179060"
id="SmallMolecule_e4ff254d4ff968d3c35e9f06bec9e424"
style="font-size:6.000000px;text-anchor:middle;font-family:Arial,Helvetica;alignment-baseline:baseline;stroke.opacity:1;dominant-baseline:baseline"
fill="black"
>
H2O + O2</text>


<rect
width="16.666667"
height="16.666667"
rx="0.000000"
ry="0.000000"
x="561.876456"
y="500.759392"
id="BiochemicalReaction_2f6f77f9cddb838c0f790bcdf10eddc2_LEFT_TO_RIGHT"
style="fill:white;fill-opacity:0.600000;stroke:black;stroke-width:1.000000;stroke-opacity:1.000000" />





<path d="M428.000000 553.000000 C 410.000000 555.000000, 382.000000 557.000000,367.000000 558.000000" stroke="black"  fill="transparent"/>

<line
x1="410" y1="555" x2="428" y2="553"
id="0"
style="stroke:black;stroke-width:1.000000;stroke-opacity:0" />


<line
x1="382" y1="557" x2="367" y2="558"
id="SmallMolecule_63f89358fe3879ac43e6aaa69a095be9--to--BiochemicalReaction_fbd2933911b1426500648b6fc9577ba9_LEFT_TO_RIGHT-input"
style="stroke:black;stroke-width:1.000000;stroke-opacity:0" />


<path d="M390.000000 410.000000 C 378.000000 420.000000, 355.000000 440.000000,339.000000 454.000000" stroke="black"  fill="transparent"/>

<line
x1="378" y1="420" x2="390" y2="410"
id="0"
style="stroke:black;stroke-width:1.000000;stroke-opacity:0" />


<line
x1="355" y1="440" x2="339" y2="454"
id="BiochemicalReaction_d0b9155ad0d182ab71662daf76acd5a6_LEFT_TO_RIGHT-output--to--SmallMolecule_9492bcad93b3ed7f8316c8e263782c45"
style="stroke:black;stroke-width:1.000000;stroke-opacity:0" />


<polygon
points = "339,454 330.2,449.6 330.2,458.4"
id="line"
style="fill:black; stroke:#000000; stroke-width:1"
transform = "rotate(138.814075 339.000000 454.000000)"
/>


<path d="M456.000000 244.000000 C 450.000000 230.000000, 436.000000 201.000000,427.000000 183.000000" stroke="black"  fill="transparent"/>

<line
x1="436" y1="201" x2="427" y2="183"
id="0"
style="stroke:black;stroke-width:1.000000;stroke-opacity:0" />


<line
x1="450" y1="230" x2="456" y2="244"
id="Protein_eaeab9b0828736cbdeb78a029721a104--to--BiochemicalReaction_e8fa81155f01f72efead94e0c0bf01da_LEFT_TO_RIGHT"
style="stroke:black;stroke-width:1.000000;stroke-opacity:0" />


<ellipse
rx="4.400000"
ry="4.400000"
cx="454.266755"
cy="239.955762"
id="Protein_eaeab9b0828736cbdeb78a029721a104--to--BiochemicalReaction_e8fa81155f01f72efead94e0c0bf01da_LEFT_TO_RIGHT"
style="fill:white;fill-opacity:0.800000;stroke:black;stroke-width:1.000000;stroke-opacity:1.000000" />


<path d="M637.000000 364.000000 C 654.000000 367.000000, 695.000000 374.000000,718.000000 377.000000" stroke="black"  fill="transparent"/>

<line
x1="695" y1="374" x2="718" y2="377"
id="0"
style="stroke:black;stroke-width:1.000000;stroke-opacity:0" />


<line
x1="654" y1="367" x2="637" y2="364"
id="SmallMolecule_dff7a5252e99731a889e05223bceee9f--to--BiochemicalReaction_ac8c7b5012f94ce67b09a26ee9e65a8a_LEFT_TO_RIGHT-input"
style="stroke:black;stroke-width:1.000000;stroke-opacity:0" />


<path d="M461.000000 542.000000 C 479.000000 532.000000, 505.000000 516.000000,519.000000 508.000000" stroke="black"  fill="transparent"/>

<line
x1="505" y1="516" x2="519" y2="508"
id="0"
style="stroke:black;stroke-width:1.000000;stroke-opacity:0" />


<line
x1="479" y1="532" x2="461" y2="542"
id="BiochemicalReaction_b877d414021ca7b59da6a665ce7879bf_LEFT_TO_RIGHT-output--to--SmallMolecule_63f89358fe3879ac43e6aaa69a095be9"
style="stroke:black;stroke-width:1.000000;stroke-opacity:0" />


<polygon
points = "461,542 452.2,537.6 452.2,546.4"
id="line"
style="fill:black; stroke:#000000; stroke-width:1"
transform = "rotate(150.945396 461.000000 542.000000)"
/>


<path d="M201.000000 427.000000 C 202.000000 413.000000, 204.000000 383.000000,205.000000 365.000000" stroke="black"  fill="transparent"/>

<line
x1="202" y1="413" x2="201" y2="427"
id="0"
style="stroke:black;stroke-width:1.000000;stroke-opacity:0" />


<line
x1="204" y1="383" x2="205" y2="365"
id="BiochemicalReaction_b6f30fbf390add88184b86274317da26_LEFT_TO_RIGHT-output--to--SmallMolecule_758e125e32486223dc900b6bfeec5675"
style="stroke:black;stroke-width:1.000000;stroke-opacity:0" />


<polygon
points = "205,365 196.2,360.6 196.2,369.4"
id="line"
style="fill:black; stroke:#000000; stroke-width:1"
transform = "rotate(-86.820170 205.000000 365.000000)"
/>


<path d="M407.000000 408.000000 C 419.000000 417.000000, 442.000000 434.000000,457.000000 445.000000" stroke="black"  fill="transparent"/>

<line
x1="442" y1="434" x2="457" y2="445"
id="0"
style="stroke:black;stroke-width:1.000000;stroke-opacity:0" />


<line
x1="419" y1="417" x2="407" y2="408"
id="SmallMolecule_04cc0a63aa3ad2c546360ff3020124c1--to--BiochemicalReaction_d0b9155ad0d182ab71662daf76acd5a6_LEFT_TO_RIGHT-input"
style="stroke:black;stroke-width:1.000000;stroke-opacity:0" />


<path d="M668.000000 388.000000 C 663.000000 372.000000, 653.000000 339.000000,647.000000 318.000000" stroke="black"  fill="transparent"/>

<line
x1="653" y1="339" x2="647" y2="318"
id="0"
style="stroke:black;stroke-width:1.000000;stroke-opacity:0" />


<line
x1="663" y1="372" x2="668" y2="388"
id="SmallMolecule_95bbe3740a74491c29736386d3e06125--to--BiochemicalReaction_46cb7af1b4ab345596959b82394c8d83_LEFT_TO_RIGHT-input"
style="stroke:black;stroke-width:1.000000;stroke-opacity:0" />


<path d="M390.000000 401.000000 C 376.000000 398.000000, 349.000000 393.000000,328.000000 389.000000" stroke="black"  fill="transparent"/>

<line
x1="349" y1="393" x2="328" y2="389"
id="0"
style="stroke:black;stroke-width:1.000000;stroke-opacity:0" />


<line
x1="376" y1="398" x2="390" y2="401"
id="Protein_f61b06ed01bacfc8552f4eeaa6812346--to--BiochemicalReaction_d0b9155ad0d182ab71662daf76acd5a6_LEFT_TO_RIGHT"
style="stroke:black;stroke-width:1.000000;stroke-opacity:0" />


<ellipse
rx="4.400000"
ry="4.400000"
cx="385.697669"
cy="400.078072"
id="Protein_f61b06ed01bacfc8552f4eeaa6812346--to--BiochemicalReaction_d0b9155ad0d182ab71662daf76acd5a6_LEFT_TO_RIGHT"
style="fill:white;fill-opacity:0.800000;stroke:black;stroke-width:1.000000;stroke-opacity:1.000000" />


<path d="M192.000000 432.000000 C 179.000000 425.000000, 151.000000 412.000000,133.000000 404.000000" stroke="black"  fill="transparent"/>

<line
x1="151" y1="412" x2="133" y2="404"
id="0"
style="stroke:black;stroke-width:1.000000;stroke-opacity:0" />


<line
x1="179" y1="425" x2="192" y2="432"
id="SmallMolecule_9fc7e4a656054370c58aa4dd7484b712--to--BiochemicalReaction_b6f30fbf390add88184b86274317da26_LEFT_TO_RIGHT-input"
style="stroke:black;stroke-width:1.000000;stroke-opacity:0" />


<path d="M308.000000 556.000000 C 302.000000 567.000000, 291.000000 585.000000,282.000000 599.000000" stroke="black"  fill="transparent"/>

<line
x1="302" y1="567" x2="308" y2="556"
id="0"
style="stroke:black;stroke-width:1.000000;stroke-opacity:0" />


<line
x1="291" y1="585" x2="282" y2="599"
id="BiochemicalReaction_15ae7bf1efb440953b0fb976a9924643_LEFT_TO_RIGHT-output--to--SmallMolecule_552e090c09cb7e4fc0e0306b2ed4d7fc"
style="stroke:black;stroke-width:1.000000;stroke-opacity:0" />


<polygon
points = "282,599 273.2,594.6 273.2,603.4"
id="line"
style="fill:black; stroke:#000000; stroke-width:1"
transform = "rotate(122.735226 282.000000 599.000000)"
/>


<path d="M645.000000 491.000000 C 625.000000 496.000000, 593.000000 503.000000,578.000000 507.000000" stroke="black"  fill="transparent"/>

<line
x1="625" y1="496" x2="645" y2="491"
id="0"
style="stroke:black;stroke-width:1.000000;stroke-opacity:0" />


<line
x1="593" y1="503" x2="578" y2="507"
id="SmallMolecule_7cb188e9752dd7c622f38963bfbcab28--to--BiochemicalReaction_2f6f77f9cddb838c0f790bcdf10eddc2_LEFT_TO_RIGHT-input"
style="stroke:black;stroke-width:1.000000;stroke-opacity:0" />


<path d="M204.000000 445.000000 C 208.000000 459.000000, 217.000000 486.000000,223.000000 504.000000" stroke="black"  fill="transparent"/>

<line
x1="217" y1="486" x2="223" y2="504"
id="0"
style="stroke:black;stroke-width:1.000000;stroke-opacity:0" />


<line
x1="208" y1="459" x2="204" y2="445"
id="SmallMolecule_62bc12dba96aaf7f8ce4944b1ca2e2f0--to--BiochemicalReaction_b6f30fbf390add88184b86274317da26_LEFT_TO_RIGHT-input"
style="stroke:black;stroke-width:1.000000;stroke-opacity:0" />


<path d="M469.000000 248.000000 C 481.000000 240.000000, 502.000000 227.000000,517.000000 217.000000" stroke="black"  fill="transparent"/>

<line
x1="502" y1="227" x2="517" y2="217"
id="0"
style="stroke:black;stroke-width:1.000000;stroke-opacity:0" />


<line
x1="481" y1="240" x2="469" y2="248"
id="SmallMolecule_ffac04d5ccc3af6b1569f1fb5f38bef3--to--BiochemicalReaction_e8fa81155f01f72efead94e0c0bf01da_LEFT_TO_RIGHT-input"
style="stroke:black;stroke-width:1.000000;stroke-opacity:0" />


<path d="M491.000000 465.000000 C 504.000000 472.000000, 523.000000 482.000000,539.000000 491.000000" stroke="black"  fill="transparent"/>
<path d="M539.000000 491.000000 C 547.000000 495.000000, 555.000000 500.000000,561.000000 503.000000" stroke="black"  fill="transparent"/>

<line
x1="555" y1="500" x2="561" y2="503"
id="0"
style="stroke:black;stroke-width:1.000000;stroke-opacity:0" />


<line
x1="504" y1="472" x2="491" y2="465"
id="BiochemicalReaction_2f6f77f9cddb838c0f790bcdf10eddc2_LEFT_TO_RIGHT-output--to--SmallMolecule_04cc0a63aa3ad2c546360ff3020124c1"
style="stroke:black;stroke-width:1.000000;stroke-opacity:0" />


<polygon
points = "491,465 482.2,460.6 482.2,469.4"
id="line"
style="fill:black; stroke:#000000; stroke-width:1"
transform = "rotate(208.300756 491.000000 465.000000)"
/>


<path d="M461.000000 262.000000 C 461.000000 275.000000, 462.000000 300.000000,462.000000 317.000000" stroke="black"  fill="transparent"/>

<line
x1="461" y1="275" x2="461" y2="262"
id="0"
style="stroke:black;stroke-width:1.000000;stroke-opacity:0" />


<line
x1="462" y1="300" x2="462" y2="317"
id="BiochemicalReaction_e8fa81155f01f72efead94e0c0bf01da_LEFT_TO_RIGHT-output--to--SmallMolecule_ef8ed134df5e46acc4d928827e4e02bd"
style="stroke:black;stroke-width:1.000000;stroke-opacity:0" />


<polygon
points = "462,317 453.2,312.6 453.2,321.4"
id="line"
style="fill:black; stroke:#000000; stroke-width:1"
transform = "rotate(90.000000 462.000000 317.000000)"
/>


<path d="M670.000000 405.000000 C 668.000000 420.000000, 665.000000 452.000000,663.000000 471.000000" stroke="black"  fill="transparent"/>

<line
x1="668" y1="420" x2="670" y2="405"
id="0"
style="stroke:black;stroke-width:1.000000;stroke-opacity:0" />


<line
x1="665" y1="452" x2="663" y2="471"
id="BiochemicalReaction_46cb7af1b4ab345596959b82394c8d83_LEFT_TO_RIGHT-output--to--SmallMolecule_7cb188e9752dd7c622f38963bfbcab28"
style="stroke:black;stroke-width:1.000000;stroke-opacity:0" />


<polygon
points = "663,471 654.2,466.6 654.2,475.4"
id="line"
style="fill:black; stroke:#000000; stroke-width:1"
transform = "rotate(96.009006 663.000000 471.000000)"
/>


<path d="M355.000000 550.000000 C 349.000000 535.000000, 337.000000 504.000000,330.000000 485.000000" stroke="black"  fill="transparent"/>

<line
x1="349" y1="535" x2="355" y2="550"
id="0"
style="stroke:black;stroke-width:1.000000;stroke-opacity:0" />


<line
x1="337" y1="504" x2="330" y2="485"
id="BiochemicalReaction_fbd2933911b1426500648b6fc9577ba9_LEFT_TO_RIGHT-output--to--SmallMolecule_9492bcad93b3ed7f8316c8e263782c45"
style="stroke:black;stroke-width:1.000000;stroke-opacity:0" />


<polygon
points = "330,485 321.2,480.6 321.2,489.4"
id="line"
style="fill:black; stroke:#000000; stroke-width:1"
transform = "rotate(249.775141 330.000000 485.000000)"
/>


<path d="M522.000000 569.000000 C 523.000000 551.000000, 526.000000 525.000000,527.000000 511.000000" stroke="black"  fill="transparent"/>

<line
x1="526" y1="525" x2="527" y2="511"
id="0"
style="stroke:black;stroke-width:1.000000;stroke-opacity:0" />


<line
x1="523" y1="551" x2="522" y2="569"
id="BiochemicalReaction_b877d414021ca7b59da6a665ce7879bf_LEFT_TO_RIGHT-output--to--SmallMolecule_27cee4d5012f3a1fdbc373a090734089"
style="stroke:black;stroke-width:1.000000;stroke-opacity:0" />


<polygon
points = "522,569 513.2,564.6 513.2,573.4"
id="line"
style="fill:black; stroke:#000000; stroke-width:1"
transform = "rotate(93.179830 522.000000 569.000000)"
/>


<path d="M400.000000 300.000000 C 416.000000 288.000000, 439.000000 270.000000,452.000000 260.000000" stroke="black"  fill="transparent"/>

<line
x1="416" y1="288" x2="400" y2="300"
id="0"
style="stroke:black;stroke-width:1.000000;stroke-opacity:0" />


<line
x1="439" y1="270" x2="452" y2="260"
id="SmallMolecule_f3e56897ebd2bdc192c1ef1bec941011--to--BiochemicalReaction_e8fa81155f01f72efead94e0c0bf01da_LEFT_TO_RIGHT-input"
style="stroke:black;stroke-width:1.000000;stroke-opacity:0" />


<path d="M531.000000 569.000000 C 541.000000 553.000000, 556.000000 530.000000,564.000000 517.000000" stroke="black"  fill="transparent"/>

<line
x1="556" y1="530" x2="564" y2="517"
id="0"
style="stroke:black;stroke-width:1.000000;stroke-opacity:0" />


<line
x1="541" y1="553" x2="531" y2="569"
id="BiochemicalReaction_2f6f77f9cddb838c0f790bcdf10eddc2_LEFT_TO_RIGHT-output--to--SmallMolecule_27cee4d5012f3a1fdbc373a090734089"
style="stroke:black;stroke-width:1.000000;stroke-opacity:0" />


<polygon
points = "531,569 522.2,564.6 522.2,573.4"
id="line"
style="fill:black; stroke:#000000; stroke-width:1"
transform = "rotate(122.005383 531.000000 569.000000)"
/>


<path d="M359.000000 567.000000 C 358.000000 579.000000, 358.000000 601.000000,358.000000 616.000000" stroke="black"  fill="transparent"/>

<line
x1="358" y1="601" x2="358" y2="616"
id="0"
style="stroke:black;stroke-width:1.000000;stroke-opacity:0" />


<line
x1="358" y1="579" x2="359" y2="567"
id="Protein_14169026872c3c99d177663bde83d9b7--to--BiochemicalReaction_fbd2933911b1426500648b6fc9577ba9_LEFT_TO_RIGHT"
style="stroke:black;stroke-width:1.000000;stroke-opacity:0" />


<ellipse
rx="4.400000"
ry="4.400000"
cx="358.634600"
cy="571.384801"
id="Protein_14169026872c3c99d177663bde83d9b7--to--BiochemicalReaction_fbd2933911b1426500648b6fc9577ba9_LEFT_TO_RIGHT"
style="fill:white;fill-opacity:0.800000;stroke:black;stroke-width:1.000000;stroke-opacity:1.000000" />


<path d="M564.000000 308.000000 C 581.000000 322.000000, 607.000000 344.000000,620.000000 355.000000" stroke="black"  fill="transparent"/>

<line
x1="581" y1="322" x2="564" y2="308"
id="0"
style="stroke:black;stroke-width:1.000000;stroke-opacity:0" />


<line
x1="607" y1="344" x2="620" y2="355"
id="SmallMolecule_4658aa2ff97d16b93736989801ecb032--to--BiochemicalReaction_ac8c7b5012f94ce67b09a26ee9e65a8a_LEFT_TO_RIGHT-input"
style="stroke:black;stroke-width:1.000000;stroke-opacity:0" />


<path d="M315.000000 539.000000 C 316.000000 526.000000, 319.000000 501.000000,321.000000 485.000000" stroke="black"  fill="transparent"/>

<line
x1="319" y1="501" x2="321" y2="485"
id="0"
style="stroke:black;stroke-width:1.000000;stroke-opacity:0" />


<line
x1="316" y1="526" x2="315" y2="539"
id="SmallMolecule_9492bcad93b3ed7f8316c8e263782c45--to--BiochemicalReaction_15ae7bf1efb440953b0fb976a9924643_LEFT_TO_RIGHT-input"
style="stroke:black;stroke-width:1.000000;stroke-opacity:0" />


<path d="M305.000000 545.000000 C 291.000000 540.000000, 263.000000 532.000000,245.000000 526.000000" stroke="black"  fill="transparent"/>

<line
x1="291" y1="540" x2="305" y2="545"
id="0"
style="stroke:black;stroke-width:1.000000;stroke-opacity:0" />


<line
x1="263" y1="532" x2="245" y2="526"
id="BiochemicalReaction_15ae7bf1efb440953b0fb976a9924643_LEFT_TO_RIGHT-output--to--SmallMolecule_62bc12dba96aaf7f8ce4944b1ca2e2f0"
style="stroke:black;stroke-width:1.000000;stroke-opacity:0" />


<polygon
points = "245,526 236.2,521.6 236.2,530.4"
id="line"
style="fill:black; stroke:#000000; stroke-width:1"
transform = "rotate(198.434949 245.000000 526.000000)"
/>


<path d="M537.000000 419.000000 C 534.000000 440.000000, 530.000000 477.000000,529.000000 494.000000" stroke="black"  fill="transparent"/>

<line
x1="534" y1="440" x2="537" y2="419"
id="0"
style="stroke:black;stroke-width:1.000000;stroke-opacity:0" />


<line
x1="530" y1="477" x2="529" y2="494"
id="SmallMolecule_f5a213b30443040d296fe9c0ddb7f0a0--to--BiochemicalReaction_b877d414021ca7b59da6a665ce7879bf_LEFT_TO_RIGHT-input"
style="stroke:black;stroke-width:1.000000;stroke-opacity:0" />


<path d="M597.000000 558.000000 C 590.000000 545.000000, 580.000000 528.000000,575.000000 517.000000" stroke="black"  fill="transparent"/>

<line
x1="590" y1="545" x2="597" y2="558"
id="0"
style="stroke:black;stroke-width:1.000000;stroke-opacity:0" />


<line
x1="580" y1="528" x2="575" y2="517"
id="Protein_c5a468f16c7d367f08c00856a901f6d1--to--BiochemicalReaction_2f6f77f9cddb838c0f790bcdf10eddc2_LEFT_TO_RIGHT"
style="stroke:black;stroke-width:1.000000;stroke-opacity:0" />


<ellipse
rx="4.400000"
ry="4.400000"
cx="576.820733"
cy="521.005613"
id="Protein_c5a468f16c7d367f08c00856a901f6d1--to--BiochemicalReaction_2f6f77f9cddb838c0f790bcdf10eddc2_LEFT_TO_RIGHT"
style="fill:white;fill-opacity:0.800000;stroke:black;stroke-width:1.000000;stroke-opacity:1.000000" />


<path d="M583.000000 453.000000 C 568.000000 466.000000, 547.000000 485.000000,536.000000 495.000000" stroke="black"  fill="transparent"/>

<line
x1="568" y1="466" x2="583" y2="453"
id="0"
style="stroke:black;stroke-width:1.000000;stroke-opacity:0" />


<line
x1="547" y1="485" x2="536" y2="495"
id="SmallMolecule_f3e5ce1d1db018d4728756168c50456b--to--BiochemicalReaction_b877d414021ca7b59da6a665ce7879bf_LEFT_TO_RIGHT-input"
style="stroke:black;stroke-width:1.000000;stroke-opacity:0" />


<path d="M362.000000 550.000000 C 367.000000 538.000000, 377.000000 516.000000,383.000000 500.000000" stroke="black"  fill="transparent"/>

<line
x1="377" y1="516" x2="383" y2="500"
id="0"
style="stroke:black;stroke-width:1.000000;stroke-opacity:0" />


<line
x1="367" y1="538" x2="362" y2="550"
id="SmallMolecule_e4ff254d4ff968d3c35e9f06bec9e424--to--BiochemicalReaction_fbd2933911b1426500648b6fc9577ba9_LEFT_TO_RIGHT-input"
style="stroke:black;stroke-width:1.000000;stroke-opacity:0" />


<path d="M469.000000 257.000000 C 483.000000 264.000000, 512.000000 278.000000,531.000000 286.000000" stroke="black"  fill="transparent"/>

<line
x1="483" y1="264" x2="469" y2="257"
id="0"
style="stroke:black;stroke-width:1.000000;stroke-opacity:0" />


<line
x1="512" y1="278" x2="531" y2="286"
id="BiochemicalReaction_e8fa81155f01f72efead94e0c0bf01da_LEFT_TO_RIGHT-output--to--SmallMolecule_4658aa2ff97d16b93736989801ecb032"
style="stroke:black;stroke-width:1.000000;stroke-opacity:0" />


<polygon
points = "531,286 522.2,281.6 522.2,290.4"
id="line"
style="fill:black; stroke:#000000; stroke-width:1"
transform = "rotate(22.833654 531.000000 286.000000)"
/>


<path d="M592.000000 455.000000 C 586.000000 469.000000, 578.000000 489.000000,573.000000 500.000000" stroke="black"  fill="transparent"/>

<line
x1="586" y1="469" x2="592" y2="455"
id="0"
style="stroke:black;stroke-width:1.000000;stroke-opacity:0" />


<line
x1="578" y1="489" x2="573" y2="500"
id="SmallMolecule_f3e5ce1d1db018d4728756168c50456b--to--BiochemicalReaction_2f6f77f9cddb838c0f790bcdf10eddc2_LEFT_TO_RIGHT-input"
style="stroke:black;stroke-width:1.000000;stroke-opacity:0" />


<path d="M318.000000 556.000000 C 325.000000 570.000000, 340.000000 598.000000,349.000000 616.000000" stroke="black"  fill="transparent"/>

<line
x1="340" y1="598" x2="349" y2="616"
id="0"
style="stroke:black;stroke-width:1.000000;stroke-opacity:0" />


<line
x1="325" y1="570" x2="318" y2="556"
id="Protein_14169026872c3c99d177663bde83d9b7--to--BiochemicalReaction_15ae7bf1efb440953b0fb976a9924643_LEFT_TO_RIGHT"
style="stroke:black;stroke-width:1.000000;stroke-opacity:0" />


<ellipse
rx="4.400000"
ry="4.400000"
cx="319.967740"
cy="559.935480"
id="Protein_14169026872c3c99d177663bde83d9b7--to--BiochemicalReaction_15ae7bf1efb440953b0fb976a9924643_LEFT_TO_RIGHT"
style="fill:white;fill-opacity:0.800000;stroke:black;stroke-width:1.000000;stroke-opacity:1.000000" />


<path d="M606.000000 421.000000 C 612.000000 406.000000, 621.000000 383.000000,625.000000 371.000000" stroke="black"  fill="transparent"/>

<line
x1="621" y1="383" x2="625" y2="371"
id="0"
style="stroke:black;stroke-width:1.000000;stroke-opacity:0" />


<line
x1="612" y1="406" x2="606" y2="421"
id="BiochemicalReaction_ac8c7b5012f94ce67b09a26ee9e65a8a_LEFT_TO_RIGHT-output--to--SmallMolecule_f3e5ce1d1db018d4728756168c50456b"
style="stroke:black;stroke-width:1.000000;stroke-opacity:0" />


<polygon
points = "606,421 597.2,416.6 597.2,425.4"
id="line"
style="fill:black; stroke:#000000; stroke-width:1"
transform = "rotate(111.801409 606.000000 421.000000)"
/>


<path d="M406.000000 394.000000 C 417.000000 383.000000, 435.000000 364.000000,448.000000 350.000000" stroke="black"  fill="transparent"/>

<line
x1="417" y1="383" x2="406" y2="394"
id="0"
style="stroke:black;stroke-width:1.000000;stroke-opacity:0" />


<line
x1="435" y1="364" x2="448" y2="350"
id="BiochemicalReaction_d0b9155ad0d182ab71662daf76acd5a6_LEFT_TO_RIGHT-output--to--SmallMolecule_ef8ed134df5e46acc4d928827e4e02bd"
style="stroke:black;stroke-width:1.000000;stroke-opacity:0" />


<polygon
points = "448,350 439.2,345.6 439.2,354.4"
id="line"
style="fill:black; stroke:#000000; stroke-width:1"
transform = "rotate(-47.121096 448.000000 350.000000)"
/>


<path d="M616.000000 428.000000 C 630.000000 420.000000, 650.000000 408.000000,662.000000 402.000000" stroke="black"  fill="transparent"/>

<line
x1="650" y1="408" x2="662" y2="402"
id="0"
style="stroke:black;stroke-width:1.000000;stroke-opacity:0" />


<line
x1="630" y1="420" x2="616" y2="428"
id="BiochemicalReaction_46cb7af1b4ab345596959b82394c8d83_LEFT_TO_RIGHT-output--to--SmallMolecule_f3e5ce1d1db018d4728756168c50456b"
style="stroke:black;stroke-width:1.000000;stroke-opacity:0" />


<polygon
points = "616,428 607.2,423.6 607.2,432.4"
id="line"
style="fill:black; stroke:#000000; stroke-width:1"
transform = "rotate(150.255119 616.000000 428.000000)"
/>


<path d="M620.000000 366.000000 C 606.000000 372.000000, 575.000000 386.000000,555.000000 395.000000" stroke="black"  fill="transparent"/>

<line
x1="606" y1="372" x2="620" y2="366"
id="0"
style="stroke:black;stroke-width:1.000000;stroke-opacity:0" />


<line
x1="575" y1="386" x2="555" y2="395"
id="BiochemicalReaction_ac8c7b5012f94ce67b09a26ee9e65a8a_LEFT_TO_RIGHT-output--to--SmallMolecule_f5a213b30443040d296fe9c0ddb7f0a0"
style="stroke:black;stroke-width:1.000000;stroke-opacity:0" />


<polygon
points = "555,395 546.2,390.6 546.2,399.4"
id="line"
style="fill:black; stroke:#000000; stroke-width:1"
transform = "rotate(155.772255 555.000000 395.000000)"
/>


<path d="M637.000000 358.000000 C 650.000000 351.000000, 674.000000 339.000000,693.000000 328.000000" stroke="black"  fill="transparent"/>

<line
x1="674" y1="339" x2="693" y2="328"
id="0"
style="stroke:black;stroke-width:1.000000;stroke-opacity:0" />


<line
x1="650" y1="351" x2="637" y2="358"
id="Protein_f860a2da79fae638b44a902c1c4df30f--to--BiochemicalReaction_ac8c7b5012f94ce67b09a26ee9e65a8a_LEFT_TO_RIGHT"
style="stroke:black;stroke-width:1.000000;stroke-opacity:0" />


<ellipse
rx="4.400000"
ry="4.400000"
cx="640.874073"
cy="355.913961"
id="Protein_f860a2da79fae638b44a902c1c4df30f--to--BiochemicalReaction_ac8c7b5012f94ce67b09a26ee9e65a8a_LEFT_TO_RIGHT"
style="fill:white;fill-opacity:0.800000;stroke:black;stroke-width:1.000000;stroke-opacity:1.000000" />


<path d="M712.000000 329.000000 C 701.000000 347.000000, 685.000000 374.000000,676.000000 388.000000" stroke="black"  fill="transparent"/>

<line
x1="701" y1="347" x2="712" y2="329"
id="0"
style="stroke:black;stroke-width:1.000000;stroke-opacity:0" />


<line
x1="685" y1="374" x2="676" y2="388"
id="Protein_f860a2da79fae638b44a902c1c4df30f--to--BiochemicalReaction_46cb7af1b4ab345596959b82394c8d83_LEFT_TO_RIGHT"
style="stroke:black;stroke-width:1.000000;stroke-opacity:0" />


<ellipse
rx="4.400000"
ry="4.400000"
cx="678.379333"
cy="384.298815"
id="Protein_f860a2da79fae638b44a902c1c4df30f--to--BiochemicalReaction_46cb7af1b4ab345596959b82394c8d83_LEFT_TO_RIGHT"
style="fill:white;fill-opacity:0.800000;stroke:black;stroke-width:1.000000;stroke-opacity:1.000000" />


<path d="M192.000000 442.000000 C 181.000000 450.000000, 160.000000 464.000000,145.000000 474.000000" stroke="black"  fill="transparent"/>

<line
x1="181" y1="450" x2="192" y2="442"
id="0"
style="stroke:black;stroke-width:1.000000;stroke-opacity:0" />


<line
x1="160" y1="464" x2="145" y2="474"
id="BiochemicalReaction_b6f30fbf390add88184b86274317da26_LEFT_TO_RIGHT-output--to--SmallMolecule_750ef6ee98604daab9024a139c74521a"
style="stroke:black;stroke-width:1.000000;stroke-opacity:0" />


<polygon
points = "145,474 136.2,469.6 136.2,478.4"
id="line"
style="fill:black; stroke:#000000; stroke-width:1"
transform = "rotate(146.309932 145.000000 474.000000)"
/>


<path d="M288.000000 605.000000 C 307.000000 593.000000, 335.000000 574.000000,350.000000 564.000000" stroke="black"  fill="transparent"/>

<line
x1="335" y1="574" x2="350" y2="564"
id="0"
style="stroke:black;stroke-width:1.000000;stroke-opacity:0" />


<line
x1="307" y1="593" x2="288" y2="605"
id="BiochemicalReaction_fbd2933911b1426500648b6fc9577ba9_LEFT_TO_RIGHT-output--to--SmallMolecule_552e090c09cb7e4fc0e0306b2ed4d7fc"
style="stroke:black;stroke-width:1.000000;stroke-opacity:0" />


<polygon
points = "288,605 279.2,600.6 279.2,609.4"
id="line"
style="fill:black; stroke:#000000; stroke-width:1"
transform = "rotate(147.724356 288.000000 605.000000)"
/>


<path d="M322.000000 540.000000 C 335.000000 530.000000, 358.000000 511.000000,373.000000 497.000000" stroke="black"  fill="transparent"/>

<line
x1="358" y1="511" x2="373" y2="497"
id="0"
style="stroke:black;stroke-width:1.000000;stroke-opacity:0" />


<line
x1="335" y1="530" x2="322" y2="540"
id="SmallMolecule_e4ff254d4ff968d3c35e9f06bec9e424--to--BiochemicalReaction_15ae7bf1efb440953b0fb976a9924643_LEFT_TO_RIGHT-input"
style="stroke:black;stroke-width:1.000000;stroke-opacity:0" />


<path d="M679.000000 394.000000 C 689.000000 392.000000, 706.000000 388.000000,718.000000 384.000000" stroke="black"  fill="transparent"/>

<line
x1="706" y1="388" x2="718" y2="384"
id="0"
style="stroke:black;stroke-width:1.000000;stroke-opacity:0" />


<line
x1="689" y1="392" x2="679" y2="394"
id="SmallMolecule_dff7a5252e99731a889e05223bceee9f--to--BiochemicalReaction_46cb7af1b4ab345596959b82394c8d83_LEFT_TO_RIGHT-input"
style="stroke:black;stroke-width:1.000000;stroke-opacity:0" />


<path d="M536.000000 510.000000 C 549.000000 522.000000, 572.000000 544.000000,589.000000 559.000000" stroke="black"  fill="transparent"/>

<line
x1="572" y1="544" x2="589" y2="559"
id="0"
style="stroke:black;stroke-width:1.000000;stroke-opacity:0" />


<line
x1="549" y1="522" x2="536" y2="510"
id="Protein_c5a468f16c7d367f08c00856a901f6d1--to--BiochemicalReaction_b877d414021ca7b59da6a665ce7879bf_LEFT_TO_RIGHT"
style="stroke:black;stroke-width:1.000000;stroke-opacity:0" />


<ellipse
rx="4.400000"
ry="4.400000"
cx="539.233135"
cy="512.984432"
id="Protein_c5a468f16c7d367f08c00856a901f6d1--to--BiochemicalReaction_b877d414021ca7b59da6a665ce7879bf_LEFT_TO_RIGHT"
style="fill:white;fill-opacity:0.800000;stroke:black;stroke-width:1.000000;stroke-opacity:1.000000" />


<path d="M386.000000 330.000000 C 390.000000 349.000000, 395.000000 379.000000,397.000000 394.000000" stroke="black"  fill="transparent"/>

<line
x1="390" y1="349" x2="386" y2="330"
id="0"
style="stroke:black;stroke-width:1.000000;stroke-opacity:0" />


<line
x1="395" y1="379" x2="397" y2="394"
id="SmallMolecule_f3e56897ebd2bdc192c1ef1bec941011--to--BiochemicalReaction_d0b9155ad0d182ab71662daf76acd5a6_LEFT_TO_RIGHT-input"
style="stroke:black;stroke-width:1.000000;stroke-opacity:0" />



</svg>
