<?xml version="1.0" encoding="UTF-8"?>
<svg width="997.552476" height="935.103982"
xmlns="http://www.w3.org/2000/svg" xmlns:svg="http://www.w3.org/2000/svg"
>
<metadata id="metadata7">image/svg+xml</metadata>

<rect
width="567.552476"
height="552.103982"
rx="11.000000"
ry="11.000000"
x="100.000000"
y="183.000000"
id="nucleoplasm"
style="fill:white;fill-opacity:0.900000;stroke:black;stroke-width:5.000000;stroke-opacity:1.000000" />


<text
x="383.776238"
y="175.000000"
id="nucleoplasm"
style="font-size:6.000000px;text-anchor:middle;font-family:Arial,Helvetica;alignment-baseline:baseline;stroke.opacity:1;dominant-baseline:baseline"
fill="black"
>
nucleoplasm</text>


<rect
width="567.552476"
height="552.103982"
rx="11.000000"
ry="11.000000"
x="100.000000"
y="183.000000"
id="nucleoplasm"
style="fill:white;fill-opacity:0.900000;stroke:black;stroke-width:5.000000;stroke-opacity:1.000000" />


<text
x="383.776238"
y="175.000000"
id="nucleoplasm"
style="font-size:6.000000px;text-anchor:middle;font-family:Arial,Helvetica;alignment-baseline:baseline;stroke.opacity:1;dominant-baseline:baseline"
fill="black"
>
nucleoplasm</text>

NULL
NULL
NULL
NULL
NULL
NULL
NULL
NULL
NULL
NULL
NULL
NULL
NULL
NULL
NULL
NULL
NULL
NULL
NULL
NULL
NULL
NULL
NULL
NULL
NULL
NULL
NULL
NULL
NULL
NULL
NULL


<path
d="M 513.535809228827 332.233746269507 513.535809228827 414.250412936173 519.035809228827 419.750412936173 651.052475895494 419.750412936173 656.552475895494 414.250412936173 656.552475895494 332.233746269507 651.052475895494 326.733746269507 519.035809228827 326.733746269507 Z"
id="Complex_0133f929d019b470e3e2d1838ea1b1ae"
style="fill:white;fill-opacity:0.600000;stroke-width:1;stroke:black;stroke-opacity:1.000000"
transform = "rotate(0.000000 0.000000 0.000000)"
/>


<text
x="585.044143"
y="318.733746"
id="Complex_0133f929d019b470e3e2d1838ea1b1ae"
style="font-size:6.000000px;text-anchor:middle;font-family:Arial,Helvetica;alignment-baseline:baseline;stroke.opacity:1;dominant-baseline:baseline"
fill="black"
>
ALKBH2:Fe2+:3-meC-dsDNA</text>


<path
d="M 275.867931629217 526.062862093848 275.867931629217 608.079528760515 281.367931629217 613.579528760515 346.30126496255 613.579528760515 351.80126496255 608.079528760515 351.80126496255 526.062862093848 346.30126496255 520.562862093848 281.367931629217 520.562862093848 Z"
id="Complex_fdbf48643f9e921dc061c45fec15a2cb"
style="fill:white;fill-opacity:0.600000;stroke-width:1;stroke:black;stroke-opacity:1.000000"
transform = "rotate(0.000000 0.000000 0.000000)"
/>


<text
x="313.834598"
y="512.562862"
id="Complex_fdbf48643f9e921dc061c45fec15a2cb"
style="font-size:6.000000px;text-anchor:middle;font-family:Arial,Helvetica;alignment-baseline:baseline;stroke.opacity:1;dominant-baseline:baseline"
fill="black"
>
ALKBH2:Fe2+</text>


<path
d="M 115.509017518212 205.5 115.509017518212 287.516666666667 121.009017518212 293.016666666667 253.025684184878 293.016666666667 258.525684184878 287.516666666667 258.525684184878 205.5 253.025684184878 200 121.009017518212 200 Z"
id="Complex_12a5adabf9cca7918b7b9479d553f478"
style="fill:white;fill-opacity:0.600000;stroke-width:1;stroke:black;stroke-opacity:1.000000"
transform = "rotate(0.000000 0.000000 0.000000)"
/>


<text
x="187.017351"
y="192.000000"
id="Complex_12a5adabf9cca7918b7b9479d553f478"
style="font-size:6.000000px;text-anchor:middle;font-family:Arial,Helvetica;alignment-baseline:baseline;stroke.opacity:1;dominant-baseline:baseline"
fill="black"
>
ALKBH2:Fe2+:1-etA-dsDNA</text>


<path
d="M 111 470.22049368222 111 552.237160348886 116.5 557.737160348886 248.516666666667 557.737160348886 254.016666666667 552.237160348886 254.016666666667 470.22049368222 248.516666666667 464.72049368222 116.5 464.72049368222 Z"
id="Complex_f5ea71e79670949fbe5b34f3e82dd213"
style="fill:white;fill-opacity:0.600000;stroke-width:1;stroke:black;stroke-opacity:1.000000"
transform = "rotate(0.000000 0.000000 0.000000)"
/>


<text
x="182.508333"
y="456.720494"
id="Complex_f5ea71e79670949fbe5b34f3e82dd213"
style="font-size:6.000000px;text-anchor:middle;font-family:Arial,Helvetica;alignment-baseline:baseline;stroke.opacity:1;dominant-baseline:baseline"
fill="black"
>
ALKBH2:Fe2+:1-meA-dsDNA</text>




<ellipse
rx="29.166667"
ry="16.666667"
cx="275.784992"
cy="422.880925"
id="PhysicalEntity_e4fadf73de0d80de198acb2f57caad89"
style="fill:white;fill-opacity:1.000000;stroke:black;stroke-width:1.000000;stroke-opacity:1.000000" />


<text
x="275.784992"
y="424.880925"
id="PhysicalEntity_e4fadf73de0d80de198acb2f57caad89"
style="font-size:6.000000px;text-anchor:middle;font-family:Arial,Helvetica;alignment-baseline:baseline;stroke.opacity:1;dominant-baseline:baseline"
fill="black"
>
1-etA-dsDNA</text>



<ellipse
rx="16.666667"
ry="16.666667"
cx="471.031160"
cy="375.807839"
id="SmallMolecule_f70bd27ed18731b0e273251f71df1708"
style="fill:white;fill-opacity:0.000000;stroke:black;stroke-width:1.000000;stroke-opacity:1.000000" />


<text
x="471.031160"
y="377.807839"
id="SmallMolecule_f70bd27ed18731b0e273251f71df1708"
style="font-size:6.000000px;text-anchor:middle;font-family:Arial,Helvetica;alignment-baseline:baseline;stroke.opacity:1;dominant-baseline:baseline"
fill="black"
>
SUCCA</text>



<ellipse
rx="16.666667"
ry="16.666667"
cx="239.360013"
cy="328.131840"
id="SmallMolecule_9553863138a4e4b2217c804d2335d46d"
style="fill:white;fill-opacity:0.000000;stroke:black;stroke-width:1.000000;stroke-opacity:1.000000" />


<text
x="239.360013"
y="330.131840"
id="SmallMolecule_9553863138a4e4b2217c804d2335d46d"
style="font-size:6.000000px;text-anchor:middle;font-family:Arial,Helvetica;alignment-baseline:baseline;stroke.opacity:1;dominant-baseline:baseline"
fill="black"
>
CH2O</text>



<ellipse
rx="16.666667"
ry="16.666667"
cx="539.002476"
cy="394.283746"
id="SmallMolecule_0e676729e6c28173ce94e404488c282d_Complex_0133f929d019b470e3e2d1838ea1b1ae"
style="fill:white;fill-opacity:0.000000;stroke:black;stroke-width:1.000000;stroke-opacity:1.000000" />


<text
x="539.002476"
y="396.283746"
id="SmallMolecule_0e676729e6c28173ce94e404488c282d_Complex_0133f929d019b470e3e2d1838ea1b1ae"
style="font-size:6.000000px;text-anchor:middle;font-family:Arial,Helvetica;alignment-baseline:baseline;stroke.opacity:1;dominant-baseline:baseline"
fill="black"
>
Fe2+</text>



<ellipse
rx="29.166667"
ry="16.666667"
cx="618.585809"
cy="352.200413"
id="PhysicalEntity_d4ebb087d0013a16afe5291925b95248_Complex_0133f929d019b470e3e2d1838ea1b1ae"
style="fill:white;fill-opacity:1.000000;stroke:black;stroke-width:1.000000;stroke-opacity:1.000000" />


<text
x="618.585809"
y="354.200413"
id="PhysicalEntity_d4ebb087d0013a16afe5291925b95248_Complex_0133f929d019b470e3e2d1838ea1b1ae"
style="font-size:6.000000px;text-anchor:middle;font-family:Arial,Helvetica;alignment-baseline:baseline;stroke.opacity:1;dominant-baseline:baseline"
fill="black"
>
3-meC-dsDNA</text>



<rect
width="58.333333"
height="33.333333"
rx="3.333333"
ry="3.333333"
x="522.335809"
y="335.533746"
id="Protein_69c9f5b057215d4fedec1538b6951dd2_Complex_0133f929d019b470e3e2d1838ea1b1ae"
style="fill:white;fill-opacity:1.000000;stroke:black;stroke-width:1.000000;stroke-opacity:1.000000" />


<text
x="551.502476"
y="354.200413"
id="Protein_69c9f5b057215d4fedec1538b6951dd2_Complex_0133f929d019b470e3e2d1838ea1b1ae"
style="font-size:6.000000px;text-anchor:middle;font-family:Arial,Helvetica;alignment-baseline:baseline;stroke.opacity:1;dominant-baseline:baseline"
fill="black"
>
ALKBH2</text>


<ellipse
rx="14.583333"
ry="7.291667"
cx="536.919143"
cy="335.533746"
id="Protein_69c9f5b057215d4fedec1538b6951dd2_Complex_0133f929d019b470e3e2d1838ea1b1ae.info.1"
style="fill:white;fill-opacity:1.000000;stroke:black;stroke-width:1.000000;stroke-opacity:1.000000" />


<text
x="536.919143"
y="337.533746"
id="Protein_69c9f5b057215d4fedec1538b6951dd2_Complex_0133f929d019b470e3e2d1838ea1b1ae.info.1"
style="font-size:6.000000px;text-anchor:middle;font-family:Arial,Helvetica;alignment-baseline:baseline;stroke.opacity:1;dominant-baseline:baseline"
fill="black"
>
x[1-261]</text>



<ellipse
rx="16.666667"
ry="16.666667"
cx="286.301764"
cy="356.868783"
id="SmallMolecule_88a86afdb28dcabecf89bf5d33acd41f"
style="fill:white;fill-opacity:0.000000;stroke:black;stroke-width:1.000000;stroke-opacity:1.000000" />


<text
x="286.301764"
y="358.868783"
id="SmallMolecule_88a86afdb28dcabecf89bf5d33acd41f"
style="font-size:6.000000px;text-anchor:middle;font-family:Arial,Helvetica;alignment-baseline:baseline;stroke.opacity:1;dominant-baseline:baseline"
fill="black"
>
2OG</text>



<ellipse
rx="16.666667"
ry="16.666667"
cx="301.334598"
cy="588.112862"
id="SmallMolecule_0e676729e6c28173ce94e404488c282d_Complex_fdbf48643f9e921dc061c45fec15a2cb"
style="fill:white;fill-opacity:0.000000;stroke:black;stroke-width:1.000000;stroke-opacity:1.000000" />


<text
x="301.334598"
y="590.112862"
id="SmallMolecule_0e676729e6c28173ce94e404488c282d_Complex_fdbf48643f9e921dc061c45fec15a2cb"
style="font-size:6.000000px;text-anchor:middle;font-family:Arial,Helvetica;alignment-baseline:baseline;stroke.opacity:1;dominant-baseline:baseline"
fill="black"
>
Fe2+</text>



<rect
width="58.333333"
height="33.333333"
rx="3.333333"
ry="3.333333"
x="284.667932"
y="529.362862"
id="Protein_69c9f5b057215d4fedec1538b6951dd2_Complex_fdbf48643f9e921dc061c45fec15a2cb"
style="fill:white;fill-opacity:1.000000;stroke:black;stroke-width:1.000000;stroke-opacity:1.000000" />


<text
x="313.834598"
y="548.029529"
id="Protein_69c9f5b057215d4fedec1538b6951dd2_Complex_fdbf48643f9e921dc061c45fec15a2cb"
style="font-size:6.000000px;text-anchor:middle;font-family:Arial,Helvetica;alignment-baseline:baseline;stroke.opacity:1;dominant-baseline:baseline"
fill="black"
>
ALKBH2</text>


<ellipse
rx="14.583333"
ry="7.291667"
cx="299.251265"
cy="529.362862"
id="Protein_69c9f5b057215d4fedec1538b6951dd2_Complex_fdbf48643f9e921dc061c45fec15a2cb.info.1"
style="fill:white;fill-opacity:1.000000;stroke:black;stroke-width:1.000000;stroke-opacity:1.000000" />


<text
x="299.251265"
y="531.362862"
id="Protein_69c9f5b057215d4fedec1538b6951dd2_Complex_fdbf48643f9e921dc061c45fec15a2cb.info.1"
style="font-size:6.000000px;text-anchor:middle;font-family:Arial,Helvetica;alignment-baseline:baseline;stroke.opacity:1;dominant-baseline:baseline"
fill="black"
>
x[1-261]</text>



<ellipse
rx="16.666667"
ry="16.666667"
cx="499.706738"
cy="286.555745"
id="SmallMolecule_2605215e85ac88e041b4b6afcb45edcc"
style="fill:white;fill-opacity:0.000000;stroke:black;stroke-width:1.000000;stroke-opacity:1.000000" />


<text
x="499.706738"
y="288.555745"
id="SmallMolecule_2605215e85ac88e041b4b6afcb45edcc"
style="font-size:6.000000px;text-anchor:middle;font-family:Arial,Helvetica;alignment-baseline:baseline;stroke.opacity:1;dominant-baseline:baseline"
fill="black"
>
CO2</text>



<ellipse
rx="16.666667"
ry="16.666667"
cx="311.775263"
cy="276.461345"
id="SmallMolecule_621f3e2acdcad2061f71a80ad647b6fb"
style="fill:white;fill-opacity:0.000000;stroke:black;stroke-width:1.000000;stroke-opacity:1.000000" />


<text
x="311.775263"
y="278.461345"
id="SmallMolecule_621f3e2acdcad2061f71a80ad647b6fb"
style="font-size:6.000000px;text-anchor:middle;font-family:Arial,Helvetica;alignment-baseline:baseline;stroke.opacity:1;dominant-baseline:baseline"
fill="black"
>
O2</text>



<ellipse
rx="16.666667"
ry="16.666667"
cx="140.975684"
cy="267.550000"
id="SmallMolecule_0e676729e6c28173ce94e404488c282d_Complex_12a5adabf9cca7918b7b9479d553f478"
style="fill:white;fill-opacity:0.000000;stroke:black;stroke-width:1.000000;stroke-opacity:1.000000" />


<text
x="140.975684"
y="269.550000"
id="SmallMolecule_0e676729e6c28173ce94e404488c282d_Complex_12a5adabf9cca7918b7b9479d553f478"
style="font-size:6.000000px;text-anchor:middle;font-family:Arial,Helvetica;alignment-baseline:baseline;stroke.opacity:1;dominant-baseline:baseline"
fill="black"
>
Fe2+</text>



<rect
width="58.333333"
height="33.333333"
rx="3.333333"
ry="3.333333"
x="124.309018"
y="208.800000"
id="Protein_69c9f5b057215d4fedec1538b6951dd2_Complex_12a5adabf9cca7918b7b9479d553f478"
style="fill:white;fill-opacity:1.000000;stroke:black;stroke-width:1.000000;stroke-opacity:1.000000" />


<text
x="153.475684"
y="227.466667"
id="Protein_69c9f5b057215d4fedec1538b6951dd2_Complex_12a5adabf9cca7918b7b9479d553f478"
style="font-size:6.000000px;text-anchor:middle;font-family:Arial,Helvetica;alignment-baseline:baseline;stroke.opacity:1;dominant-baseline:baseline"
fill="black"
>
ALKBH2</text>


<ellipse
rx="14.583333"
ry="7.291667"
cx="138.892351"
cy="208.800000"
id="Protein_69c9f5b057215d4fedec1538b6951dd2_Complex_12a5adabf9cca7918b7b9479d553f478.info.1"
style="fill:white;fill-opacity:1.000000;stroke:black;stroke-width:1.000000;stroke-opacity:1.000000" />


<text
x="138.892351"
y="210.800000"
id="Protein_69c9f5b057215d4fedec1538b6951dd2_Complex_12a5adabf9cca7918b7b9479d553f478.info.1"
style="font-size:6.000000px;text-anchor:middle;font-family:Arial,Helvetica;alignment-baseline:baseline;stroke.opacity:1;dominant-baseline:baseline"
fill="black"
>
x[1-261]</text>



<ellipse
rx="29.166667"
ry="16.666667"
cx="220.559018"
cy="225.466667"
id="PhysicalEntity_e4fadf73de0d80de198acb2f57caad89_Complex_12a5adabf9cca7918b7b9479d553f478"
style="fill:white;fill-opacity:1.000000;stroke:black;stroke-width:1.000000;stroke-opacity:1.000000" />


<text
x="220.559018"
y="227.466667"
id="PhysicalEntity_e4fadf73de0d80de198acb2f57caad89_Complex_12a5adabf9cca7918b7b9479d553f478"
style="font-size:6.000000px;text-anchor:middle;font-family:Arial,Helvetica;alignment-baseline:baseline;stroke.opacity:1;dominant-baseline:baseline"
fill="black"
>
1-etA-dsDNA</text>



<ellipse
rx="16.666667"
ry="16.666667"
cx="401.777628"
cy="225.862423"
id="SmallMolecule_5a7bb4fc8a6a5fe1261cd75f0ed58681"
style="fill:white;fill-opacity:0.000000;stroke:black;stroke-width:1.000000;stroke-opacity:1.000000" />


<text
x="401.777628"
y="227.862423"
id="SmallMolecule_5a7bb4fc8a6a5fe1261cd75f0ed58681"
style="font-size:6.000000px;text-anchor:middle;font-family:Arial,Helvetica;alignment-baseline:baseline;stroke.opacity:1;dominant-baseline:baseline"
fill="black"
>
CH3CHO</text>



<ellipse
rx="29.166667"
ry="16.666667"
cx="354.905589"
cy="707.437315"
id="PhysicalEntity_89ab683986bc387e892454154260b7c5"
style="fill:white;fill-opacity:1.000000;stroke:black;stroke-width:1.000000;stroke-opacity:1.000000" />


<text
x="354.905589"
y="709.437315"
id="PhysicalEntity_89ab683986bc387e892454154260b7c5"
style="font-size:6.000000px;text-anchor:middle;font-family:Arial,Helvetica;alignment-baseline:baseline;stroke.opacity:1;dominant-baseline:baseline"
fill="black"
>
1-meA-dsDNA</text>



<ellipse
rx="29.166667"
ry="16.666667"
cx="430.786795"
cy="441.007574"
id="PhysicalEntity_4fb4e1b563c755d9f688d086314e2df8"
style="fill:white;fill-opacity:1.000000;stroke:black;stroke-width:1.000000;stroke-opacity:1.000000" />


<text
x="430.786795"
y="443.007574"
id="PhysicalEntity_4fb4e1b563c755d9f688d086314e2df8"
style="font-size:6.000000px;text-anchor:middle;font-family:Arial,Helvetica;alignment-baseline:baseline;stroke.opacity:1;dominant-baseline:baseline"
fill="black"
>
dsDNA</text>



<ellipse
rx="16.666667"
ry="16.666667"
cx="136.466667"
cy="532.270494"
id="SmallMolecule_0e676729e6c28173ce94e404488c282d_Complex_f5ea71e79670949fbe5b34f3e82dd213"
style="fill:white;fill-opacity:0.000000;stroke:black;stroke-width:1.000000;stroke-opacity:1.000000" />


<text
x="136.466667"
y="534.270494"
id="SmallMolecule_0e676729e6c28173ce94e404488c282d_Complex_f5ea71e79670949fbe5b34f3e82dd213"
style="font-size:6.000000px;text-anchor:middle;font-family:Arial,Helvetica;alignment-baseline:baseline;stroke.opacity:1;dominant-baseline:baseline"
fill="black"
>
Fe2+</text>



<ellipse
rx="29.166667"
ry="16.666667"
cx="216.050000"
cy="490.187160"
id="PhysicalEntity_89ab683986bc387e892454154260b7c5_Complex_f5ea71e79670949fbe5b34f3e82dd213"
style="fill:white;fill-opacity:1.000000;stroke:black;stroke-width:1.000000;stroke-opacity:1.000000" />


<text
x="216.050000"
y="492.187160"
id="PhysicalEntity_89ab683986bc387e892454154260b7c5_Complex_f5ea71e79670949fbe5b34f3e82dd213"
style="font-size:6.000000px;text-anchor:middle;font-family:Arial,Helvetica;alignment-baseline:baseline;stroke.opacity:1;dominant-baseline:baseline"
fill="black"
>
1-meA-dsDNA</text>



<rect
width="58.333333"
height="33.333333"
rx="3.333333"
ry="3.333333"
x="119.800000"
y="473.520494"
id="Protein_69c9f5b057215d4fedec1538b6951dd2_Complex_f5ea71e79670949fbe5b34f3e82dd213"
style="fill:white;fill-opacity:1.000000;stroke:black;stroke-width:1.000000;stroke-opacity:1.000000" />


<text
x="148.966667"
y="492.187160"
id="Protein_69c9f5b057215d4fedec1538b6951dd2_Complex_f5ea71e79670949fbe5b34f3e82dd213"
style="font-size:6.000000px;text-anchor:middle;font-family:Arial,Helvetica;alignment-baseline:baseline;stroke.opacity:1;dominant-baseline:baseline"
fill="black"
>
ALKBH2</text>


<ellipse
rx="14.583333"
ry="7.291667"
cx="134.383333"
cy="473.520494"
id="Protein_69c9f5b057215d4fedec1538b6951dd2_Complex_f5ea71e79670949fbe5b34f3e82dd213.info.1"
style="fill:white;fill-opacity:1.000000;stroke:black;stroke-width:1.000000;stroke-opacity:1.000000" />


<text
x="134.383333"
y="475.520494"
id="Protein_69c9f5b057215d4fedec1538b6951dd2_Complex_f5ea71e79670949fbe5b34f3e82dd213.info.1"
style="font-size:6.000000px;text-anchor:middle;font-family:Arial,Helvetica;alignment-baseline:baseline;stroke.opacity:1;dominant-baseline:baseline"
fill="black"
>
x[1-261]</text>



<ellipse
rx="29.166667"
ry="16.666667"
cx="514.121439"
cy="599.777617"
id="PhysicalEntity_d4ebb087d0013a16afe5291925b95248"
style="fill:white;fill-opacity:1.000000;stroke:black;stroke-width:1.000000;stroke-opacity:1.000000" />


<text
x="514.121439"
y="601.777617"
id="PhysicalEntity_d4ebb087d0013a16afe5291925b95248"
style="font-size:6.000000px;text-anchor:middle;font-family:Arial,Helvetica;alignment-baseline:baseline;stroke.opacity:1;dominant-baseline:baseline"
fill="black"
>
3-meC-dsDNA</text>


<rect
width="16.666667"
height="16.666667"
rx="0.000000"
ry="0.000000"
x="476.295682"
y="511.800406"
id="reactome_R-HSA-5657665_LEFT_TO_RIGHT"
style="fill:white;fill-opacity:0.600000;stroke:black;stroke-width:1.000000;stroke-opacity:1.000000" />



<rect
width="16.666667"
height="16.666667"
rx="0.000000"
ry="0.000000"
x="202.231166"
y="386.645010"
id="reactome_R-HSA-5657649_LEFT_TO_RIGHT"
style="fill:white;fill-opacity:0.600000;stroke:black;stroke-width:1.000000;stroke-opacity:1.000000" />



<rect
width="16.666667"
height="16.666667"
rx="0.000000"
ry="0.000000"
x="332.288471"
y="414.076084"
id="reactome_R-HSA-112118_LEFT_TO_RIGHT"
style="fill:white;fill-opacity:0.600000;stroke:black;stroke-width:1.000000;stroke-opacity:1.000000" />



<rect
width="16.666667"
height="16.666667"
rx="0.000000"
ry="0.000000"
x="403.398575"
y="357.945886"
id="reactome_R-HSA-112120_LEFT_TO_RIGHT"
style="fill:white;fill-opacity:0.600000;stroke:black;stroke-width:1.000000;stroke-opacity:1.000000" />



<rect
width="16.666667"
height="16.666667"
rx="0.000000"
ry="0.000000"
x="390.179476"
y="292.991796"
id="reactome_R-HSA-112121_LEFT_TO_RIGHT"
style="fill:white;fill-opacity:0.600000;stroke:black;stroke-width:1.000000;stroke-opacity:1.000000" />



<rect
width="16.666667"
height="16.666667"
rx="0.000000"
ry="0.000000"
x="292.717735"
y="628.499169"
id="reactome_R-HSA-5657641_LEFT_TO_RIGHT"
style="fill:white;fill-opacity:0.600000;stroke:black;stroke-width:1.000000;stroke-opacity:1.000000" />





<path d="M258.000000 284.000000 C 269.000000 289.000000, 280.000000 293.000000,292.000000 296.000000" stroke="black"  fill="transparent"/>
<path d="M292.000000 296.000000 C 327.000000 305.000000, 371.000000 303.000000,390.000000 302.000000" stroke="black"  fill="transparent"/>

<line
x1="269" y1="289" x2="258" y2="284"
id="0"
style="stroke:black;stroke-width:1.000000;stroke-opacity:0" />


<line
x1="371" y1="303" x2="390" y2="302"
id="Complex_12a5adabf9cca7918b7b9479d553f478--to--reactome_R-HSA-112121_LEFT_TO_RIGHT"
style="stroke:black;stroke-width:1.000000;stroke-opacity:0" />


<ellipse
rx="4.400000"
ry="4.400000"
cx="385.606082"
cy="302.231259"
id="Complex_12a5adabf9cca7918b7b9479d553f478--to--reactome_R-HSA-112121_LEFT_TO_RIGHT"
style="fill:white;fill-opacity:0.800000;stroke:black;stroke-width:1.000000;stroke-opacity:1.000000" />


<path d="M508.000000 583.000000 C 501.000000 566.000000, 492.000000 541.000000,487.000000 528.000000" stroke="black"  fill="transparent"/>

<line
x1="501" y1="566" x2="508" y2="583"
id="0"
style="stroke:black;stroke-width:1.000000;stroke-opacity:0" />


<line
x1="492" y1="541" x2="487" y2="528"
id="PhysicalEntity_d4ebb087d0013a16afe5291925b95248--to--reactome_R-HSA-5657665_LEFT_TO_RIGHT-input"
style="stroke:black;stroke-width:1.000000;stroke-opacity:0" />


<path d="M255.000000 329.000000 C 269.000000 331.000000, 288.000000 333.000000,306.000000 337.000000" stroke="black"  fill="transparent"/>
<path d="M306.000000 337.000000 C 342.000000 344.000000, 385.000000 357.000000,403.000000 363.000000" stroke="black"  fill="transparent"/>

<line
x1="385" y1="357" x2="403" y2="363"
id="0"
style="stroke:black;stroke-width:1.000000;stroke-opacity:0" />


<line
x1="269" y1="331" x2="255" y2="329"
id="reactome_R-HSA-112120_LEFT_TO_RIGHT-output--to--SmallMolecule_9553863138a4e4b2217c804d2335d46d"
style="stroke:black;stroke-width:1.000000;stroke-opacity:0" />


<polygon
points = "255,329 246.2,324.6 246.2,333.4"
id="line"
style="fill:black; stroke:#000000; stroke-width:1"
transform = "rotate(188.130102 255.000000 329.000000)"
/>


<path d="M454.000000 373.000000 C 443.000000 371.000000, 429.000000 369.000000,420.000000 367.000000" stroke="black"  fill="transparent"/>

<line
x1="429" y1="369" x2="420" y2="367"
id="0"
style="stroke:black;stroke-width:1.000000;stroke-opacity:0" />


<line
x1="443" y1="371" x2="454" y2="373"
id="reactome_R-HSA-112120_LEFT_TO_RIGHT-output--to--SmallMolecule_f70bd27ed18731b0e273251f71df1708"
style="stroke:black;stroke-width:1.000000;stroke-opacity:0" />


<polygon
points = "454,373 445.2,368.6 445.2,377.4"
id="line"
style="fill:black; stroke:#000000; stroke-width:1"
transform = "rotate(10.304846 454.000000 373.000000)"
/>


<path d="M322.000000 520.000000 C 328.000000 488.000000, 335.000000 448.000000,339.000000 430.000000" stroke="black"  fill="transparent"/>

<line
x1="335" y1="448" x2="339" y2="430"
id="0"
style="stroke:black;stroke-width:1.000000;stroke-opacity:0" />


<line
x1="328" y1="488" x2="322" y2="520"
id="reactome_R-HSA-112118_LEFT_TO_RIGHT-output--to--Complex_fdbf48643f9e921dc061c45fec15a2cb"
style="stroke:black;stroke-width:1.000000;stroke-opacity:0" />


<polygon
points = "322,520 313.2,515.6 313.2,524.4"
id="line"
style="fill:black; stroke:#000000; stroke-width:1"
transform = "rotate(100.619655 322.000000 520.000000)"
/>


<path d="M328.000000 291.000000 C 349.000000 310.000000, 387.000000 344.000000,403.000000 358.000000" stroke="black"  fill="transparent"/>

<line
x1="349" y1="310" x2="328" y2="291"
id="0"
style="stroke:black;stroke-width:1.000000;stroke-opacity:0" />


<line
x1="387" y1="344" x2="403" y2="358"
id="SmallMolecule_621f3e2acdcad2061f71a80ad647b6fb--to--reactome_R-HSA-112120_LEFT_TO_RIGHT-input"
style="stroke:black;stroke-width:1.000000;stroke-opacity:0" />


<path d="M426.000000 424.000000 C 422.000000 409.000000, 417.000000 386.000000,413.000000 374.000000" stroke="black"  fill="transparent"/>

<line
x1="417" y1="386" x2="413" y2="374"
id="0"
style="stroke:black;stroke-width:1.000000;stroke-opacity:0" />


<line
x1="422" y1="409" x2="426" y2="424"
id="reactome_R-HSA-112120_LEFT_TO_RIGHT-output--to--PhysicalEntity_4fb4e1b563c755d9f688d086314e2df8"
style="stroke:black;stroke-width:1.000000;stroke-opacity:0" />


<polygon
points = "426,424 417.2,419.6 417.2,428.4"
id="line"
style="fill:black; stroke:#000000; stroke-width:1"
transform = "rotate(75.068583 426.000000 424.000000)"
/>


<path d="M302.000000 358.000000 C 329.000000 360.000000, 382.000000 364.000000,403.000000 365.000000" stroke="black"  fill="transparent"/>

<line
x1="329" y1="360" x2="302" y2="358"
id="0"
style="stroke:black;stroke-width:1.000000;stroke-opacity:0" />


<line
x1="382" y1="364" x2="403" y2="365"
id="SmallMolecule_88a86afdb28dcabecf89bf5d33acd41f--to--reactome_R-HSA-112120_LEFT_TO_RIGHT-input"
style="stroke:black;stroke-width:1.000000;stroke-opacity:0" />


<path d="M552.000000 420.000000 C 530.000000 452.000000, 502.000000 493.000000,490.000000 511.000000" stroke="black"  fill="transparent"/>

<line
x1="502" y1="493" x2="490" y2="511"
id="0"
style="stroke:black;stroke-width:1.000000;stroke-opacity:0" />


<line
x1="530" y1="452" x2="552" y2="420"
id="reactome_R-HSA-5657665_LEFT_TO_RIGHT-output--to--Complex_0133f929d019b470e3e2d1838ea1b1ae"
style="stroke:black;stroke-width:1.000000;stroke-opacity:0" />


<polygon
points = "552,420 543.2,415.6 543.2,424.4"
id="line"
style="fill:black; stroke:#000000; stroke-width:1"
transform = "rotate(-55.491477 552.000000 420.000000)"
/>


<path d="M302.000000 348.000000 C 327.000000 336.000000, 371.000000 314.000000,390.000000 305.000000" stroke="black"  fill="transparent"/>

<line
x1="327" y1="336" x2="302" y2="348"
id="0"
style="stroke:black;stroke-width:1.000000;stroke-opacity:0" />


<line
x1="371" y1="314" x2="390" y2="305"
id="SmallMolecule_88a86afdb28dcabecf89bf5d33acd41f--to--reactome_R-HSA-112121_LEFT_TO_RIGHT-input"
style="stroke:black;stroke-width:1.000000;stroke-opacity:0" />


<path d="M454.000000 359.000000 C 440.000000 344.000000, 418.000000 321.000000,406.000000 309.000000" stroke="black"  fill="transparent"/>

<line
x1="418" y1="321" x2="406" y2="309"
id="0"
style="stroke:black;stroke-width:1.000000;stroke-opacity:0" />


<line
x1="440" y1="344" x2="454" y2="359"
id="reactome_R-HSA-112121_LEFT_TO_RIGHT-output--to--SmallMolecule_f70bd27ed18731b0e273251f71df1708"
style="stroke:black;stroke-width:1.000000;stroke-opacity:0" />


<polygon
points = "454,359 445.2,354.6 445.2,363.4"
id="line"
style="fill:black; stroke:#000000; stroke-width:1"
transform = "rotate(46.974934 454.000000 359.000000)"
/>


<path d="M290.000000 520.000000 C 280.000000 501.000000, 268.000000 480.000000,257.000000 461.000000" stroke="black"  fill="transparent"/>
<path d="M257.000000 461.000000 C 251.000000 452.000000, 249.000000 451.000000,243.000000 442.000000" stroke="black"  fill="transparent"/>
<path d="M243.000000 442.000000 C 234.000000 429.000000, 223.000000 413.000000,216.000000 403.000000" stroke="black"  fill="transparent"/>

<line
x1="280" y1="501" x2="290" y2="520"
id="0"
style="stroke:black;stroke-width:1.000000;stroke-opacity:0" />


<line
x1="223" y1="413" x2="216" y2="403"
id="Complex_fdbf48643f9e921dc061c45fec15a2cb--to--reactome_R-HSA-5657649_LEFT_TO_RIGHT-input"
style="stroke:black;stroke-width:1.000000;stroke-opacity:0" />


<path d="M246.000000 344.000000 C 250.000000 354.000000, 257.000000 367.000000,266.000000 376.000000" stroke="black"  fill="transparent"/>
<path d="M266.000000 376.000000 C 269.000000 379.000000, 313.000000 406.000000,332.000000 417.000000" stroke="black"  fill="transparent"/>

<line
x1="313" y1="406" x2="332" y2="417"
id="0"
style="stroke:black;stroke-width:1.000000;stroke-opacity:0" />


<line
x1="250" y1="354" x2="246" y2="344"
id="reactome_R-HSA-112118_LEFT_TO_RIGHT-output--to--SmallMolecule_9553863138a4e4b2217c804d2335d46d"
style="stroke:black;stroke-width:1.000000;stroke-opacity:0" />


<polygon
points = "246,344 237.2,339.6 237.2,348.4"
id="line"
style="fill:black; stroke:#000000; stroke-width:1"
transform = "rotate(248.198591 246.000000 344.000000)"
/>


<path d="M254.000000 472.000000 C 271.000000 463.000000, 290.000000 452.000000,307.000000 442.000000" stroke="black"  fill="transparent"/>
<path d="M307.000000 442.000000 C 316.000000 437.000000, 325.000000 431.000000,332.000000 427.000000" stroke="black"  fill="transparent"/>

<line
x1="271" y1="463" x2="254" y2="472"
id="0"
style="stroke:black;stroke-width:1.000000;stroke-opacity:0" />


<line
x1="325" y1="431" x2="332" y2="427"
id="Complex_f5ea71e79670949fbe5b34f3e82dd213--to--reactome_R-HSA-112118_LEFT_TO_RIGHT-input"
style="stroke:black;stroke-width:1.000000;stroke-opacity:0" />


<path d="M315.000000 293.000000 C 321.000000 324.000000, 334.000000 390.000000,338.000000 413.000000" stroke="black"  fill="transparent"/>

<line
x1="321" y1="324" x2="315" y2="293"
id="0"
style="stroke:black;stroke-width:1.000000;stroke-opacity:0" />


<line
x1="334" y1="390" x2="338" y2="413"
id="SmallMolecule_621f3e2acdcad2061f71a80ad647b6fb--to--reactome_R-HSA-112118_LEFT_TO_RIGHT-input"
style="stroke:black;stroke-width:1.000000;stroke-opacity:0" />


<path d="M328.000000 281.000000 C 346.000000 286.000000, 375.000000 294.000000,390.000000 298.000000" stroke="black"  fill="transparent"/>

<line
x1="346" y1="286" x2="328" y2="281"
id="0"
style="stroke:black;stroke-width:1.000000;stroke-opacity:0" />


<line
x1="375" y1="294" x2="390" y2="298"
id="SmallMolecule_621f3e2acdcad2061f71a80ad647b6fb--to--reactome_R-HSA-112121_LEFT_TO_RIGHT-input"
style="stroke:black;stroke-width:1.000000;stroke-opacity:0" />


<path d="M401.000000 242.000000 C 400.000000 258.000000, 399.000000 280.000000,398.000000 292.000000" stroke="black"  fill="transparent"/>

<line
x1="399" y1="280" x2="398" y2="292"
id="0"
style="stroke:black;stroke-width:1.000000;stroke-opacity:0" />


<line
x1="400" y1="258" x2="401" y2="242"
id="reactome_R-HSA-112121_LEFT_TO_RIGHT-output--to--SmallMolecule_5a7bb4fc8a6a5fe1261cd75f0ed58681"
style="stroke:black;stroke-width:1.000000;stroke-opacity:0" />


<polygon
points = "401,242 392.2,237.6 392.2,246.4"
id="line"
style="fill:black; stroke:#000000; stroke-width:1"
transform = "rotate(-86.423666 401.000000 242.000000)"
/>


<path d="M454.000000 381.000000 C 426.000000 391.000000, 370.000000 411.000000,349.000000 419.000000" stroke="black"  fill="transparent"/>

<line
x1="370" y1="411" x2="349" y2="419"
id="0"
style="stroke:black;stroke-width:1.000000;stroke-opacity:0" />


<line
x1="426" y1="391" x2="454" y2="381"
id="reactome_R-HSA-112118_LEFT_TO_RIGHT-output--to--SmallMolecule_f70bd27ed18731b0e273251f71df1708"
style="stroke:black;stroke-width:1.000000;stroke-opacity:0" />


<polygon
points = "454,381 445.2,376.6 445.2,385.4"
id="line"
style="fill:black; stroke:#000000; stroke-width:1"
transform = "rotate(-19.653824 454.000000 381.000000)"
/>


<path d="M513.000000 357.000000 C 493.000000 354.000000, 471.000000 353.000000,451.000000 356.000000" stroke="black"  fill="transparent"/>
<path d="M451.000000 356.000000 C 440.000000 357.000000, 428.000000 360.000000,420.000000 363.000000" stroke="black"  fill="transparent"/>

<line
x1="493" y1="354" x2="513" y2="357"
id="0"
style="stroke:black;stroke-width:1.000000;stroke-opacity:0" />


<line
x1="428" y1="360" x2="420" y2="363"
id="Complex_0133f929d019b470e3e2d1838ea1b1ae--to--reactome_R-HSA-112120_LEFT_TO_RIGHT-input"
style="stroke:black;stroke-width:1.000000;stroke-opacity:0" />


<path d="M352.000000 556.000000 C 392.000000 545.000000, 453.000000 528.000000,476.000000 522.000000" stroke="black"  fill="transparent"/>

<line
x1="392" y1="545" x2="352" y2="556"
id="0"
style="stroke:black;stroke-width:1.000000;stroke-opacity:0" />


<line
x1="453" y1="528" x2="476" y2="522"
id="Complex_fdbf48643f9e921dc061c45fec15a2cb--to--reactome_R-HSA-5657665_LEFT_TO_RIGHT-input"
style="stroke:black;stroke-width:1.000000;stroke-opacity:0" />


<path d="M483.000000 301.000000 C 464.000000 318.000000, 434.000000 345.000000,420.000000 358.000000" stroke="black"  fill="transparent"/>

<line
x1="434" y1="345" x2="420" y2="358"
id="0"
style="stroke:black;stroke-width:1.000000;stroke-opacity:0" />


<line
x1="464" y1="318" x2="483" y2="301"
id="reactome_R-HSA-112120_LEFT_TO_RIGHT-output--to--SmallMolecule_2605215e85ac88e041b4b6afcb45edcc"
style="stroke:black;stroke-width:1.000000;stroke-opacity:0" />


<polygon
points = "483,301 474.2,296.6 474.2,305.4"
id="line"
style="fill:black; stroke:#000000; stroke-width:1"
transform = "rotate(-41.820170 483.000000 301.000000)"
/>


<path d="M258.000000 288.000000 C 269.000000 293.000000, 280.000000 297.000000,292.000000 300.000000" stroke="black"  fill="transparent"/>
<path d="M292.000000 300.000000 C 327.000000 309.000000, 371.000000 307.000000,390.000000 306.000000" stroke="black"  fill="transparent"/>

<line
x1="269" y1="293" x2="258" y2="288"
id="0"
style="stroke:black;stroke-width:1.000000;stroke-opacity:0" />


<line
x1="371" y1="307" x2="390" y2="306"
id="Complex_12a5adabf9cca7918b7b9479d553f478--to--reactome_R-HSA-112121_LEFT_TO_RIGHT-input"
style="stroke:black;stroke-width:1.000000;stroke-opacity:0" />


<path d="M336.000000 520.000000 C 360.000000 472.000000, 395.000000 399.000000,407.000000 375.000000" stroke="black"  fill="transparent"/>

<line
x1="395" y1="399" x2="407" y2="375"
id="0"
style="stroke:black;stroke-width:1.000000;stroke-opacity:0" />


<line
x1="360" y1="472" x2="336" y2="520"
id="reactome_R-HSA-112120_LEFT_TO_RIGHT-output--to--Complex_fdbf48643f9e921dc061c45fec15a2cb"
style="stroke:black;stroke-width:1.000000;stroke-opacity:0" />


<polygon
points = "336,520 327.2,515.6 327.2,524.4"
id="line"
style="fill:black; stroke:#000000; stroke-width:1"
transform = "rotate(116.565051 336.000000 520.000000)"
/>


<path d="M513.000000 361.000000 C 493.000000 358.000000, 471.000000 357.000000,451.000000 360.000000" stroke="black"  fill="transparent"/>
<path d="M451.000000 360.000000 C 440.000000 361.000000, 428.000000 364.000000,420.000000 367.000000" stroke="black"  fill="transparent"/>

<line
x1="493" y1="358" x2="513" y2="361"
id="0"
style="stroke:black;stroke-width:1.000000;stroke-opacity:0" />


<line
x1="428" y1="364" x2="420" y2="367"
id="Complex_0133f929d019b470e3e2d1838ea1b1ae--to--reactome_R-HSA-112120_LEFT_TO_RIGHT"
style="stroke:black;stroke-width:1.000000;stroke-opacity:0" />


<ellipse
rx="4.400000"
ry="4.400000"
cx="424.119848"
cy="365.455057"
id="Complex_0133f929d019b470e3e2d1838ea1b1ae--to--reactome_R-HSA-112120_LEFT_TO_RIGHT"
style="fill:white;fill-opacity:0.800000;stroke:black;stroke-width:1.000000;stroke-opacity:1.000000" />


<path d="M401.000000 435.000000 C 383.000000 431.000000, 361.000000 426.000000,349.000000 424.000000" stroke="black"  fill="transparent"/>

<line
x1="361" y1="426" x2="349" y2="424"
id="0"
style="stroke:black;stroke-width:1.000000;stroke-opacity:0" />


<line
x1="383" y1="431" x2="401" y2="435"
id="reactome_R-HSA-112118_LEFT_TO_RIGHT-output--to--PhysicalEntity_4fb4e1b563c755d9f688d086314e2df8"
style="stroke:black;stroke-width:1.000000;stroke-opacity:0" />


<polygon
points = "401,435 392.2,430.6 392.2,439.4"
id="line"
style="fill:black; stroke:#000000; stroke-width:1"
transform = "rotate(12.528808 401.000000 435.000000)"
/>


<path d="M254.000000 476.000000 C 271.000000 467.000000, 290.000000 456.000000,307.000000 446.000000" stroke="black"  fill="transparent"/>
<path d="M307.000000 446.000000 C 316.000000 441.000000, 325.000000 435.000000,332.000000 430.742750" stroke="black"  fill="transparent"/>

<line
x1="271" y1="467" x2="254" y2="476"
id="0"
style="stroke:black;stroke-width:1.000000;stroke-opacity:0" />


<line
x1="325" y1="435" x2="332" y2="430.742750262953"
id="Complex_f5ea71e79670949fbe5b34f3e82dd213--to--reactome_R-HSA-112118_LEFT_TO_RIGHT"
style="stroke:black;stroke-width:1.000000;stroke-opacity:0" />


<ellipse
rx="4.400000"
ry="4.400000"
cx="328.240663"
cy="433.029098"
id="Complex_f5ea71e79670949fbe5b34f3e82dd213--to--reactome_R-HSA-112118_LEFT_TO_RIGHT"
style="fill:white;fill-opacity:0.800000;stroke:black;stroke-width:1.000000;stroke-opacity:1.000000" />


<path d="M300.000000 373.000000 C 310.000000 386.000000, 325.000000 403.000000,333.000000 413.000000" stroke="black"  fill="transparent"/>

<line
x1="310" y1="386" x2="300" y2="373"
id="0"
style="stroke:black;stroke-width:1.000000;stroke-opacity:0" />


<line
x1="325" y1="403" x2="333" y2="413"
id="SmallMolecule_88a86afdb28dcabecf89bf5d33acd41f--to--reactome_R-HSA-112118_LEFT_TO_RIGHT-input"
style="stroke:black;stroke-width:1.000000;stroke-opacity:0" />


<path d="M194.000000 293.000000 C 199.000000 326.000000, 206.000000 368.000000,209.000000 386.000000" stroke="black"  fill="transparent"/>

<line
x1="206" y1="368" x2="209" y2="386"
id="0"
style="stroke:black;stroke-width:1.000000;stroke-opacity:0" />


<line
x1="199" y1="326" x2="194" y2="293"
id="reactome_R-HSA-5657649_LEFT_TO_RIGHT-output--to--Complex_12a5adabf9cca7918b7b9479d553f478"
style="stroke:black;stroke-width:1.000000;stroke-opacity:0" />


<polygon
points = "194,293 185.2,288.6 185.2,297.4"
id="line"
style="fill:black; stroke:#000000; stroke-width:1"
transform = "rotate(261.384352 194.000000 293.000000)"
/>


<path d="M246.000000 410.000000 C 236.000000 406.000000, 226.000000 401.000000,219.000000 398.000000" stroke="black"  fill="transparent"/>

<line
x1="236" y1="406" x2="246" y2="410"
id="0"
style="stroke:black;stroke-width:1.000000;stroke-opacity:0" />


<line
x1="226" y1="401" x2="219" y2="398"
id="PhysicalEntity_e4fadf73de0d80de198acb2f57caad89--to--reactome_R-HSA-5657649_LEFT_TO_RIGHT-input"
style="stroke:black;stroke-width:1.000000;stroke-opacity:0" />


<path d="M305.000000 613.000000 C 304.000000 619.000000, 303.000000 623.000000,302.000000 627.000000" stroke="black"  fill="transparent"/>

<line
x1="304" y1="619" x2="305" y2="613"
id="0"
style="stroke:black;stroke-width:1.000000;stroke-opacity:0" />


<line
x1="303" y1="623" x2="302" y2="627"
id="Complex_fdbf48643f9e921dc061c45fec15a2cb--to--reactome_R-HSA-5657641_LEFT_TO_RIGHT-input"
style="stroke:black;stroke-width:1.000000;stroke-opacity:0" />


<path d="M342.000000 690.000000 C 331.000000 676.000000, 316.000000 656.000000,307.000000 645.000000" stroke="black"  fill="transparent"/>

<line
x1="331" y1="676" x2="342" y2="690"
id="0"
style="stroke:black;stroke-width:1.000000;stroke-opacity:0" />


<line
x1="316" y1="656" x2="307" y2="645"
id="PhysicalEntity_89ab683986bc387e892454154260b7c5--to--reactome_R-HSA-5657641_LEFT_TO_RIGHT-input"
style="stroke:black;stroke-width:1.000000;stroke-opacity:0" />


<path d="M483.000000 288.000000 C 461.000000 292.000000, 423.000000 297.000000,406.000000 300.000000" stroke="black"  fill="transparent"/>

<line
x1="423" y1="297" x2="406" y2="300"
id="0"
style="stroke:black;stroke-width:1.000000;stroke-opacity:0" />


<line
x1="461" y1="292" x2="483" y2="288"
id="reactome_R-HSA-112121_LEFT_TO_RIGHT-output--to--SmallMolecule_2605215e85ac88e041b4b6afcb45edcc"
style="stroke:black;stroke-width:1.000000;stroke-opacity:0" />


<polygon
points = "483,288 474.2,283.6 474.2,292.4"
id="line"
style="fill:black; stroke:#000000; stroke-width:1"
transform = "rotate(-10.304846 483.000000 288.000000)"
/>


<path d="M482.000000 296.000000 C 462.000000 308.000000, 426.000000 330.000000,400.000000 354.000000" stroke="black"  fill="transparent"/>
<path d="M400.000000 354.000000 C 378.000000 373.000000, 357.000000 400.000000,346.000000 413.000000" stroke="black"  fill="transparent"/>

<line
x1="357" y1="400" x2="346" y2="413"
id="0"
style="stroke:black;stroke-width:1.000000;stroke-opacity:0" />


<line
x1="462" y1="308" x2="482" y2="296"
id="reactome_R-HSA-112118_LEFT_TO_RIGHT-output--to--SmallMolecule_2605215e85ac88e041b4b6afcb45edcc"
style="stroke:black;stroke-width:1.000000;stroke-opacity:0" />


<polygon
points = "482,296 473.2,291.6 473.2,300.4"
id="line"
style="fill:black; stroke:#000000; stroke-width:1"
transform = "rotate(-30.963757 482.000000 296.000000)"
/>


<path d="M431.000000 424.000000 C 431.000000 406.000000, 429.000000 378.000000,423.000000 354.000000" stroke="black"  fill="transparent"/>
<path d="M423.000000 354.000000 C 419.000000 338.000000, 409.000000 320.000000,403.000000 310.000000" stroke="black"  fill="transparent"/>

<line
x1="409" y1="320" x2="403" y2="310"
id="0"
style="stroke:black;stroke-width:1.000000;stroke-opacity:0" />


<line
x1="431" y1="406" x2="431" y2="424"
id="reactome_R-HSA-112121_LEFT_TO_RIGHT-output--to--PhysicalEntity_4fb4e1b563c755d9f688d086314e2df8"
style="stroke:black;stroke-width:1.000000;stroke-opacity:0" />


<polygon
points = "431,424 422.2,419.6 422.2,428.4"
id="line"
style="fill:black; stroke:#000000; stroke-width:1"
transform = "rotate(90.000000 431.000000 424.000000)"
/>


<path d="M218.000000 557.000000 C 233.000000 577.000000, 253.000000 598.000000,272.000000 616.000000" stroke="black"  fill="transparent"/>
<path d="M272.000000 616.000000 C 278.000000 622.000000, 286.000000 627.000000,292.000000 631.000000" stroke="black"  fill="transparent"/>

<line
x1="286" y1="627" x2="292" y2="631"
id="0"
style="stroke:black;stroke-width:1.000000;stroke-opacity:0" />


<line
x1="233" y1="577" x2="218" y2="557"
id="reactome_R-HSA-5657641_LEFT_TO_RIGHT-output--to--Complex_f5ea71e79670949fbe5b34f3e82dd213"
style="stroke:black;stroke-width:1.000000;stroke-opacity:0" />


<polygon
points = "218,557 209.2,552.6 209.2,561.4"
id="line"
style="fill:black; stroke:#000000; stroke-width:1"
transform = "rotate(233.130102 218.000000 557.000000)"
/>


<path d="M328.000000 520.000000 C 349.000000 455.000000, 385.000000 342.000000,395.000000 310.000000" stroke="black"  fill="transparent"/>

<line
x1="385" y1="342" x2="395" y2="310"
id="0"
style="stroke:black;stroke-width:1.000000;stroke-opacity:0" />


<line
x1="349" y1="455" x2="328" y2="520"
id="reactome_R-HSA-112121_LEFT_TO_RIGHT-output--to--Complex_fdbf48643f9e921dc061c45fec15a2cb"
style="stroke:black;stroke-width:1.000000;stroke-opacity:0" />


<polygon
points = "328,520 319.2,515.6 319.2,524.4"
id="line"
style="fill:black; stroke:#000000; stroke-width:1"
transform = "rotate(107.904448 328.000000 520.000000)"
/>



</svg>
