<?xml version="1.0" encoding="UTF-8"?>
<svg width="1066.303964" height="772.016506"
xmlns="http://www.w3.org/2000/svg" xmlns:svg="http://www.w3.org/2000/svg"
>
<metadata id="metadata7">image/svg+xml</metadata>

<rect
width="415.461429"
height="463.646981"
rx="11.000000"
ry="11.000000"
x="107.539404"
y="183.000000"
id="nucleoplasm"
style="fill:white;fill-opacity:0.900000;stroke:black;stroke-width:5.000000;stroke-opacity:1.000000" />


<text
x="315.270118"
y="175.000000"
id="nucleoplasm"
style="font-size:6.000000px;text-anchor:middle;font-family:Arial,Helvetica;alignment-baseline:baseline;stroke.opacity:1;dominant-baseline:baseline"
fill="black"
>
nucleoplasm</text>


<rect
width="205.480651"
height="312.117671"
rx="11.000000"
ry="11.000000"
x="530.823313"
y="334.898834"
id="cytosol"
style="fill:white;fill-opacity:0.900000;stroke:black;stroke-width:5.000000;stroke-opacity:1.000000" />


<text
x="633.563638"
y="326.898834"
id="cytosol"
style="font-size:6.000000px;text-anchor:middle;font-family:Arial,Helvetica;alignment-baseline:baseline;stroke.opacity:1;dominant-baseline:baseline"
fill="black"
>
cytosol</text>


<rect
width="80.333333"
height="55.333333"
rx="11.000000"
ry="11.000000"
x="100.000000"
y="427.543889"
id="endoplasmic_reticulum_membrane"
style="fill:white;fill-opacity:0.900000;stroke:black;stroke-width:5.000000;stroke-opacity:1.000000" />



<text
x="140.166667"
y="419.543889"
id="endoplasmic_reticulum_membrane"
style="font-size:6.000000px;text-anchor:middle;font-family:Arial,Helvetica;alignment-baseline:baseline;stroke.opacity:1;dominant-baseline:baseline"
fill="black"
>
endoplasmic reticulum memb-</text>


<text
x="140.166667"
y="425.543889"
id="endoplasmic_reticulum_membrane"
style="font-size:6.000000px;text-anchor:middle;font-family:Arial,Helvetica;alignment-baseline:baseline;stroke.opacity:1;dominant-baseline:baseline"
fill="black"
>
rane</text>



<path
d="M 271.182076968569 368.620926547007 271.182076968569 459.387593213674 276.682076968569 464.887593213674 341.615410301902 464.887593213674 347.115410301902 459.387593213674 347.115410301902 368.620926547007 341.615410301902 363.120926547007 276.682076968569 363.120926547007 Z"
id="Complex_6ac592e141c0f77e1873975ce080eb05"
style="fill:white;fill-opacity:0.600000;stroke-width:1;stroke:black;stroke-opacity:1.000000"
transform = "rotate(0.000000 0.000000 0.000000)"
/>


<text
x="309.148744"
y="355.120927"
id="Complex_6ac592e141c0f77e1873975ce080eb05"
style="font-size:6.000000px;text-anchor:middle;font-family:Arial,Helvetica;alignment-baseline:baseline;stroke.opacity:1;dominant-baseline:baseline"
fill="black"
>
ChREBP:MLX</text>



<ellipse
rx="16.666667"
ry="16.666667"
cx="411.416407"
cy="211.054338"
id="SAS_For_reactome_R-HSA-163733"
style="fill:white;fill-opacity:0.600000;stroke:black;stroke-width:1.000000;stroke-opacity:1.000000" />


<line
x1="394.749739906203" y1="227.721004910344" x2="428.083073239536" y2="194.387671577011"
id="SAS_For_reactome_R-HSA-163733"
style="stroke:black;stroke-width:1.000000;stroke-opacity:1" />


<ellipse
rx="16.666667"
ry="16.666667"
cx="320.512388"
cy="618.980314"
id="SAS_For_reactome_R-HSA-163770"
style="fill:white;fill-opacity:0.600000;stroke:black;stroke-width:1.000000;stroke-opacity:1.000000" />


<line
x1="303.845721095255" y1="635.646980627489" x2="337.179054428588" y2="602.313647294156"
id="SAS_For_reactome_R-HSA-163770"
style="stroke:black;stroke-width:1.000000;stroke-opacity:1" />


<ellipse
rx="16.666667"
ry="16.666667"
cx="135.206070"
cy="330.689482"
id="SAS_For_reactome_R-HSA-163748"
style="fill:white;fill-opacity:0.600000;stroke:black;stroke-width:1.000000;stroke-opacity:1.000000" />


<line
x1="118.539403596249" y1="347.356148693133" x2="151.872736929582" y2="314.0228153598"
id="SAS_For_reactome_R-HSA-163748"
style="stroke:black;stroke-width:1.000000;stroke-opacity:1" />


<ellipse
rx="16.666667"
ry="16.666667"
cx="495.334166"
cy="337.951934"
id="SAS_For_reactome_R-HSA-163743"
style="fill:white;fill-opacity:0.600000;stroke:black;stroke-width:1.000000;stroke-opacity:1.000000" />


<line
x1="478.6674993176" y1="354.618600629304" x2="512.000832650933" y2="321.285267295971"
id="SAS_For_reactome_R-HSA-163743"
style="stroke:black;stroke-width:1.000000;stroke-opacity:1" />


<ellipse
rx="16.666667"
ry="16.666667"
cx="469.093233"
cy="580.390747"
id="SAS_For_reactome_R-HSA-163669"
style="fill:white;fill-opacity:0.600000;stroke:black;stroke-width:1.000000;stroke-opacity:1.000000" />


<line
x1="452.426566706921" y1="597.057413565492" x2="485.759900040254" y2="563.724080232159"
id="SAS_For_reactome_R-HSA-163669"
style="stroke:black;stroke-width:1.000000;stroke-opacity:1" />



<rect
width="58.333333"
height="33.333333"
rx="3.333333"
ry="3.333333"
x="264.741313"
y="194.000000"
id="Protein_808d7bb4c886c9f9aeb4bec3dbebc918"
style="fill:white;fill-opacity:1.000000;stroke:black;stroke-width:1.000000;stroke-opacity:1.000000" />


<text
x="293.907979"
y="212.666667"
id="Protein_808d7bb4c886c9f9aeb4bec3dbebc918"
style="font-size:6.000000px;text-anchor:middle;font-family:Arial,Helvetica;alignment-baseline:baseline;stroke.opacity:1;dominant-baseline:baseline"
fill="black"
>
MLXIPL</text>


<ellipse
rx="14.583333"
ry="7.291667"
cx="279.324646"
cy="194.000000"
id="Protein_808d7bb4c886c9f9aeb4bec3dbebc918.info.1"
style="fill:white;fill-opacity:1.000000;stroke:black;stroke-width:1.000000;stroke-opacity:1.000000" />


<text
x="279.324646"
y="196.000000"
id="Protein_808d7bb4c886c9f9aeb4bec3dbebc918.info.1"
style="font-size:6.000000px;text-anchor:middle;font-family:Arial,Helvetica;alignment-baseline:baseline;stroke.opacity:1;dominant-baseline:baseline"
fill="black"
>
x[1-852]</text>



<rect
width="58.333333"
height="33.333333"
rx="3.333333"
ry="3.333333"
x="279.982077"
y="371.920927"
id="Protein_808d7bb4c886c9f9aeb4bec3dbebc918_Complex_6ac592e141c0f77e1873975ce080eb05"
style="fill:white;fill-opacity:1.000000;stroke:black;stroke-width:1.000000;stroke-opacity:1.000000" />


<text
x="309.148744"
y="390.587593"
id="Protein_808d7bb4c886c9f9aeb4bec3dbebc918_Complex_6ac592e141c0f77e1873975ce080eb05"
style="font-size:6.000000px;text-anchor:middle;font-family:Arial,Helvetica;alignment-baseline:baseline;stroke.opacity:1;dominant-baseline:baseline"
fill="black"
>
MLXIPL</text>


<ellipse
rx="14.583333"
ry="7.291667"
cx="294.565410"
cy="371.920927"
id="Protein_808d7bb4c886c9f9aeb4bec3dbebc918_Complex_6ac592e141c0f77e1873975ce080eb05.info.1"
style="fill:white;fill-opacity:1.000000;stroke:black;stroke-width:1.000000;stroke-opacity:1.000000" />


<text
x="294.565410"
y="373.920927"
id="Protein_808d7bb4c886c9f9aeb4bec3dbebc918_Complex_6ac592e141c0f77e1873975ce080eb05.info.1"
style="font-size:6.000000px;text-anchor:middle;font-family:Arial,Helvetica;alignment-baseline:baseline;stroke.opacity:1;dominant-baseline:baseline"
fill="black"
>
x[1-852]</text>



<rect
width="58.333333"
height="33.333333"
rx="3.333333"
ry="3.333333"
x="279.982077"
y="422.754260"
id="Protein_56e916911058f10caad878569d3439f8_Complex_6ac592e141c0f77e1873975ce080eb05"
style="fill:white;fill-opacity:1.000000;stroke:black;stroke-width:1.000000;stroke-opacity:1.000000" />


<text
x="309.148744"
y="441.420927"
id="Protein_56e916911058f10caad878569d3439f8_Complex_6ac592e141c0f77e1873975ce080eb05"
style="font-size:6.000000px;text-anchor:middle;font-family:Arial,Helvetica;alignment-baseline:baseline;stroke.opacity:1;dominant-baseline:baseline"
fill="black"
>
MLX</text>


<ellipse
rx="14.583333"
ry="7.291667"
cx="294.565410"
cy="422.754260"
id="Protein_56e916911058f10caad878569d3439f8_Complex_6ac592e141c0f77e1873975ce080eb05.info.1"
style="fill:white;fill-opacity:1.000000;stroke:black;stroke-width:1.000000;stroke-opacity:1.000000" />


<text
x="294.565410"
y="424.754260"
id="Protein_56e916911058f10caad878569d3439f8_Complex_6ac592e141c0f77e1873975ce080eb05.info.1"
style="font-size:6.000000px;text-anchor:middle;font-family:Arial,Helvetica;alignment-baseline:baseline;stroke.opacity:1;dominant-baseline:baseline"
fill="black"
>
x[1-298]</text>



<rect
width="58.333333"
height="33.333333"
rx="3.333333"
ry="3.333333"
x="151.149748"
y="209.432432"
id="Protein_56e916911058f10caad878569d3439f8"
style="fill:white;fill-opacity:1.000000;stroke:black;stroke-width:1.000000;stroke-opacity:1.000000" />


<text
x="180.316414"
y="228.099098"
id="Protein_56e916911058f10caad878569d3439f8"
style="font-size:6.000000px;text-anchor:middle;font-family:Arial,Helvetica;alignment-baseline:baseline;stroke.opacity:1;dominant-baseline:baseline"
fill="black"
>
MLX</text>


<ellipse
rx="14.583333"
ry="7.291667"
cx="165.733081"
cy="209.432432"
id="Protein_56e916911058f10caad878569d3439f8.info.1"
style="fill:white;fill-opacity:1.000000;stroke:black;stroke-width:1.000000;stroke-opacity:1.000000" />


<text
x="165.733081"
y="211.432432"
id="Protein_56e916911058f10caad878569d3439f8.info.1"
style="font-size:6.000000px;text-anchor:middle;font-family:Arial,Helvetica;alignment-baseline:baseline;stroke.opacity:1;dominant-baseline:baseline"
fill="black"
>
x[1-298]</text>


<rect
width="16.666667"
height="16.666667"
rx="0.000000"
ry="0.000000"
x="479.106018"
y="414.848186"
id="reactome_R-HSA-163743"
style="fill:white;fill-opacity:0.600000;stroke:black;stroke-width:1.000000;stroke-opacity:1.000000" />



<rect
width="16.666667"
height="16.666667"
rx="0.000000"
ry="0.000000"
x="466.998867"
y="489.557986"
id="reactome_R-HSA-163669"
style="fill:white;fill-opacity:0.600000;stroke:black;stroke-width:1.000000;stroke-opacity:1.000000" />



<rect
width="16.666667"
height="16.666667"
rx="0.000000"
ry="0.000000"
x="256.802106"
y="284.953008"
id="reactome_R-HSA-163666_LEFT_TO_RIGHT"
style="fill:white;fill-opacity:0.600000;stroke:black;stroke-width:1.000000;stroke-opacity:1.000000" />



<rect
width="16.666667"
height="16.666667"
rx="0.000000"
ry="0.000000"
x="206.503797"
y="372.324935"
id="reactome_R-HSA-163748"
style="fill:white;fill-opacity:0.600000;stroke:black;stroke-width:1.000000;stroke-opacity:1.000000" />



<rect
width="16.666667"
height="16.666667"
rx="0.000000"
ry="0.000000"
x="383.544802"
y="544.330051"
id="reactome_R-HSA-163770"
style="fill:white;fill-opacity:0.600000;stroke:black;stroke-width:1.000000;stroke-opacity:1.000000" />



<rect
width="16.666667"
height="16.666667"
rx="0.000000"
ry="0.000000"
x="412.308841"
y="289.667740"
id="reactome_R-HSA-163733"
style="fill:white;fill-opacity:0.600000;stroke:black;stroke-width:1.000000;stroke-opacity:1.000000" />




<rect
width="58.333333"
height="33.333333"
rx="3.333333"
ry="3.333333"
x="666.970630"
y="407.944792"
id="Protein_7b8962a8cce36fb090a3c70674f98087"
style="fill:white;fill-opacity:1.000000;stroke:black;stroke-width:1.000000;stroke-opacity:1.000000" />


<text
x="696.137297"
y="426.611458"
id="Protein_7b8962a8cce36fb090a3c70674f98087"
style="font-size:6.000000px;text-anchor:middle;font-family:Arial,Helvetica;alignment-baseline:baseline;stroke.opacity:1;dominant-baseline:baseline"
fill="black"
>
ACC</text>



<rect
width="58.333333"
height="33.333333"
rx="3.333333"
ry="3.333333"
x="641.162353"
y="515.500277"
id="Protein_208e8bbaa57c49b0b969d4cd4b5b0700"
style="fill:white;fill-opacity:1.000000;stroke:black;stroke-width:1.000000;stroke-opacity:1.000000" />


<text
x="670.329020"
y="534.166944"
id="Protein_208e8bbaa57c49b0b969d4cd4b5b0700"
style="font-size:6.000000px;text-anchor:middle;font-family:Arial,Helvetica;alignment-baseline:baseline;stroke.opacity:1;dominant-baseline:baseline"
fill="black"
>
PKLR</text>


<ellipse
rx="14.583333"
ry="7.291667"
cx="655.745687"
cy="515.500277"
id="Protein_208e8bbaa57c49b0b969d4cd4b5b0700.info.1"
style="fill:white;fill-opacity:1.000000;stroke:black;stroke-width:1.000000;stroke-opacity:1.000000" />


<text
x="655.745687"
y="517.500277"
id="Protein_208e8bbaa57c49b0b969d4cd4b5b0700.info.1"
style="font-size:6.000000px;text-anchor:middle;font-family:Arial,Helvetica;alignment-baseline:baseline;stroke.opacity:1;dominant-baseline:baseline"
fill="black"
>
x[1-574]</text>



<rect
width="58.333333"
height="33.333333"
rx="3.333333"
ry="3.333333"
x="565.309794"
y="345.898834"
id="Protein_3ef80e247451e2d5d2999f2aedf45fb5"
style="fill:white;fill-opacity:1.000000;stroke:black;stroke-width:1.000000;stroke-opacity:1.000000" />


<text
x="594.476460"
y="364.565501"
id="Protein_3ef80e247451e2d5d2999f2aedf45fb5"
style="font-size:6.000000px;text-anchor:middle;font-family:Arial,Helvetica;alignment-baseline:baseline;stroke.opacity:1;dominant-baseline:baseline"
fill="black"
>
FASN</text>


<ellipse
rx="14.583333"
ry="7.291667"
cx="579.893127"
cy="345.898834"
id="Protein_3ef80e247451e2d5d2999f2aedf45fb5.info.1"
style="fill:white;fill-opacity:1.000000;stroke:black;stroke-width:1.000000;stroke-opacity:1.000000" />



<text
x="579.893127"
y="338.898834"
id="Protein_3ef80e247451e2d5d2999f2aedf45fb5.info.1"
style="font-size:6.000000px;text-anchor:middle;font-family:Arial,Helvetica;alignment-baseline:baseline;stroke.opacity:1;dominant-baseline:baseline"
fill="black"
>
O-phospho-</text>


<text
x="579.893127"
y="344.898834"
id="Protein_3ef80e247451e2d5d2999f2aedf45fb5.info.1"
style="font-size:6.000000px;text-anchor:middle;font-family:Arial,Helvetica;alignment-baseline:baseline;stroke.opacity:1;dominant-baseline:baseline"
fill="black"
>
pantethei-</text>


<text
x="579.893127"
y="350.898834"
id="Protein_3ef80e247451e2d5d2999f2aedf45fb5.info.1"
style="font-size:6.000000px;text-anchor:middle;font-family:Arial,Helvetica;alignment-baseline:baseline;stroke.opacity:1;dominant-baseline:baseline"
fill="black"
>
ne-L-seri-</text>


<text
x="579.893127"
y="356.898834"
id="Protein_3ef80e247451e2d5d2999f2aedf45fb5.info.1"
style="font-size:6.000000px;text-anchor:middle;font-family:Arial,Helvetica;alignment-baseline:baseline;stroke.opacity:1;dominant-baseline:baseline"
fill="black"
>
ne@2156</text>


<ellipse
rx="14.583333"
ry="7.291667"
cx="579.893127"
cy="379.232168"
id="Protein_3ef80e247451e2d5d2999f2aedf45fb5.state.2"
style="fill:white;fill-opacity:1.000000;stroke:black;stroke-width:1.000000;stroke-opacity:1.000000" />


<text
x="579.893127"
y="381.232168"
id="Protein_3ef80e247451e2d5d2999f2aedf45fb5.state.2"
style="font-size:6.000000px;text-anchor:middle;font-family:Arial,Helvetica;alignment-baseline:baseline;stroke.opacity:1;dominant-baseline:baseline"
fill="black"
>
x[1-2511]</text>



<rect
width="58.333333"
height="33.333333"
rx="3.333333"
ry="3.333333"
x="541.823313"
y="602.683172"
id="Protein_7a27bfe9b106a45f5df43c5101c8c2dd"
style="fill:white;fill-opacity:1.000000;stroke:black;stroke-width:1.000000;stroke-opacity:1.000000" />


<text
x="570.989979"
y="621.349839"
id="Protein_7a27bfe9b106a45f5df43c5101c8c2dd"
style="font-size:6.000000px;text-anchor:middle;font-family:Arial,Helvetica;alignment-baseline:baseline;stroke.opacity:1;dominant-baseline:baseline"
fill="black"
>
ACLY</text>


<ellipse
rx="14.583333"
ry="7.291667"
cx="556.406646"
cy="602.683172"
id="Protein_7a27bfe9b106a45f5df43c5101c8c2dd.info.1"
style="fill:white;fill-opacity:1.000000;stroke:black;stroke-width:1.000000;stroke-opacity:1.000000" />


<text
x="556.406646"
y="604.683172"
id="Protein_7a27bfe9b106a45f5df43c5101c8c2dd.info.1"
style="font-size:6.000000px;text-anchor:middle;font-family:Arial,Helvetica;alignment-baseline:baseline;stroke.opacity:1;dominant-baseline:baseline"
fill="black"
>
x[1-1101]</text>



<rect
width="58.333333"
height="33.333333"
rx="3.333333"
ry="3.333333"
x="111.000000"
y="438.543889"
id="Protein_ac7dc2fb87e33187e0a23f09eef0f0e5"
style="fill:white;fill-opacity:1.000000;stroke:black;stroke-width:1.000000;stroke-opacity:1.000000" />


<text
x="140.166667"
y="457.210555"
id="Protein_ac7dc2fb87e33187e0a23f09eef0f0e5"
style="font-size:6.000000px;text-anchor:middle;font-family:Arial,Helvetica;alignment-baseline:baseline;stroke.opacity:1;dominant-baseline:baseline"
fill="black"
>
AGPAT1</text>


<ellipse
rx="14.583333"
ry="7.291667"
cx="125.583333"
cy="438.543889"
id="Protein_ac7dc2fb87e33187e0a23f09eef0f0e5.info.1"
style="fill:white;fill-opacity:1.000000;stroke:black;stroke-width:1.000000;stroke-opacity:1.000000" />


<text
x="125.583333"
y="440.543889"
id="Protein_ac7dc2fb87e33187e0a23f09eef0f0e5.info.1"
style="font-size:6.000000px;text-anchor:middle;font-family:Arial,Helvetica;alignment-baseline:baseline;stroke.opacity:1;dominant-baseline:baseline"
fill="black"
>
x[1-283]</text>




<path d="M271.000000 400.000000 C 253.000000 394.000000, 234.000000 387.000000,223.000000 383.000000" stroke="black"  fill="transparent"/>

<line
x1="253" y1="394" x2="271" y2="400"
id="0"
style="stroke:black;stroke-width:1.000000;stroke-opacity:0" />


<line
x1="234" y1="387" x2="223" y2="383"
id="Complex_6ac592e141c0f77e1873975ce080eb05--to--reactome_R-HSA-163748"
style="stroke:black;stroke-width:1.000000;stroke-opacity:0" />


<polygon
points = "223,383 209.8,378.6 209.8,387.4"
id="line"
style="fill:white; stroke:#000000; stroke-width:1"
transform = "rotate(199.983107 223.000000 383.000000)"
/>


<path d="M470.000000 563.000000 C 471.000000 546.000000, 473.000000 519.000000,474.000000 506.000000" stroke="black"  fill="transparent"/>

<line
x1="471" y1="546" x2="470" y2="563"
id="0"
style="stroke:black;stroke-width:1.000000;stroke-opacity:0" />


<line
x1="473" y1="519" x2="474" y2="506"
id="SAS_For_reactome_R-HSA-163669--to--reactome_R-HSA-163669-input"
style="stroke:black;stroke-width:1.000000;stroke-opacity:0" />


<polygon
points = "474,506 460.8,501.6 465.2,506 460.8,510.4"
id="line"
style="fill:black; stroke:#000000; stroke-width:1"
transform = "rotate(-85.601295 474.000000 506.000000)"
/>


<path d="M347.000000 415.000000 C 389.000000 418.000000, 455.000000 421.000000,479.000000 422.000000" stroke="black"  fill="transparent"/>

<line
x1="389" y1="418" x2="347" y2="415"
id="0"
style="stroke:black;stroke-width:1.000000;stroke-opacity:0" />


<line
x1="455" y1="421" x2="479" y2="422"
id="Complex_6ac592e141c0f77e1873975ce080eb05--to--reactome_R-HSA-163743"
style="stroke:black;stroke-width:1.000000;stroke-opacity:0" />


<polygon
points = "479,422 465.8,417.6 465.8,426.4"
id="line"
style="fill:white; stroke:#000000; stroke-width:1"
transform = "rotate(2.385944 479.000000 422.000000)"
/>


<path d="M347.000000 374.000000 C 370.000000 349.000000, 398.000000 320.000000,412.000000 306.000000" stroke="black"  fill="transparent"/>

<line
x1="370" y1="349" x2="347" y2="374"
id="0"
style="stroke:black;stroke-width:1.000000;stroke-opacity:0" />


<line
x1="398" y1="320" x2="412" y2="306"
id="Complex_6ac592e141c0f77e1873975ce080eb05--to--reactome_R-HSA-163733"
style="stroke:black;stroke-width:1.000000;stroke-opacity:0" />


<polygon
points = "412,306 398.8,301.6 398.8,310.4"
id="line"
style="fill:white; stroke:#000000; stroke-width:1"
transform = "rotate(-45.000000 412.000000 306.000000)"
/>


<path d="M290.000000 362.000000 C 282.000000 339.000000, 272.000000 314.000000,268.000000 301.000000" stroke="black"  fill="transparent"/>

<line
x1="272" y1="314" x2="268" y2="301"
id="0"
style="stroke:black;stroke-width:1.000000;stroke-opacity:0" />


<line
x1="282" y1="339" x2="290" y2="362"
id="reactome_R-HSA-163666_LEFT_TO_RIGHT-output--to--Complex_6ac592e141c0f77e1873975ce080eb05"
style="stroke:black;stroke-width:1.000000;stroke-opacity:0" />


<polygon
points = "290,362 281.2,357.6 281.2,366.4"
id="line"
style="fill:black; stroke:#000000; stroke-width:1"
transform = "rotate(70.820992 290.000000 362.000000)"
/>


<path d="M347.000000 433.000000 C 386.000000 453.000000, 445.000000 482.000000,466.000000 493.000000" stroke="black"  fill="transparent"/>

<line
x1="386" y1="453" x2="347" y2="433"
id="0"
style="stroke:black;stroke-width:1.000000;stroke-opacity:0" />


<line
x1="445" y1="482" x2="466" y2="493"
id="Complex_6ac592e141c0f77e1873975ce080eb05--to--reactome_R-HSA-163669"
style="stroke:black;stroke-width:1.000000;stroke-opacity:0" />


<polygon
points = "466,493 452.8,488.6 452.8,497.4"
id="line"
style="fill:white; stroke:#000000; stroke-width:1"
transform = "rotate(27.645975 466.000000 493.000000)"
/>


<path d="M428.000000 298.000000 C 445.000000 301.000000, 484.000000 306.000000,515.000000 318.000000" stroke="black"  fill="transparent"/>
<path d="M515.000000 318.000000 C 534.000000 325.000000, 554.000000 336.000000,569.000000 345.000000" stroke="black"  fill="transparent"/>

<line
x1="445" y1="301" x2="428" y2="298"
id="0"
style="stroke:black;stroke-width:1.000000;stroke-opacity:0" />


<line
x1="554" y1="336" x2="569" y2="345"
id="reactome_R-HSA-163733-output--to--Protein_3ef80e247451e2d5d2999f2aedf45fb5"
style="stroke:black;stroke-width:1.000000;stroke-opacity:0" />


<polygon
points = "569,345 560.2,340.6 560.2,349.4"
id="line"
style="fill:black; stroke:#000000; stroke-width:1"
transform = "rotate(30.963757 569.000000 345.000000)"
/>


<path d="M337.000000 603.000000 C 351.000000 590.000000, 371.000000 571.000000,383.000000 560.000000" stroke="black"  fill="transparent"/>

<line
x1="351" y1="590" x2="337" y2="603"
id="0"
style="stroke:black;stroke-width:1.000000;stroke-opacity:0" />


<line
x1="371" y1="571" x2="383" y2="560"
id="SAS_For_reactome_R-HSA-163770--to--reactome_R-HSA-163770-input"
style="stroke:black;stroke-width:1.000000;stroke-opacity:0" />


<polygon
points = "383,560 369.8,555.6 374.2,560 369.8,564.4"
id="line"
style="fill:black; stroke:#000000; stroke-width:1"
transform = "rotate(-42.510447 383.000000 560.000000)"
/>


<path d="M483.000000 499.000000 C 510.000000 504.000000, 595.000000 519.000000,641.000000 527.000000" stroke="black"  fill="transparent"/>

<line
x1="510" y1="504" x2="483" y2="499"
id="0"
style="stroke:black;stroke-width:1.000000;stroke-opacity:0" />


<line
x1="595" y1="519" x2="641" y2="527"
id="reactome_R-HSA-163669-output--to--Protein_208e8bbaa57c49b0b969d4cd4b5b0700"
style="stroke:black;stroke-width:1.000000;stroke-opacity:0" />


<polygon
points = "641,527 632.2,522.6 632.2,531.4"
id="line"
style="fill:black; stroke:#000000; stroke-width:1"
transform = "rotate(9.865807 641.000000 527.000000)"
/>


<path d="M495.000000 423.000000 C 524.000000 423.000000, 618.000000 424.000000,666.000000 424.000000" stroke="black"  fill="transparent"/>

<line
x1="524" y1="423" x2="495" y2="423"
id="0"
style="stroke:black;stroke-width:1.000000;stroke-opacity:0" />


<line
x1="618" y1="424" x2="666" y2="424"
id="reactome_R-HSA-163743-output--to--Protein_7b8962a8cce36fb090a3c70674f98087"
style="stroke:black;stroke-width:1.000000;stroke-opacity:0" />


<polygon
points = "666,424 657.2,419.6 657.2,428.4"
id="line"
style="fill:black; stroke:#000000; stroke-width:1"
transform = "rotate(-0.000000 666.000000 424.000000)"
/>


<path d="M288.000000 227.000000 C 282.000000 244.000000, 272.000000 271.000000,268.000000 284.000000" stroke="black"  fill="transparent"/>

<line
x1="282" y1="244" x2="288" y2="227"
id="0"
style="stroke:black;stroke-width:1.000000;stroke-opacity:0" />


<line
x1="272" y1="271" x2="268" y2="284"
id="Protein_808d7bb4c886c9f9aeb4bec3dbebc918--to--reactome_R-HSA-163666_LEFT_TO_RIGHT-input"
style="stroke:black;stroke-width:1.000000;stroke-opacity:0" />


<path d="M493.000000 354.000000 C 492.000000 372.000000, 489.000000 400.000000,488.000000 414.000000" stroke="black"  fill="transparent"/>

<line
x1="492" y1="372" x2="493" y2="354"
id="0"
style="stroke:black;stroke-width:1.000000;stroke-opacity:0" />


<line
x1="489" y1="400" x2="488" y2="414"
id="SAS_For_reactome_R-HSA-163743--to--reactome_R-HSA-163743-input"
style="stroke:black;stroke-width:1.000000;stroke-opacity:0" />


<polygon
points = "488,414 474.8,409.6 479.2,414 474.8,418.4"
id="line"
style="fill:black; stroke:#000000; stroke-width:1"
transform = "rotate(94.085617 488.000000 414.000000)"
/>


<path d="M339.000000 465.000000 C 357.000000 494.000000, 377.000000 528.000000,386.000000 544.000000" stroke="black"  fill="transparent"/>

<line
x1="357" y1="494" x2="339" y2="465"
id="0"
style="stroke:black;stroke-width:1.000000;stroke-opacity:0" />


<line
x1="377" y1="528" x2="386" y2="544"
id="Complex_6ac592e141c0f77e1873975ce080eb05--to--reactome_R-HSA-163770"
style="stroke:black;stroke-width:1.000000;stroke-opacity:0" />


<polygon
points = "386,544 372.8,539.6 372.8,548.4"
id="line"
style="fill:white; stroke:#000000; stroke-width:1"
transform = "rotate(60.642246 386.000000 544.000000)"
/>


<path d="M152.000000 341.000000 C 168.000000 351.000000, 193.000000 367.000000,206.000000 375.000000" stroke="black"  fill="transparent"/>

<line
x1="168" y1="351" x2="152" y2="341"
id="0"
style="stroke:black;stroke-width:1.000000;stroke-opacity:0" />


<line
x1="193" y1="367" x2="206" y2="375"
id="SAS_For_reactome_R-HSA-163748--to--reactome_R-HSA-163748-input"
style="stroke:black;stroke-width:1.000000;stroke-opacity:0" />


<polygon
points = "206,375 192.8,370.6 197.2,375 192.8,379.4"
id="line"
style="fill:black; stroke:#000000; stroke-width:1"
transform = "rotate(31.607502 206.000000 375.000000)"
/>


<path d="M399.000000 561.000000 C 409.000000 572.000000, 428.000000 590.000000,449.000000 600.000000" stroke="black"  fill="transparent"/>
<path d="M449.000000 600.000000 C 479.000000 613.000000, 516.000000 617.000000,541.000000 619.000000" stroke="black"  fill="transparent"/>

<line
x1="409" y1="572" x2="399" y2="561"
id="0"
style="stroke:black;stroke-width:1.000000;stroke-opacity:0" />


<line
x1="516" y1="617" x2="541" y2="619"
id="reactome_R-HSA-163770-output--to--Protein_7a27bfe9b106a45f5df43c5101c8c2dd"
style="stroke:black;stroke-width:1.000000;stroke-opacity:0" />


<polygon
points = "541,619 532.2,614.6 532.2,623.4"
id="line"
style="fill:black; stroke:#000000; stroke-width:1"
transform = "rotate(4.573921 541.000000 619.000000)"
/>


<path d="M413.000000 227.000000 C 415.000000 246.000000, 418.000000 274.000000,419.000000 289.000000" stroke="black"  fill="transparent"/>

<line
x1="415" y1="246" x2="413" y2="227"
id="0"
style="stroke:black;stroke-width:1.000000;stroke-opacity:0" />


<line
x1="418" y1="274" x2="419" y2="289"
id="SAS_For_reactome_R-HSA-163733--to--reactome_R-HSA-163733-input"
style="stroke:black;stroke-width:1.000000;stroke-opacity:0" />


<polygon
points = "419,289 405.8,284.6 410.2,289 405.8,293.4"
id="line"
style="fill:black; stroke:#000000; stroke-width:1"
transform = "rotate(86.185925 419.000000 289.000000)"
/>


<path d="M206.000000 388.000000 C 194.000000 400.000000, 172.000000 423.000000,156.000000 438.000000" stroke="black"  fill="transparent"/>

<line
x1="194" y1="400" x2="206" y2="388"
id="0"
style="stroke:black;stroke-width:1.000000;stroke-opacity:0" />


<line
x1="172" y1="423" x2="156" y2="438"
id="reactome_R-HSA-163748-output--to--Protein_ac7dc2fb87e33187e0a23f09eef0f0e5"
style="stroke:black;stroke-width:1.000000;stroke-opacity:0" />


<polygon
points = "156,438 147.2,433.6 147.2,442.4"
id="line"
style="fill:black; stroke:#000000; stroke-width:1"
transform = "rotate(136.847610 156.000000 438.000000)"
/>


<path d="M201.000000 242.000000 C 219.000000 256.000000, 243.000000 276.000000,256.000000 286.000000" stroke="black"  fill="transparent"/>

<line
x1="219" y1="256" x2="201" y2="242"
id="0"
style="stroke:black;stroke-width:1.000000;stroke-opacity:0" />


<line
x1="243" y1="276" x2="256" y2="286"
id="Protein_56e916911058f10caad878569d3439f8--to--reactome_R-HSA-163666_LEFT_TO_RIGHT-input"
style="stroke:black;stroke-width:1.000000;stroke-opacity:0" />



</svg>
