<?xml version="1.0" encoding="UTF-8"?>
<svg width="846.586068" height="634.596672"
xmlns="http://www.w3.org/2000/svg" xmlns:svg="http://www.w3.org/2000/svg"
>
<metadata id="metadata7">image/svg+xml</metadata>





<ellipse
rx="16.666667"
ry="16.666667"
cx="338.362911"
cy="303.411807"
id="SmallMolecule_0db4df0d8ff93222bae0a2ae2d7b54f9"
style="fill:white;fill-opacity:0.000000;stroke:black;stroke-width:1.000000;stroke-opacity:1.000000" />


<text
x="338.362911"
y="305.411807"
id="SmallMolecule_0db4df0d8ff93222bae0a2ae2d7b54f9"
style="font-size:6.000000px;text-anchor:middle;font-family:Arial,Helvetica;alignment-baseline:baseline;stroke.opacity:1;dominant-baseline:baseline"
fill="black"
>
glutamate</text>


<rect
width="16.666667"
height="16.666667"
rx="0.000000"
ry="0.000000"
x="400.143828"
y="246.036999"
id="BiochemicalReaction_f1da1bc3af395735461dfb69612e928b_LEFT_TO_RIGHT"
style="fill:white;fill-opacity:0.600000;stroke:black;stroke-width:1.000000;stroke-opacity:1.000000" />




<ellipse
rx="16.666667"
ry="16.666667"
cx="280.801237"
cy="417.930006"
id="SmallMolecule_067280b8b822ca79f313ec8eebae1ca8"
style="fill:white;fill-opacity:0.000000;stroke:black;stroke-width:1.000000;stroke-opacity:1.000000" />


<text
x="280.801237"
y="419.930006"
id="SmallMolecule_067280b8b822ca79f313ec8eebae1ca8"
style="font-size:6.000000px;text-anchor:middle;font-family:Arial,Helvetica;alignment-baseline:baseline;stroke.opacity:1;dominant-baseline:baseline"
fill="black"
>
ATP</text>


<rect
width="16.666667"
height="16.666667"
rx="0.000000"
ry="0.000000"
x="415.423198"
y="292.629800"
id="BiochemicalReaction_b70d9710d8a5ff395d972e83bc07307c_LEFT_TO_RIGHT"
style="fill:white;fill-opacity:0.600000;stroke:black;stroke-width:1.000000;stroke-opacity:1.000000" />




<ellipse
rx="16.666667"
ry="16.666667"
cx="347.411090"
cy="367.989924"
id="SmallMolecule_09ba22bf3f6a670f1f975e2cf976df0f"
style="fill:white;fill-opacity:0.000000;stroke:black;stroke-width:1.000000;stroke-opacity:1.000000" />


<text
x="347.411090"
y="369.989924"
id="SmallMolecule_09ba22bf3f6a670f1f975e2cf976df0f"
style="font-size:6.000000px;text-anchor:middle;font-family:Arial,Helvetica;alignment-baseline:baseline;stroke.opacity:1;dominant-baseline:baseline"
fill="black"
>
NH3</text>



<ellipse
rx="16.666667"
ry="16.666667"
cx="204.992306"
cy="402.023488"
id="SmallMolecule_893d4e9a3537b8b355892e0ccabca0cc"
style="fill:white;fill-opacity:0.000000;stroke:black;stroke-width:1.000000;stroke-opacity:1.000000" />


<text
x="204.992306"
y="404.023488"
id="SmallMolecule_893d4e9a3537b8b355892e0ccabca0cc"
style="font-size:6.000000px;text-anchor:middle;font-family:Arial,Helvetica;alignment-baseline:baseline;stroke.opacity:1;dominant-baseline:baseline"
fill="black"
>
PO4</text>



<ellipse
rx="16.666667"
ry="16.666667"
cx="491.511630"
cy="326.296511"
id="SmallMolecule_90955949445215d21d5193ad2f1c2c9d"
style="fill:white;fill-opacity:0.000000;stroke:black;stroke-width:1.000000;stroke-opacity:1.000000" />


<text
x="491.511630"
y="328.296511"
id="SmallMolecule_90955949445215d21d5193ad2f1c2c9d"
style="font-size:6.000000px;text-anchor:middle;font-family:Arial,Helvetica;alignment-baseline:baseline;stroke.opacity:1;dominant-baseline:baseline"
fill="black"
>
NADP</text>


<rect
width="16.666667"
height="16.666667"
rx="0.000000"
ry="0.000000"
x="253.806025"
y="321.478886"
id="BiochemicalReaction_cb1ee5a17dedae2262c36ea3632ae5aa_LEFT_TO_RIGHT"
style="fill:white;fill-opacity:0.600000;stroke:black;stroke-width:1.000000;stroke-opacity:1.000000" />




<rect
width="58.333333"
height="33.333333"
rx="3.333333"
ry="3.333333"
x="338.701631"
y="150.000000"
id="Protein_331b8a93b36e0375f8f901ba1ba0f774"
style="fill:white;fill-opacity:1.000000;stroke:black;stroke-width:1.000000;stroke-opacity:1.000000" />


<text
x="367.868298"
y="168.666667"
id="Protein_331b8a93b36e0375f8f901ba1ba0f774"
style="font-size:6.000000px;text-anchor:middle;font-family:Arial,Helvetica;alignment-baseline:baseline;stroke.opacity:1;dominant-baseline:baseline"
fill="black"
>
Glutamine synthase</text>



<ellipse
rx="16.666667"
ry="16.666667"
cx="311.153819"
cy="240.474621"
id="SmallMolecule_6b667c13809c8a69a3ea862004aea2e6"
style="fill:white;fill-opacity:0.000000;stroke:black;stroke-width:1.000000;stroke-opacity:1.000000" />


<text
x="311.153819"
y="242.474621"
id="SmallMolecule_6b667c13809c8a69a3ea862004aea2e6"
style="font-size:6.000000px;text-anchor:middle;font-family:Arial,Helvetica;alignment-baseline:baseline;stroke.opacity:1;dominant-baseline:baseline"
fill="black"
>
glutamine</text>



<ellipse
rx="16.666667"
ry="16.666667"
cx="202.922884"
cy="291.338884"
id="SmallMolecule_68d9752916a73cd26503beaec2ab3811"
style="fill:white;fill-opacity:0.000000;stroke:black;stroke-width:1.000000;stroke-opacity:1.000000" />


<text
x="202.922884"
y="293.338884"
id="SmallMolecule_68d9752916a73cd26503beaec2ab3811"
style="font-size:6.000000px;text-anchor:middle;font-family:Arial,Helvetica;alignment-baseline:baseline;stroke.opacity:1;dominant-baseline:baseline"
fill="black"
>
ADP</text>



<rect
width="58.333333"
height="33.333333"
rx="3.333333"
ry="3.333333"
x="100.000000"
y="261.075993"
id="Protein_4fe4f712affecd0e6ad07ecdeaecea5f"
style="fill:white;fill-opacity:1.000000;stroke:black;stroke-width:1.000000;stroke-opacity:1.000000" />


<text
x="129.166667"
y="279.742660"
id="Protein_4fe4f712affecd0e6ad07ecdeaecea5f"
style="font-size:6.000000px;text-anchor:middle;font-family:Arial,Helvetica;alignment-baseline:baseline;stroke.opacity:1;dominant-baseline:baseline"
fill="black"
>
Glutamine synthetase</text>



<rect
width="58.333333"
height="33.333333"
rx="3.333333"
ry="3.333333"
x="406.303575"
y="375.942076"
id="Protein_19140271e2157e8262dc40404c8da387"
style="fill:white;fill-opacity:1.000000;stroke:black;stroke-width:1.000000;stroke-opacity:1.000000" />



<text
x="435.470242"
y="391.608743"
id="Protein_19140271e2157e8262dc40404c8da387"
style="font-size:6.000000px;text-anchor:middle;font-family:Arial,Helvetica;alignment-baseline:baseline;stroke.opacity:1;dominant-baseline:baseline"
fill="black"
>
Glutamate Dehydroge-</text>


<text
x="435.470242"
y="397.608743"
id="Protein_19140271e2157e8262dc40404c8da387"
style="font-size:6.000000px;text-anchor:middle;font-family:Arial,Helvetica;alignment-baseline:baseline;stroke.opacity:1;dominant-baseline:baseline"
fill="black"
>
nase</text>



<ellipse
rx="16.666667"
ry="16.666667"
cx="465.386032"
cy="197.171476"
id="SmallMolecule_4438965cd7c13112c068823a9948733a"
style="fill:white;fill-opacity:0.000000;stroke:black;stroke-width:1.000000;stroke-opacity:1.000000" />


<text
x="465.386032"
y="199.171476"
id="SmallMolecule_4438965cd7c13112c068823a9948733a"
style="font-size:6.000000px;text-anchor:middle;font-family:Arial,Helvetica;alignment-baseline:baseline;stroke.opacity:1;dominant-baseline:baseline"
fill="black"
>
NADPH</text>



<ellipse
rx="16.666667"
ry="16.666667"
cx="499.919402"
cy="259.527565"
id="SmallMolecule_9849c3784a22199b70025171987748e9"
style="fill:white;fill-opacity:0.000000;stroke:black;stroke-width:1.000000;stroke-opacity:1.000000" />



<text
x="499.919402"
y="258.527565"
id="SmallMolecule_9849c3784a22199b70025171987748e9"
style="font-size:6.000000px;text-anchor:middle;font-family:Arial,Helvetica;alignment-baseline:baseline;stroke.opacity:1;dominant-baseline:baseline"
fill="black"
>
2-ketogluta-</text>


<text
x="499.919402"
y="264.527565"
id="SmallMolecule_9849c3784a22199b70025171987748e9"
style="font-size:6.000000px;text-anchor:middle;font-family:Arial,Helvetica;alignment-baseline:baseline;stroke.opacity:1;dominant-baseline:baseline"
fill="black"
>
rate</text>




<path d="M321.000000 309.000000 C 306.000000 314.000000, 283.000000 322.000000,271.000000 326.000000" stroke="black"  fill="transparent"/>

<line
x1="306" y1="314" x2="321" y2="309"
id="0"
style="stroke:black;stroke-width:1.000000;stroke-opacity:0" />


<line
x1="283" y1="322" x2="271" y2="326"
id="SmallMolecule_0db4df0d8ff93222bae0a2ae2d7b54f9--to--BiochemicalReaction_cb1ee5a17dedae2262c36ea3632ae5aa_LEFT_TO_RIGHT-input"
style="stroke:black;stroke-width:1.000000;stroke-opacity:0" />


<path d="M416.000000 261.000000 C 430.000000 273.000000, 457.000000 296.000000,474.000000 311.000000" stroke="black"  fill="transparent"/>

<line
x1="430" y1="273" x2="416" y2="261"
id="0"
style="stroke:black;stroke-width:1.000000;stroke-opacity:0" />


<line
x1="457" y1="296" x2="474" y2="311"
id="BiochemicalReaction_f1da1bc3af395735461dfb69612e928b_LEFT_TO_RIGHT-output--to--SmallMolecule_90955949445215d21d5193ad2f1c2c9d"
style="stroke:black;stroke-width:1.000000;stroke-opacity:0" />


<polygon
points = "474,311 465.2,306.6 465.2,315.4"
id="line"
style="fill:black; stroke:#000000; stroke-width:1"
transform = "rotate(41.423666 474.000000 311.000000)"
/>


<path d="M400.000000 253.000000 C 384.000000 250.000000, 348.000000 245.000000,327.000000 242.000000" stroke="black"  fill="transparent"/>

<line
x1="348" y1="245" x2="327" y2="242"
id="0"
style="stroke:black;stroke-width:1.000000;stroke-opacity:0" />


<line
x1="384" y1="250" x2="400" y2="253"
id="SmallMolecule_6b667c13809c8a69a3ea862004aea2e6--to--BiochemicalReaction_f1da1bc3af395735461dfb69612e928b_LEFT_TO_RIGHT-input"
style="stroke:black;stroke-width:1.000000;stroke-opacity:0" />


<path d="M432.000000 304.000000 C 442.000000 308.000000, 461.000000 315.000000,475.000000 320.000000" stroke="black"  fill="transparent"/>

<line
x1="442" y1="308" x2="432" y2="304"
id="0"
style="stroke:black;stroke-width:1.000000;stroke-opacity:0" />


<line
x1="461" y1="315" x2="475" y2="320"
id="BiochemicalReaction_b70d9710d8a5ff395d972e83bc07307c_LEFT_TO_RIGHT-output--to--SmallMolecule_90955949445215d21d5193ad2f1c2c9d"
style="stroke:black;stroke-width:1.000000;stroke-opacity:0" />


<polygon
points = "475,320 466.2,315.6 466.2,324.4"
id="line"
style="fill:black; stroke:#000000; stroke-width:1"
transform = "rotate(19.653824 475.000000 320.000000)"
/>


<path d="M424.000000 309.000000 C 426.000000 324.000000, 430.000000 356.000000,433.000000 375.000000" stroke="black"  fill="transparent"/>

<line
x1="430" y1="356" x2="433" y2="375"
id="0"
style="stroke:black;stroke-width:1.000000;stroke-opacity:0" />


<line
x1="426" y1="324" x2="424" y2="309"
id="Protein_19140271e2157e8262dc40404c8da387--to--BiochemicalReaction_b70d9710d8a5ff395d972e83bc07307c_LEFT_TO_RIGHT"
style="stroke:black;stroke-width:1.000000;stroke-opacity:0" />


<ellipse
rx="4.400000"
ry="4.400000"
cx="424.581520"
cy="313.361403"
id="Protein_19140271e2157e8262dc40404c8da387--to--BiochemicalReaction_b70d9710d8a5ff395d972e83bc07307c_LEFT_TO_RIGHT"
style="fill:white;fill-opacity:0.800000;stroke:black;stroke-width:1.000000;stroke-opacity:1.000000" />


<path d="M277.000000 401.000000 C 273.000000 382.000000, 267.000000 353.000000,264.000000 338.000000" stroke="black"  fill="transparent"/>

<line
x1="273" y1="382" x2="277" y2="401"
id="0"
style="stroke:black;stroke-width:1.000000;stroke-opacity:0" />


<line
x1="267" y1="353" x2="264" y2="338"
id="SmallMolecule_067280b8b822ca79f313ec8eebae1ca8--to--BiochemicalReaction_cb1ee5a17dedae2262c36ea3632ae5aa_LEFT_TO_RIGHT-input"
style="stroke:black;stroke-width:1.000000;stroke-opacity:0" />


<path d="M416.000000 245.000000 C 425.000000 237.000000, 438.000000 224.000000,448.000000 213.000000" stroke="black"  fill="transparent"/>

<line
x1="438" y1="224" x2="448" y2="213"
id="0"
style="stroke:black;stroke-width:1.000000;stroke-opacity:0" />


<line
x1="425" y1="237" x2="416" y2="245"
id="SmallMolecule_4438965cd7c13112c068823a9948733a--to--BiochemicalReaction_f1da1bc3af395735461dfb69612e928b_LEFT_TO_RIGHT-input"
style="stroke:black;stroke-width:1.000000;stroke-opacity:0" />


<path d="M416.000000 254.000000 C 431.000000 255.000000, 463.000000 257.000000,483.000000 258.000000" stroke="black"  fill="transparent"/>

<line
x1="463" y1="257" x2="483" y2="258"
id="0"
style="stroke:black;stroke-width:1.000000;stroke-opacity:0" />


<line
x1="431" y1="255" x2="416" y2="254"
id="SmallMolecule_9849c3784a22199b70025171987748e9--to--BiochemicalReaction_f1da1bc3af395735461dfb69612e928b_LEFT_TO_RIGHT-input"
style="stroke:black;stroke-width:1.000000;stroke-opacity:0" />


<path d="M354.000000 291.000000 C 369.000000 281.000000, 388.000000 268.000000,399.000000 260.000000" stroke="black"  fill="transparent"/>

<line
x1="388" y1="268" x2="399" y2="260"
id="0"
style="stroke:black;stroke-width:1.000000;stroke-opacity:0" />


<line
x1="369" y1="281" x2="354" y2="291"
id="BiochemicalReaction_f1da1bc3af395735461dfb69612e928b_LEFT_TO_RIGHT-output--to--SmallMolecule_0db4df0d8ff93222bae0a2ae2d7b54f9"
style="stroke:black;stroke-width:1.000000;stroke-opacity:0" />


<polygon
points = "354,291 345.2,286.6 345.2,295.4"
id="line"
style="fill:black; stroke:#000000; stroke-width:1"
transform = "rotate(146.309932 354.000000 291.000000)"
/>


<path d="M253.000000 324.000000 C 244.000000 318.000000, 230.000000 309.000000,219.000000 302.000000" stroke="black"  fill="transparent"/>

<line
x1="244" y1="318" x2="253" y2="324"
id="0"
style="stroke:black;stroke-width:1.000000;stroke-opacity:0" />


<line
x1="230" y1="309" x2="219" y2="302"
id="BiochemicalReaction_cb1ee5a17dedae2262c36ea3632ae5aa_LEFT_TO_RIGHT-output--to--SmallMolecule_68d9752916a73cd26503beaec2ab3811"
style="stroke:black;stroke-width:1.000000;stroke-opacity:0" />


<polygon
points = "219,302 210.2,297.6 210.2,306.4"
id="line"
style="fill:black; stroke:#000000; stroke-width:1"
transform = "rotate(212.471192 219.000000 302.000000)"
/>


<path d="M330.000000 360.000000 C 312.000000 352.000000, 284.000000 339.000000,270.000000 333.000000" stroke="black"  fill="transparent"/>

<line
x1="312" y1="352" x2="330" y2="360"
id="0"
style="stroke:black;stroke-width:1.000000;stroke-opacity:0" />


<line
x1="284" y1="339" x2="270" y2="333"
id="SmallMolecule_09ba22bf3f6a670f1f975e2cf976df0f--to--BiochemicalReaction_cb1ee5a17dedae2262c36ea3632ae5aa_LEFT_TO_RIGHT-input"
style="stroke:black;stroke-width:1.000000;stroke-opacity:0" />


<path d="M253.000000 328.000000 C 238.000000 326.000000, 207.000000 321.000000,183.000000 311.000000" stroke="black"  fill="transparent"/>
<path d="M183.000000 311.000000 C 172.000000 306.000000, 161.000000 300.000000,152.000000 294.000000" stroke="black"  fill="transparent"/>

<line
x1="161" y1="300" x2="152" y2="294"
id="0"
style="stroke:black;stroke-width:1.000000;stroke-opacity:0" />


<line
x1="238" y1="326" x2="253" y2="328"
id="Protein_4fe4f712affecd0e6ad07ecdeaecea5f--to--BiochemicalReaction_cb1ee5a17dedae2262c36ea3632ae5aa_LEFT_TO_RIGHT"
style="stroke:black;stroke-width:1.000000;stroke-opacity:0" />


<ellipse
rx="4.400000"
ry="4.400000"
cx="248.638597"
cy="327.418480"
id="Protein_4fe4f712affecd0e6ad07ecdeaecea5f--to--BiochemicalReaction_cb1ee5a17dedae2262c36ea3632ae5aa_LEFT_TO_RIGHT"
style="fill:white;fill-opacity:0.800000;stroke:black;stroke-width:1.000000;stroke-opacity:1.000000" />


<path d="M432.000000 296.000000 C 444.000000 289.000000, 467.000000 277.000000,483.000000 268.000000" stroke="black"  fill="transparent"/>

<line
x1="467" y1="277" x2="483" y2="268"
id="0"
style="stroke:black;stroke-width:1.000000;stroke-opacity:0" />


<line
x1="444" y1="289" x2="432" y2="296"
id="SmallMolecule_9849c3784a22199b70025171987748e9--to--BiochemicalReaction_b70d9710d8a5ff395d972e83bc07307c_LEFT_TO_RIGHT-input"
style="stroke:black;stroke-width:1.000000;stroke-opacity:0" />


<path d="M415.000000 308.000000 C 402.000000 319.000000, 379.000000 339.000000,363.000000 353.000000" stroke="black"  fill="transparent"/>

<line
x1="379" y1="339" x2="363" y2="353"
id="0"
style="stroke:black;stroke-width:1.000000;stroke-opacity:0" />


<line
x1="402" y1="319" x2="415" y2="308"
id="SmallMolecule_09ba22bf3f6a670f1f975e2cf976df0f--to--BiochemicalReaction_b70d9710d8a5ff395d972e83bc07307c_LEFT_TO_RIGHT-input"
style="stroke:black;stroke-width:1.000000;stroke-opacity:0" />


<path d="M218.000000 385.000000 C 229.000000 370.000000, 246.000000 349.000000,255.000000 338.000000" stroke="black"  fill="transparent"/>

<line
x1="246" y1="349" x2="255" y2="338"
id="0"
style="stroke:black;stroke-width:1.000000;stroke-opacity:0" />


<line
x1="229" y1="370" x2="218" y2="385"
id="BiochemicalReaction_cb1ee5a17dedae2262c36ea3632ae5aa_LEFT_TO_RIGHT-output--to--SmallMolecule_893d4e9a3537b8b355892e0ccabca0cc"
style="stroke:black;stroke-width:1.000000;stroke-opacity:0" />


<polygon
points = "218,385 209.2,380.6 209.2,389.4"
id="line"
style="fill:black; stroke:#000000; stroke-width:1"
transform = "rotate(126.253838 218.000000 385.000000)"
/>


<path d="M266.000000 321.000000 C 274.000000 306.000000, 291.000000 276.000000,302.000000 257.000000" stroke="black"  fill="transparent"/>

<line
x1="274" y1="306" x2="266" y2="321"
id="0"
style="stroke:black;stroke-width:1.000000;stroke-opacity:0" />


<line
x1="291" y1="276" x2="302" y2="257"
id="BiochemicalReaction_cb1ee5a17dedae2262c36ea3632ae5aa_LEFT_TO_RIGHT-output--to--SmallMolecule_6b667c13809c8a69a3ea862004aea2e6"
style="stroke:black;stroke-width:1.000000;stroke-opacity:0" />


<polygon
points = "302,257 293.2,252.6 293.2,261.4"
id="line"
style="fill:black; stroke:#000000; stroke-width:1"
transform = "rotate(-59.931417 302.000000 257.000000)"
/>


<path d="M404.000000 245.000000 C 397.000000 231.000000, 384.000000 201.000000,375.000000 183.000000" stroke="black"  fill="transparent"/>

<line
x1="384" y1="201" x2="375" y2="183"
id="0"
style="stroke:black;stroke-width:1.000000;stroke-opacity:0" />


<line
x1="397" y1="231" x2="404" y2="245"
id="Protein_331b8a93b36e0375f8f901ba1ba0f774--to--BiochemicalReaction_f1da1bc3af395735461dfb69612e928b_LEFT_TO_RIGHT"
style="stroke:black;stroke-width:1.000000;stroke-opacity:0" />


<ellipse
rx="4.400000"
ry="4.400000"
cx="402.032260"
cy="241.064520"
id="Protein_331b8a93b36e0375f8f901ba1ba0f774--to--BiochemicalReaction_f1da1bc3af395735461dfb69612e928b_LEFT_TO_RIGHT"
style="fill:white;fill-opacity:0.800000;stroke:black;stroke-width:1.000000;stroke-opacity:1.000000" />


<path d="M427.000000 292.000000 C 434.000000 274.000000, 449.000000 236.000000,458.000000 213.000000" stroke="black"  fill="transparent"/>

<line
x1="449" y1="236" x2="458" y2="213"
id="0"
style="stroke:black;stroke-width:1.000000;stroke-opacity:0" />


<line
x1="434" y1="274" x2="427" y2="292"
id="SmallMolecule_4438965cd7c13112c068823a9948733a--to--BiochemicalReaction_b70d9710d8a5ff395d972e83bc07307c_LEFT_TO_RIGHT-input"
style="stroke:black;stroke-width:1.000000;stroke-opacity:0" />


<path d="M354.000000 302.000000 C 372.000000 302.000000, 401.000000 301.000000,415.000000 301.000000" stroke="black"  fill="transparent"/>

<line
x1="401" y1="301" x2="415" y2="301"
id="0"
style="stroke:black;stroke-width:1.000000;stroke-opacity:0" />


<line
x1="372" y1="302" x2="354" y2="302"
id="BiochemicalReaction_b70d9710d8a5ff395d972e83bc07307c_LEFT_TO_RIGHT-output--to--SmallMolecule_0db4df0d8ff93222bae0a2ae2d7b54f9"
style="stroke:black;stroke-width:1.000000;stroke-opacity:0" />


<polygon
points = "354,302 345.2,297.6 345.2,306.4"
id="line"
style="fill:black; stroke:#000000; stroke-width:1"
transform = "rotate(180.000000 354.000000 302.000000)"
/>



</svg>
