<?xml version="1.0" encoding="UTF-8"?>
<svg width="907.761601" height="940.386499"
xmlns="http://www.w3.org/2000/svg" xmlns:svg="http://www.w3.org/2000/svg"
>
<metadata id="metadata7">image/svg+xml</metadata>

<rect
width="343.439029"
height="423.052883"
rx="11.000000"
ry="11.000000"
x="100.000000"
y="317.333616"
id="endoplasmic_reticulum_membrane"
style="fill:white;fill-opacity:0.900000;stroke:black;stroke-width:5.000000;stroke-opacity:1.000000" />


<text
x="271.719515"
y="309.333616"
id="endoplasmic_reticulum_membrane"
style="font-size:6.000000px;text-anchor:middle;font-family:Arial,Helvetica;alignment-baseline:baseline;stroke.opacity:1;dominant-baseline:baseline"
fill="black"
>
endoplasmic reticulum membrane</text>


<rect
width="249.810918"
height="263.966541"
rx="11.000000"
ry="11.000000"
x="327.950683"
y="183.000000"
id="cytosol"
style="fill:white;fill-opacity:0.900000;stroke:black;stroke-width:5.000000;stroke-opacity:1.000000" />


<text
x="452.856142"
y="175.000000"
id="cytosol"
style="font-size:6.000000px;text-anchor:middle;font-family:Arial,Helvetica;alignment-baseline:baseline;stroke.opacity:1;dominant-baseline:baseline"
fill="black"
>
cytosol</text>



<path
d="M 243.259133201718 683.953165630574 243.259133201718 723.886498963907 248.759133201718 729.386498963907 313.692466535051 729.386498963907 319.192466535051 723.886498963907 319.192466535051 683.953165630574 313.692466535051 678.453165630574 248.759133201718 678.453165630574 Z"
id="Complex_789b7f4d6794bebf43e000906aebabfe"
style="fill:white;fill-opacity:0.600000;stroke-width:1;stroke:black;stroke-opacity:1.000000"
transform = "rotate(0.000000 0.000000 0.000000)"
/>


<text
x="281.225800"
y="670.453166"
id="Complex_789b7f4d6794bebf43e000906aebabfe"
style="font-size:6.000000px;text-anchor:middle;font-family:Arial,Helvetica;alignment-baseline:baseline;stroke.opacity:1;dominant-baseline:baseline"
fill="black"
>
MGLL dimer</text>




<ellipse
rx="16.666667"
ry="16.666667"
cx="364.019674"
cy="210.666667"
id="SmallMolecule_839c02a49861784d8e1e610198a40f9f"
style="fill:white;fill-opacity:0.000000;stroke:black;stroke-width:1.000000;stroke-opacity:1.000000" />


<text
x="364.019674"
y="212.666667"
id="SmallMolecule_839c02a49861784d8e1e610198a40f9f"
style="font-size:6.000000px;text-anchor:middle;font-family:Arial,Helvetica;alignment-baseline:baseline;stroke.opacity:1;dominant-baseline:baseline"
fill="black"
>
acyl-CoA</text>



<ellipse
rx="16.666667"
ry="16.666667"
cx="486.096664"
cy="419.299874"
id="SmallMolecule_f1119e0443fc789902db4035b64de153"
style="fill:white;fill-opacity:0.000000;stroke:black;stroke-width:1.000000;stroke-opacity:1.000000" />


<text
x="486.096664"
y="421.299874"
id="SmallMolecule_f1119e0443fc789902db4035b64de153"
style="font-size:6.000000px;text-anchor:middle;font-family:Arial,Helvetica;alignment-baseline:baseline;stroke.opacity:1;dominant-baseline:baseline"
fill="black"
>
Glycerol</text>



<ellipse
rx="16.666667"
ry="16.666667"
cx="355.617350"
cy="345.483123"
id="SmallMolecule_51d352a1bc463cba394ef942b51812a0"
style="fill:white;fill-opacity:0.000000;stroke:black;stroke-width:1.000000;stroke-opacity:1.000000" />


<text
x="355.617350"
y="347.483123"
id="SmallMolecule_51d352a1bc463cba394ef942b51812a0"
style="font-size:6.000000px;text-anchor:middle;font-family:Arial,Helvetica;alignment-baseline:baseline;stroke.opacity:1;dominant-baseline:baseline"
fill="black"
>
CoA-SH</text>



<ellipse
rx="16.666667"
ry="16.666667"
cx="550.094935"
cy="416.856836"
id="SmallMolecule_bfe0d4cd6c12bac80101dff1b5e1f783"
style="fill:white;fill-opacity:0.000000;stroke:black;stroke-width:1.000000;stroke-opacity:1.000000" />


<text
x="550.094935"
y="418.856836"
id="SmallMolecule_bfe0d4cd6c12bac80101dff1b5e1f783"
style="font-size:6.000000px;text-anchor:middle;font-family:Arial,Helvetica;alignment-baseline:baseline;stroke.opacity:1;dominant-baseline:baseline"
fill="black"
>
H2O</text>



<ellipse
rx="16.666667"
ry="16.666667"
cx="409.413051"
cy="578.975583"
id="SmallMolecule_8797939a5cd7184fef5a3fa69a37b38d"
style="fill:white;fill-opacity:0.000000;stroke:black;stroke-width:1.000000;stroke-opacity:1.000000" />


<text
x="409.413051"
y="580.975583"
id="SmallMolecule_8797939a5cd7184fef5a3fa69a37b38d"
style="font-size:6.000000px;text-anchor:middle;font-family:Arial,Helvetica;alignment-baseline:baseline;stroke.opacity:1;dominant-baseline:baseline"
fill="black"
>
LCFA(-)</text>



<ellipse
rx="16.666667"
ry="16.666667"
cx="230.770663"
cy="451.757539"
id="SmallMolecule_74e43586dc10df6e1260fc752b2df1c1"
style="fill:white;fill-opacity:0.000000;stroke:black;stroke-width:1.000000;stroke-opacity:1.000000" />


<text
x="230.770663"
y="453.757539"
id="SmallMolecule_74e43586dc10df6e1260fc752b2df1c1"
style="font-size:6.000000px;text-anchor:middle;font-family:Arial,Helvetica;alignment-baseline:baseline;stroke.opacity:1;dominant-baseline:baseline"
fill="black"
>
DAG</text>



<rect
width="58.333333"
height="33.333333"
rx="3.333333"
ry="3.333333"
x="374.105696"
y="504.765745"
id="Protein_32011957ce417bfe673ddeb9124130f1"
style="fill:white;fill-opacity:1.000000;stroke:black;stroke-width:1.000000;stroke-opacity:1.000000" />


<text
x="403.272363"
y="523.432412"
id="Protein_32011957ce417bfe673ddeb9124130f1"
style="font-size:6.000000px;text-anchor:middle;font-family:Arial,Helvetica;alignment-baseline:baseline;stroke.opacity:1;dominant-baseline:baseline"
fill="black"
>
PNPLA2/3</text>



<ellipse
rx="16.666667"
ry="16.666667"
cx="283.392468"
cy="406.246074"
id="SmallMolecule_d9e753e8849e2b266b92a1206f5fc45b"
style="fill:white;fill-opacity:0.000000;stroke:black;stroke-width:1.000000;stroke-opacity:1.000000" />


<text
x="283.392468"
y="408.246074"
id="SmallMolecule_d9e753e8849e2b266b92a1206f5fc45b"
style="font-size:6.000000px;text-anchor:middle;font-family:Arial,Helvetica;alignment-baseline:baseline;stroke.opacity:1;dominant-baseline:baseline"
fill="black"
>
TAG</text>



<rect
width="58.333333"
height="33.333333"
rx="3.333333"
ry="3.333333"
x="252.059133"
y="687.253166"
id="Protein_aa15a2cdb33dca44d960d7c6ed8893c6_Complex_789b7f4d6794bebf43e000906aebabfe"
style="fill:white;fill-opacity:1.000000;stroke:black;stroke-width:1.000000;stroke-opacity:1.000000" />


<text
x="281.225800"
y="705.919832"
id="Protein_aa15a2cdb33dca44d960d7c6ed8893c6_Complex_789b7f4d6794bebf43e000906aebabfe"
style="font-size:6.000000px;text-anchor:middle;font-family:Arial,Helvetica;alignment-baseline:baseline;stroke.opacity:1;dominant-baseline:baseline"
fill="black"
>
MGLL</text>


<ellipse
rx="14.583333"
ry="7.291667"
cx="266.642467"
cy="687.253166"
id="Protein_aa15a2cdb33dca44d960d7c6ed8893c6_Complex_789b7f4d6794bebf43e000906aebabfe.info.1"
style="fill:white;fill-opacity:1.000000;stroke:black;stroke-width:1.000000;stroke-opacity:1.000000" />


<text
x="266.642467"
y="689.253166"
id="Protein_aa15a2cdb33dca44d960d7c6ed8893c6_Complex_789b7f4d6794bebf43e000906aebabfe.info.1"
style="font-size:6.000000px;text-anchor:middle;font-family:Arial,Helvetica;alignment-baseline:baseline;stroke.opacity:1;dominant-baseline:baseline"
fill="black"
>
x[1-303]</text>



<rect
width="58.333333"
height="33.333333"
rx="3.333333"
ry="3.333333"
x="118.169361"
y="418.334885"
id="Protein_767a2d49ca1174d73e9e9bd09b8c218e"
style="fill:white;fill-opacity:1.000000;stroke:black;stroke-width:1.000000;stroke-opacity:1.000000" />


<text
x="147.336028"
y="437.001551"
id="Protein_767a2d49ca1174d73e9e9bd09b8c218e"
style="font-size:6.000000px;text-anchor:middle;font-family:Arial,Helvetica;alignment-baseline:baseline;stroke.opacity:1;dominant-baseline:baseline"
fill="black"
>
DGAT2L6,L7P</text>



<ellipse
rx="16.666667"
ry="16.666667"
cx="343.611296"
cy="641.391989"
id="SmallMolecule_4da9cffeee9b1f344205536a5e508c51"
style="fill:white;fill-opacity:0.000000;stroke:black;stroke-width:1.000000;stroke-opacity:1.000000" />


<text
x="343.611296"
y="643.391989"
id="SmallMolecule_4da9cffeee9b1f344205536a5e508c51"
style="font-size:6.000000px;text-anchor:middle;font-family:Arial,Helvetica;alignment-baseline:baseline;stroke.opacity:1;dominant-baseline:baseline"
fill="black"
>
fatty acid</text>



<ellipse
rx="29.166667"
ry="16.666667"
cx="260.704545"
cy="345.000282"
id="PhysicalEntity_de81dcf356b4ba731119ae0a812bf8fc"
style="fill:white;fill-opacity:1.000000;stroke:black;stroke-width:1.000000;stroke-opacity:1.000000" />


<text
x="260.704545"
y="347.000282"
id="PhysicalEntity_de81dcf356b4ba731119ae0a812bf8fc"
style="font-size:6.000000px;text-anchor:middle;font-family:Arial,Helvetica;alignment-baseline:baseline;stroke.opacity:1;dominant-baseline:baseline"
fill="black"
>
DGAT1/2</text>



<ellipse
rx="16.666667"
ry="16.666667"
cx="251.359100"
cy="609.345728"
id="SmallMolecule_80c870ea4643812b5dfd80a5329889d2"
style="fill:white;fill-opacity:0.000000;stroke:black;stroke-width:1.000000;stroke-opacity:1.000000" />


<text
x="251.359100"
y="611.345728"
id="SmallMolecule_80c870ea4643812b5dfd80a5329889d2"
style="font-size:6.000000px;text-anchor:middle;font-family:Arial,Helvetica;alignment-baseline:baseline;stroke.opacity:1;dominant-baseline:baseline"
fill="black"
>
MAG</text>



<ellipse
rx="16.666667"
ry="16.666667"
cx="194.291381"
cy="656.926521"
id="SmallMolecule_94e37c2ce4d5d1edeb5d6605753db51d"
style="fill:white;fill-opacity:0.000000;stroke:black;stroke-width:1.000000;stroke-opacity:1.000000" />


<text
x="194.291381"
y="658.926521"
id="SmallMolecule_94e37c2ce4d5d1edeb5d6605753db51d"
style="font-size:6.000000px;text-anchor:middle;font-family:Arial,Helvetica;alignment-baseline:baseline;stroke.opacity:1;dominant-baseline:baseline"
fill="black"
>
Acyl-CoA</text>



<ellipse
rx="16.666667"
ry="16.666667"
cx="329.988158"
cy="577.117649"
id="SmallMolecule_d31afbec99e1f5410a782e69ca77da4f"
style="fill:white;fill-opacity:0.000000;stroke:black;stroke-width:1.000000;stroke-opacity:1.000000" />


<text
x="329.988158"
y="579.117649"
id="SmallMolecule_d31afbec99e1f5410a782e69ca77da4f"
style="font-size:6.000000px;text-anchor:middle;font-family:Arial,Helvetica;alignment-baseline:baseline;stroke.opacity:1;dominant-baseline:baseline"
fill="black"
>
2-MAG</text>



<rect
width="58.333333"
height="33.333333"
rx="3.333333"
ry="3.333333"
x="111.000000"
y="588.065240"
id="Protein_b2a11e13da3a6af88589d3f806c4f951"
style="fill:white;fill-opacity:1.000000;stroke:black;stroke-width:1.000000;stroke-opacity:1.000000" />


<text
x="140.166667"
y="606.731907"
id="Protein_b2a11e13da3a6af88589d3f806c4f951"
style="font-size:6.000000px;text-anchor:middle;font-family:Arial,Helvetica;alignment-baseline:baseline;stroke.opacity:1;dominant-baseline:baseline"
fill="black"
>
AWAT2</text>


<ellipse
rx="14.583333"
ry="7.291667"
cx="125.583333"
cy="588.065240"
id="Protein_b2a11e13da3a6af88589d3f806c4f951.info.1"
style="fill:white;fill-opacity:1.000000;stroke:black;stroke-width:1.000000;stroke-opacity:1.000000" />


<text
x="125.583333"
y="590.065240"
id="Protein_b2a11e13da3a6af88589d3f806c4f951.info.1"
style="font-size:6.000000px;text-anchor:middle;font-family:Arial,Helvetica;alignment-baseline:baseline;stroke.opacity:1;dominant-baseline:baseline"
fill="black"
>
x[1-333]</text>


<rect
width="16.666667"
height="16.666667"
rx="0.000000"
ry="0.000000"
x="309.686579"
y="503.951219"
id="reactome_R-HSA-1482811_LEFT_TO_RIGHT"
style="fill:white;fill-opacity:0.600000;stroke:black;stroke-width:1.000000;stroke-opacity:1.000000" />



<rect
width="16.666667"
height="16.666667"
rx="0.000000"
ry="0.000000"
x="147.078175"
y="512.123052"
id="reactome_R-HSA-5696448_LEFT_TO_RIGHT"
style="fill:white;fill-opacity:0.600000;stroke:black;stroke-width:1.000000;stroke-opacity:1.000000" />



<rect
width="16.666667"
height="16.666667"
rx="0.000000"
ry="0.000000"
x="270.220357"
y="495.374504"
id="reactome_R-HSA-1482647_LEFT_TO_RIGHT"
style="fill:white;fill-opacity:0.600000;stroke:black;stroke-width:1.000000;stroke-opacity:1.000000" />



<rect
width="16.666667"
height="16.666667"
rx="0.000000"
ry="0.000000"
x="239.447138"
y="543.444235"
id="reactome_R-HSA-1482543_LEFT_TO_RIGHT"
style="fill:white;fill-opacity:0.600000;stroke:black;stroke-width:1.000000;stroke-opacity:1.000000" />



<rect
width="16.666667"
height="16.666667"
rx="0.000000"
ry="0.000000"
x="297.718468"
y="459.525339"
id="reactome_R-HSA-1482654_LEFT_TO_RIGHT"
style="fill:white;fill-opacity:0.600000;stroke:black;stroke-width:1.000000;stroke-opacity:1.000000" />



<rect
width="16.666667"
height="16.666667"
rx="0.000000"
ry="0.000000"
x="162.199072"
y="336.854673"
id="reactome_R-HSA-8848580_LEFT_TO_RIGHT"
style="fill:white;fill-opacity:0.600000;stroke:black;stroke-width:1.000000;stroke-opacity:1.000000" />



<rect
width="16.666667"
height="16.666667"
rx="0.000000"
ry="0.000000"
x="338.316930"
y="464.798400"
id="reactome_R-HSA-1482777_LEFT_TO_RIGHT"
style="fill:white;fill-opacity:0.600000;stroke:black;stroke-width:1.000000;stroke-opacity:1.000000" />



<rect
width="20.000000"
height="20.000000"
rx="0.000000"
ry="0.000000"
x="300.500000"
y="484.500000"
id="NA"
style="fill:white;fill-opacity:0.600000;stroke:black;stroke-width:1.000000;stroke-opacity:1.000000" />


<text
x="310.500000"
y="496.500000"
id="NA"
style="font-size:6.000000px;text-anchor:middle;font-family:Arial,Helvetica;alignment-baseline:baseline;stroke.opacity:1;dominant-baseline:baseline"
fill="black"
>
2</text>




<path d="M214.000000 466.000000 C 198.000000 480.000000, 175.000000 501.000000,163.000000 512.000000" stroke="black"  fill="transparent"/>

<line
x1="175" y1="501" x2="163" y2="512"
id="0"
style="stroke:black;stroke-width:1.000000;stroke-opacity:0" />


<line
x1="198" y1="480" x2="214" y2="466"
id="reactome_R-HSA-5696448_LEFT_TO_RIGHT-output--to--SmallMolecule_74e43586dc10df6e1260fc752b2df1c1"
style="stroke:black;stroke-width:1.000000;stroke-opacity:0" />


<polygon
points = "214,466 205.2,461.6 205.2,470.4"
id="line"
style="fill:black; stroke:#000000; stroke-width:1"
transform = "rotate(-41.185925 214.000000 466.000000)"
/>


<path d="M373.000000 518.000000 C 357.000000 516.000000, 337.000000 514.000000,326.000000 513.000000" stroke="black"  fill="transparent"/>

<line
x1="357" y1="516" x2="373" y2="518"
id="0"
style="stroke:black;stroke-width:1.000000;stroke-opacity:0" />


<line
x1="337" y1="514" x2="326" y2="513"
id="Protein_32011957ce417bfe673ddeb9124130f1--to--reactome_R-HSA-1482811_LEFT_TO_RIGHT"
style="stroke:black;stroke-width:1.000000;stroke-opacity:0" />


<ellipse
rx="4.400000"
ry="4.400000"
cx="330.381930"
cy="513.398357"
id="Protein_32011957ce417bfe673ddeb9124130f1--to--reactome_R-HSA-1482811_LEFT_TO_RIGHT"
style="fill:white;fill-opacity:0.800000;stroke:black;stroke-width:1.000000;stroke-opacity:1.000000" />


<path d="M282.000000 422.000000 C 281.000000 443.000000, 279.000000 478.000000,278.000000 494.000000" stroke="black"  fill="transparent"/>

<line
x1="279" y1="478" x2="278" y2="494"
id="0"
style="stroke:black;stroke-width:1.000000;stroke-opacity:0" />


<line
x1="281" y1="443" x2="282" y2="422"
id="reactome_R-HSA-1482647_LEFT_TO_RIGHT-output--to--SmallMolecule_d9e753e8849e2b266b92a1206f5fc45b"
style="stroke:black;stroke-width:1.000000;stroke-opacity:0" />


<polygon
points = "282,422 273.2,417.6 273.2,426.4"
id="line"
style="fill:black; stroke:#000000; stroke-width:1"
transform = "rotate(-87.273689 282.000000 422.000000)"
/>


<path d="M326.000000 625.000000 C 306.000000 606.000000, 272.000000 574.000000,256.000000 559.000000" stroke="black"  fill="transparent"/>

<line
x1="272" y1="574" x2="256" y2="559"
id="0"
style="stroke:black;stroke-width:1.000000;stroke-opacity:0" />


<line
x1="306" y1="606" x2="326" y2="625"
id="reactome_R-HSA-1482543_LEFT_TO_RIGHT-output--to--SmallMolecule_4da9cffeee9b1f344205536a5e508c51"
style="stroke:black;stroke-width:1.000000;stroke-opacity:0" />


<polygon
points = "326,625 317.2,620.6 317.2,629.4"
id="line"
style="fill:black; stroke:#000000; stroke-width:1"
transform = "rotate(43.531199 326.000000 625.000000)"
/>


<path d="M374.000000 506.000000 C 362.000000 499.000000, 347.000000 492.000000,334.000000 484.000000" stroke="black"  fill="transparent"/>
<path d="M334.000000 484.000000 C 328.000000 480.000000, 320.000000 476.000000,314.000000 472.000000" stroke="black"  fill="transparent"/>

<line
x1="362" y1="499" x2="374" y2="506"
id="0"
style="stroke:black;stroke-width:1.000000;stroke-opacity:0" />


<line
x1="320" y1="476" x2="314" y2="472"
id="Protein_32011957ce417bfe673ddeb9124130f1--to--reactome_R-HSA-1482654_LEFT_TO_RIGHT"
style="stroke:black;stroke-width:1.000000;stroke-opacity:0" />


<ellipse
rx="4.400000"
ry="4.400000"
cx="317.661021"
cy="474.440681"
id="Protein_32011957ce417bfe673ddeb9124130f1--to--reactome_R-HSA-1482654_LEFT_TO_RIGHT"
style="fill:white;fill-opacity:0.800000;stroke:black;stroke-width:1.000000;stroke-opacity:1.000000" />


<path d="M221.000000 435.000000 C 208.000000 412.000000, 185.000000 371.000000,175.000000 353.000000" stroke="black"  fill="transparent"/>

<line
x1="208" y1="412" x2="221" y2="435"
id="0"
style="stroke:black;stroke-width:1.000000;stroke-opacity:0" />


<line
x1="185" y1="371" x2="175" y2="353"
id="SmallMolecule_74e43586dc10df6e1260fc752b2df1c1--to--reactome_R-HSA-8848580_LEFT_TO_RIGHT-input"
style="stroke:black;stroke-width:1.000000;stroke-opacity:0" />


<path d="M143.000000 588.000000 C 146.000000 570.000000, 151.000000 543.000000,153.000000 529.000000" stroke="black"  fill="transparent"/>

<line
x1="146" y1="570" x2="143" y2="588"
id="0"
style="stroke:black;stroke-width:1.000000;stroke-opacity:0" />


<line
x1="151" y1="543" x2="153" y2="529"
id="Protein_b2a11e13da3a6af88589d3f806c4f951--to--reactome_R-HSA-5696448_LEFT_TO_RIGHT"
style="stroke:black;stroke-width:1.000000;stroke-opacity:0" />


<ellipse
rx="4.400000"
ry="4.400000"
cx="152.377746"
cy="533.355778"
id="Protein_b2a11e13da3a6af88589d3f806c4f951--to--reactome_R-HSA-5696448_LEFT_TO_RIGHT"
style="fill:white;fill-opacity:0.800000;stroke:black;stroke-width:1.000000;stroke-opacity:1.000000" />


<path d="M266.000000 397.000000 C 242.000000 383.000000, 197.000000 359.000000,178.000000 349.000000" stroke="black"  fill="transparent"/>

<line
x1="197" y1="359" x2="178" y2="349"
id="0"
style="stroke:black;stroke-width:1.000000;stroke-opacity:0" />


<line
x1="242" y1="383" x2="266" y2="397"
id="reactome_R-HSA-8848580_LEFT_TO_RIGHT-output--to--SmallMolecule_d9e753e8849e2b266b92a1206f5fc45b"
style="stroke:black;stroke-width:1.000000;stroke-opacity:0" />


<polygon
points = "266,397 257.2,392.6 257.2,401.4"
id="line"
style="fill:black; stroke:#000000; stroke-width:1"
transform = "rotate(30.256437 266.000000 397.000000)"
/>


<path d="M151.000000 418.000000 C 156.000000 399.000000, 164.000000 368.000000,168.000000 353.000000" stroke="black"  fill="transparent"/>

<line
x1="156" y1="399" x2="151" y2="418"
id="0"
style="stroke:black;stroke-width:1.000000;stroke-opacity:0" />


<line
x1="164" y1="368" x2="168" y2="353"
id="Protein_767a2d49ca1174d73e9e9bd09b8c218e--to--reactome_R-HSA-8848580_LEFT_TO_RIGHT"
style="stroke:black;stroke-width:1.000000;stroke-opacity:0" />


<ellipse
rx="4.400000"
ry="4.400000"
cx="166.866284"
cy="357.251434"
id="Protein_767a2d49ca1174d73e9e9bd09b8c218e--to--reactome_R-HSA-8848580_LEFT_TO_RIGHT"
style="fill:white;fill-opacity:0.800000;stroke:black;stroke-width:1.000000;stroke-opacity:1.000000" />


<path d="M392.000000 565.000000 C 385.000000 558.000000, 376.000000 550.000000,371.000000 541.000000" stroke="black"  fill="transparent"/>
<path d="M371.000000 541.000000 C 358.000000 521.000000, 351.000000 495.000000,348.000000 482.000000" stroke="black"  fill="transparent"/>

<line
x1="351" y1="495" x2="348" y2="482"
id="0"
style="stroke:black;stroke-width:1.000000;stroke-opacity:0" />


<line
x1="385" y1="558" x2="392" y2="565"
id="reactome_R-HSA-1482777_LEFT_TO_RIGHT-output--to--SmallMolecule_8797939a5cd7184fef5a3fa69a37b38d"
style="stroke:black;stroke-width:1.000000;stroke-opacity:0" />


<polygon
points = "392,565 383.2,560.6 383.2,569.4"
id="line"
style="fill:black; stroke:#000000; stroke-width:1"
transform = "rotate(45.000000 392.000000 565.000000)"
/>


<path d="M320.000000 560.000000 C 315.000000 550.000000, 309.000000 536.000000,306.000000 523.000000" stroke="black"  fill="transparent"/>
<path d="M306.000000 523.000000 C 302.000000 507.000000, 303.000000 487.000000,304.000000 476.000000" stroke="black"  fill="transparent"/>

<line
x1="315" y1="550" x2="320" y2="560"
id="0"
style="stroke:black;stroke-width:1.000000;stroke-opacity:0" />


<line
x1="303" y1="487" x2="304" y2="476"
id="SmallMolecule_d31afbec99e1f5410a782e69ca77da4f--to--reactome_R-HSA-1482654_LEFT_TO_RIGHT-input"
style="stroke:black;stroke-width:1.000000;stroke-opacity:0" />


<path d="M313.000000 571.000000 C 296.000000 566.000000, 269.000000 558.000000,256.000000 554.000000" stroke="black"  fill="transparent"/>

<line
x1="296" y1="566" x2="313" y2="571"
id="0"
style="stroke:black;stroke-width:1.000000;stroke-opacity:0" />


<line
x1="269" y1="558" x2="256" y2="554"
id="SmallMolecule_d31afbec99e1f5410a782e69ca77da4f--to--reactome_R-HSA-1482543_LEFT_TO_RIGHT-input"
style="stroke:black;stroke-width:1.000000;stroke-opacity:0" />


<path d="M346.000000 362.000000 C 336.000000 379.000000, 320.000000 405.000000,303.000000 425.000000" stroke="black"  fill="transparent"/>
<path d="M303.000000 425.000000 C 282.000000 449.000000, 276.000000 454.000000,250.000000 471.000000" stroke="black"  fill="transparent"/>
<path d="M250.000000 471.000000 C 220.000000 491.000000, 181.000000 509.000000,163.000000 516.000000" stroke="black"  fill="transparent"/>

<line
x1="181" y1="509" x2="163" y2="516"
id="0"
style="stroke:black;stroke-width:1.000000;stroke-opacity:0" />


<line
x1="336" y1="379" x2="346" y2="362"
id="reactome_R-HSA-5696448_LEFT_TO_RIGHT-output--to--SmallMolecule_51d352a1bc463cba394ef942b51812a0"
style="stroke:black;stroke-width:1.000000;stroke-opacity:0" />


<polygon
points = "346,362 337.2,357.6 337.2,366.4"
id="line"
style="fill:black; stroke:#000000; stroke-width:1"
transform = "rotate(-59.534455 346.000000 362.000000)"
/>


<path d="M247.000000 462.000000 C 259.000000 470.000000, 275.000000 481.000000,290.000000 492.000000" stroke="black"  fill="transparent"/>
<path d="M290.000000 492.000000 C 296.000000 496.000000, 303.000000 501.000000,309.000000 505.000000" stroke="black"  fill="transparent"/>

<line
x1="259" y1="470" x2="247" y2="462"
id="0"
style="stroke:black;stroke-width:1.000000;stroke-opacity:0" />


<line
x1="303" y1="501" x2="309" y2="505"
id="SmallMolecule_74e43586dc10df6e1260fc752b2df1c1--to--reactome_R-HSA-1482811_LEFT_TO_RIGHT-input"
style="stroke:black;stroke-width:1.000000;stroke-opacity:0" />


<path d="M339.000000 352.000000 C 326.000000 356.000000, 309.000000 362.000000,292.000000 364.000000" stroke="black"  fill="transparent"/>
<path d="M292.000000 364.000000 C 264.000000 368.000000, 256.000000 369.000000,228.000000 364.000000" stroke="black"  fill="transparent"/>
<path d="M228.000000 364.000000 C 210.000000 361.000000, 190.000000 353.000000,178.000000 348.000000" stroke="black"  fill="transparent"/>

<line
x1="190" y1="353" x2="178" y2="348"
id="0"
style="stroke:black;stroke-width:1.000000;stroke-opacity:0" />


<line
x1="326" y1="356" x2="339" y2="352"
id="reactome_R-HSA-8848580_LEFT_TO_RIGHT-output--to--SmallMolecule_51d352a1bc463cba394ef942b51812a0"
style="stroke:black;stroke-width:1.000000;stroke-opacity:0" />


<polygon
points = "339,352 330.2,347.6 330.2,356.4"
id="line"
style="fill:black; stroke:#000000; stroke-width:1"
transform = "rotate(-17.102729 339.000000 352.000000)"
/>


<path d="M374.000000 511.000000 C 361.000000 507.000000, 344.000000 502.000000,329.000000 500.000000" stroke="black"  fill="transparent"/>
<path d="M329.000000 500.000000 C 319.000000 499.000000, 316.000000 500.000000,306.000000 500.000000" stroke="black"  fill="transparent"/>
<path d="M306.000000 500.000000 C 299.000000 500.000000, 292.000000 501.000000,287.000000 502.000000" stroke="black"  fill="transparent"/>

<line
x1="361" y1="507" x2="374" y2="511"
id="0"
style="stroke:black;stroke-width:1.000000;stroke-opacity:0" />


<line
x1="292" y1="501" x2="287" y2="502"
id="Protein_32011957ce417bfe673ddeb9124130f1--to--reactome_R-HSA-1482647_LEFT_TO_RIGHT"
style="stroke:black;stroke-width:1.000000;stroke-opacity:0" />


<ellipse
rx="4.400000"
ry="4.400000"
cx="291.314555"
cy="501.137089"
id="Protein_32011957ce417bfe673ddeb9124130f1--to--reactome_R-HSA-1482647_LEFT_TO_RIGHT"
style="fill:white;fill-opacity:0.800000;stroke:black;stroke-width:1.000000;stroke-opacity:1.000000" />


<path d="M299.000000 422.000000 C 311.000000 435.000000, 328.000000 453.000000,338.000000 464.000000" stroke="black"  fill="transparent"/>

<line
x1="311" y1="435" x2="299" y2="422"
id="0"
style="stroke:black;stroke-width:1.000000;stroke-opacity:0" />


<line
x1="328" y1="453" x2="338" y2="464"
id="SmallMolecule_d9e753e8849e2b266b92a1206f5fc45b--to--reactome_R-HSA-1482777_LEFT_TO_RIGHT-input"
style="stroke:black;stroke-width:1.000000;stroke-opacity:0" />


<path d="M383.000000 504.000000 C 373.000000 496.000000, 362.000000 486.000000,354.000000 480.000000" stroke="black"  fill="transparent"/>

<line
x1="373" y1="496" x2="383" y2="504"
id="0"
style="stroke:black;stroke-width:1.000000;stroke-opacity:0" />


<line
x1="362" y1="486" x2="354" y2="480"
id="Protein_32011957ce417bfe673ddeb9124130f1--to--reactome_R-HSA-1482777_LEFT_TO_RIGHT"
style="stroke:black;stroke-width:1.000000;stroke-opacity:0" />


<ellipse
rx="4.400000"
ry="4.400000"
cx="357.520000"
cy="482.640000"
id="Protein_32011957ce417bfe673ddeb9124130f1--to--reactome_R-HSA-1482777_LEFT_TO_RIGHT"
style="fill:white;fill-opacity:0.800000;stroke:black;stroke-width:1.000000;stroke-opacity:1.000000" />


<path d="M469.000000 429.000000 C 445.000000 443.000000, 399.000000 469.000000,358.000000 484.000000" stroke="black"  fill="transparent"/>
<path d="M358.000000 484.000000 C 333.000000 494.000000, 301.000000 499.000000,287.000000 502.000000" stroke="black"  fill="transparent"/>

<line
x1="301" y1="499" x2="287" y2="502"
id="0"
style="stroke:black;stroke-width:1.000000;stroke-opacity:0" />


<line
x1="445" y1="443" x2="469" y2="429"
id="reactome_R-HSA-1482647_LEFT_TO_RIGHT-output--to--SmallMolecule_f1119e0443fc789902db4035b64de153"
style="stroke:black;stroke-width:1.000000;stroke-opacity:0" />


<polygon
points = "469,429 460.2,424.6 460.2,433.4"
id="line"
style="fill:black; stroke:#000000; stroke-width:1"
transform = "rotate(-30.256437 469.000000 429.000000)"
/>


<path d="M469.000000 432.000000 C 442.000000 454.000000, 384.000000 497.000000,329.000000 523.000000" stroke="black"  fill="transparent"/>
<path d="M329.000000 523.000000 C 304.000000 536.000000, 272.000000 545.000000,256.000000 549.000000" stroke="black"  fill="transparent"/>

<line
x1="272" y1="545" x2="256" y2="549"
id="0"
style="stroke:black;stroke-width:1.000000;stroke-opacity:0" />


<line
x1="442" y1="454" x2="469" y2="432"
id="reactome_R-HSA-1482543_LEFT_TO_RIGHT-output--to--SmallMolecule_f1119e0443fc789902db4035b64de153"
style="stroke:black;stroke-width:1.000000;stroke-opacity:0" />


<polygon
points = "469,432 460.2,427.6 460.2,436.4"
id="line"
style="fill:black; stroke:#000000; stroke-width:1"
transform = "rotate(-39.173658 469.000000 432.000000)"
/>


<path d="M282.000000 678.000000 C 282.000000 654.000000, 280.000000 618.000000,271.000000 589.000000" stroke="black"  fill="transparent"/>
<path d="M271.000000 589.000000 C 267.000000 578.000000, 260.000000 567.000000,254.000000 560.000000" stroke="black"  fill="transparent"/>

<line
x1="282" y1="654" x2="282" y2="678"
id="0"
style="stroke:black;stroke-width:1.000000;stroke-opacity:0" />


<line
x1="260" y1="567" x2="254" y2="560"
id="Complex_789b7f4d6794bebf43e000906aebabfe--to--reactome_R-HSA-1482543_LEFT_TO_RIGHT"
style="stroke:black;stroke-width:1.000000;stroke-opacity:0" />


<ellipse
rx="4.400000"
ry="4.400000"
cx="256.863482"
cy="563.340729"
id="Complex_789b7f4d6794bebf43e000906aebabfe--to--reactome_R-HSA-1482543_LEFT_TO_RIGHT"
style="fill:white;fill-opacity:0.800000;stroke:black;stroke-width:1.000000;stroke-opacity:1.000000" />


<path d="M247.000000 455.000000 C 262.000000 458.000000, 285.000000 463.000000,297.000000 466.000000" stroke="black"  fill="transparent"/>

<line
x1="285" y1="463" x2="297" y2="466"
id="0"
style="stroke:black;stroke-width:1.000000;stroke-opacity:0" />


<line
x1="262" y1="458" x2="247" y2="455"
id="reactome_R-HSA-1482654_LEFT_TO_RIGHT-output--to--SmallMolecule_74e43586dc10df6e1260fc752b2df1c1"
style="stroke:black;stroke-width:1.000000;stroke-opacity:0" />


<polygon
points = "247,455 238.2,450.6 238.2,459.4"
id="line"
style="fill:black; stroke:#000000; stroke-width:1"
transform = "rotate(191.309932 247.000000 455.000000)"
/>


<path d="M469.000000 423.000000 C 432.000000 433.000000, 343.000000 457.000000,314.000000 465.000000" stroke="black"  fill="transparent"/>

<line
x1="343" y1="457" x2="314" y2="465"
id="0"
style="stroke:black;stroke-width:1.000000;stroke-opacity:0" />


<line
x1="432" y1="433" x2="469" y2="423"
id="reactome_R-HSA-1482654_LEFT_TO_RIGHT-output--to--SmallMolecule_f1119e0443fc789902db4035b64de153"
style="stroke:black;stroke-width:1.000000;stroke-opacity:0" />


<polygon
points = "469,423 460.2,418.6 460.2,427.4"
id="line"
style="fill:black; stroke:#000000; stroke-width:1"
transform = "rotate(-15.124007 469.000000 423.000000)"
/>


<path d="M533.000000 426.000000 C 525.000000 430.000000, 515.000000 435.000000,505.000000 438.000000" stroke="black"  fill="transparent"/>
<path d="M505.000000 438.000000 C 450.000000 458.000000, 379.000000 468.000000,355.000000 472.000000" stroke="black"  fill="transparent"/>

<line
x1="525" y1="430" x2="533" y2="426"
id="0"
style="stroke:black;stroke-width:1.000000;stroke-opacity:0" />


<line
x1="379" y1="468" x2="355" y2="472"
id="SmallMolecule_bfe0d4cd6c12bac80101dff1b5e1f783--to--reactome_R-HSA-1482777_LEFT_TO_RIGHT-input"
style="stroke:black;stroke-width:1.000000;stroke-opacity:0" />


<path d="M347.000000 222.000000 C 307.000000 249.000000, 209.000000 318.000000,179.000000 339.000000" stroke="black"  fill="transparent"/>

<line
x1="307" y1="249" x2="347" y2="222"
id="0"
style="stroke:black;stroke-width:1.000000;stroke-opacity:0" />


<line
x1="209" y1="318" x2="179" y2="339"
id="SmallMolecule_839c02a49861784d8e1e610198a40f9f--to--reactome_R-HSA-8848580_LEFT_TO_RIGHT-input"
style="stroke:black;stroke-width:1.000000;stroke-opacity:0" />


<path d="M231.000000 345.000000 C 213.000000 345.000000, 190.000000 345.000000,178.000000 345.000000" stroke="black"  fill="transparent"/>

<line
x1="213" y1="345" x2="231" y2="345"
id="0"
style="stroke:black;stroke-width:1.000000;stroke-opacity:0" />


<line
x1="190" y1="345" x2="178" y2="345"
id="PhysicalEntity_de81dcf356b4ba731119ae0a812bf8fc--to--reactome_R-HSA-8848580_LEFT_TO_RIGHT"
style="stroke:black;stroke-width:1.000000;stroke-opacity:0" />


<ellipse
rx="4.400000"
ry="4.400000"
cx="182.400000"
cy="345.000000"
id="PhysicalEntity_de81dcf356b4ba731119ae0a812bf8fc--to--reactome_R-HSA-8848580_LEFT_TO_RIGHT"
style="fill:white;fill-opacity:0.800000;stroke:black;stroke-width:1.000000;stroke-opacity:1.000000" />


<path d="M247.000000 450.000000 C 264.000000 449.000000, 293.000000 449.000000,317.000000 456.000000" stroke="black"  fill="transparent"/>
<path d="M317.000000 456.000000 C 325.000000 458.000000, 332.000000 462.000000,338.000000 466.000000" stroke="black"  fill="transparent"/>

<line
x1="332" y1="462" x2="338" y2="466"
id="0"
style="stroke:black;stroke-width:1.000000;stroke-opacity:0" />


<line
x1="264" y1="449" x2="247" y2="450"
id="reactome_R-HSA-1482777_LEFT_TO_RIGHT-output--to--SmallMolecule_74e43586dc10df6e1260fc752b2df1c1"
style="stroke:black;stroke-width:1.000000;stroke-opacity:0" />


<polygon
points = "247,450 238.2,445.6 238.2,454.4"
id="line"
style="fill:black; stroke:#000000; stroke-width:1"
transform = "rotate(176.633539 247.000000 450.000000)"
/>


<path d="M533.000000 425.000000 C 525.000000 429.000000, 515.000000 434.000000,505.000000 438.000000" stroke="black"  fill="transparent"/>
<path d="M505.000000 438.000000 C 437.000000 469.000000, 353.000000 499.000000,326.000000 509.000000" stroke="black"  fill="transparent"/>

<line
x1="525" y1="429" x2="533" y2="425"
id="0"
style="stroke:black;stroke-width:1.000000;stroke-opacity:0" />


<line
x1="353" y1="499" x2="326" y2="509"
id="SmallMolecule_bfe0d4cd6c12bac80101dff1b5e1f783--to--reactome_R-HSA-1482811_LEFT_TO_RIGHT-input"
style="stroke:black;stroke-width:1.000000;stroke-opacity:0" />


<path d="M326.000000 560.000000 C 324.000000 547.000000, 321.000000 531.000000,319.000000 520.000000" stroke="black"  fill="transparent"/>

<line
x1="321" y1="531" x2="319" y2="520"
id="0"
style="stroke:black;stroke-width:1.000000;stroke-opacity:0" />


<line
x1="324" y1="547" x2="326" y2="560"
id="reactome_R-HSA-1482811_LEFT_TO_RIGHT-output--to--SmallMolecule_d31afbec99e1f5410a782e69ca77da4f"
style="stroke:black;stroke-width:1.000000;stroke-opacity:0" />


<polygon
points = "326,560 317.2,555.6 317.2,564.4"
id="line"
style="fill:black; stroke:#000000; stroke-width:1"
transform = "rotate(81.253838 326.000000 560.000000)"
/>


<path d="M392.000000 566.000000 C 373.000000 552.000000, 341.000000 529.000000,326.000000 518.000000" stroke="black"  fill="transparent"/>

<line
x1="341" y1="529" x2="326" y2="518"
id="0"
style="stroke:black;stroke-width:1.000000;stroke-opacity:0" />


<line
x1="373" y1="552" x2="392" y2="566"
id="reactome_R-HSA-1482811_LEFT_TO_RIGHT-output--to--SmallMolecule_8797939a5cd7184fef5a3fa69a37b38d"
style="stroke:black;stroke-width:1.000000;stroke-opacity:0" />


<polygon
points = "392,566 383.2,561.6 383.2,570.4"
id="line"
style="fill:black; stroke:#000000; stroke-width:1"
transform = "rotate(36.384352 392.000000 566.000000)"
/>


<path d="M533.000000 425.000000 C 525.000000 429.000000, 515.000000 434.000000,505.000000 438.000000" stroke="black"  fill="transparent"/>
<path d="M505.000000 438.000000 C 446.000000 467.000000, 430.000000 472.000000,371.000000 501.000000" stroke="black"  fill="transparent"/>
<path d="M371.000000 501.000000 C 352.000000 511.000000, 348.000000 515.000000,329.000000 523.000000" stroke="black"  fill="transparent"/>
<path d="M329.000000 523.000000 C 303.000000 535.000000, 271.000000 545.000000,256.000000 549.000000" stroke="black"  fill="transparent"/>

<line
x1="525" y1="429" x2="533" y2="425"
id="0"
style="stroke:black;stroke-width:1.000000;stroke-opacity:0" />


<line
x1="271" y1="545" x2="256" y2="549"
id="SmallMolecule_bfe0d4cd6c12bac80101dff1b5e1f783--to--reactome_R-HSA-1482543_LEFT_TO_RIGHT-input"
style="stroke:black;stroke-width:1.000000;stroke-opacity:0" />


<path d="M234.000000 593.000000 C 214.000000 574.000000, 179.000000 543.000000,163.000000 528.000000" stroke="black"  fill="transparent"/>

<line
x1="214" y1="574" x2="234" y2="593"
id="0"
style="stroke:black;stroke-width:1.000000;stroke-opacity:0" />


<line
x1="179" y1="543" x2="163" y2="528"
id="SmallMolecule_80c870ea4643812b5dfd80a5329889d2--to--reactome_R-HSA-5696448_LEFT_TO_RIGHT-input"
style="stroke:black;stroke-width:1.000000;stroke-opacity:0" />


<path d="M318.000000 560.000000 C 307.000000 545.000000, 293.000000 524.000000,284.000000 512.000000" stroke="black"  fill="transparent"/>

<line
x1="307" y1="545" x2="318" y2="560"
id="0"
style="stroke:black;stroke-width:1.000000;stroke-opacity:0" />


<line
x1="293" y1="524" x2="284" y2="512"
id="SmallMolecule_d31afbec99e1f5410a782e69ca77da4f--to--reactome_R-HSA-1482647_LEFT_TO_RIGHT-input"
style="stroke:black;stroke-width:1.000000;stroke-opacity:0" />


<path d="M189.000000 640.000000 C 181.000000 610.000000, 164.000000 551.000000,157.000000 529.000000" stroke="black"  fill="transparent"/>

<line
x1="181" y1="610" x2="189" y2="640"
id="0"
style="stroke:black;stroke-width:1.000000;stroke-opacity:0" />


<line
x1="164" y1="551" x2="157" y2="529"
id="SmallMolecule_94e37c2ce4d5d1edeb5d6605753db51d--to--reactome_R-HSA-5696448_LEFT_TO_RIGHT-input"
style="stroke:black;stroke-width:1.000000;stroke-opacity:0" />


<path d="M246.000000 468.000000 C 254.000000 477.000000, 264.000000 487.000000,270.000000 495.000000" stroke="black"  fill="transparent"/>

<line
x1="254" y1="477" x2="246" y2="468"
id="0"
style="stroke:black;stroke-width:1.000000;stroke-opacity:0" />


<line
x1="264" y1="487" x2="270" y2="495"
id="SmallMolecule_74e43586dc10df6e1260fc752b2df1c1--to--reactome_R-HSA-1482647_LEFT_TO_RIGHT-input"
style="stroke:black;stroke-width:1.000000;stroke-opacity:0" />



<rect
width="20.000000"
height="20.000000"
rx="0.000000"
ry="0.000000"
x="300.500000"
y="484.500000"
id="NA"
style="fill:white;fill-opacity:0.600000;stroke:black;stroke-width:1.000000;stroke-opacity:1.000000" />


<text
x="310.500000"
y="496.500000"
id="NA"
style="font-size:6.000000px;text-anchor:middle;font-family:Arial,Helvetica;alignment-baseline:baseline;stroke.opacity:1;dominant-baseline:baseline"
fill="black"
>
2</text>


</svg>
