<?xml version="1.0" encoding="UTF-8"?>
<svg width="1077.486093" height="909.400274"
xmlns="http://www.w3.org/2000/svg" xmlns:svg="http://www.w3.org/2000/svg"
>
<metadata id="metadata7">image/svg+xml</metadata>

<rect
width="412.550527"
height="300.434680"
rx="11.000000"
ry="11.000000"
x="334.935566"
y="408.965593"
id="endoplasmic_reticulum_lumen"
style="fill:white;fill-opacity:0.900000;stroke:black;stroke-width:5.000000;stroke-opacity:1.000000" />


<text
x="541.210829"
y="400.965593"
id="endoplasmic_reticulum_lumen"
style="font-size:6.000000px;text-anchor:middle;font-family:Arial,Helvetica;alignment-baseline:baseline;stroke.opacity:1;dominant-baseline:baseline"
fill="black"
>
endoplasmic reticulum lumen</text>


<rect
width="379.183618"
height="165.997734"
rx="11.000000"
ry="11.000000"
x="363.946855"
y="183.000000"
id="endoplasmic_reticulum_membrane"
style="fill:white;fill-opacity:0.900000;stroke:black;stroke-width:5.000000;stroke-opacity:1.000000" />


<text
x="553.538664"
y="175.000000"
id="endoplasmic_reticulum_membrane"
style="font-size:6.000000px;text-anchor:middle;font-family:Arial,Helvetica;alignment-baseline:baseline;stroke.opacity:1;dominant-baseline:baseline"
fill="black"
>
endoplasmic reticulum membrane</text>


<rect
width="250.659448"
height="236.585825"
rx="11.000000"
ry="11.000000"
x="100.000000"
y="247.829980"
id="mitochondrial_matrix"
style="fill:white;fill-opacity:0.900000;stroke:black;stroke-width:5.000000;stroke-opacity:1.000000" />


<text
x="225.329724"
y="239.829980"
id="mitochondrial_matrix"
style="font-size:6.000000px;text-anchor:middle;font-family:Arial,Helvetica;alignment-baseline:baseline;stroke.opacity:1;dominant-baseline:baseline"
fill="black"
>
mitochondrial matrix</text>





<ellipse
rx="16.666667"
ry="16.666667"
cx="322.992782"
cy="424.024543"
id="SmallMolecule_ba95c3b27cf917f243f4aca1e143ec50"
style="fill:white;fill-opacity:0.000000;stroke:black;stroke-width:1.000000;stroke-opacity:1.000000" />


<text
x="322.992782"
y="426.024543"
id="SmallMolecule_ba95c3b27cf917f243f4aca1e143ec50"
style="font-size:6.000000px;text-anchor:middle;font-family:Arial,Helvetica;alignment-baseline:baseline;stroke.opacity:1;dominant-baseline:baseline"
fill="black"
>
AMPAG</text>



<ellipse
rx="16.666667"
ry="16.666667"
cx="245.037251"
cy="456.749138"
id="SmallMolecule_57995819b7714ee7448fdfbb0e6ef6bc"
style="fill:white;fill-opacity:0.000000;stroke:black;stroke-width:1.000000;stroke-opacity:1.000000" />


<text
x="245.037251"
y="458.749138"
id="SmallMolecule_57995819b7714ee7448fdfbb0e6ef6bc"
style="font-size:6.000000px;text-anchor:middle;font-family:Arial,Helvetica;alignment-baseline:baseline;stroke.opacity:1;dominant-baseline:baseline"
fill="black"
>
H2O</text>



<rect
width="58.333333"
height="33.333333"
rx="3.333333"
ry="3.333333"
x="111.000000"
y="322.497154"
id="Protein_539b4eb318c0044a30b3337ab1be462c"
style="fill:white;fill-opacity:1.000000;stroke:black;stroke-width:1.000000;stroke-opacity:1.000000" />


<text
x="140.166667"
y="341.163821"
id="Protein_539b4eb318c0044a30b3337ab1be462c"
style="font-size:6.000000px;text-anchor:middle;font-family:Arial,Helvetica;alignment-baseline:baseline;stroke.opacity:1;dominant-baseline:baseline"
fill="black"
>
ABHD10</text>


<ellipse
rx="14.583333"
ry="7.291667"
cx="125.583333"
cy="322.497154"
id="Protein_539b4eb318c0044a30b3337ab1be462c.info.1"
style="fill:white;fill-opacity:1.000000;stroke:black;stroke-width:1.000000;stroke-opacity:1.000000" />


<text
x="125.583333"
y="324.497154"
id="Protein_539b4eb318c0044a30b3337ab1be462c.info.1"
style="font-size:6.000000px;text-anchor:middle;font-family:Arial,Helvetica;alignment-baseline:baseline;stroke.opacity:1;dominant-baseline:baseline"
fill="black"
>
x[53-306]</text>



<ellipse
rx="16.666667"
ry="16.666667"
cx="178.904169"
cy="407.103818"
id="SmallMolecule_fbfe37d96a5cb6166dc0e6b5e629c59e"
style="fill:white;fill-opacity:0.000000;stroke:black;stroke-width:1.000000;stroke-opacity:1.000000" />


<text
x="178.904169"
y="409.103818"
id="SmallMolecule_fbfe37d96a5cb6166dc0e6b5e629c59e"
style="font-size:6.000000px;text-anchor:middle;font-family:Arial,Helvetica;alignment-baseline:baseline;stroke.opacity:1;dominant-baseline:baseline"
fill="black"
>
MPA</text>



<ellipse
rx="16.666667"
ry="16.666667"
cx="210.593071"
cy="275.496647"
id="SmallMolecule_15142c59164bd9a73691c64bc8ccfa98"
style="fill:white;fill-opacity:0.000000;stroke:black;stroke-width:1.000000;stroke-opacity:1.000000" />


<text
x="210.593071"
y="277.496647"
id="SmallMolecule_15142c59164bd9a73691c64bc8ccfa98"
style="font-size:6.000000px;text-anchor:middle;font-family:Arial,Helvetica;alignment-baseline:baseline;stroke.opacity:1;dominant-baseline:baseline"
fill="black"
>
GlcA</text>


<rect
width="16.666667"
height="16.666667"
rx="0.000000"
ry="0.000000"
x="242.242298"
y="354.254088"
id="reactome_R-HSA-5694563_LEFT_TO_RIGHT"
style="fill:white;fill-opacity:0.600000;stroke:black;stroke-width:1.000000;stroke-opacity:1.000000" />




<ellipse
rx="16.666667"
ry="16.666667"
cx="530.609045"
cy="513.834795"
id="SmallMolecule_836b6f4e7a095794c9974905ce1d83ae"
style="fill:white;fill-opacity:0.000000;stroke:black;stroke-width:1.000000;stroke-opacity:1.000000" />


<text
x="530.609045"
y="515.834795"
id="SmallMolecule_836b6f4e7a095794c9974905ce1d83ae"
style="font-size:6.000000px;text-anchor:middle;font-family:Arial,Helvetica;alignment-baseline:baseline;stroke.opacity:1;dominant-baseline:baseline"
fill="black"
>
UDP</text>



<ellipse
rx="16.666667"
ry="16.666667"
cx="362.602232"
cy="528.694854"
id="SmallMolecule_3d434b22eff54783ec667cbe92f70f93"
style="fill:white;fill-opacity:0.000000;stroke:black;stroke-width:1.000000;stroke-opacity:1.000000" />


<text
x="362.602232"
y="530.694854"
id="SmallMolecule_3d434b22eff54783ec667cbe92f70f93"
style="font-size:6.000000px;text-anchor:middle;font-family:Arial,Helvetica;alignment-baseline:baseline;stroke.opacity:1;dominant-baseline:baseline"
fill="black"
>
BIL</text>



<ellipse
rx="16.666667"
ry="16.666667"
cx="664.123591"
cy="441.254874"
id="SmallMolecule_aafa39a8704bf6c1cbd5e9ce805fe684"
style="fill:white;fill-opacity:0.000000;stroke:black;stroke-width:1.000000;stroke-opacity:1.000000" />


<text
x="664.123591"
y="443.254874"
id="SmallMolecule_aafa39a8704bf6c1cbd5e9ce805fe684"
style="font-size:6.000000px;text-anchor:middle;font-family:Arial,Helvetica;alignment-baseline:baseline;stroke.opacity:1;dominant-baseline:baseline"
fill="black"
>
GCTN4OG</text>



<ellipse
rx="16.666667"
ry="16.666667"
cx="623.064092"
cy="668.419191"
id="SmallMolecule_28f240e937f6a7dd986199f0528d0a28"
style="fill:white;fill-opacity:0.000000;stroke:black;stroke-width:1.000000;stroke-opacity:1.000000" />



<text
x="623.064092"
y="664.419191"
id="SmallMolecule_28f240e937f6a7dd986199f0528d0a28"
style="font-size:6.000000px;text-anchor:middle;font-family:Arial,Helvetica;alignment-baseline:baseline;stroke.opacity:1;dominant-baseline:baseline"
fill="black"
>
N-centre fu-</text>


<text
x="623.064092"
y="670.419191"
id="SmallMolecule_28f240e937f6a7dd986199f0528d0a28"
style="font-size:6.000000px;text-anchor:middle;font-family:Arial,Helvetica;alignment-baseline:baseline;stroke.opacity:1;dominant-baseline:baseline"
fill="black"
>
nctional gr-</text>


<text
x="623.064092"
y="676.419191"
id="SmallMolecule_28f240e937f6a7dd986199f0528d0a28"
style="font-size:6.000000px;text-anchor:middle;font-family:Arial,Helvetica;alignment-baseline:baseline;stroke.opacity:1;dominant-baseline:baseline"
fill="black"
>
oup substrate</text>



<ellipse
rx="16.666667"
ry="16.666667"
cx="443.807779"
cy="681.733607"
id="SmallMolecule_2e075f868fce4a387539fbc16e454a5d"
style="fill:white;fill-opacity:0.000000;stroke:black;stroke-width:1.000000;stroke-opacity:1.000000" />


<text
x="443.807779"
y="683.733607"
id="SmallMolecule_2e075f868fce4a387539fbc16e454a5d"
style="font-size:6.000000px;text-anchor:middle;font-family:Arial,Helvetica;alignment-baseline:baseline;stroke.opacity:1;dominant-baseline:baseline"
fill="black"
>
BDG</text>



<ellipse
rx="16.666667"
ry="16.666667"
cx="544.933877"
cy="570.995108"
id="SmallMolecule_bca9f696e582c55356826bd4a37efa6a"
style="fill:white;fill-opacity:0.000000;stroke:black;stroke-width:1.000000;stroke-opacity:1.000000" />


<text
x="544.933877"
y="572.995108"
id="SmallMolecule_bca9f696e582c55356826bd4a37efa6a"
style="font-size:6.000000px;text-anchor:middle;font-family:Arial,Helvetica;alignment-baseline:baseline;stroke.opacity:1;dominant-baseline:baseline"
fill="black"
>
UDP-GlcA</text>



<ellipse
rx="16.666667"
ry="16.666667"
cx="381.917840"
cy="614.069089"
id="SmallMolecule_cb2e3e33bd06453fb9997d0ff6d2b0a1"
style="fill:white;fill-opacity:0.000000;stroke:black;stroke-width:1.000000;stroke-opacity:1.000000" />


<text
x="381.917840"
y="616.069089"
id="SmallMolecule_cb2e3e33bd06453fb9997d0ff6d2b0a1"
style="font-size:6.000000px;text-anchor:middle;font-family:Arial,Helvetica;alignment-baseline:baseline;stroke.opacity:1;dominant-baseline:baseline"
fill="black"
>
BMG</text>



<ellipse
rx="16.666667"
ry="16.666667"
cx="719.819426"
cy="599.870997"
id="SmallMolecule_18d0bdd33c1451a0731705b32b99da5f"
style="fill:white;fill-opacity:0.000000;stroke:black;stroke-width:1.000000;stroke-opacity:1.000000" />



<text
x="719.819426"
y="595.870997"
id="SmallMolecule_18d0bdd33c1451a0731705b32b99da5f"
style="font-size:6.000000px;text-anchor:middle;font-family:Arial,Helvetica;alignment-baseline:baseline;stroke.opacity:1;dominant-baseline:baseline"
fill="black"
>
O-centre fu-</text>


<text
x="719.819426"
y="601.870997"
id="SmallMolecule_18d0bdd33c1451a0731705b32b99da5f"
style="font-size:6.000000px;text-anchor:middle;font-family:Arial,Helvetica;alignment-baseline:baseline;stroke.opacity:1;dominant-baseline:baseline"
fill="black"
>
nctional gr-</text>


<text
x="719.819426"
y="607.870997"
id="SmallMolecule_18d0bdd33c1451a0731705b32b99da5f"
style="font-size:6.000000px;text-anchor:middle;font-family:Arial,Helvetica;alignment-baseline:baseline;stroke.opacity:1;dominant-baseline:baseline"
fill="black"
>
oup substrate</text>



<ellipse
rx="16.666667"
ry="16.666667"
cx="554.729716"
cy="649.398319"
id="SmallMolecule_d1a6921fcf4929b5fa6cdb99210d42ad"
style="fill:white;fill-opacity:0.000000;stroke:black;stroke-width:1.000000;stroke-opacity:1.000000" />


<text
x="554.729716"
y="651.398319"
id="SmallMolecule_d1a6921fcf4929b5fa6cdb99210d42ad"
style="font-size:6.000000px;text-anchor:middle;font-family:Arial,Helvetica;alignment-baseline:baseline;stroke.opacity:1;dominant-baseline:baseline"
fill="black"
>
N-glucuronide</text>



<ellipse
rx="16.666667"
ry="16.666667"
cx="657.610343"
cy="605.394879"
id="SmallMolecule_7513f4d9d23d97c98a6a707c3ba7d17c"
style="fill:white;fill-opacity:0.000000;stroke:black;stroke-width:1.000000;stroke-opacity:1.000000" />


<text
x="657.610343"
y="607.394879"
id="SmallMolecule_7513f4d9d23d97c98a6a707c3ba7d17c"
style="font-size:6.000000px;text-anchor:middle;font-family:Arial,Helvetica;alignment-baseline:baseline;stroke.opacity:1;dominant-baseline:baseline"
fill="black"
>
O-glucuronide</text>



<ellipse
rx="16.666667"
ry="16.666667"
cx="426.161347"
cy="436.632260"
id="SmallMolecule_b3c9621f0dd539174f4b615473279663"
style="fill:white;fill-opacity:0.000000;stroke:black;stroke-width:1.000000;stroke-opacity:1.000000" />


<text
x="426.161347"
y="438.632260"
id="SmallMolecule_b3c9621f0dd539174f4b615473279663"
style="font-size:6.000000px;text-anchor:middle;font-family:Arial,Helvetica;alignment-baseline:baseline;stroke.opacity:1;dominant-baseline:baseline"
fill="black"
>
GCTN</text>


<rect
width="16.666667"
height="16.666667"
rx="0.000000"
ry="0.000000"
x="632.121972"
y="508.064234"
id="reactome_R-HSA-174931_LEFT_TO_RIGHT"
style="fill:white;fill-opacity:0.600000;stroke:black;stroke-width:1.000000;stroke-opacity:1.000000" />



<rect
width="16.666667"
height="16.666667"
rx="0.000000"
ry="0.000000"
x="442.347748"
y="533.489590"
id="reactome_R-HSA-159194_LEFT_TO_RIGHT"
style="fill:white;fill-opacity:0.600000;stroke:black;stroke-width:1.000000;stroke-opacity:1.000000" />



<rect
width="16.666667"
height="16.666667"
rx="0.000000"
ry="0.000000"
x="602.653243"
y="553.703468"
id="reactome_R-HSA-174916_LEFT_TO_RIGHT"
style="fill:white;fill-opacity:0.600000;stroke:black;stroke-width:1.000000;stroke-opacity:1.000000" />



<rect
width="16.666667"
height="16.666667"
rx="0.000000"
ry="0.000000"
x="457.126970"
y="578.754094"
id="reactome_R-HSA-159179_LEFT_TO_RIGHT"
style="fill:white;fill-opacity:0.600000;stroke:black;stroke-width:1.000000;stroke-opacity:1.000000" />



<rect
width="16.666667"
height="16.666667"
rx="0.000000"
ry="0.000000"
x="580.576063"
y="470.188736"
id="reactome_R-HSA-8941701_LEFT_TO_RIGHT"
style="fill:white;fill-opacity:0.600000;stroke:black;stroke-width:1.000000;stroke-opacity:1.000000" />




<rect
width="58.333333"
height="33.333333"
rx="3.333333"
ry="3.333333"
x="557.479743"
y="240.485274"
id="Protein_a00b711d58e2c06a0291fbed4d372fae"
style="fill:white;fill-opacity:1.000000;stroke:black;stroke-width:1.000000;stroke-opacity:1.000000" />


<text
x="586.646409"
y="259.151941"
id="Protein_a00b711d58e2c06a0291fbed4d372fae"
style="font-size:6.000000px;text-anchor:middle;font-family:Arial,Helvetica;alignment-baseline:baseline;stroke.opacity:1;dominant-baseline:baseline"
fill="black"
>
UGT1A3,A4,A9</text>



<rect
width="58.333333"
height="33.333333"
rx="3.333333"
ry="3.333333"
x="673.797140"
y="255.596608"
id="Protein_9b4e61667aa656d02d3ef0017bfd3ef2"
style="fill:white;fill-opacity:1.000000;stroke:black;stroke-width:1.000000;stroke-opacity:1.000000" />


<text
x="702.963807"
y="274.263275"
id="Protein_9b4e61667aa656d02d3ef0017bfd3ef2"
style="font-size:6.000000px;text-anchor:middle;font-family:Arial,Helvetica;alignment-baseline:baseline;stroke.opacity:1;dominant-baseline:baseline"
fill="black"
>
UGT1A10</text>


<ellipse
rx="14.583333"
ry="7.291667"
cx="688.380473"
cy="255.596608"
id="Protein_9b4e61667aa656d02d3ef0017bfd3ef2.info.1"
style="fill:white;fill-opacity:1.000000;stroke:black;stroke-width:1.000000;stroke-opacity:1.000000" />


<text
x="688.380473"
y="257.596608"
id="Protein_9b4e61667aa656d02d3ef0017bfd3ef2.info.1"
style="font-size:6.000000px;text-anchor:middle;font-family:Arial,Helvetica;alignment-baseline:baseline;stroke.opacity:1;dominant-baseline:baseline"
fill="black"
>
x[26-530]</text>



<rect
width="58.333333"
height="33.333333"
rx="3.333333"
ry="3.333333"
x="499.287267"
y="304.664400"
id="Protein_baf80d114c97fa0f06b5fca0dc17a14c"
style="fill:white;fill-opacity:1.000000;stroke:black;stroke-width:1.000000;stroke-opacity:1.000000" />


<text
x="528.453934"
y="323.331067"
id="Protein_baf80d114c97fa0f06b5fca0dc17a14c"
style="font-size:6.000000px;text-anchor:middle;font-family:Arial,Helvetica;alignment-baseline:baseline;stroke.opacity:1;dominant-baseline:baseline"
fill="black"
>
UGT1A1,4</text>



<rect
width="58.333333"
height="33.333333"
rx="3.333333"
ry="3.333333"
x="649.616687"
y="194.000000"
id="Protein_7b6713426319a9e464de671cdb63425d"
style="fill:white;fill-opacity:1.000000;stroke:black;stroke-width:1.000000;stroke-opacity:1.000000" />


<text
x="678.783353"
y="212.666667"
id="Protein_7b6713426319a9e464de671cdb63425d"
style="font-size:6.000000px;text-anchor:middle;font-family:Arial,Helvetica;alignment-baseline:baseline;stroke.opacity:1;dominant-baseline:baseline"
fill="black"
>
UGTs (O-GlcA forming)</text>



<ellipse
rx="29.166667"
ry="16.666667"
cx="404.113522"
cy="265.900322"
id="PhysicalEntity_4ced18df820ff6370c774a4066c1631d"
style="fill:white;fill-opacity:1.000000;stroke:black;stroke-width:1.000000;stroke-opacity:1.000000" />


<text
x="404.113522"
y="267.900322"
id="PhysicalEntity_4ced18df820ff6370c774a4066c1631d"
style="font-size:6.000000px;text-anchor:middle;font-family:Arial,Helvetica;alignment-baseline:baseline;stroke.opacity:1;dominant-baseline:baseline"
fill="black"
>
UGT1A1 tetramer,UGT1A4</text>




<path d="M442.000000 440.000000 C 476.000000 449.000000, 554.000000 469.000000,580.000000 476.000000" stroke="black"  fill="transparent"/>

<line
x1="476" y1="449" x2="442" y2="440"
id="0"
style="stroke:black;stroke-width:1.000000;stroke-opacity:0" />


<line
x1="554" y1="469" x2="580" y2="476"
id="SmallMolecule_b3c9621f0dd539174f4b615473279663--to--reactome_R-HSA-8941701_LEFT_TO_RIGHT-input"
style="stroke:black;stroke-width:1.000000;stroke-opacity:0" />


<path d="M561.000000 561.000000 C 582.000000 549.000000, 616.000000 530.000000,631.000000 521.000000" stroke="black"  fill="transparent"/>

<line
x1="582" y1="549" x2="561" y2="561"
id="0"
style="stroke:black;stroke-width:1.000000;stroke-opacity:0" />


<line
x1="616" y1="530" x2="631" y2="521"
id="SmallMolecule_bca9f696e582c55356826bd4a37efa6a--to--reactome_R-HSA-174931_LEFT_TO_RIGHT-input"
style="stroke:black;stroke-width:1.000000;stroke-opacity:0" />


<path d="M218.000000 292.000000 C 226.000000 310.000000, 239.000000 339.000000,246.000000 353.000000" stroke="black"  fill="transparent"/>

<line
x1="239" y1="339" x2="246" y2="353"
id="0"
style="stroke:black;stroke-width:1.000000;stroke-opacity:0" />


<line
x1="226" y1="310" x2="218" y2="292"
id="reactome_R-HSA-5694563_LEFT_TO_RIGHT-output--to--SmallMolecule_15142c59164bd9a73691c64bc8ccfa98"
style="stroke:black;stroke-width:1.000000;stroke-opacity:0" />


<polygon
points = "218,292 209.2,287.6 209.2,296.4"
id="line"
style="fill:black; stroke:#000000; stroke-width:1"
transform = "rotate(246.037511 218.000000 292.000000)"
/>


<path d="M306.000000 409.000000 C 291.000000 397.000000, 270.000000 379.000000,259.000000 369.000000" stroke="black"  fill="transparent"/>

<line
x1="291" y1="397" x2="306" y2="409"
id="0"
style="stroke:black;stroke-width:1.000000;stroke-opacity:0" />


<line
x1="270" y1="379" x2="259" y2="369"
id="SmallMolecule_ba95c3b27cf917f243f4aca1e143ec50--to--reactome_R-HSA-5694563_LEFT_TO_RIGHT-input"
style="stroke:black;stroke-width:1.000000;stroke-opacity:0" />


<path d="M246.000000 439.000000 C 247.000000 419.000000, 249.000000 386.000000,250.000000 371.000000" stroke="black"  fill="transparent"/>

<line
x1="247" y1="419" x2="246" y2="439"
id="0"
style="stroke:black;stroke-width:1.000000;stroke-opacity:0" />


<line
x1="249" y1="386" x2="250" y2="371"
id="SmallMolecule_57995819b7714ee7448fdfbb0e6ef6bc--to--reactome_R-HSA-5694563_LEFT_TO_RIGHT-input"
style="stroke:black;stroke-width:1.000000;stroke-opacity:0" />


<path d="M703.000000 582.000000 C 687.000000 565.000000, 661.000000 538.000000,648.000000 525.000000" stroke="black"  fill="transparent"/>

<line
x1="687" y1="565" x2="703" y2="582"
id="0"
style="stroke:black;stroke-width:1.000000;stroke-opacity:0" />


<line
x1="661" y1="538" x2="648" y2="525"
id="SmallMolecule_18d0bdd33c1451a0731705b32b99da5f--to--reactome_R-HSA-174931_LEFT_TO_RIGHT-input"
style="stroke:black;stroke-width:1.000000;stroke-opacity:0" />


<path d="M565.000000 632.000000 C 577.000000 614.000000, 596.000000 585.000000,605.000000 570.000000" stroke="black"  fill="transparent"/>

<line
x1="596" y1="585" x2="605" y2="570"
id="0"
style="stroke:black;stroke-width:1.000000;stroke-opacity:0" />


<line
x1="577" y1="614" x2="565" y2="632"
id="reactome_R-HSA-174916_LEFT_TO_RIGHT-output--to--SmallMolecule_d1a6921fcf4929b5fa6cdb99210d42ad"
style="stroke:black;stroke-width:1.000000;stroke-opacity:0" />


<polygon
points = "565,632 556.2,627.6 556.2,636.4"
id="line"
style="fill:black; stroke:#000000; stroke-width:1"
transform = "rotate(123.690068 565.000000 632.000000)"
/>


<path d="M610.000000 553.000000 C 606.000000 511.000000, 592.000000 330.000000,587.000000 273.000000" stroke="black"  fill="transparent"/>

<line
x1="592" y1="330" x2="587" y2="273"
id="0"
style="stroke:black;stroke-width:1.000000;stroke-opacity:0" />


<line
x1="606" y1="511" x2="610" y2="553"
id="Protein_a00b711d58e2c06a0291fbed4d372fae--to--reactome_R-HSA-174916_LEFT_TO_RIGHT"
style="stroke:black;stroke-width:1.000000;stroke-opacity:0" />


<ellipse
rx="4.400000"
ry="4.400000"
cx="609.582840"
cy="548.619820"
id="Protein_a00b711d58e2c06a0291fbed4d372fae--to--reactome_R-HSA-174916_LEFT_TO_RIGHT"
style="fill:white;fill-opacity:0.800000;stroke:black;stroke-width:1.000000;stroke-opacity:1.000000" />


<path d="M593.000000 469.000000 C 610.000000 438.000000, 670.000000 330.000000,693.000000 288.000000" stroke="black"  fill="transparent"/>

<line
x1="670" y1="330" x2="693" y2="288"
id="0"
style="stroke:black;stroke-width:1.000000;stroke-opacity:0" />


<line
x1="610" y1="438" x2="593" y2="469"
id="Protein_9b4e61667aa656d02d3ef0017bfd3ef2--to--reactome_R-HSA-8941701_LEFT_TO_RIGHT"
style="stroke:black;stroke-width:1.000000;stroke-opacity:0" />


<ellipse
rx="4.400000"
ry="4.400000"
cx="595.115663"
cy="465.142025"
id="Protein_9b4e61667aa656d02d3ef0017bfd3ef2--to--reactome_R-HSA-8941701_LEFT_TO_RIGHT"
style="fill:white;fill-opacity:0.800000;stroke:black;stroke-width:1.000000;stroke-opacity:1.000000" />


<path d="M453.000000 533.000000 C 465.000000 500.000000, 507.000000 382.000000,522.000000 338.000000" stroke="black"  fill="transparent"/>

<line
x1="507" y1="382" x2="522" y2="338"
id="0"
style="stroke:black;stroke-width:1.000000;stroke-opacity:0" />


<line
x1="465" y1="500" x2="453" y2="533"
id="Protein_baf80d114c97fa0f06b5fca0dc17a14c--to--reactome_R-HSA-159194_LEFT_TO_RIGHT"
style="stroke:black;stroke-width:1.000000;stroke-opacity:0" />


<ellipse
rx="4.400000"
ry="4.400000"
cx="454.503669"
cy="528.864909"
id="Protein_baf80d114c97fa0f06b5fca0dc17a14c--to--reactome_R-HSA-159194_LEFT_TO_RIGHT"
style="fill:white;fill-opacity:0.800000;stroke:black;stroke-width:1.000000;stroke-opacity:1.000000" />


<path d="M397.000000 597.000000 C 411.000000 582.000000, 431.000000 561.000000,442.000000 550.000000" stroke="black"  fill="transparent"/>

<line
x1="431" y1="561" x2="442" y2="550"
id="0"
style="stroke:black;stroke-width:1.000000;stroke-opacity:0" />


<line
x1="411" y1="582" x2="397" y2="597"
id="reactome_R-HSA-159194_LEFT_TO_RIGHT-output--to--SmallMolecule_cb2e3e33bd06453fb9997d0ff6d2b0a1"
style="stroke:black;stroke-width:1.000000;stroke-opacity:0" />


<polygon
points = "397,597 388.2,592.6 388.2,601.4"
id="line"
style="fill:black; stroke:#000000; stroke-width:1"
transform = "rotate(133.025066 397.000000 597.000000)"
/>


<path d="M561.000000 568.000000 C 574.000000 566.000000, 592.000000 564.000000,602.000000 563.000000" stroke="black"  fill="transparent"/>

<line
x1="574" y1="566" x2="561" y2="568"
id="0"
style="stroke:black;stroke-width:1.000000;stroke-opacity:0" />


<line
x1="592" y1="564" x2="602" y2="563"
id="SmallMolecule_bca9f696e582c55356826bd4a37efa6a--to--reactome_R-HSA-174916_LEFT_TO_RIGHT-input"
style="stroke:black;stroke-width:1.000000;stroke-opacity:0" />


<path d="M547.000000 514.000000 C 571.000000 514.000000, 613.000000 515.000000,631.000000 516.000000" stroke="black"  fill="transparent"/>

<line
x1="613" y1="515" x2="631" y2="516"
id="0"
style="stroke:black;stroke-width:1.000000;stroke-opacity:0" />


<line
x1="571" y1="514" x2="547" y2="514"
id="reactome_R-HSA-174931_LEFT_TO_RIGHT-output--to--SmallMolecule_836b6f4e7a095794c9974905ce1d83ae"
style="stroke:black;stroke-width:1.000000;stroke-opacity:0" />


<polygon
points = "547,514 538.2,509.6 538.2,518.4"
id="line"
style="fill:black; stroke:#000000; stroke-width:1"
transform = "rotate(180.000000 547.000000 514.000000)"
/>


<path d="M546.000000 523.000000 C 563.000000 533.000000, 588.000000 548.000000,602.000000 556.000000" stroke="black"  fill="transparent"/>

<line
x1="588" y1="548" x2="602" y2="556"
id="0"
style="stroke:black;stroke-width:1.000000;stroke-opacity:0" />


<line
x1="563" y1="533" x2="546" y2="523"
id="reactome_R-HSA-174916_LEFT_TO_RIGHT-output--to--SmallMolecule_836b6f4e7a095794c9974905ce1d83ae"
style="stroke:black;stroke-width:1.000000;stroke-opacity:0" />


<polygon
points = "546,523 537.2,518.6 537.2,527.4"
id="line"
style="fill:black; stroke:#000000; stroke-width:1"
transform = "rotate(210.465545 546.000000 523.000000)"
/>


<path d="M528.000000 574.000000 C 511.000000 577.000000, 487.000000 582.000000,474.000000 585.000000" stroke="black"  fill="transparent"/>

<line
x1="511" y1="577" x2="528" y2="574"
id="0"
style="stroke:black;stroke-width:1.000000;stroke-opacity:0" />


<line
x1="487" y1="582" x2="474" y2="585"
id="SmallMolecule_bca9f696e582c55356826bd4a37efa6a--to--reactome_R-HSA-159179_LEFT_TO_RIGHT-input"
style="stroke:black;stroke-width:1.000000;stroke-opacity:0" />


<path d="M515.000000 530.000000 C 502.000000 545.000000, 483.000000 566.000000,473.000000 578.000000" stroke="black"  fill="transparent"/>

<line
x1="483" y1="566" x2="473" y2="578"
id="0"
style="stroke:black;stroke-width:1.000000;stroke-opacity:0" />


<line
x1="502" y1="545" x2="515" y2="530"
id="reactome_R-HSA-159179_LEFT_TO_RIGHT-output--to--SmallMolecule_836b6f4e7a095794c9974905ce1d83ae"
style="stroke:black;stroke-width:1.000000;stroke-opacity:0" />


<polygon
points = "515,530 506.2,525.6 506.2,534.4"
id="line"
style="fill:black; stroke:#000000; stroke-width:1"
transform = "rotate(-49.085617 515.000000 530.000000)"
/>


<path d="M514.000000 519.000000 C 497.000000 525.000000, 472.000000 534.000000,459.000000 538.000000" stroke="black"  fill="transparent"/>

<line
x1="472" y1="534" x2="459" y2="538"
id="0"
style="stroke:black;stroke-width:1.000000;stroke-opacity:0" />


<line
x1="497" y1="525" x2="514" y2="519"
id="reactome_R-HSA-159194_LEFT_TO_RIGHT-output--to--SmallMolecule_836b6f4e7a095794c9974905ce1d83ae"
style="stroke:black;stroke-width:1.000000;stroke-opacity:0" />


<polygon
points = "514,519 505.2,514.6 505.2,523.4"
id="line"
style="fill:black; stroke:#000000; stroke-width:1"
transform = "rotate(-19.440035 514.000000 519.000000)"
/>


<path d="M647.000000 449.000000 C 631.000000 457.000000, 609.000000 468.000000,597.000000 474.000000" stroke="black"  fill="transparent"/>

<line
x1="609" y1="468" x2="597" y2="474"
id="0"
style="stroke:black;stroke-width:1.000000;stroke-opacity:0" />


<line
x1="631" y1="457" x2="647" y2="449"
id="reactome_R-HSA-8941701_LEFT_TO_RIGHT-output--to--SmallMolecule_aafa39a8704bf6c1cbd5e9ce805fe684"
style="stroke:black;stroke-width:1.000000;stroke-opacity:0" />


<polygon
points = "647,449 638.2,444.6 638.2,453.4"
id="line"
style="fill:black; stroke:#000000; stroke-width:1"
transform = "rotate(-26.565051 647.000000 449.000000)"
/>


<path d="M640.000000 507.000000 C 640.000000 491.000000, 641.000000 453.000000,644.000000 421.000000" stroke="black"  fill="transparent"/>
<path d="M644.000000 421.000000 C 651.000000 345.000000, 657.000000 327.000000,670.000000 252.000000" stroke="black"  fill="transparent"/>
<path d="M670.000000 252.000000 C 672.000000 244.000000, 673.000000 235.000000,675.000000 227.000000" stroke="black"  fill="transparent"/>

<line
x1="673" y1="235" x2="675" y2="227"
id="0"
style="stroke:black;stroke-width:1.000000;stroke-opacity:0" />


<line
x1="640" y1="491" x2="640" y2="507"
id="Protein_7b6713426319a9e464de671cdb63425d--to--reactome_R-HSA-174931_LEFT_TO_RIGHT"
style="stroke:black;stroke-width:1.000000;stroke-opacity:0" />


<ellipse
rx="4.400000"
ry="4.400000"
cx="640.000000"
cy="502.600000"
id="Protein_7b6713426319a9e464de671cdb63425d--to--reactome_R-HSA-174931_LEFT_TO_RIGHT"
style="fill:white;fill-opacity:0.800000;stroke:black;stroke-width:1.000000;stroke-opacity:1.000000" />


<path d="M379.000000 531.000000 C 397.000000 533.000000, 427.000000 538.000000,442.000000 540.000000" stroke="black"  fill="transparent"/>

<line
x1="397" y1="533" x2="379" y2="531"
id="0"
style="stroke:black;stroke-width:1.000000;stroke-opacity:0" />


<line
x1="427" y1="538" x2="442" y2="540"
id="SmallMolecule_3d434b22eff54783ec667cbe92f70f93--to--reactome_R-HSA-159194_LEFT_TO_RIGHT-input"
style="stroke:black;stroke-width:1.000000;stroke-opacity:0" />


<path d="M621.000000 651.000000 C 618.000000 628.000000, 613.000000 588.000000,611.000000 570.000000" stroke="black"  fill="transparent"/>

<line
x1="618" y1="628" x2="621" y2="651"
id="0"
style="stroke:black;stroke-width:1.000000;stroke-opacity:0" />


<line
x1="613" y1="588" x2="611" y2="570"
id="SmallMolecule_28f240e937f6a7dd986199f0528d0a28--to--reactome_R-HSA-174916_LEFT_TO_RIGHT-input"
style="stroke:black;stroke-width:1.000000;stroke-opacity:0" />


<path d="M465.000000 578.000000 C 464.000000 567.000000, 464.000000 547.000000,462.000000 530.000000" stroke="black"  fill="transparent"/>
<path d="M462.000000 530.000000 C 457.000000 479.000000, 456.000000 466.000000,445.000000 416.000000" stroke="black"  fill="transparent"/>
<path d="M445.000000 416.000000 C 435.000000 367.000000, 418.000000 310.000000,409.000000 282.000000" stroke="black"  fill="transparent"/>

<line
x1="418" y1="310" x2="409" y2="282"
id="0"
style="stroke:black;stroke-width:1.000000;stroke-opacity:0" />


<line
x1="464" y1="567" x2="465" y2="578"
id="PhysicalEntity_4ced18df820ff6370c774a4066c1631d--to--reactome_R-HSA-159179_LEFT_TO_RIGHT"
style="stroke:black;stroke-width:1.000000;stroke-opacity:0" />


<ellipse
rx="4.400000"
ry="4.400000"
cx="464.601643"
cy="573.618070"
id="PhysicalEntity_4ced18df820ff6370c774a4066c1631d--to--reactome_R-HSA-159179_LEFT_TO_RIGHT"
style="fill:white;fill-opacity:0.800000;stroke:black;stroke-width:1.000000;stroke-opacity:1.000000" />


<path d="M447.000000 664.000000 C 452.000000 644.000000, 459.000000 611.000000,463.000000 595.000000" stroke="black"  fill="transparent"/>

<line
x1="459" y1="611" x2="463" y2="595"
id="0"
style="stroke:black;stroke-width:1.000000;stroke-opacity:0" />


<line
x1="452" y1="644" x2="447" y2="664"
id="reactome_R-HSA-159179_LEFT_TO_RIGHT-output--to--SmallMolecule_2e075f868fce4a387539fbc16e454a5d"
style="stroke:black;stroke-width:1.000000;stroke-opacity:0" />


<polygon
points = "447,664 438.2,659.6 438.2,668.4"
id="line"
style="fill:black; stroke:#000000; stroke-width:1"
transform = "rotate(104.036243 447.000000 664.000000)"
/>


<path d="M169.000000 345.000000 C 193.000000 350.000000, 226.000000 357.000000,241.000000 360.000000" stroke="black"  fill="transparent"/>

<line
x1="193" y1="350" x2="169" y2="345"
id="0"
style="stroke:black;stroke-width:1.000000;stroke-opacity:0" />


<line
x1="226" y1="357" x2="241" y2="360"
id="Protein_539b4eb318c0044a30b3337ab1be462c--to--reactome_R-HSA-5694563_LEFT_TO_RIGHT"
style="stroke:black;stroke-width:1.000000;stroke-opacity:0" />


<ellipse
rx="4.400000"
ry="4.400000"
cx="236.685445"
cy="359.137089"
id="Protein_539b4eb318c0044a30b3337ab1be462c--to--reactome_R-HSA-5694563_LEFT_TO_RIGHT"
style="fill:white;fill-opacity:0.800000;stroke:black;stroke-width:1.000000;stroke-opacity:1.000000" />


<path d="M195.000000 396.000000 C 210.000000 387.000000, 230.000000 374.000000,242.000000 367.000000" stroke="black"  fill="transparent"/>

<line
x1="230" y1="374" x2="242" y2="367"
id="0"
style="stroke:black;stroke-width:1.000000;stroke-opacity:0" />


<line
x1="210" y1="387" x2="195" y2="396"
id="reactome_R-HSA-5694563_LEFT_TO_RIGHT-output--to--SmallMolecule_fbfe37d96a5cb6166dc0e6b5e629c59e"
style="stroke:black;stroke-width:1.000000;stroke-opacity:0" />


<polygon
points = "195,396 186.2,391.6 186.2,400.4"
id="line"
style="fill:black; stroke:#000000; stroke-width:1"
transform = "rotate(149.036243 195.000000 396.000000)"
/>


<path d="M547.000000 503.000000 C 557.000000 497.000000, 571.000000 489.000000,580.000000 483.000000" stroke="black"  fill="transparent"/>

<line
x1="571" y1="489" x2="580" y2="483"
id="0"
style="stroke:black;stroke-width:1.000000;stroke-opacity:0" />


<line
x1="557" y1="497" x2="547" y2="503"
id="reactome_R-HSA-8941701_LEFT_TO_RIGHT-output--to--SmallMolecule_836b6f4e7a095794c9974905ce1d83ae"
style="stroke:black;stroke-width:1.000000;stroke-opacity:0" />


<polygon
points = "547,503 538.2,498.6 538.2,507.4"
id="line"
style="fill:black; stroke:#000000; stroke-width:1"
transform = "rotate(149.036243 547.000000 503.000000)"
/>


<path d="M528.000000 565.000000 C 508.000000 559.000000, 474.000000 549.000000,459.000000 544.000000" stroke="black"  fill="transparent"/>

<line
x1="508" y1="559" x2="528" y2="565"
id="0"
style="stroke:black;stroke-width:1.000000;stroke-opacity:0" />


<line
x1="474" y1="549" x2="459" y2="544"
id="SmallMolecule_bca9f696e582c55356826bd4a37efa6a--to--reactome_R-HSA-159194_LEFT_TO_RIGHT-input"
style="stroke:black;stroke-width:1.000000;stroke-opacity:0" />


<path d="M654.000000 588.000000 C 650.000000 569.000000, 644.000000 539.000000,642.000000 524.000000" stroke="black"  fill="transparent"/>

<line
x1="644" y1="539" x2="642" y2="524"
id="0"
style="stroke:black;stroke-width:1.000000;stroke-opacity:0" />


<line
x1="650" y1="569" x2="654" y2="588"
id="reactome_R-HSA-174931_LEFT_TO_RIGHT-output--to--SmallMolecule_7513f4d9d23d97c98a6a707c3ba7d17c"
style="stroke:black;stroke-width:1.000000;stroke-opacity:0" />


<polygon
points = "654,588 645.2,583.6 645.2,592.4"
id="line"
style="fill:black; stroke:#000000; stroke-width:1"
transform = "rotate(78.111342 654.000000 588.000000)"
/>


<path d="M398.000000 608.000000 C 416.000000 603.000000, 443.000000 594.000000,457.000000 589.000000" stroke="black"  fill="transparent"/>

<line
x1="416" y1="603" x2="398" y2="608"
id="0"
style="stroke:black;stroke-width:1.000000;stroke-opacity:0" />


<line
x1="443" y1="594" x2="457" y2="589"
id="SmallMolecule_cb2e3e33bd06453fb9997d0ff6d2b0a1--to--reactome_R-HSA-159179_LEFT_TO_RIGHT-input"
style="stroke:black;stroke-width:1.000000;stroke-opacity:0" />


<path d="M552.000000 554.000000 C 562.000000 534.000000, 577.000000 502.000000,584.000000 487.000000" stroke="black"  fill="transparent"/>

<line
x1="562" y1="534" x2="552" y2="554"
id="0"
style="stroke:black;stroke-width:1.000000;stroke-opacity:0" />


<line
x1="577" y1="502" x2="584" y2="487"
id="SmallMolecule_bca9f696e582c55356826bd4a37efa6a--to--reactome_R-HSA-8941701_LEFT_TO_RIGHT-input"
style="stroke:black;stroke-width:1.000000;stroke-opacity:0" />



</svg>
