<?xml version="1.0" encoding="UTF-8"?>
<svg width="1589.604839" height="921.462196"
xmlns="http://www.w3.org/2000/svg" xmlns:svg="http://www.w3.org/2000/svg"
>
<metadata id="metadata7">image/svg+xml</metadata>

<rect
width="1159.604839"
height="568.433603"
rx="11.000000"
ry="11.000000"
x="100.000000"
y="183.000000"
id="cytosol"
style="fill:white;fill-opacity:0.900000;stroke:black;stroke-width:5.000000;stroke-opacity:1.000000" />


<text
x="679.802419"
y="175.000000"
id="cytosol"
style="font-size:6.000000px;text-anchor:middle;font-family:Arial,Helvetica;alignment-baseline:baseline;stroke.opacity:1;dominant-baseline:baseline"
fill="black"
>
cytosol</text>



<path
d="M 623.26272771784 343.515528769778 623.26272771784 425.532195436444 628.76272771784 431.032195436444 760.779394384507 431.032195436444 766.279394384507 425.532195436444 766.279394384507 343.515528769778 760.779394384507 338.015528769778 628.76272771784 338.015528769778 Z"
id="Complex_e90c0dac35e2722b7f3b08de3131a764"
style="fill:white;fill-opacity:0.600000;stroke-width:1;stroke:black;stroke-opacity:1.000000"
transform = "rotate(0.000000 0.000000 0.000000)"
/>


<text
x="694.771061"
y="330.015529"
id="Complex_e90c0dac35e2722b7f3b08de3131a764"
style="font-size:6.000000px;text-anchor:middle;font-family:Arial,Helvetica;alignment-baseline:baseline;stroke.opacity:1;dominant-baseline:baseline"
fill="black"
>
Complex (Netrin/UNC-5/ DCC/UNC-40)</text>


<path
d="M 306.853755021196 468.539384384588 306.853755021196 550.556051051254 312.353755021196 556.056051051254 377.287088354529 556.056051051254 382.787088354529 550.556051051254 382.787088354529 468.539384384588 377.287088354529 463.039384384588 312.353755021196 463.039384384588 Z"
id="Complex_1b92b01cfe7da9900f11735ea71f3be2"
style="fill:white;fill-opacity:0.600000;stroke-width:1;stroke:black;stroke-opacity:1.000000"
transform = "rotate(0.000000 0.000000 0.000000)"
/>


<text
x="344.820422"
y="455.039384"
id="Complex_1b92b01cfe7da9900f11735ea71f3be2"
style="font-size:6.000000px;text-anchor:middle;font-family:Arial,Helvetica;alignment-baseline:baseline;stroke.opacity:1;dominant-baseline:baseline"
fill="black"
>
Complex (UNC-5/Netrin)</text>


<path
d="M 913.673362941541 479.362231000644 913.673362941541 561.378897667311 919.173362941541 566.878897667311 984.106696274874 566.878897667311 989.606696274874 561.378897667311 989.606696274874 479.362231000644 984.106696274874 473.862231000644 919.173362941541 473.862231000644 Z"
id="Complex_b52ff3df92d38b6fe58a09a90d3d1495"
style="fill:white;fill-opacity:0.600000;stroke-width:1;stroke:black;stroke-opacity:1.000000"
transform = "rotate(0.000000 0.000000 0.000000)"
/>


<text
x="951.640030"
y="465.862231"
id="Complex_b52ff3df92d38b6fe58a09a90d3d1495"
style="font-size:6.000000px;text-anchor:middle;font-family:Arial,Helvetica;alignment-baseline:baseline;stroke.opacity:1;dominant-baseline:baseline"
fill="black"
>
Complex (Netrin/DCC/ UNC-40)</text>



<rect
width="0.000000"
height="0.000000"
rx="0.000000"
ry="0.000000"
x="0.000000"
y="0.000000"
id="Interaction_773c4ee388e31c03d73c85c04f76f3ae"
style="fill:white;fill-opacity:0.600000;stroke:black;stroke-width:1.000000;stroke-opacity:1.000000" />



<text
x="0.000000"
y="2.000000"
id="Interaction_773c4ee388e31c03d73c85c04f76f3ae"
style="font-size:6.000000px;text-anchor:middle;font-family:Arial,Helvetica;alignment-baseline:baseline;stroke.opacity:1;dominant-baseline:baseline"
fill="black"
>
\\</text>



<rect
width="58.333333"
height="33.333333"
rx="3.333333"
ry="3.333333"
x="692.628383"
y="763.128863"
id="Protein_fded692e9c9e2cc57ca548538815bbca"
style="fill:white;fill-opacity:1.000000;stroke:black;stroke-width:1.000000;stroke-opacity:1.000000" />


<text
x="721.795049"
y="781.795530"
id="Protein_fded692e9c9e2cc57ca548538815bbca"
style="font-size:6.000000px;text-anchor:middle;font-family:Arial,Helvetica;alignment-baseline:baseline;stroke.opacity:1;dominant-baseline:baseline"
fill="black"
>
Netrin</text>



<rect
width="58.333333"
height="33.333333"
rx="3.333333"
ry="3.333333"
x="1064.132650"
y="707.100270"
id="Protein_ef2d0768b2cfa1203df733a8f9ebc0f6"
style="fill:white;fill-opacity:1.000000;stroke:black;stroke-width:1.000000;stroke-opacity:1.000000" />


<text
x="1093.299317"
y="725.766936"
id="Protein_ef2d0768b2cfa1203df733a8f9ebc0f6"
style="font-size:6.000000px;text-anchor:middle;font-family:Arial,Helvetica;alignment-baseline:baseline;stroke.opacity:1;dominant-baseline:baseline"
fill="black"
>
Ena</text>



<rect
width="58.333333"
height="33.333333"
rx="3.333333"
ry="3.333333"
x="815.482240"
y="559.344790"
id="Protein_c99ca6934f4909ec45a5e6ab3b9164b2"
style="fill:white;fill-opacity:1.000000;stroke:black;stroke-width:1.000000;stroke-opacity:1.000000" />


<text
x="844.648907"
y="578.011457"
id="Protein_c99ca6934f4909ec45a5e6ab3b9164b2"
style="font-size:6.000000px;text-anchor:middle;font-family:Arial,Helvetica;alignment-baseline:baseline;stroke.opacity:1;dominant-baseline:baseline"
fill="black"
>
cdc42</text>



<rect
width="58.333333"
height="33.333333"
rx="3.333333"
ry="3.333333"
x="1148.487051"
y="630.045093"
id="Protein_2631eff2319575fc291165e14f1f9b22"
style="fill:white;fill-opacity:1.000000;stroke:black;stroke-width:1.000000;stroke-opacity:1.000000" />


<text
x="1177.653718"
y="648.711760"
id="Protein_2631eff2319575fc291165e14f1f9b22"
style="font-size:6.000000px;text-anchor:middle;font-family:Arial,Helvetica;alignment-baseline:baseline;stroke.opacity:1;dominant-baseline:baseline"
fill="black"
>
PI3K</text>



<rect
width="58.333333"
height="33.333333"
rx="3.333333"
ry="3.333333"
x="1143.073871"
y="441.732831"
id="Protein_d6bf7bf768ab247d9e848e6807f27176"
style="fill:white;fill-opacity:1.000000;stroke:black;stroke-width:1.000000;stroke-opacity:1.000000" />


<text
x="1172.240537"
y="460.399498"
id="Protein_d6bf7bf768ab247d9e848e6807f27176"
style="font-size:6.000000px;text-anchor:middle;font-family:Arial,Helvetica;alignment-baseline:baseline;stroke.opacity:1;dominant-baseline:baseline"
fill="black"
>
NFAT</text>



<rect
width="58.333333"
height="33.333333"
rx="3.333333"
ry="3.333333"
x="1190.271506"
y="503.624857"
id="Protein_674c10c841dd22be28511dd95326b0a3"
style="fill:white;fill-opacity:1.000000;stroke:black;stroke-width:1.000000;stroke-opacity:1.000000" />


<text
x="1219.438172"
y="522.291523"
id="Protein_674c10c841dd22be28511dd95326b0a3"
style="font-size:6.000000px;text-anchor:middle;font-family:Arial,Helvetica;alignment-baseline:baseline;stroke.opacity:1;dominant-baseline:baseline"
fill="black"
>
Phospholipase C</text>



<rect
width="58.333333"
height="33.333333"
rx="3.333333"
ry="3.333333"
x="632.062728"
y="346.815529"
id="Protein_86c17bff718ccca9d29927b4fb72fbaa_Complex_e90c0dac35e2722b7f3b08de3131a764"
style="fill:white;fill-opacity:1.000000;stroke:black;stroke-width:1.000000;stroke-opacity:1.000000" />


<text
x="661.229394"
y="365.482195"
id="Protein_86c17bff718ccca9d29927b4fb72fbaa_Complex_e90c0dac35e2722b7f3b08de3131a764"
style="font-size:6.000000px;text-anchor:middle;font-family:Arial,Helvetica;alignment-baseline:baseline;stroke.opacity:1;dominant-baseline:baseline"
fill="black"
>
DCC/UNC-40</text>



<rect
width="58.333333"
height="33.333333"
rx="3.333333"
ry="3.333333"
x="632.062728"
y="388.898862"
id="Protein_f3cbe00bd1a1c3b733c661246be59f6f_Complex_e90c0dac35e2722b7f3b08de3131a764"
style="fill:white;fill-opacity:1.000000;stroke:black;stroke-width:1.000000;stroke-opacity:1.000000" />


<text
x="661.229394"
y="407.565529"
id="Protein_f3cbe00bd1a1c3b733c661246be59f6f_Complex_e90c0dac35e2722b7f3b08de3131a764"
style="font-size:6.000000px;text-anchor:middle;font-family:Arial,Helvetica;alignment-baseline:baseline;stroke.opacity:1;dominant-baseline:baseline"
fill="black"
>
UNC-5</text>



<rect
width="58.333333"
height="33.333333"
rx="3.333333"
ry="3.333333"
x="699.146061"
y="346.815529"
id="Protein_be781611836809ce3323e992e534976a_Complex_e90c0dac35e2722b7f3b08de3131a764"
style="fill:white;fill-opacity:1.000000;stroke:black;stroke-width:1.000000;stroke-opacity:1.000000" />


<text
x="728.312728"
y="365.482195"
id="Protein_be781611836809ce3323e992e534976a_Complex_e90c0dac35e2722b7f3b08de3131a764"
style="font-size:6.000000px;text-anchor:middle;font-family:Arial,Helvetica;alignment-baseline:baseline;stroke.opacity:1;dominant-baseline:baseline"
fill="black"
>
Netrin</text>



<rect
width="58.333333"
height="33.333333"
rx="3.333333"
ry="3.333333"
x="927.819139"
y="699.955844"
id="Protein_97aeddb4376eeebcdb9bbec92425a896"
style="fill:white;fill-opacity:1.000000;stroke:black;stroke-width:1.000000;stroke-opacity:1.000000" />


<text
x="956.985806"
y="718.622511"
id="Protein_97aeddb4376eeebcdb9bbec92425a896"
style="font-size:6.000000px;text-anchor:middle;font-family:Arial,Helvetica;alignment-baseline:baseline;stroke.opacity:1;dominant-baseline:baseline"
fill="black"
>
Ena</text>



<rect
width="58.333333"
height="33.333333"
rx="3.333333"
ry="3.333333"
x="535.199662"
y="553.917994"
id="Protein_fd0c2c11ed649542a7f3d54bb572f028"
style="fill:white;fill-opacity:1.000000;stroke:black;stroke-width:1.000000;stroke-opacity:1.000000" />


<text
x="564.366329"
y="572.584661"
id="Protein_fd0c2c11ed649542a7f3d54bb572f028"
style="font-size:6.000000px;text-anchor:middle;font-family:Arial,Helvetica;alignment-baseline:baseline;stroke.opacity:1;dominant-baseline:baseline"
fill="black"
>
UNC-5</text>



<rect
width="58.333333"
height="33.333333"
rx="3.333333"
ry="3.333333"
x="315.653755"
y="471.839384"
id="Protein_e5369a022dedbdbc0f2d965cf3b5673b_Complex_1b92b01cfe7da9900f11735ea71f3be2"
style="fill:white;fill-opacity:1.000000;stroke:black;stroke-width:1.000000;stroke-opacity:1.000000" />


<text
x="344.820422"
y="490.506051"
id="Protein_e5369a022dedbdbc0f2d965cf3b5673b_Complex_1b92b01cfe7da9900f11735ea71f3be2"
style="font-size:6.000000px;text-anchor:middle;font-family:Arial,Helvetica;alignment-baseline:baseline;stroke.opacity:1;dominant-baseline:baseline"
fill="black"
>
UNC-5</text>



<rect
width="58.333333"
height="33.333333"
rx="3.333333"
ry="3.333333"
x="315.653755"
y="513.922718"
id="Protein_4f01008997750c4f024a1ca1322cd96a_Complex_1b92b01cfe7da9900f11735ea71f3be2"
style="fill:white;fill-opacity:1.000000;stroke:black;stroke-width:1.000000;stroke-opacity:1.000000" />


<text
x="344.820422"
y="532.589384"
id="Protein_4f01008997750c4f024a1ca1322cd96a_Complex_1b92b01cfe7da9900f11735ea71f3be2"
style="font-size:6.000000px;text-anchor:middle;font-family:Arial,Helvetica;alignment-baseline:baseline;stroke.opacity:1;dominant-baseline:baseline"
fill="black"
>
Netrin</text>



<rect
width="58.333333"
height="33.333333"
rx="3.333333"
ry="3.333333"
x="167.248643"
y="573.160843"
id="Protein_c3479156799e77022bc914328f5dbbd8"
style="fill:white;fill-opacity:1.000000;stroke:black;stroke-width:1.000000;stroke-opacity:1.000000" />


<text
x="196.415310"
y="591.827510"
id="Protein_c3479156799e77022bc914328f5dbbd8"
style="font-size:6.000000px;text-anchor:middle;font-family:Arial,Helvetica;alignment-baseline:baseline;stroke.opacity:1;dominant-baseline:baseline"
fill="black"
>
MAX-1</text>



<rect
width="58.333333"
height="33.333333"
rx="3.333333"
ry="3.333333"
x="1106.752898"
y="381.544595"
id="Protein_1c8eb357ad20367bab1bc0574fc0a56b"
style="fill:white;fill-opacity:1.000000;stroke:black;stroke-width:1.000000;stroke-opacity:1.000000" />


<text
x="1135.919565"
y="400.211261"
id="Protein_1c8eb357ad20367bab1bc0574fc0a56b"
style="font-size:6.000000px;text-anchor:middle;font-family:Arial,Helvetica;alignment-baseline:baseline;stroke.opacity:1;dominant-baseline:baseline"
fill="black"
>
Phospholipase C</text>



<rect
width="58.333333"
height="33.333333"
rx="3.333333"
ry="3.333333"
x="852.135842"
y="288.086688"
id="Protein_74f05ab98eb8f45d41ed43dc9e0447e3"
style="fill:white;fill-opacity:1.000000;stroke:black;stroke-width:1.000000;stroke-opacity:1.000000" />


<text
x="881.302508"
y="306.753355"
id="Protein_74f05ab98eb8f45d41ed43dc9e0447e3"
style="font-size:6.000000px;text-anchor:middle;font-family:Arial,Helvetica;alignment-baseline:baseline;stroke.opacity:1;dominant-baseline:baseline"
fill="black"
>
Rac</text>



<rect
width="58.333333"
height="33.333333"
rx="3.333333"
ry="3.333333"
x="922.473363"
y="482.662231"
id="Protein_7df886b2dc408315c4b34bd954db6f9f_Complex_b52ff3df92d38b6fe58a09a90d3d1495"
style="fill:white;fill-opacity:1.000000;stroke:black;stroke-width:1.000000;stroke-opacity:1.000000" />


<text
x="951.640030"
y="501.328898"
id="Protein_7df886b2dc408315c4b34bd954db6f9f_Complex_b52ff3df92d38b6fe58a09a90d3d1495"
style="font-size:6.000000px;text-anchor:middle;font-family:Arial,Helvetica;alignment-baseline:baseline;stroke.opacity:1;dominant-baseline:baseline"
fill="black"
>
Netrin</text>



<rect
width="58.333333"
height="33.333333"
rx="3.333333"
ry="3.333333"
x="922.473363"
y="524.745564"
id="Protein_7ef1c5c343001fbaea4e236c54f3d24f_Complex_b52ff3df92d38b6fe58a09a90d3d1495"
style="fill:white;fill-opacity:1.000000;stroke:black;stroke-width:1.000000;stroke-opacity:1.000000" />


<text
x="951.640030"
y="543.412231"
id="Protein_7ef1c5c343001fbaea4e236c54f3d24f_Complex_b52ff3df92d38b6fe58a09a90d3d1495"
style="font-size:6.000000px;text-anchor:middle;font-family:Arial,Helvetica;alignment-baseline:baseline;stroke.opacity:1;dominant-baseline:baseline"
fill="black"
>
DCC/UNC-40</text>



<rect
width="58.333333"
height="33.333333"
rx="3.333333"
ry="3.333333"
x="111.000000"
y="456.363716"
id="Protein_f917b9648139335a9b25ce3e8b670a0e"
style="fill:white;fill-opacity:1.000000;stroke:black;stroke-width:1.000000;stroke-opacity:1.000000" />


<text
x="140.166667"
y="475.030383"
id="Protein_f917b9648139335a9b25ce3e8b670a0e"
style="font-size:6.000000px;text-anchor:middle;font-family:Arial,Helvetica;alignment-baseline:baseline;stroke.opacity:1;dominant-baseline:baseline"
fill="black"
>
MAX-1</text>



<rect
width="58.333333"
height="33.333333"
rx="3.333333"
ry="3.333333"
x="830.499293"
y="434.584128"
id="Protein_81890f3f0d63d7b92b2fda253bea147b"
style="fill:white;fill-opacity:1.000000;stroke:black;stroke-width:1.000000;stroke-opacity:1.000000" />


<text
x="859.665959"
y="453.250795"
id="Protein_81890f3f0d63d7b92b2fda253bea147b"
style="font-size:6.000000px;text-anchor:middle;font-family:Arial,Helvetica;alignment-baseline:baseline;stroke.opacity:1;dominant-baseline:baseline"
fill="black"
>
Rac</text>



<rect
width="58.333333"
height="33.333333"
rx="3.333333"
ry="3.333333"
x="1097.150120"
y="542.270654"
id="Protein_11482e65ca750c3495396f28cb6d75e4"
style="fill:white;fill-opacity:1.000000;stroke:black;stroke-width:1.000000;stroke-opacity:1.000000" />


<text
x="1126.316786"
y="560.937320"
id="Protein_11482e65ca750c3495396f28cb6d75e4"
style="font-size:6.000000px;text-anchor:middle;font-family:Arial,Helvetica;alignment-baseline:baseline;stroke.opacity:1;dominant-baseline:baseline"
fill="black"
>
PI3K</text>



<rect
width="58.333333"
height="33.333333"
rx="3.333333"
ry="3.333333"
x="1049.321482"
y="249.591862"
id="Protein_5ee65ae85b5d73e36f346367724a7040"
style="fill:white;fill-opacity:1.000000;stroke:black;stroke-width:1.000000;stroke-opacity:1.000000" />


<text
x="1078.488148"
y="268.258529"
id="Protein_5ee65ae85b5d73e36f346367724a7040"
style="font-size:6.000000px;text-anchor:middle;font-family:Arial,Helvetica;alignment-baseline:baseline;stroke.opacity:1;dominant-baseline:baseline"
fill="black"
>
ABLIM1</text>



<rect
width="58.333333"
height="33.333333"
rx="3.333333"
ry="3.333333"
x="908.787322"
y="194.000000"
id="Protein_10440a7403d85e0473b91fe23c71193f"
style="fill:white;fill-opacity:1.000000;stroke:black;stroke-width:1.000000;stroke-opacity:1.000000" />


<text
x="937.953988"
y="212.666667"
id="Protein_10440a7403d85e0473b91fe23c71193f"
style="font-size:6.000000px;text-anchor:middle;font-family:Arial,Helvetica;alignment-baseline:baseline;stroke.opacity:1;dominant-baseline:baseline"
fill="black"
>
ABLIM1</text>



<rect
width="58.333333"
height="33.333333"
rx="3.333333"
ry="3.333333"
x="708.547314"
y="493.125672"
id="Protein_3146b0f40a562a87d3f2dffafe67e7de"
style="fill:white;fill-opacity:1.000000;stroke:black;stroke-width:1.000000;stroke-opacity:1.000000" />


<text
x="737.713980"
y="511.792338"
id="Protein_3146b0f40a562a87d3f2dffafe67e7de"
style="font-size:6.000000px;text-anchor:middle;font-family:Arial,Helvetica;alignment-baseline:baseline;stroke.opacity:1;dominant-baseline:baseline"
fill="black"
>
cdc42</text>



<rect
width="58.333333"
height="33.333333"
rx="3.333333"
ry="3.333333"
x="995.424676"
y="346.249863"
id="Protein_5f08852b439815be6acb921fcd0ec8ae"
style="fill:white;fill-opacity:1.000000;stroke:black;stroke-width:1.000000;stroke-opacity:1.000000" />


<text
x="1024.591342"
y="364.916529"
id="Protein_5f08852b439815be6acb921fcd0ec8ae"
style="font-size:6.000000px;text-anchor:middle;font-family:Arial,Helvetica;alignment-baseline:baseline;stroke.opacity:1;dominant-baseline:baseline"
fill="black"
>
NFAT</text>



<rect
width="58.333333"
height="33.333333"
rx="3.333333"
ry="3.333333"
x="698.402202"
y="587.627737"
id="Protein_6919180fcffb6b3f300a23c52b5c3485"
style="fill:white;fill-opacity:1.000000;stroke:black;stroke-width:1.000000;stroke-opacity:1.000000" />


<text
x="727.568869"
y="606.294404"
id="Protein_6919180fcffb6b3f300a23c52b5c3485"
style="font-size:6.000000px;text-anchor:middle;font-family:Arial,Helvetica;alignment-baseline:baseline;stroke.opacity:1;dominant-baseline:baseline"
fill="black"
>
DCC/UNC-40</text>


<rect
width="16.666667"
height="16.666667"
rx="0.000000"
ry="0.000000"
x="1069.942081"
y="613.011061"
id="BiochemicalReaction_2962fae7b76404f4a19f23bfc5dc21d7_LEFT_TO_RIGHT"
style="fill:white;fill-opacity:0.600000;stroke:black;stroke-width:1.000000;stroke-opacity:1.000000" />



<rect
width="16.666667"
height="16.666667"
rx="0.000000"
ry="0.000000"
x="870.294569"
y="380.762860"
id="BiochemicalReaction_b148457c12111bcd2b898649565b01d5_LEFT_TO_RIGHT"
style="fill:white;fill-opacity:0.600000;stroke:black;stroke-width:1.000000;stroke-opacity:1.000000" />



<rect
width="16.666667"
height="16.666667"
rx="0.000000"
ry="0.000000"
x="1022.205359"
y="646.865416"
id="BiochemicalReaction_75ff18841610d75cf229f27e59f4427a_LEFT_TO_RIGHT"
style="fill:white;fill-opacity:0.600000;stroke:black;stroke-width:1.000000;stroke-opacity:1.000000" />



<rect
width="16.666667"
height="16.666667"
rx="0.000000"
ry="0.000000"
x="1094.804990"
y="486.760309"
id="BiochemicalReaction_24a82524f9757426b627403375cad6a7_LEFT_TO_RIGHT"
style="fill:white;fill-opacity:0.600000;stroke:black;stroke-width:1.000000;stroke-opacity:1.000000" />



<rect
width="16.666667"
height="16.666667"
rx="0.000000"
ry="0.000000"
x="975.242508"
y="280.652028"
id="BiochemicalReaction_dd91c447b25ab06ffe2b1af3b3f7c3d2_LEFT_TO_RIGHT"
style="fill:white;fill-opacity:0.600000;stroke:black;stroke-width:1.000000;stroke-opacity:1.000000" />



<rect
width="16.666667"
height="16.666667"
rx="0.000000"
ry="0.000000"
x="654.283913"
y="521.642102"
id="ComplexAssembly_d4efd450e6af24aece3dc0682a6964eb_LEFT_TO_RIGHT"
style="fill:white;fill-opacity:0.600000;stroke:black;stroke-width:1.000000;stroke-opacity:1.000000" />



<rect
width="16.666667"
height="16.666667"
rx="0.000000"
ry="0.000000"
x="1060.538527"
y="432.778167"
id="BiochemicalReaction_19270a9cd25ec9e0800ffef7e657b5b0_LEFT_TO_RIGHT"
style="fill:white;fill-opacity:0.600000;stroke:black;stroke-width:1.000000;stroke-opacity:1.000000" />



<rect
width="16.666667"
height="16.666667"
rx="0.000000"
ry="0.000000"
x="829.520666"
y="496.897953"
id="BiochemicalReaction_b31b5c18aff2d3cb69a67b4d795238f0_LEFT_TO_RIGHT"
style="fill:white;fill-opacity:0.600000;stroke:black;stroke-width:1.000000;stroke-opacity:1.000000" />



<rect
width="16.666667"
height="16.666667"
rx="0.000000"
ry="0.000000"
x="831.651857"
y="621.954349"
id="ComplexAssembly_0eca5c04c52012dbc7bb5b74048b7f33_LEFT_TO_RIGHT"
style="fill:white;fill-opacity:0.600000;stroke:black;stroke-width:1.000000;stroke-opacity:1.000000" />



<rect
width="16.666667"
height="16.666667"
rx="0.000000"
ry="0.000000"
x="467.916133"
y="520.646739"
id="ComplexAssembly_c3e7b121eb93094ef417803a5788cdaa_LEFT_TO_RIGHT"
style="fill:white;fill-opacity:0.600000;stroke:black;stroke-width:1.000000;stroke-opacity:1.000000" />



<rect
width="16.666667"
height="16.666667"
rx="0.000000"
ry="0.000000"
x="231.416339"
y="504.189216"
id="BiochemicalReaction_24c5e66026fcf31e1cd114c045eacb21_LEFT_TO_RIGHT"
style="fill:white;fill-opacity:0.600000;stroke:black;stroke-width:1.000000;stroke-opacity:1.000000" />





<path d="M947.000000 227.000000 C 957.000000 243.000000, 970.000000 267.000000,978.000000 280.000000" stroke="black"  fill="transparent"/>

<line
x1="957" y1="243" x2="947" y2="227"
id="0"
style="stroke:black;stroke-width:1.000000;stroke-opacity:0" />


<line
x1="970" y1="267" x2="978" y2="280"
id="Protein_10440a7403d85e0473b91fe23c71193f--to--BiochemicalReaction_dd91c447b25ab06ffe2b1af3b3f7c3d2_LEFT_TO_RIGHT-input"
style="stroke:black;stroke-width:1.000000;stroke-opacity:0" />


<path d="M843.000000 559.000000 C 841.000000 545.000000, 839.000000 525.000000,838.000000 513.000000" stroke="black"  fill="transparent"/>

<line
x1="839" y1="525" x2="838" y2="513"
id="0"
style="stroke:black;stroke-width:1.000000;stroke-opacity:0" />


<line
x1="841" y1="545" x2="843" y2="559"
id="BiochemicalReaction_b31b5c18aff2d3cb69a67b4d795238f0_LEFT_TO_RIGHT-output--to--Protein_c99ca6934f4909ec45a5e6ab3b9164b2"
style="stroke:black;stroke-width:1.000000;stroke-opacity:0" />


<polygon
points = "843,559 834.2,554.6 834.2,563.4"
id="line"
style="fill:black; stroke:#000000; stroke-width:1"
transform = "rotate(81.869898 843.000000 559.000000)"
/>


<path d="M1190.000000 513.000000 C 1164.000000 508.000000, 1128.000000 500.000000,1111.000000 496.000000" stroke="black"  fill="transparent"/>

<line
x1="1164" y1="508" x2="1190" y2="513"
id="0"
style="stroke:black;stroke-width:1.000000;stroke-opacity:0" />


<line
x1="1128" y1="500" x2="1111" y2="496"
id="Protein_674c10c841dd22be28511dd95326b0a3--to--BiochemicalReaction_24a82524f9757426b627403375cad6a7_LEFT_TO_RIGHT-input"
style="stroke:black;stroke-width:1.000000;stroke-opacity:0" />


<path d="M306.000000 510.000000 C 285.000000 511.000000, 261.000000 511.000000,248.000000 512.000000" stroke="black"  fill="transparent"/>

<line
x1="285" y1="511" x2="306" y2="510"
id="0"
style="stroke:black;stroke-width:1.000000;stroke-opacity:0" />


<line
x1="261" y1="511" x2="248" y2="512"
id="Complex_1b92b01cfe7da9900f11735ea71f3be2--to--BiochemicalReaction_24c5e66026fcf31e1cd114c045eacb21_LEFT_TO_RIGHT"
style="stroke:black;stroke-width:1.000000;stroke-opacity:0" />


<polygon
points = "248,512 234.8,507.6 234.8,516.4"
id="line"
style="fill:white; stroke:#000000; stroke-width:1"
transform = "rotate(175.601295 248.000000 512.000000)"
/>


<path d="M989.000000 494.000000 C 1014.000000 477.000000, 1045.000000 456.000000,1060.000000 446.000000" stroke="black"  fill="transparent"/>

<line
x1="1014" y1="477" x2="989" y2="494"
id="0"
style="stroke:black;stroke-width:1.000000;stroke-opacity:0" />


<line
x1="1045" y1="456" x2="1060" y2="446"
id="Complex_b52ff3df92d38b6fe58a09a90d3d1495--to--BiochemicalReaction_19270a9cd25ec9e0800ffef7e657b5b0_LEFT_TO_RIGHT"
style="stroke:black;stroke-width:1.000000;stroke-opacity:0" />


<polygon
points = "1060,446 1046.8,441.6 1046.8,450.4"
id="line"
style="fill:white; stroke:#000000; stroke-width:1"
transform = "rotate(-33.690068 1060.000000 446.000000)"
/>


<path d="M382.000000 515.000000 C 412.000000 519.000000, 451.000000 525.000000,467.000000 527.000000" stroke="black"  fill="transparent"/>

<line
x1="451" y1="525" x2="467" y2="527"
id="0"
style="stroke:black;stroke-width:1.000000;stroke-opacity:0" />


<line
x1="412" y1="519" x2="382" y2="515"
id="ComplexAssembly_c3e7b121eb93094ef417803a5788cdaa_LEFT_TO_RIGHT-output--to--Complex_1b92b01cfe7da9900f11735ea71f3be2"
style="stroke:black;stroke-width:1.000000;stroke-opacity:0" />


<polygon
points = "382,515 373.2,510.6 373.2,519.4"
id="line"
style="fill:black; stroke:#000000; stroke-width:1"
transform = "rotate(187.594643 382.000000 515.000000)"
/>


<path d="M712.000000 587.000000 C 699.000000 572.000000, 680.000000 550.000000,670.000000 538.000000" stroke="black"  fill="transparent"/>

<line
x1="699" y1="572" x2="712" y2="587"
id="0"
style="stroke:black;stroke-width:1.000000;stroke-opacity:0" />


<line
x1="680" y1="550" x2="670" y2="538"
id="Protein_6919180fcffb6b3f300a23c52b5c3485--to--ComplexAssembly_d4efd450e6af24aece3dc0682a6964eb_LEFT_TO_RIGHT-input"
style="stroke:black;stroke-width:1.000000;stroke-opacity:0" />


<path d="M1033.000000 379.000000 C 1043.000000 395.000000, 1056.000000 419.000000,1063.000000 432.000000" stroke="black"  fill="transparent"/>

<line
x1="1056" y1="419" x2="1063" y2="432"
id="0"
style="stroke:black;stroke-width:1.000000;stroke-opacity:0" />


<line
x1="1043" y1="395" x2="1033" y2="379"
id="BiochemicalReaction_19270a9cd25ec9e0800ffef7e657b5b0_LEFT_TO_RIGHT-output--to--Protein_5f08852b439815be6acb921fcd0ec8ae"
style="stroke:black;stroke-width:1.000000;stroke-opacity:0" />


<polygon
points = "1033,379 1024.2,374.6 1024.2,383.4"
id="line"
style="fill:black; stroke:#000000; stroke-width:1"
transform = "rotate(237.994617 1033.000000 379.000000)"
/>


<path d="M864.000000 434.000000 C 868.000000 422.000000, 873.000000 407.000000,875.000000 397.000000" stroke="black"  fill="transparent"/>

<line
x1="868" y1="422" x2="864" y2="434"
id="0"
style="stroke:black;stroke-width:1.000000;stroke-opacity:0" />


<line
x1="873" y1="407" x2="875" y2="397"
id="Protein_81890f3f0d63d7b92b2fda253bea147b--to--BiochemicalReaction_b148457c12111bcd2b898649565b01d5_LEFT_TO_RIGHT-input"
style="stroke:black;stroke-width:1.000000;stroke-opacity:0" />


<path d="M977.000000 699.000000 C 991.000000 687.000000, 1011.000000 671.000000,1022.000000 662.000000" stroke="black"  fill="transparent"/>

<line
x1="991" y1="687" x2="977" y2="699"
id="0"
style="stroke:black;stroke-width:1.000000;stroke-opacity:0" />


<line
x1="1011" y1="671" x2="1022" y2="662"
id="Protein_97aeddb4376eeebcdb9bbec92425a896--to--BiochemicalReaction_75ff18841610d75cf229f27e59f4427a_LEFT_TO_RIGHT-input"
style="stroke:black;stroke-width:1.000000;stroke-opacity:0" />


<path d="M1130.000000 415.000000 C 1123.000000 435.000000, 1111.000000 470.000000,1106.000000 486.000000" stroke="black"  fill="transparent"/>

<line
x1="1111" y1="470" x2="1106" y2="486"
id="0"
style="stroke:black;stroke-width:1.000000;stroke-opacity:0" />


<line
x1="1123" y1="435" x2="1130" y2="415"
id="BiochemicalReaction_24a82524f9757426b627403375cad6a7_LEFT_TO_RIGHT-output--to--Protein_1c8eb357ad20367bab1bc0574fc0a56b"
style="stroke:black;stroke-width:1.000000;stroke-opacity:0" />


<polygon
points = "1130,415 1121.2,410.6 1121.2,419.4"
id="line"
style="fill:black; stroke:#000000; stroke-width:1"
transform = "rotate(-70.709954 1130.000000 415.000000)"
/>


<path d="M925.000000 473.000000 C 910.000000 446.000000, 892.000000 413.000000,883.000000 397.000000" stroke="black"  fill="transparent"/>

<line
x1="910" y1="446" x2="925" y2="473"
id="0"
style="stroke:black;stroke-width:1.000000;stroke-opacity:0" />


<line
x1="892" y1="413" x2="883" y2="397"
id="Complex_b52ff3df92d38b6fe58a09a90d3d1495--to--BiochemicalReaction_b148457c12111bcd2b898649565b01d5_LEFT_TO_RIGHT"
style="stroke:black;stroke-width:1.000000;stroke-opacity:0" />


<polygon
points = "883,397 869.8,392.6 869.8,401.4"
id="line"
style="fill:white; stroke:#000000; stroke-width:1"
transform = "rotate(240.642246 883.000000 397.000000)"
/>


<path d="M766.000000 386.000000 C 806.000000 387.000000, 851.000000 388.000000,870.000000 388.000000" stroke="black"  fill="transparent"/>

<line
x1="806" y1="387" x2="766" y2="386"
id="0"
style="stroke:black;stroke-width:1.000000;stroke-opacity:0" />


<line
x1="851" y1="388" x2="870" y2="388"
id="Complex_e90c0dac35e2722b7f3b08de3131a764--to--BiochemicalReaction_b148457c12111bcd2b898649565b01d5_LEFT_TO_RIGHT"
style="stroke:black;stroke-width:1.000000;stroke-opacity:0" />


<polygon
points = "870,388 856.8,383.6 856.8,392.4"
id="line"
style="fill:white; stroke:#000000; stroke-width:1"
transform = "rotate(-0.000000 870.000000 388.000000)"
/>


<path d="M766.000000 508.000000 C 788.000000 507.000000, 815.000000 506.000000,829.000000 505.000000" stroke="black"  fill="transparent"/>

<line
x1="788" y1="507" x2="766" y2="508"
id="0"
style="stroke:black;stroke-width:1.000000;stroke-opacity:0" />


<line
x1="815" y1="506" x2="829" y2="505"
id="Protein_3146b0f40a562a87d3f2dffafe67e7de--to--BiochemicalReaction_b31b5c18aff2d3cb69a67b4d795238f0_LEFT_TO_RIGHT-input"
style="stroke:black;stroke-width:1.000000;stroke-opacity:0" />


<path d="M205.000000 573.000000 C 214.000000 557.000000, 227.000000 533.000000,234.000000 521.000000" stroke="black"  fill="transparent"/>

<line
x1="214" y1="557" x2="205" y2="573"
id="0"
style="stroke:black;stroke-width:1.000000;stroke-opacity:0" />


<line
x1="227" y1="533" x2="234" y2="521"
id="Protein_c3479156799e77022bc914328f5dbbd8--to--BiochemicalReaction_24c5e66026fcf31e1cd114c045eacb21_LEFT_TO_RIGHT-input"
style="stroke:black;stroke-width:1.000000;stroke-opacity:0" />


<path d="M1049.000000 273.000000 C 1029.000000 278.000000, 1004.000000 283.000000,991.000000 286.000000" stroke="black"  fill="transparent"/>

<line
x1="1004" y1="283" x2="991" y2="286"
id="0"
style="stroke:black;stroke-width:1.000000;stroke-opacity:0" />


<line
x1="1029" y1="278" x2="1049" y2="273"
id="BiochemicalReaction_dd91c447b25ab06ffe2b1af3b3f7c3d2_LEFT_TO_RIGHT-output--to--Protein_5ee65ae85b5d73e36f346367724a7040"
style="stroke:black;stroke-width:1.000000;stroke-opacity:0" />


<polygon
points = "1049,273 1040.2,268.6 1040.2,277.4"
id="line"
style="fill:black; stroke:#000000; stroke-width:1"
transform = "rotate(-14.036243 1049.000000 273.000000)"
/>


<path d="M1143.000000 453.000000 C 1120.000000 449.000000, 1091.000000 444.000000,1077.000000 442.000000" stroke="black"  fill="transparent"/>

<line
x1="1120" y1="449" x2="1143" y2="453"
id="0"
style="stroke:black;stroke-width:1.000000;stroke-opacity:0" />


<line
x1="1091" y1="444" x2="1077" y2="442"
id="Protein_d6bf7bf768ab247d9e848e6807f27176--to--BiochemicalReaction_19270a9cd25ec9e0800ffef7e657b5b0_LEFT_TO_RIGHT-input"
style="stroke:black;stroke-width:1.000000;stroke-opacity:0" />


<path d="M979.000000 567.000000 C 996.000000 596.000000, 1016.000000 630.000000,1025.000000 646.000000" stroke="black"  fill="transparent"/>

<line
x1="996" y1="596" x2="979" y2="567"
id="0"
style="stroke:black;stroke-width:1.000000;stroke-opacity:0" />


<line
x1="1016" y1="630" x2="1025" y2="646"
id="Complex_b52ff3df92d38b6fe58a09a90d3d1495--to--BiochemicalReaction_75ff18841610d75cf229f27e59f4427a_LEFT_TO_RIGHT"
style="stroke:black;stroke-width:1.000000;stroke-opacity:0" />


<ellipse
rx="4.400000"
ry="4.400000"
cx="1022.842851"
cy="642.165068"
id="Complex_b52ff3df92d38b6fe58a09a90d3d1495--to--BiochemicalReaction_75ff18841610d75cf229f27e59f4427a_LEFT_TO_RIGHT"
style="fill:white;fill-opacity:0.800000;stroke:black;stroke-width:1.000000;stroke-opacity:1.000000" />


<path d="M1148.000000 639.000000 C 1127.000000 633.000000, 1100.000000 626.000000,1086.000000 623.000000" stroke="black"  fill="transparent"/>

<line
x1="1100" y1="626" x2="1086" y2="623"
id="0"
style="stroke:black;stroke-width:1.000000;stroke-opacity:0" />


<line
x1="1127" y1="633" x2="1148" y2="639"
id="BiochemicalReaction_2962fae7b76404f4a19f23bfc5dc21d7_LEFT_TO_RIGHT-output--to--Protein_2631eff2319575fc291165e14f1f9b22"
style="stroke:black;stroke-width:1.000000;stroke-opacity:0" />


<polygon
points = "1148,639 1139.2,634.6 1139.2,643.4"
id="line"
style="fill:black; stroke:#000000; stroke-width:1"
transform = "rotate(15.945396 1148.000000 639.000000)"
/>


<path d="M734.000000 763.000000 C 760.000000 731.000000, 814.000000 662.000000,833.000000 638.000000" stroke="black"  fill="transparent"/>

<line
x1="760" y1="731" x2="734" y2="763"
id="0"
style="stroke:black;stroke-width:1.000000;stroke-opacity:0" />


<line
x1="814" y1="662" x2="833" y2="638"
id="Protein_fded692e9c9e2cc57ca548538815bbca--to--ComplexAssembly_0eca5c04c52012dbc7bb5b74048b7f33_LEFT_TO_RIGHT-input"
style="stroke:black;stroke-width:1.000000;stroke-opacity:0" />


<path d="M910.000000 300.000000 C 932.000000 296.000000, 960.000000 292.000000,975.000000 290.000000" stroke="black"  fill="transparent"/>

<line
x1="932" y1="296" x2="910" y2="300"
id="0"
style="stroke:black;stroke-width:1.000000;stroke-opacity:0" />


<line
x1="960" y1="292" x2="975" y2="290"
id="Protein_74f05ab98eb8f45d41ed43dc9e0447e3--to--BiochemicalReaction_dd91c447b25ab06ffe2b1af3b3f7c3d2_LEFT_TO_RIGHT"
style="stroke:black;stroke-width:1.000000;stroke-opacity:0" />


<ellipse
rx="4.400000"
ry="4.400000"
cx="970.638597"
cy="290.581520"
id="Protein_74f05ab98eb8f45d41ed43dc9e0447e3--to--BiochemicalReaction_dd91c447b25ab06ffe2b1af3b3f7c3d2_LEFT_TO_RIGHT"
style="fill:white;fill-opacity:0.800000;stroke:black;stroke-width:1.000000;stroke-opacity:1.000000" />


<path d="M989.000000 513.000000 C 1025.000000 508.000000, 1075.000000 499.000000,1094.000000 496.000000" stroke="black"  fill="transparent"/>

<line
x1="1025" y1="508" x2="989" y2="513"
id="0"
style="stroke:black;stroke-width:1.000000;stroke-opacity:0" />


<line
x1="1075" y1="499" x2="1094" y2="496"
id="Complex_b52ff3df92d38b6fe58a09a90d3d1495--to--BiochemicalReaction_24a82524f9757426b627403375cad6a7_LEFT_TO_RIGHT"
style="stroke:black;stroke-width:1.000000;stroke-opacity:0" />


<polygon
points = "1094,496 1080.8,491.6 1080.8,500.4"
id="line"
style="fill:white; stroke:#000000; stroke-width:1"
transform = "rotate(-8.972627 1094.000000 496.000000)"
/>


<path d="M535.000000 556.000000 C 517.000000 548.000000, 496.000000 538.000000,484.000000 533.000000" stroke="black"  fill="transparent"/>

<line
x1="517" y1="548" x2="535" y2="556"
id="0"
style="stroke:black;stroke-width:1.000000;stroke-opacity:0" />


<line
x1="496" y1="538" x2="484" y2="533"
id="Protein_fd0c2c11ed649542a7f3d54bb572f028--to--ComplexAssembly_c3e7b121eb93094ef417803a5788cdaa_LEFT_TO_RIGHT-input"
style="stroke:black;stroke-width:1.000000;stroke-opacity:0" />


<path d="M913.000000 515.000000 C 889.000000 512.000000, 860.000000 508.000000,846.000000 506.000000" stroke="black"  fill="transparent"/>

<line
x1="889" y1="512" x2="913" y2="515"
id="0"
style="stroke:black;stroke-width:1.000000;stroke-opacity:0" />


<line
x1="860" y1="508" x2="846" y2="506"
id="Complex_b52ff3df92d38b6fe58a09a90d3d1495--to--BiochemicalReaction_b31b5c18aff2d3cb69a67b4d795238f0_LEFT_TO_RIGHT"
style="stroke:black;stroke-width:1.000000;stroke-opacity:0" />


<polygon
points = "846,506 832.8,501.6 832.8,510.4"
id="line"
style="fill:white; stroke:#000000; stroke-width:1"
transform = "rotate(188.130102 846.000000 506.000000)"
/>


<path d="M717.000000 763.000000 C 706.000000 714.000000, 673.000000 574.000000,664.000000 538.000000" stroke="black"  fill="transparent"/>

<line
x1="706" y1="714" x2="717" y2="763"
id="0"
style="stroke:black;stroke-width:1.000000;stroke-opacity:0" />


<line
x1="673" y1="574" x2="664" y2="538"
id="Protein_fded692e9c9e2cc57ca548538815bbca--to--ComplexAssembly_d4efd450e6af24aece3dc0682a6964eb_LEFT_TO_RIGHT-input"
style="stroke:black;stroke-width:1.000000;stroke-opacity:0" />


<path d="M880.000000 321.000000 C 880.000000 339.000000, 879.000000 366.000000,878.000000 380.000000" stroke="black"  fill="transparent"/>

<line
x1="879" y1="366" x2="878" y2="380"
id="0"
style="stroke:black;stroke-width:1.000000;stroke-opacity:0" />


<line
x1="880" y1="339" x2="880" y2="321"
id="BiochemicalReaction_b148457c12111bcd2b898649565b01d5_LEFT_TO_RIGHT-output--to--Protein_74f05ab98eb8f45d41ed43dc9e0447e3"
style="stroke:black;stroke-width:1.000000;stroke-opacity:0" />


<polygon
points = "880,321 871.2,316.6 871.2,325.4"
id="line"
style="fill:black; stroke:#000000; stroke-width:1"
transform = "rotate(270.000000 880.000000 321.000000)"
/>


<path d="M1078.000000 707.000000 C 1065.000000 693.000000, 1048.000000 674.000000,1038.000000 663.000000" stroke="black"  fill="transparent"/>

<line
x1="1048" y1="674" x2="1038" y2="663"
id="0"
style="stroke:black;stroke-width:1.000000;stroke-opacity:0" />


<line
x1="1065" y1="693" x2="1078" y2="707"
id="BiochemicalReaction_75ff18841610d75cf229f27e59f4427a_LEFT_TO_RIGHT-output--to--Protein_ef2d0768b2cfa1203df733a8f9ebc0f6"
style="stroke:black;stroke-width:1.000000;stroke-opacity:0" />


<polygon
points = "1078,707 1069.2,702.6 1069.2,711.4"
id="line"
style="fill:black; stroke:#000000; stroke-width:1"
transform = "rotate(47.121096 1078.000000 707.000000)"
/>


<path d="M169.000000 484.000000 C 190.000000 492.000000, 217.000000 503.000000,231.000000 509.000000" stroke="black"  fill="transparent"/>

<line
x1="217" y1="503" x2="231" y2="509"
id="0"
style="stroke:black;stroke-width:1.000000;stroke-opacity:0" />


<line
x1="190" y1="492" x2="169" y2="484"
id="BiochemicalReaction_24c5e66026fcf31e1cd114c045eacb21_LEFT_TO_RIGHT-output--to--Protein_f917b9648139335a9b25ce3e8b670a0e"
style="stroke:black;stroke-width:1.000000;stroke-opacity:0" />


<polygon
points = "169,484 160.2,479.6 160.2,488.4"
id="line"
style="fill:black; stroke:#000000; stroke-width:1"
transform = "rotate(200.854458 169.000000 484.000000)"
/>


<path d="M684.000000 431.000000 C 677.000000 463.000000, 668.000000 504.000000,664.000000 521.000000" stroke="black"  fill="transparent"/>

<line
x1="668" y1="504" x2="664" y2="521"
id="0"
style="stroke:black;stroke-width:1.000000;stroke-opacity:0" />


<line
x1="677" y1="463" x2="684" y2="431"
id="ComplexAssembly_d4efd450e6af24aece3dc0682a6964eb_LEFT_TO_RIGHT-output--to--Complex_e90c0dac35e2722b7f3b08de3131a764"
style="stroke:black;stroke-width:1.000000;stroke-opacity:0" />


<polygon
points = "684,431 675.2,426.6 675.2,435.4"
id="line"
style="fill:black; stroke:#000000; stroke-width:1"
transform = "rotate(-77.660913 684.000000 431.000000)"
/>


<path d="M704.000000 763.000000 C 670.000000 730.000000, 594.000000 655.000000,532.000000 590.000000" stroke="black"  fill="transparent"/>
<path d="M532.000000 590.000000 C 514.000000 571.000000, 494.000000 549.000000,484.000000 537.000000" stroke="black"  fill="transparent"/>

<line
x1="670" y1="730" x2="704" y2="763"
id="0"
style="stroke:black;stroke-width:1.000000;stroke-opacity:0" />


<line
x1="494" y1="549" x2="484" y2="537"
id="Protein_fded692e9c9e2cc57ca548538815bbca--to--ComplexAssembly_c3e7b121eb93094ef417803a5788cdaa_LEFT_TO_RIGHT-input"
style="stroke:black;stroke-width:1.000000;stroke-opacity:0" />


<path d="M593.000000 558.000000 C 614.000000 549.000000, 640.000000 538.000000,654.000000 533.000000" stroke="black"  fill="transparent"/>

<line
x1="614" y1="549" x2="593" y2="558"
id="0"
style="stroke:black;stroke-width:1.000000;stroke-opacity:0" />


<line
x1="640" y1="538" x2="654" y2="533"
id="Protein_fd0c2c11ed649542a7f3d54bb572f028--to--ComplexAssembly_d4efd450e6af24aece3dc0682a6964eb_LEFT_TO_RIGHT-input"
style="stroke:black;stroke-width:1.000000;stroke-opacity:0" />


<path d="M989.000000 550.000000 C 1017.000000 573.000000, 1053.000000 601.000000,1069.000000 614.000000" stroke="black"  fill="transparent"/>

<line
x1="1017" y1="573" x2="989" y2="550"
id="0"
style="stroke:black;stroke-width:1.000000;stroke-opacity:0" />


<line
x1="1053" y1="601" x2="1069" y2="614"
id="Complex_b52ff3df92d38b6fe58a09a90d3d1495--to--BiochemicalReaction_2962fae7b76404f4a19f23bfc5dc21d7_LEFT_TO_RIGHT"
style="stroke:black;stroke-width:1.000000;stroke-opacity:0" />


<polygon
points = "1069,614 1055.8,609.6 1055.8,618.4"
id="line"
style="fill:white; stroke:#000000; stroke-width:1"
transform = "rotate(39.093859 1069.000000 614.000000)"
/>


<path d="M756.000000 610.000000 C 781.000000 616.000000, 815.000000 624.000000,831.000000 628.000000" stroke="black"  fill="transparent"/>

<line
x1="781" y1="616" x2="756" y2="610"
id="0"
style="stroke:black;stroke-width:1.000000;stroke-opacity:0" />


<line
x1="815" y1="624" x2="831" y2="628"
id="Protein_6919180fcffb6b3f300a23c52b5c3485--to--ComplexAssembly_0eca5c04c52012dbc7bb5b74048b7f33_LEFT_TO_RIGHT-input"
style="stroke:black;stroke-width:1.000000;stroke-opacity:0" />


<path d="M913.000000 559.000000 C 901.000000 571.000000, 888.000000 584.000000,876.000000 595.000000" stroke="black"  fill="transparent"/>
<path d="M876.000000 595.000000 C 867.000000 605.000000, 855.000000 615.000000,848.000000 622.000000" stroke="black"  fill="transparent"/>

<line
x1="855" y1="615" x2="848" y2="622"
id="0"
style="stroke:black;stroke-width:1.000000;stroke-opacity:0" />


<line
x1="901" y1="571" x2="913" y2="559"
id="ComplexAssembly_0eca5c04c52012dbc7bb5b74048b7f33_LEFT_TO_RIGHT-output--to--Complex_b52ff3df92d38b6fe58a09a90d3d1495"
style="stroke:black;stroke-width:1.000000;stroke-opacity:0" />


<polygon
points = "913,559 904.2,554.6 904.2,563.4"
id="line"
style="fill:black; stroke:#000000; stroke-width:1"
transform = "rotate(-45.000000 913.000000 559.000000)"
/>


<path d="M750.000000 431.000000 C 779.000000 456.000000, 813.000000 484.000000,829.000000 498.000000" stroke="black"  fill="transparent"/>

<line
x1="779" y1="456" x2="750" y2="431"
id="0"
style="stroke:black;stroke-width:1.000000;stroke-opacity:0" />


<line
x1="813" y1="484" x2="829" y2="498"
id="Complex_e90c0dac35e2722b7f3b08de3131a764--to--BiochemicalReaction_b31b5c18aff2d3cb69a67b4d795238f0_LEFT_TO_RIGHT"
style="stroke:black;stroke-width:1.000000;stroke-opacity:0" />


<polygon
points = "829,498 815.8,493.6 815.8,502.4"
id="line"
style="fill:white; stroke:#000000; stroke-width:1"
transform = "rotate(41.185925 829.000000 498.000000)"
/>


<path d="M1113.000000 575.000000 C 1104.000000 587.000000, 1092.000000 603.000000,1084.000000 612.000000" stroke="black"  fill="transparent"/>

<line
x1="1104" y1="587" x2="1113" y2="575"
id="0"
style="stroke:black;stroke-width:1.000000;stroke-opacity:0" />


<line
x1="1092" y1="603" x2="1084" y2="612"
id="Protein_11482e65ca750c3495396f28cb6d75e4--to--BiochemicalReaction_2962fae7b76404f4a19f23bfc5dc21d7_LEFT_TO_RIGHT-input"
style="stroke:black;stroke-width:1.000000;stroke-opacity:0" />



</svg>
