<?xml version="1.0" encoding="UTF-8"?>
<svg width="925.070971" height="1053.776467"
xmlns="http://www.w3.org/2000/svg" xmlns:svg="http://www.w3.org/2000/svg"
>
<metadata id="metadata7">image/svg+xml</metadata>





<ellipse
rx="16.666667"
ry="16.666667"
cx="285.919065"
cy="730.026476"
id="SmallMolecule_bacf53037d739be6b6eaa0ba0e256388"
style="fill:white;fill-opacity:0.000000;stroke:black;stroke-width:1.000000;stroke-opacity:1.000000" />


<text
x="285.919065"
y="732.026476"
id="SmallMolecule_bacf53037d739be6b6eaa0ba0e256388"
style="font-size:6.000000px;text-anchor:middle;font-family:Arial,Helvetica;alignment-baseline:baseline;stroke.opacity:1;dominant-baseline:baseline"
fill="black"
>
glycerate</text>



<rect
width="58.333333"
height="33.333333"
rx="3.333333"
ry="3.333333"
x="257.725106"
y="549.361976"
id="Protein_2a4202edddcabcb96cc1397f1ac16b63"
style="fill:white;fill-opacity:1.000000;stroke:black;stroke-width:1.000000;stroke-opacity:1.000000" />



<text
x="286.891773"
y="565.028643"
id="Protein_2a4202edddcabcb96cc1397f1ac16b63"
style="font-size:6.000000px;text-anchor:middle;font-family:Arial,Helvetica;alignment-baseline:baseline;stroke.opacity:1;dominant-baseline:baseline"
fill="black"
>
Tartronate semi-ald-</text>


<text
x="286.891773"
y="571.028643"
id="Protein_2a4202edddcabcb96cc1397f1ac16b63"
style="font-size:6.000000px;text-anchor:middle;font-family:Arial,Helvetica;alignment-baseline:baseline;stroke.opacity:1;dominant-baseline:baseline"
fill="black"
>
ehyde dehydrogenase</text>



<ellipse
rx="16.666667"
ry="16.666667"
cx="437.863684"
cy="365.958114"
id="SmallMolecule_dff7a5252e99731a889e05223bceee9f"
style="fill:white;fill-opacity:0.000000;stroke:black;stroke-width:1.000000;stroke-opacity:1.000000" />


<text
x="437.863684"
y="367.958114"
id="SmallMolecule_dff7a5252e99731a889e05223bceee9f"
style="font-size:6.000000px;text-anchor:middle;font-family:Arial,Helvetica;alignment-baseline:baseline;stroke.opacity:1;dominant-baseline:baseline"
fill="black"
>
H2O</text>


<rect
width="16.666667"
height="16.666667"
rx="0.000000"
ry="0.000000"
x="290.839232"
y="642.108470"
id="BiochemicalReaction_655887ef78b9e24cb2f55510cca29f6b_LEFT_TO_RIGHT"
style="fill:white;fill-opacity:0.600000;stroke:black;stroke-width:1.000000;stroke-opacity:1.000000" />




<rect
width="58.333333"
height="33.333333"
rx="3.333333"
ry="3.333333"
x="496.352350"
y="218.041796"
id="Protein_c71fa83ebd5800d01fc26af445e32d09"
style="fill:white;fill-opacity:1.000000;stroke:black;stroke-width:1.000000;stroke-opacity:1.000000" />


<text
x="525.519016"
y="236.708463"
id="Protein_c71fa83ebd5800d01fc26af445e32d09"
style="font-size:6.000000px;text-anchor:middle;font-family:Arial,Helvetica;alignment-baseline:baseline;stroke.opacity:1;dominant-baseline:baseline"
fill="black"
>
Allantoinase</text>



<ellipse
rx="16.666667"
ry="16.666667"
cx="385.380245"
cy="674.533824"
id="SmallMolecule_43063ae014814dfc05437244f4e365ef"
style="fill:white;fill-opacity:0.000000;stroke:black;stroke-width:1.000000;stroke-opacity:1.000000" />



<text
x="385.380245"
y="673.533824"
id="SmallMolecule_43063ae014814dfc05437244f4e365ef"
style="font-size:6.000000px;text-anchor:middle;font-family:Arial,Helvetica;alignment-baseline:baseline;stroke.opacity:1;dominant-baseline:baseline"
fill="black"
>
tartronate </text>


<text
x="385.380245"
y="679.533824"
id="SmallMolecule_43063ae014814dfc05437244f4e365ef"
style="font-size:6.000000px;text-anchor:middle;font-family:Arial,Helvetica;alignment-baseline:baseline;stroke.opacity:1;dominant-baseline:baseline"
fill="black"
>
semialdehyde</text>



<ellipse
rx="16.666667"
ry="16.666667"
cx="433.555008"
cy="300.127426"
id="SmallMolecule_dfa1bdb25446db401f8b96d4c4b88134"
style="fill:white;fill-opacity:0.000000;stroke:black;stroke-width:1.000000;stroke-opacity:1.000000" />


<text
x="433.555008"
y="302.127426"
id="SmallMolecule_dfa1bdb25446db401f8b96d4c4b88134"
style="font-size:6.000000px;text-anchor:middle;font-family:Arial,Helvetica;alignment-baseline:baseline;stroke.opacity:1;dominant-baseline:baseline"
fill="black"
>
urea</text>



<ellipse
rx="16.666667"
ry="16.666667"
cx="339.845727"
cy="274.390606"
id="SmallMolecule_4d86fae47bfd4b9712dcce2d1fa0d3ce"
style="fill:white;fill-opacity:0.000000;stroke:black;stroke-width:1.000000;stroke-opacity:1.000000" />


<text
x="339.845727"
y="276.390606"
id="SmallMolecule_4d86fae47bfd4b9712dcce2d1fa0d3ce"
style="font-size:6.000000px;text-anchor:middle;font-family:Arial,Helvetica;alignment-baseline:baseline;stroke.opacity:1;dominant-baseline:baseline"
fill="black"
>
allantoate</text>



<rect
width="58.333333"
height="33.333333"
rx="3.333333"
ry="3.333333"
x="239.784593"
y="808.726332"
id="Protein_697a8f112c3a2bc5e840bd529e3f3a3a"
style="fill:white;fill-opacity:1.000000;stroke:black;stroke-width:1.000000;stroke-opacity:1.000000" />


<text
x="268.951260"
y="827.392999"
id="Protein_697a8f112c3a2bc5e840bd529e3f3a3a"
style="font-size:6.000000px;text-anchor:middle;font-family:Arial,Helvetica;alignment-baseline:baseline;stroke.opacity:1;dominant-baseline:baseline"
fill="black"
>
Glycerate kinase II</text>



<ellipse
rx="16.666667"
ry="16.666667"
cx="116.666667"
cy="762.525029"
id="SmallMolecule_067280b8b822ca79f313ec8eebae1ca8"
style="fill:white;fill-opacity:0.000000;stroke:black;stroke-width:1.000000;stroke-opacity:1.000000" />


<text
x="116.666667"
y="764.525029"
id="SmallMolecule_067280b8b822ca79f313ec8eebae1ca8"
style="font-size:6.000000px;text-anchor:middle;font-family:Arial,Helvetica;alignment-baseline:baseline;stroke.opacity:1;dominant-baseline:baseline"
fill="black"
>
ATP</text>



<ellipse
rx="16.666667"
ry="16.666667"
cx="171.487567"
cy="837.109800"
id="SmallMolecule_68d9752916a73cd26503beaec2ab3811"
style="fill:white;fill-opacity:0.000000;stroke:black;stroke-width:1.000000;stroke-opacity:1.000000" />


<text
x="171.487567"
y="839.109800"
id="SmallMolecule_68d9752916a73cd26503beaec2ab3811"
style="font-size:6.000000px;text-anchor:middle;font-family:Arial,Helvetica;alignment-baseline:baseline;stroke.opacity:1;dominant-baseline:baseline"
fill="black"
>
ADP</text>


<rect
width="16.666667"
height="16.666667"
rx="0.000000"
ry="0.000000"
x="367.752800"
y="351.365941"
id="BiochemicalReaction_f5d6f93b458d0cac23dc6706e9070a7a_LEFT_TO_RIGHT"
style="fill:white;fill-opacity:0.600000;stroke:black;stroke-width:1.000000;stroke-opacity:1.000000" />




<ellipse
rx="16.666667"
ry="16.666667"
cx="491.781071"
cy="535.625715"
id="SmallMolecule_3525e99da7f6300d4ce6f5a9e66f13bb"
style="fill:white;fill-opacity:0.000000;stroke:black;stroke-width:1.000000;stroke-opacity:1.000000" />


<text
x="491.781071"
y="537.625715"
id="SmallMolecule_3525e99da7f6300d4ce6f5a9e66f13bb"
style="font-size:6.000000px;text-anchor:middle;font-family:Arial,Helvetica;alignment-baseline:baseline;stroke.opacity:1;dominant-baseline:baseline"
fill="black"
>
glyoxylate</text>



<rect
width="58.333333"
height="33.333333"
rx="3.333333"
ry="3.333333"
x="478.552024"
y="317.838498"
id="Protein_3b1d73491bb1792e48ea8a9b089fdd24"
style="fill:white;fill-opacity:1.000000;stroke:black;stroke-width:1.000000;stroke-opacity:1.000000" />


<text
x="507.718691"
y="336.505164"
id="Protein_3b1d73491bb1792e48ea8a9b089fdd24"
style="font-size:6.000000px;text-anchor:middle;font-family:Arial,Helvetica;alignment-baseline:baseline;stroke.opacity:1;dominant-baseline:baseline"
fill="black"
>
ALLC</text>



<ellipse
rx="16.666667"
ry="16.666667"
cx="422.841869"
cy="527.565858"
id="SmallMolecule_758e125e32486223dc900b6bfeec5675"
style="fill:white;fill-opacity:0.000000;stroke:black;stroke-width:1.000000;stroke-opacity:1.000000" />


<text
x="422.841869"
y="529.565858"
id="SmallMolecule_758e125e32486223dc900b6bfeec5675"
style="font-size:6.000000px;text-anchor:middle;font-family:Arial,Helvetica;alignment-baseline:baseline;stroke.opacity:1;dominant-baseline:baseline"
fill="black"
>
CO2</text>



<rect
width="58.333333"
height="33.333333"
rx="3.333333"
ry="3.333333"
x="139.212393"
y="499.791571"
id="Protein_46ff5a300dffa39c45efc0cdacfe20e9"
style="fill:white;fill-opacity:1.000000;stroke:black;stroke-width:1.000000;stroke-opacity:1.000000" />



<text
x="168.379059"
y="515.458237"
id="Protein_46ff5a300dffa39c45efc0cdacfe20e9"
style="font-size:6.000000px;text-anchor:middle;font-family:Arial,Helvetica;alignment-baseline:baseline;stroke.opacity:1;dominant-baseline:baseline"
fill="black"
>
Ureidoglycolate deh-</text>


<text
x="168.379059"
y="521.458237"
id="Protein_46ff5a300dffa39c45efc0cdacfe20e9"
style="font-size:6.000000px;text-anchor:middle;font-family:Arial,Helvetica;alignment-baseline:baseline;stroke.opacity:1;dominant-baseline:baseline"
fill="black"
>
ydrogenase</text>



<rect
width="58.333333"
height="33.333333"
rx="3.333333"
ry="3.333333"
x="528.200088"
y="602.090940"
id="Protein_68a5f295248b85e84970285994e47777"
style="fill:white;fill-opacity:1.000000;stroke:black;stroke-width:1.000000;stroke-opacity:1.000000" />


<text
x="557.366755"
y="620.757606"
id="Protein_68a5f295248b85e84970285994e47777"
style="font-size:6.000000px;text-anchor:middle;font-family:Arial,Helvetica;alignment-baseline:baseline;stroke.opacity:1;dominant-baseline:baseline"
fill="black"
>
Glyoxylate carboligase</text>



<rect
width="58.333333"
height="33.333333"
rx="3.333333"
ry="3.333333"
x="536.737638"
y="468.719369"
id="Protein_48fd5153032bdec050d2451a5e560718"
style="fill:white;fill-opacity:1.000000;stroke:black;stroke-width:1.000000;stroke-opacity:1.000000" />



<text
x="565.904305"
y="484.386036"
id="Protein_48fd5153032bdec050d2451a5e560718"
style="font-size:6.000000px;text-anchor:middle;font-family:Arial,Helvetica;alignment-baseline:baseline;stroke.opacity:1;dominant-baseline:baseline"
fill="black"
>
Ureidoglycolate hyd-</text>


<text
x="565.904305"
y="490.386036"
id="Protein_48fd5153032bdec050d2451a5e560718"
style="font-size:6.000000px;text-anchor:middle;font-family:Arial,Helvetica;alignment-baseline:baseline;stroke.opacity:1;dominant-baseline:baseline"
fill="black"
>
rolase</text>



<ellipse
rx="16.666667"
ry="16.666667"
cx="216.282529"
cy="600.230485"
id="SmallMolecule_4438965cd7c13112c068823a9948733a"
style="fill:white;fill-opacity:0.000000;stroke:black;stroke-width:1.000000;stroke-opacity:1.000000" />


<text
x="216.282529"
y="602.230485"
id="SmallMolecule_4438965cd7c13112c068823a9948733a"
style="font-size:6.000000px;text-anchor:middle;font-family:Arial,Helvetica;alignment-baseline:baseline;stroke.opacity:1;dominant-baseline:baseline"
fill="black"
>
NADPH</text>



<ellipse
rx="16.666667"
ry="16.666667"
cx="241.000932"
cy="430.573970"
id="SmallMolecule_3d93f3195cc501e2e4d7d8351ecee79e"
style="fill:white;fill-opacity:0.000000;stroke:black;stroke-width:1.000000;stroke-opacity:1.000000" />


<text
x="241.000932"
y="432.573970"
id="SmallMolecule_3d93f3195cc501e2e4d7d8351ecee79e"
style="font-size:6.000000px;text-anchor:middle;font-family:Arial,Helvetica;alignment-baseline:baseline;stroke.opacity:1;dominant-baseline:baseline"
fill="black"
>
oxalureate</text>



<ellipse
rx="16.666667"
ry="16.666667"
cx="413.993789"
cy="166.666667"
id="SmallMolecule_750ef6ee98604daab9024a139c74521a"
style="fill:white;fill-opacity:0.000000;stroke:black;stroke-width:1.000000;stroke-opacity:1.000000" />


<text
x="413.993789"
y="168.666667"
id="SmallMolecule_750ef6ee98604daab9024a139c74521a"
style="font-size:6.000000px;text-anchor:middle;font-family:Arial,Helvetica;alignment-baseline:baseline;stroke.opacity:1;dominant-baseline:baseline"
fill="black"
>
allantoin</text>



<ellipse
rx="16.666667"
ry="16.666667"
cx="537.600262"
cy="415.156585"
id="SmallMolecule_09ba22bf3f6a670f1f975e2cf976df0f"
style="fill:white;fill-opacity:0.000000;stroke:black;stroke-width:1.000000;stroke-opacity:1.000000" />


<text
x="537.600262"
y="417.156585"
id="SmallMolecule_09ba22bf3f6a670f1f975e2cf976df0f"
style="font-size:6.000000px;text-anchor:middle;font-family:Arial,Helvetica;alignment-baseline:baseline;stroke.opacity:1;dominant-baseline:baseline"
fill="black"
>
NH3</text>



<ellipse
rx="16.666667"
ry="16.666667"
cx="363.532717"
cy="584.270207"
id="SmallMolecule_90955949445215d21d5193ad2f1c2c9d"
style="fill:white;fill-opacity:0.000000;stroke:black;stroke-width:1.000000;stroke-opacity:1.000000" />


<text
x="363.532717"
y="586.270207"
id="SmallMolecule_90955949445215d21d5193ad2f1c2c9d"
style="font-size:6.000000px;text-anchor:middle;font-family:Arial,Helvetica;alignment-baseline:baseline;stroke.opacity:1;dominant-baseline:baseline"
fill="black"
>
NADP</text>



<ellipse
rx="16.666667"
ry="16.666667"
cx="361.380426"
cy="446.666936"
id="SmallMolecule_20f19d0fb21f98320f4da4d1f64e2543"
style="fill:white;fill-opacity:0.000000;stroke:black;stroke-width:1.000000;stroke-opacity:1.000000" />



<text
x="361.380426"
y="445.666936"
id="SmallMolecule_20f19d0fb21f98320f4da4d1f64e2543"
style="font-size:6.000000px;text-anchor:middle;font-family:Arial,Helvetica;alignment-baseline:baseline;stroke.opacity:1;dominant-baseline:baseline"
fill="black"
>
Ureidoglyco-</text>


<text
x="361.380426"
y="451.666936"
id="SmallMolecule_20f19d0fb21f98320f4da4d1f64e2543"
style="font-size:6.000000px;text-anchor:middle;font-family:Arial,Helvetica;alignment-baseline:baseline;stroke.opacity:1;dominant-baseline:baseline"
fill="black"
>
late</text>



<ellipse
rx="16.666667"
ry="16.666667"
cx="134.327876"
cy="683.094814"
id="SmallMolecule_a0d7c102e93aa5af03f429d5f5d1ef6d"
style="fill:white;fill-opacity:0.000000;stroke:black;stroke-width:1.000000;stroke-opacity:1.000000" />



<text
x="134.327876"
y="682.094814"
id="SmallMolecule_a0d7c102e93aa5af03f429d5f5d1ef6d"
style="font-size:6.000000px;text-anchor:middle;font-family:Arial,Helvetica;alignment-baseline:baseline;stroke.opacity:1;dominant-baseline:baseline"
fill="black"
>
3-phosphogl-</text>


<text
x="134.327876"
y="688.094814"
id="SmallMolecule_a0d7c102e93aa5af03f429d5f5d1ef6d"
style="font-size:6.000000px;text-anchor:middle;font-family:Arial,Helvetica;alignment-baseline:baseline;stroke.opacity:1;dominant-baseline:baseline"
fill="black"
>
ycerate</text>


<rect
width="16.666667"
height="16.666667"
rx="0.000000"
ry="0.000000"
x="452.588983"
y="445.923698"
id="BiochemicalReaction_8dbac354e041ce083a1ada6e50285d77_LEFT_TO_RIGHT"
style="fill:white;fill-opacity:0.600000;stroke:black;stroke-width:1.000000;stroke-opacity:1.000000" />



<rect
width="16.666667"
height="16.666667"
rx="0.000000"
ry="0.000000"
x="271.468957"
y="505.507082"
id="BiochemicalReaction_72e6b0adad446968d9bdde9a6dc1dd00_LEFT_TO_RIGHT"
style="fill:white;fill-opacity:0.600000;stroke:black;stroke-width:1.000000;stroke-opacity:1.000000" />



<rect
width="16.666667"
height="16.666667"
rx="0.000000"
ry="0.000000"
x="417.397825"
y="245.532247"
id="BiochemicalReaction_3bbfac4847b8023cb8396dc9fc0c225e_LEFT_TO_RIGHT"
style="fill:white;fill-opacity:0.600000;stroke:black;stroke-width:1.000000;stroke-opacity:1.000000" />



<rect
width="16.666667"
height="16.666667"
rx="0.000000"
ry="0.000000"
x="451.434112"
y="605.417041"
id="BiochemicalReaction_2f358e8054e4efe1473a50fb0e57a449_LEFT_TO_RIGHT"
style="fill:white;fill-opacity:0.600000;stroke:black;stroke-width:1.000000;stroke-opacity:1.000000" />



<rect
width="16.666667"
height="16.666667"
rx="0.000000"
ry="0.000000"
x="195.949087"
y="748.065801"
id="BiochemicalReaction_fbd721ae63ff676f2ae2d2aecffbac25_LEFT_TO_RIGHT"
style="fill:white;fill-opacity:0.600000;stroke:black;stroke-width:1.000000;stroke-opacity:1.000000" />





<path d="M248.000000 447.000000 C 257.000000 464.000000, 269.000000 491.000000,275.000000 505.000000" stroke="black"  fill="transparent"/>

<line
x1="269" y1="491" x2="275" y2="505"
id="0"
style="stroke:black;stroke-width:1.000000;stroke-opacity:0" />


<line
x1="257" y1="464" x2="248" y2="447"
id="BiochemicalReaction_72e6b0adad446968d9bdde9a6dc1dd00_LEFT_TO_RIGHT-output--to--SmallMolecule_3d93f3195cc501e2e4d7d8351ecee79e"
style="stroke:black;stroke-width:1.000000;stroke-opacity:0" />


<polygon
points = "248,447 239.2,442.6 239.2,451.4"
id="line"
style="fill:black; stroke:#000000; stroke-width:1"
transform = "rotate(242.102729 248.000000 447.000000)"
/>


<path d="M347.000000 291.000000 C 354.000000 309.000000, 366.000000 337.000000,372.000000 351.000000" stroke="black"  fill="transparent"/>

<line
x1="354" y1="309" x2="347" y2="291"
id="0"
style="stroke:black;stroke-width:1.000000;stroke-opacity:0" />


<line
x1="366" y1="337" x2="372" y2="351"
id="SmallMolecule_4d86fae47bfd4b9712dcce2d1fa0d3ce--to--BiochemicalReaction_f5d6f93b458d0cac23dc6706e9070a7a_LEFT_TO_RIGHT-input"
style="stroke:black;stroke-width:1.000000;stroke-opacity:0" />


<path d="M356.000000 270.000000 C 374.000000 266.000000, 402.000000 259.000000,417.000000 255.000000" stroke="black"  fill="transparent"/>

<line
x1="402" y1="259" x2="417" y2="255"
id="0"
style="stroke:black;stroke-width:1.000000;stroke-opacity:0" />


<line
x1="374" y1="266" x2="356" y2="270"
id="BiochemicalReaction_3bbfac4847b8023cb8396dc9fc0c225e_LEFT_TO_RIGHT-output--to--SmallMolecule_4d86fae47bfd4b9712dcce2d1fa0d3ce"
style="stroke:black;stroke-width:1.000000;stroke-opacity:0" />


<polygon
points = "356,270 347.2,265.6 347.2,274.4"
id="line"
style="fill:black; stroke:#000000; stroke-width:1"
transform = "rotate(167.471192 356.000000 270.000000)"
/>


<path d="M347.000000 570.000000 C 338.000000 562.000000, 328.000000 554.000000,319.000000 546.000000" stroke="black"  fill="transparent"/>
<path d="M319.000000 546.000000 C 308.000000 537.000000, 296.000000 527.000000,288.000000 520.000000" stroke="black"  fill="transparent"/>

<line
x1="338" y1="562" x2="347" y2="570"
id="0"
style="stroke:black;stroke-width:1.000000;stroke-opacity:0" />


<line
x1="296" y1="527" x2="288" y2="520"
id="SmallMolecule_90955949445215d21d5193ad2f1c2c9d--to--BiochemicalReaction_72e6b0adad446968d9bdde9a6dc1dd00_LEFT_TO_RIGHT-input"
style="stroke:black;stroke-width:1.000000;stroke-opacity:0" />


<path d="M227.000000 583.000000 C 235.000000 572.000000, 245.000000 558.000000,254.000000 546.000000" stroke="black"  fill="transparent"/>
<path d="M254.000000 546.000000 C 260.000000 538.000000, 267.000000 529.000000,272.000000 522.000000" stroke="black"  fill="transparent"/>

<line
x1="267" y1="529" x2="272" y2="522"
id="0"
style="stroke:black;stroke-width:1.000000;stroke-opacity:0" />


<line
x1="235" y1="572" x2="227" y2="583"
id="BiochemicalReaction_72e6b0adad446968d9bdde9a6dc1dd00_LEFT_TO_RIGHT-output--to--SmallMolecule_4438965cd7c13112c068823a9948733a"
style="stroke:black;stroke-width:1.000000;stroke-opacity:0" />


<polygon
points = "227,583 218.2,578.6 218.2,587.4"
id="line"
style="fill:black; stroke:#000000; stroke-width:1"
transform = "rotate(126.027373 227.000000 583.000000)"
/>


<path d="M421.000000 364.000000 C 409.000000 363.000000, 394.000000 361.000000,384.000000 360.000000" stroke="black"  fill="transparent"/>

<line
x1="409" y1="363" x2="421" y2="364"
id="0"
style="stroke:black;stroke-width:1.000000;stroke-opacity:0" />


<line
x1="394" y1="361" x2="384" y2="360"
id="SmallMolecule_dff7a5252e99731a889e05223bceee9f--to--BiochemicalReaction_f5d6f93b458d0cac23dc6706e9070a7a_LEFT_TO_RIGHT-input"
style="stroke:black;stroke-width:1.000000;stroke-opacity:0" />


<path d="M377.000000 447.000000 C 399.000000 449.000000, 435.000000 452.000000,452.000000 453.000000" stroke="black"  fill="transparent"/>

<line
x1="399" y1="449" x2="377" y2="447"
id="0"
style="stroke:black;stroke-width:1.000000;stroke-opacity:0" />


<line
x1="435" y1="452" x2="452" y2="453"
id="SmallMolecule_20f19d0fb21f98320f4da4d1f64e2543--to--BiochemicalReaction_8dbac354e041ce083a1ada6e50285d77_LEFT_TO_RIGHT-input"
style="stroke:black;stroke-width:1.000000;stroke-opacity:0" />


<path d="M536.000000 476.000000 C 513.000000 469.000000, 483.000000 461.000000,469.000000 456.000000" stroke="black"  fill="transparent"/>

<line
x1="513" y1="469" x2="536" y2="476"
id="0"
style="stroke:black;stroke-width:1.000000;stroke-opacity:0" />


<line
x1="483" y1="461" x2="469" y2="456"
id="Protein_48fd5153032bdec050d2451a5e560718--to--BiochemicalReaction_8dbac354e041ce083a1ada6e50285d77_LEFT_TO_RIGHT"
style="stroke:black;stroke-width:1.000000;stroke-opacity:0" />


<ellipse
rx="4.400000"
ry="4.400000"
cx="473.143664"
cy="457.479880"
id="Protein_48fd5153032bdec050d2451a5e560718--to--BiochemicalReaction_8dbac354e041ce083a1ada6e50285d77_LEFT_TO_RIGHT"
style="fill:white;fill-opacity:0.800000;stroke:black;stroke-width:1.000000;stroke-opacity:1.000000" />


<path d="M150.000000 699.000000 C 164.000000 714.000000, 184.000000 735.000000,195.000000 747.000000" stroke="black"  fill="transparent"/>

<line
x1="184" y1="735" x2="195" y2="747"
id="0"
style="stroke:black;stroke-width:1.000000;stroke-opacity:0" />


<line
x1="164" y1="714" x2="150" y2="699"
id="BiochemicalReaction_fbd721ae63ff676f2ae2d2aecffbac25_LEFT_TO_RIGHT-output--to--SmallMolecule_a0d7c102e93aa5af03f429d5f5d1ef6d"
style="stroke:black;stroke-width:1.000000;stroke-opacity:0" />


<polygon
points = "150,699 141.2,694.6 141.2,703.4"
id="line"
style="fill:black; stroke:#000000; stroke-width:1"
transform = "rotate(226.974934 150.000000 699.000000)"
/>


<path d="M484.000000 552.000000 C 478.000000 568.000000, 468.000000 592.000000,463.000000 604.000000" stroke="black"  fill="transparent"/>

<line
x1="478" y1="568" x2="484" y2="552"
id="0"
style="stroke:black;stroke-width:1.000000;stroke-opacity:0" />


<line
x1="468" y1="592" x2="463" y2="604"
id="SmallMolecule_3525e99da7f6300d4ce6f5a9e66f13bb--to--BiochemicalReaction_2f358e8054e4efe1473a50fb0e57a449_LEFT_TO_RIGHT-input"
style="stroke:black;stroke-width:1.000000;stroke-opacity:0" />


<path d="M485.000000 518.000000 C 478.000000 501.000000, 469.000000 476.000000,464.000000 463.000000" stroke="black"  fill="transparent"/>

<line
x1="469" y1="476" x2="464" y2="463"
id="0"
style="stroke:black;stroke-width:1.000000;stroke-opacity:0" />


<line
x1="478" y1="501" x2="485" y2="518"
id="BiochemicalReaction_8dbac354e041ce083a1ada6e50285d77_LEFT_TO_RIGHT-output--to--SmallMolecule_3525e99da7f6300d4ce6f5a9e66f13bb"
style="stroke:black;stroke-width:1.000000;stroke-opacity:0" />


<polygon
points = "485,518 476.2,513.6 476.2,522.4"
id="line"
style="fill:black; stroke:#000000; stroke-width:1"
transform = "rotate(67.619865 485.000000 518.000000)"
/>


<path d="M307.000000 641.000000 C 317.000000 631.000000, 334.000000 613.000000,347.000000 600.000000" stroke="black"  fill="transparent"/>

<line
x1="317" y1="631" x2="307" y2="641"
id="0"
style="stroke:black;stroke-width:1.000000;stroke-opacity:0" />


<line
x1="334" y1="613" x2="347" y2="600"
id="BiochemicalReaction_655887ef78b9e24cb2f55510cca29f6b_LEFT_TO_RIGHT-output--to--SmallMolecule_90955949445215d21d5193ad2f1c2c9d"
style="stroke:black;stroke-width:1.000000;stroke-opacity:0" />


<polygon
points = "347,600 338.2,595.6 338.2,604.4"
id="line"
style="fill:black; stroke:#000000; stroke-width:1"
transform = "rotate(-45.000000 347.000000 600.000000)"
/>


<path d="M289.000000 582.000000 C 291.000000 600.000000, 295.000000 627.000000,297.000000 641.000000" stroke="black"  fill="transparent"/>

<line
x1="291" y1="600" x2="289" y2="582"
id="0"
style="stroke:black;stroke-width:1.000000;stroke-opacity:0" />


<line
x1="295" y1="627" x2="297" y2="641"
id="Protein_2a4202edddcabcb96cc1397f1ac16b63--to--BiochemicalReaction_655887ef78b9e24cb2f55510cca29f6b_LEFT_TO_RIGHT"
style="stroke:black;stroke-width:1.000000;stroke-opacity:0" />


<ellipse
rx="4.400000"
ry="4.400000"
cx="296.377746"
cy="636.644222"
id="Protein_2a4202edddcabcb96cc1397f1ac16b63--to--BiochemicalReaction_655887ef78b9e24cb2f55510cca29f6b_LEFT_TO_RIGHT"
style="fill:white;fill-opacity:0.800000;stroke:black;stroke-width:1.000000;stroke-opacity:1.000000" />


<path d="M374.000000 368.000000 C 372.000000 382.000000, 367.000000 411.000000,364.000000 430.000000" stroke="black"  fill="transparent"/>

<line
x1="372" y1="382" x2="374" y2="368"
id="0"
style="stroke:black;stroke-width:1.000000;stroke-opacity:0" />


<line
x1="367" y1="411" x2="364" y2="430"
id="BiochemicalReaction_f5d6f93b458d0cac23dc6706e9070a7a_LEFT_TO_RIGHT-output--to--SmallMolecule_20f19d0fb21f98320f4da4d1f64e2543"
style="stroke:black;stroke-width:1.000000;stroke-opacity:0" />


<polygon
points = "364,430 355.2,425.6 355.2,434.4"
id="line"
style="fill:black; stroke:#000000; stroke-width:1"
transform = "rotate(98.972627 364.000000 430.000000)"
/>


<path d="M520.000000 423.000000 C 505.000000 431.000000, 481.000000 443.000000,469.000000 449.000000" stroke="black"  fill="transparent"/>

<line
x1="481" y1="443" x2="469" y2="449"
id="0"
style="stroke:black;stroke-width:1.000000;stroke-opacity:0" />


<line
x1="505" y1="431" x2="520" y2="423"
id="BiochemicalReaction_8dbac354e041ce083a1ada6e50285d77_LEFT_TO_RIGHT-output--to--SmallMolecule_09ba22bf3f6a670f1f975e2cf976df0f"
style="stroke:black;stroke-width:1.000000;stroke-opacity:0" />


<polygon
points = "520,423 511.2,418.6 511.2,427.4"
id="line"
style="fill:black; stroke:#000000; stroke-width:1"
transform = "rotate(-28.072487 520.000000 423.000000)"
/>


<path d="M442.000000 382.000000 C 447.000000 401.000000, 454.000000 431.000000,458.000000 445.000000" stroke="black"  fill="transparent"/>

<line
x1="447" y1="401" x2="442" y2="382"
id="0"
style="stroke:black;stroke-width:1.000000;stroke-opacity:0" />


<line
x1="454" y1="431" x2="458" y2="445"
id="SmallMolecule_dff7a5252e99731a889e05223bceee9f--to--BiochemicalReaction_8dbac354e041ce083a1ada6e50285d77_LEFT_TO_RIGHT-input"
style="stroke:black;stroke-width:1.000000;stroke-opacity:0" />


<path d="M197.000000 515.000000 C 222.000000 515.000000, 255.000000 514.000000,271.000000 514.000000" stroke="black"  fill="transparent"/>

<line
x1="222" y1="515" x2="197" y2="515"
id="0"
style="stroke:black;stroke-width:1.000000;stroke-opacity:0" />


<line
x1="255" y1="514" x2="271" y2="514"
id="Protein_46ff5a300dffa39c45efc0cdacfe20e9--to--BiochemicalReaction_72e6b0adad446968d9bdde9a6dc1dd00_LEFT_TO_RIGHT"
style="stroke:black;stroke-width:1.000000;stroke-opacity:0" />


<ellipse
rx="4.400000"
ry="4.400000"
cx="266.600000"
cy="514.000000"
id="Protein_46ff5a300dffa39c45efc0cdacfe20e9--to--BiochemicalReaction_72e6b0adad446968d9bdde9a6dc1dd00_LEFT_TO_RIGHT"
style="fill:white;fill-opacity:0.800000;stroke:black;stroke-width:1.000000;stroke-opacity:1.000000" />


<path d="M178.000000 820.000000 C 185.000000 803.000000, 195.000000 778.000000,200.000000 765.000000" stroke="black"  fill="transparent"/>

<line
x1="195" y1="778" x2="200" y2="765"
id="0"
style="stroke:black;stroke-width:1.000000;stroke-opacity:0" />


<line
x1="185" y1="803" x2="178" y2="820"
id="BiochemicalReaction_fbd721ae63ff676f2ae2d2aecffbac25_LEFT_TO_RIGHT-output--to--SmallMolecule_68d9752916a73cd26503beaec2ab3811"
style="stroke:black;stroke-width:1.000000;stroke-opacity:0" />


<polygon
points = "178,820 169.2,815.6 169.2,824.4"
id="line"
style="fill:black; stroke:#000000; stroke-width:1"
transform = "rotate(112.380135 178.000000 820.000000)"
/>


<path d="M528.000000 617.000000 C 507.000000 616.000000, 481.000000 614.000000,468.000000 614.000000" stroke="black"  fill="transparent"/>

<line
x1="507" y1="616" x2="528" y2="617"
id="0"
style="stroke:black;stroke-width:1.000000;stroke-opacity:0" />


<line
x1="481" y1="614" x2="468" y2="614"
id="Protein_68a5f295248b85e84970285994e47777--to--BiochemicalReaction_2f358e8054e4efe1473a50fb0e57a449_LEFT_TO_RIGHT"
style="stroke:black;stroke-width:1.000000;stroke-opacity:0" />


<ellipse
rx="4.400000"
ry="4.400000"
cx="472.400000"
cy="614.000000"
id="Protein_68a5f295248b85e84970285994e47777--to--BiochemicalReaction_2f358e8054e4efe1473a50fb0e57a449_LEFT_TO_RIGHT"
style="fill:white;fill-opacity:0.800000;stroke:black;stroke-width:1.000000;stroke-opacity:1.000000" />


<path d="M344.000000 460.000000 C 327.000000 474.000000, 301.000000 495.000000,288.000000 506.000000" stroke="black"  fill="transparent"/>

<line
x1="327" y1="474" x2="344" y2="460"
id="0"
style="stroke:black;stroke-width:1.000000;stroke-opacity:0" />


<line
x1="301" y1="495" x2="288" y2="506"
id="SmallMolecule_20f19d0fb21f98320f4da4d1f64e2543--to--BiochemicalReaction_72e6b0adad446968d9bdde9a6dc1dd00_LEFT_TO_RIGHT-input"
style="stroke:black;stroke-width:1.000000;stroke-opacity:0" />


<path d="M253.000000 808.000000 C 240.000000 794.000000, 222.000000 776.000000,212.000000 765.000000" stroke="black"  fill="transparent"/>

<line
x1="240" y1="794" x2="253" y2="808"
id="0"
style="stroke:black;stroke-width:1.000000;stroke-opacity:0" />


<line
x1="222" y1="776" x2="212" y2="765"
id="Protein_697a8f112c3a2bc5e840bd529e3f3a3a--to--BiochemicalReaction_fbd721ae63ff676f2ae2d2aecffbac25_LEFT_TO_RIGHT"
style="stroke:black;stroke-width:1.000000;stroke-opacity:0" />


<ellipse
rx="4.400000"
ry="4.400000"
cx="214.959760"
cy="768.255736"
id="Protein_697a8f112c3a2bc5e840bd529e3f3a3a--to--BiochemicalReaction_fbd721ae63ff676f2ae2d2aecffbac25_LEFT_TO_RIGHT"
style="fill:white;fill-opacity:0.800000;stroke:black;stroke-width:1.000000;stroke-opacity:1.000000" />


<path d="M401.000000 661.000000 C 417.000000 648.000000, 439.000000 630.000000,451.000000 620.000000" stroke="black"  fill="transparent"/>

<line
x1="439" y1="630" x2="451" y2="620"
id="0"
style="stroke:black;stroke-width:1.000000;stroke-opacity:0" />


<line
x1="417" y1="648" x2="401" y2="661"
id="BiochemicalReaction_2f358e8054e4efe1473a50fb0e57a449_LEFT_TO_RIGHT-output--to--SmallMolecule_43063ae014814dfc05437244f4e365ef"
style="stroke:black;stroke-width:1.000000;stroke-opacity:0" />


<polygon
points = "401,661 392.2,656.6 392.2,665.4"
id="line"
style="fill:black; stroke:#000000; stroke-width:1"
transform = "rotate(140.906141 401.000000 661.000000)"
/>


<path d="M429.000000 544.000000 C 437.000000 562.000000, 449.000000 590.000000,456.000000 605.000000" stroke="black"  fill="transparent"/>

<line
x1="449" y1="590" x2="456" y2="605"
id="0"
style="stroke:black;stroke-width:1.000000;stroke-opacity:0" />


<line
x1="437" y1="562" x2="429" y2="544"
id="BiochemicalReaction_2f358e8054e4efe1473a50fb0e57a449_LEFT_TO_RIGHT-output--to--SmallMolecule_758e125e32486223dc900b6bfeec5675"
style="stroke:black;stroke-width:1.000000;stroke-opacity:0" />


<polygon
points = "429,544 420.2,539.6 420.2,548.4"
id="line"
style="fill:black; stroke:#000000; stroke-width:1"
transform = "rotate(246.037511 429.000000 544.000000)"
/>


<path d="M288.000000 713.000000 C 291.000000 696.000000, 295.000000 671.000000,297.000000 658.000000" stroke="black"  fill="transparent"/>

<line
x1="295" y1="671" x2="297" y2="658"
id="0"
style="stroke:black;stroke-width:1.000000;stroke-opacity:0" />


<line
x1="291" y1="696" x2="288" y2="713"
id="BiochemicalReaction_655887ef78b9e24cb2f55510cca29f6b_LEFT_TO_RIGHT-output--to--SmallMolecule_bacf53037d739be6b6eaa0ba0e256388"
style="stroke:black;stroke-width:1.000000;stroke-opacity:0" />


<polygon
points = "288,713 279.2,708.6 279.2,717.4"
id="line"
style="fill:black; stroke:#000000; stroke-width:1"
transform = "rotate(100.007980 288.000000 713.000000)"
/>


<path d="M307.000000 652.000000 C 321.000000 656.000000, 350.000000 664.000000,368.000000 669.000000" stroke="black"  fill="transparent"/>

<line
x1="350" y1="664" x2="368" y2="669"
id="0"
style="stroke:black;stroke-width:1.000000;stroke-opacity:0" />


<line
x1="321" y1="656" x2="307" y2="652"
id="SmallMolecule_43063ae014814dfc05437244f4e365ef--to--BiochemicalReaction_655887ef78b9e24cb2f55510cca29f6b_LEFT_TO_RIGHT-input"
style="stroke:black;stroke-width:1.000000;stroke-opacity:0" />


<path d="M133.000000 761.000000 C 152.000000 760.000000, 181.000000 757.000000,195.000000 756.000000" stroke="black"  fill="transparent"/>

<line
x1="152" y1="760" x2="133" y2="761"
id="0"
style="stroke:black;stroke-width:1.000000;stroke-opacity:0" />


<line
x1="181" y1="757" x2="195" y2="756"
id="SmallMolecule_067280b8b822ca79f313ec8eebae1ca8--to--BiochemicalReaction_fbd721ae63ff676f2ae2d2aecffbac25_LEFT_TO_RIGHT-input"
style="stroke:black;stroke-width:1.000000;stroke-opacity:0" />


<path d="M417.000000 316.000000 C 406.000000 327.000000, 393.000000 342.000000,384.000000 351.000000" stroke="black"  fill="transparent"/>

<line
x1="393" y1="342" x2="384" y2="351"
id="0"
style="stroke:black;stroke-width:1.000000;stroke-opacity:0" />


<line
x1="406" y1="327" x2="417" y2="316"
id="BiochemicalReaction_f5d6f93b458d0cac23dc6706e9070a7a_LEFT_TO_RIGHT-output--to--SmallMolecule_dfa1bdb25446db401f8b96d4c4b88134"
style="stroke:black;stroke-width:1.000000;stroke-opacity:0" />


<polygon
points = "417,316 408.2,311.6 408.2,320.4"
id="line"
style="fill:black; stroke:#000000; stroke-width:1"
transform = "rotate(-45.000000 417.000000 316.000000)"
/>


<path d="M496.000000 240.000000 C 475.000000 244.000000, 447.000000 249.000000,434.000000 252.000000" stroke="black"  fill="transparent"/>

<line
x1="475" y1="244" x2="496" y2="240"
id="0"
style="stroke:black;stroke-width:1.000000;stroke-opacity:0" />


<line
x1="447" y1="249" x2="434" y2="252"
id="Protein_c71fa83ebd5800d01fc26af445e32d09--to--BiochemicalReaction_3bbfac4847b8023cb8396dc9fc0c225e_LEFT_TO_RIGHT"
style="stroke:black;stroke-width:1.000000;stroke-opacity:0" />


<ellipse
rx="4.400000"
ry="4.400000"
cx="438.287321"
cy="251.010618"
id="Protein_c71fa83ebd5800d01fc26af445e32d09--to--BiochemicalReaction_3bbfac4847b8023cb8396dc9fc0c225e_LEFT_TO_RIGHT"
style="fill:white;fill-opacity:0.800000;stroke:black;stroke-width:1.000000;stroke-opacity:1.000000" />


<path d="M290.000000 645.000000 C 277.000000 637.000000, 250.000000 621.000000,233.000000 610.000000" stroke="black"  fill="transparent"/>

<line
x1="250" y1="621" x2="233" y2="610"
id="0"
style="stroke:black;stroke-width:1.000000;stroke-opacity:0" />


<line
x1="277" y1="637" x2="290" y2="645"
id="SmallMolecule_4438965cd7c13112c068823a9948733a--to--BiochemicalReaction_655887ef78b9e24cb2f55510cca29f6b_LEFT_TO_RIGHT-input"
style="stroke:black;stroke-width:1.000000;stroke-opacity:0" />


<path d="M269.000000 735.000000 C 252.000000 740.000000, 226.000000 749.000000,213.000000 753.000000" stroke="black"  fill="transparent"/>

<line
x1="252" y1="740" x2="269" y2="735"
id="0"
style="stroke:black;stroke-width:1.000000;stroke-opacity:0" />


<line
x1="226" y1="749" x2="213" y2="753"
id="SmallMolecule_bacf53037d739be6b6eaa0ba0e256388--to--BiochemicalReaction_fbd721ae63ff676f2ae2d2aecffbac25_LEFT_TO_RIGHT-input"
style="stroke:black;stroke-width:1.000000;stroke-opacity:0" />


<path d="M426.000000 349.000000 C 421.000000 340.000000, 416.000000 330.000000,413.000000 319.000000" stroke="black"  fill="transparent"/>
<path d="M413.000000 319.000000 C 409.000000 302.000000, 410.000000 297.000000,413.000000 280.000000" stroke="black"  fill="transparent"/>
<path d="M413.000000 280.000000 C 415.000000 274.000000, 418.000000 267.000000,420.000000 262.000000" stroke="black"  fill="transparent"/>

<line
x1="421" y1="340" x2="426" y2="349"
id="0"
style="stroke:black;stroke-width:1.000000;stroke-opacity:0" />


<line
x1="418" y1="267" x2="420" y2="262"
id="SmallMolecule_dff7a5252e99731a889e05223bceee9f--to--BiochemicalReaction_3bbfac4847b8023cb8396dc9fc0c225e_LEFT_TO_RIGHT-input"
style="stroke:black;stroke-width:1.000000;stroke-opacity:0" />


<path d="M384.000000 356.000000 C 392.000000 353.000000, 406.000000 348.000000,418.000000 346.000000" stroke="black"  fill="transparent"/>
<path d="M418.000000 346.000000 C 438.000000 341.000000, 460.000000 338.000000,478.000000 337.000000" stroke="black"  fill="transparent"/>

<line
x1="460" y1="338" x2="478" y2="337"
id="0"
style="stroke:black;stroke-width:1.000000;stroke-opacity:0" />


<line
x1="392" y1="353" x2="384" y2="356"
id="Protein_3b1d73491bb1792e48ea8a9b089fdd24--to--BiochemicalReaction_f5d6f93b458d0cac23dc6706e9070a7a_LEFT_TO_RIGHT"
style="stroke:black;stroke-width:1.000000;stroke-opacity:0" />


<ellipse
rx="4.400000"
ry="4.400000"
cx="388.119848"
cy="354.455057"
id="Protein_3b1d73491bb1792e48ea8a9b089fdd24--to--BiochemicalReaction_f5d6f93b458d0cac23dc6706e9070a7a_LEFT_TO_RIGHT"
style="fill:white;fill-opacity:0.800000;stroke:black;stroke-width:1.000000;stroke-opacity:1.000000" />


<path d="M431.000000 510.000000 C 439.000000 496.000000, 450.000000 474.000000,456.000000 463.000000" stroke="black"  fill="transparent"/>

<line
x1="450" y1="474" x2="456" y2="463"
id="0"
style="stroke:black;stroke-width:1.000000;stroke-opacity:0" />


<line
x1="439" y1="496" x2="431" y2="510"
id="BiochemicalReaction_8dbac354e041ce083a1ada6e50285d77_LEFT_TO_RIGHT-output--to--SmallMolecule_758e125e32486223dc900b6bfeec5675"
style="stroke:black;stroke-width:1.000000;stroke-opacity:0" />


<polygon
points = "431,510 422.2,505.6 422.2,514.4"
id="line"
style="fill:black; stroke:#000000; stroke-width:1"
transform = "rotate(119.744881 431.000000 510.000000)"
/>


<path d="M416.000000 183.000000 C 418.000000 201.000000, 422.000000 230.000000,424.000000 245.000000" stroke="black"  fill="transparent"/>

<line
x1="418" y1="201" x2="416" y2="183"
id="0"
style="stroke:black;stroke-width:1.000000;stroke-opacity:0" />


<line
x1="422" y1="230" x2="424" y2="245"
id="SmallMolecule_750ef6ee98604daab9024a139c74521a--to--BiochemicalReaction_3bbfac4847b8023cb8396dc9fc0c225e_LEFT_TO_RIGHT-input"
style="stroke:black;stroke-width:1.000000;stroke-opacity:0" />



</svg>
