<?xml version="1.0" encoding="UTF-8"?>
<svg width="970.498182" height="1111.650195"
xmlns="http://www.w3.org/2000/svg" xmlns:svg="http://www.w3.org/2000/svg"
>
<metadata id="metadata7">image/svg+xml</metadata>

<rect
width="540.498182"
height="728.650195"
rx="11.000000"
ry="11.000000"
x="100.000000"
y="183.000000"
id="cytosol"
style="fill:white;fill-opacity:0.900000;stroke:black;stroke-width:5.000000;stroke-opacity:1.000000" />


<text
x="370.249091"
y="175.000000"
id="cytosol"
style="font-size:6.000000px;text-anchor:middle;font-family:Arial,Helvetica;alignment-baseline:baseline;stroke.opacity:1;dominant-baseline:baseline"
fill="black"
>
cytosol</text>


<rect
width="540.498182"
height="728.650195"
rx="11.000000"
ry="11.000000"
x="100.000000"
y="183.000000"
id="cytosol"
style="fill:white;fill-opacity:0.900000;stroke:black;stroke-width:5.000000;stroke-opacity:1.000000" />


<text
x="370.249091"
y="175.000000"
id="cytosol"
style="font-size:6.000000px;text-anchor:middle;font-family:Arial,Helvetica;alignment-baseline:baseline;stroke.opacity:1;dominant-baseline:baseline"
fill="black"
>
cytosol</text>

NULL
NULL
NULL
NULL
NULL
NULL
NULL
NULL
NULL
NULL
NULL
NULL
NULL
NULL
NULL
NULL
NULL
NULL
NULL
NULL
NULL
NULL
NULL
NULL
NULL
NULL
NULL
NULL
NULL
NULL
NULL
NULL
NULL
NULL
NULL
NULL
NULL
NULL
NULL


<path
d="M 120.697800893867 665.551133664552 120.697800893867 747.567800331225 126.197800893867 753.067800331225 191.1311342272 753.067800331225 196.6311342272 747.567800331225 196.6311342272 665.551133664552 191.1311342272 660.051133664552 126.197800893867 660.051133664552 Z"
id="Complex_fde7c941f6cae6143097268d800be18e"
style="fill:white;fill-opacity:0.600000;stroke-width:1;stroke:black;stroke-opacity:1.000000"
transform = "rotate(0.000000 0.000000 0.000000)"
/>


<text
x="158.664468"
y="652.051134"
id="Complex_fde7c941f6cae6143097268d800be18e"
style="font-size:6.000000px;text-anchor:middle;font-family:Arial,Helvetica;alignment-baseline:baseline;stroke.opacity:1;dominant-baseline:baseline"
fill="black"
>
CDO1:Fe2+</text>


<path
d="M 146.54684979217 264.157603378766 146.54684979217 346.174270045432 152.04684979217 351.674270045432 216.980183125503 351.674270045432 222.480183125503 346.174270045432 222.480183125503 264.157603378766 216.980183125503 258.657603378766 152.04684979217 258.657603378766 Z"
id="Complex_e5c183288aa46c558d027d48cd2eda7d"
style="fill:white;fill-opacity:0.600000;stroke-width:1;stroke:black;stroke-opacity:1.000000"
transform = "rotate(0.000000 0.000000 0.000000)"
/>


<text
x="184.513516"
y="250.657603"
id="Complex_e5c183288aa46c558d027d48cd2eda7d"
style="font-size:6.000000px;text-anchor:middle;font-family:Arial,Helvetica;alignment-baseline:baseline;stroke.opacity:1;dominant-baseline:baseline"
fill="black"
>
CTH tetramer:PXLP</text>


<path
d="M 522.843260314075 643.116690573692 522.843260314075 725.133357240365 528.343260314075 730.633357240365 593.276593647408 730.633357240365 598.776593647408 725.133357240365 598.776593647408 643.116690573692 593.276593647408 637.616690573692 528.343260314075 637.616690573692 Z"
id="Complex_8928df06cf5fb6667be01ffdcab1543e"
style="fill:white;fill-opacity:0.600000;stroke-width:1;stroke:black;stroke-opacity:1.000000"
transform = "rotate(0.000000 0.000000 0.000000)"
/>


<text
x="560.809927"
y="629.616691"
id="Complex_8928df06cf5fb6667be01ffdcab1543e"
style="font-size:6.000000px;text-anchor:middle;font-family:Arial,Helvetica;alignment-baseline:baseline;stroke.opacity:1;dominant-baseline:baseline"
fill="black"
>
ADO:Fe2+</text>


<path
d="M 277.605385889609 813.133528416572 277.605385889609 895.150195083245 283.105385889609 900.650195083245 348.038719222942 900.650195083245 353.538719222942 895.150195083245 353.538719222942 813.133528416572 348.038719222942 807.633528416572 283.105385889609 807.633528416572 Z"
id="Complex_d6d1ac30c714599c441be143b4d87a76"
style="fill:white;fill-opacity:0.600000;stroke-width:1;stroke:black;stroke-opacity:1.000000"
transform = "rotate(0.000000 0.000000 0.000000)"
/>


<text
x="315.572053"
y="799.633528"
id="Complex_d6d1ac30c714599c441be143b4d87a76"
style="font-size:6.000000px;text-anchor:middle;font-family:Arial,Helvetica;alignment-baseline:baseline;stroke.opacity:1;dominant-baseline:baseline"
fill="black"
>
CSAD dimer</text>




<ellipse
rx="16.666667"
ry="16.666667"
cx="574.004557"
cy="570.753280"
id="SmallMolecule_c6e32c262cd08025b0d4997721faee5b"
style="fill:white;fill-opacity:0.000000;stroke:black;stroke-width:1.000000;stroke-opacity:1.000000" />


<text
x="574.004557"
y="572.753280"
id="SmallMolecule_c6e32c262cd08025b0d4997721faee5b"
style="font-size:6.000000px;text-anchor:middle;font-family:Arial,Helvetica;alignment-baseline:baseline;stroke.opacity:1;dominant-baseline:baseline"
fill="black"
>
TAU</text>



<ellipse
rx="16.666667"
ry="16.666667"
cx="559.424129"
cy="508.012308"
id="SmallMolecule_914c01e7aea87f4ff5e1d825ed6f60c2"
style="fill:white;fill-opacity:0.000000;stroke:black;stroke-width:1.000000;stroke-opacity:1.000000" />


<text
x="559.424129"
y="510.012308"
id="SmallMolecule_914c01e7aea87f4ff5e1d825ed6f60c2"
style="font-size:6.000000px;text-anchor:middle;font-family:Arial,Helvetica;alignment-baseline:baseline;stroke.opacity:1;dominant-baseline:baseline"
fill="black"
>
NAD</text>



<rect
width="58.333333"
height="33.333333"
rx="3.333333"
ry="3.333333"
x="129.497801"
y="668.851134"
id="Protein_29ffda25f8de37abc066d75a49a791d2_Complex_fde7c941f6cae6143097268d800be18e"
style="fill:white;fill-opacity:1.000000;stroke:black;stroke-width:1.000000;stroke-opacity:1.000000" />


<text
x="158.664468"
y="687.517800"
id="Protein_29ffda25f8de37abc066d75a49a791d2_Complex_fde7c941f6cae6143097268d800be18e"
style="font-size:6.000000px;text-anchor:middle;font-family:Arial,Helvetica;alignment-baseline:baseline;stroke.opacity:1;dominant-baseline:baseline"
fill="black"
>
CDO1</text>


<ellipse
rx="14.583333"
ry="7.291667"
cx="144.081134"
cy="668.851134"
id="Protein_29ffda25f8de37abc066d75a49a791d2_Complex_fde7c941f6cae6143097268d800be18e.info.1"
style="fill:white;fill-opacity:1.000000;stroke:black;stroke-width:1.000000;stroke-opacity:1.000000" />


<text
x="144.081134"
y="670.851134"
id="Protein_29ffda25f8de37abc066d75a49a791d2_Complex_fde7c941f6cae6143097268d800be18e.info.1"
style="font-size:6.000000px;text-anchor:middle;font-family:Arial,Helvetica;alignment-baseline:baseline;stroke.opacity:1;dominant-baseline:baseline"
fill="black"
>
x[1-200]</text>



<ellipse
rx="16.666667"
ry="16.666667"
cx="146.164468"
cy="727.601134"
id="SmallMolecule_0e4c5a7590fd1eefd65d0db08ad183f6_Complex_fde7c941f6cae6143097268d800be18e"
style="fill:white;fill-opacity:0.000000;stroke:black;stroke-width:1.000000;stroke-opacity:1.000000" />


<text
x="146.164468"
y="729.601134"
id="SmallMolecule_0e4c5a7590fd1eefd65d0db08ad183f6_Complex_fde7c941f6cae6143097268d800be18e"
style="font-size:6.000000px;text-anchor:middle;font-family:Arial,Helvetica;alignment-baseline:baseline;stroke.opacity:1;dominant-baseline:baseline"
fill="black"
>
Fe2+</text>



<ellipse
rx="16.666667"
ry="16.666667"
cx="375.382258"
cy="217.371675"
id="SmallMolecule_140759d4ee6122b931842ece83e8a69a"
style="fill:white;fill-opacity:0.000000;stroke:black;stroke-width:1.000000;stroke-opacity:1.000000" />


<text
x="375.382258"
y="219.371675"
id="SmallMolecule_140759d4ee6122b931842ece83e8a69a"
style="font-size:6.000000px;text-anchor:middle;font-family:Arial,Helvetica;alignment-baseline:baseline;stroke.opacity:1;dominant-baseline:baseline"
fill="black"
>
2OBUTA</text>



<ellipse
rx="16.666667"
ry="16.666667"
cx="429.288847"
cy="277.047590"
id="SmallMolecule_40618cd032ccb09ade2b18da1b707cc7"
style="fill:white;fill-opacity:0.000000;stroke:black;stroke-width:1.000000;stroke-opacity:1.000000" />


<text
x="429.288847"
y="279.047590"
id="SmallMolecule_40618cd032ccb09ade2b18da1b707cc7"
style="font-size:6.000000px;text-anchor:middle;font-family:Arial,Helvetica;alignment-baseline:baseline;stroke.opacity:1;dominant-baseline:baseline"
fill="black"
>
HCYS</text>



<ellipse
rx="16.666667"
ry="16.666667"
cx="424.968775"
cy="609.969138"
id="SmallMolecule_4e0bc597462ce1954811dde3b1f66703"
style="fill:white;fill-opacity:0.000000;stroke:black;stroke-width:1.000000;stroke-opacity:1.000000" />


<text
x="424.968775"
y="611.969138"
id="SmallMolecule_4e0bc597462ce1954811dde3b1f66703"
style="font-size:6.000000px;text-anchor:middle;font-family:Arial,Helvetica;alignment-baseline:baseline;stroke.opacity:1;dominant-baseline:baseline"
fill="black"
>
HTAU</text>



<ellipse
rx="16.666667"
ry="16.666667"
cx="313.528202"
cy="401.378816"
id="SmallMolecule_520386f28a48a9dfac6cfff7061587d0"
style="fill:white;fill-opacity:0.000000;stroke:black;stroke-width:1.000000;stroke-opacity:1.000000" />


<text
x="313.528202"
y="403.378816"
id="SmallMolecule_520386f28a48a9dfac6cfff7061587d0"
style="font-size:6.000000px;text-anchor:middle;font-family:Arial,Helvetica;alignment-baseline:baseline;stroke.opacity:1;dominant-baseline:baseline"
fill="black"
>
H2S</text>



<ellipse
rx="16.666667"
ry="16.666667"
cx="127.666667"
cy="419.837287"
id="SmallMolecule_8bf3cc9d699bdb325615973809e4ad53"
style="fill:white;fill-opacity:0.000000;stroke:black;stroke-width:1.000000;stroke-opacity:1.000000" />


<text
x="127.666667"
y="421.837287"
id="SmallMolecule_8bf3cc9d699bdb325615973809e4ad53"
style="font-size:6.000000px;text-anchor:middle;font-family:Arial,Helvetica;alignment-baseline:baseline;stroke.opacity:1;dominant-baseline:baseline"
fill="black"
>
L-Lanthionine</text>



<rect
width="58.333333"
height="33.333333"
rx="3.333333"
ry="3.333333"
x="155.346850"
y="267.457603"
id="Protein_28bfae958b585fda00cd44e354045320_Complex_e5c183288aa46c558d027d48cd2eda7d"
style="fill:white;fill-opacity:1.000000;stroke:black;stroke-width:1.000000;stroke-opacity:1.000000" />


<text
x="184.513516"
y="286.124270"
id="Protein_28bfae958b585fda00cd44e354045320_Complex_e5c183288aa46c558d027d48cd2eda7d"
style="font-size:6.000000px;text-anchor:middle;font-family:Arial,Helvetica;alignment-baseline:baseline;stroke.opacity:1;dominant-baseline:baseline"
fill="black"
>
CTH</text>


<ellipse
rx="14.583333"
ry="7.291667"
cx="169.930183"
cy="267.457603"
id="Protein_28bfae958b585fda00cd44e354045320_Complex_e5c183288aa46c558d027d48cd2eda7d.info.1"
style="fill:white;fill-opacity:1.000000;stroke:black;stroke-width:1.000000;stroke-opacity:1.000000" />


<text
x="169.930183"
y="269.457603"
id="Protein_28bfae958b585fda00cd44e354045320_Complex_e5c183288aa46c558d027d48cd2eda7d.info.1"
style="font-size:6.000000px;text-anchor:middle;font-family:Arial,Helvetica;alignment-baseline:baseline;stroke.opacity:1;dominant-baseline:baseline"
fill="black"
>
x[1-405]</text>



<ellipse
rx="16.666667"
ry="16.666667"
cx="172.013516"
cy="326.207603"
id="SmallMolecule_8d5bdeea86f7f98a1946cb2312603ec6_Complex_e5c183288aa46c558d027d48cd2eda7d"
style="fill:white;fill-opacity:0.000000;stroke:black;stroke-width:1.000000;stroke-opacity:1.000000" />


<text
x="172.013516"
y="328.207603"
id="SmallMolecule_8d5bdeea86f7f98a1946cb2312603ec6_Complex_e5c183288aa46c558d027d48cd2eda7d"
style="font-size:6.000000px;text-anchor:middle;font-family:Arial,Helvetica;alignment-baseline:baseline;stroke.opacity:1;dominant-baseline:baseline"
fill="black"
>
PXLP</text>



<ellipse
rx="16.666667"
ry="16.666667"
cx="249.749584"
cy="537.886470"
id="SmallMolecule_4082be988ce36cbb9266fd438efe3e55"
style="fill:white;fill-opacity:0.000000;stroke:black;stroke-width:1.000000;stroke-opacity:1.000000" />


<text
x="249.749584"
y="539.886470"
id="SmallMolecule_4082be988ce36cbb9266fd438efe3e55"
style="font-size:6.000000px;text-anchor:middle;font-family:Arial,Helvetica;alignment-baseline:baseline;stroke.opacity:1;dominant-baseline:baseline"
fill="black"
>
Ser</text>



<ellipse
rx="16.666667"
ry="16.666667"
cx="405.339254"
cy="761.453689"
id="SmallMolecule_f9065a51883bfaf46817f1b4f0047385"
style="fill:white;fill-opacity:0.000000;stroke:black;stroke-width:1.000000;stroke-opacity:1.000000" />


<text
x="405.339254"
y="763.453689"
id="SmallMolecule_f9065a51883bfaf46817f1b4f0047385"
style="font-size:6.000000px;text-anchor:middle;font-family:Arial,Helvetica;alignment-baseline:baseline;stroke.opacity:1;dominant-baseline:baseline"
fill="black"
>
CO2</text>



<ellipse
rx="16.666667"
ry="16.666667"
cx="309.224927"
cy="210.666667"
id="SmallMolecule_1ced3848a2a902870840337ecdb00d4c"
style="fill:white;fill-opacity:0.000000;stroke:black;stroke-width:1.000000;stroke-opacity:1.000000" />


<text
x="309.224927"
y="212.666667"
id="SmallMolecule_1ced3848a2a902870840337ecdb00d4c"
style="font-size:6.000000px;text-anchor:middle;font-family:Arial,Helvetica;alignment-baseline:baseline;stroke.opacity:1;dominant-baseline:baseline"
fill="black"
>
NH3</text>



<ellipse
rx="16.666667"
ry="16.666667"
cx="378.424013"
cy="417.018749"
id="SmallMolecule_bfe0d4cd6c12bac80101dff1b5e1f783"
style="fill:white;fill-opacity:0.000000;stroke:black;stroke-width:1.000000;stroke-opacity:1.000000" />


<text
x="378.424013"
y="419.018749"
id="SmallMolecule_bfe0d4cd6c12bac80101dff1b5e1f783"
style="font-size:6.000000px;text-anchor:middle;font-family:Arial,Helvetica;alignment-baseline:baseline;stroke.opacity:1;dominant-baseline:baseline"
fill="black"
>
H2O</text>



<ellipse
rx="16.666667"
ry="16.666667"
cx="416.052682"
cy="475.139990"
id="SmallMolecule_a3b4266912ddda9b05f03c580fbf8690"
style="fill:white;fill-opacity:0.000000;stroke:black;stroke-width:1.000000;stroke-opacity:1.000000" />


<text
x="416.052682"
y="477.139990"
id="SmallMolecule_a3b4266912ddda9b05f03c580fbf8690"
style="font-size:6.000000px;text-anchor:middle;font-family:Arial,Helvetica;alignment-baseline:baseline;stroke.opacity:1;dominant-baseline:baseline"
fill="black"
>
H+</text>



<ellipse
rx="16.666667"
ry="16.666667"
cx="334.648741"
cy="650.642078"
id="SmallMolecule_f6bb20648aaa3bd001ae0756f3d4c4e0"
style="fill:white;fill-opacity:0.000000;stroke:black;stroke-width:1.000000;stroke-opacity:1.000000" />



<text
x="334.648741"
y="649.642078"
id="SmallMolecule_f6bb20648aaa3bd001ae0756f3d4c4e0"
style="font-size:6.000000px;text-anchor:middle;font-family:Arial,Helvetica;alignment-baseline:baseline;stroke.opacity:1;dominant-baseline:baseline"
fill="black"
>
3-Sulfinoal-</text>


<text
x="334.648741"
y="655.642078"
id="SmallMolecule_f6bb20648aaa3bd001ae0756f3d4c4e0"
style="font-size:6.000000px;text-anchor:middle;font-family:Arial,Helvetica;alignment-baseline:baseline;stroke.opacity:1;dominant-baseline:baseline"
fill="black"
>
anine</text>



<ellipse
rx="16.666667"
ry="16.666667"
cx="502.201004"
cy="581.030819"
id="SmallMolecule_450bf58f9d2bd0fced349e71589e13a5"
style="fill:white;fill-opacity:0.000000;stroke:black;stroke-width:1.000000;stroke-opacity:1.000000" />


<text
x="502.201004"
y="583.030819"
id="SmallMolecule_450bf58f9d2bd0fced349e71589e13a5"
style="font-size:6.000000px;text-anchor:middle;font-family:Arial,Helvetica;alignment-baseline:baseline;stroke.opacity:1;dominant-baseline:baseline"
fill="black"
>
2AET</text>



<ellipse
rx="16.666667"
ry="16.666667"
cx="189.122208"
cy="510.031772"
id="SmallMolecule_658999f3d6182b5f2654369ca4d67599"
style="fill:white;fill-opacity:0.000000;stroke:black;stroke-width:1.000000;stroke-opacity:1.000000" />


<text
x="189.122208"
y="512.031772"
id="SmallMolecule_658999f3d6182b5f2654369ca4d67599"
style="font-size:6.000000px;text-anchor:middle;font-family:Arial,Helvetica;alignment-baseline:baseline;stroke.opacity:1;dominant-baseline:baseline"
fill="black"
>
L-Cys</text>



<ellipse
rx="16.666667"
ry="16.666667"
cx="517.507760"
cy="417.675540"
id="SmallMolecule_faab079e74de3bad32e72065b843eb3c"
style="fill:white;fill-opacity:0.000000;stroke:black;stroke-width:1.000000;stroke-opacity:1.000000" />


<text
x="517.507760"
y="419.675540"
id="SmallMolecule_faab079e74de3bad32e72065b843eb3c"
style="font-size:6.000000px;text-anchor:middle;font-family:Arial,Helvetica;alignment-baseline:baseline;stroke.opacity:1;dominant-baseline:baseline"
fill="black"
>
NADH</text>



<ellipse
rx="16.666667"
ry="16.666667"
cx="455.770528"
cy="347.406602"
id="SmallMolecule_bd64d362f4f6f8f5b2bded04b998d68a"
style="fill:white;fill-opacity:0.000000;stroke:black;stroke-width:1.000000;stroke-opacity:1.000000" />


<text
x="455.770528"
y="349.406602"
id="SmallMolecule_bd64d362f4f6f8f5b2bded04b998d68a"
style="font-size:6.000000px;text-anchor:middle;font-family:Arial,Helvetica;alignment-baseline:baseline;stroke.opacity:1;dominant-baseline:baseline"
fill="black"
>
HLAN</text>



<rect
width="58.333333"
height="33.333333"
rx="3.333333"
ry="3.333333"
x="531.643260"
y="646.416691"
id="Protein_6ac15b7acd9a080b0062dfe3e9feba1c_Complex_8928df06cf5fb6667be01ffdcab1543e"
style="fill:white;fill-opacity:1.000000;stroke:black;stroke-width:1.000000;stroke-opacity:1.000000" />


<text
x="560.809927"
y="665.083357"
id="Protein_6ac15b7acd9a080b0062dfe3e9feba1c_Complex_8928df06cf5fb6667be01ffdcab1543e"
style="font-size:6.000000px;text-anchor:middle;font-family:Arial,Helvetica;alignment-baseline:baseline;stroke.opacity:1;dominant-baseline:baseline"
fill="black"
>
ADO</text>


<ellipse
rx="14.583333"
ry="7.291667"
cx="546.226594"
cy="646.416691"
id="Protein_6ac15b7acd9a080b0062dfe3e9feba1c_Complex_8928df06cf5fb6667be01ffdcab1543e.info.1"
style="fill:white;fill-opacity:1.000000;stroke:black;stroke-width:1.000000;stroke-opacity:1.000000" />


<text
x="546.226594"
y="648.416691"
id="Protein_6ac15b7acd9a080b0062dfe3e9feba1c_Complex_8928df06cf5fb6667be01ffdcab1543e.info.1"
style="font-size:6.000000px;text-anchor:middle;font-family:Arial,Helvetica;alignment-baseline:baseline;stroke.opacity:1;dominant-baseline:baseline"
fill="black"
>
x[1-270]</text>



<ellipse
rx="16.666667"
ry="16.666667"
cx="548.309927"
cy="705.166691"
id="SmallMolecule_0e4c5a7590fd1eefd65d0db08ad183f6_Complex_8928df06cf5fb6667be01ffdcab1543e"
style="fill:white;fill-opacity:0.000000;stroke:black;stroke-width:1.000000;stroke-opacity:1.000000" />


<text
x="548.309927"
y="707.166691"
id="SmallMolecule_0e4c5a7590fd1eefd65d0db08ad183f6_Complex_8928df06cf5fb6667be01ffdcab1543e"
style="font-size:6.000000px;text-anchor:middle;font-family:Arial,Helvetica;alignment-baseline:baseline;stroke.opacity:1;dominant-baseline:baseline"
fill="black"
>
Fe2+</text>



<ellipse
rx="29.166667"
ry="16.666667"
cx="600.331515"
cy="450.545770"
id="PhysicalEntity_0fa25380732b13872cef64df94dc6c69"
style="fill:white;fill-opacity:1.000000;stroke:black;stroke-width:1.000000;stroke-opacity:1.000000" />


<text
x="600.331515"
y="452.545770"
id="PhysicalEntity_0fa25380732b13872cef64df94dc6c69"
style="font-size:6.000000px;text-anchor:middle;font-family:Arial,Helvetica;alignment-baseline:baseline;stroke.opacity:1;dominant-baseline:baseline"
fill="black"
>
HTAUDH</text>



<ellipse
rx="16.666667"
ry="16.666667"
cx="343.091564"
cy="537.178691"
id="SmallMolecule_6f5aca45478229c260a507647b0a7d2b"
style="fill:white;fill-opacity:0.000000;stroke:black;stroke-width:1.000000;stroke-opacity:1.000000" />


<text
x="343.091564"
y="539.178691"
id="SmallMolecule_6f5aca45478229c260a507647b0a7d2b"
style="font-size:6.000000px;text-anchor:middle;font-family:Arial,Helvetica;alignment-baseline:baseline;stroke.opacity:1;dominant-baseline:baseline"
fill="black"
>
O2</text>



<ellipse
rx="16.666667"
ry="16.666667"
cx="303.072053"
cy="875.183528"
id="SmallMolecule_8d5bdeea86f7f98a1946cb2312603ec6_Complex_d6d1ac30c714599c441be143b4d87a76"
style="fill:white;fill-opacity:0.000000;stroke:black;stroke-width:1.000000;stroke-opacity:1.000000" />


<text
x="303.072053"
y="877.183528"
id="SmallMolecule_8d5bdeea86f7f98a1946cb2312603ec6_Complex_d6d1ac30c714599c441be143b4d87a76"
style="font-size:6.000000px;text-anchor:middle;font-family:Arial,Helvetica;alignment-baseline:baseline;stroke.opacity:1;dominant-baseline:baseline"
fill="black"
>
PXLP</text>



<rect
width="58.333333"
height="33.333333"
rx="3.333333"
ry="3.333333"
x="286.405386"
y="816.433528"
id="Protein_5ed8f05e953ba18a1e659f5aae07e1ef_Complex_d6d1ac30c714599c441be143b4d87a76"
style="fill:white;fill-opacity:1.000000;stroke:black;stroke-width:1.000000;stroke-opacity:1.000000" />


<text
x="315.572053"
y="835.100195"
id="Protein_5ed8f05e953ba18a1e659f5aae07e1ef_Complex_d6d1ac30c714599c441be143b4d87a76"
style="font-size:6.000000px;text-anchor:middle;font-family:Arial,Helvetica;alignment-baseline:baseline;stroke.opacity:1;dominant-baseline:baseline"
fill="black"
>
CSAD</text>


<ellipse
rx="14.583333"
ry="7.291667"
cx="300.988719"
cy="816.433528"
id="Protein_5ed8f05e953ba18a1e659f5aae07e1ef_Complex_d6d1ac30c714599c441be143b4d87a76.info.1"
style="fill:white;fill-opacity:1.000000;stroke:black;stroke-width:1.000000;stroke-opacity:1.000000" />


<text
x="300.988719"
y="818.433528"
id="Protein_5ed8f05e953ba18a1e659f5aae07e1ef_Complex_d6d1ac30c714599c441be143b4d87a76.info.1"
style="font-size:6.000000px;text-anchor:middle;font-family:Arial,Helvetica;alignment-baseline:baseline;stroke.opacity:1;dominant-baseline:baseline"
fill="black"
>
x[1-493]</text>


<rect
width="16.666667"
height="16.666667"
rx="0.000000"
ry="0.000000"
x="477.929331"
y="494.619226"
id="reactome_R-HSA-1655453_LEFT_TO_RIGHT"
style="fill:white;fill-opacity:0.600000;stroke:black;stroke-width:1.000000;stroke-opacity:1.000000" />



<rect
width="16.666667"
height="16.666667"
rx="0.000000"
ry="0.000000"
x="361.350264"
y="336.526091"
id="reactome_R-HSA-1614567_LEFT_TO_RIGHT"
style="fill:white;fill-opacity:0.600000;stroke:black;stroke-width:1.000000;stroke-opacity:1.000000" />



<rect
width="16.666667"
height="16.666667"
rx="0.000000"
ry="0.000000"
x="257.891284"
y="584.891081"
id="reactome_R-HSA-1614645_LEFT_TO_RIGHT"
style="fill:white;fill-opacity:0.600000;stroke:black;stroke-width:1.000000;stroke-opacity:1.000000" />



<rect
width="16.666667"
height="16.666667"
rx="0.000000"
ry="0.000000"
x="397.521626"
y="694.997497"
id="reactome_R-HSA-1655443_LEFT_TO_RIGHT"
style="fill:white;fill-opacity:0.600000;stroke:black;stroke-width:1.000000;stroke-opacity:1.000000" />



<rect
width="16.666667"
height="16.666667"
rx="0.000000"
ry="0.000000"
x="334.935883"
y="299.595340"
id="reactome_R-HSA-1614631_LEFT_TO_RIGHT"
style="fill:white;fill-opacity:0.600000;stroke:black;stroke-width:1.000000;stroke-opacity:1.000000" />



<rect
width="16.666667"
height="16.666667"
rx="0.000000"
ry="0.000000"
x="211.426704"
y="424.375006"
id="reactome_R-HSA-1614591_LEFT_TO_RIGHT"
style="fill:white;fill-opacity:0.600000;stroke:black;stroke-width:1.000000;stroke-opacity:1.000000" />



<rect
width="16.666667"
height="16.666667"
rx="0.000000"
ry="0.000000"
x="265.962595"
y="451.100152"
id="reactome_R-HSA-1614614_LEFT_TO_RIGHT"
style="fill:white;fill-opacity:0.600000;stroke:black;stroke-width:1.000000;stroke-opacity:1.000000" />



<rect
width="16.666667"
height="16.666667"
rx="0.000000"
ry="0.000000"
x="425.407609"
y="542.692970"
id="reactome_R-HSA-6814153_LEFT_TO_RIGHT"
style="fill:white;fill-opacity:0.600000;stroke:black;stroke-width:1.000000;stroke-opacity:1.000000" />



<rect
width="20.000000"
height="20.000000"
rx="0.000000"
ry="0.000000"
x="208.500000"
y="450.500000"
id="NA"
style="fill:white;fill-opacity:0.600000;stroke:black;stroke-width:1.000000;stroke-opacity:1.000000" />


<text
x="218.500000"
y="462.500000"
id="NA"
style="font-size:6.000000px;text-anchor:middle;font-family:Arial,Helvetica;alignment-baseline:baseline;stroke.opacity:1;dominant-baseline:baseline"
fill="black"
>
2</text>


<rect
width="20.000000"
height="20.000000"
rx="0.000000"
ry="0.000000"
x="383.500000"
y="322.500000"
id="NA"
style="fill:white;fill-opacity:0.600000;stroke:black;stroke-width:1.000000;stroke-opacity:1.000000" />


<text
x="393.500000"
y="334.500000"
id="NA"
style="font-size:6.000000px;text-anchor:middle;font-family:Arial,Helvetica;alignment-baseline:baseline;stroke.opacity:1;dominant-baseline:baseline"
fill="black"
>
2</text>




<path d="M144.000000 422.000000 C 164.000000 424.000000, 196.000000 429.000000,211.000000 431.000000" stroke="black"  fill="transparent"/>

<line
x1="196" y1="429" x2="211" y2="431"
id="0"
style="stroke:black;stroke-width:1.000000;stroke-opacity:0" />


<line
x1="164" y1="424" x2="144" y2="422"
id="reactome_R-HSA-1614591_LEFT_TO_RIGHT-output--to--SmallMolecule_8bf3cc9d699bdb325615973809e4ad53"
style="stroke:black;stroke-width:1.000000;stroke-opacity:0" />


<polygon
points = "144,422 135.2,417.6 135.2,426.4"
id="line"
style="fill:black; stroke:#000000; stroke-width:1"
transform = "rotate(185.710593 144.000000 422.000000)"
/>


<path d="M405.000000 744.000000 C 405.000000 734.000000, 405.000000 720.000000,405.000000 711.000000" stroke="black"  fill="transparent"/>

<line
x1="405" y1="720" x2="405" y2="711"
id="0"
style="stroke:black;stroke-width:1.000000;stroke-opacity:0" />


<line
x1="405" y1="734" x2="405" y2="744"
id="reactome_R-HSA-1655443_LEFT_TO_RIGHT-output--to--SmallMolecule_f9065a51883bfaf46817f1b4f0047385"
style="stroke:black;stroke-width:1.000000;stroke-opacity:0" />


<polygon
points = "405,744 396.2,739.6 396.2,748.4"
id="line"
style="fill:black; stroke:#000000; stroke-width:1"
transform = "rotate(90.000000 405.000000 744.000000)"
/>


<path d="M419.000000 491.000000 C 423.000000 507.000000, 428.000000 530.000000,431.000000 542.000000" stroke="black"  fill="transparent"/>

<line
x1="428" y1="530" x2="431" y2="542"
id="0"
style="stroke:black;stroke-width:1.000000;stroke-opacity:0" />


<line
x1="423" y1="507" x2="419" y2="491"
id="reactome_R-HSA-6814153_LEFT_TO_RIGHT-output--to--SmallMolecule_a3b4266912ddda9b05f03c580fbf8690"
style="stroke:black;stroke-width:1.000000;stroke-opacity:0" />


<polygon
points = "419,491 410.2,486.6 410.2,495.4"
id="line"
style="fill:black; stroke:#000000; stroke-width:1"
transform = "rotate(255.963757 419.000000 491.000000)"
/>


<path d="M330.000000 384.000000 C 340.000000 374.000000, 352.000000 361.000000,361.000000 353.000000" stroke="black"  fill="transparent"/>

<line
x1="352" y1="361" x2="361" y2="353"
id="0"
style="stroke:black;stroke-width:1.000000;stroke-opacity:0" />


<line
x1="340" y1="374" x2="330" y2="384"
id="reactome_R-HSA-1614567_LEFT_TO_RIGHT-output--to--SmallMolecule_520386f28a48a9dfac6cfff7061587d0"
style="stroke:black;stroke-width:1.000000;stroke-opacity:0" />


<polygon
points = "330,384 321.2,379.6 321.2,388.4"
id="line"
style="fill:black; stroke:#000000; stroke-width:1"
transform = "rotate(135.000000 330.000000 384.000000)"
/>


<path d="M197.000000 351.000000 C 204.000000 378.000000, 213.000000 409.000000,217.000000 423.000000" stroke="black"  fill="transparent"/>

<line
x1="204" y1="378" x2="197" y2="351"
id="0"
style="stroke:black;stroke-width:1.000000;stroke-opacity:0" />


<line
x1="213" y1="409" x2="217" y2="423"
id="Complex_e5c183288aa46c558d027d48cd2eda7d--to--reactome_R-HSA-1614591_LEFT_TO_RIGHT"
style="stroke:black;stroke-width:1.000000;stroke-opacity:0" />


<ellipse
rx="4.400000"
ry="4.400000"
cx="215.791227"
cy="418.769295"
id="Complex_e5c183288aa46c558d027d48cd2eda7d--to--reactome_R-HSA-1614591_LEFT_TO_RIGHT"
style="fill:white;fill-opacity:0.800000;stroke:black;stroke-width:1.000000;stroke-opacity:1.000000" />


<path d="M195.000000 493.000000 C 202.000000 477.000000, 211.000000 453.000000,216.000000 441.000000" stroke="black"  fill="transparent"/>

<line
x1="202" y1="477" x2="195" y2="493"
id="0"
style="stroke:black;stroke-width:1.000000;stroke-opacity:0" />


<line
x1="211" y1="453" x2="216" y2="441"
id="SmallMolecule_658999f3d6182b5f2654369ca4d67599--to--reactome_R-HSA-1614591_LEFT_TO_RIGHT"
style="stroke:black;stroke-width:1.000000;stroke-opacity:0" />


<polygon
points = "216,441 202.8,436.6 202.8,445.4"
id="line"
style="fill:white; stroke:#000000; stroke-width:1"
transform = "rotate(-67.380135 216.000000 441.000000)"
/>


<path d="M372.000000 400.000000 C 368.000000 388.000000, 362.000000 371.000000,357.000000 356.000000" stroke="black"  fill="transparent"/>
<path d="M357.000000 356.000000 C 353.000000 342.000000, 348.000000 326.000000,345.000000 316.000000" stroke="black"  fill="transparent"/>

<line
x1="368" y1="388" x2="372" y2="400"
id="0"
style="stroke:black;stroke-width:1.000000;stroke-opacity:0" />


<line
x1="348" y1="326" x2="345" y2="316"
id="SmallMolecule_bfe0d4cd6c12bac80101dff1b5e1f783--to--reactome_R-HSA-1614631_LEFT_TO_RIGHT-input"
style="stroke:black;stroke-width:1.000000;stroke-opacity:0" />


<path d="M511.000000 434.000000 C 504.000000 452.000000, 494.000000 480.000000,489.000000 494.000000" stroke="black"  fill="transparent"/>

<line
x1="494" y1="480" x2="489" y2="494"
id="0"
style="stroke:black;stroke-width:1.000000;stroke-opacity:0" />


<line
x1="504" y1="452" x2="511" y2="434"
id="reactome_R-HSA-1655453_LEFT_TO_RIGHT-output--to--SmallMolecule_faab079e74de3bad32e72065b843eb3c"
style="stroke:black;stroke-width:1.000000;stroke-opacity:0" />


<polygon
points = "511,434 502.2,429.6 502.2,438.4"
id="line"
style="fill:black; stroke:#000000; stroke-width:1"
transform = "rotate(-68.749494 511.000000 434.000000)"
/>


<path d="M318.000000 636.000000 C 304.000000 625.000000, 285.000000 609.000000,274.000000 600.000000" stroke="black"  fill="transparent"/>

<line
x1="285" y1="609" x2="274" y2="600"
id="0"
style="stroke:black;stroke-width:1.000000;stroke-opacity:0" />


<line
x1="304" y1="625" x2="318" y2="636"
id="reactome_R-HSA-1614645_LEFT_TO_RIGHT-output--to--SmallMolecule_f6bb20648aaa3bd001ae0756f3d4c4e0"
style="stroke:black;stroke-width:1.000000;stroke-opacity:0" />


<polygon
points = "318,636 309.2,631.6 309.2,640.4"
id="line"
style="fill:black; stroke:#000000; stroke-width:1"
transform = "rotate(38.157227 318.000000 636.000000)"
/>


<path d="M394.000000 427.000000 C 406.000000 434.000000, 422.000000 444.000000,435.000000 455.000000" stroke="black"  fill="transparent"/>
<path d="M435.000000 455.000000 C 451.000000 468.000000, 468.000000 484.000000,478.000000 494.000000" stroke="black"  fill="transparent"/>

<line
x1="406" y1="434" x2="394" y2="427"
id="0"
style="stroke:black;stroke-width:1.000000;stroke-opacity:0" />


<line
x1="468" y1="484" x2="478" y2="494"
id="SmallMolecule_bfe0d4cd6c12bac80101dff1b5e1f783--to--reactome_R-HSA-1655453_LEFT_TO_RIGHT-input"
style="stroke:black;stroke-width:1.000000;stroke-opacity:0" />


<path d="M196.000000 666.000000 C 219.000000 642.000000, 245.000000 615.000000,258.000000 601.000000" stroke="black"  fill="transparent"/>

<line
x1="219" y1="642" x2="196" y2="666"
id="0"
style="stroke:black;stroke-width:1.000000;stroke-opacity:0" />


<line
x1="245" y1="615" x2="258" y2="601"
id="Complex_fde7c941f6cae6143097268d800be18e--to--reactome_R-HSA-1614645_LEFT_TO_RIGHT"
style="stroke:black;stroke-width:1.000000;stroke-opacity:0" />


<ellipse
rx="4.400000"
ry="4.400000"
cx="255.006015"
cy="604.224291"
id="Complex_fde7c941f6cae6143097268d800be18e--to--reactome_R-HSA-1614645_LEFT_TO_RIGHT"
style="fill:white;fill-opacity:0.800000;stroke:black;stroke-width:1.000000;stroke-opacity:1.000000" />


<path d="M362.000000 423.000000 C 339.000000 432.000000, 299.000000 449.000000,282.000000 456.000000" stroke="black"  fill="transparent"/>

<line
x1="339" y1="432" x2="362" y2="423"
id="0"
style="stroke:black;stroke-width:1.000000;stroke-opacity:0" />


<line
x1="299" y1="449" x2="282" y2="456"
id="SmallMolecule_bfe0d4cd6c12bac80101dff1b5e1f783--to--reactome_R-HSA-1614614_LEFT_TO_RIGHT-input"
style="stroke:black;stroke-width:1.000000;stroke-opacity:0" />


<path d="M351.000000 662.000000 C 365.000000 673.000000, 386.000000 688.000000,397.000000 697.000000" stroke="black"  fill="transparent"/>

<line
x1="365" y1="673" x2="351" y2="662"
id="0"
style="stroke:black;stroke-width:1.000000;stroke-opacity:0" />


<line
x1="386" y1="688" x2="397" y2="697"
id="SmallMolecule_f6bb20648aaa3bd001ae0756f3d4c4e0--to--reactome_R-HSA-1655443_LEFT_TO_RIGHT-input"
style="stroke:black;stroke-width:1.000000;stroke-opacity:0" />


<path d="M222.000000 313.000000 C 267.000000 322.000000, 336.000000 337.000000,361.000000 343.000000" stroke="black"  fill="transparent"/>

<line
x1="267" y1="322" x2="222" y2="313"
id="0"
style="stroke:black;stroke-width:1.000000;stroke-opacity:0" />


<line
x1="336" y1="337" x2="361" y2="343"
id="Complex_e5c183288aa46c558d027d48cd2eda7d--to--reactome_R-HSA-1614567_LEFT_TO_RIGHT"
style="stroke:black;stroke-width:1.000000;stroke-opacity:0" />


<ellipse
rx="4.400000"
ry="4.400000"
cx="356.721496"
cy="341.973159"
id="Complex_e5c183288aa46c558d027d48cd2eda7d--to--reactome_R-HSA-1614567_LEFT_TO_RIGHT"
style="fill:white;fill-opacity:0.800000;stroke:black;stroke-width:1.000000;stroke-opacity:1.000000" />


<path d="M557.000000 558.000000 C 539.000000 543.000000, 509.000000 521.000000,495.000000 509.000000" stroke="black"  fill="transparent"/>

<line
x1="509" y1="521" x2="495" y2="509"
id="0"
style="stroke:black;stroke-width:1.000000;stroke-opacity:0" />


<line
x1="539" y1="543" x2="557" y2="558"
id="reactome_R-HSA-1655453_LEFT_TO_RIGHT-output--to--SmallMolecule_c6e32c262cd08025b0d4997721faee5b"
style="stroke:black;stroke-width:1.000000;stroke-opacity:0" />


<polygon
points = "557,558 548.2,553.6 548.2,562.4"
id="line"
style="fill:black; stroke:#000000; stroke-width:1"
transform = "rotate(39.805571 557.000000 558.000000)"
/>


<path d="M412.000000 283.000000 C 394.000000 289.000000, 366.000000 299.000000,351.000000 304.000000" stroke="black"  fill="transparent"/>

<line
x1="394" y1="289" x2="412" y2="283"
id="0"
style="stroke:black;stroke-width:1.000000;stroke-opacity:0" />


<line
x1="366" y1="299" x2="351" y2="304"
id="SmallMolecule_40618cd032ccb09ade2b18da1b707cc7--to--reactome_R-HSA-1614631_LEFT_TO_RIGHT-input"
style="stroke:black;stroke-width:1.000000;stroke-opacity:0" />


<path d="M202.000000 526.000000 C 210.000000 535.000000, 220.000000 547.000000,230.000000 557.000000" stroke="black"  fill="transparent"/>
<path d="M230.000000 557.000000 C 239.000000 567.000000, 250.000000 578.000000,257.000000 585.000000" stroke="black"  fill="transparent"/>

<line
x1="210" y1="535" x2="202" y2="526"
id="0"
style="stroke:black;stroke-width:1.000000;stroke-opacity:0" />


<line
x1="250" y1="578" x2="257" y2="585"
id="SmallMolecule_658999f3d6182b5f2654369ca4d67599--to--reactome_R-HSA-1614645_LEFT_TO_RIGHT-input"
style="stroke:black;stroke-width:1.000000;stroke-opacity:0" />


<path d="M485.000000 573.000000 C 471.000000 567.000000, 452.000000 559.000000,442.000000 554.000000" stroke="black"  fill="transparent"/>

<line
x1="471" y1="567" x2="485" y2="573"
id="0"
style="stroke:black;stroke-width:1.000000;stroke-opacity:0" />


<line
x1="452" y1="559" x2="442" y2="554"
id="SmallMolecule_450bf58f9d2bd0fced349e71589e13a5--to--reactome_R-HSA-6814153_LEFT_TO_RIGHT-input"
style="stroke:black;stroke-width:1.000000;stroke-opacity:0" />


<path d="M427.000000 593.000000 C 429.000000 582.000000, 431.000000 568.000000,432.000000 559.000000" stroke="black"  fill="transparent"/>

<line
x1="431" y1="568" x2="432" y2="559"
id="0"
style="stroke:black;stroke-width:1.000000;stroke-opacity:0" />


<line
x1="429" y1="582" x2="427" y2="593"
id="reactome_R-HSA-6814153_LEFT_TO_RIGHT-output--to--SmallMolecule_4e0bc597462ce1954811dde3b1f66703"
style="stroke:black;stroke-width:1.000000;stroke-opacity:0" />


<polygon
points = "427,593 418.2,588.6 418.2,597.4"
id="line"
style="fill:black; stroke:#000000; stroke-width:1"
transform = "rotate(100.304846 427.000000 593.000000)"
/>


<path d="M254.000000 521.000000 C 260.000000 505.000000, 267.000000 481.000000,271.000000 468.000000" stroke="black"  fill="transparent"/>

<line
x1="267" y1="481" x2="271" y2="468"
id="0"
style="stroke:black;stroke-width:1.000000;stroke-opacity:0" />


<line
x1="260" y1="505" x2="254" y2="521"
id="reactome_R-HSA-1614614_LEFT_TO_RIGHT-output--to--SmallMolecule_4082be988ce36cbb9266fd438efe3e55"
style="stroke:black;stroke-width:1.000000;stroke-opacity:0" />


<polygon
points = "254,521 245.2,516.6 245.2,525.4"
id="line"
style="fill:black; stroke:#000000; stroke-width:1"
transform = "rotate(110.556045 254.000000 521.000000)"
/>


<path d="M432.000000 481.000000 C 446.000000 487.000000, 466.000000 495.000000,477.000000 499.000000" stroke="black"  fill="transparent"/>

<line
x1="466" y1="495" x2="477" y2="499"
id="0"
style="stroke:black;stroke-width:1.000000;stroke-opacity:0" />


<line
x1="446" y1="487" x2="432" y2="481"
id="reactome_R-HSA-1655453_LEFT_TO_RIGHT-output--to--SmallMolecule_a3b4266912ddda9b05f03c580fbf8690"
style="stroke:black;stroke-width:1.000000;stroke-opacity:0" />


<polygon
points = "432,481 423.2,476.6 423.2,485.4"
id="line"
style="fill:black; stroke:#000000; stroke-width:1"
transform = "rotate(203.198591 432.000000 481.000000)"
/>


<path d="M318.000000 384.000000 C 325.000000 364.000000, 335.000000 332.000000,340.000000 316.000000" stroke="black"  fill="transparent"/>

<line
x1="335" y1="332" x2="340" y2="316"
id="0"
style="stroke:black;stroke-width:1.000000;stroke-opacity:0" />


<line
x1="325" y1="364" x2="318" y2="384"
id="reactome_R-HSA-1614631_LEFT_TO_RIGHT-output--to--SmallMolecule_520386f28a48a9dfac6cfff7061587d0"
style="stroke:black;stroke-width:1.000000;stroke-opacity:0" />


<polygon
points = "318,384 309.2,379.6 309.2,388.4"
id="line"
style="fill:black; stroke:#000000; stroke-width:1"
transform = "rotate(109.290046 318.000000 384.000000)"
/>


<path d="M205.000000 500.000000 C 223.000000 489.000000, 251.000000 472.000000,265.000000 464.000000" stroke="black"  fill="transparent"/>

<line
x1="223" y1="489" x2="205" y2="500"
id="0"
style="stroke:black;stroke-width:1.000000;stroke-opacity:0" />


<line
x1="251" y1="472" x2="265" y2="464"
id="SmallMolecule_658999f3d6182b5f2654369ca4d67599--to--reactome_R-HSA-1614614_LEFT_TO_RIGHT-input"
style="stroke:black;stroke-width:1.000000;stroke-opacity:0" />


<path d="M211.000000 351.000000 C 232.000000 386.000000, 258.000000 432.000000,269.000000 450.000000" stroke="black"  fill="transparent"/>

<line
x1="232" y1="386" x2="211" y2="351"
id="0"
style="stroke:black;stroke-width:1.000000;stroke-opacity:0" />


<line
x1="258" y1="432" x2="269" y2="450"
id="Complex_e5c183288aa46c558d027d48cd2eda7d--to--reactome_R-HSA-1614614_LEFT_TO_RIGHT"
style="stroke:black;stroke-width:1.000000;stroke-opacity:0" />


<ellipse
rx="4.400000"
ry="4.400000"
cx="266.705620"
cy="446.245560"
id="Complex_e5c183288aa46c558d027d48cd2eda7d--to--reactome_R-HSA-1614614_LEFT_TO_RIGHT"
style="fill:white;fill-opacity:0.800000;stroke:black;stroke-width:1.000000;stroke-opacity:1.000000" />


<path d="M302.000000 418.000000 C 294.000000 428.000000, 285.000000 442.000000,280.000000 450.000000" stroke="black"  fill="transparent"/>

<line
x1="285" y1="442" x2="280" y2="450"
id="0"
style="stroke:black;stroke-width:1.000000;stroke-opacity:0" />


<line
x1="294" y1="428" x2="302" y2="418"
id="reactome_R-HSA-1614614_LEFT_TO_RIGHT-output--to--SmallMolecule_520386f28a48a9dfac6cfff7061587d0"
style="stroke:black;stroke-width:1.000000;stroke-opacity:0" />


<polygon
points = "302,418 293.2,413.6 293.2,422.4"
id="line"
style="fill:black; stroke:#000000; stroke-width:1"
transform = "rotate(-51.340192 302.000000 418.000000)"
/>


<path d="M326.000000 549.000000 C 310.000000 560.000000, 287.000000 577.000000,274.000000 586.000000" stroke="black"  fill="transparent"/>

<line
x1="310" y1="560" x2="326" y2="549"
id="0"
style="stroke:black;stroke-width:1.000000;stroke-opacity:0" />


<line
x1="287" y1="577" x2="274" y2="586"
id="SmallMolecule_6f5aca45478229c260a507647b0a7d2b--to--reactome_R-HSA-1614645_LEFT_TO_RIGHT-input"
style="stroke:black;stroke-width:1.000000;stroke-opacity:0" />


<path d="M522.000000 644.000000 C 494.000000 614.000000, 457.000000 576.000000,441.000000 559.000000" stroke="black"  fill="transparent"/>

<line
x1="494" y1="614" x2="522" y2="644"
id="0"
style="stroke:black;stroke-width:1.000000;stroke-opacity:0" />


<line
x1="457" y1="576" x2="441" y2="559"
id="Complex_8928df06cf5fb6667be01ffdcab1543e--to--reactome_R-HSA-6814153_LEFT_TO_RIGHT"
style="stroke:black;stroke-width:1.000000;stroke-opacity:0" />


<ellipse
rx="4.400000"
ry="4.400000"
cx="444.015605"
cy="562.204080"
id="Complex_8928df06cf5fb6667be01ffdcab1543e--to--reactome_R-HSA-6814153_LEFT_TO_RIGHT"
style="fill:white;fill-opacity:0.800000;stroke:black;stroke-width:1.000000;stroke-opacity:1.000000" />


<path d="M421.000000 626.000000 C 417.000000 646.000000, 410.000000 679.000000,407.000000 694.000000" stroke="black"  fill="transparent"/>

<line
x1="410" y1="679" x2="407" y2="694"
id="0"
style="stroke:black;stroke-width:1.000000;stroke-opacity:0" />


<line
x1="417" y1="646" x2="421" y2="626"
id="reactome_R-HSA-1655443_LEFT_TO_RIGHT-output--to--SmallMolecule_4e0bc597462ce1954811dde3b1f66703"
style="stroke:black;stroke-width:1.000000;stroke-opacity:0" />


<polygon
points = "421,626 412.2,621.6 412.2,630.4"
id="line"
style="fill:black; stroke:#000000; stroke-width:1"
transform = "rotate(-78.690068 421.000000 626.000000)"
/>


<path d="M439.000000 346.000000 C 420.000000 346.000000, 392.000000 345.000000,378.000000 345.000000" stroke="black"  fill="transparent"/>

<line
x1="392" y1="345" x2="378" y2="345"
id="0"
style="stroke:black;stroke-width:1.000000;stroke-opacity:0" />


<line
x1="420" y1="346" x2="439" y2="346"
id="reactome_R-HSA-1614567_LEFT_TO_RIGHT-output--to--SmallMolecule_bd64d362f4f6f8f5b2bded04b998d68a"
style="stroke:black;stroke-width:1.000000;stroke-opacity:0" />


<polygon
points = "439,346 430.2,341.6 430.2,350.4"
id="line"
style="fill:black; stroke:#000000; stroke-width:1"
transform = "rotate(-0.000000 439.000000 346.000000)"
/>


<path d="M199.000000 493.000000 C 206.000000 477.000000, 215.000000 453.000000,220.000000 441.000000" stroke="black"  fill="transparent"/>

<line
x1="206" y1="477" x2="199" y2="493"
id="0"
style="stroke:black;stroke-width:1.000000;stroke-opacity:0" />


<line
x1="215" y1="453" x2="220" y2="441"
id="SmallMolecule_658999f3d6182b5f2654369ca4d67599--to--reactome_R-HSA-1614591_LEFT_TO_RIGHT-input"
style="stroke:black;stroke-width:1.000000;stroke-opacity:0" />


<path d="M297.000000 406.000000 C 277.000000 413.000000, 243.000000 424.000000,228.000000 429.000000" stroke="black"  fill="transparent"/>

<line
x1="243" y1="424" x2="228" y2="429"
id="0"
style="stroke:black;stroke-width:1.000000;stroke-opacity:0" />


<line
x1="277" y1="413" x2="297" y2="406"
id="reactome_R-HSA-1614591_LEFT_TO_RIGHT-output--to--SmallMolecule_520386f28a48a9dfac6cfff7061587d0"
style="stroke:black;stroke-width:1.000000;stroke-opacity:0" />


<polygon
points = "297,406 288.2,401.6 288.2,410.4"
id="line"
style="fill:black; stroke:#000000; stroke-width:1"
transform = "rotate(-19.290046 297.000000 406.000000)"
/>


<path d="M434.000000 593.000000 C 447.000000 570.000000, 471.000000 529.000000,481.000000 511.000000" stroke="black"  fill="transparent"/>

<line
x1="447" y1="570" x2="434" y2="593"
id="0"
style="stroke:black;stroke-width:1.000000;stroke-opacity:0" />


<line
x1="471" y1="529" x2="481" y2="511"
id="SmallMolecule_4e0bc597462ce1954811dde3b1f66703--to--reactome_R-HSA-1655453_LEFT_TO_RIGHT-input"
style="stroke:black;stroke-width:1.000000;stroke-opacity:0" />


<path d="M414.000000 293.000000 C 402.000000 307.000000, 386.000000 325.000000,377.000000 336.000000" stroke="black"  fill="transparent"/>

<line
x1="402" y1="307" x2="414" y2="293"
id="0"
style="stroke:black;stroke-width:1.000000;stroke-opacity:0" />


<line
x1="386" y1="325" x2="377" y2="336"
id="SmallMolecule_40618cd032ccb09ade2b18da1b707cc7--to--reactome_R-HSA-1614567_LEFT_TO_RIGHT-input"
style="stroke:black;stroke-width:1.000000;stroke-opacity:0" />


<path d="M359.000000 539.000000 C 379.000000 542.000000, 410.000000 547.000000,425.000000 549.000000" stroke="black"  fill="transparent"/>

<line
x1="379" y1="542" x2="359" y2="539"
id="0"
style="stroke:black;stroke-width:1.000000;stroke-opacity:0" />


<line
x1="410" y1="547" x2="425" y2="549"
id="SmallMolecule_6f5aca45478229c260a507647b0a7d2b--to--reactome_R-HSA-6814153_LEFT_TO_RIGHT-input"
style="stroke:black;stroke-width:1.000000;stroke-opacity:0" />


<path d="M369.000000 233.000000 C 362.000000 253.000000, 351.000000 284.000000,346.000000 299.000000" stroke="black"  fill="transparent"/>

<line
x1="351" y1="284" x2="346" y2="299"
id="0"
style="stroke:black;stroke-width:1.000000;stroke-opacity:0" />


<line
x1="362" y1="253" x2="369" y2="233"
id="reactome_R-HSA-1614631_LEFT_TO_RIGHT-output--to--SmallMolecule_140759d4ee6122b931842ece83e8a69a"
style="stroke:black;stroke-width:1.000000;stroke-opacity:0" />


<polygon
points = "369,233 360.2,228.6 360.2,237.4"
id="line"
style="fill:black; stroke:#000000; stroke-width:1"
transform = "rotate(-70.709954 369.000000 233.000000)"
/>


<path d="M418.000000 293.000000 C 406.000000 307.000000, 390.000000 325.000000,378.016930 336.000000" stroke="black"  fill="transparent"/>

<line
x1="406" y1="307" x2="418" y2="293"
id="0"
style="stroke:black;stroke-width:1.000000;stroke-opacity:0" />


<line
x1="390" y1="325" x2="378.016930253845" y2="336"
id="SmallMolecule_40618cd032ccb09ade2b18da1b707cc7--to--reactome_R-HSA-1614567_LEFT_TO_RIGHT"
style="stroke:black;stroke-width:1.000000;stroke-opacity:0" />


<polygon
points = "378.016930253845,336 364.816930253845,331.6 364.816930253845,340.4"
id="line"
style="fill:white; stroke:#000000; stroke-width:1"
transform = "rotate(137.449257 378.016930 336.000000)"
/>


<path d="M542.000000 506.000000 C 527.000000 505.000000, 506.000000 504.000000,494.000000 503.000000" stroke="black"  fill="transparent"/>

<line
x1="527" y1="505" x2="542" y2="506"
id="0"
style="stroke:black;stroke-width:1.000000;stroke-opacity:0" />


<line
x1="506" y1="504" x2="494" y2="503"
id="SmallMolecule_914c01e7aea87f4ff5e1d825ed6f60c2--to--reactome_R-HSA-1655453_LEFT_TO_RIGHT-input"
style="stroke:black;stroke-width:1.000000;stroke-opacity:0" />


<path d="M571.000000 463.000000 C 545.000000 475.000000, 510.000000 491.000000,494.000000 499.000000" stroke="black"  fill="transparent"/>

<line
x1="545" y1="475" x2="571" y2="463"
id="0"
style="stroke:black;stroke-width:1.000000;stroke-opacity:0" />


<line
x1="510" y1="491" x2="494" y2="499"
id="PhysicalEntity_0fa25380732b13872cef64df94dc6c69--to--reactome_R-HSA-1655453_LEFT_TO_RIGHT"
style="stroke:black;stroke-width:1.000000;stroke-opacity:0" />


<ellipse
rx="4.400000"
ry="4.400000"
cx="497.935480"
cy="497.032260"
id="PhysicalEntity_0fa25380732b13872cef64df94dc6c69--to--reactome_R-HSA-1655453_LEFT_TO_RIGHT"
style="fill:white;fill-opacity:0.800000;stroke:black;stroke-width:1.000000;stroke-opacity:1.000000" />


<path d="M222.000000 305.000000 C 259.000000 306.000000, 314.000000 307.000000,334.000000 307.000000" stroke="black"  fill="transparent"/>

<line
x1="259" y1="306" x2="222" y2="305"
id="0"
style="stroke:black;stroke-width:1.000000;stroke-opacity:0" />


<line
x1="314" y1="307" x2="334" y2="307"
id="Complex_e5c183288aa46c558d027d48cd2eda7d--to--reactome_R-HSA-1614631_LEFT_TO_RIGHT"
style="stroke:black;stroke-width:1.000000;stroke-opacity:0" />


<ellipse
rx="4.400000"
ry="4.400000"
cx="329.600000"
cy="307.000000"
id="Complex_e5c183288aa46c558d027d48cd2eda7d--to--reactome_R-HSA-1614631_LEFT_TO_RIGHT"
style="fill:white;fill-opacity:0.800000;stroke:black;stroke-width:1.000000;stroke-opacity:1.000000" />


<path d="M343.000000 807.000000 C 364.000000 773.000000, 389.000000 730.000000,400.000000 711.000000" stroke="black"  fill="transparent"/>

<line
x1="364" y1="773" x2="343" y2="807"
id="0"
style="stroke:black;stroke-width:1.000000;stroke-opacity:0" />


<line
x1="389" y1="730" x2="400" y2="711"
id="Complex_d6d1ac30c714599c441be143b4d87a76--to--reactome_R-HSA-1655443_LEFT_TO_RIGHT"
style="stroke:black;stroke-width:1.000000;stroke-opacity:0" />


<ellipse
rx="4.400000"
ry="4.400000"
cx="397.795440"
cy="714.807876"
id="Complex_d6d1ac30c714599c441be143b4d87a76--to--reactome_R-HSA-1655443_LEFT_TO_RIGHT"
style="fill:white;fill-opacity:0.800000;stroke:black;stroke-width:1.000000;stroke-opacity:1.000000" />


<path d="M315.000000 227.000000 C 322.000000 248.000000, 334.000000 283.000000,340.000000 299.000000" stroke="black"  fill="transparent"/>

<line
x1="334" y1="283" x2="340" y2="299"
id="0"
style="stroke:black;stroke-width:1.000000;stroke-opacity:0" />


<line
x1="322" y1="248" x2="315" y2="227"
id="reactome_R-HSA-1614631_LEFT_TO_RIGHT-output--to--SmallMolecule_1ced3848a2a902870840337ecdb00d4c"
style="stroke:black;stroke-width:1.000000;stroke-opacity:0" />


<polygon
points = "315,227 306.2,222.6 306.2,231.4"
id="line"
style="fill:black; stroke:#000000; stroke-width:1"
transform = "rotate(251.565051 315.000000 227.000000)"
/>



<rect
width="20.000000"
height="20.000000"
rx="0.000000"
ry="0.000000"
x="208.500000"
y="450.500000"
id="NA"
style="fill:white;fill-opacity:0.600000;stroke:black;stroke-width:1.000000;stroke-opacity:1.000000" />


<text
x="218.500000"
y="462.500000"
id="NA"
style="font-size:6.000000px;text-anchor:middle;font-family:Arial,Helvetica;alignment-baseline:baseline;stroke.opacity:1;dominant-baseline:baseline"
fill="black"
>
2</text>


<rect
width="20.000000"
height="20.000000"
rx="0.000000"
ry="0.000000"
x="383.500000"
y="322.500000"
id="NA"
style="fill:white;fill-opacity:0.600000;stroke:black;stroke-width:1.000000;stroke-opacity:1.000000" />


<text
x="393.500000"
y="334.500000"
id="NA"
style="font-size:6.000000px;text-anchor:middle;font-family:Arial,Helvetica;alignment-baseline:baseline;stroke.opacity:1;dominant-baseline:baseline"
fill="black"
>
2</text>


</svg>
