<?xml version="1.0" encoding="UTF-8"?>
<svg width="1309.725281" height="1361.646121"
xmlns="http://www.w3.org/2000/svg" xmlns:svg="http://www.w3.org/2000/svg"
>
<metadata id="metadata7">image/svg+xml</metadata>

<rect
width="426.978468"
height="415.103539"
rx="11.000000"
ry="11.000000"
x="297.091400"
y="693.499869"
id="exocytic_vesicle"
style="fill:white;fill-opacity:0.900000;stroke:black;stroke-width:5.000000;stroke-opacity:1.000000" />


<text
x="510.580634"
y="685.499869"
id="exocytic_vesicle"
style="font-size:6.000000px;text-anchor:middle;font-family:Arial,Helvetica;alignment-baseline:baseline;stroke.opacity:1;dominant-baseline:baseline"
fill="black"
>
exocytic vesicle</text>


<rect
width="662.337356"
height="281.008997"
rx="11.000000"
ry="11.000000"
x="100.000000"
y="183.000000"
id="cytosol"
style="fill:white;fill-opacity:0.900000;stroke:black;stroke-width:5.000000;stroke-opacity:1.000000" />


<text
x="431.168678"
y="175.000000"
id="cytosol"
style="font-size:6.000000px;text-anchor:middle;font-family:Arial,Helvetica;alignment-baseline:baseline;stroke.opacity:1;dominant-baseline:baseline"
fill="black"
>
cytosol</text>


<rect
width="153.515679"
height="147.500954"
rx="11.000000"
ry="11.000000"
x="596.976445"
y="538.739856"
id="endoplasmic_reticulum"
style="fill:white;fill-opacity:0.900000;stroke:black;stroke-width:5.000000;stroke-opacity:1.000000" />


<text
x="673.734285"
y="530.739856"
id="endoplasmic_reticulum"
style="font-size:6.000000px;text-anchor:middle;font-family:Arial,Helvetica;alignment-baseline:baseline;stroke.opacity:1;dominant-baseline:baseline"
fill="black"
>
endoplasmic reticulum</text>


<rect
width="187.051277"
height="215.015801"
rx="11.000000"
ry="11.000000"
x="792.674004"
y="320.304981"
id="nucleus"
style="fill:white;fill-opacity:0.900000;stroke:black;stroke-width:5.000000;stroke-opacity:1.000000" />


<text
x="886.199642"
y="312.304981"
id="nucleus"
style="font-size:6.000000px;text-anchor:middle;font-family:Arial,Helvetica;alignment-baseline:baseline;stroke.opacity:1;dominant-baseline:baseline"
fill="black"
>
nucleus</text>



<path
d="M 633.320688975876 291.329316742569 633.320688975876 373.345983409235 638.820688975876 378.845983409235 745.837355642549 378.845983409235 751.337355642549 373.345983409235 751.337355642549 291.329316742569 745.837355642549 285.829316742569 638.820688975876 285.829316742569 Z"
id="Complex_8b7ca1069d5c2397f150357a6f55af61"
style="fill:white;fill-opacity:0.600000;stroke-width:1;stroke:black;stroke-opacity:1.000000"
transform = "rotate(0.000000 0.000000 0.000000)"
/>


<text
x="692.329022"
y="277.829317"
id="Complex_8b7ca1069d5c2397f150357a6f55af61"
style="font-size:6.000000px;text-anchor:middle;font-family:Arial,Helvetica;alignment-baseline:baseline;stroke.opacity:1;dominant-baseline:baseline"
fill="black"
>
Complex (GDP/G-Protein/ TRH Receptor)</text>


<path
d="M 400.743743936009 365.492330362045 400.743743936009 447.508997028711 406.243743936009 453.008997028711 471.177077269342 453.008997028711 476.677077269342 447.508997028711 476.677077269342 365.492330362045 471.177077269342 359.992330362045 406.243743936009 359.992330362045 Z"
id="Complex_a27da917177514ee18891aae6b790005"
style="fill:white;fill-opacity:0.600000;stroke-width:1;stroke:black;stroke-opacity:1.000000"
transform = "rotate(0.000000 0.000000 0.000000)"
/>


<text
x="438.710411"
y="351.992330"
id="Complex_a27da917177514ee18891aae6b790005"
style="font-size:6.000000px;text-anchor:middle;font-family:Arial,Helvetica;alignment-baseline:baseline;stroke.opacity:1;dominant-baseline:baseline"
fill="black"
>
Complex (GTP/G-Protein)</text>


<path
d="M 407.207568840674 208.989985447904 407.207568840674 291.006652114571 412.707568840674 296.506652114571 544.72423550734 296.506652114571 550.22423550734 291.006652114571 550.22423550734 208.989985447904 544.72423550734 203.489985447904 412.707568840674 203.489985447904 Z"
id="Complex_39d5215552e09bf5043ed3d30f378b3b"
style="fill:white;fill-opacity:0.600000;stroke-width:1;stroke:black;stroke-opacity:1.000000"
transform = "rotate(0.000000 0.000000 0.000000)"
/>


<text
x="478.715902"
y="195.489985"
id="Complex_39d5215552e09bf5043ed3d30f378b3b"
style="font-size:6.000000px;text-anchor:middle;font-family:Arial,Helvetica;alignment-baseline:baseline;stroke.opacity:1;dominant-baseline:baseline"
fill="black"
>
Complex (GDP/G-Protein/ TRH Receptor/CRF)</text>


<path
d="M 110.999999999999 205.5 110.999999999999 287.516666666667 116.499999999999 293.016666666667 181.433333333332 293.016666666667 186.933333333332 287.516666666667 186.933333333332 205.5 181.433333333332 200 116.499999999999 200 Z"
id="Complex_0f1c1414efb3eebb659346108f3aaf20"
style="fill:white;fill-opacity:0.600000;stroke-width:1;stroke:black;stroke-opacity:1.000000"
transform = "rotate(0.000000 0.000000 0.000000)"
/>


<text
x="148.966667"
y="192.000000"
id="Complex_0f1c1414efb3eebb659346108f3aaf20"
style="font-size:6.000000px;text-anchor:middle;font-family:Arial,Helvetica;alignment-baseline:baseline;stroke.opacity:1;dominant-baseline:baseline"
fill="black"
>
Complex (TRH Receptor/CRF)</text>


<path
d="M 396.848964847255 1004.65376123019 396.848964847255 1086.67042789686 402.348964847255 1092.17042789686 467.282298180588 1092.17042789686 472.782298180588 1086.67042789686 472.782298180588 1004.65376123019 467.282298180588 999.153761230187 402.348964847255 999.153761230187 Z"
id="Complex_4684051b73c758ff59ea274bc188d7f2"
style="fill:white;fill-opacity:0.600000;stroke-width:1;stroke:black;stroke-opacity:1.000000"
transform = "rotate(0.000000 0.000000 0.000000)"
/>


<text
x="434.815632"
y="991.153761"
id="Complex_4684051b73c758ff59ea274bc188d7f2"
style="font-size:6.000000px;text-anchor:middle;font-family:Arial,Helvetica;alignment-baseline:baseline;stroke.opacity:1;dominant-baseline:baseline"
fill="black"
>
Complex (Ca2+/SNARE COMPLEX)</text>




<ellipse
rx="29.166667"
ry="16.666667"
cx="435.735656"
cy="577.479416"
id="PhysicalEntity_e5958a411077f77519a1240025003ff4"
style="fill:white;fill-opacity:1.000000;stroke:black;stroke-width:1.000000;stroke-opacity:1.000000" />


<text
x="435.735656"
y="579.479416"
id="PhysicalEntity_e5958a411077f77519a1240025003ff4"
style="font-size:6.000000px;text-anchor:middle;font-family:Arial,Helvetica;alignment-baseline:baseline;stroke.opacity:1;dominant-baseline:baseline"
fill="black"
>
Stress</text>



<rect
width="58.333333"
height="33.333333"
rx="3.333333"
ry="3.333333"
x="700.309990"
y="1128.312788"
id="Protein_c1b39a2703920639af5a8e46c2506154"
style="fill:white;fill-opacity:1.000000;stroke:black;stroke-width:1.000000;stroke-opacity:1.000000" />


<text
x="729.476656"
y="1146.979454"
id="Protein_c1b39a2703920639af5a8e46c2506154"
style="font-size:6.000000px;text-anchor:middle;font-family:Arial,Helvetica;alignment-baseline:baseline;stroke.opacity:1;dominant-baseline:baseline"
fill="black"
>
POMC</text>



<rect
width="58.333333"
height="33.333333"
rx="3.333333"
ry="3.333333"
x="235.338928"
y="491.505088"
id="Protein_2d5019f2892d8160c1f67ff532ff3118"
style="fill:white;fill-opacity:1.000000;stroke:black;stroke-width:1.000000;stroke-opacity:1.000000" />


<text
x="264.505594"
y="510.171755"
id="Protein_2d5019f2892d8160c1f67ff532ff3118"
style="font-size:6.000000px;text-anchor:middle;font-family:Arial,Helvetica;alignment-baseline:baseline;stroke.opacity:1;dominant-baseline:baseline"
fill="black"
>
CRF</text>


<rect
width="16.666667"
height="16.666667"
rx="0.000000"
ry="0.000000"
x="333.918357"
y="593.069702"
id="TransportWithBiochemicalReaction_5a40700231e59b9001b6d75f62e39bce_LEFT_TO_RIGHT"
style="fill:white;fill-opacity:0.600000;stroke:black;stroke-width:1.000000;stroke-opacity:1.000000" />




<rect
width="58.333333"
height="33.333333"
rx="3.333333"
ry="3.333333"
x="681.158791"
y="589.970028"
id="Protein_d5fda1d2fcd7d781d6c539a3c157a61a"
style="fill:white;fill-opacity:1.000000;stroke:black;stroke-width:1.000000;stroke-opacity:1.000000" />



<text
x="710.325457"
y="602.636694"
id="Protein_d5fda1d2fcd7d781d6c539a3c157a61a"
style="font-size:6.000000px;text-anchor:middle;font-family:Arial,Helvetica;alignment-baseline:baseline;stroke.opacity:1;dominant-baseline:baseline"
fill="black"
>
ProCRF (Pro Cortico-</text>


<text
x="710.325457"
y="608.636694"
id="Protein_d5fda1d2fcd7d781d6c539a3c157a61a"
style="font-size:6.000000px;text-anchor:middle;font-family:Arial,Helvetica;alignment-baseline:baseline;stroke.opacity:1;dominant-baseline:baseline"
fill="black"
>
tropin-Releasing Fa-</text>


<text
x="710.325457"
y="614.636694"
id="Protein_d5fda1d2fcd7d781d6c539a3c157a61a"
style="font-size:6.000000px;text-anchor:middle;font-family:Arial,Helvetica;alignment-baseline:baseline;stroke.opacity:1;dominant-baseline:baseline"
fill="black"
>
ctor)</text>



<rect
width="58.333333"
height="33.333333"
rx="3.333333"
ry="3.333333"
x="607.976445"
y="641.907477"
id="Protein_d404be92b86f238816a4a8d01574f8be"
style="fill:white;fill-opacity:1.000000;stroke:black;stroke-width:1.000000;stroke-opacity:1.000000" />


<text
x="637.143112"
y="660.574143"
id="Protein_d404be92b86f238816a4a8d01574f8be"
style="font-size:6.000000px;text-anchor:middle;font-family:Arial,Helvetica;alignment-baseline:baseline;stroke.opacity:1;dominant-baseline:baseline"
fill="black"
>
POMC</text>


<rect
width="16.666667"
height="16.666667"
rx="0.000000"
ry="0.000000"
x="698.861871"
y="652.665162"
id="Conversion_cf9aedd6970e0cac7435f2341687df5e_LEFT_TO_RIGHT"
style="fill:white;fill-opacity:0.600000;stroke:black;stroke-width:1.000000;stroke-opacity:1.000000" />



<rect
width="16.666667"
height="16.666667"
rx="0.000000"
ry="0.000000"
x="610.076937"
y="549.739856"
id="TemplateReaction_4bcb07ed418d78e1baea5ad497c6267d"
style="fill:white;fill-opacity:0.600000;stroke:black;stroke-width:1.000000;stroke-opacity:1.000000" />




<ellipse
rx="16.666667"
ry="16.666667"
cx="725.870689"
cy="311.295983"
id="SmallMolecule_ef3fa4114c9326a5ce9cd04f7fd7072b_Complex_8b7ca1069d5c2397f150357a6f55af61"
style="fill:white;fill-opacity:0.000000;stroke:black;stroke-width:1.000000;stroke-opacity:1.000000" />


<text
x="725.870689"
y="313.295983"
id="SmallMolecule_ef3fa4114c9326a5ce9cd04f7fd7072b_Complex_8b7ca1069d5c2397f150357a6f55af61"
style="font-size:6.000000px;text-anchor:middle;font-family:Arial,Helvetica;alignment-baseline:baseline;stroke.opacity:1;dominant-baseline:baseline"
fill="black"
>
GDP</text>



<rect
width="58.333333"
height="33.333333"
rx="3.333333"
ry="3.333333"
x="642.120689"
y="294.629317"
id="Protein_f4251a7727e58e6700b3c01175a10672_Complex_8b7ca1069d5c2397f150357a6f55af61"
style="fill:white;fill-opacity:1.000000;stroke:black;stroke-width:1.000000;stroke-opacity:1.000000" />


<text
x="671.287356"
y="313.295983"
id="Protein_f4251a7727e58e6700b3c01175a10672_Complex_8b7ca1069d5c2397f150357a6f55af61"
style="font-size:6.000000px;text-anchor:middle;font-family:Arial,Helvetica;alignment-baseline:baseline;stroke.opacity:1;dominant-baseline:baseline"
fill="black"
>
G-Protein</text>



<rect
width="58.333333"
height="33.333333"
rx="3.333333"
ry="3.333333"
x="642.120689"
y="336.712650"
id="Protein_044f6a15b4e863345f24d211070d2dc9_Complex_8b7ca1069d5c2397f150357a6f55af61"
style="fill:white;fill-opacity:1.000000;stroke:black;stroke-width:1.000000;stroke-opacity:1.000000" />


<text
x="671.287356"
y="355.379317"
id="Protein_044f6a15b4e863345f24d211070d2dc9_Complex_8b7ca1069d5c2397f150357a6f55af61"
style="font-size:6.000000px;text-anchor:middle;font-family:Arial,Helvetica;alignment-baseline:baseline;stroke.opacity:1;dominant-baseline:baseline"
fill="black"
>
CRHR1</text>



<ellipse
rx="16.666667"
ry="16.666667"
cx="246.727273"
cy="367.819701"
id="SmallMolecule_05dd27f2d571168db368a05c231eb97d"
style="fill:white;fill-opacity:0.000000;stroke:black;stroke-width:1.000000;stroke-opacity:1.000000" />


<text
x="246.727273"
y="369.819701"
id="SmallMolecule_05dd27f2d571168db368a05c231eb97d"
style="font-size:6.000000px;text-anchor:middle;font-family:Arial,Helvetica;alignment-baseline:baseline;stroke.opacity:1;dominant-baseline:baseline"
fill="black"
>
GTP</text>



<rect
width="58.333333"
height="33.333333"
rx="3.333333"
ry="3.333333"
x="409.543744"
y="368.792330"
id="Protein_e6c270b9a8c64664358b75086fd5695a_Complex_a27da917177514ee18891aae6b790005"
style="fill:white;fill-opacity:1.000000;stroke:black;stroke-width:1.000000;stroke-opacity:1.000000" />


<text
x="438.710411"
y="387.458997"
id="Protein_e6c270b9a8c64664358b75086fd5695a_Complex_a27da917177514ee18891aae6b790005"
style="font-size:6.000000px;text-anchor:middle;font-family:Arial,Helvetica;alignment-baseline:baseline;stroke.opacity:1;dominant-baseline:baseline"
fill="black"
>
G-Protein</text>



<ellipse
rx="16.666667"
ry="16.666667"
cx="426.210411"
cy="427.542330"
id="SmallMolecule_a1bb21afc15c74b32f92f38309923666_Complex_a27da917177514ee18891aae6b790005"
style="fill:white;fill-opacity:0.000000;stroke:black;stroke-width:1.000000;stroke-opacity:1.000000" />


<text
x="426.210411"
y="429.542330"
id="SmallMolecule_a1bb21afc15c74b32f92f38309923666_Complex_a27da917177514ee18891aae6b790005"
style="font-size:6.000000px;text-anchor:middle;font-family:Arial,Helvetica;alignment-baseline:baseline;stroke.opacity:1;dominant-baseline:baseline"
fill="black"
>
GTP</text>



<rect
width="58.333333"
height="33.333333"
rx="3.333333"
ry="3.333333"
x="416.007569"
y="212.289985"
id="Protein_e1e46ffa78e6575dc020fb77e7077524_Complex_39d5215552e09bf5043ed3d30f378b3b"
style="fill:white;fill-opacity:1.000000;stroke:black;stroke-width:1.000000;stroke-opacity:1.000000" />


<text
x="445.174236"
y="230.956652"
id="Protein_e1e46ffa78e6575dc020fb77e7077524_Complex_39d5215552e09bf5043ed3d30f378b3b"
style="font-size:6.000000px;text-anchor:middle;font-family:Arial,Helvetica;alignment-baseline:baseline;stroke.opacity:1;dominant-baseline:baseline"
fill="black"
>
CRHR1</text>



<ellipse
rx="16.666667"
ry="16.666667"
cx="499.757569"
cy="271.039985"
id="SmallMolecule_912ba46ad1183a429da6a6ac3b78d0a4_Complex_39d5215552e09bf5043ed3d30f378b3b"
style="fill:white;fill-opacity:0.000000;stroke:black;stroke-width:1.000000;stroke-opacity:1.000000" />


<text
x="499.757569"
y="273.039985"
id="SmallMolecule_912ba46ad1183a429da6a6ac3b78d0a4_Complex_39d5215552e09bf5043ed3d30f378b3b"
style="font-size:6.000000px;text-anchor:middle;font-family:Arial,Helvetica;alignment-baseline:baseline;stroke.opacity:1;dominant-baseline:baseline"
fill="black"
>
GDP</text>



<rect
width="58.333333"
height="33.333333"
rx="3.333333"
ry="3.333333"
x="416.007569"
y="254.373319"
id="Protein_ae6e8b6eeb6e429cd7ec45578243a7ef_Complex_39d5215552e09bf5043ed3d30f378b3b"
style="fill:white;fill-opacity:1.000000;stroke:black;stroke-width:1.000000;stroke-opacity:1.000000" />


<text
x="445.174236"
y="273.039985"
id="Protein_ae6e8b6eeb6e429cd7ec45578243a7ef_Complex_39d5215552e09bf5043ed3d30f378b3b"
style="font-size:6.000000px;text-anchor:middle;font-family:Arial,Helvetica;alignment-baseline:baseline;stroke.opacity:1;dominant-baseline:baseline"
fill="black"
>
CRH</text>



<rect
width="58.333333"
height="33.333333"
rx="3.333333"
ry="3.333333"
x="483.090902"
y="212.289985"
id="Protein_79847babc0e550b3b5b7fa8ccc19aca2_Complex_39d5215552e09bf5043ed3d30f378b3b"
style="fill:white;fill-opacity:1.000000;stroke:black;stroke-width:1.000000;stroke-opacity:1.000000" />


<text
x="512.257569"
y="230.956652"
id="Protein_79847babc0e550b3b5b7fa8ccc19aca2_Complex_39d5215552e09bf5043ed3d30f378b3b"
style="font-size:6.000000px;text-anchor:middle;font-family:Arial,Helvetica;alignment-baseline:baseline;stroke.opacity:1;dominant-baseline:baseline"
fill="black"
>
G-Protein</text>



<ellipse
rx="16.666667"
ry="16.666667"
cx="294.183511"
cy="240.141373"
id="SmallMolecule_9e2d5bdf4c0dfd904913845d378a6ed3"
style="fill:white;fill-opacity:0.000000;stroke:black;stroke-width:1.000000;stroke-opacity:1.000000" />


<text
x="294.183511"
y="242.141373"
id="SmallMolecule_9e2d5bdf4c0dfd904913845d378a6ed3"
style="font-size:6.000000px;text-anchor:middle;font-family:Arial,Helvetica;alignment-baseline:baseline;stroke.opacity:1;dominant-baseline:baseline"
fill="black"
>
GDP</text>



<rect
width="58.333333"
height="33.333333"
rx="3.333333"
ry="3.333333"
x="119.800000"
y="208.800000"
id="Protein_774e814c409400c6fa3f8c9e8cb71039_Complex_0f1c1414efb3eebb659346108f3aaf20"
style="fill:white;fill-opacity:1.000000;stroke:black;stroke-width:1.000000;stroke-opacity:1.000000" />


<text
x="148.966667"
y="227.466667"
id="Protein_774e814c409400c6fa3f8c9e8cb71039_Complex_0f1c1414efb3eebb659346108f3aaf20"
style="font-size:6.000000px;text-anchor:middle;font-family:Arial,Helvetica;alignment-baseline:baseline;stroke.opacity:1;dominant-baseline:baseline"
fill="black"
>
CRH</text>



<rect
width="58.333333"
height="33.333333"
rx="3.333333"
ry="3.333333"
x="119.800000"
y="250.883333"
id="Protein_45adabbc25b1c10a1ddc2451ec99dd0f_Complex_0f1c1414efb3eebb659346108f3aaf20"
style="fill:white;fill-opacity:1.000000;stroke:black;stroke-width:1.000000;stroke-opacity:1.000000" />


<text
x="148.966667"
y="269.550000"
id="Protein_45adabbc25b1c10a1ddc2451ec99dd0f_Complex_0f1c1414efb3eebb659346108f3aaf20"
style="font-size:6.000000px;text-anchor:middle;font-family:Arial,Helvetica;alignment-baseline:baseline;stroke.opacity:1;dominant-baseline:baseline"
fill="black"
>
CRHR1</text>


<rect
width="16.666667"
height="16.666667"
rx="0.000000"
ry="0.000000"
x="568.174142"
y="388.904953"
id="ComplexAssembly_8821df2de4028dfdbb21734becbbae7c_LEFT_TO_RIGHT"
style="fill:white;fill-opacity:0.600000;stroke:black;stroke-width:1.000000;stroke-opacity:1.000000" />



<rect
width="16.666667"
height="16.666667"
rx="0.000000"
ry="0.000000"
x="322.751373"
y="319.012301"
id="ComplexAssembly_8a286dc55c2933dba08374b21c27d1c9_LEFT_TO_RIGHT"
style="fill:white;fill-opacity:0.600000;stroke:black;stroke-width:1.000000;stroke-opacity:1.000000" />




<ellipse
rx="29.166667"
ry="16.666667"
cx="855.323388"
cy="347.971648"
id="PhysicalEntity_c9177cb147a2d61c7c2e8296cf071491"
style="fill:white;fill-opacity:1.000000;stroke:black;stroke-width:1.000000;stroke-opacity:1.000000" />


<text
x="855.323388"
y="349.971648"
id="PhysicalEntity_c9177cb147a2d61c7c2e8296cf071491"
style="font-size:6.000000px;text-anchor:middle;font-family:Arial,Helvetica;alignment-baseline:baseline;stroke.opacity:1;dominant-baseline:baseline"
fill="black"
>
s66</text>



<path
d="M 910.391947325216 490.987448924342 Q 910.391947325216 490.987448924342 910.391947325216 490.987448924342 L 968.725280658549 490.987448924342 Q 968.725280658549 490.987448924342 968.725280658549 490.987448924342 L 968.725280658549 518.487448924342 Q 968.725280658549 524.320782257675 962.891947325216 524.320782257675 L 916.225280658549 524.320782257675 Q 910.391947325216 524.320782257675 910.391947325216 518.487448924342 Z"
id="RnaRegion_816687bfcb8b4c662132d2529a2e4c26"
style="fill:white;fill-opacity:1.000000;stroke-width:1;stroke:black;stroke-opacity:1.000000"
transform = "rotate(0.000000 0.000000 0.000000)"
/>


<text
x="939.558614"
y="509.654116"
id="RnaRegion_816687bfcb8b4c662132d2529a2e4c26"
style="font-size:6.000000px;text-anchor:middle;font-family:Arial,Helvetica;alignment-baseline:baseline;stroke.opacity:1;dominant-baseline:baseline"
fill="black"
>
proopiomelanocortin</text>


<rect
width="29.166667"
height="14.583333"
rx="0.000000"
ry="0.000000"
x="910.391947"
y="483.695782"
id="RnaRegion_816687bfcb8b4c662132d2529a2e4c26.info.1"
style="fill:white;fill-opacity:1.000000;stroke:black;stroke-width:1.000000;stroke-opacity:1.000000" />


<text
x="924.975281"
y="492.987449"
id="RnaRegion_816687bfcb8b4c662132d2529a2e4c26.info.1"
style="font-size:6.000000px;text-anchor:middle;font-family:Arial,Helvetica;alignment-baseline:baseline;stroke.opacity:1;dominant-baseline:baseline"
fill="black"
>
ct:RNA</text>


<rect
width="16.666667"
height="16.666667"
rx="0.000000"
ry="0.000000"
x="803.674004"
y="424.825444"
id="TemplateReaction_8f69e2118ae637051a5a7f6d82e6fe45"
style="fill:white;fill-opacity:0.600000;stroke:black;stroke-width:1.000000;stroke-opacity:1.000000" />




<rect
width="58.333333"
height="33.333333"
rx="3.333333"
ry="3.333333"
x="564.547710"
y="704.499869"
id="Protein_f4ca9dff1f2a0e9133616b6070076f84"
style="fill:white;fill-opacity:1.000000;stroke:black;stroke-width:1.000000;stroke-opacity:1.000000" />


<text
x="593.714377"
y="723.166536"
id="Protein_f4ca9dff1f2a0e9133616b6070076f84"
style="font-size:6.000000px;text-anchor:middle;font-family:Arial,Helvetica;alignment-baseline:baseline;stroke.opacity:1;dominant-baseline:baseline"
fill="black"
>
CRF</text>



<rect
width="58.333333"
height="33.333333"
rx="3.333333"
ry="3.333333"
x="405.648965"
y="1007.953761"
id="Protein_b9c5949de65d1cd977d60a4a8f99442f_Complex_4684051b73c758ff59ea274bc188d7f2"
style="fill:white;fill-opacity:1.000000;stroke:black;stroke-width:1.000000;stroke-opacity:1.000000" />


<text
x="434.815632"
y="1026.620428"
id="Protein_b9c5949de65d1cd977d60a4a8f99442f_Complex_4684051b73c758ff59ea274bc188d7f2"
style="font-size:6.000000px;text-anchor:middle;font-family:Arial,Helvetica;alignment-baseline:baseline;stroke.opacity:1;dominant-baseline:baseline"
fill="black"
>
SNARE COMPLEX</text>



<ellipse
rx="16.666667"
ry="16.666667"
cx="422.315632"
cy="1066.703761"
id="SmallMolecule_8b6549eaf61de1244290a080ae1c0cd6_Complex_4684051b73c758ff59ea274bc188d7f2"
style="fill:white;fill-opacity:0.000000;stroke:black;stroke-width:1.000000;stroke-opacity:1.000000" />


<text
x="422.315632"
y="1068.703761"
id="SmallMolecule_8b6549eaf61de1244290a080ae1c0cd6_Complex_4684051b73c758ff59ea274bc188d7f2"
style="font-size:6.000000px;text-anchor:middle;font-family:Arial,Helvetica;alignment-baseline:baseline;stroke.opacity:1;dominant-baseline:baseline"
fill="black"
>
Ca2+</text>



<rect
width="58.333333"
height="33.333333"
rx="3.333333"
ry="3.333333"
x="654.736535"
y="960.682153"
id="Protein_cd455d4449b6d4406c05e16bfca9d40f"
style="fill:white;fill-opacity:1.000000;stroke:black;stroke-width:1.000000;stroke-opacity:1.000000" />


<text
x="683.903201"
y="979.348819"
id="Protein_cd455d4449b6d4406c05e16bfca9d40f"
style="font-size:6.000000px;text-anchor:middle;font-family:Arial,Helvetica;alignment-baseline:baseline;stroke.opacity:1;dominant-baseline:baseline"
fill="black"
>
ACTH</text>



<rect
width="58.333333"
height="33.333333"
rx="3.333333"
ry="3.333333"
x="308.091400"
y="745.540627"
id="Protein_55dfe059460477f21e9043b77bc3dc37"
style="fill:white;fill-opacity:1.000000;stroke:black;stroke-width:1.000000;stroke-opacity:1.000000" />


<text
x="337.258066"
y="764.207294"
id="Protein_55dfe059460477f21e9043b77bc3dc37"
style="font-size:6.000000px;text-anchor:middle;font-family:Arial,Helvetica;alignment-baseline:baseline;stroke.opacity:1;dominant-baseline:baseline"
fill="black"
>
SNARE COMPLEX</text>



<rect
width="58.333333"
height="33.333333"
rx="3.333333"
ry="3.333333"
x="558.122095"
y="964.948276"
id="Protein_28988231ee3f4dd422aa2c58061bf898"
style="fill:white;fill-opacity:1.000000;stroke:black;stroke-width:1.000000;stroke-opacity:1.000000" />


<text
x="587.288761"
y="983.614942"
id="Protein_28988231ee3f4dd422aa2c58061bf898"
style="font-size:6.000000px;text-anchor:middle;font-family:Arial,Helvetica;alignment-baseline:baseline;stroke.opacity:1;dominant-baseline:baseline"
fill="black"
>
POMC</text>


<rect
width="16.666667"
height="16.666667"
rx="0.000000"
ry="0.000000"
x="601.017790"
y="1037.169924"
id="TransportWithBiochemicalReaction_0afc71496a93a84bc13be8e8bad795b2_LEFT_TO_RIGHT"
style="fill:white;fill-opacity:0.600000;stroke:black;stroke-width:1.000000;stroke-opacity:1.000000" />



<rect
width="16.666667"
height="16.666667"
rx="0.000000"
ry="0.000000"
x="585.292729"
y="1080.936741"
id="TransportWithBiochemicalReaction_eca8d23e37438232890911fb27d095ac_LEFT_TO_RIGHT"
style="fill:white;fill-opacity:0.600000;stroke:black;stroke-width:1.000000;stroke-opacity:1.000000" />



<rect
width="16.666667"
height="16.666667"
rx="0.000000"
ry="0.000000"
x="648.264728"
y="884.514190"
id="BiochemicalReaction_7dc6d50100b886d75096d2253dd7ccf8_LEFT_TO_RIGHT"
style="fill:white;fill-opacity:0.600000;stroke:black;stroke-width:1.000000;stroke-opacity:1.000000" />





<path d="M633.000000 365.000000 C 614.000000 376.000000, 595.000000 386.000000,584.000000 392.000000" stroke="black"  fill="transparent"/>

<line
x1="614" y1="376" x2="633" y2="365"
id="0"
style="stroke:black;stroke-width:1.000000;stroke-opacity:0" />


<line
x1="595" y1="386" x2="584" y2="392"
id="Complex_8b7ca1069d5c2397f150357a6f55af61--to--ComplexAssembly_8821df2de4028dfdbb21734becbbae7c_LEFT_TO_RIGHT-input"
style="stroke:black;stroke-width:1.000000;stroke-opacity:0" />


<path d="M341.000000 610.000000 C 341.000000 635.000000, 338.000000 711.000000,337.000000 745.000000" stroke="black"  fill="transparent"/>

<line
x1="338" y1="711" x2="337" y2="745"
id="0"
style="stroke:black;stroke-width:1.000000;stroke-opacity:0" />


<line
x1="341" y1="635" x2="341" y2="610"
id="Protein_55dfe059460477f21e9043b77bc3dc37--to--TransportWithBiochemicalReaction_5a40700231e59b9001b6d75f62e39bce_LEFT_TO_RIGHT"
style="stroke:black;stroke-width:1.000000;stroke-opacity:0" />


<polygon
points = "341,610 327.8,605.6 327.8,614.4"
id="line"
style="fill:white; stroke:#000000; stroke-width:1"
transform = "rotate(270.000000 341.000000 610.000000)"
/>


<path d="M698.000000 665.000000 C 682.000000 673.000000, 647.000000 692.000000,622.000000 705.000000" stroke="black"  fill="transparent"/>

<line
x1="682" y1="673" x2="698" y2="665"
id="0"
style="stroke:black;stroke-width:1.000000;stroke-opacity:0" />


<line
x1="647" y1="692" x2="622" y2="705"
id="Conversion_cf9aedd6970e0cac7435f2341687df5e_LEFT_TO_RIGHT-output--to--Protein_f4ca9dff1f2a0e9133616b6070076f84"
style="stroke:black;stroke-width:1.000000;stroke-opacity:0" />


<polygon
points = "622,705 613.2,700.6 613.2,709.4"
id="line"
style="fill:black; stroke:#000000; stroke-width:1"
transform = "rotate(152.525568 622.000000 705.000000)"
/>


<path d="M911.000000 491.000000 C 882.000000 474.000000, 838.000000 448.000000,820.000000 438.000000" stroke="black"  fill="transparent"/>

<line
x1="838" y1="448" x2="820" y2="438"
id="0"
style="stroke:black;stroke-width:1.000000;stroke-opacity:0" />


<line
x1="882" y1="474" x2="911" y2="491"
id="TemplateReaction_8f69e2118ae637051a5a7f6d82e6fe45-output--to--RnaRegion_816687bfcb8b4c662132d2529a2e4c26"
style="stroke:black;stroke-width:1.000000;stroke-opacity:0" />


<polygon
points = "911,491 902.2,486.6 902.2,495.4"
id="line"
style="fill:black; stroke:#000000; stroke-width:1"
transform = "rotate(30.379126 911.000000 491.000000)"
/>


<path d="M406.000000 584.000000 C 387.000000 589.000000, 363.000000 595.000000,350.000000 599.000000" stroke="black"  fill="transparent"/>

<line
x1="387" y1="589" x2="406" y2="584"
id="0"
style="stroke:black;stroke-width:1.000000;stroke-opacity:0" />


<line
x1="363" y1="595" x2="350" y2="599"
id="PhysicalEntity_e5958a411077f77519a1240025003ff4--to--TransportWithBiochemicalReaction_5a40700231e59b9001b6d75f62e39bce_LEFT_TO_RIGHT"
style="stroke:black;stroke-width:1.000000;stroke-opacity:0" />


<ellipse
rx="4.400000"
ry="4.400000"
cx="354.205428"
cy="597.706022"
id="PhysicalEntity_e5958a411077f77519a1240025003ff4--to--TransportWithBiochemicalReaction_5a40700231e59b9001b6d75f62e39bce_LEFT_TO_RIGHT"
style="fill:white;fill-opacity:0.800000;stroke:black;stroke-width:1.000000;stroke-opacity:1.000000" />


<path d="M709.000000 1128.000000 C 682.000000 1106.000000, 637.000000 1068.000000,618.000000 1052.000000" stroke="black"  fill="transparent"/>

<line
x1="637" y1="1068" x2="618" y2="1052"
id="0"
style="stroke:black;stroke-width:1.000000;stroke-opacity:0" />


<line
x1="682" y1="1106" x2="709" y2="1128"
id="TransportWithBiochemicalReaction_0afc71496a93a84bc13be8e8bad795b2_LEFT_TO_RIGHT-output--to--Protein_c1b39a2703920639af5a8e46c2506154"
style="stroke:black;stroke-width:1.000000;stroke-opacity:0" />


<polygon
points = "709,1128 700.2,1123.6 700.2,1132.4"
id="line"
style="fill:black; stroke:#000000; stroke-width:1"
transform = "rotate(39.173658 709.000000 1128.000000)"
/>


<path d="M638.000000 675.000000 C 642.000000 721.000000, 652.000000 848.000000,655.000000 883.000000" stroke="black"  fill="transparent"/>

<line
x1="642" y1="721" x2="638" y2="675"
id="0"
style="stroke:black;stroke-width:1.000000;stroke-opacity:0" />


<line
x1="652" y1="848" x2="655" y2="883"
id="Protein_d404be92b86f238816a4a8d01574f8be--to--BiochemicalReaction_7dc6d50100b886d75096d2253dd7ccf8_LEFT_TO_RIGHT-input"
style="stroke:black;stroke-width:1.000000;stroke-opacity:0" />


<path d="M626.000000 556.000000 C 666.000000 550.000000, 840.000000 523.000000,910.000000 512.000000" stroke="black"  fill="transparent"/>

<line
x1="840" y1="523" x2="910" y2="512"
id="0"
style="stroke:black;stroke-width:1.000000;stroke-opacity:0" />


<line
x1="666" y1="550" x2="626" y2="556"
id="RnaRegion_816687bfcb8b4c662132d2529a2e4c26--to--TemplateReaction_4bcb07ed418d78e1baea5ad497c6267d-input"
style="stroke:black;stroke-width:1.000000;stroke-opacity:0" />


<polygon
points = "626,556 612.8,551.6 617.2,556 612.8,560.4"
id="line"
style="fill:black; stroke:#000000; stroke-width:1"
transform = "rotate(171.469234 626.000000 556.000000)"
/>


<path d="M263.000000 359.000000 C 281.000000 351.000000, 308.000000 338.000000,322.000000 331.000000" stroke="black"  fill="transparent"/>

<line
x1="281" y1="351" x2="263" y2="359"
id="0"
style="stroke:black;stroke-width:1.000000;stroke-opacity:0" />


<line
x1="308" y1="338" x2="322" y2="331"
id="SmallMolecule_05dd27f2d571168db368a05c231eb97d--to--ComplexAssembly_8a286dc55c2933dba08374b21c27d1c9_LEFT_TO_RIGHT-input"
style="stroke:black;stroke-width:1.000000;stroke-opacity:0" />


<path d="M476.000000 409.000000 C 561.000000 415.000000, 759.000000 429.000000,803.000000 432.000000" stroke="black"  fill="transparent"/>

<line
x1="561" y1="415" x2="476" y2="409"
id="0"
style="stroke:black;stroke-width:1.000000;stroke-opacity:0" />


<line
x1="759" y1="429" x2="803" y2="432"
id="Complex_a27da917177514ee18891aae6b790005--to--TemplateReaction_8f69e2118ae637051a5a7f6d82e6fe45"
style="stroke:black;stroke-width:1.000000;stroke-opacity:0" />


<polygon
points = "803,432 789.8,427.6 789.8,436.4"
id="line"
style="fill:white; stroke:#000000; stroke-width:1"
transform = "rotate(3.900494 803.000000 432.000000)"
/>


<path d="M700.000000 1133.000000 C 669.000000 1120.000000, 621.000000 1100.000000,602.000000 1092.000000" stroke="black"  fill="transparent"/>

<line
x1="621" y1="1100" x2="602" y2="1092"
id="0"
style="stroke:black;stroke-width:1.000000;stroke-opacity:0" />


<line
x1="669" y1="1120" x2="700" y2="1133"
id="TransportWithBiochemicalReaction_eca8d23e37438232890911fb27d095ac_LEFT_TO_RIGHT-output--to--Protein_c1b39a2703920639af5a8e46c2506154"
style="stroke:black;stroke-width:1.000000;stroke-opacity:0" />


<polygon
points = "700,1133 691.2,1128.6 691.2,1137.4"
id="line"
style="fill:black; stroke:#000000; stroke-width:1"
transform = "rotate(22.750976 700.000000 1133.000000)"
/>


<path d="M846.000000 364.000000 C 837.000000 382.000000, 823.000000 410.000000,816.000000 424.000000" stroke="black"  fill="transparent"/>

<line
x1="837" y1="382" x2="846" y2="364"
id="0"
style="stroke:black;stroke-width:1.000000;stroke-opacity:0" />


<line
x1="823" y1="410" x2="816" y2="424"
id="PhysicalEntity_c9177cb147a2d61c7c2e8296cf071491--to--TemplateReaction_8f69e2118ae637051a5a7f6d82e6fe45-input"
style="stroke:black;stroke-width:1.000000;stroke-opacity:0" />


<polygon
points = "816,424 802.8,419.6 807.2,424 802.8,428.4"
id="line"
style="fill:black; stroke:#000000; stroke-width:1"
transform = "rotate(116.565051 816.000000 424.000000)"
/>


<path d="M187.000000 263.000000 C 230.000000 282.000000, 299.000000 313.000000,322.000000 323.000000" stroke="black"  fill="transparent"/>

<line
x1="299" y1="313" x2="322" y2="323"
id="0"
style="stroke:black;stroke-width:1.000000;stroke-opacity:0" />


<line
x1="230" y1="282" x2="187" y2="263"
id="ComplexAssembly_8a286dc55c2933dba08374b21c27d1c9_LEFT_TO_RIGHT-output--to--Complex_0f1c1414efb3eebb659346108f3aaf20"
style="stroke:black;stroke-width:1.000000;stroke-opacity:0" />


<polygon
points = "187,263 178.2,258.6 178.2,267.4"
id="line"
style="fill:black; stroke:#000000; stroke-width:1"
transform = "rotate(203.838740 187.000000 263.000000)"
/>


<path d="M278.000000 524.000000 C 295.000000 544.000000, 322.000000 577.000000,335.000000 592.000000" stroke="black"  fill="transparent"/>

<line
x1="322" y1="577" x2="335" y2="592"
id="0"
style="stroke:black;stroke-width:1.000000;stroke-opacity:0" />


<line
x1="295" y1="544" x2="278" y2="524"
id="TransportWithBiochemicalReaction_5a40700231e59b9001b6d75f62e39bce_LEFT_TO_RIGHT-output--to--Protein_2d5019f2892d8160c1f67ff532ff3118"
style="stroke:black;stroke-width:1.000000;stroke-opacity:0" />


<polygon
points = "278,524 269.2,519.6 269.2,528.4"
id="line"
style="fill:black; stroke:#000000; stroke-width:1"
transform = "rotate(229.635463 278.000000 524.000000)"
/>


<path d="M509.000000 296.000000 C 531.000000 329.000000, 559.000000 371.000000,570.000000 388.000000" stroke="black"  fill="transparent"/>

<line
x1="559" y1="371" x2="570" y2="388"
id="0"
style="stroke:black;stroke-width:1.000000;stroke-opacity:0" />


<line
x1="531" y1="329" x2="509" y2="296"
id="ComplexAssembly_8821df2de4028dfdbb21734becbbae7c_LEFT_TO_RIGHT-output--to--Complex_39d5215552e09bf5043ed3d30f378b3b"
style="stroke:black;stroke-width:1.000000;stroke-opacity:0" />


<polygon
points = "509,296 500.2,291.6 500.2,300.4"
id="line"
style="fill:black; stroke:#000000; stroke-width:1"
transform = "rotate(236.309932 509.000000 296.000000)"
/>


<path d="M350.000000 605.000000 C 383.000000 621.000000, 507.000000 680.000000,564.000000 707.000000" stroke="black"  fill="transparent"/>

<line
x1="507" y1="680" x2="564" y2="707"
id="0"
style="stroke:black;stroke-width:1.000000;stroke-opacity:0" />


<line
x1="383" y1="621" x2="350" y2="605"
id="Protein_f4ca9dff1f2a0e9133616b6070076f84--to--TransportWithBiochemicalReaction_5a40700231e59b9001b6d75f62e39bce_LEFT_TO_RIGHT-input"
style="stroke:black;stroke-width:1.000000;stroke-opacity:0" />


<path d="M634.000000 641.000000 C 630.000000 620.000000, 623.000000 583.000000,620.000000 566.000000" stroke="black"  fill="transparent"/>

<line
x1="623" y1="583" x2="620" y2="566"
id="0"
style="stroke:black;stroke-width:1.000000;stroke-opacity:0" />


<line
x1="630" y1="620" x2="634" y2="641"
id="TemplateReaction_4bcb07ed418d78e1baea5ad497c6267d-output--to--Protein_d404be92b86f238816a4a8d01574f8be"
style="stroke:black;stroke-width:1.000000;stroke-opacity:0" />


<polygon
points = "634,641 625.2,636.6 625.2,645.4"
id="line"
style="fill:black; stroke:#000000; stroke-width:1"
transform = "rotate(79.215702 634.000000 641.000000)"
/>


<path d="M472.000000 1056.000000 C 510.000000 1066.000000, 564.000000 1081.000000,585.000000 1086.000000" stroke="black"  fill="transparent"/>

<line
x1="510" y1="1066" x2="472" y2="1056"
id="0"
style="stroke:black;stroke-width:1.000000;stroke-opacity:0" />


<line
x1="564" y1="1081" x2="585" y2="1086"
id="Complex_4684051b73c758ff59ea274bc188d7f2--to--TransportWithBiochemicalReaction_eca8d23e37438232890911fb27d095ac_LEFT_TO_RIGHT"
style="stroke:black;stroke-width:1.000000;stroke-opacity:0" />


<polygon
points = "585,1086 571.8,1081.6 571.8,1090.4"
id="line"
style="fill:white; stroke:#000000; stroke-width:1"
transform = "rotate(13.392498 585.000000 1086.000000)"
/>


<path d="M293.000000 504.000000 C 335.000000 497.000000, 415.000000 482.000000,479.000000 456.000000" stroke="black"  fill="transparent"/>
<path d="M479.000000 456.000000 C 514.000000 441.000000, 551.000000 415.000000,567.000000 403.000000" stroke="black"  fill="transparent"/>

<line
x1="335" y1="497" x2="293" y2="504"
id="0"
style="stroke:black;stroke-width:1.000000;stroke-opacity:0" />


<line
x1="551" y1="415" x2="567" y2="403"
id="Protein_2d5019f2892d8160c1f67ff532ff3118--to--ComplexAssembly_8821df2de4028dfdbb21734becbbae7c_LEFT_TO_RIGHT-input"
style="stroke:black;stroke-width:1.000000;stroke-opacity:0" />


<path d="M709.000000 623.000000 C 708.000000 632.000000, 708.000000 644.000000,707.000000 652.000000" stroke="black"  fill="transparent"/>

<line
x1="708" y1="632" x2="709" y2="623"
id="0"
style="stroke:black;stroke-width:1.000000;stroke-opacity:0" />


<line
x1="708" y1="644" x2="707" y2="652"
id="Protein_d5fda1d2fcd7d781d6c539a3c157a61a--to--Conversion_cf9aedd6970e0cac7435f2341687df5e_LEFT_TO_RIGHT-input"
style="stroke:black;stroke-width:1.000000;stroke-opacity:0" />


<path d="M301.000000 256.000000 C 309.000000 275.000000, 321.000000 304.000000,327.000000 318.000000" stroke="black"  fill="transparent"/>

<line
x1="321" y1="304" x2="327" y2="318"
id="0"
style="stroke:black;stroke-width:1.000000;stroke-opacity:0" />


<line
x1="309" y1="275" x2="301" y2="256"
id="ComplexAssembly_8a286dc55c2933dba08374b21c27d1c9_LEFT_TO_RIGHT-output--to--SmallMolecule_9e2d5bdf4c0dfd904913845d378a6ed3"
style="stroke:black;stroke-width:1.000000;stroke-opacity:0" />


<polygon
points = "301,256 292.2,251.6 292.2,260.4"
id="line"
style="fill:black; stroke:#000000; stroke-width:1"
transform = "rotate(247.166346 301.000000 256.000000)"
/>


<path d="M678.000000 960.000000 C 672.000000 942.000000, 663.000000 915.000000,659.000000 901.000000" stroke="black"  fill="transparent"/>

<line
x1="663" y1="915" x2="659" y2="901"
id="0"
style="stroke:black;stroke-width:1.000000;stroke-opacity:0" />


<line
x1="672" y1="942" x2="678" y2="960"
id="BiochemicalReaction_7dc6d50100b886d75096d2253dd7ccf8_LEFT_TO_RIGHT-output--to--Protein_cd455d4449b6d4406c05e16bfca9d40f"
style="stroke:black;stroke-width:1.000000;stroke-opacity:0" />


<polygon
points = "678,960 669.2,955.6 669.2,964.4"
id="line"
style="fill:black; stroke:#000000; stroke-width:1"
transform = "rotate(71.565051 678.000000 960.000000)"
/>


<path d="M600.000000 964.000000 C 615.000000 946.000000, 638.000000 916.000000,649.000000 901.000000" stroke="black"  fill="transparent"/>

<line
x1="638" y1="916" x2="649" y2="901"
id="0"
style="stroke:black;stroke-width:1.000000;stroke-opacity:0" />


<line
x1="615" y1="946" x2="600" y2="964"
id="BiochemicalReaction_7dc6d50100b886d75096d2253dd7ccf8_LEFT_TO_RIGHT-output--to--Protein_28988231ee3f4dd422aa2c58061bf898"
style="stroke:black;stroke-width:1.000000;stroke-opacity:0" />


<polygon
points = "600,964 591.2,959.6 591.2,968.4"
id="line"
style="fill:black; stroke:#000000; stroke-width:1"
transform = "rotate(129.805571 600.000000 964.000000)"
/>


<path d="M407.000000 287.000000 C 380.000000 301.000000, 353.000000 315.000000,339.000000 322.000000" stroke="black"  fill="transparent"/>

<line
x1="380" y1="301" x2="407" y2="287"
id="0"
style="stroke:black;stroke-width:1.000000;stroke-opacity:0" />


<line
x1="353" y1="315" x2="339" y2="322"
id="Complex_39d5215552e09bf5043ed3d30f378b3b--to--ComplexAssembly_8a286dc55c2933dba08374b21c27d1c9_LEFT_TO_RIGHT-input"
style="stroke:black;stroke-width:1.000000;stroke-opacity:0" />


<path d="M400.000000 378.000000 C 378.000000 362.000000, 352.000000 343.000000,339.000000 333.000000" stroke="black"  fill="transparent"/>

<line
x1="352" y1="343" x2="339" y2="333"
id="0"
style="stroke:black;stroke-width:1.000000;stroke-opacity:0" />


<line
x1="378" y1="362" x2="400" y2="378"
id="ComplexAssembly_8a286dc55c2933dba08374b21c27d1c9_LEFT_TO_RIGHT-output--to--Complex_a27da917177514ee18891aae6b790005"
style="stroke:black;stroke-width:1.000000;stroke-opacity:0" />


<polygon
points = "400,378 391.2,373.6 391.2,382.4"
id="line"
style="fill:black; stroke:#000000; stroke-width:1"
transform = "rotate(36.027373 400.000000 378.000000)"
/>


<path d="M665.000000 994.000000 C 650.000000 1008.000000, 629.000000 1027.000000,617.000000 1037.000000" stroke="black"  fill="transparent"/>

<line
x1="650" y1="1008" x2="665" y2="994"
id="0"
style="stroke:black;stroke-width:1.000000;stroke-opacity:0" />


<line
x1="629" y1="1027" x2="617" y2="1037"
id="Protein_cd455d4449b6d4406c05e16bfca9d40f--to--TransportWithBiochemicalReaction_0afc71496a93a84bc13be8e8bad795b2_LEFT_TO_RIGHT-input"
style="stroke:black;stroke-width:1.000000;stroke-opacity:0" />


<path d="M473.000000 1045.000000 C 514.000000 1045.000000, 578.000000 1045.000000,600.000000 1045.000000" stroke="black"  fill="transparent"/>

<line
x1="514" y1="1045" x2="473" y2="1045"
id="0"
style="stroke:black;stroke-width:1.000000;stroke-opacity:0" />


<line
x1="578" y1="1045" x2="600" y2="1045"
id="Complex_4684051b73c758ff59ea274bc188d7f2--to--TransportWithBiochemicalReaction_0afc71496a93a84bc13be8e8bad795b2_LEFT_TO_RIGHT"
style="stroke:black;stroke-width:1.000000;stroke-opacity:0" />


<polygon
points = "600,1045 586.8,1040.6 586.8,1049.4"
id="line"
style="fill:white; stroke:#000000; stroke-width:1"
transform = "rotate(-0.000000 600.000000 1045.000000)"
/>


<path d="M588.000000 998.000000 C 589.000000 1021.000000, 592.000000 1062.000000,593.000000 1080.000000" stroke="black"  fill="transparent"/>

<line
x1="589" y1="1021" x2="588" y2="998"
id="0"
style="stroke:black;stroke-width:1.000000;stroke-opacity:0" />


<line
x1="592" y1="1062" x2="593" y2="1080"
id="Protein_28988231ee3f4dd422aa2c58061bf898--to--TransportWithBiochemicalReaction_eca8d23e37438232890911fb27d095ac_LEFT_TO_RIGHT-input"
style="stroke:black;stroke-width:1.000000;stroke-opacity:0" />



</svg>
