<?xml version="1.0" encoding="UTF-8"?>
<svg width="1077.243329" height="826.691247"
xmlns="http://www.w3.org/2000/svg" xmlns:svg="http://www.w3.org/2000/svg"
>
<metadata id="metadata7">image/svg+xml</metadata>

<rect
width="349.305076"
height="302.073140"
rx="11.000000"
ry="11.000000"
x="100.000000"
y="183.000000"
id="cytosol"
style="fill:white;fill-opacity:0.900000;stroke:black;stroke-width:5.000000;stroke-opacity:1.000000" />


<text
x="274.652538"
y="175.000000"
id="cytosol"
style="font-size:6.000000px;text-anchor:middle;font-family:Arial,Helvetica;alignment-baseline:baseline;stroke.opacity:1;dominant-baseline:baseline"
fill="black"
>
cytosol</text>


<rect
width="270.581599"
height="121.797630"
rx="11.000000"
ry="11.000000"
x="250.759955"
y="504.893617"
id="endoplasmic_reticulum_membrane"
style="fill:white;fill-opacity:0.900000;stroke:black;stroke-width:5.000000;stroke-opacity:1.000000" />


<text
x="386.050754"
y="496.893617"
id="endoplasmic_reticulum_membrane"
style="font-size:6.000000px;text-anchor:middle;font-family:Arial,Helvetica;alignment-baseline:baseline;stroke.opacity:1;dominant-baseline:baseline"
fill="black"
>
endoplasmic reticulum membrane</text>


<rect
width="260.668636"
height="226.859918"
rx="11.000000"
ry="11.000000"
x="486.574693"
y="227.156506"
id="extracellular"
style="fill:white;fill-opacity:0.900000;stroke:black;stroke-width:5.000000;stroke-opacity:1.000000" />


<text
x="616.909011"
y="219.156506"
id="extracellular"
style="font-size:6.000000px;text-anchor:middle;font-family:Arial,Helvetica;alignment-baseline:baseline;stroke.opacity:1;dominant-baseline:baseline"
fill="black"
>
extracellular</text>





<ellipse
rx="16.666667"
ry="16.666667"
cx="646.690474"
cy="363.040733"
id="SmallMolecule_5564d1e0cf6712e68c7a57d3d704184c"
style="fill:white;fill-opacity:0.000000;stroke:black;stroke-width:1.000000;stroke-opacity:1.000000" />


<text
x="646.690474"
y="365.040733"
id="SmallMolecule_5564d1e0cf6712e68c7a57d3d704184c"
style="font-size:6.000000px;text-anchor:middle;font-family:Arial,Helvetica;alignment-baseline:baseline;stroke.opacity:1;dominant-baseline:baseline"
fill="black"
>
H2O</text>



<ellipse
rx="16.666667"
ry="16.666667"
cx="590.686470"
cy="254.823172"
id="SmallMolecule_96c1edc77109cd34503896a87ac34b40"
style="fill:white;fill-opacity:0.000000;stroke:black;stroke-width:1.000000;stroke-opacity:1.000000" />


<text
x="590.686470"
y="256.823172"
id="SmallMolecule_96c1edc77109cd34503896a87ac34b40"
style="font-size:6.000000px;text-anchor:middle;font-family:Arial,Helvetica;alignment-baseline:baseline;stroke.opacity:1;dominant-baseline:baseline"
fill="black"
>
LCFA(-)</text>



<ellipse
rx="16.666667"
ry="16.666667"
cx="514.241360"
cy="259.878363"
id="SmallMolecule_146cbf41847f618d09a091be830bcbaf"
style="fill:white;fill-opacity:0.000000;stroke:black;stroke-width:1.000000;stroke-opacity:1.000000" />


<text
x="514.241360"
y="261.878363"
id="SmallMolecule_146cbf41847f618d09a091be830bcbaf"
style="font-size:6.000000px;text-anchor:middle;font-family:Arial,Helvetica;alignment-baseline:baseline;stroke.opacity:1;dominant-baseline:baseline"
fill="black"
>
GPCho</text>



<ellipse
rx="16.666667"
ry="16.666667"
cx="609.737912"
cy="426.349757"
id="SmallMolecule_0353ef31c5de91ef9ec6814a927f3afe"
style="fill:white;fill-opacity:0.000000;stroke:black;stroke-width:1.000000;stroke-opacity:1.000000" />


<text
x="609.737912"
y="428.349757"
id="SmallMolecule_0353ef31c5de91ef9ec6814a927f3afe"
style="font-size:6.000000px;text-anchor:middle;font-family:Arial,Helvetica;alignment-baseline:baseline;stroke.opacity:1;dominant-baseline:baseline"
fill="black"
>
lysoPC</text>



<rect
width="58.333333"
height="33.333333"
rx="3.333333"
ry="3.333333"
x="677.909996"
y="296.918320"
id="Protein_82740e1527c77d79e3b269551a876207"
style="fill:white;fill-opacity:1.000000;stroke:black;stroke-width:1.000000;stroke-opacity:1.000000" />


<text
x="707.076663"
y="315.584987"
id="Protein_82740e1527c77d79e3b269551a876207"
style="font-size:6.000000px;text-anchor:middle;font-family:Arial,Helvetica;alignment-baseline:baseline;stroke.opacity:1;dominant-baseline:baseline"
fill="black"
>
PLA2G15</text>


<ellipse
rx="14.583333"
ry="7.291667"
cx="692.493329"
cy="296.918320"
id="Protein_82740e1527c77d79e3b269551a876207.info.1"
style="fill:white;fill-opacity:1.000000;stroke:black;stroke-width:1.000000;stroke-opacity:1.000000" />


<text
x="692.493329"
y="298.918320"
id="Protein_82740e1527c77d79e3b269551a876207.info.1"
style="font-size:6.000000px;text-anchor:middle;font-family:Arial,Helvetica;alignment-baseline:baseline;stroke.opacity:1;dominant-baseline:baseline"
fill="black"
>
x[34-412]</text>


<rect
width="16.666667"
height="16.666667"
rx="0.000000"
ry="0.000000"
x="577.733952"
y="326.814306"
id="reactome_R-HSA-8952251_LEFT_TO_RIGHT"
style="fill:white;fill-opacity:0.600000;stroke:black;stroke-width:1.000000;stroke-opacity:1.000000" />




<rect
width="58.333333"
height="33.333333"
rx="3.333333"
ry="3.333333"
x="379.971743"
y="286.482544"
id="Protein_465af74a2f2a00d117e5c6379ca25d02"
style="fill:white;fill-opacity:1.000000;stroke:black;stroke-width:1.000000;stroke-opacity:1.000000" />


<text
x="409.138409"
y="305.149210"
id="Protein_465af74a2f2a00d117e5c6379ca25d02"
style="font-size:6.000000px;text-anchor:middle;font-family:Arial,Helvetica;alignment-baseline:baseline;stroke.opacity:1;dominant-baseline:baseline"
fill="black"
>
GPCPD1</text>


<ellipse
rx="14.583333"
ry="7.291667"
cx="394.555076"
cy="286.482544"
id="Protein_465af74a2f2a00d117e5c6379ca25d02.info.1"
style="fill:white;fill-opacity:1.000000;stroke:black;stroke-width:1.000000;stroke-opacity:1.000000" />


<text
x="394.555076"
y="288.482544"
id="Protein_465af74a2f2a00d117e5c6379ca25d02.info.1"
style="font-size:6.000000px;text-anchor:middle;font-family:Arial,Helvetica;alignment-baseline:baseline;stroke.opacity:1;dominant-baseline:baseline"
fill="black"
>
x[1-672]</text>



<ellipse
rx="16.666667"
ry="16.666667"
cx="310.175270"
cy="384.473498"
id="SmallMolecule_21e7a3fbba53eddfbce9afc0a06e7616"
style="fill:white;fill-opacity:0.000000;stroke:black;stroke-width:1.000000;stroke-opacity:1.000000" />


<text
x="310.175270"
y="386.473498"
id="SmallMolecule_21e7a3fbba53eddfbce9afc0a06e7616"
style="font-size:6.000000px;text-anchor:middle;font-family:Arial,Helvetica;alignment-baseline:baseline;stroke.opacity:1;dominant-baseline:baseline"
fill="black"
>
GPCho</text>



<ellipse
rx="29.166667"
ry="16.666667"
cx="140.166667"
cy="457.406473"
id="PhysicalEntity_172e4fa7f5eb5464d11917b2299ea028"
style="fill:white;fill-opacity:1.000000;stroke:black;stroke-width:1.000000;stroke-opacity:1.000000" />


<text
x="140.166667"
y="459.406473"
id="PhysicalEntity_172e4fa7f5eb5464d11917b2299ea028"
style="font-size:6.000000px;text-anchor:middle;font-family:Arial,Helvetica;alignment-baseline:baseline;stroke.opacity:1;dominant-baseline:baseline"
fill="black"
>
PLA2(8)</text>



<ellipse
rx="16.666667"
ry="16.666667"
cx="343.986408"
cy="215.167196"
id="SmallMolecule_931ee48e37527a5dcb80fc44701ef775"
style="fill:white;fill-opacity:0.000000;stroke:black;stroke-width:1.000000;stroke-opacity:1.000000" />


<text
x="343.986408"
y="217.167196"
id="SmallMolecule_931ee48e37527a5dcb80fc44701ef775"
style="font-size:6.000000px;text-anchor:middle;font-family:Arial,Helvetica;alignment-baseline:baseline;stroke.opacity:1;dominant-baseline:baseline"
fill="black"
>
Cho</text>



<ellipse
rx="16.666667"
ry="16.666667"
cx="240.913877"
cy="349.613110"
id="SmallMolecule_bfe0d4cd6c12bac80101dff1b5e1f783"
style="fill:white;fill-opacity:0.000000;stroke:black;stroke-width:1.000000;stroke-opacity:1.000000" />


<text
x="240.913877"
y="351.613110"
id="SmallMolecule_bfe0d4cd6c12bac80101dff1b5e1f783"
style="font-size:6.000000px;text-anchor:middle;font-family:Arial,Helvetica;alignment-baseline:baseline;stroke.opacity:1;dominant-baseline:baseline"
fill="black"
>
H2O</text>



<ellipse
rx="16.666667"
ry="16.666667"
cx="181.265780"
cy="210.666667"
id="SmallMolecule_35d14b8fc0bc150d5ee4594d905fd627"
style="fill:white;fill-opacity:0.000000;stroke:black;stroke-width:1.000000;stroke-opacity:1.000000" />


<text
x="181.265780"
y="212.666667"
id="SmallMolecule_35d14b8fc0bc150d5ee4594d905fd627"
style="font-size:6.000000px;text-anchor:middle;font-family:Arial,Helvetica;alignment-baseline:baseline;stroke.opacity:1;dominant-baseline:baseline"
fill="black"
>
G3P</text>


<rect
width="16.666667"
height="16.666667"
rx="0.000000"
ry="0.000000"
x="214.303568"
y="414.411052"
id="reactome_R-HSA-1482696_LEFT_TO_RIGHT"
style="fill:white;fill-opacity:0.600000;stroke:black;stroke-width:1.000000;stroke-opacity:1.000000" />



<rect
width="16.666667"
height="16.666667"
rx="0.000000"
ry="0.000000"
x="303.321251"
y="286.677739"
id="reactome_R-HSA-6814132_LEFT_TO_RIGHT"
style="fill:white;fill-opacity:0.600000;stroke:black;stroke-width:1.000000;stroke-opacity:1.000000" />



<rect
width="16.666667"
height="16.666667"
rx="0.000000"
ry="0.000000"
x="247.725932"
y="441.625219"
id="reactome_R-HSA-1482612_LEFT_TO_RIGHT"
style="fill:white;fill-opacity:0.600000;stroke:black;stroke-width:1.000000;stroke-opacity:1.000000" />




<ellipse
rx="16.666667"
ry="16.666667"
cx="403.775941"
cy="599.024581"
id="SmallMolecule_f84c077140b1729be5c0e3ebc7a851dc"
style="fill:white;fill-opacity:0.000000;stroke:black;stroke-width:1.000000;stroke-opacity:1.000000" />


<text
x="403.775941"
y="601.024581"
id="SmallMolecule_f84c077140b1729be5c0e3ebc7a851dc"
style="font-size:6.000000px;text-anchor:middle;font-family:Arial,Helvetica;alignment-baseline:baseline;stroke.opacity:1;dominant-baseline:baseline"
fill="black"
>
2-acyl LPC</text>



<rect
width="58.333333"
height="33.333333"
rx="3.333333"
ry="3.333333"
x="452.008221"
y="530.012167"
id="Protein_dd585ab895aa54f592b0f169c4d85f62"
style="fill:white;fill-opacity:1.000000;stroke:black;stroke-width:1.000000;stroke-opacity:1.000000" />


<text
x="481.174887"
y="548.678834"
id="Protein_dd585ab895aa54f592b0f169c4d85f62"
style="font-size:6.000000px;text-anchor:middle;font-family:Arial,Helvetica;alignment-baseline:baseline;stroke.opacity:1;dominant-baseline:baseline"
fill="black"
>
PLA2G4C</text>


<ellipse
rx="14.583333"
ry="7.291667"
cx="466.591554"
cy="530.012167"
id="Protein_dd585ab895aa54f592b0f169c4d85f62.info.1"
style="fill:white;fill-opacity:1.000000;stroke:black;stroke-width:1.000000;stroke-opacity:1.000000" />


<text
x="466.591554"
y="532.012167"
id="Protein_dd585ab895aa54f592b0f169c4d85f62.info.1"
style="font-size:6.000000px;text-anchor:middle;font-family:Arial,Helvetica;alignment-baseline:baseline;stroke.opacity:1;dominant-baseline:baseline"
fill="black"
>
x[1-538]</text>



<ellipse
rx="16.666667"
ry="16.666667"
cx="278.426621"
cy="533.167686"
id="SmallMolecule_8797939a5cd7184fef5a3fa69a37b38d"
style="fill:white;fill-opacity:0.000000;stroke:black;stroke-width:1.000000;stroke-opacity:1.000000" />


<text
x="278.426621"
y="535.167686"
id="SmallMolecule_8797939a5cd7184fef5a3fa69a37b38d"
style="font-size:6.000000px;text-anchor:middle;font-family:Arial,Helvetica;alignment-baseline:baseline;stroke.opacity:1;dominant-baseline:baseline"
fill="black"
>
LCFA(-)</text>



<ellipse
rx="16.666667"
ry="16.666667"
cx="352.668118"
cy="532.560284"
id="SmallMolecule_0a89168776b0353568ff17f900eb6031"
style="fill:white;fill-opacity:0.000000;stroke:black;stroke-width:1.000000;stroke-opacity:1.000000" />


<text
x="352.668118"
y="534.560284"
id="SmallMolecule_0a89168776b0353568ff17f900eb6031"
style="font-size:6.000000px;text-anchor:middle;font-family:Arial,Helvetica;alignment-baseline:baseline;stroke.opacity:1;dominant-baseline:baseline"
fill="black"
>
1-acyl LPC</text>




<path d="M310.000000 367.000000 C 310.000000 348.000000, 311.000000 318.000000,311.000000 303.000000" stroke="black"  fill="transparent"/>

<line
x1="310" y1="348" x2="310" y2="367"
id="0"
style="stroke:black;stroke-width:1.000000;stroke-opacity:0" />


<line
x1="311" y1="318" x2="311" y2="303"
id="SmallMolecule_21e7a3fbba53eddfbce9afc0a06e7616--to--reactome_R-HSA-6814132_LEFT_TO_RIGHT-input"
style="stroke:black;stroke-width:1.000000;stroke-opacity:0" />


<path d="M379.000000 300.000000 C 359.000000 299.000000, 333.000000 296.000000,320.000000 295.000000" stroke="black"  fill="transparent"/>

<line
x1="359" y1="299" x2="379" y2="300"
id="0"
style="stroke:black;stroke-width:1.000000;stroke-opacity:0" />


<line
x1="333" y1="296" x2="320" y2="295"
id="Protein_465af74a2f2a00d117e5c6379ca25d02--to--reactome_R-HSA-6814132_LEFT_TO_RIGHT"
style="stroke:black;stroke-width:1.000000;stroke-opacity:0" />


<ellipse
rx="4.400000"
ry="4.400000"
cx="324.387040"
cy="295.337465"
id="Protein_465af74a2f2a00d117e5c6379ca25d02--to--reactome_R-HSA-6814132_LEFT_TO_RIGHT"
style="fill:white;fill-opacity:0.800000;stroke:black;stroke-width:1.000000;stroke-opacity:1.000000" />


<path d="M227.000000 431.000000 C 236.000000 449.000000, 257.000000 492.000000,269.000000 516.000000" stroke="black"  fill="transparent"/>

<line
x1="236" y1="449" x2="227" y2="431"
id="0"
style="stroke:black;stroke-width:1.000000;stroke-opacity:0" />


<line
x1="257" y1="492" x2="269" y2="516"
id="reactome_R-HSA-1482696_LEFT_TO_RIGHT-output--to--SmallMolecule_8797939a5cd7184fef5a3fa69a37b38d"
style="stroke:black;stroke-width:1.000000;stroke-opacity:0" />


<polygon
points = "269,516 260.2,511.6 260.2,520.4"
id="line"
style="fill:black; stroke:#000000; stroke-width:1"
transform = "rotate(63.434949 269.000000 516.000000)"
/>


<path d="M677.000000 318.000000 C 650.000000 323.000000, 611.000000 330.000000,594.000000 333.000000" stroke="black"  fill="transparent"/>

<line
x1="650" y1="323" x2="677" y2="318"
id="0"
style="stroke:black;stroke-width:1.000000;stroke-opacity:0" />


<line
x1="611" y1="330" x2="594" y2="333"
id="Protein_82740e1527c77d79e3b269551a876207--to--reactome_R-HSA-8952251_LEFT_TO_RIGHT"
style="stroke:black;stroke-width:1.000000;stroke-opacity:0" />


<ellipse
rx="4.400000"
ry="4.400000"
cx="598.333048"
cy="332.235345"
id="Protein_82740e1527c77d79e3b269551a876207--to--reactome_R-HSA-8952251_LEFT_TO_RIGHT"
style="fill:white;fill-opacity:0.800000;stroke:black;stroke-width:1.000000;stroke-opacity:1.000000" />


<path d="M257.000000 336.000000 C 271.000000 325.000000, 291.000000 310.000000,303.000000 301.000000" stroke="black"  fill="transparent"/>

<line
x1="271" y1="325" x2="257" y2="336"
id="0"
style="stroke:black;stroke-width:1.000000;stroke-opacity:0" />


<line
x1="291" y1="310" x2="303" y2="301"
id="SmallMolecule_bfe0d4cd6c12bac80101dff1b5e1f783--to--reactome_R-HSA-6814132_LEFT_TO_RIGHT-input"
style="stroke:black;stroke-width:1.000000;stroke-opacity:0" />


<path d="M589.000000 271.000000 C 588.000000 288.000000, 587.000000 313.000000,586.000000 326.000000" stroke="black"  fill="transparent"/>

<line
x1="587" y1="313" x2="586" y2="326"
id="0"
style="stroke:black;stroke-width:1.000000;stroke-opacity:0" />


<line
x1="588" y1="288" x2="589" y2="271"
id="reactome_R-HSA-8952251_LEFT_TO_RIGHT-output--to--SmallMolecule_96c1edc77109cd34503896a87ac34b40"
style="stroke:black;stroke-width:1.000000;stroke-opacity:0" />


<polygon
points = "589,271 580.2,266.6 580.2,275.4"
id="line"
style="fill:black; stroke:#000000; stroke-width:1"
transform = "rotate(-86.633539 589.000000 271.000000)"
/>


<path d="M197.000000 221.000000 C 225.000000 239.000000, 281.000000 275.000000,303.000000 289.000000" stroke="black"  fill="transparent"/>

<line
x1="281" y1="275" x2="303" y2="289"
id="0"
style="stroke:black;stroke-width:1.000000;stroke-opacity:0" />


<line
x1="225" y1="239" x2="197" y2="221"
id="reactome_R-HSA-6814132_LEFT_TO_RIGHT-output--to--SmallMolecule_35d14b8fc0bc150d5ee4594d905fd627"
style="stroke:black;stroke-width:1.000000;stroke-opacity:0" />


<polygon
points = "197,221 188.2,216.6 188.2,225.4"
id="line"
style="fill:black; stroke:#000000; stroke-width:1"
transform = "rotate(212.735226 197.000000 221.000000)"
/>


<path d="M261.000000 458.000000 C 272.000000 477.000000, 300.000000 522.000000,332.000000 552.000000" stroke="black"  fill="transparent"/>
<path d="M332.000000 552.000000 C 349.000000 567.000000, 372.000000 581.000000,387.000000 590.000000" stroke="black"  fill="transparent"/>

<line
x1="372" y1="581" x2="387" y2="590"
id="0"
style="stroke:black;stroke-width:1.000000;stroke-opacity:0" />


<line
x1="272" y1="477" x2="261" y2="458"
id="SmallMolecule_f84c077140b1729be5c0e3ebc7a851dc--to--reactome_R-HSA-1482612_LEFT_TO_RIGHT-input"
style="stroke:black;stroke-width:1.000000;stroke-opacity:0" />


<path d="M236.000000 366.000000 C 233.000000 381.000000, 227.000000 402.000000,224.000000 413.000000" stroke="black"  fill="transparent"/>

<line
x1="233" y1="381" x2="236" y2="366"
id="0"
style="stroke:black;stroke-width:1.000000;stroke-opacity:0" />


<line
x1="227" y1="402" x2="224" y2="413"
id="SmallMolecule_bfe0d4cd6c12bac80101dff1b5e1f783--to--reactome_R-HSA-1482696_LEFT_TO_RIGHT-input"
style="stroke:black;stroke-width:1.000000;stroke-opacity:0" />


<path d="M630.000000 355.000000 C 618.000000 350.000000, 603.000000 343.000000,594.000000 339.000000" stroke="black"  fill="transparent"/>

<line
x1="618" y1="350" x2="630" y2="355"
id="0"
style="stroke:black;stroke-width:1.000000;stroke-opacity:0" />


<line
x1="603" y1="343" x2="594" y2="339"
id="SmallMolecule_5564d1e0cf6712e68c7a57d3d704184c--to--reactome_R-HSA-8952251_LEFT_TO_RIGHT-input"
style="stroke:black;stroke-width:1.000000;stroke-opacity:0" />


<path d="M605.000000 409.000000 C 600.000000 390.000000, 592.000000 359.000000,588.000000 344.000000" stroke="black"  fill="transparent"/>

<line
x1="600" y1="390" x2="605" y2="409"
id="0"
style="stroke:black;stroke-width:1.000000;stroke-opacity:0" />


<line
x1="592" y1="359" x2="588" y2="344"
id="SmallMolecule_0353ef31c5de91ef9ec6814a927f3afe--to--reactome_R-HSA-8952251_LEFT_TO_RIGHT-input"
style="stroke:black;stroke-width:1.000000;stroke-opacity:0" />


<path d="M258.000000 458.000000 C 262.000000 472.000000, 269.000000 498.000000,273.000000 516.000000" stroke="black"  fill="transparent"/>

<line
x1="262" y1="472" x2="258" y2="458"
id="0"
style="stroke:black;stroke-width:1.000000;stroke-opacity:0" />


<line
x1="269" y1="498" x2="273" y2="516"
id="reactome_R-HSA-1482612_LEFT_TO_RIGHT-output--to--SmallMolecule_8797939a5cd7184fef5a3fa69a37b38d"
style="stroke:black;stroke-width:1.000000;stroke-opacity:0" />


<polygon
points = "273,516 264.2,511.6 264.2,520.4"
id="line"
style="fill:black; stroke:#000000; stroke-width:1"
transform = "rotate(77.471192 273.000000 516.000000)"
/>


<path d="M337.000000 231.000000 C 330.000000 248.000000, 320.000000 273.000000,315.000000 286.000000" stroke="black"  fill="transparent"/>

<line
x1="320" y1="273" x2="315" y2="286"
id="0"
style="stroke:black;stroke-width:1.000000;stroke-opacity:0" />


<line
x1="330" y1="248" x2="337" y2="231"
id="reactome_R-HSA-6814132_LEFT_TO_RIGHT-output--to--SmallMolecule_931ee48e37527a5dcb80fc44701ef775"
style="stroke:black;stroke-width:1.000000;stroke-opacity:0" />


<polygon
points = "337,231 328.2,226.6 328.2,235.4"
id="line"
style="fill:black; stroke:#000000; stroke-width:1"
transform = "rotate(-67.619865 337.000000 231.000000)"
/>


<path d="M231.000000 425.000000 C 240.000000 428.000000, 255.000000 432.000000,267.000000 438.000000" stroke="black"  fill="transparent"/>
<path d="M267.000000 438.000000 C 335.000000 466.000000, 411.000000 507.000000,452.000000 530.000000" stroke="black"  fill="transparent"/>

<line
x1="411" y1="507" x2="452" y2="530"
id="0"
style="stroke:black;stroke-width:1.000000;stroke-opacity:0" />


<line
x1="240" y1="428" x2="231" y2="425"
id="Protein_dd585ab895aa54f592b0f169c4d85f62--to--reactome_R-HSA-1482696_LEFT_TO_RIGHT"
style="stroke:black;stroke-width:1.000000;stroke-opacity:0" />


<ellipse
rx="4.400000"
ry="4.400000"
cx="235.174207"
cy="426.391402"
id="Protein_dd585ab895aa54f592b0f169c4d85f62--to--reactome_R-HSA-1482696_LEFT_TO_RIGHT"
style="fill:white;fill-opacity:0.800000;stroke:black;stroke-width:1.000000;stroke-opacity:1.000000" />


<path d="M264.000000 453.000000 C 294.000000 466.000000, 400.000000 512.000000,452.000000 534.000000" stroke="black"  fill="transparent"/>

<line
x1="400" y1="512" x2="452" y2="534"
id="0"
style="stroke:black;stroke-width:1.000000;stroke-opacity:0" />


<line
x1="294" y1="466" x2="264" y2="453"
id="Protein_dd585ab895aa54f592b0f169c4d85f62--to--reactome_R-HSA-1482612_LEFT_TO_RIGHT"
style="stroke:black;stroke-width:1.000000;stroke-opacity:0" />


<ellipse
rx="4.400000"
ry="4.400000"
cx="268.037245"
cy="454.749473"
id="Protein_dd585ab895aa54f592b0f169c4d85f62--to--reactome_R-HSA-1482612_LEFT_TO_RIGHT"
style="fill:white;fill-opacity:0.800000;stroke:black;stroke-width:1.000000;stroke-opacity:1.000000" />


<path d="M243.000000 366.000000 C 246.000000 387.000000, 252.000000 424.000000,254.000000 441.000000" stroke="black"  fill="transparent"/>

<line
x1="246" y1="387" x2="243" y2="366"
id="0"
style="stroke:black;stroke-width:1.000000;stroke-opacity:0" />


<line
x1="252" y1="424" x2="254" y2="441"
id="SmallMolecule_bfe0d4cd6c12bac80101dff1b5e1f783--to--reactome_R-HSA-1482612_LEFT_TO_RIGHT-input"
style="stroke:black;stroke-width:1.000000;stroke-opacity:0" />


<path d="M168.000000 455.000000 C 194.000000 453.000000, 231.000000 451.000000,247.000000 450.000000" stroke="black"  fill="transparent"/>

<line
x1="194" y1="453" x2="168" y2="455"
id="0"
style="stroke:black;stroke-width:1.000000;stroke-opacity:0" />


<line
x1="231" y1="451" x2="247" y2="450"
id="PhysicalEntity_172e4fa7f5eb5464d11917b2299ea028--to--reactome_R-HSA-1482612_LEFT_TO_RIGHT"
style="stroke:black;stroke-width:1.000000;stroke-opacity:0" />


<ellipse
rx="4.400000"
ry="4.400000"
cx="242.608569"
cy="450.274464"
id="PhysicalEntity_172e4fa7f5eb5464d11917b2299ea028--to--reactome_R-HSA-1482612_LEFT_TO_RIGHT"
style="fill:white;fill-opacity:0.800000;stroke:black;stroke-width:1.000000;stroke-opacity:1.000000" />


<path d="M530.000000 276.000000 C 544.000000 292.000000, 566.000000 314.000000,577.000000 326.000000" stroke="black"  fill="transparent"/>

<line
x1="566" y1="314" x2="577" y2="326"
id="0"
style="stroke:black;stroke-width:1.000000;stroke-opacity:0" />


<line
x1="544" y1="292" x2="530" y2="276"
id="reactome_R-HSA-8952251_LEFT_TO_RIGHT-output--to--SmallMolecule_146cbf41847f618d09a091be830bcbaf"
style="stroke:black;stroke-width:1.000000;stroke-opacity:0" />


<polygon
points = "530,276 521.2,271.6 521.2,280.4"
id="line"
style="fill:black; stroke:#000000; stroke-width:1"
transform = "rotate(228.814075 530.000000 276.000000)"
/>


<path d="M293.000000 391.000000 C 274.000000 399.000000, 245.000000 412.000000,231.000000 418.000000" stroke="black"  fill="transparent"/>

<line
x1="245" y1="412" x2="231" y2="418"
id="0"
style="stroke:black;stroke-width:1.000000;stroke-opacity:0" />


<line
x1="274" y1="399" x2="293" y2="391"
id="reactome_R-HSA-1482696_LEFT_TO_RIGHT-output--to--SmallMolecule_21e7a3fbba53eddfbce9afc0a06e7616"
style="stroke:black;stroke-width:1.000000;stroke-opacity:0" />


<polygon
points = "293,391 284.2,386.6 284.2,395.4"
id="line"
style="fill:black; stroke:#000000; stroke-width:1"
transform = "rotate(-22.833654 293.000000 391.000000)"
/>


<path d="M296.000000 400.000000 C 285.000000 413.000000, 271.000000 431.000000,263.000000 441.000000" stroke="black"  fill="transparent"/>

<line
x1="271" y1="431" x2="263" y2="441"
id="0"
style="stroke:black;stroke-width:1.000000;stroke-opacity:0" />


<line
x1="285" y1="413" x2="296" y2="400"
id="reactome_R-HSA-1482612_LEFT_TO_RIGHT-output--to--SmallMolecule_21e7a3fbba53eddfbce9afc0a06e7616"
style="stroke:black;stroke-width:1.000000;stroke-opacity:0" />


<polygon
points = "296,400 287.2,395.6 287.2,404.4"
id="line"
style="fill:black; stroke:#000000; stroke-width:1"
transform = "rotate(-49.763642 296.000000 400.000000)"
/>


<path d="M169.000000 445.000000 C 185.000000 438.000000, 203.000000 430.000000,214.000000 426.000000" stroke="black"  fill="transparent"/>

<line
x1="185" y1="438" x2="169" y2="445"
id="0"
style="stroke:black;stroke-width:1.000000;stroke-opacity:0" />


<line
x1="203" y1="430" x2="214" y2="426"
id="PhysicalEntity_172e4fa7f5eb5464d11917b2299ea028--to--reactome_R-HSA-1482696_LEFT_TO_RIGHT"
style="stroke:black;stroke-width:1.000000;stroke-opacity:0" />


<ellipse
rx="4.400000"
ry="4.400000"
cx="209.864909"
cy="427.503669"
id="PhysicalEntity_172e4fa7f5eb5464d11917b2299ea028--to--reactome_R-HSA-1482696_LEFT_TO_RIGHT"
style="fill:white;fill-opacity:0.800000;stroke:black;stroke-width:1.000000;stroke-opacity:1.000000" />


<path d="M226.000000 431.000000 C 229.000000 439.000000, 236.000000 452.000000,244.000000 461.000000" stroke="black"  fill="transparent"/>
<path d="M244.000000 461.000000 C 271.000000 490.000000, 312.000000 513.000000,335.000000 524.000000" stroke="black"  fill="transparent"/>

<line
x1="312" y1="513" x2="335" y2="524"
id="0"
style="stroke:black;stroke-width:1.000000;stroke-opacity:0" />


<line
x1="229" y1="439" x2="226" y2="431"
id="SmallMolecule_0a89168776b0353568ff17f900eb6031--to--reactome_R-HSA-1482696_LEFT_TO_RIGHT-input"
style="stroke:black;stroke-width:1.000000;stroke-opacity:0" />



</svg>
