<?xml version="1.0" encoding="UTF-8"?>
<svg width="871.955384" height="1078.561189"
xmlns="http://www.w3.org/2000/svg" xmlns:svg="http://www.w3.org/2000/svg"
>
<metadata id="metadata7">image/svg+xml</metadata>

<rect
width="441.955384"
height="361.187030"
rx="11.000000"
ry="11.000000"
x="100.000000"
y="517.374160"
id="endoplasmic_reticulum_membrane"
style="fill:white;fill-opacity:0.900000;stroke:black;stroke-width:5.000000;stroke-opacity:1.000000" />


<text
x="320.977692"
y="509.374160"
id="endoplasmic_reticulum_membrane"
style="font-size:6.000000px;text-anchor:middle;font-family:Arial,Helvetica;alignment-baseline:baseline;stroke.opacity:1;dominant-baseline:baseline"
fill="black"
>
endoplasmic reticulum membrane</text>


<rect
width="319.033206"
height="279.368548"
rx="11.000000"
ry="11.000000"
x="118.103746"
y="183.000000"
id="cytosol"
style="fill:white;fill-opacity:0.900000;stroke:black;stroke-width:5.000000;stroke-opacity:1.000000" />


<text
x="277.620349"
y="175.000000"
id="cytosol"
style="font-size:6.000000px;text-anchor:middle;font-family:Arial,Helvetica;alignment-baseline:baseline;stroke.opacity:1;dominant-baseline:baseline"
fill="black"
>
cytosol</text>



<path
d="M 255.920938952354 771.294522599138 255.920938952354 862.061189265805 261.420938952354 867.561189265805 326.354272285687 867.561189265805 331.854272285687 862.061189265805 331.854272285687 771.294522599138 326.354272285687 765.794522599138 261.420938952354 765.794522599138 Z"
id="Complex_c7675fdcc3a6ff88b1ce340acd9a40b5"
style="fill:white;fill-opacity:0.600000;stroke-width:1;stroke:black;stroke-opacity:1.000000"
transform = "rotate(0.000000 0.000000 0.000000)"
/>


<text
x="293.887606"
y="757.794523"
id="Complex_c7675fdcc3a6ff88b1ce340acd9a40b5"
style="font-size:6.000000px;text-anchor:middle;font-family:Arial,Helvetica;alignment-baseline:baseline;stroke.opacity:1;dominant-baseline:baseline"
fill="black"
>
MTMR2:SBF1</text>




<rect
width="58.333333"
height="33.333333"
rx="3.333333"
ry="3.333333"
x="248.807983"
y="252.419101"
id="Protein_c813679236657bfaa7caa4f3979f4225"
style="fill:white;fill-opacity:1.000000;stroke:black;stroke-width:1.000000;stroke-opacity:1.000000" />


<text
x="277.974649"
y="271.085768"
id="Protein_c813679236657bfaa7caa4f3979f4225"
style="font-size:6.000000px;text-anchor:middle;font-family:Arial,Helvetica;alignment-baseline:baseline;stroke.opacity:1;dominant-baseline:baseline"
fill="black"
>
PI4KA/2B</text>



<ellipse
rx="16.666667"
ry="16.666667"
cx="208.898008"
cy="224.483083"
id="SmallMolecule_c23dbeeaaf1bbf19bbf385f78c5d5362"
style="fill:white;fill-opacity:0.000000;stroke:black;stroke-width:1.000000;stroke-opacity:1.000000" />


<text
x="208.898008"
y="226.483083"
id="SmallMolecule_c23dbeeaaf1bbf19bbf385f78c5d5362"
style="font-size:6.000000px;text-anchor:middle;font-family:Arial,Helvetica;alignment-baseline:baseline;stroke.opacity:1;dominant-baseline:baseline"
fill="black"
>
ATP</text>



<rect
width="58.333333"
height="33.333333"
rx="3.333333"
ry="3.333333"
x="367.803619"
y="406.937527"
id="Protein_ce2ff770b3fef935528cc3662e6ba8e1"
style="fill:white;fill-opacity:1.000000;stroke:black;stroke-width:1.000000;stroke-opacity:1.000000" />


<text
x="396.970286"
y="425.604193"
id="Protein_ce2ff770b3fef935528cc3662e6ba8e1"
style="font-size:6.000000px;text-anchor:middle;font-family:Arial,Helvetica;alignment-baseline:baseline;stroke.opacity:1;dominant-baseline:baseline"
fill="black"
>
MTMR2</text>


<ellipse
rx="14.583333"
ry="7.291667"
cx="382.386953"
cy="406.937527"
id="Protein_ce2ff770b3fef935528cc3662e6ba8e1.info.1"
style="fill:white;fill-opacity:1.000000;stroke:black;stroke-width:1.000000;stroke-opacity:1.000000" />


<text
x="382.386953"
y="408.937527"
id="Protein_ce2ff770b3fef935528cc3662e6ba8e1.info.1"
style="font-size:6.000000px;text-anchor:middle;font-family:Arial,Helvetica;alignment-baseline:baseline;stroke.opacity:1;dominant-baseline:baseline"
fill="black"
>
x[1-643]</text>



<ellipse
rx="16.666667"
ry="16.666667"
cx="145.770413"
cy="210.666667"
id="SmallMolecule_c4a2701aaf606547b7a0eb77ec92c0dc"
style="fill:white;fill-opacity:0.000000;stroke:black;stroke-width:1.000000;stroke-opacity:1.000000" />


<text
x="145.770413"
y="212.666667"
id="SmallMolecule_c4a2701aaf606547b7a0eb77ec92c0dc"
style="font-size:6.000000px;text-anchor:middle;font-family:Arial,Helvetica;alignment-baseline:baseline;stroke.opacity:1;dominant-baseline:baseline"
fill="black"
>
ADP</text>



<ellipse
rx="16.666667"
ry="16.666667"
cx="223.256787"
cy="400.262505"
id="SmallMolecule_607669d2691ca0e011088977d0427bf3"
style="fill:white;fill-opacity:0.000000;stroke:black;stroke-width:1.000000;stroke-opacity:1.000000" />


<text
x="223.256787"
y="402.262505"
id="SmallMolecule_607669d2691ca0e011088977d0427bf3"
style="font-size:6.000000px;text-anchor:middle;font-family:Arial,Helvetica;alignment-baseline:baseline;stroke.opacity:1;dominant-baseline:baseline"
fill="black"
>
Pi</text>



<ellipse
rx="16.666667"
ry="16.666667"
cx="286.833820"
cy="434.701881"
id="SmallMolecule_bfe0d4cd6c12bac80101dff1b5e1f783"
style="fill:white;fill-opacity:0.000000;stroke:black;stroke-width:1.000000;stroke-opacity:1.000000" />


<text
x="286.833820"
y="436.701881"
id="SmallMolecule_bfe0d4cd6c12bac80101dff1b5e1f783"
style="font-size:6.000000px;text-anchor:middle;font-family:Arial,Helvetica;alignment-baseline:baseline;stroke.opacity:1;dominant-baseline:baseline"
fill="black"
>
H2O</text>


<rect
width="16.666667"
height="16.666667"
rx="0.000000"
ry="0.000000"
x="150.469910"
y="325.026818"
id="reactome_R-HSA-1675813_LEFT_TO_RIGHT"
style="fill:white;fill-opacity:0.600000;stroke:black;stroke-width:1.000000;stroke-opacity:1.000000" />




<ellipse
rx="16.666667"
ry="16.666667"
cx="142.970265"
cy="606.202886"
id="SmallMolecule_990832584dc7963aeb15bd1465d73375"
style="fill:white;fill-opacity:0.000000;stroke:black;stroke-width:1.000000;stroke-opacity:1.000000" />


<text
x="142.970265"
y="608.202886"
id="SmallMolecule_990832584dc7963aeb15bd1465d73375"
style="font-size:6.000000px;text-anchor:middle;font-family:Arial,Helvetica;alignment-baseline:baseline;stroke.opacity:1;dominant-baseline:baseline"
fill="black"
>
PI4P</text>



<ellipse
rx="16.666667"
ry="16.666667"
cx="268.692518"
cy="632.743731"
id="SmallMolecule_93a8de9224bc56cecc55285fe91058ed"
style="fill:white;fill-opacity:0.000000;stroke:black;stroke-width:1.000000;stroke-opacity:1.000000" />


<text
x="268.692518"
y="634.743731"
id="SmallMolecule_93a8de9224bc56cecc55285fe91058ed"
style="font-size:6.000000px;text-anchor:middle;font-family:Arial,Helvetica;alignment-baseline:baseline;stroke.opacity:1;dominant-baseline:baseline"
fill="black"
>
PI3P</text>



<ellipse
rx="16.666667"
ry="16.666667"
cx="404.414759"
cy="704.091501"
id="SmallMolecule_0f6da27eab694b4c44083d72013fe17e"
style="fill:white;fill-opacity:0.000000;stroke:black;stroke-width:1.000000;stroke-opacity:1.000000" />


<text
x="404.414759"
y="706.091501"
id="SmallMolecule_0f6da27eab694b4c44083d72013fe17e"
style="font-size:6.000000px;text-anchor:middle;font-family:Arial,Helvetica;alignment-baseline:baseline;stroke.opacity:1;dominant-baseline:baseline"
fill="black"
>
PI(3,5)P2</text>



<rect
width="58.333333"
height="33.333333"
rx="3.333333"
ry="3.333333"
x="472.622050"
y="792.965205"
id="Protein_ed76f117c03193a5221e7b4c4e9f0db9"
style="fill:white;fill-opacity:1.000000;stroke:black;stroke-width:1.000000;stroke-opacity:1.000000" />


<text
x="501.788717"
y="811.631872"
id="Protein_ed76f117c03193a5221e7b4c4e9f0db9"
style="font-size:6.000000px;text-anchor:middle;font-family:Arial,Helvetica;alignment-baseline:baseline;stroke.opacity:1;dominant-baseline:baseline"
fill="black"
>
SBF1</text>


<ellipse
rx="14.583333"
ry="7.291667"
cx="487.205384"
cy="792.965205"
id="Protein_ed76f117c03193a5221e7b4c4e9f0db9.info.1"
style="fill:white;fill-opacity:1.000000;stroke:black;stroke-width:1.000000;stroke-opacity:1.000000" />


<text
x="487.205384"
y="794.965205"
id="Protein_ed76f117c03193a5221e7b4c4e9f0db9.info.1"
style="font-size:6.000000px;text-anchor:middle;font-family:Arial,Helvetica;alignment-baseline:baseline;stroke.opacity:1;dominant-baseline:baseline"
fill="black"
>
x[1-1867]</text>



<rect
width="58.333333"
height="33.333333"
rx="3.333333"
ry="3.333333"
x="111.000000"
y="528.374160"
id="Protein_8c1c673c0b0b47f93945755be2fff4d1"
style="fill:white;fill-opacity:1.000000;stroke:black;stroke-width:1.000000;stroke-opacity:1.000000" />


<text
x="140.166667"
y="547.040826"
id="Protein_8c1c673c0b0b47f93945755be2fff4d1"
style="font-size:6.000000px;text-anchor:middle;font-family:Arial,Helvetica;alignment-baseline:baseline;stroke.opacity:1;dominant-baseline:baseline"
fill="black"
>
SACM1L</text>


<ellipse
rx="14.583333"
ry="7.291667"
cx="125.583333"
cy="528.374160"
id="Protein_8c1c673c0b0b47f93945755be2fff4d1.info.1"
style="fill:white;fill-opacity:1.000000;stroke:black;stroke-width:1.000000;stroke-opacity:1.000000" />


<text
x="125.583333"
y="530.374160"
id="Protein_8c1c673c0b0b47f93945755be2fff4d1.info.1"
style="font-size:6.000000px;text-anchor:middle;font-family:Arial,Helvetica;alignment-baseline:baseline;stroke.opacity:1;dominant-baseline:baseline"
fill="black"
>
x[1-587]</text>



<ellipse
rx="16.666667"
ry="16.666667"
cx="416.531361"
cy="604.078414"
id="SmallMolecule_b37839f82f86de42774b56d338df2f7e"
style="fill:white;fill-opacity:0.000000;stroke:black;stroke-width:1.000000;stroke-opacity:1.000000" />


<text
x="416.531361"
y="606.078414"
id="SmallMolecule_b37839f82f86de42774b56d338df2f7e"
style="font-size:6.000000px;text-anchor:middle;font-family:Arial,Helvetica;alignment-baseline:baseline;stroke.opacity:1;dominant-baseline:baseline"
fill="black"
>
PI5P</text>



<ellipse
rx="16.666667"
ry="16.666667"
cx="211.359226"
cy="662.279222"
id="SmallMolecule_353f87db1345dc821c81d2698ab11257"
style="fill:white;fill-opacity:0.000000;stroke:black;stroke-width:1.000000;stroke-opacity:1.000000" />


<text
x="211.359226"
y="664.279222"
id="SmallMolecule_353f87db1345dc821c81d2698ab11257"
style="font-size:6.000000px;text-anchor:middle;font-family:Arial,Helvetica;alignment-baseline:baseline;stroke.opacity:1;dominant-baseline:baseline"
fill="black"
>
PI</text>



<rect
width="58.333333"
height="33.333333"
rx="3.333333"
ry="3.333333"
x="264.720939"
y="774.594523"
id="Protein_ce2ff770b3fef935528cc3662e6ba8e1_Complex_c7675fdcc3a6ff88b1ce340acd9a40b5"
style="fill:white;fill-opacity:1.000000;stroke:black;stroke-width:1.000000;stroke-opacity:1.000000" />


<text
x="293.887606"
y="793.261189"
id="Protein_ce2ff770b3fef935528cc3662e6ba8e1_Complex_c7675fdcc3a6ff88b1ce340acd9a40b5"
style="font-size:6.000000px;text-anchor:middle;font-family:Arial,Helvetica;alignment-baseline:baseline;stroke.opacity:1;dominant-baseline:baseline"
fill="black"
>
MTMR2</text>


<ellipse
rx="14.583333"
ry="7.291667"
cx="279.304272"
cy="774.594523"
id="Protein_ce2ff770b3fef935528cc3662e6ba8e1_Complex_c7675fdcc3a6ff88b1ce340acd9a40b5.info.1"
style="fill:white;fill-opacity:1.000000;stroke:black;stroke-width:1.000000;stroke-opacity:1.000000" />


<text
x="279.304272"
y="776.594523"
id="Protein_ce2ff770b3fef935528cc3662e6ba8e1_Complex_c7675fdcc3a6ff88b1ce340acd9a40b5.info.1"
style="font-size:6.000000px;text-anchor:middle;font-family:Arial,Helvetica;alignment-baseline:baseline;stroke.opacity:1;dominant-baseline:baseline"
fill="black"
>
x[1-643]</text>



<rect
width="58.333333"
height="33.333333"
rx="3.333333"
ry="3.333333"
x="264.720939"
y="825.427856"
id="Protein_ed76f117c03193a5221e7b4c4e9f0db9_Complex_c7675fdcc3a6ff88b1ce340acd9a40b5"
style="fill:white;fill-opacity:1.000000;stroke:black;stroke-width:1.000000;stroke-opacity:1.000000" />


<text
x="293.887606"
y="844.094523"
id="Protein_ed76f117c03193a5221e7b4c4e9f0db9_Complex_c7675fdcc3a6ff88b1ce340acd9a40b5"
style="font-size:6.000000px;text-anchor:middle;font-family:Arial,Helvetica;alignment-baseline:baseline;stroke.opacity:1;dominant-baseline:baseline"
fill="black"
>
SBF1</text>


<ellipse
rx="14.583333"
ry="7.291667"
cx="279.304272"
cy="825.427856"
id="Protein_ed76f117c03193a5221e7b4c4e9f0db9_Complex_c7675fdcc3a6ff88b1ce340acd9a40b5.info.1"
style="fill:white;fill-opacity:1.000000;stroke:black;stroke-width:1.000000;stroke-opacity:1.000000" />


<text
x="279.304272"
y="827.427856"
id="Protein_ed76f117c03193a5221e7b4c4e9f0db9_Complex_c7675fdcc3a6ff88b1ce340acd9a40b5.info.1"
style="font-size:6.000000px;text-anchor:middle;font-family:Arial,Helvetica;alignment-baseline:baseline;stroke.opacity:1;dominant-baseline:baseline"
fill="black"
>
x[1-1867]</text>


<rect
width="16.666667"
height="16.666667"
rx="0.000000"
ry="0.000000"
x="289.808008"
y="685.021463"
id="reactome_R-HSA-6809777_LEFT_TO_RIGHT"
style="fill:white;fill-opacity:0.600000;stroke:black;stroke-width:1.000000;stroke-opacity:1.000000" />



<rect
width="16.666667"
height="16.666667"
rx="0.000000"
ry="0.000000"
x="210.568092"
y="594.021144"
id="reactome_R-HSA-1676124_LEFT_TO_RIGHT"
style="fill:white;fill-opacity:0.600000;stroke:black;stroke-width:1.000000;stroke-opacity:1.000000" />



<rect
width="16.666667"
height="16.666667"
rx="0.000000"
ry="0.000000"
x="453.591611"
y="716.964875"
id="reactome_R-HSA-6809764_LEFT_TO_RIGHT"
style="fill:white;fill-opacity:0.600000;stroke:black;stroke-width:1.000000;stroke-opacity:1.000000" />



<rect
width="16.666667"
height="16.666667"
rx="0.000000"
ry="0.000000"
x="331.408056"
y="677.717638"
id="reactome_R-HSA-6809778_LEFT_TO_RIGHT"
style="fill:white;fill-opacity:0.600000;stroke:black;stroke-width:1.000000;stroke-opacity:1.000000" />





<path d="M387.000000 699.000000 C 375.000000 695.000000, 358.000000 691.000000,348.000000 688.000000" stroke="black"  fill="transparent"/>

<line
x1="375" y1="695" x2="387" y2="699"
id="0"
style="stroke:black;stroke-width:1.000000;stroke-opacity:0" />


<line
x1="358" y1="691" x2="348" y2="688"
id="SmallMolecule_0f6da27eab694b4c44083d72013fe17e--to--reactome_R-HSA-6809778_LEFT_TO_RIGHT-input"
style="stroke:black;stroke-width:1.000000;stroke-opacity:0" />


<path d="M493.000000 792.000000 C 485.000000 775.000000, 472.000000 748.000000,466.000000 734.000000" stroke="black"  fill="transparent"/>

<line
x1="485" y1="775" x2="493" y2="792"
id="0"
style="stroke:black;stroke-width:1.000000;stroke-opacity:0" />


<line
x1="472" y1="748" x2="466" y2="734"
id="Protein_ed76f117c03193a5221e7b4c4e9f0db9--to--reactome_R-HSA-6809764_LEFT_TO_RIGHT-input"
style="stroke:black;stroke-width:1.000000;stroke-opacity:0" />


<path d="M311.000000 765.000000 C 321.000000 738.000000, 331.000000 708.000000,336.000000 694.000000" stroke="black"  fill="transparent"/>

<line
x1="321" y1="738" x2="311" y2="765"
id="0"
style="stroke:black;stroke-width:1.000000;stroke-opacity:0" />


<line
x1="331" y1="708" x2="336" y2="694"
id="Complex_c7675fdcc3a6ff88b1ce340acd9a40b5--to--reactome_R-HSA-6809778_LEFT_TO_RIGHT"
style="stroke:black;stroke-width:1.000000;stroke-opacity:0" />


<ellipse
rx="4.400000"
ry="4.400000"
cx="334.520120"
cy="698.143664"
id="Complex_c7675fdcc3a6ff88b1ce340acd9a40b5--to--reactome_R-HSA-6809778_LEFT_TO_RIGHT"
style="fill:white;fill-opacity:0.800000;stroke:black;stroke-width:1.000000;stroke-opacity:1.000000" />


<path d="M227.000000 668.000000 C 246.000000 674.000000, 275.000000 685.000000,289.000000 690.000000" stroke="black"  fill="transparent"/>

<line
x1="275" y1="685" x2="289" y2="690"
id="0"
style="stroke:black;stroke-width:1.000000;stroke-opacity:0" />


<line
x1="246" y1="674" x2="227" y2="668"
id="reactome_R-HSA-6809777_LEFT_TO_RIGHT-output--to--SmallMolecule_353f87db1345dc821c81d2698ab11257"
style="stroke:black;stroke-width:1.000000;stroke-opacity:0" />


<polygon
points = "227,668 218.2,663.6 218.2,672.4"
id="line"
style="fill:black; stroke:#000000; stroke-width:1"
transform = "rotate(197.525568 227.000000 668.000000)"
/>


<path d="M248.000000 284.000000 C 222.000000 299.000000, 184.000000 319.000000,167.000000 328.000000" stroke="black"  fill="transparent"/>

<line
x1="222" y1="299" x2="248" y2="284"
id="0"
style="stroke:black;stroke-width:1.000000;stroke-opacity:0" />


<line
x1="184" y1="319" x2="167" y2="328"
id="Protein_c813679236657bfaa7caa4f3979f4225--to--reactome_R-HSA-1675813_LEFT_TO_RIGHT"
style="stroke:black;stroke-width:1.000000;stroke-opacity:0" />


<ellipse
rx="4.400000"
ry="4.400000"
cx="170.888667"
cy="325.941294"
id="Protein_c813679236657bfaa7caa4f3979f4225--to--reactome_R-HSA-1675813_LEFT_TO_RIGHT"
style="fill:white;fill-opacity:0.800000;stroke:black;stroke-width:1.000000;stroke-opacity:1.000000" />


<path d="M162.000000 561.000000 C 178.000000 573.000000, 199.000000 588.000000,210.000000 596.000000" stroke="black"  fill="transparent"/>

<line
x1="178" y1="573" x2="162" y2="561"
id="0"
style="stroke:black;stroke-width:1.000000;stroke-opacity:0" />


<line
x1="199" y1="588" x2="210" y2="596"
id="Protein_8c1c673c0b0b47f93945755be2fff4d1--to--reactome_R-HSA-1676124_LEFT_TO_RIGHT"
style="stroke:black;stroke-width:1.000000;stroke-opacity:0" />


<ellipse
rx="4.400000"
ry="4.400000"
cx="206.441561"
cy="593.412045"
id="Protein_8c1c673c0b0b47f93945755be2fff4d1--to--reactome_R-HSA-1676124_LEFT_TO_RIGHT"
style="fill:white;fill-opacity:0.800000;stroke:black;stroke-width:1.000000;stroke-opacity:1.000000" />


<path d="M229.000000 416.000000 C 242.000000 452.000000, 272.000000 538.000000,288.000000 613.000000" stroke="black"  fill="transparent"/>
<path d="M288.000000 613.000000 C 293.000000 638.000000, 296.000000 670.000000,297.000000 684.000000" stroke="black"  fill="transparent"/>

<line
x1="296" y1="670" x2="297" y2="684"
id="0"
style="stroke:black;stroke-width:1.000000;stroke-opacity:0" />


<line
x1="242" y1="452" x2="229" y2="416"
id="reactome_R-HSA-6809777_LEFT_TO_RIGHT-output--to--SmallMolecule_607669d2691ca0e011088977d0427bf3"
style="stroke:black;stroke-width:1.000000;stroke-opacity:0" />


<polygon
points = "229,416 220.2,411.6 220.2,420.4"
id="line"
style="fill:black; stroke:#000000; stroke-width:1"
transform = "rotate(250.144786 229.000000 416.000000)"
/>


<path d="M276.000000 649.000000 C 282.000000 660.000000, 289.000000 675.000000,294.000000 684.000000" stroke="black"  fill="transparent"/>

<line
x1="282" y1="660" x2="276" y2="649"
id="0"
style="stroke:black;stroke-width:1.000000;stroke-opacity:0" />


<line
x1="289" y1="675" x2="294" y2="684"
id="SmallMolecule_93a8de9224bc56cecc55285fe91058ed--to--reactome_R-HSA-6809777_LEFT_TO_RIGHT-input"
style="stroke:black;stroke-width:1.000000;stroke-opacity:0" />


<path d="M295.000000 765.000000 C 296.000000 741.000000, 297.000000 715.000000,297.000000 701.000000" stroke="black"  fill="transparent"/>

<line
x1="296" y1="741" x2="295" y2="765"
id="0"
style="stroke:black;stroke-width:1.000000;stroke-opacity:0" />


<line
x1="297" y1="715" x2="297" y2="701"
id="Complex_c7675fdcc3a6ff88b1ce340acd9a40b5--to--reactome_R-HSA-6809777_LEFT_TO_RIGHT"
style="stroke:black;stroke-width:1.000000;stroke-opacity:0" />


<ellipse
rx="4.400000"
ry="4.400000"
cx="297.000000"
cy="705.400000"
id="Complex_c7675fdcc3a6ff88b1ce340acd9a40b5--to--reactome_R-HSA-6809777_LEFT_TO_RIGHT"
style="fill:white;fill-opacity:0.800000;stroke:black;stroke-width:1.000000;stroke-opacity:1.000000" />


<path d="M400.000000 620.000000 C 384.000000 637.000000, 360.000000 664.000000,347.000000 677.000000" stroke="black"  fill="transparent"/>

<line
x1="360" y1="664" x2="347" y2="677"
id="0"
style="stroke:black;stroke-width:1.000000;stroke-opacity:0" />


<line
x1="384" y1="637" x2="400" y2="620"
id="reactome_R-HSA-6809778_LEFT_TO_RIGHT-output--to--SmallMolecule_b37839f82f86de42774b56d338df2f7e"
style="stroke:black;stroke-width:1.000000;stroke-opacity:0" />


<polygon
points = "400,620 391.2,615.6 391.2,624.4"
id="line"
style="fill:black; stroke:#000000; stroke-width:1"
transform = "rotate(-46.735705 400.000000 620.000000)"
/>


<path d="M287.000000 451.000000 C 289.000000 501.000000, 296.000000 647.000000,297.000000 684.000000" stroke="black"  fill="transparent"/>

<line
x1="289" y1="501" x2="287" y2="451"
id="0"
style="stroke:black;stroke-width:1.000000;stroke-opacity:0" />


<line
x1="296" y1="647" x2="297" y2="684"
id="SmallMolecule_bfe0d4cd6c12bac80101dff1b5e1f783--to--reactome_R-HSA-6809777_LEFT_TO_RIGHT-input"
style="stroke:black;stroke-width:1.000000;stroke-opacity:0" />


<path d="M147.000000 227.000000 C 150.000000 253.000000, 155.000000 304.000000,157.000000 324.000000" stroke="black"  fill="transparent"/>

<line
x1="155" y1="304" x2="157" y2="324"
id="0"
style="stroke:black;stroke-width:1.000000;stroke-opacity:0" />


<line
x1="150" y1="253" x2="147" y2="227"
id="reactome_R-HSA-1675813_LEFT_TO_RIGHT-output--to--SmallMolecule_c4a2701aaf606547b7a0eb77ec92c0dc"
style="stroke:black;stroke-width:1.000000;stroke-opacity:0" />


<polygon
points = "147,227 138.2,222.6 138.2,231.4"
id="line"
style="fill:black; stroke:#000000; stroke-width:1"
transform = "rotate(263.418055 147.000000 227.000000)"
/>


<path d="M401.000000 440.000000 C 409.000000 469.000000, 424.000000 531.000000,436.000000 584.000000" stroke="black"  fill="transparent"/>
<path d="M436.000000 584.000000 C 446.000000 634.000000, 456.000000 694.000000,460.000000 716.000000" stroke="black"  fill="transparent"/>

<line
x1="409" y1="469" x2="401" y2="440"
id="0"
style="stroke:black;stroke-width:1.000000;stroke-opacity:0" />


<line
x1="456" y1="694" x2="460" y2="716"
id="Protein_ce2ff770b3fef935528cc3662e6ba8e1--to--reactome_R-HSA-6809764_LEFT_TO_RIGHT-input"
style="stroke:black;stroke-width:1.000000;stroke-opacity:0" />


<path d="M160.000000 342.000000 C 167.000000 386.000000, 199.000000 586.000000,208.000000 645.000000" stroke="black"  fill="transparent"/>

<line
x1="199" y1="586" x2="208" y2="645"
id="0"
style="stroke:black;stroke-width:1.000000;stroke-opacity:0" />


<line
x1="167" y1="386" x2="160" y2="342"
id="SmallMolecule_353f87db1345dc821c81d2698ab11257--to--reactome_R-HSA-1675813_LEFT_TO_RIGHT-input"
style="stroke:black;stroke-width:1.000000;stroke-opacity:0" />


<path d="M290.000000 451.000000 C 300.000000 500.000000, 330.000000 640.000000,337.000000 677.000000" stroke="black"  fill="transparent"/>

<line
x1="300" y1="500" x2="290" y2="451"
id="0"
style="stroke:black;stroke-width:1.000000;stroke-opacity:0" />


<line
x1="330" y1="640" x2="337" y2="677"
id="SmallMolecule_bfe0d4cd6c12bac80101dff1b5e1f783--to--reactome_R-HSA-6809778_LEFT_TO_RIGHT-input"
style="stroke:black;stroke-width:1.000000;stroke-opacity:0" />


<path d="M159.000000 605.000000 C 175.000000 604.000000, 198.000000 603.000000,210.000000 602.000000" stroke="black"  fill="transparent"/>

<line
x1="175" y1="604" x2="159" y2="605"
id="0"
style="stroke:black;stroke-width:1.000000;stroke-opacity:0" />


<line
x1="198" y1="603" x2="210" y2="602"
id="SmallMolecule_990832584dc7963aeb15bd1465d73375--to--reactome_R-HSA-1676124_LEFT_TO_RIGHT-input"
style="stroke:black;stroke-width:1.000000;stroke-opacity:0" />


<path d="M230.000000 416.000000 C 251.000000 470.000000, 320.000000 637.000000,336.000000 677.000000" stroke="black"  fill="transparent"/>

<line
x1="320" y1="637" x2="336" y2="677"
id="0"
style="stroke:black;stroke-width:1.000000;stroke-opacity:0" />


<line
x1="251" y1="470" x2="230" y2="416"
id="reactome_R-HSA-6809778_LEFT_TO_RIGHT-output--to--SmallMolecule_607669d2691ca0e011088977d0427bf3"
style="stroke:black;stroke-width:1.000000;stroke-opacity:0" />


<polygon
points = "230,416 221.2,411.6 221.2,420.4"
id="line"
style="fill:black; stroke:#000000; stroke-width:1"
transform = "rotate(248.749494 230.000000 416.000000)"
/>


<path d="M280.000000 451.000000 C 265.000000 486.000000, 233.000000 566.000000,222.000000 593.000000" stroke="black"  fill="transparent"/>

<line
x1="265" y1="486" x2="280" y2="451"
id="0"
style="stroke:black;stroke-width:1.000000;stroke-opacity:0" />


<line
x1="233" y1="566" x2="222" y2="593"
id="SmallMolecule_bfe0d4cd6c12bac80101dff1b5e1f783--to--reactome_R-HSA-1676124_LEFT_TO_RIGHT-input"
style="stroke:black;stroke-width:1.000000;stroke-opacity:0" />


<path d="M161.000000 342.000000 C 170.000000 373.000000, 198.000000 481.000000,172.000000 564.000000" stroke="black"  fill="transparent"/>
<path d="M172.000000 564.000000 C 169.000000 573.000000, 164.000000 582.000000,158.000000 589.000000" stroke="black"  fill="transparent"/>

<line
x1="170" y1="373" x2="161" y2="342"
id="0"
style="stroke:black;stroke-width:1.000000;stroke-opacity:0" />


<line
x1="164" y1="582" x2="158" y2="589"
id="reactome_R-HSA-1675813_LEFT_TO_RIGHT-output--to--SmallMolecule_990832584dc7963aeb15bd1465d73375"
style="stroke:black;stroke-width:1.000000;stroke-opacity:0" />


<polygon
points = "158,589 149.2,584.6 149.2,593.4"
id="line"
style="fill:black; stroke:#000000; stroke-width:1"
transform = "rotate(130.601295 158.000000 589.000000)"
/>


<path d="M201.000000 241.000000 C 190.000000 264.000000, 171.000000 306.000000,162.000000 324.000000" stroke="black"  fill="transparent"/>

<line
x1="190" y1="264" x2="201" y2="241"
id="0"
style="stroke:black;stroke-width:1.000000;stroke-opacity:0" />


<line
x1="171" y1="306" x2="162" y2="324"
id="SmallMolecule_c23dbeeaaf1bbf19bbf385f78c5d5362--to--reactome_R-HSA-1675813_LEFT_TO_RIGHT-input"
style="stroke:black;stroke-width:1.000000;stroke-opacity:0" />


<path d="M222.000000 416.000000 C 222.000000 457.000000, 219.000000 562.000000,219.000000 593.000000" stroke="black"  fill="transparent"/>

<line
x1="219" y1="562" x2="219" y2="593"
id="0"
style="stroke:black;stroke-width:1.000000;stroke-opacity:0" />


<line
x1="222" y1="457" x2="222" y2="416"
id="reactome_R-HSA-1676124_LEFT_TO_RIGHT-output--to--SmallMolecule_607669d2691ca0e011088977d0427bf3"
style="stroke:black;stroke-width:1.000000;stroke-opacity:0" />


<polygon
points = "222,416 213.2,411.6 213.2,420.4"
id="line"
style="fill:black; stroke:#000000; stroke-width:1"
transform = "rotate(270.000000 222.000000 416.000000)"
/>


<path d="M332.000000 795.000000 C 371.000000 774.000000, 431.000000 741.000000,453.000000 729.000000" stroke="black"  fill="transparent"/>

<line
x1="431" y1="741" x2="453" y2="729"
id="0"
style="stroke:black;stroke-width:1.000000;stroke-opacity:0" />


<line
x1="371" y1="774" x2="332" y2="795"
id="reactome_R-HSA-6809764_LEFT_TO_RIGHT-output--to--Complex_c7675fdcc3a6ff88b1ce340acd9a40b5"
style="stroke:black;stroke-width:1.000000;stroke-opacity:0" />


<polygon
points = "332,795 323.2,790.6 323.2,799.4"
id="line"
style="fill:black; stroke:#000000; stroke-width:1"
transform = "rotate(151.699244 332.000000 795.000000)"
/>


<path d="M213.000000 645.000000 C 214.000000 634.000000, 216.000000 620.000000,217.000000 611.000000" stroke="black"  fill="transparent"/>

<line
x1="216" y1="620" x2="217" y2="611"
id="0"
style="stroke:black;stroke-width:1.000000;stroke-opacity:0" />


<line
x1="214" y1="634" x2="213" y2="645"
id="reactome_R-HSA-1676124_LEFT_TO_RIGHT-output--to--SmallMolecule_353f87db1345dc821c81d2698ab11257"
style="stroke:black;stroke-width:1.000000;stroke-opacity:0" />


<polygon
points = "213,645 204.2,640.6 204.2,649.4"
id="line"
style="fill:black; stroke:#000000; stroke-width:1"
transform = "rotate(95.194429 213.000000 645.000000)"
/>



</svg>
