<?xml version="1.0" encoding="UTF-8"?>
<svg width="998.777719" height="794.345416"
xmlns="http://www.w3.org/2000/svg" xmlns:svg="http://www.w3.org/2000/svg"
>
<metadata id="metadata7">image/svg+xml</metadata>





<ellipse
rx="16.666667"
ry="16.666667"
cx="212.101093"
cy="380.295515"
id="SmallMolecule_9492bcad93b3ed7f8316c8e263782c45"
style="fill:white;fill-opacity:0.000000;stroke:black;stroke-width:1.000000;stroke-opacity:1.000000" />


<text
x="212.101093"
y="382.295515"
id="SmallMolecule_9492bcad93b3ed7f8316c8e263782c45"
style="font-size:6.000000px;text-anchor:middle;font-family:Arial,Helvetica;alignment-baseline:baseline;stroke.opacity:1;dominant-baseline:baseline"
fill="black"
>
Xanthine</text>



<ellipse
rx="16.666667"
ry="16.666667"
cx="472.722861"
cy="258.398718"
id="SmallMolecule_95bbe3740a74491c29736386d3e06125"
style="fill:white;fill-opacity:0.000000;stroke:black;stroke-width:1.000000;stroke-opacity:1.000000" />


<text
x="472.722861"
y="260.398718"
id="SmallMolecule_95bbe3740a74491c29736386d3e06125"
style="font-size:6.000000px;text-anchor:middle;font-family:Arial,Helvetica;alignment-baseline:baseline;stroke.opacity:1;dominant-baseline:baseline"
fill="black"
>
GMP</text>



<ellipse
rx="16.666667"
ry="16.666667"
cx="613.133281"
cy="386.259934"
id="SmallMolecule_067280b8b822ca79f313ec8eebae1ca8"
style="fill:white;fill-opacity:0.000000;stroke:black;stroke-width:1.000000;stroke-opacity:1.000000" />


<text
x="613.133281"
y="388.259934"
id="SmallMolecule_067280b8b822ca79f313ec8eebae1ca8"
style="font-size:6.000000px;text-anchor:middle;font-family:Arial,Helvetica;alignment-baseline:baseline;stroke.opacity:1;dominant-baseline:baseline"
fill="black"
>
ATP</text>


<rect
width="16.666667"
height="16.666667"
rx="0.000000"
ry="0.000000"
x="301.921317"
y="367.275957"
id="BiochemicalReaction_4eacfc3eec2ab88372352baea65720a9_LEFT_TO_RIGHT"
style="fill:white;fill-opacity:0.600000;stroke:black;stroke-width:1.000000;stroke-opacity:1.000000" />



<rect
width="16.666667"
height="16.666667"
rx="0.000000"
ry="0.000000"
x="227.878726"
y="477.058976"
id="BiochemicalReaction_e98c91988adf5e5b584bba3a2746268e_LEFT_TO_RIGHT"
style="fill:white;fill-opacity:0.600000;stroke:black;stroke-width:1.000000;stroke-opacity:1.000000" />




<ellipse
rx="16.666667"
ry="16.666667"
cx="329.316494"
cy="447.315753"
id="SmallMolecule_893d4e9a3537b8b355892e0ccabca0cc"
style="fill:white;fill-opacity:0.000000;stroke:black;stroke-width:1.000000;stroke-opacity:1.000000" />


<text
x="329.316494"
y="449.315753"
id="SmallMolecule_893d4e9a3537b8b355892e0ccabca0cc"
style="font-size:6.000000px;text-anchor:middle;font-family:Arial,Helvetica;alignment-baseline:baseline;stroke.opacity:1;dominant-baseline:baseline"
fill="black"
>
PO4</text>



<rect
width="58.333333"
height="33.333333"
rx="3.333333"
ry="3.333333"
x="103.972598"
y="490.840035"
id="Protein_d5ce93cb60a0ff0f5378a73de3264295"
style="fill:white;fill-opacity:1.000000;stroke:black;stroke-width:1.000000;stroke-opacity:1.000000" />



<text
x="133.139264"
y="506.506702"
id="Protein_d5ce93cb60a0ff0f5378a73de3264295"
style="font-size:6.000000px;text-anchor:middle;font-family:Arial,Helvetica;alignment-baseline:baseline;stroke.opacity:1;dominant-baseline:baseline"
fill="black"
>
Xanthosine phosphor-</text>


<text
x="133.139264"
y="512.506702"
id="Protein_d5ce93cb60a0ff0f5378a73de3264295"
style="font-size:6.000000px;text-anchor:middle;font-family:Arial,Helvetica;alignment-baseline:baseline;stroke.opacity:1;dominant-baseline:baseline"
fill="black"
>
ylase</text>


<rect
width="16.666667"
height="16.666667"
rx="0.000000"
ry="0.000000"
x="404.562470"
y="440.690603"
id="BiochemicalReaction_9b922d8a06a77131b80bf2152b5fbf03_LEFT_TO_RIGHT"
style="fill:white;fill-opacity:0.600000;stroke:black;stroke-width:1.000000;stroke-opacity:1.000000" />




<ellipse
rx="16.666667"
ry="16.666667"
cx="441.760765"
cy="572.983216"
id="SmallMolecule_dd2ae823bc58de69884357b1bb741082"
style="fill:white;fill-opacity:0.000000;stroke:black;stroke-width:1.000000;stroke-opacity:1.000000" />


<text
x="441.760765"
y="574.983216"
id="SmallMolecule_dd2ae823bc58de69884357b1bb741082"
style="font-size:6.000000px;text-anchor:middle;font-family:Arial,Helvetica;alignment-baseline:baseline;stroke.opacity:1;dominant-baseline:baseline"
fill="black"
>
deoxyguanosine</text>



<ellipse
rx="16.666667"
ry="16.666667"
cx="321.497644"
cy="510.021429"
id="SmallMolecule_27cee4d5012f3a1fdbc373a090734089"
style="fill:white;fill-opacity:0.000000;stroke:black;stroke-width:1.000000;stroke-opacity:1.000000" />



<text
x="321.497644"
y="509.021429"
id="SmallMolecule_27cee4d5012f3a1fdbc373a090734089"
style="font-size:6.000000px;text-anchor:middle;font-family:Arial,Helvetica;alignment-baseline:baseline;stroke.opacity:1;dominant-baseline:baseline"
fill="black"
>
Ribose 1-Ph-</text>


<text
x="321.497644"
y="515.021429"
id="SmallMolecule_27cee4d5012f3a1fdbc373a090734089"
style="font-size:6.000000px;text-anchor:middle;font-family:Arial,Helvetica;alignment-baseline:baseline;stroke.opacity:1;dominant-baseline:baseline"
fill="black"
>
osphate</text>



<ellipse
rx="16.666667"
ry="16.666667"
cx="312.117082"
cy="242.480877"
id="SmallMolecule_687e65b7b823f61eb77eb98677e6c889"
style="fill:white;fill-opacity:0.000000;stroke:black;stroke-width:1.000000;stroke-opacity:1.000000" />


<text
x="312.117082"
y="244.480877"
id="SmallMolecule_687e65b7b823f61eb77eb98677e6c889"
style="font-size:6.000000px;text-anchor:middle;font-family:Arial,Helvetica;alignment-baseline:baseline;stroke.opacity:1;dominant-baseline:baseline"
fill="black"
>
PRPP</text>



<ellipse
rx="16.666667"
ry="16.666667"
cx="145.839896"
cy="311.016151"
id="SmallMolecule_fc770e1e81329acd2e7028609a7f9fc1"
style="fill:white;fill-opacity:0.000000;stroke:black;stroke-width:1.000000;stroke-opacity:1.000000" />



<text
x="145.839896"
y="310.016151"
id="SmallMolecule_fc770e1e81329acd2e7028609a7f9fc1"
style="font-size:6.000000px;text-anchor:middle;font-family:Arial,Helvetica;alignment-baseline:baseline;stroke.opacity:1;dominant-baseline:baseline"
fill="black"
>
xanthosine-</text>


<text
x="145.839896"
y="316.016151"
id="SmallMolecule_fc770e1e81329acd2e7028609a7f9fc1"
style="font-size:6.000000px;text-anchor:middle;font-family:Arial,Helvetica;alignment-baseline:baseline;stroke.opacity:1;dominant-baseline:baseline"
fill="black"
>
5-phosphate</text>



<ellipse
rx="16.666667"
ry="16.666667"
cx="554.521566"
cy="236.681527"
id="SmallMolecule_68d9752916a73cd26503beaec2ab3811"
style="fill:white;fill-opacity:0.000000;stroke:black;stroke-width:1.000000;stroke-opacity:1.000000" />


<text
x="554.521566"
y="238.681527"
id="SmallMolecule_68d9752916a73cd26503beaec2ab3811"
style="font-size:6.000000px;text-anchor:middle;font-family:Arial,Helvetica;alignment-baseline:baseline;stroke.opacity:1;dominant-baseline:baseline"
fill="black"
>
ADP</text>



<rect
width="58.333333"
height="33.333333"
rx="3.333333"
ry="3.333333"
x="610.444386"
y="275.625711"
id="Protein_7ed4478d8d52c07db7077dbc5c789ed2"
style="fill:white;fill-opacity:1.000000;stroke:black;stroke-width:1.000000;stroke-opacity:1.000000" />


<text
x="639.611052"
y="294.292378"
id="Protein_7ed4478d8d52c07db7077dbc5c789ed2"
style="font-size:6.000000px;text-anchor:middle;font-family:Arial,Helvetica;alignment-baseline:baseline;stroke.opacity:1;dominant-baseline:baseline"
fill="black"
>
Guanosine kinase</text>



<ellipse
rx="16.666667"
ry="16.666667"
cx="396.602574"
cy="373.601591"
id="SmallMolecule_04cc0a63aa3ad2c546360ff3020124c1"
style="fill:white;fill-opacity:0.000000;stroke:black;stroke-width:1.000000;stroke-opacity:1.000000" />


<text
x="396.602574"
y="375.601591"
id="SmallMolecule_04cc0a63aa3ad2c546360ff3020124c1"
style="font-size:6.000000px;text-anchor:middle;font-family:Arial,Helvetica;alignment-baseline:baseline;stroke.opacity:1;dominant-baseline:baseline"
fill="black"
>
Guanine</text>


<rect
width="16.666667"
height="16.666667"
rx="0.000000"
ry="0.000000"
x="395.808420"
y="483.262419"
id="BiochemicalReaction_a3f1cbe6057266ec0f7a551c0ee28097_LEFT_TO_RIGHT"
style="fill:white;fill-opacity:0.600000;stroke:black;stroke-width:1.000000;stroke-opacity:1.000000" />




<ellipse
rx="16.666667"
ry="16.666667"
cx="294.582079"
cy="184.421962"
id="SmallMolecule_7c646e47fcf7743211f31a95a9be981b"
style="fill:white;fill-opacity:0.000000;stroke:black;stroke-width:1.000000;stroke-opacity:1.000000" />


<text
x="294.582079"
y="186.421962"
id="SmallMolecule_7c646e47fcf7743211f31a95a9be981b"
style="font-size:6.000000px;text-anchor:middle;font-family:Arial,Helvetica;alignment-baseline:baseline;stroke.opacity:1;dominant-baseline:baseline"
fill="black"
>
PPi</text>


<rect
width="16.666667"
height="16.666667"
rx="0.000000"
ry="0.000000"
x="380.930328"
y="247.111271"
id="BiochemicalReaction_8cdcc8e22f392cdbfd63ef35b432c063_LEFT_TO_RIGHT"
style="fill:white;fill-opacity:0.600000;stroke:black;stroke-width:1.000000;stroke-opacity:1.000000" />




<rect
width="58.333333"
height="33.333333"
rx="3.333333"
ry="3.333333"
x="100.000000"
y="213.041749"
id="Protein_b679769c839b28303aff4cf43e38ba5b"
style="fill:white;fill-opacity:1.000000;stroke:black;stroke-width:1.000000;stroke-opacity:1.000000" />



<text
x="129.166667"
y="228.708416"
id="Protein_b679769c839b28303aff4cf43e38ba5b"
style="font-size:6.000000px;text-anchor:middle;font-family:Arial,Helvetica;alignment-baseline:baseline;stroke.opacity:1;dominant-baseline:baseline"
fill="black"
>
Xanthine phosphorib-</text>


<text
x="129.166667"
y="234.708416"
id="Protein_b679769c839b28303aff4cf43e38ba5b"
style="font-size:6.000000px;text-anchor:middle;font-family:Arial,Helvetica;alignment-baseline:baseline;stroke.opacity:1;dominant-baseline:baseline"
fill="black"
>
osyl transferase</text>


<rect
width="16.666667"
height="16.666667"
rx="0.000000"
ry="0.000000"
x="535.876678"
y="316.698950"
id="BiochemicalReaction_9d1a468286dd8123494fc5c07f2f902f_LEFT_TO_RIGHT"
style="fill:white;fill-opacity:0.600000;stroke:black;stroke-width:1.000000;stroke-opacity:1.000000" />



<rect
width="16.666667"
height="16.666667"
rx="0.000000"
ry="0.000000"
x="220.147323"
y="260.907609"
id="BiochemicalReaction_a9f9fb68f7e48e9bdcff15ae323b77a5_LEFT_TO_RIGHT"
style="fill:white;fill-opacity:0.600000;stroke:black;stroke-width:1.000000;stroke-opacity:1.000000" />




<rect
width="58.333333"
height="33.333333"
rx="3.333333"
ry="3.333333"
x="354.696460"
y="294.833948"
id="Protein_f61b06ed01bacfc8552f4eeaa6812346"
style="fill:white;fill-opacity:1.000000;stroke:black;stroke-width:1.000000;stroke-opacity:1.000000" />


<text
x="383.863127"
y="313.500615"
id="Protein_f61b06ed01bacfc8552f4eeaa6812346"
style="font-size:6.000000px;text-anchor:middle;font-family:Arial,Helvetica;alignment-baseline:baseline;stroke.opacity:1;dominant-baseline:baseline"
fill="black"
>
GDA</text>



<rect
width="58.333333"
height="33.333333"
rx="3.333333"
ry="3.333333"
x="387.797704"
y="150.000000"
id="Protein_28288e31f1592808a73495967800ef89"
style="fill:white;fill-opacity:1.000000;stroke:black;stroke-width:1.000000;stroke-opacity:1.000000" />



<text
x="416.964370"
y="165.666667"
id="Protein_28288e31f1592808a73495967800ef89"
style="font-size:6.000000px;text-anchor:middle;font-family:Arial,Helvetica;alignment-baseline:baseline;stroke.opacity:1;dominant-baseline:baseline"
fill="black"
>
Guanine phosphoribo-</text>


<text
x="416.964370"
y="171.666667"
id="Protein_28288e31f1592808a73495967800ef89"
style="font-size:6.000000px;text-anchor:middle;font-family:Arial,Helvetica;alignment-baseline:baseline;stroke.opacity:1;dominant-baseline:baseline"
fill="black"
>
syl transferase</text>



<ellipse
rx="16.666667"
ry="16.666667"
cx="300.716614"
cy="303.181173"
id="SmallMolecule_09ba22bf3f6a670f1f975e2cf976df0f"
style="fill:white;fill-opacity:0.000000;stroke:black;stroke-width:1.000000;stroke-opacity:1.000000" />


<text
x="300.716614"
y="305.181173"
id="SmallMolecule_09ba22bf3f6a670f1f975e2cf976df0f"
style="font-size:6.000000px;text-anchor:middle;font-family:Arial,Helvetica;alignment-baseline:baseline;stroke.opacity:1;dominant-baseline:baseline"
fill="black"
>
NH3</text>



<ellipse
rx="16.666667"
ry="16.666667"
cx="269.058156"
cy="426.025391"
id="SmallMolecule_c9617c3122a7c0115a3f9e5aa6e4a14d"
style="fill:white;fill-opacity:0.000000;stroke:black;stroke-width:1.000000;stroke-opacity:1.000000" />


<text
x="269.058156"
y="428.025391"
id="SmallMolecule_c9617c3122a7c0115a3f9e5aa6e4a14d"
style="font-size:6.000000px;text-anchor:middle;font-family:Arial,Helvetica;alignment-baseline:baseline;stroke.opacity:1;dominant-baseline:baseline"
fill="black"
>
xanthosine</text>



<ellipse
rx="16.666667"
ry="16.666667"
cx="235.279704"
cy="321.070118"
id="SmallMolecule_dff7a5252e99731a889e05223bceee9f"
style="fill:white;fill-opacity:0.000000;stroke:black;stroke-width:1.000000;stroke-opacity:1.000000" />


<text
x="235.279704"
y="323.070118"
id="SmallMolecule_dff7a5252e99731a889e05223bceee9f"
style="font-size:6.000000px;text-anchor:middle;font-family:Arial,Helvetica;alignment-baseline:baseline;stroke.opacity:1;dominant-baseline:baseline"
fill="black"
>
H2O</text>



<ellipse
rx="16.666667"
ry="16.666667"
cx="493.797242"
cy="402.661721"
id="SmallMolecule_7cb188e9752dd7c622f38963bfbcab28"
style="fill:white;fill-opacity:0.000000;stroke:black;stroke-width:1.000000;stroke-opacity:1.000000" />


<text
x="493.797242"
y="404.661721"
id="SmallMolecule_7cb188e9752dd7c622f38963bfbcab28"
style="font-size:6.000000px;text-anchor:middle;font-family:Arial,Helvetica;alignment-baseline:baseline;stroke.opacity:1;dominant-baseline:baseline"
fill="black"
>
Guanosine</text>



<ellipse
rx="16.666667"
ry="16.666667"
cx="364.259537"
cy="577.678749"
id="SmallMolecule_abb229d5d7d72e3539f0ff6e057fbd29"
style="fill:white;fill-opacity:0.000000;stroke:black;stroke-width:1.000000;stroke-opacity:1.000000" />



<text
x="364.259537"
y="576.678749"
id="SmallMolecule_abb229d5d7d72e3539f0ff6e057fbd29"
style="font-size:6.000000px;text-anchor:middle;font-family:Arial,Helvetica;alignment-baseline:baseline;stroke.opacity:1;dominant-baseline:baseline"
fill="black"
>
deoxyribose-</text>


<text
x="364.259537"
y="582.678749"
id="SmallMolecule_abb229d5d7d72e3539f0ff6e057fbd29"
style="font-size:6.000000px;text-anchor:middle;font-family:Arial,Helvetica;alignment-baseline:baseline;stroke.opacity:1;dominant-baseline:baseline"
fill="black"
>
-1-phosphate</text>



<rect
width="58.333333"
height="33.333333"
rx="3.333333"
ry="3.333333"
x="470.361754"
y="484.230990"
id="Protein_00a88e2b36430faa3987501da91a8942"
style="fill:white;fill-opacity:1.000000;stroke:black;stroke-width:1.000000;stroke-opacity:1.000000" />


<text
x="499.528420"
y="502.897656"
id="Protein_00a88e2b36430faa3987501da91a8942"
style="font-size:6.000000px;text-anchor:middle;font-family:Arial,Helvetica;alignment-baseline:baseline;stroke.opacity:1;dominant-baseline:baseline"
fill="black"
>
PNP</text>




<path d="M391.000000 246.000000 C 396.000000 232.000000, 405.000000 202.000000,411.000000 183.000000" stroke="black"  fill="transparent"/>

<line
x1="405" y1="202" x2="411" y2="183"
id="0"
style="stroke:black;stroke-width:1.000000;stroke-opacity:0" />


<line
x1="396" y1="232" x2="391" y2="246"
id="Protein_28288e31f1592808a73495967800ef89--to--BiochemicalReaction_8cdcc8e22f392cdbfd63ef35b432c063_LEFT_TO_RIGHT"
style="stroke:black;stroke-width:1.000000;stroke-opacity:0" />


<ellipse
rx="4.400000"
ry="4.400000"
cx="392.479880"
cy="241.856336"
id="Protein_28288e31f1592808a73495967800ef89--to--BiochemicalReaction_8cdcc8e22f392cdbfd63ef35b432c063_LEFT_TO_RIGHT"
style="fill:white;fill-opacity:0.800000;stroke:black;stroke-width:1.000000;stroke-opacity:1.000000" />


<path d="M318.000000 368.000000 C 329.000000 358.000000, 349.000000 341.000000,364.000000 328.000000" stroke="black"  fill="transparent"/>

<line
x1="349" y1="341" x2="364" y2="328"
id="0"
style="stroke:black;stroke-width:1.000000;stroke-opacity:0" />


<line
x1="329" y1="358" x2="318" y2="368"
id="Protein_f61b06ed01bacfc8552f4eeaa6812346--to--BiochemicalReaction_4eacfc3eec2ab88372352baea65720a9_LEFT_TO_RIGHT"
style="stroke:black;stroke-width:1.000000;stroke-opacity:0" />


<ellipse
rx="4.400000"
ry="4.400000"
cx="321.255736"
cy="365.040240"
id="Protein_f61b06ed01bacfc8552f4eeaa6812346--to--BiochemicalReaction_4eacfc3eec2ab88372352baea65720a9_LEFT_TO_RIGHT"
style="fill:white;fill-opacity:0.800000;stroke:black;stroke-width:1.000000;stroke-opacity:1.000000" />


<path d="M411.000000 440.000000 C 408.000000 428.000000, 403.000000 405.000000,400.000000 390.000000" stroke="black"  fill="transparent"/>

<line
x1="403" y1="405" x2="400" y2="390"
id="0"
style="stroke:black;stroke-width:1.000000;stroke-opacity:0" />


<line
x1="408" y1="428" x2="411" y2="440"
id="SmallMolecule_04cc0a63aa3ad2c546360ff3020124c1--to--BiochemicalReaction_9b922d8a06a77131b80bf2152b5fbf03_LEFT_TO_RIGHT-input"
style="stroke:black;stroke-width:1.000000;stroke-opacity:0" />


<path d="M318.000000 375.000000 C 332.000000 375.000000, 361.000000 374.000000,379.000000 373.000000" stroke="black"  fill="transparent"/>

<line
x1="361" y1="374" x2="379" y2="373"
id="0"
style="stroke:black;stroke-width:1.000000;stroke-opacity:0" />


<line
x1="332" y1="375" x2="318" y2="375"
id="SmallMolecule_04cc0a63aa3ad2c546360ff3020124c1--to--BiochemicalReaction_4eacfc3eec2ab88372352baea65720a9_LEFT_TO_RIGHT-input"
style="stroke:black;stroke-width:1.000000;stroke-opacity:0" />


<path d="M309.000000 367.000000 C 307.000000 355.000000, 304.000000 334.000000,302.000000 319.000000" stroke="black"  fill="transparent"/>

<line
x1="307" y1="355" x2="309" y2="367"
id="0"
style="stroke:black;stroke-width:1.000000;stroke-opacity:0" />


<line
x1="304" y1="334" x2="302" y2="319"
id="BiochemicalReaction_4eacfc3eec2ab88372352baea65720a9_LEFT_TO_RIGHT-output--to--SmallMolecule_09ba22bf3f6a670f1f975e2cf976df0f"
style="stroke:black;stroke-width:1.000000;stroke-opacity:0" />


<polygon
points = "302,319 293.2,314.6 293.2,323.4"
id="line"
style="fill:black; stroke:#000000; stroke-width:1"
transform = "rotate(262.405357 302.000000 319.000000)"
/>


<path d="M421.000000 453.000000 C 432.000000 460.000000, 454.000000 473.000000,471.000000 484.000000" stroke="black"  fill="transparent"/>

<line
x1="454" y1="473" x2="471" y2="484"
id="0"
style="stroke:black;stroke-width:1.000000;stroke-opacity:0" />


<line
x1="432" y1="460" x2="421" y2="453"
id="Protein_00a88e2b36430faa3987501da91a8942--to--BiochemicalReaction_9b922d8a06a77131b80bf2152b5fbf03_LEFT_TO_RIGHT"
style="stroke:black;stroke-width:1.000000;stroke-opacity:0" />


<ellipse
rx="4.400000"
ry="4.400000"
cx="424.712111"
cy="455.362252"
id="Protein_00a88e2b36430faa3987501da91a8942--to--BiochemicalReaction_9b922d8a06a77131b80bf2152b5fbf03_LEFT_TO_RIGHT"
style="fill:white;fill-opacity:0.800000;stroke:black;stroke-width:1.000000;stroke-opacity:1.000000" />


<path d="M345.000000 447.000000 C 363.000000 448.000000, 390.000000 448.000000,404.000000 448.000000" stroke="black"  fill="transparent"/>

<line
x1="390" y1="448" x2="404" y2="448"
id="0"
style="stroke:black;stroke-width:1.000000;stroke-opacity:0" />


<line
x1="363" y1="448" x2="345" y2="447"
id="BiochemicalReaction_9b922d8a06a77131b80bf2152b5fbf03_LEFT_TO_RIGHT-output--to--SmallMolecule_893d4e9a3537b8b355892e0ccabca0cc"
style="stroke:black;stroke-width:1.000000;stroke-opacity:0" />


<polygon
points = "345,447 336.2,442.6 336.2,451.4"
id="line"
style="fill:black; stroke:#000000; stroke-width:1"
transform = "rotate(183.179830 345.000000 447.000000)"
/>


<path d="M596.000000 371.000000 C 582.000000 359.000000, 563.000000 342.000000,552.000000 332.000000" stroke="black"  fill="transparent"/>

<line
x1="582" y1="359" x2="596" y2="371"
id="0"
style="stroke:black;stroke-width:1.000000;stroke-opacity:0" />


<line
x1="563" y1="342" x2="552" y2="332"
id="SmallMolecule_067280b8b822ca79f313ec8eebae1ca8--to--BiochemicalReaction_9d1a468286dd8123494fc5c07f2f902f_LEFT_TO_RIGHT-input"
style="stroke:black;stroke-width:1.000000;stroke-opacity:0" />


<path d="M328.000000 245.000000 C 344.000000 247.000000, 368.000000 251.000000,380.000000 254.000000" stroke="black"  fill="transparent"/>

<line
x1="344" y1="247" x2="328" y2="245"
id="0"
style="stroke:black;stroke-width:1.000000;stroke-opacity:0" />


<line
x1="368" y1="251" x2="380" y2="254"
id="SmallMolecule_687e65b7b823f61eb77eb98677e6c889--to--BiochemicalReaction_8cdcc8e22f392cdbfd63ef35b432c063_LEFT_TO_RIGHT-input"
style="stroke:black;stroke-width:1.000000;stroke-opacity:0" />


<path d="M538.000000 333.000000 C 530.000000 346.000000, 514.000000 370.000000,504.000000 386.000000" stroke="black"  fill="transparent"/>

<line
x1="514" y1="370" x2="504" y2="386"
id="0"
style="stroke:black;stroke-width:1.000000;stroke-opacity:0" />


<line
x1="530" y1="346" x2="538" y2="333"
id="SmallMolecule_7cb188e9752dd7c622f38963bfbcab28--to--BiochemicalReaction_9d1a468286dd8123494fc5c07f2f902f_LEFT_TO_RIGHT-input"
style="stroke:black;stroke-width:1.000000;stroke-opacity:0" />


<path d="M400.000000 500.000000 C 393.000000 514.000000, 380.000000 542.000000,372.000000 560.000000" stroke="black"  fill="transparent"/>

<line
x1="380" y1="542" x2="372" y2="560"
id="0"
style="stroke:black;stroke-width:1.000000;stroke-opacity:0" />


<line
x1="393" y1="514" x2="400" y2="500"
id="SmallMolecule_abb229d5d7d72e3539f0ff6e057fbd29--to--BiochemicalReaction_a3f1cbe6057266ec0f7a551c0ee28097_LEFT_TO_RIGHT-input"
style="stroke:black;stroke-width:1.000000;stroke-opacity:0" />


<path d="M397.000000 390.000000 C 398.000000 407.000000, 399.000000 436.000000,401.000000 460.000000" stroke="black"  fill="transparent"/>
<path d="M401.000000 460.000000 C 401.000000 468.000000, 402.000000 476.000000,403.000000 482.000000" stroke="black"  fill="transparent"/>

<line
x1="398" y1="407" x2="397" y2="390"
id="0"
style="stroke:black;stroke-width:1.000000;stroke-opacity:0" />


<line
x1="402" y1="476" x2="403" y2="482"
id="SmallMolecule_04cc0a63aa3ad2c546360ff3020124c1--to--BiochemicalReaction_a3f1cbe6057266ec0f7a551c0ee28097_LEFT_TO_RIGHT-input"
style="stroke:black;stroke-width:1.000000;stroke-opacity:0" />


<path d="M240.000000 476.000000 C 245.000000 468.000000, 253.000000 453.000000,259.000000 442.000000" stroke="black"  fill="transparent"/>

<line
x1="253" y1="453" x2="259" y2="442"
id="0"
style="stroke:black;stroke-width:1.000000;stroke-opacity:0" />


<line
x1="245" y1="468" x2="240" y2="476"
id="SmallMolecule_c9617c3122a7c0115a3f9e5aa6e4a14d--to--BiochemicalReaction_e98c91988adf5e5b584bba3a2746268e_LEFT_TO_RIGHT-input"
style="stroke:black;stroke-width:1.000000;stroke-opacity:0" />


<path d="M301.000000 369.000000 C 289.000000 360.000000, 267.000000 344.000000,251.000000 333.000000" stroke="black"  fill="transparent"/>

<line
x1="267" y1="344" x2="251" y2="333"
id="0"
style="stroke:black;stroke-width:1.000000;stroke-opacity:0" />


<line
x1="289" y1="360" x2="301" y2="369"
id="SmallMolecule_dff7a5252e99731a889e05223bceee9f--to--BiochemicalReaction_4eacfc3eec2ab88372352baea65720a9_LEFT_TO_RIGHT-input"
style="stroke:black;stroke-width:1.000000;stroke-opacity:0" />


<path d="M228.000000 379.000000 C 249.000000 378.000000, 285.000000 376.000000,301.000000 376.000000" stroke="black"  fill="transparent"/>

<line
x1="285" y1="376" x2="301" y2="376"
id="0"
style="stroke:black;stroke-width:1.000000;stroke-opacity:0" />


<line
x1="249" y1="378" x2="228" y2="379"
id="BiochemicalReaction_4eacfc3eec2ab88372352baea65720a9_LEFT_TO_RIGHT-output--to--SmallMolecule_9492bcad93b3ed7f8316c8e263782c45"
style="stroke:black;stroke-width:1.000000;stroke-opacity:0" />


<polygon
points = "228,379 219.2,374.6 219.2,383.4"
id="line"
style="fill:black; stroke:#000000; stroke-width:1"
transform = "rotate(177.273689 228.000000 379.000000)"
/>


<path d="M158.000000 241.000000 C 179.000000 249.000000, 206.000000 260.000000,219.000000 265.000000" stroke="black"  fill="transparent"/>

<line
x1="179" y1="249" x2="158" y2="241"
id="0"
style="stroke:black;stroke-width:1.000000;stroke-opacity:0" />


<line
x1="206" y1="260" x2="219" y2="265"
id="Protein_b679769c839b28303aff4cf43e38ba5b--to--BiochemicalReaction_a9f9fb68f7e48e9bdcff15ae323b77a5_LEFT_TO_RIGHT"
style="stroke:black;stroke-width:1.000000;stroke-opacity:0" />


<ellipse
rx="4.400000"
ry="4.400000"
cx="214.893279"
cy="263.420492"
id="Protein_b679769c839b28303aff4cf43e38ba5b--to--BiochemicalReaction_a9f9fb68f7e48e9bdcff15ae323b77a5_LEFT_TO_RIGHT"
style="fill:white;fill-opacity:0.800000;stroke:black;stroke-width:1.000000;stroke-opacity:1.000000" />


<path d="M345.000000 457.000000 C 361.000000 466.000000, 383.000000 479.000000,395.000000 486.000000" stroke="black"  fill="transparent"/>

<line
x1="383" y1="479" x2="395" y2="486"
id="0"
style="stroke:black;stroke-width:1.000000;stroke-opacity:0" />


<line
x1="361" y1="466" x2="345" y2="457"
id="BiochemicalReaction_a3f1cbe6057266ec0f7a551c0ee28097_LEFT_TO_RIGHT-output--to--SmallMolecule_893d4e9a3537b8b355892e0ccabca0cc"
style="stroke:black;stroke-width:1.000000;stroke-opacity:0" />


<polygon
points = "345,457 336.2,452.6 336.2,461.4"
id="line"
style="fill:black; stroke:#000000; stroke-width:1"
transform = "rotate(209.357754 345.000000 457.000000)"
/>


<path d="M281.000000 201.000000 C 267.000000 218.000000, 246.000000 246.000000,235.000000 260.000000" stroke="black"  fill="transparent"/>

<line
x1="246" y1="246" x2="235" y2="260"
id="0"
style="stroke:black;stroke-width:1.000000;stroke-opacity:0" />


<line
x1="267" y1="218" x2="281" y2="201"
id="BiochemicalReaction_a9f9fb68f7e48e9bdcff15ae323b77a5_LEFT_TO_RIGHT-output--to--SmallMolecule_7c646e47fcf7743211f31a95a9be981b"
style="stroke:black;stroke-width:1.000000;stroke-opacity:0" />


<polygon
points = "281,201 272.2,196.6 272.2,205.4"
id="line"
style="fill:black; stroke:#000000; stroke-width:1"
transform = "rotate(-50.527540 281.000000 201.000000)"
/>


<path d="M433.000000 556.000000 C 426.000000 539.000000, 414.000000 513.000000,408.000000 500.000000" stroke="black"  fill="transparent"/>

<line
x1="414" y1="513" x2="408" y2="500"
id="0"
style="stroke:black;stroke-width:1.000000;stroke-opacity:0" />


<line
x1="426" y1="539" x2="433" y2="556"
id="BiochemicalReaction_a3f1cbe6057266ec0f7a551c0ee28097_LEFT_TO_RIGHT-output--to--SmallMolecule_dd2ae823bc58de69884357b1bb741082"
style="stroke:black;stroke-width:1.000000;stroke-opacity:0" />


<polygon
points = "433,556 424.2,551.6 424.2,560.4"
id="line"
style="fill:black; stroke:#000000; stroke-width:1"
transform = "rotate(67.619865 433.000000 556.000000)"
/>


<path d="M227.000000 487.000000 C 213.000000 490.000000, 184.000000 496.000000,162.000000 501.000000" stroke="black"  fill="transparent"/>

<line
x1="184" y1="496" x2="162" y2="501"
id="0"
style="stroke:black;stroke-width:1.000000;stroke-opacity:0" />


<line
x1="213" y1="490" x2="227" y2="487"
id="Protein_d5ce93cb60a0ff0f5378a73de3264295--to--BiochemicalReaction_e98c91988adf5e5b584bba3a2746268e_LEFT_TO_RIGHT"
style="stroke:black;stroke-width:1.000000;stroke-opacity:0" />


<ellipse
rx="4.400000"
ry="4.400000"
cx="222.697669"
cy="487.921928"
id="Protein_d5ce93cb60a0ff0f5378a73de3264295--to--BiochemicalReaction_e98c91988adf5e5b584bba3a2746268e_LEFT_TO_RIGHT"
style="fill:white;fill-opacity:0.800000;stroke:black;stroke-width:1.000000;stroke-opacity:1.000000" />


<path d="M311.000000 197.000000 C 331.000000 212.000000, 365.000000 237.000000,380.000000 249.000000" stroke="black"  fill="transparent"/>

<line
x1="365" y1="237" x2="380" y2="249"
id="0"
style="stroke:black;stroke-width:1.000000;stroke-opacity:0" />


<line
x1="331" y1="212" x2="311" y2="197"
id="BiochemicalReaction_8cdcc8e22f392cdbfd63ef35b432c063_LEFT_TO_RIGHT-output--to--SmallMolecule_7c646e47fcf7743211f31a95a9be981b"
style="stroke:black;stroke-width:1.000000;stroke-opacity:0" />


<polygon
points = "311,197 302.2,192.6 302.2,201.4"
id="line"
style="fill:black; stroke:#000000; stroke-width:1"
transform = "rotate(216.869898 311.000000 197.000000)"
/>


<path d="M404.000000 454.000000 C 389.000000 464.000000, 357.000000 486.000000,337.000000 499.000000" stroke="black"  fill="transparent"/>

<line
x1="357" y1="486" x2="337" y2="499"
id="0"
style="stroke:black;stroke-width:1.000000;stroke-opacity:0" />


<line
x1="389" y1="464" x2="404" y2="454"
id="SmallMolecule_27cee4d5012f3a1fdbc373a090734089--to--BiochemicalReaction_9b922d8a06a77131b80bf2152b5fbf03_LEFT_TO_RIGHT-input"
style="stroke:black;stroke-width:1.000000;stroke-opacity:0" />


<path d="M610.000000 302.000000 C 590.000000 309.000000, 565.000000 317.000000,552.000000 322.000000" stroke="black"  fill="transparent"/>

<line
x1="590" y1="309" x2="610" y2="302"
id="0"
style="stroke:black;stroke-width:1.000000;stroke-opacity:0" />


<line
x1="565" y1="317" x2="552" y2="322"
id="Protein_7ed4478d8d52c07db7077dbc5c789ed2--to--BiochemicalReaction_9d1a468286dd8123494fc5c07f2f902f_LEFT_TO_RIGHT"
style="stroke:black;stroke-width:1.000000;stroke-opacity:0" />


<ellipse
rx="4.400000"
ry="4.400000"
cx="556.106721"
cy="320.420492"
id="Protein_7ed4478d8d52c07db7077dbc5c789ed2--to--BiochemicalReaction_9d1a468286dd8123494fc5c07f2f902f_LEFT_TO_RIGHT"
style="fill:white;fill-opacity:0.800000;stroke:black;stroke-width:1.000000;stroke-opacity:1.000000" />


<path d="M244.000000 482.000000 C 259.000000 475.000000, 292.000000 462.000000,312.000000 454.000000" stroke="black"  fill="transparent"/>

<line
x1="292" y1="462" x2="312" y2="454"
id="0"
style="stroke:black;stroke-width:1.000000;stroke-opacity:0" />


<line
x1="259" y1="475" x2="244" y2="482"
id="SmallMolecule_893d4e9a3537b8b355892e0ccabca0cc--to--BiochemicalReaction_e98c91988adf5e5b584bba3a2746268e_LEFT_TO_RIGHT-input"
style="stroke:black;stroke-width:1.000000;stroke-opacity:0" />


<path d="M215.000000 397.000000 C 221.000000 419.000000, 230.000000 459.000000,234.000000 476.000000" stroke="black"  fill="transparent"/>

<line
x1="230" y1="459" x2="234" y2="476"
id="0"
style="stroke:black;stroke-width:1.000000;stroke-opacity:0" />


<line
x1="221" y1="419" x2="215" y2="397"
id="BiochemicalReaction_e98c91988adf5e5b584bba3a2746268e_LEFT_TO_RIGHT-output--to--SmallMolecule_9492bcad93b3ed7f8316c8e263782c45"
style="stroke:black;stroke-width:1.000000;stroke-opacity:0" />


<polygon
points = "215,397 206.2,392.6 206.2,401.4"
id="line"
style="fill:black; stroke:#000000; stroke-width:1"
transform = "rotate(254.744881 215.000000 397.000000)"
/>


<path d="M455.000000 257.000000 C 438.000000 257.000000, 411.000000 256.000000,397.000000 255.000000" stroke="black"  fill="transparent"/>

<line
x1="411" y1="256" x2="397" y2="255"
id="0"
style="stroke:black;stroke-width:1.000000;stroke-opacity:0" />


<line
x1="438" y1="257" x2="455" y2="257"
id="BiochemicalReaction_8cdcc8e22f392cdbfd63ef35b432c063_LEFT_TO_RIGHT-output--to--SmallMolecule_95bbe3740a74491c29736386d3e06125"
style="stroke:black;stroke-width:1.000000;stroke-opacity:0" />


<polygon
points = "455,257 446.2,252.6 446.2,261.4"
id="line"
style="fill:black; stroke:#000000; stroke-width:1"
transform = "rotate(-0.000000 455.000000 257.000000)"
/>


<path d="M244.000000 487.000000 C 258.000000 491.000000, 286.000000 500.000000,304.000000 505.000000" stroke="black"  fill="transparent"/>

<line
x1="258" y1="491" x2="244" y2="487"
id="0"
style="stroke:black;stroke-width:1.000000;stroke-opacity:0" />


<line
x1="286" y1="500" x2="304" y2="505"
id="BiochemicalReaction_e98c91988adf5e5b584bba3a2746268e_LEFT_TO_RIGHT-output--to--SmallMolecule_27cee4d5012f3a1fdbc373a090734089"
style="stroke:black;stroke-width:1.000000;stroke-opacity:0" />


<polygon
points = "304,505 295.2,500.6 295.2,509.4"
id="line"
style="fill:black; stroke:#000000; stroke-width:1"
transform = "rotate(15.524111 304.000000 505.000000)"
/>


<path d="M412.000000 492.000000 C 425.000000 493.000000, 450.000000 496.000000,470.000000 498.000000" stroke="black"  fill="transparent"/>

<line
x1="450" y1="496" x2="470" y2="498"
id="0"
style="stroke:black;stroke-width:1.000000;stroke-opacity:0" />


<line
x1="425" y1="493" x2="412" y2="492"
id="Protein_00a88e2b36430faa3987501da91a8942--to--BiochemicalReaction_a3f1cbe6057266ec0f7a551c0ee28097_LEFT_TO_RIGHT"
style="stroke:black;stroke-width:1.000000;stroke-opacity:0" />


<ellipse
rx="4.400000"
ry="4.400000"
cx="416.387040"
cy="492.337465"
id="Protein_00a88e2b36430faa3987501da91a8942--to--BiochemicalReaction_a3f1cbe6057266ec0f7a551c0ee28097_LEFT_TO_RIGHT"
style="fill:white;fill-opacity:0.800000;stroke:black;stroke-width:1.000000;stroke-opacity:1.000000" />


<path d="M162.000000 302.000000 C 179.000000 293.000000, 206.000000 280.000000,219.000000 273.000000" stroke="black"  fill="transparent"/>

<line
x1="206" y1="280" x2="219" y2="273"
id="0"
style="stroke:black;stroke-width:1.000000;stroke-opacity:0" />


<line
x1="179" y1="293" x2="162" y2="302"
id="BiochemicalReaction_a9f9fb68f7e48e9bdcff15ae323b77a5_LEFT_TO_RIGHT-output--to--SmallMolecule_fc770e1e81329acd2e7028609a7f9fc1"
style="stroke:black;stroke-width:1.000000;stroke-opacity:0" />


<polygon
points = "162,302 153.2,297.6 153.2,306.4"
id="line"
style="fill:black; stroke:#000000; stroke-width:1"
transform = "rotate(152.102729 162.000000 302.000000)"
/>


<path d="M406.000000 356.000000 C 410.000000 349.000000, 414.000000 340.000000,416.000000 331.000000" stroke="black"  fill="transparent"/>
<path d="M416.000000 331.000000 C 419.000000 314.000000, 421.000000 308.000000,416.000000 291.000000" stroke="black"  fill="transparent"/>
<path d="M416.000000 291.000000 C 412.000000 280.000000, 404.000000 270.000000,397.000000 263.000000" stroke="black"  fill="transparent"/>

<line
x1="410" y1="349" x2="406" y2="356"
id="0"
style="stroke:black;stroke-width:1.000000;stroke-opacity:0" />


<line
x1="404" y1="270" x2="397" y2="263"
id="SmallMolecule_04cc0a63aa3ad2c546360ff3020124c1--to--BiochemicalReaction_8cdcc8e22f392cdbfd63ef35b432c063_LEFT_TO_RIGHT-input"
style="stroke:black;stroke-width:1.000000;stroke-opacity:0" />


<path d="M421.000000 444.000000 C 434.000000 436.000000, 460.000000 421.000000,477.000000 412.000000" stroke="black"  fill="transparent"/>

<line
x1="434" y1="436" x2="421" y2="444"
id="0"
style="stroke:black;stroke-width:1.000000;stroke-opacity:0" />


<line
x1="460" y1="421" x2="477" y2="412"
id="BiochemicalReaction_9b922d8a06a77131b80bf2152b5fbf03_LEFT_TO_RIGHT-output--to--SmallMolecule_7cb188e9752dd7c622f38963bfbcab28"
style="stroke:black;stroke-width:1.000000;stroke-opacity:0" />


<polygon
points = "477,412 468.2,407.6 468.2,416.4"
id="line"
style="fill:black; stroke:#000000; stroke-width:1"
transform = "rotate(-27.897271 477.000000 412.000000)"
/>


<path d="M211.000000 363.000000 C 210.000000 347.000000, 211.000000 322.000000,215.000000 301.000000" stroke="black"  fill="transparent"/>
<path d="M215.000000 301.000000 C 217.000000 293.000000, 221.000000 284.000000,224.000000 277.000000" stroke="black"  fill="transparent"/>

<line
x1="210" y1="347" x2="211" y2="363"
id="0"
style="stroke:black;stroke-width:1.000000;stroke-opacity:0" />


<line
x1="221" y1="284" x2="224" y2="277"
id="SmallMolecule_9492bcad93b3ed7f8316c8e263782c45--to--BiochemicalReaction_a9f9fb68f7e48e9bdcff15ae323b77a5_LEFT_TO_RIGHT-input"
style="stroke:black;stroke-width:1.000000;stroke-opacity:0" />


<path d="M552.000000 253.000000 C 550.000000 272.000000, 546.000000 301.000000,545.000000 316.000000" stroke="black"  fill="transparent"/>

<line
x1="546" y1="301" x2="545" y2="316"
id="0"
style="stroke:black;stroke-width:1.000000;stroke-opacity:0" />


<line
x1="550" y1="272" x2="552" y2="253"
id="BiochemicalReaction_9d1a468286dd8123494fc5c07f2f902f_LEFT_TO_RIGHT-output--to--SmallMolecule_68d9752916a73cd26503beaec2ab3811"
style="stroke:black;stroke-width:1.000000;stroke-opacity:0" />


<polygon
points = "552,253 543.2,248.6 543.2,257.4"
id="line"
style="fill:black; stroke:#000000; stroke-width:1"
transform = "rotate(-83.990994 552.000000 253.000000)"
/>


<path d="M295.000000 247.000000 C 277.000000 253.000000, 250.000000 262.000000,236.000000 266.000000" stroke="black"  fill="transparent"/>

<line
x1="277" y1="253" x2="295" y2="247"
id="0"
style="stroke:black;stroke-width:1.000000;stroke-opacity:0" />


<line
x1="250" y1="262" x2="236" y2="266"
id="SmallMolecule_687e65b7b823f61eb77eb98677e6c889--to--BiochemicalReaction_a9f9fb68f7e48e9bdcff15ae323b77a5_LEFT_TO_RIGHT-input"
style="stroke:black;stroke-width:1.000000;stroke-opacity:0" />


<path d="M489.000000 273.000000 C 503.000000 287.000000, 523.000000 306.000000,535.000000 316.000000" stroke="black"  fill="transparent"/>

<line
x1="523" y1="306" x2="535" y2="316"
id="0"
style="stroke:black;stroke-width:1.000000;stroke-opacity:0" />


<line
x1="503" y1="287" x2="489" y2="273"
id="BiochemicalReaction_9d1a468286dd8123494fc5c07f2f902f_LEFT_TO_RIGHT-output--to--SmallMolecule_95bbe3740a74491c29736386d3e06125"
style="stroke:black;stroke-width:1.000000;stroke-opacity:0" />


<polygon
points = "489,273 480.2,268.6 480.2,277.4"
id="line"
style="fill:black; stroke:#000000; stroke-width:1"
transform = "rotate(225.000000 489.000000 273.000000)"
/>



</svg>
