<?xml version="1.0" encoding="UTF-8"?>
<svg width="765.884083" height="754.045710"
xmlns="http://www.w3.org/2000/svg" xmlns:svg="http://www.w3.org/2000/svg"
>
<metadata id="metadata7">image/svg+xml</metadata>

<rect
width="335.884083"
height="371.045710"
rx="11.000000"
ry="11.000000"
x="100.000000"
y="183.000000"
id="peroxisomal_matrix"
style="fill:white;fill-opacity:0.900000;stroke:black;stroke-width:5.000000;stroke-opacity:1.000000" />


<text
x="267.942041"
y="175.000000"
id="peroxisomal_matrix"
style="font-size:6.000000px;text-anchor:middle;font-family:Arial,Helvetica;alignment-baseline:baseline;stroke.opacity:1;dominant-baseline:baseline"
fill="black"
>
peroxisomal matrix</text>


<rect
width="80.333333"
height="55.333333"
rx="11.000000"
ry="11.000000"
x="144.341153"
y="207.876475"
id="cytosol"
style="fill:white;fill-opacity:0.900000;stroke:black;stroke-width:5.000000;stroke-opacity:1.000000" />


<text
x="184.507819"
y="199.876475"
id="cytosol"
style="font-size:6.000000px;text-anchor:middle;font-family:Arial,Helvetica;alignment-baseline:baseline;stroke.opacity:1;dominant-baseline:baseline"
fill="black"
>
cytosol</text>



<path
d="M 348.950749443855 455.529043102428 348.950749443855 537.545709769094 354.450749443855 543.045709769094 419.384082777188 543.045709769094 424.884082777188 537.545709769094 424.884082777188 455.529043102428 419.384082777188 450.029043102428 354.450749443855 450.029043102428 Z"
id="Complex_b4143e93be4fe60412bd29d59642c9bd"
style="fill:white;fill-opacity:0.600000;stroke-width:1;stroke:black;stroke-opacity:1.000000"
transform = "rotate(0.000000 0.000000 0.000000)"
/>


<text
x="386.917416"
y="442.029043"
id="Complex_b4143e93be4fe60412bd29d59642c9bd"
style="font-size:6.000000px;text-anchor:middle;font-family:Arial,Helvetica;alignment-baseline:baseline;stroke.opacity:1;dominant-baseline:baseline"
fill="black"
>
PAOX:FAD</text>




<rect
width="58.333333"
height="33.333333"
rx="3.333333"
ry="3.333333"
x="155.341153"
y="218.876475"
id="Protein_dc70fbbd73dddb1c98e4e43b0cbdd5e8"
style="fill:white;fill-opacity:1.000000;stroke:black;stroke-width:1.000000;stroke-opacity:1.000000" />


<text
x="184.507819"
y="237.543142"
id="Protein_dc70fbbd73dddb1c98e4e43b0cbdd5e8"
style="font-size:6.000000px;text-anchor:middle;font-family:Arial,Helvetica;alignment-baseline:baseline;stroke.opacity:1;dominant-baseline:baseline"
fill="black"
>
SMOX</text>


<ellipse
rx="14.583333"
ry="7.291667"
cx="169.924486"
cy="218.876475"
id="Protein_dc70fbbd73dddb1c98e4e43b0cbdd5e8.info.1"
style="fill:white;fill-opacity:1.000000;stroke:black;stroke-width:1.000000;stroke-opacity:1.000000" />


<text
x="169.924486"
y="220.876475"
id="Protein_dc70fbbd73dddb1c98e4e43b0cbdd5e8.info.1"
style="font-size:6.000000px;text-anchor:middle;font-family:Arial,Helvetica;alignment-baseline:baseline;stroke.opacity:1;dominant-baseline:baseline"
fill="black"
>
x[1-555]</text>



<ellipse
rx="16.666667"
ry="16.666667"
cx="331.401415"
cy="280.211398"
id="SmallMolecule_f24255a32cc658c139e6d6d1f98d365e"
style="fill:white;fill-opacity:0.000000;stroke:black;stroke-width:1.000000;stroke-opacity:1.000000" />


<text
x="331.401415"
y="282.211398"
id="SmallMolecule_f24255a32cc658c139e6d6d1f98d365e"
style="font-size:6.000000px;text-anchor:middle;font-family:Arial,Helvetica;alignment-baseline:baseline;stroke.opacity:1;dominant-baseline:baseline"
fill="black"
>
NASPN</text>



<ellipse
rx="16.666667"
ry="16.666667"
cx="218.389082"
cy="486.015991"
id="SmallMolecule_9e9154cca6427b4c52b4da01f045c07e"
style="fill:white;fill-opacity:0.000000;stroke:black;stroke-width:1.000000;stroke-opacity:1.000000" />


<text
x="218.389082"
y="488.015991"
id="SmallMolecule_9e9154cca6427b4c52b4da01f045c07e"
style="font-size:6.000000px;text-anchor:middle;font-family:Arial,Helvetica;alignment-baseline:baseline;stroke.opacity:1;dominant-baseline:baseline"
fill="black"
>
NASPM</text>



<rect
width="58.333333"
height="33.333333"
rx="3.333333"
ry="3.333333"
x="357.750749"
y="458.829043"
id="Protein_a7bd5c897a09ffaae0cde8d1f9cb180b_Complex_b4143e93be4fe60412bd29d59642c9bd"
style="fill:white;fill-opacity:1.000000;stroke:black;stroke-width:1.000000;stroke-opacity:1.000000" />


<text
x="386.917416"
y="477.495710"
id="Protein_a7bd5c897a09ffaae0cde8d1f9cb180b_Complex_b4143e93be4fe60412bd29d59642c9bd"
style="font-size:6.000000px;text-anchor:middle;font-family:Arial,Helvetica;alignment-baseline:baseline;stroke.opacity:1;dominant-baseline:baseline"
fill="black"
>
PAOX</text>


<ellipse
rx="14.583333"
ry="7.291667"
cx="372.334083"
cy="458.829043"
id="Protein_a7bd5c897a09ffaae0cde8d1f9cb180b_Complex_b4143e93be4fe60412bd29d59642c9bd.info.1"
style="fill:white;fill-opacity:1.000000;stroke:black;stroke-width:1.000000;stroke-opacity:1.000000" />


<text
x="372.334083"
y="460.829043"
id="Protein_a7bd5c897a09ffaae0cde8d1f9cb180b_Complex_b4143e93be4fe60412bd29d59642c9bd.info.1"
style="font-size:6.000000px;text-anchor:middle;font-family:Arial,Helvetica;alignment-baseline:baseline;stroke.opacity:1;dominant-baseline:baseline"
fill="black"
>
x[1-649]</text>



<ellipse
rx="16.666667"
ry="16.666667"
cx="374.417416"
cy="517.579043"
id="SmallMolecule_11d75f603962b9700eefbd4a3f4fe54a_Complex_b4143e93be4fe60412bd29d59642c9bd"
style="fill:white;fill-opacity:0.000000;stroke:black;stroke-width:1.000000;stroke-opacity:1.000000" />


<text
x="374.417416"
y="519.579043"
id="SmallMolecule_11d75f603962b9700eefbd4a3f4fe54a_Complex_b4143e93be4fe60412bd29d59642c9bd"
style="font-size:6.000000px;text-anchor:middle;font-family:Arial,Helvetica;alignment-baseline:baseline;stroke.opacity:1;dominant-baseline:baseline"
fill="black"
>
FAD</text>



<ellipse
rx="16.666667"
ry="16.666667"
cx="199.557267"
cy="294.323038"
id="SmallMolecule_9d435c469908cbaf13a6fce4d7cc62fd"
style="fill:white;fill-opacity:0.000000;stroke:black;stroke-width:1.000000;stroke-opacity:1.000000" />


<text
x="199.557267"
y="296.323038"
id="SmallMolecule_9d435c469908cbaf13a6fce4d7cc62fd"
style="font-size:6.000000px;text-anchor:middle;font-family:Arial,Helvetica;alignment-baseline:baseline;stroke.opacity:1;dominant-baseline:baseline"
fill="black"
>
H2O2</text>



<ellipse
rx="16.666667"
ry="16.666667"
cx="368.094487"
cy="340.405346"
id="SmallMolecule_b8a80225514e09a0790604a7aefbe8b5"
style="fill:white;fill-opacity:0.000000;stroke:black;stroke-width:1.000000;stroke-opacity:1.000000" />


<text
x="368.094487"
y="342.405346"
id="SmallMolecule_b8a80225514e09a0790604a7aefbe8b5"
style="font-size:6.000000px;text-anchor:middle;font-family:Arial,Helvetica;alignment-baseline:baseline;stroke.opacity:1;dominant-baseline:baseline"
fill="black"
>
SPM</text>



<ellipse
rx="16.666667"
ry="16.666667"
cx="256.188767"
cy="419.190161"
id="SmallMolecule_b1736a5a0b898c91fe9a0e8c0549381a"
style="fill:white;fill-opacity:0.000000;stroke:black;stroke-width:1.000000;stroke-opacity:1.000000" />


<text
x="256.188767"
y="421.190161"
id="SmallMolecule_b1736a5a0b898c91fe9a0e8c0549381a"
style="font-size:6.000000px;text-anchor:middle;font-family:Arial,Helvetica;alignment-baseline:baseline;stroke.opacity:1;dominant-baseline:baseline"
fill="black"
>
O2</text>



<ellipse
rx="16.666667"
ry="16.666667"
cx="321.118370"
cy="395.135954"
id="SmallMolecule_7b0f9692fc4ec56a16fb5381cde44cc2"
style="fill:white;fill-opacity:0.000000;stroke:black;stroke-width:1.000000;stroke-opacity:1.000000" />


<text
x="321.118370"
y="397.135954"
id="SmallMolecule_7b0f9692fc4ec56a16fb5381cde44cc2"
style="font-size:6.000000px;text-anchor:middle;font-family:Arial,Helvetica;alignment-baseline:baseline;stroke.opacity:1;dominant-baseline:baseline"
fill="black"
>
H2O</text>



<ellipse
rx="16.666667"
ry="16.666667"
cx="369.489541"
cy="222.051865"
id="SmallMolecule_e99aeebfdfd8295dd4b86cb7fbb805d8"
style="fill:white;fill-opacity:0.000000;stroke:black;stroke-width:1.000000;stroke-opacity:1.000000" />


<text
x="369.489541"
y="224.051865"
id="SmallMolecule_e99aeebfdfd8295dd4b86cb7fbb805d8"
style="font-size:6.000000px;text-anchor:middle;font-family:Arial,Helvetica;alignment-baseline:baseline;stroke.opacity:1;dominant-baseline:baseline"
fill="black"
>
SPN</text>



<ellipse
rx="16.666667"
ry="16.666667"
cx="167.432360"
cy="427.008833"
id="SmallMolecule_f1cb874b5e6fbbceb068d4def088462f"
style="fill:white;fill-opacity:0.000000;stroke:black;stroke-width:1.000000;stroke-opacity:1.000000" />


<text
x="167.432360"
y="429.008833"
id="SmallMolecule_f1cb874b5e6fbbceb068d4def088462f"
style="font-size:6.000000px;text-anchor:middle;font-family:Arial,Helvetica;alignment-baseline:baseline;stroke.opacity:1;dominant-baseline:baseline"
fill="black"
>
3AAPNAL</text>



<ellipse
rx="16.666667"
ry="16.666667"
cx="127.666667"
cy="358.811956"
id="SmallMolecule_84bd335846cd72bd559f84920eee4ede"
style="fill:white;fill-opacity:0.000000;stroke:black;stroke-width:1.000000;stroke-opacity:1.000000" />


<text
x="127.666667"
y="360.811956"
id="SmallMolecule_84bd335846cd72bd559f84920eee4ede"
style="font-size:6.000000px;text-anchor:middle;font-family:Arial,Helvetica;alignment-baseline:baseline;stroke.opacity:1;dominant-baseline:baseline"
fill="black"
>
PTCN</text>



<ellipse
rx="16.666667"
ry="16.666667"
cx="275.126583"
cy="210.666667"
id="SmallMolecule_6a3a84f75c3604cb27c8ad9a1040bbbc"
style="fill:white;fill-opacity:0.000000;stroke:black;stroke-width:1.000000;stroke-opacity:1.000000" />


<text
x="275.126583"
y="212.666667"
id="SmallMolecule_6a3a84f75c3604cb27c8ad9a1040bbbc"
style="font-size:6.000000px;text-anchor:middle;font-family:Arial,Helvetica;alignment-baseline:baseline;stroke.opacity:1;dominant-baseline:baseline"
fill="black"
>
3APAL</text>


<rect
width="16.666667"
height="16.666667"
rx="0.000000"
ry="0.000000"
x="216.224552"
y="370.997877"
id="reactome_R-HSA-141348_LEFT_TO_RIGHT"
style="fill:white;fill-opacity:0.600000;stroke:black;stroke-width:1.000000;stroke-opacity:1.000000" />



<rect
width="16.666667"
height="16.666667"
rx="0.000000"
ry="0.000000"
x="275.755407"
y="297.970873"
id="reactome_R-HSA-141341_LEFT_TO_RIGHT"
style="fill:white;fill-opacity:0.600000;stroke:black;stroke-width:1.000000;stroke-opacity:1.000000" />



<rect
width="16.666667"
height="16.666667"
rx="0.000000"
ry="0.000000"
x="260.841134"
y="350.573133"
id="reactome_R-HSA-141351_LEFT_TO_RIGHT"
style="fill:white;fill-opacity:0.600000;stroke:black;stroke-width:1.000000;stroke-opacity:1.000000" />





<path d="M183.000000 413.000000 C 194.000000 404.000000, 207.000000 393.000000,216.000000 386.000000" stroke="black"  fill="transparent"/>

<line
x1="207" y1="393" x2="216" y2="386"
id="0"
style="stroke:black;stroke-width:1.000000;stroke-opacity:0" />


<line
x1="194" y1="404" x2="183" y2="413"
id="reactome_R-HSA-141348_LEFT_TO_RIGHT-output--to--SmallMolecule_f1cb874b5e6fbbceb068d4def088462f"
style="stroke:black;stroke-width:1.000000;stroke-opacity:0" />


<polygon
points = "183,413 174.2,408.6 174.2,417.4"
id="line"
style="fill:black; stroke:#000000; stroke-width:1"
transform = "rotate(140.710593 183.000000 413.000000)"
/>


<path d="M304.000000 392.000000 C 283.000000 388.000000, 249.000000 383.000000,233.000000 380.000000" stroke="black"  fill="transparent"/>

<line
x1="283" y1="388" x2="304" y2="392"
id="0"
style="stroke:black;stroke-width:1.000000;stroke-opacity:0" />


<line
x1="249" y1="383" x2="233" y2="380"
id="SmallMolecule_7b0f9692fc4ec56a16fb5381cde44cc2--to--reactome_R-HSA-141348_LEFT_TO_RIGHT-input"
style="stroke:black;stroke-width:1.000000;stroke-opacity:0" />


<path d="M304.000000 383.000000 C 295.000000 377.000000, 284.000000 369.000000,277.000000 364.000000" stroke="black"  fill="transparent"/>

<line
x1="295" y1="377" x2="304" y2="383"
id="0"
style="stroke:black;stroke-width:1.000000;stroke-opacity:0" />


<line
x1="284" y1="369" x2="277" y2="364"
id="SmallMolecule_7b0f9692fc4ec56a16fb5381cde44cc2--to--reactome_R-HSA-141351_LEFT_TO_RIGHT-input"
style="stroke:black;stroke-width:1.000000;stroke-opacity:0" />


<path d="M318.000000 296.000000 C 305.000000 313.000000, 286.000000 337.000000,276.000000 350.000000" stroke="black"  fill="transparent"/>

<line
x1="305" y1="313" x2="318" y2="296"
id="0"
style="stroke:black;stroke-width:1.000000;stroke-opacity:0" />


<line
x1="286" y1="337" x2="276" y2="350"
id="SmallMolecule_f24255a32cc658c139e6d6d1f98d365e--to--reactome_R-HSA-141351_LEFT_TO_RIGHT-input"
style="stroke:black;stroke-width:1.000000;stroke-opacity:0" />


<path d="M204.000000 311.000000 C 209.000000 328.000000, 217.000000 356.000000,221.000000 370.000000" stroke="black"  fill="transparent"/>

<line
x1="217" y1="356" x2="221" y2="370"
id="0"
style="stroke:black;stroke-width:1.000000;stroke-opacity:0" />


<line
x1="209" y1="328" x2="204" y2="311"
id="reactome_R-HSA-141348_LEFT_TO_RIGHT-output--to--SmallMolecule_9d435c469908cbaf13a6fce4d7cc62fd"
style="stroke:black;stroke-width:1.000000;stroke-opacity:0" />


<polygon
points = "204,311 195.2,306.6 195.2,315.4"
id="line"
style="fill:black; stroke:#000000; stroke-width:1"
transform = "rotate(253.610460 204.000000 311.000000)"
/>


<path d="M215.000000 296.000000 C 233.000000 299.000000, 261.000000 303.000000,275.000000 305.000000" stroke="black"  fill="transparent"/>

<line
x1="261" y1="303" x2="275" y2="305"
id="0"
style="stroke:black;stroke-width:1.000000;stroke-opacity:0" />


<line
x1="233" y1="299" x2="215" y2="296"
id="reactome_R-HSA-141341_LEFT_TO_RIGHT-output--to--SmallMolecule_9d435c469908cbaf13a6fce4d7cc62fd"
style="stroke:black;stroke-width:1.000000;stroke-opacity:0" />


<polygon
points = "215,296 206.2,291.6 206.2,300.4"
id="line"
style="fill:black; stroke:#000000; stroke-width:1"
transform = "rotate(189.462322 215.000000 296.000000)"
/>


<path d="M219.000000 469.000000 C 220.000000 446.000000, 223.000000 405.000000,224.000000 388.000000" stroke="black"  fill="transparent"/>

<line
x1="220" y1="446" x2="219" y2="469"
id="0"
style="stroke:black;stroke-width:1.000000;stroke-opacity:0" />


<line
x1="223" y1="405" x2="224" y2="388"
id="SmallMolecule_9e9154cca6427b4c52b4da01f045c07e--to--reactome_R-HSA-141348_LEFT_TO_RIGHT-input"
style="stroke:black;stroke-width:1.000000;stroke-opacity:0" />


<path d="M259.000000 402.000000 C 262.000000 391.000000, 265.000000 376.000000,267.000000 367.000000" stroke="black"  fill="transparent"/>

<line
x1="262" y1="391" x2="259" y2="402"
id="0"
style="stroke:black;stroke-width:1.000000;stroke-opacity:0" />


<line
x1="265" y1="376" x2="267" y2="367"
id="SmallMolecule_b1736a5a0b898c91fe9a0e8c0549381a--to--reactome_R-HSA-141351_LEFT_TO_RIGHT-input"
style="stroke:black;stroke-width:1.000000;stroke-opacity:0" />


<path d="M351.000000 333.000000 C 333.000000 326.000000, 306.000000 315.000000,292.000000 309.000000" stroke="black"  fill="transparent"/>

<line
x1="306" y1="315" x2="292" y2="309"
id="0"
style="stroke:black;stroke-width:1.000000;stroke-opacity:0" />


<line
x1="333" y1="326" x2="351" y2="333"
id="reactome_R-HSA-141341_LEFT_TO_RIGHT-output--to--SmallMolecule_b8a80225514e09a0790604a7aefbe8b5"
style="stroke:black;stroke-width:1.000000;stroke-opacity:0" />


<polygon
points = "351,333 342.2,328.6 342.2,337.4"
id="line"
style="fill:black; stroke:#000000; stroke-width:1"
transform = "rotate(21.250506 351.000000 333.000000)"
/>


<path d="M266.000000 402.000000 C 272.000000 393.000000, 277.000000 381.000000,280.000000 370.000000" stroke="black"  fill="transparent"/>
<path d="M280.000000 370.000000 C 285.000000 351.000000, 285.000000 327.000000,284.000000 315.000000" stroke="black"  fill="transparent"/>

<line
x1="272" y1="393" x2="266" y2="402"
id="0"
style="stroke:black;stroke-width:1.000000;stroke-opacity:0" />


<line
x1="285" y1="327" x2="284" y2="315"
id="SmallMolecule_b1736a5a0b898c91fe9a0e8c0549381a--to--reactome_R-HSA-141341_LEFT_TO_RIGHT-input"
style="stroke:black;stroke-width:1.000000;stroke-opacity:0" />


<path d="M352.000000 230.000000 C 340.000000 237.000000, 323.000000 247.000000,311.000000 260.000000" stroke="black"  fill="transparent"/>
<path d="M311.000000 260.000000 C 300.000000 271.000000, 292.000000 287.000000,287.000000 297.000000" stroke="black"  fill="transparent"/>

<line
x1="340" y1="237" x2="352" y2="230"
id="0"
style="stroke:black;stroke-width:1.000000;stroke-opacity:0" />


<line
x1="292" y1="287" x2="287" y2="297"
id="SmallMolecule_e99aeebfdfd8295dd4b86cb7fbb805d8--to--reactome_R-HSA-141341_LEFT_TO_RIGHT-input"
style="stroke:black;stroke-width:1.000000;stroke-opacity:0" />


<path d="M276.000000 227.000000 C 278.000000 247.000000, 281.000000 281.000000,283.000000 297.000000" stroke="black"  fill="transparent"/>

<line
x1="281" y1="281" x2="283" y2="297"
id="0"
style="stroke:black;stroke-width:1.000000;stroke-opacity:0" />


<line
x1="278" y1="247" x2="276" y2="227"
id="reactome_R-HSA-141341_LEFT_TO_RIGHT-output--to--SmallMolecule_6a3a84f75c3604cb27c8ad9a1040bbbc"
style="stroke:black;stroke-width:1.000000;stroke-opacity:0" />


<polygon
points = "276,227 267.2,222.6 267.2,231.4"
id="line"
style="fill:black; stroke:#000000; stroke-width:1"
transform = "rotate(264.289407 276.000000 227.000000)"
/>


<path d="M183.000000 420.000000 C 198.000000 413.000000, 219.000000 403.000000,236.000000 391.000000" stroke="black"  fill="transparent"/>
<path d="M236.000000 391.000000 C 245.000000 384.000000, 255.000000 374.000000,261.000000 367.000000" stroke="black"  fill="transparent"/>

<line
x1="255" y1="374" x2="261" y2="367"
id="0"
style="stroke:black;stroke-width:1.000000;stroke-opacity:0" />


<line
x1="198" y1="413" x2="183" y2="420"
id="reactome_R-HSA-141351_LEFT_TO_RIGHT-output--to--SmallMolecule_f1cb874b5e6fbbceb068d4def088462f"
style="stroke:black;stroke-width:1.000000;stroke-opacity:0" />


<polygon
points = "183,420 174.2,415.6 174.2,424.4"
id="line"
style="fill:black; stroke:#000000; stroke-width:1"
transform = "rotate(154.983107 183.000000 420.000000)"
/>


<path d="M216.000000 309.000000 C 230.000000 322.000000, 249.000000 340.000000,260.000000 350.000000" stroke="black"  fill="transparent"/>

<line
x1="249" y1="340" x2="260" y2="350"
id="0"
style="stroke:black;stroke-width:1.000000;stroke-opacity:0" />


<line
x1="230" y1="322" x2="216" y2="309"
id="reactome_R-HSA-141351_LEFT_TO_RIGHT-output--to--SmallMolecule_9d435c469908cbaf13a6fce4d7cc62fd"
style="stroke:black;stroke-width:1.000000;stroke-opacity:0" />


<polygon
points = "216,309 207.2,304.6 207.2,313.4"
id="line"
style="fill:black; stroke:#000000; stroke-width:1"
transform = "rotate(222.878904 216.000000 309.000000)"
/>


<path d="M348.000000 464.000000 C 333.000000 450.000000, 315.000000 432.000000,301.000000 414.000000" stroke="black"  fill="transparent"/>
<path d="M301.000000 414.000000 C 289.000000 399.000000, 278.000000 379.000000,273.000000 367.000000" stroke="black"  fill="transparent"/>

<line
x1="333" y1="450" x2="348" y2="464"
id="0"
style="stroke:black;stroke-width:1.000000;stroke-opacity:0" />


<line
x1="278" y1="379" x2="273" y2="367"
id="Complex_b4143e93be4fe60412bd29d59642c9bd--to--reactome_R-HSA-141351_LEFT_TO_RIGHT"
style="stroke:black;stroke-width:1.000000;stroke-opacity:0" />


<ellipse
rx="4.400000"
ry="4.400000"
cx="274.692308"
cy="371.061538"
id="Complex_b4143e93be4fe60412bd29d59642c9bd--to--reactome_R-HSA-141351_LEFT_TO_RIGHT"
style="fill:white;fill-opacity:0.800000;stroke:black;stroke-width:1.000000;stroke-opacity:1.000000" />


<path d="M144.000000 362.000000 C 165.000000 366.000000, 199.000000 374.000000,215.000000 377.000000" stroke="black"  fill="transparent"/>

<line
x1="199" y1="374" x2="215" y2="377"
id="0"
style="stroke:black;stroke-width:1.000000;stroke-opacity:0" />


<line
x1="165" y1="366" x2="144" y2="362"
id="reactome_R-HSA-141348_LEFT_TO_RIGHT-output--to--SmallMolecule_84bd335846cd72bd559f84920eee4ede"
style="stroke:black;stroke-width:1.000000;stroke-opacity:0" />


<polygon
points = "144,362 135.2,357.6 135.2,366.4"
id="line"
style="fill:black; stroke:#000000; stroke-width:1"
transform = "rotate(190.784298 144.000000 362.000000)"
/>


<path d="M242.000000 402.000000 C 239.000000 397.000000, 234.000000 392.000000,231.000000 388.000000" stroke="black"  fill="transparent"/>

<line
x1="239" y1="397" x2="242" y2="402"
id="0"
style="stroke:black;stroke-width:1.000000;stroke-opacity:0" />


<line
x1="234" y1="392" x2="231" y2="388"
id="SmallMolecule_b1736a5a0b898c91fe9a0e8c0549381a--to--reactome_R-HSA-141348_LEFT_TO_RIGHT-input"
style="stroke:black;stroke-width:1.000000;stroke-opacity:0" />


<path d="M348.000000 457.000000 C 328.000000 437.000000, 302.000000 415.000000,275.000000 399.000000" stroke="black"  fill="transparent"/>
<path d="M275.000000 399.000000 C 261.000000 390.000000, 243.000000 384.000000,232.000000 381.000000" stroke="black"  fill="transparent"/>

<line
x1="328" y1="437" x2="348" y2="457"
id="0"
style="stroke:black;stroke-width:1.000000;stroke-opacity:0" />


<line
x1="243" y1="384" x2="232" y2="381"
id="Complex_b4143e93be4fe60412bd29d59642c9bd--to--reactome_R-HSA-141348_LEFT_TO_RIGHT"
style="stroke:black;stroke-width:1.000000;stroke-opacity:0" />


<ellipse
rx="4.400000"
ry="4.400000"
cx="236.244961"
cy="382.157717"
id="Complex_b4143e93be4fe60412bd29d59642c9bd--to--reactome_R-HSA-141348_LEFT_TO_RIGHT"
style="fill:white;fill-opacity:0.800000;stroke:black;stroke-width:1.000000;stroke-opacity:1.000000" />


<path d="M207.000000 252.000000 C 229.000000 267.000000, 260.000000 289.000000,275.000000 300.000000" stroke="black"  fill="transparent"/>

<line
x1="229" y1="267" x2="207" y2="252"
id="0"
style="stroke:black;stroke-width:1.000000;stroke-opacity:0" />


<line
x1="260" y1="289" x2="275" y2="300"
id="Protein_dc70fbbd73dddb1c98e4e43b0cbdd5e8--to--reactome_R-HSA-141341_LEFT_TO_RIGHT"
style="stroke:black;stroke-width:1.000000;stroke-opacity:0" />


<ellipse
rx="4.400000"
ry="4.400000"
cx="271.451818"
cy="297.398000"
id="Protein_dc70fbbd73dddb1c98e4e43b0cbdd5e8--to--reactome_R-HSA-141341_LEFT_TO_RIGHT"
style="fill:white;fill-opacity:0.800000;stroke:black;stroke-width:1.000000;stroke-opacity:1.000000" />


<path d="M314.000000 378.000000 C 306.000000 359.000000, 293.000000 329.000000,287.000000 314.000000" stroke="black"  fill="transparent"/>

<line
x1="306" y1="359" x2="314" y2="378"
id="0"
style="stroke:black;stroke-width:1.000000;stroke-opacity:0" />


<line
x1="293" y1="329" x2="287" y2="314"
id="SmallMolecule_7b0f9692fc4ec56a16fb5381cde44cc2--to--reactome_R-HSA-141341_LEFT_TO_RIGHT-input"
style="stroke:black;stroke-width:1.000000;stroke-opacity:0" />


<path d="M351.000000 343.000000 C 330.000000 347.000000, 294.000000 354.000000,277.000000 357.000000" stroke="black"  fill="transparent"/>

<line
x1="294" y1="354" x2="277" y2="357"
id="0"
style="stroke:black;stroke-width:1.000000;stroke-opacity:0" />


<line
x1="330" y1="347" x2="351" y2="343"
id="reactome_R-HSA-141351_LEFT_TO_RIGHT-output--to--SmallMolecule_b8a80225514e09a0790604a7aefbe8b5"
style="stroke:black;stroke-width:1.000000;stroke-opacity:0" />


<polygon
points = "351,343 342.2,338.6 342.2,347.4"
id="line"
style="fill:black; stroke:#000000; stroke-width:1"
transform = "rotate(-10.784298 351.000000 343.000000)"
/>



</svg>
