<?xml version="1.0" encoding="UTF-8"?>
<svg width="1062.572878" height="1658.816542"
xmlns="http://www.w3.org/2000/svg" xmlns:svg="http://www.w3.org/2000/svg"
>
<metadata id="metadata7">image/svg+xml</metadata>

<rect
width="338.286422"
height="269.477272"
rx="11.000000"
ry="11.000000"
x="124.886755"
y="972.163566"
id="exocytic_vesicle"
style="fill:white;fill-opacity:0.900000;stroke:black;stroke-width:5.000000;stroke-opacity:1.000000" />


<text
x="294.029965"
y="964.163566"
id="exocytic_vesicle"
style="font-size:6.000000px;text-anchor:middle;font-family:Arial,Helvetica;alignment-baseline:baseline;stroke.opacity:1;dominant-baseline:baseline"
fill="black"
>
exocytic vesicle</text>


<rect
width="544.364222"
height="727.381906"
rx="11.000000"
ry="11.000000"
x="188.208656"
y="183.000000"
id="cytosol"
style="fill:white;fill-opacity:0.900000;stroke:black;stroke-width:5.000000;stroke-opacity:1.000000" />


<text
x="460.390767"
y="175.000000"
id="cytosol"
style="font-size:6.000000px;text-anchor:middle;font-family:Arial,Helvetica;alignment-baseline:baseline;stroke.opacity:1;dominant-baseline:baseline"
fill="black"
>
cytosol</text>


<rect
width="91.654180"
height="129.700761"
rx="11.000000"
ry="11.000000"
x="100.000000"
y="1133.900221"
id="endoplasmic_reticulum"
style="fill:white;fill-opacity:0.900000;stroke:black;stroke-width:5.000000;stroke-opacity:1.000000" />


<text
x="145.827090"
y="1125.900221"
id="endoplasmic_reticulum"
style="font-size:6.000000px;text-anchor:middle;font-family:Arial,Helvetica;alignment-baseline:baseline;stroke.opacity:1;dominant-baseline:baseline"
fill="black"
>
endoplasmic reticulum</text>



<path
d="M 603.556211574296 811.865239666902 603.556211574296 893.881906333569 609.056211574296 899.381906333569 716.072878240962 899.381906333569 721.572878240962 893.881906333569 721.572878240962 811.865239666902 716.072878240962 806.365239666902 609.056211574296 806.365239666902 Z"
id="Complex_bda1ee8ff1f0a1e0f914cd586ab02ee4"
style="fill:white;fill-opacity:0.600000;stroke-width:1;stroke:black;stroke-opacity:1.000000"
transform = "rotate(0.000000 0.000000 0.000000)"
/>


<text
x="662.564545"
y="798.365240"
id="Complex_bda1ee8ff1f0a1e0f914cd586ab02ee4"
style="font-size:6.000000px;text-anchor:middle;font-family:Arial,Helvetica;alignment-baseline:baseline;stroke.opacity:1;dominant-baseline:baseline"
fill="black"
>
Complex (GDP/G-Protein/ TRH Receptor)</text>


<path
d="M 568.960080668146 286.226920811862 568.960080668146 368.243587478529 574.460080668146 373.743587478529 639.393414001479 373.743587478529 644.893414001479 368.243587478529 644.893414001479 286.226920811862 639.393414001479 280.726920811862 574.460080668146 280.726920811862 Z"
id="Complex_5f5fc99012866ab52bc745363124aa3c"
style="fill:white;fill-opacity:0.600000;stroke-width:1;stroke:black;stroke-opacity:1.000000"
transform = "rotate(0.000000 0.000000 0.000000)"
/>


<text
x="606.926747"
y="272.726921"
id="Complex_5f5fc99012866ab52bc745363124aa3c"
style="font-size:6.000000px;text-anchor:middle;font-family:Arial,Helvetica;alignment-baseline:baseline;stroke.opacity:1;dominant-baseline:baseline"
fill="black"
>
Complex (TRH Receptor/TRH)</text>


<path
d="M 464.986387862495 545.037569293259 464.986387862495 627.054235959925 470.486387862495 632.554235959925 602.503054529162 632.554235959925 608.003054529162 627.054235959925 608.003054529162 545.037569293259 602.503054529162 539.537569293259 470.486387862495 539.537569293259 Z"
id="Complex_caee5d1c9f4782493a6b956fb26a5650"
style="fill:white;fill-opacity:0.600000;stroke-width:1;stroke:black;stroke-opacity:1.000000"
transform = "rotate(0.000000 0.000000 0.000000)"
/>


<text
x="536.494721"
y="531.537569"
id="Complex_caee5d1c9f4782493a6b956fb26a5650"
style="font-size:6.000000px;text-anchor:middle;font-family:Arial,Helvetica;alignment-baseline:baseline;stroke.opacity:1;dominant-baseline:baseline"
fill="black"
>
Complex (GDP/G-Protein/ TRH Receptor/TRH)</text>


<path
d="M 419.91051906593 249.320675926535 419.91051906593 331.337342593201 425.41051906593 336.837342593201 490.343852399263 336.837342593201 495.843852399263 331.337342593201 495.843852399263 249.320675926535 490.343852399263 243.820675926535 425.41051906593 243.820675926535 Z"
id="Complex_b07156e300a2b86e234c53fd7f393491"
style="fill:white;fill-opacity:0.600000;stroke-width:1;stroke:black;stroke-opacity:1.000000"
transform = "rotate(0.000000 0.000000 0.000000)"
/>


<text
x="457.877186"
y="235.820676"
id="Complex_b07156e300a2b86e234c53fd7f393491"
style="font-size:6.000000px;text-anchor:middle;font-family:Arial,Helvetica;alignment-baseline:baseline;stroke.opacity:1;dominant-baseline:baseline"
fill="black"
>
Complex (GTP/G-Protein)</text>


<path
d="M 309.115490392039 1143.12417062614 309.115490392039 1225.14083729281 314.615490392039 1230.64083729281 379.548823725372 1230.64083729281 385.048823725372 1225.14083729281 385.048823725372 1143.12417062614 379.548823725372 1137.62417062614 314.615490392039 1137.62417062614 Z"
id="Complex_d23e8fa38a05757ab29dbe8138929e4b"
style="fill:white;fill-opacity:0.600000;stroke-width:1;stroke:black;stroke-opacity:1.000000"
transform = "rotate(0.000000 0.000000 0.000000)"
/>


<text
x="347.082157"
y="1129.624171"
id="Complex_d23e8fa38a05757ab29dbe8138929e4b"
style="font-size:6.000000px;text-anchor:middle;font-family:Arial,Helvetica;alignment-baseline:baseline;stroke.opacity:1;dominant-baseline:baseline"
fill="black"
>
Complex (SNARE COMPLEX/Ca2+)</text>




<rect
width="58.333333"
height="33.333333"
rx="3.333333"
ry="3.333333"
x="324.338179"
y="1261.666113"
id="Protein_304e5956050bc38dd09bfdeb299e93f2"
style="fill:white;fill-opacity:1.000000;stroke:black;stroke-width:1.000000;stroke-opacity:1.000000" />


<text
x="353.504846"
y="1280.332780"
id="Protein_304e5956050bc38dd09bfdeb299e93f2"
style="font-size:6.000000px;text-anchor:middle;font-family:Arial,Helvetica;alignment-baseline:baseline;stroke.opacity:1;dominant-baseline:baseline"
fill="black"
>
TRH</text>



<rect
width="58.333333"
height="33.333333"
rx="3.333333"
ry="3.333333"
x="406.379748"
y="1425.483209"
id="Protein_91e7831b2fcb7867a88561b63aae80cb"
style="fill:white;fill-opacity:1.000000;stroke:black;stroke-width:1.000000;stroke-opacity:1.000000" />


<text
x="435.546414"
y="1444.149876"
id="Protein_91e7831b2fcb7867a88561b63aae80cb"
style="font-size:6.000000px;text-anchor:middle;font-family:Arial,Helvetica;alignment-baseline:baseline;stroke.opacity:1;dominant-baseline:baseline"
fill="black"
>
Thyrotropin</text>



<ellipse
rx="16.666667"
ry="16.666667"
cx="156.030954"
cy="903.867310"
id="SmallMolecule_c51d3df91f4fc90a3bdcd0524aa3d364"
style="fill:white;fill-opacity:0.000000;stroke:black;stroke-width:1.000000;stroke-opacity:1.000000" />


<text
x="156.030954"
y="905.867310"
id="SmallMolecule_c51d3df91f4fc90a3bdcd0524aa3d364"
style="font-size:6.000000px;text-anchor:middle;font-family:Arial,Helvetica;alignment-baseline:baseline;stroke.opacity:1;dominant-baseline:baseline"
fill="black"
>
Ca2+</text>



<rect
width="58.333333"
height="33.333333"
rx="3.333333"
ry="3.333333"
x="111.000000"
y="1219.267649"
id="Protein_4e18c88f0ae4de13f01d3da81b34cf69"
style="fill:white;fill-opacity:1.000000;stroke:black;stroke-width:1.000000;stroke-opacity:1.000000" />



<text
x="140.166667"
y="1231.934315"
id="Protein_4e18c88f0ae4de13f01d3da81b34cf69"
style="font-size:6.000000px;text-anchor:middle;font-family:Arial,Helvetica;alignment-baseline:baseline;stroke.opacity:1;dominant-baseline:baseline"
fill="black"
>
ProTRH (Pro Thyrotr-</text>


<text
x="140.166667"
y="1237.934315"
id="Protein_4e18c88f0ae4de13f01d3da81b34cf69"
style="font-size:6.000000px;text-anchor:middle;font-family:Arial,Helvetica;alignment-baseline:baseline;stroke.opacity:1;dominant-baseline:baseline"
fill="black"
>
opin-releasing Horm-</text>


<text
x="140.166667"
y="1243.934315"
id="Protein_4e18c88f0ae4de13f01d3da81b34cf69"
style="font-size:6.000000px;text-anchor:middle;font-family:Arial,Helvetica;alignment-baseline:baseline;stroke.opacity:1;dominant-baseline:baseline"
fill="black"
>
one)</text>


<rect
width="16.666667"
height="16.666667"
rx="0.000000"
ry="0.000000"
x="163.987514"
y="1144.900221"
id="Conversion_5d04a188aeeb8204c929a2f0ac55de92_LEFT_TO_RIGHT"
style="fill:white;fill-opacity:0.600000;stroke:black;stroke-width:1.000000;stroke-opacity:1.000000" />




<ellipse
rx="16.666667"
ry="16.666667"
cx="696.106212"
cy="831.831906"
id="SmallMolecule_56b8e15c96b9568b500918c08d10bef4_Complex_bda1ee8ff1f0a1e0f914cd586ab02ee4"
style="fill:white;fill-opacity:0.000000;stroke:black;stroke-width:1.000000;stroke-opacity:1.000000" />


<text
x="696.106212"
y="833.831906"
id="SmallMolecule_56b8e15c96b9568b500918c08d10bef4_Complex_bda1ee8ff1f0a1e0f914cd586ab02ee4"
style="font-size:6.000000px;text-anchor:middle;font-family:Arial,Helvetica;alignment-baseline:baseline;stroke.opacity:1;dominant-baseline:baseline"
fill="black"
>
GDP</text>



<rect
width="58.333333"
height="33.333333"
rx="3.333333"
ry="3.333333"
x="612.356212"
y="815.165240"
id="Protein_07b7777a1c244648969061791fe3f683_Complex_bda1ee8ff1f0a1e0f914cd586ab02ee4"
style="fill:white;fill-opacity:1.000000;stroke:black;stroke-width:1.000000;stroke-opacity:1.000000" />


<text
x="641.522878"
y="833.831906"
id="Protein_07b7777a1c244648969061791fe3f683_Complex_bda1ee8ff1f0a1e0f914cd586ab02ee4"
style="font-size:6.000000px;text-anchor:middle;font-family:Arial,Helvetica;alignment-baseline:baseline;stroke.opacity:1;dominant-baseline:baseline"
fill="black"
>
G-Protein</text>



<rect
width="58.333333"
height="33.333333"
rx="3.333333"
ry="3.333333"
x="612.356212"
y="857.248573"
id="Protein_cb0f8dd5c5cd84502da0e0459e325985_Complex_bda1ee8ff1f0a1e0f914cd586ab02ee4"
style="fill:white;fill-opacity:1.000000;stroke:black;stroke-width:1.000000;stroke-opacity:1.000000" />


<text
x="641.522878"
y="875.915240"
id="Protein_cb0f8dd5c5cd84502da0e0459e325985_Complex_bda1ee8ff1f0a1e0f914cd586ab02ee4"
style="font-size:6.000000px;text-anchor:middle;font-family:Arial,Helvetica;alignment-baseline:baseline;stroke.opacity:1;dominant-baseline:baseline"
fill="black"
>
TRH Receptor</text>



<rect
width="58.333333"
height="33.333333"
rx="3.333333"
ry="3.333333"
x="261.248760"
y="341.507789"
id="Protein_0fa1c19d38b9c231f9b92b1521314a21"
style="fill:white;fill-opacity:1.000000;stroke:black;stroke-width:1.000000;stroke-opacity:1.000000" />


<text
x="290.415426"
y="360.174456"
id="Protein_0fa1c19d38b9c231f9b92b1521314a21"
style="font-size:6.000000px;text-anchor:middle;font-family:Arial,Helvetica;alignment-baseline:baseline;stroke.opacity:1;dominant-baseline:baseline"
fill="black"
>
PLC</text>



<rect
width="58.333333"
height="33.333333"
rx="3.333333"
ry="3.333333"
x="199.208656"
y="718.318082"
id="Protein_080c527a801bf976997ad951d263023d"
style="fill:white;fill-opacity:1.000000;stroke:black;stroke-width:1.000000;stroke-opacity:1.000000" />


<text
x="228.375323"
y="736.984748"
id="Protein_080c527a801bf976997ad951d263023d"
style="font-size:6.000000px;text-anchor:middle;font-family:Arial,Helvetica;alignment-baseline:baseline;stroke.opacity:1;dominant-baseline:baseline"
fill="black"
>
Ca2+ channel</text>



<ellipse
rx="16.666667"
ry="16.666667"
cx="263.603089"
cy="504.122834"
id="SmallMolecule_c98ebb4b26f412dbb8a82c5ac1903622"
style="fill:white;fill-opacity:0.000000;stroke:black;stroke-width:1.000000;stroke-opacity:1.000000" />


<text
x="263.603089"
y="506.122834"
id="SmallMolecule_c98ebb4b26f412dbb8a82c5ac1903622"
style="font-size:6.000000px;text-anchor:middle;font-family:Arial,Helvetica;alignment-baseline:baseline;stroke.opacity:1;dominant-baseline:baseline"
fill="black"
>
DAG</text>



<rect
width="58.333333"
height="33.333333"
rx="3.333333"
ry="3.333333"
x="321.850517"
y="194.000000"
id="Protein_afe6d381c0b88155edda61f8de828b51"
style="fill:white;fill-opacity:1.000000;stroke:black;stroke-width:1.000000;stroke-opacity:1.000000" />


<text
x="351.017184"
y="212.666667"
id="Protein_afe6d381c0b88155edda61f8de828b51"
style="font-size:6.000000px;text-anchor:middle;font-family:Arial,Helvetica;alignment-baseline:baseline;stroke.opacity:1;dominant-baseline:baseline"
fill="black"
>
PLC</text>



<rect
width="58.333333"
height="33.333333"
rx="3.333333"
ry="3.333333"
x="322.935548"
y="764.692827"
id="Protein_3b04a06ce974ce5f344167642da72056"
style="fill:white;fill-opacity:1.000000;stroke:black;stroke-width:1.000000;stroke-opacity:1.000000" />


<text
x="352.102215"
y="783.359494"
id="Protein_3b04a06ce974ce5f344167642da72056"
style="font-size:6.000000px;text-anchor:middle;font-family:Arial,Helvetica;alignment-baseline:baseline;stroke.opacity:1;dominant-baseline:baseline"
fill="black"
>
Ca2+ channel</text>



<rect
width="58.333333"
height="33.333333"
rx="3.333333"
ry="3.333333"
x="577.760081"
y="289.526921"
id="Protein_fb16d8d99aadae87325140fd514165e6_Complex_5f5fc99012866ab52bc745363124aa3c"
style="fill:white;fill-opacity:1.000000;stroke:black;stroke-width:1.000000;stroke-opacity:1.000000" />


<text
x="606.926747"
y="308.193587"
id="Protein_fb16d8d99aadae87325140fd514165e6_Complex_5f5fc99012866ab52bc745363124aa3c"
style="font-size:6.000000px;text-anchor:middle;font-family:Arial,Helvetica;alignment-baseline:baseline;stroke.opacity:1;dominant-baseline:baseline"
fill="black"
>
TRH Receptor</text>



<rect
width="58.333333"
height="33.333333"
rx="3.333333"
ry="3.333333"
x="577.760081"
y="331.610254"
id="Protein_74c104da1f8e2f7916ca2274a61d649a_Complex_5f5fc99012866ab52bc745363124aa3c"
style="fill:white;fill-opacity:1.000000;stroke:black;stroke-width:1.000000;stroke-opacity:1.000000" />


<text
x="606.926747"
y="350.276921"
id="Protein_74c104da1f8e2f7916ca2274a61d649a_Complex_5f5fc99012866ab52bc745363124aa3c"
style="font-size:6.000000px;text-anchor:middle;font-family:Arial,Helvetica;alignment-baseline:baseline;stroke.opacity:1;dominant-baseline:baseline"
fill="black"
>
TRH</text>



<ellipse
rx="16.666667"
ry="16.666667"
cx="557.536388"
cy="607.087569"
id="SmallMolecule_2e6a4af3ea7b5c963a6c76b40affd656_Complex_caee5d1c9f4782493a6b956fb26a5650"
style="fill:white;fill-opacity:0.000000;stroke:black;stroke-width:1.000000;stroke-opacity:1.000000" />


<text
x="557.536388"
y="609.087569"
id="SmallMolecule_2e6a4af3ea7b5c963a6c76b40affd656_Complex_caee5d1c9f4782493a6b956fb26a5650"
style="font-size:6.000000px;text-anchor:middle;font-family:Arial,Helvetica;alignment-baseline:baseline;stroke.opacity:1;dominant-baseline:baseline"
fill="black"
>
GDP</text>



<rect
width="58.333333"
height="33.333333"
rx="3.333333"
ry="3.333333"
x="473.786388"
y="548.337569"
id="Protein_29af9a0a5a98cdf98c369e1191070d82_Complex_caee5d1c9f4782493a6b956fb26a5650"
style="fill:white;fill-opacity:1.000000;stroke:black;stroke-width:1.000000;stroke-opacity:1.000000" />


<text
x="502.953055"
y="567.004236"
id="Protein_29af9a0a5a98cdf98c369e1191070d82_Complex_caee5d1c9f4782493a6b956fb26a5650"
style="font-size:6.000000px;text-anchor:middle;font-family:Arial,Helvetica;alignment-baseline:baseline;stroke.opacity:1;dominant-baseline:baseline"
fill="black"
>
G-Protein</text>



<rect
width="58.333333"
height="33.333333"
rx="3.333333"
ry="3.333333"
x="473.786388"
y="590.420903"
id="Protein_1d8d3c5af4007018ad9dbca5280d5d21_Complex_caee5d1c9f4782493a6b956fb26a5650"
style="fill:white;fill-opacity:1.000000;stroke:black;stroke-width:1.000000;stroke-opacity:1.000000" />


<text
x="502.953055"
y="609.087569"
id="Protein_1d8d3c5af4007018ad9dbca5280d5d21_Complex_caee5d1c9f4782493a6b956fb26a5650"
style="font-size:6.000000px;text-anchor:middle;font-family:Arial,Helvetica;alignment-baseline:baseline;stroke.opacity:1;dominant-baseline:baseline"
fill="black"
>
TRH</text>



<rect
width="58.333333"
height="33.333333"
rx="3.333333"
ry="3.333333"
x="540.869721"
y="548.337569"
id="Protein_9dd8a80dfa69fd8364b04b3ca3611c02_Complex_caee5d1c9f4782493a6b956fb26a5650"
style="fill:white;fill-opacity:1.000000;stroke:black;stroke-width:1.000000;stroke-opacity:1.000000" />


<text
x="570.036388"
y="567.004236"
id="Protein_9dd8a80dfa69fd8364b04b3ca3611c02_Complex_caee5d1c9f4782493a6b956fb26a5650"
style="font-size:6.000000px;text-anchor:middle;font-family:Arial,Helvetica;alignment-baseline:baseline;stroke.opacity:1;dominant-baseline:baseline"
fill="black"
>
TRH Receptor</text>



<ellipse
rx="16.666667"
ry="16.666667"
cx="501.899749"
cy="879.890705"
id="SmallMolecule_f7fc6d5e54ae6e072efd406d184c6c31"
style="fill:white;fill-opacity:0.000000;stroke:black;stroke-width:1.000000;stroke-opacity:1.000000" />


<text
x="501.899749"
y="881.890705"
id="SmallMolecule_f7fc6d5e54ae6e072efd406d184c6c31"
style="font-size:6.000000px;text-anchor:middle;font-family:Arial,Helvetica;alignment-baseline:baseline;stroke.opacity:1;dominant-baseline:baseline"
fill="black"
>
Ca2+</text>



<ellipse
rx="16.666667"
ry="16.666667"
cx="403.523700"
cy="488.848897"
id="SmallMolecule_753e48b125808b30c1203fd8f95c7f8c"
style="fill:white;fill-opacity:0.000000;stroke:black;stroke-width:1.000000;stroke-opacity:1.000000" />


<text
x="403.523700"
y="490.848897"
id="SmallMolecule_753e48b125808b30c1203fd8f95c7f8c"
style="font-size:6.000000px;text-anchor:middle;font-family:Arial,Helvetica;alignment-baseline:baseline;stroke.opacity:1;dominant-baseline:baseline"
fill="black"
>
IP3</text>



<ellipse
rx="16.666667"
ry="16.666667"
cx="620.051020"
cy="473.097842"
id="SmallMolecule_9e2d5bdf4c0dfd904913845d378a6ed3"
style="fill:white;fill-opacity:0.000000;stroke:black;stroke-width:1.000000;stroke-opacity:1.000000" />


<text
x="620.051020"
y="475.097842"
id="SmallMolecule_9e2d5bdf4c0dfd904913845d378a6ed3"
style="font-size:6.000000px;text-anchor:middle;font-family:Arial,Helvetica;alignment-baseline:baseline;stroke.opacity:1;dominant-baseline:baseline"
fill="black"
>
GDP</text>



<ellipse
rx="16.666667"
ry="16.666667"
cx="389.283128"
cy="373.495243"
id="SmallMolecule_a7d580a7e9e3cad3da74f8625fc69288"
style="fill:white;fill-opacity:0.000000;stroke:black;stroke-width:1.000000;stroke-opacity:1.000000" />


<text
x="389.283128"
y="375.495243"
id="SmallMolecule_a7d580a7e9e3cad3da74f8625fc69288"
style="font-size:6.000000px;text-anchor:middle;font-family:Arial,Helvetica;alignment-baseline:baseline;stroke.opacity:1;dominant-baseline:baseline"
fill="black"
>
PIP2</text>



<rect
width="58.333333"
height="33.333333"
rx="3.333333"
ry="3.333333"
x="428.710519"
y="252.620676"
id="Protein_cf3813b9da3e569c81c719e9d1e0cbc2_Complex_b07156e300a2b86e234c53fd7f393491"
style="fill:white;fill-opacity:1.000000;stroke:black;stroke-width:1.000000;stroke-opacity:1.000000" />


<text
x="457.877186"
y="271.287343"
id="Protein_cf3813b9da3e569c81c719e9d1e0cbc2_Complex_b07156e300a2b86e234c53fd7f393491"
style="font-size:6.000000px;text-anchor:middle;font-family:Arial,Helvetica;alignment-baseline:baseline;stroke.opacity:1;dominant-baseline:baseline"
fill="black"
>
G-Protein</text>



<ellipse
rx="16.666667"
ry="16.666667"
cx="445.377186"
cy="311.370676"
id="SmallMolecule_ff77af7f43611187f6f7f72dea5c4dde_Complex_b07156e300a2b86e234c53fd7f393491"
style="fill:white;fill-opacity:0.000000;stroke:black;stroke-width:1.000000;stroke-opacity:1.000000" />


<text
x="445.377186"
y="313.370676"
id="SmallMolecule_ff77af7f43611187f6f7f72dea5c4dde_Complex_b07156e300a2b86e234c53fd7f393491"
style="font-size:6.000000px;text-anchor:middle;font-family:Arial,Helvetica;alignment-baseline:baseline;stroke.opacity:1;dominant-baseline:baseline"
fill="black"
>
GTP</text>



<rect
width="58.333333"
height="33.333333"
rx="3.333333"
ry="3.333333"
x="349.178791"
y="617.925361"
id="Protein_eb1373d8444820fd6e236e127dc49f84"
style="fill:white;fill-opacity:1.000000;stroke:black;stroke-width:1.000000;stroke-opacity:1.000000" />


<text
x="378.345458"
y="636.592028"
id="Protein_eb1373d8444820fd6e236e127dc49f84"
style="font-size:6.000000px;text-anchor:middle;font-family:Arial,Helvetica;alignment-baseline:baseline;stroke.opacity:1;dominant-baseline:baseline"
fill="black"
>
PKC</text>



<ellipse
rx="16.666667"
ry="16.666667"
cx="465.483282"
cy="414.569831"
id="SmallMolecule_05dd27f2d571168db368a05c231eb97d"
style="fill:white;fill-opacity:0.000000;stroke:black;stroke-width:1.000000;stroke-opacity:1.000000" />


<text
x="465.483282"
y="416.569831"
id="SmallMolecule_05dd27f2d571168db368a05c231eb97d"
style="font-size:6.000000px;text-anchor:middle;font-family:Arial,Helvetica;alignment-baseline:baseline;stroke.opacity:1;dominant-baseline:baseline"
fill="black"
>
GTP</text>



<rect
width="58.333333"
height="33.333333"
rx="3.333333"
ry="3.333333"
x="208.706023"
y="573.974800"
id="Protein_b235f8e70a2627f341befda427066e9e"
style="fill:white;fill-opacity:1.000000;stroke:black;stroke-width:1.000000;stroke-opacity:1.000000" />


<text
x="237.872690"
y="592.641467"
id="Protein_b235f8e70a2627f341befda427066e9e"
style="font-size:6.000000px;text-anchor:middle;font-family:Arial,Helvetica;alignment-baseline:baseline;stroke.opacity:1;dominant-baseline:baseline"
fill="black"
>
PKC</text>


<rect
width="16.666667"
height="16.666667"
rx="0.000000"
ry="0.000000"
x="256.376780"
y="811.888277"
id="TransportWithBiochemicalReaction_f28ef61b02019ab8a936c5982604fbe8_LEFT_TO_RIGHT"
style="fill:white;fill-opacity:0.600000;stroke:black;stroke-width:1.000000;stroke-opacity:1.000000" />



<rect
width="16.666667"
height="16.666667"
rx="0.000000"
ry="0.000000"
x="462.104301"
y="730.214831"
id="ComplexAssembly_62ef6e0805eb204a67dd93bb4131502c_LEFT_TO_RIGHT"
style="fill:white;fill-opacity:0.600000;stroke:black;stroke-width:1.000000;stroke-opacity:1.000000" />



<rect
width="16.666667"
height="16.666667"
rx="0.000000"
ry="0.000000"
x="329.771376"
y="553.758967"
id="BiochemicalReaction_6a095dae86bd0112a8ee674f10c00ba7_LEFT_TO_RIGHT"
style="fill:white;fill-opacity:0.600000;stroke:black;stroke-width:1.000000;stroke-opacity:1.000000" />



<rect
width="16.666667"
height="16.666667"
rx="0.000000"
ry="0.000000"
x="319.853703"
y="696.994096"
id="BiochemicalReaction_71f1d90b7dd3546c6ad108559c9b904e_LEFT_TO_RIGHT"
style="fill:white;fill-opacity:0.600000;stroke:black;stroke-width:1.000000;stroke-opacity:1.000000" />



<rect
width="16.666667"
height="16.666667"
rx="0.000000"
ry="0.000000"
x="367.326696"
y="286.574788"
id="BiochemicalReaction_83a23a95a83c71e155087a970ef51acc_LEFT_TO_RIGHT"
style="fill:white;fill-opacity:0.600000;stroke:black;stroke-width:1.000000;stroke-opacity:1.000000" />



<rect
width="16.666667"
height="16.666667"
rx="0.000000"
ry="0.000000"
x="535.101402"
y="435.825451"
id="ComplexAssembly_0d4110d2de85c1f4d23ae6a50a34fb6b_LEFT_TO_RIGHT"
style="fill:white;fill-opacity:0.600000;stroke:black;stroke-width:1.000000;stroke-opacity:1.000000" />



<rect
width="16.666667"
height="16.666667"
rx="0.000000"
ry="0.000000"
x="322.314225"
y="432.786508"
id="BiochemicalReaction_fe75f43968448ff673a3a80f12ffefd6_LEFT_TO_RIGHT"
style="fill:white;fill-opacity:0.600000;stroke:black;stroke-width:1.000000;stroke-opacity:1.000000" />




<rect
width="58.333333"
height="33.333333"
rx="3.333333"
ry="3.333333"
x="393.839843"
y="983.163566"
id="Protein_fe29c7a49076ad45b42626eae9e3f09e"
style="fill:white;fill-opacity:1.000000;stroke:black;stroke-width:1.000000;stroke-opacity:1.000000" />


<text
x="423.006510"
y="1001.830232"
id="Protein_fe29c7a49076ad45b42626eae9e3f09e"
style="font-size:6.000000px;text-anchor:middle;font-family:Arial,Helvetica;alignment-baseline:baseline;stroke.opacity:1;dominant-baseline:baseline"
fill="black"
>
SNARE COMPLEX</text>



<rect
width="58.333333"
height="33.333333"
rx="3.333333"
ry="3.333333"
x="263.300621"
y="1074.167112"
id="Protein_b03ac802d0bc37906d666c612ab86782"
style="fill:white;fill-opacity:1.000000;stroke:black;stroke-width:1.000000;stroke-opacity:1.000000" />


<text
x="292.467287"
y="1092.833778"
id="Protein_b03ac802d0bc37906d666c612ab86782"
style="font-size:6.000000px;text-anchor:middle;font-family:Arial,Helvetica;alignment-baseline:baseline;stroke.opacity:1;dominant-baseline:baseline"
fill="black"
>
Thyrotropin</text>



<rect
width="58.333333"
height="33.333333"
rx="3.333333"
ry="3.333333"
x="135.886755"
y="1068.221446"
id="Protein_15bc26e2f5600cc5ed4a712962a60186"
style="fill:white;fill-opacity:1.000000;stroke:black;stroke-width:1.000000;stroke-opacity:1.000000" />


<text
x="165.053421"
y="1086.888113"
id="Protein_15bc26e2f5600cc5ed4a712962a60186"
style="font-size:6.000000px;text-anchor:middle;font-family:Arial,Helvetica;alignment-baseline:baseline;stroke.opacity:1;dominant-baseline:baseline"
fill="black"
>
TRH</text>



<ellipse
rx="16.666667"
ry="16.666667"
cx="334.582157"
cy="1205.174171"
id="SmallMolecule_7477ccc2a2bd604e8fbef505f56bfc6c_Complex_d23e8fa38a05757ab29dbe8138929e4b"
style="fill:white;fill-opacity:0.000000;stroke:black;stroke-width:1.000000;stroke-opacity:1.000000" />


<text
x="334.582157"
y="1207.174171"
id="SmallMolecule_7477ccc2a2bd604e8fbef505f56bfc6c_Complex_d23e8fa38a05757ab29dbe8138929e4b"
style="font-size:6.000000px;text-anchor:middle;font-family:Arial,Helvetica;alignment-baseline:baseline;stroke.opacity:1;dominant-baseline:baseline"
fill="black"
>
Ca2+</text>



<rect
width="58.333333"
height="33.333333"
rx="3.333333"
ry="3.333333"
x="317.915490"
y="1146.424171"
id="Protein_5746a58861ab4bdcf504b9ee622b3ccc_Complex_d23e8fa38a05757ab29dbe8138929e4b"
style="fill:white;fill-opacity:1.000000;stroke:black;stroke-width:1.000000;stroke-opacity:1.000000" />


<text
x="347.082157"
y="1165.090837"
id="Protein_5746a58861ab4bdcf504b9ee622b3ccc_Complex_d23e8fa38a05757ab29dbe8138929e4b"
style="font-size:6.000000px;text-anchor:middle;font-family:Arial,Helvetica;alignment-baseline:baseline;stroke.opacity:1;dominant-baseline:baseline"
fill="black"
>
SNARE COMPLEX</text>


<rect
width="16.666667"
height="16.666667"
rx="0.000000"
ry="0.000000"
x="250.373306"
y="1162.894617"
id="TransportWithBiochemicalReaction_fcc93cc2bec80bf11b5d679f20bd1f1a_LEFT_TO_RIGHT"
style="fill:white;fill-opacity:0.600000;stroke:black;stroke-width:1.000000;stroke-opacity:1.000000" />



<rect
width="16.666667"
height="16.666667"
rx="0.000000"
ry="0.000000"
x="416.555921"
y="1054.186412"
id="ComplexAssembly_02123166074832587debccd67292d12c_LEFT_TO_RIGHT"
style="fill:white;fill-opacity:0.600000;stroke:black;stroke-width:1.000000;stroke-opacity:1.000000" />



<rect
width="16.666667"
height="16.666667"
rx="0.000000"
ry="0.000000"
x="232.386552"
y="1005.054402"
id="TransportWithBiochemicalReaction_ae6f6368d1b5243570a357dcb3419153_LEFT_TO_RIGHT"
style="fill:white;fill-opacity:0.600000;stroke:black;stroke-width:1.000000;stroke-opacity:1.000000" />





<path d="M386.000000 478.000000 C 372.000000 468.000000, 350.000000 454.000000,338.000000 446.000000" stroke="black"  fill="transparent"/>

<line
x1="350" y1="454" x2="338" y2="446"
id="0"
style="stroke:black;stroke-width:1.000000;stroke-opacity:0" />


<line
x1="372" y1="468" x2="386" y2="478"
id="BiochemicalReaction_fe75f43968448ff673a3a80f12ffefd6_LEFT_TO_RIGHT-output--to--SmallMolecule_753e48b125808b30c1203fd8f95c7f8c"
style="stroke:black;stroke-width:1.000000;stroke-opacity:0" />


<polygon
points = "386,478 377.2,473.6 377.2,482.4"
id="line"
style="fill:black; stroke:#000000; stroke-width:1"
transform = "rotate(35.537678 386.000000 478.000000)"
/>


<path d="M368.000000 1261.000000 C 375.000000 1253.000000, 383.000000 1243.000000,388.000000 1233.000000" stroke="black"  fill="transparent"/>
<path d="M388.000000 1233.000000 C 434.000000 1145.000000, 437.000000 1117.000000,455.000000 1019.000000" stroke="black"  fill="transparent"/>
<path d="M455.000000 1019.000000 C 474.000000 913.000000, 471.000000 782.000000,470.000000 747.000000" stroke="black"  fill="transparent"/>

<line
x1="375" y1="1253" x2="368" y2="1261"
id="0"
style="stroke:black;stroke-width:1.000000;stroke-opacity:0" />


<line
x1="471" y1="782" x2="470" y2="747"
id="Protein_304e5956050bc38dd09bfdeb299e93f2--to--ComplexAssembly_62ef6e0805eb204a67dd93bb4131502c_LEFT_TO_RIGHT-input"
style="stroke:black;stroke-width:1.000000;stroke-opacity:0" />


<path d="M331.000000 1261.000000 C 322.000000 1253.000000, 312.000000 1244.000000,305.000000 1233.000000" stroke="black"  fill="transparent"/>
<path d="M305.000000 1233.000000 C 257.000000 1161.000000, 244.000000 1053.000000,241.000000 1022.000000" stroke="black"  fill="transparent"/>

<line
x1="244" y1="1053" x2="241" y2="1022"
id="0"
style="stroke:black;stroke-width:1.000000;stroke-opacity:0" />


<line
x1="322" y1="1253" x2="331" y2="1261"
id="TransportWithBiochemicalReaction_ae6f6368d1b5243570a357dcb3419153_LEFT_TO_RIGHT-output--to--Protein_304e5956050bc38dd09bfdeb299e93f2"
style="stroke:black;stroke-width:1.000000;stroke-opacity:0" />


<polygon
points = "331,1261 322.2,1256.6 322.2,1265.4"
id="line"
style="fill:black; stroke:#000000; stroke-width:1"
transform = "rotate(41.633539 331.000000 1261.000000)"
/>


<path d="M423.000000 1016.000000 C 423.000000 1028.000000, 424.000000 1044.000000,424.000000 1053.000000" stroke="black"  fill="transparent"/>

<line
x1="423" y1="1028" x2="423" y2="1016"
id="0"
style="stroke:black;stroke-width:1.000000;stroke-opacity:0" />


<line
x1="424" y1="1044" x2="424" y2="1053"
id="Protein_fe29c7a49076ad45b42626eae9e3f09e--to--ComplexAssembly_02123166074832587debccd67292d12c_LEFT_TO_RIGHT-input"
style="stroke:black;stroke-width:1.000000;stroke-opacity:0" />


<path d="M267.000000 582.000000 C 288.000000 576.000000, 315.000000 568.000000,329.000000 564.000000" stroke="black"  fill="transparent"/>

<line
x1="288" y1="576" x2="267" y2="582"
id="0"
style="stroke:black;stroke-width:1.000000;stroke-opacity:0" />


<line
x1="315" y1="568" x2="329" y2="564"
id="Protein_b235f8e70a2627f341befda427066e9e--to--BiochemicalReaction_6a095dae86bd0112a8ee674f10c00ba7_LEFT_TO_RIGHT-input"
style="stroke:black;stroke-width:1.000000;stroke-opacity:0" />


<path d="M182.000000 1068.000000 C 198.000000 1053.000000, 220.000000 1032.000000,232.000000 1021.000000" stroke="black"  fill="transparent"/>

<line
x1="198" y1="1053" x2="182" y2="1068"
id="0"
style="stroke:black;stroke-width:1.000000;stroke-opacity:0" />


<line
x1="220" y1="1032" x2="232" y2="1021"
id="Protein_15bc26e2f5600cc5ed4a712962a60186--to--TransportWithBiochemicalReaction_ae6f6368d1b5243570a357dcb3419153_LEFT_TO_RIGHT-input"
style="stroke:black;stroke-width:1.000000;stroke-opacity:0" />


<path d="M298.000000 374.000000 C 307.000000 392.000000, 319.000000 418.000000,326.000000 432.000000" stroke="black"  fill="transparent"/>

<line
x1="307" y1="392" x2="298" y2="374"
id="0"
style="stroke:black;stroke-width:1.000000;stroke-opacity:0" />


<line
x1="319" y1="418" x2="326" y2="432"
id="Protein_0fa1c19d38b9c231f9b92b1521314a21--to--BiochemicalReaction_fe75f43968448ff673a3a80f12ffefd6_LEFT_TO_RIGHT"
style="stroke:black;stroke-width:1.000000;stroke-opacity:0" />


<ellipse
rx="4.400000"
ry="4.400000"
cx="324.032260"
cy="428.064520"
id="Protein_0fa1c19d38b9c231f9b92b1521314a21--to--BiochemicalReaction_fe75f43968448ff673a3a80f12ffefd6_LEFT_TO_RIGHT"
style="fill:white;fill-opacity:0.800000;stroke:black;stroke-width:1.000000;stroke-opacity:1.000000" />


<path d="M308.000000 1178.000000 C 293.000000 1176.000000, 276.000000 1173.000000,267.000000 1172.000000" stroke="black"  fill="transparent"/>

<line
x1="293" y1="1176" x2="308" y2="1178"
id="0"
style="stroke:black;stroke-width:1.000000;stroke-opacity:0" />


<line
x1="276" y1="1173" x2="267" y2="1172"
id="Complex_d23e8fa38a05757ab29dbe8138929e4b--to--TransportWithBiochemicalReaction_fcc93cc2bec80bf11b5d679f20bd1f1a_LEFT_TO_RIGHT"
style="stroke:black;stroke-width:1.000000;stroke-opacity:0" />


<polygon
points = "267,1172 253.8,1167.6 253.8,1176.4"
id="line"
style="fill:white; stroke:#000000; stroke-width:1"
transform = "rotate(186.340192 267.000000 1172.000000)"
/>


<path d="M516.000000 632.000000 C 501.000000 667.000000, 482.000000 711.000000,474.000000 730.000000" stroke="black"  fill="transparent"/>

<line
x1="482" y1="711" x2="474" y2="730"
id="0"
style="stroke:black;stroke-width:1.000000;stroke-opacity:0" />


<line
x1="501" y1="667" x2="516" y2="632"
id="ComplexAssembly_62ef6e0805eb204a67dd93bb4131502c_LEFT_TO_RIGHT-output--to--Complex_caee5d1c9f4782493a6b956fb26a5650"
style="stroke:black;stroke-width:1.000000;stroke-opacity:0" />


<polygon
points = "516,632 507.2,627.6 507.2,636.4"
id="line"
style="fill:black; stroke:#000000; stroke-width:1"
transform = "rotate(-66.801409 516.000000 632.000000)"
/>


<path d="M485.000000 875.000000 C 438.000000 863.000000, 308.000000 831.000000,273.000000 822.000000" stroke="black"  fill="transparent"/>

<line
x1="308" y1="831" x2="273" y2="822"
id="0"
style="stroke:black;stroke-width:1.000000;stroke-opacity:0" />


<line
x1="438" y1="863" x2="485" y2="875"
id="TransportWithBiochemicalReaction_f28ef61b02019ab8a936c5982604fbe8_LEFT_TO_RIGHT-output--to--SmallMolecule_f7fc6d5e54ae6e072efd406d184c6c31"
style="stroke:black;stroke-width:1.000000;stroke-opacity:0" />


<polygon
points = "485,875 476.2,870.6 476.2,879.4"
id="line"
style="fill:black; stroke:#000000; stroke-width:1"
transform = "rotate(14.322720 485.000000 875.000000)"
/>


<path d="M603.000000 466.000000 C 587.000000 460.000000, 564.000000 452.000000,551.000000 447.000000" stroke="black"  fill="transparent"/>

<line
x1="564" y1="452" x2="551" y2="447"
id="0"
style="stroke:black;stroke-width:1.000000;stroke-opacity:0" />


<line
x1="587" y1="460" x2="603" y2="466"
id="ComplexAssembly_0d4110d2de85c1f4d23ae6a50a34fb6b_LEFT_TO_RIGHT-output--to--SmallMolecule_9e2d5bdf4c0dfd904913845d378a6ed3"
style="stroke:black;stroke-width:1.000000;stroke-opacity:0" />


<polygon
points = "603,466 594.2,461.6 594.2,470.4"
id="line"
style="fill:black; stroke:#000000; stroke-width:1"
transform = "rotate(20.556045 603.000000 466.000000)"
/>


<path d="M419.000000 292.000000 C 406.000000 293.000000, 392.000000 293.000000,383.000000 294.000000" stroke="black"  fill="transparent"/>

<line
x1="406" y1="293" x2="419" y2="292"
id="0"
style="stroke:black;stroke-width:1.000000;stroke-opacity:0" />


<line
x1="392" y1="293" x2="383" y2="294"
id="Complex_b07156e300a2b86e234c53fd7f393491--to--BiochemicalReaction_83a23a95a83c71e155087a970ef51acc_LEFT_TO_RIGHT"
style="stroke:black;stroke-width:1.000000;stroke-opacity:0" />


<ellipse
rx="4.400000"
ry="4.400000"
cx="387.373088"
cy="293.514101"
id="Complex_b07156e300a2b86e234c53fd7f393491--to--BiochemicalReaction_83a23a95a83c71e155087a970ef51acc_LEFT_TO_RIGHT"
style="fill:white;fill-opacity:0.800000;stroke:black;stroke-width:1.000000;stroke-opacity:1.000000" />


<path d="M346.000000 764.000000 C 341.000000 748.000000, 334.000000 726.000000,330.000000 714.000000" stroke="black"  fill="transparent"/>

<line
x1="341" y1="748" x2="346" y2="764"
id="0"
style="stroke:black;stroke-width:1.000000;stroke-opacity:0" />


<line
x1="334" y1="726" x2="330" y2="714"
id="Protein_3b04a06ce974ce5f344167642da72056--to--BiochemicalReaction_71f1d90b7dd3546c6ad108559c9b904e_LEFT_TO_RIGHT-input"
style="stroke:black;stroke-width:1.000000;stroke-opacity:0" />


<path d="M366.000000 651.000000 C 356.000000 665.000000, 342.000000 685.000000,334.000000 696.000000" stroke="black"  fill="transparent"/>

<line
x1="356" y1="665" x2="366" y2="651"
id="0"
style="stroke:black;stroke-width:1.000000;stroke-opacity:0" />


<line
x1="342" y1="685" x2="334" y2="696"
id="Protein_eb1373d8444820fd6e236e127dc49f84--to--BiochemicalReaction_71f1d90b7dd3546c6ad108559c9b904e_LEFT_TO_RIGHT"
style="stroke:black;stroke-width:1.000000;stroke-opacity:0" />


<polygon
points = "334,696 320.8,691.6 320.8,700.4"
id="line"
style="fill:white; stroke:#000000; stroke-width:1"
transform = "rotate(126.027373 334.000000 696.000000)"
/>


<path d="M355.000000 227.000000 C 361.000000 244.000000, 369.000000 272.000000,373.000000 286.000000" stroke="black"  fill="transparent"/>

<line
x1="361" y1="244" x2="355" y2="227"
id="0"
style="stroke:black;stroke-width:1.000000;stroke-opacity:0" />


<line
x1="369" y1="272" x2="373" y2="286"
id="Protein_afe6d381c0b88155edda61f8de828b51--to--BiochemicalReaction_83a23a95a83c71e155087a970ef51acc_LEFT_TO_RIGHT-input"
style="stroke:black;stroke-width:1.000000;stroke-opacity:0" />


<path d="M498.000000 896.000000 C 491.000000 923.000000, 476.000000 977.000000,455.000000 1019.000000" stroke="black"  fill="transparent"/>
<path d="M455.000000 1019.000000 C 448.000000 1032.000000, 438.000000 1045.000000,432.000000 1053.000000" stroke="black"  fill="transparent"/>

<line
x1="491" y1="923" x2="498" y2="896"
id="0"
style="stroke:black;stroke-width:1.000000;stroke-opacity:0" />


<line
x1="438" y1="1045" x2="432" y2="1053"
id="SmallMolecule_f7fc6d5e54ae6e072efd406d184c6c31--to--ComplexAssembly_02123166074832587debccd67292d12c_LEFT_TO_RIGHT-input"
style="stroke:black;stroke-width:1.000000;stroke-opacity:0" />


<path d="M256.000000 726.000000 C 278.000000 720.000000, 305.000000 712.000000,319.000000 707.000000" stroke="black"  fill="transparent"/>

<line
x1="305" y1="712" x2="319" y2="707"
id="0"
style="stroke:black;stroke-width:1.000000;stroke-opacity:0" />


<line
x1="278" y1="720" x2="256" y2="726"
id="BiochemicalReaction_71f1d90b7dd3546c6ad108559c9b904e_LEFT_TO_RIGHT-output--to--Protein_080c527a801bf976997ad951d263023d"
style="stroke:black;stroke-width:1.000000;stroke-opacity:0" />


<polygon
points = "256,726 247.2,721.6 247.2,730.4"
id="line"
style="fill:black; stroke:#000000; stroke-width:1"
transform = "rotate(164.744881 256.000000 726.000000)"
/>


<path d="M603.000000 817.000000 C 558.000000 790.000000, 500.000000 756.000000,478.000000 743.000000" stroke="black"  fill="transparent"/>

<line
x1="558" y1="790" x2="603" y2="817"
id="0"
style="stroke:black;stroke-width:1.000000;stroke-opacity:0" />


<line
x1="500" y1="756" x2="478" y2="743"
id="Complex_bda1ee8ff1f0a1e0f914cd586ab02ee4--to--ComplexAssembly_62ef6e0805eb204a67dd93bb4131502c_LEFT_TO_RIGHT-input"
style="stroke:black;stroke-width:1.000000;stroke-opacity:0" />


<path d="M538.000000 539.000000 C 540.000000 507.000000, 542.000000 469.000000,543.000000 452.000000" stroke="black"  fill="transparent"/>

<line
x1="540" y1="507" x2="538" y2="539"
id="0"
style="stroke:black;stroke-width:1.000000;stroke-opacity:0" />


<line
x1="542" y1="469" x2="543" y2="452"
id="Complex_caee5d1c9f4782493a6b956fb26a5650--to--ComplexAssembly_0d4110d2de85c1f4d23ae6a50a34fb6b_LEFT_TO_RIGHT-input"
style="stroke:black;stroke-width:1.000000;stroke-opacity:0" />


<path d="M394.000000 1001.000000 C 351.000000 1005.000000, 274.000000 1010.000000,248.000000 1012.000000" stroke="black"  fill="transparent"/>

<line
x1="351" y1="1005" x2="394" y2="1001"
id="0"
style="stroke:black;stroke-width:1.000000;stroke-opacity:0" />


<line
x1="274" y1="1010" x2="248" y2="1012"
id="Protein_fe29c7a49076ad45b42626eae9e3f09e--to--TransportWithBiochemicalReaction_ae6f6368d1b5243570a357dcb3419153_LEFT_TO_RIGHT"
style="stroke:black;stroke-width:1.000000;stroke-opacity:0" />


<polygon
points = "248,1012 234.8,1007.6 234.8,1016.4"
id="line"
style="fill:white; stroke:#000000; stroke-width:1"
transform = "rotate(175.601295 248.000000 1012.000000)"
/>


<path d="M374.000000 390.000000 C 363.000000 403.000000, 347.000000 422.000000,338.000000 432.000000" stroke="black"  fill="transparent"/>

<line
x1="363" y1="403" x2="374" y2="390"
id="0"
style="stroke:black;stroke-width:1.000000;stroke-opacity:0" />


<line
x1="347" y1="422" x2="338" y2="432"
id="SmallMolecule_a7d580a7e9e3cad3da74f8625fc69288--to--BiochemicalReaction_fe75f43968448ff673a3a80f12ffefd6_LEFT_TO_RIGHT-input"
style="stroke:black;stroke-width:1.000000;stroke-opacity:0" />


<path d="M235.000000 751.000000 C 243.000000 769.000000, 254.000000 797.000000,260.000000 811.000000" stroke="black"  fill="transparent"/>

<line
x1="243" y1="769" x2="235" y2="751"
id="0"
style="stroke:black;stroke-width:1.000000;stroke-opacity:0" />


<line
x1="254" y1="797" x2="260" y2="811"
id="Protein_080c527a801bf976997ad951d263023d--to--TransportWithBiochemicalReaction_f28ef61b02019ab8a936c5982604fbe8_LEFT_TO_RIGHT"
style="stroke:black;stroke-width:1.000000;stroke-opacity:0" />


<polygon
points = "260,811 246.8,806.6 246.8,815.4"
id="line"
style="fill:white; stroke:#000000; stroke-width:1"
transform = "rotate(66.801409 260.000000 811.000000)"
/>


<path d="M369.000000 617.000000 C 360.000000 603.000000, 349.000000 582.000000,342.000000 570.000000" stroke="black"  fill="transparent"/>

<line
x1="349" y1="582" x2="342" y2="570"
id="0"
style="stroke:black;stroke-width:1.000000;stroke-opacity:0" />


<line
x1="360" y1="603" x2="369" y2="617"
id="BiochemicalReaction_6a095dae86bd0112a8ee674f10c00ba7_LEFT_TO_RIGHT-output--to--Protein_eb1373d8444820fd6e236e127dc49f84"
style="stroke:black;stroke-width:1.000000;stroke-opacity:0" />


<polygon
points = "369,617 360.2,612.6 360.2,621.4"
id="line"
style="fill:black; stroke:#000000; stroke-width:1"
transform = "rotate(57.264774 369.000000 617.000000)"
/>


<path d="M420.000000 1425.000000 C 397.000000 1399.000000, 352.000000 1347.000000,321.000000 1298.000000" stroke="black"  fill="transparent"/>
<path d="M321.000000 1298.000000 C 294.000000 1255.000000, 270.000000 1200.000000,262.000000 1179.000000" stroke="black"  fill="transparent"/>

<line
x1="270" y1="1200" x2="262" y2="1179"
id="0"
style="stroke:black;stroke-width:1.000000;stroke-opacity:0" />


<line
x1="397" y1="1399" x2="420" y2="1425"
id="TransportWithBiochemicalReaction_fcc93cc2bec80bf11b5d679f20bd1f1a_LEFT_TO_RIGHT-output--to--Protein_91e7831b2fcb7867a88561b63aae80cb"
style="stroke:black;stroke-width:1.000000;stroke-opacity:0" />


<polygon
points = "420,1425 411.2,1420.6 411.2,1429.4"
id="line"
style="fill:black; stroke:#000000; stroke-width:1"
transform = "rotate(48.503532 420.000000 1425.000000)"
/>


<path d="M312.000000 341.000000 C 330.000000 328.000000, 354.000000 310.000000,367.000000 301.000000" stroke="black"  fill="transparent"/>

<line
x1="354" y1="310" x2="367" y2="301"
id="0"
style="stroke:black;stroke-width:1.000000;stroke-opacity:0" />


<line
x1="330" y1="328" x2="312" y2="341"
id="BiochemicalReaction_83a23a95a83c71e155087a970ef51acc_LEFT_TO_RIGHT-output--to--Protein_0fa1c19d38b9c231f9b92b1521314a21"
style="stroke:black;stroke-width:1.000000;stroke-opacity:0" />


<polygon
points = "312,341 303.2,336.6 303.2,345.4"
id="line"
style="fill:black; stroke:#000000; stroke-width:1"
transform = "rotate(144.162347 312.000000 341.000000)"
/>


<path d="M280.000000 516.000000 C 295.000000 528.000000, 317.000000 546.000000,329.000000 555.000000" stroke="black"  fill="transparent"/>

<line
x1="295" y1="528" x2="280" y2="516"
id="0"
style="stroke:black;stroke-width:1.000000;stroke-opacity:0" />


<line
x1="317" y1="546" x2="329" y2="555"
id="SmallMolecule_c98ebb4b26f412dbb8a82c5ac1903622--to--BiochemicalReaction_6a095dae86bd0112a8ee674f10c00ba7_LEFT_TO_RIGHT"
style="stroke:black;stroke-width:1.000000;stroke-opacity:0" />


<ellipse
rx="4.400000"
ry="4.400000"
cx="325.480000"
cy="552.360000"
id="SmallMolecule_c98ebb4b26f412dbb8a82c5ac1903622--to--BiochemicalReaction_6a095dae86bd0112a8ee674f10c00ba7_LEFT_TO_RIGHT"
style="fill:white;fill-opacity:0.800000;stroke:black;stroke-width:1.000000;stroke-opacity:1.000000" />


<path d="M172.000000 891.000000 C 195.000000 873.000000, 237.000000 840.000000,256.000000 826.000000" stroke="black"  fill="transparent"/>

<line
x1="195" y1="873" x2="172" y2="891"
id="0"
style="stroke:black;stroke-width:1.000000;stroke-opacity:0" />


<line
x1="237" y1="840" x2="256" y2="826"
id="SmallMolecule_c51d3df91f4fc90a3bdcd0524aa3d364--to--TransportWithBiochemicalReaction_f28ef61b02019ab8a936c5982604fbe8_LEFT_TO_RIGHT-input"
style="stroke:black;stroke-width:1.000000;stroke-opacity:0" />


<path d="M171.000000 1144.000000 C 170.000000 1133.000000, 168.000000 1115.000000,166.000000 1101.000000" stroke="black"  fill="transparent"/>

<line
x1="170" y1="1133" x2="171" y2="1144"
id="0"
style="stroke:black;stroke-width:1.000000;stroke-opacity:0" />


<line
x1="168" y1="1115" x2="166" y2="1101"
id="Conversion_5d04a188aeeb8204c929a2f0ac55de92_LEFT_TO_RIGHT-output--to--Protein_15bc26e2f5600cc5ed4a712962a60186"
style="stroke:black;stroke-width:1.000000;stroke-opacity:0" />


<polygon
points = "166,1101 157.2,1096.6 157.2,1105.4"
id="line"
style="fill:black; stroke:#000000; stroke-width:1"
transform = "rotate(261.869898 166.000000 1101.000000)"
/>


<path d="M482.000000 420.000000 C 498.000000 427.000000, 522.000000 436.000000,535.000000 440.000000" stroke="black"  fill="transparent"/>

<line
x1="498" y1="427" x2="482" y2="420"
id="0"
style="stroke:black;stroke-width:1.000000;stroke-opacity:0" />


<line
x1="522" y1="436" x2="535" y2="440"
id="SmallMolecule_05dd27f2d571168db368a05c231eb97d--to--ComplexAssembly_0d4110d2de85c1f4d23ae6a50a34fb6b_LEFT_TO_RIGHT-input"
style="stroke:black;stroke-width:1.000000;stroke-opacity:0" />


<path d="M280.000000 488.000000 C 293.000000 476.000000, 311.000000 458.000000,322.000000 449.000000" stroke="black"  fill="transparent"/>

<line
x1="311" y1="458" x2="322" y2="449"
id="0"
style="stroke:black;stroke-width:1.000000;stroke-opacity:0" />


<line
x1="293" y1="476" x2="280" y2="488"
id="BiochemicalReaction_fe75f43968448ff673a3a80f12ffefd6_LEFT_TO_RIGHT-output--to--SmallMolecule_c98ebb4b26f412dbb8a82c5ac1903622"
style="stroke:black;stroke-width:1.000000;stroke-opacity:0" />


<polygon
points = "280,488 271.2,483.6 271.2,492.4"
id="line"
style="fill:black; stroke:#000000; stroke-width:1"
transform = "rotate(137.290610 280.000000 488.000000)"
/>


<path d="M581.000000 373.000000 C 569.000000 396.000000, 555.000000 422.000000,548.000000 435.000000" stroke="black"  fill="transparent"/>

<line
x1="555" y1="422" x2="548" y2="435"
id="0"
style="stroke:black;stroke-width:1.000000;stroke-opacity:0" />


<line
x1="569" y1="396" x2="581" y2="373"
id="ComplexAssembly_0d4110d2de85c1f4d23ae6a50a34fb6b_LEFT_TO_RIGHT-output--to--Complex_5f5fc99012866ab52bc745363124aa3c"
style="stroke:black;stroke-width:1.000000;stroke-opacity:0" />


<polygon
points = "581,373 572.2,368.6 572.2,377.4"
id="line"
style="fill:black; stroke:#000000; stroke-width:1"
transform = "rotate(-62.447188 581.000000 373.000000)"
/>


<path d="M285.000000 1107.000000 C 278.000000 1124.000000, 267.000000 1149.000000,262.000000 1162.000000" stroke="black"  fill="transparent"/>

<line
x1="278" y1="1124" x2="285" y2="1107"
id="0"
style="stroke:black;stroke-width:1.000000;stroke-opacity:0" />


<line
x1="267" y1="1149" x2="262" y2="1162"
id="Protein_b03ac802d0bc37906d666c612ab86782--to--TransportWithBiochemicalReaction_fcc93cc2bec80bf11b5d679f20bd1f1a_LEFT_TO_RIGHT-input"
style="stroke:black;stroke-width:1.000000;stroke-opacity:0" />


<path d="M146.000000 1219.000000 C 153.000000 1201.000000, 163.000000 1175.000000,168.000000 1161.000000" stroke="black"  fill="transparent"/>

<line
x1="153" y1="1201" x2="146" y2="1219"
id="0"
style="stroke:black;stroke-width:1.000000;stroke-opacity:0" />


<line
x1="163" y1="1175" x2="168" y2="1161"
id="Protein_4e18c88f0ae4de13f01d3da81b34cf69--to--Conversion_5d04a188aeeb8204c929a2f0ac55de92_LEFT_TO_RIGHT-input"
style="stroke:black;stroke-width:1.000000;stroke-opacity:0" />


<path d="M483.000000 336.000000 C 503.000000 371.000000, 528.000000 416.000000,538.000000 435.000000" stroke="black"  fill="transparent"/>

<line
x1="528" y1="416" x2="538" y2="435"
id="0"
style="stroke:black;stroke-width:1.000000;stroke-opacity:0" />


<line
x1="503" y1="371" x2="483" y2="336"
id="ComplexAssembly_0d4110d2de85c1f4d23ae6a50a34fb6b_LEFT_TO_RIGHT-output--to--Complex_b07156e300a2b86e234c53fd7f393491"
style="stroke:black;stroke-width:1.000000;stroke-opacity:0" />


<polygon
points = "483,336 474.2,331.6 474.2,340.4"
id="line"
style="fill:black; stroke:#000000; stroke-width:1"
transform = "rotate(240.255119 483.000000 336.000000)"
/>


<path d="M376.000000 1137.000000 C 392.000000 1112.000000, 410.000000 1084.000000,419.000000 1071.000000" stroke="black"  fill="transparent"/>

<line
x1="410" y1="1084" x2="419" y2="1071"
id="0"
style="stroke:black;stroke-width:1.000000;stroke-opacity:0" />


<line
x1="392" y1="1112" x2="376" y2="1137"
id="ComplexAssembly_02123166074832587debccd67292d12c_LEFT_TO_RIGHT-output--to--Complex_d23e8fa38a05757ab29dbe8138929e4b"
style="stroke:black;stroke-width:1.000000;stroke-opacity:0" />


<polygon
points = "376,1137 367.2,1132.6 367.2,1141.4"
id="line"
style="fill:black; stroke:#000000; stroke-width:1"
transform = "rotate(122.619243 376.000000 1137.000000)"
/>



</svg>
