<?xml version="1.0" encoding="UTF-8"?>
<svg width="1100.302260" height="1249.448065"
xmlns="http://www.w3.org/2000/svg" xmlns:svg="http://www.w3.org/2000/svg"
>
<metadata id="metadata7">image/svg+xml</metadata>

<rect
width="635.106685"
height="455.577084"
rx="11.000000"
ry="11.000000"
x="135.195575"
y="537.657983"
id="synaptic_vesicle"
style="fill:white;fill-opacity:0.900000;stroke:black;stroke-width:5.000000;stroke-opacity:1.000000" />


<text
x="452.748918"
y="529.657983"
id="synaptic_vesicle"
style="font-size:6.000000px;text-anchor:middle;font-family:Arial,Helvetica;alignment-baseline:baseline;stroke.opacity:1;dominant-baseline:baseline"
fill="black"
>
synaptic vesicle</text>


<rect
width="312.192380"
height="331.068971"
rx="11.000000"
ry="11.000000"
x="100.000000"
y="183.000000"
id="axon_terminus"
style="fill:white;fill-opacity:0.900000;stroke:black;stroke-width:5.000000;stroke-opacity:1.000000" />


<text
x="256.096190"
y="175.000000"
id="axon_terminus"
style="font-size:6.000000px;text-anchor:middle;font-family:Arial,Helvetica;alignment-baseline:baseline;stroke.opacity:1;dominant-baseline:baseline"
fill="black"
>
axon terminus</text>



<path
d="M 198.274469048497 680.894282358749 198.274469048497 804.994282358749 203.774469048497 810.494282358749 402.874469048497 810.494282358749 408.374469048497 804.994282358749 408.374469048497 680.894282358749 402.874469048497 675.394282358749 203.774469048497 675.394282358749 Z"
id="Complex_7f767f5ece0a965922a7108d58a84f0b"
style="fill:white;fill-opacity:0.600000;stroke-width:1;stroke:black;stroke-opacity:1.000000"
transform = "rotate(0.000000 0.000000 0.000000)"
/>


<text
x="303.324469"
y="667.394282"
id="Complex_7f767f5ece0a965922a7108d58a84f0b"
style="font-size:6.000000px;text-anchor:middle;font-family:Arial,Helvetica;alignment-baseline:baseline;stroke.opacity:1;dominant-baseline:baseline"
fill="black"
>
synaptic vesicle fusion complex</text>


<path
d="M 616.28559353728 654.653319574842 616.28559353728 736.669986241508 621.78559353728 742.169986241508 753.802260203947 742.169986241508 759.302260203947 736.669986241508 759.302260203947 654.653319574842 753.802260203947 649.153319574842 621.78559353728 649.153319574842 Z"
id="Complex_3cfa25c96b1d894efb20f849658b140a"
style="fill:white;fill-opacity:0.600000;stroke-width:1;stroke:black;stroke-opacity:1.000000"
transform = "rotate(0.000000 0.000000 0.000000)"
/>


<text
x="687.793927"
y="641.153320"
id="Complex_3cfa25c96b1d894efb20f849658b140a"
style="font-size:6.000000px;text-anchor:middle;font-family:Arial,Helvetica;alignment-baseline:baseline;stroke.opacity:1;dominant-baseline:baseline"
fill="black"
>
SNARE complex</text>




<ellipse
rx="16.666667"
ry="16.666667"
cx="451.077005"
cy="1032.781398"
id="SmallMolecule_486a3fbb1cc9ae8fbf101710f966cdc2"
style="fill:white;fill-opacity:0.000000;stroke:black;stroke-width:1.000000;stroke-opacity:1.000000" />



<text
x="451.077005"
y="1031.781398"
id="SmallMolecule_486a3fbb1cc9ae8fbf101710f966cdc2"
style="font-size:6.000000px;text-anchor:middle;font-family:Arial,Helvetica;alignment-baseline:baseline;stroke.opacity:1;dominant-baseline:baseline"
fill="black"
>
Neurotransm-</text>


<text
x="451.077005"
y="1037.781398"
id="SmallMolecule_486a3fbb1cc9ae8fbf101710f966cdc2"
style="font-size:6.000000px;text-anchor:middle;font-family:Arial,Helvetica;alignment-baseline:baseline;stroke.opacity:1;dominant-baseline:baseline"
fill="black"
>
itter</text>



<rect
width="58.333333"
height="33.333333"
rx="3.333333"
ry="3.333333"
x="146.195575"
y="582.862873"
id="Protein_0c0a3807fee7c0fa0660ce66754446be"
style="fill:white;fill-opacity:1.000000;stroke:black;stroke-width:1.000000;stroke-opacity:1.000000" />


<text
x="175.362242"
y="601.529540"
id="Protein_0c0a3807fee7c0fa0660ce66754446be"
style="font-size:6.000000px;text-anchor:middle;font-family:Arial,Helvetica;alignment-baseline:baseline;stroke.opacity:1;dominant-baseline:baseline"
fill="black"
>
Rab3A</text>



<rect
width="58.333333"
height="33.333333"
rx="3.333333"
ry="3.333333"
x="207.074469"
y="684.194282"
id="Protein_50ea762ac114bee18a994ddf24f401d1_Complex_7f767f5ece0a965922a7108d58a84f0b"
style="fill:white;fill-opacity:1.000000;stroke:black;stroke-width:1.000000;stroke-opacity:1.000000" />


<text
x="236.241136"
y="702.860949"
id="Protein_50ea762ac114bee18a994ddf24f401d1_Complex_7f767f5ece0a965922a7108d58a84f0b"
style="font-size:6.000000px;text-anchor:middle;font-family:Arial,Helvetica;alignment-baseline:baseline;stroke.opacity:1;dominant-baseline:baseline"
fill="black"
>
Munc18</text>



<rect
width="58.333333"
height="33.333333"
rx="3.333333"
ry="3.333333"
x="207.074469"
y="726.277616"
id="Protein_a535ce832d74f630f0ab6432ede377c8_Complex_7f767f5ece0a965922a7108d58a84f0b"
style="fill:white;fill-opacity:1.000000;stroke:black;stroke-width:1.000000;stroke-opacity:1.000000" />


<text
x="236.241136"
y="744.944282"
id="Protein_a535ce832d74f630f0ab6432ede377c8_Complex_7f767f5ece0a965922a7108d58a84f0b"
style="font-size:6.000000px;text-anchor:middle;font-family:Arial,Helvetica;alignment-baseline:baseline;stroke.opacity:1;dominant-baseline:baseline"
fill="black"
>
RIM1alpha/2alpha</text>



<rect
width="58.333333"
height="33.333333"
rx="3.333333"
ry="3.333333"
x="207.074469"
y="768.360949"
id="Protein_b07e4be96859b9868585972697607e04_Complex_7f767f5ece0a965922a7108d58a84f0b"
style="fill:white;fill-opacity:1.000000;stroke:black;stroke-width:1.000000;stroke-opacity:1.000000" />


<text
x="236.241136"
y="787.027616"
id="Protein_b07e4be96859b9868585972697607e04_Complex_7f767f5ece0a965922a7108d58a84f0b"
style="font-size:6.000000px;text-anchor:middle;font-family:Arial,Helvetica;alignment-baseline:baseline;stroke.opacity:1;dominant-baseline:baseline"
fill="black"
>
Synaptotagmin</text>



<rect
width="58.333333"
height="33.333333"
rx="3.333333"
ry="3.333333"
x="274.157802"
y="684.194282"
id="Protein_c1ae1a28c5090084f21297568218c4fd_Complex_7f767f5ece0a965922a7108d58a84f0b"
style="fill:white;fill-opacity:1.000000;stroke:black;stroke-width:1.000000;stroke-opacity:1.000000" />


<text
x="303.324469"
y="702.860949"
id="Protein_c1ae1a28c5090084f21297568218c4fd_Complex_7f767f5ece0a965922a7108d58a84f0b"
style="font-size:6.000000px;text-anchor:middle;font-family:Arial,Helvetica;alignment-baseline:baseline;stroke.opacity:1;dominant-baseline:baseline"
fill="black"
>
SNAP25</text>



<ellipse
rx="16.666667"
ry="16.666667"
cx="357.907802"
cy="785.027616"
id="SmallMolecule_6f6a2e443fb8a413f960cf8f47edf212_Complex_7f767f5ece0a965922a7108d58a84f0b"
style="fill:white;fill-opacity:0.000000;stroke:black;stroke-width:1.000000;stroke-opacity:1.000000" />


<text
x="357.907802"
y="787.027616"
id="SmallMolecule_6f6a2e443fb8a413f960cf8f47edf212_Complex_7f767f5ece0a965922a7108d58a84f0b"
style="font-size:6.000000px;text-anchor:middle;font-family:Arial,Helvetica;alignment-baseline:baseline;stroke.opacity:1;dominant-baseline:baseline"
fill="black"
>
Ca2+</text>



<rect
width="58.333333"
height="33.333333"
rx="3.333333"
ry="3.333333"
x="274.157802"
y="726.277616"
id="Protein_e46270362cefe3064645c49b56d84a30_Complex_7f767f5ece0a965922a7108d58a84f0b"
style="fill:white;fill-opacity:1.000000;stroke:black;stroke-width:1.000000;stroke-opacity:1.000000" />


<text
x="303.324469"
y="744.944282"
id="Protein_e46270362cefe3064645c49b56d84a30_Complex_7f767f5ece0a965922a7108d58a84f0b"
style="font-size:6.000000px;text-anchor:middle;font-family:Arial,Helvetica;alignment-baseline:baseline;stroke.opacity:1;dominant-baseline:baseline"
fill="black"
>
Syntaxin 1/2</text>



<rect
width="58.333333"
height="33.333333"
rx="3.333333"
ry="3.333333"
x="274.157802"
y="768.360949"
id="Protein_7322f8f856b5171e90c25911a0a3b637_Complex_7f767f5ece0a965922a7108d58a84f0b"
style="fill:white;fill-opacity:1.000000;stroke:black;stroke-width:1.000000;stroke-opacity:1.000000" />


<text
x="303.324469"
y="787.027616"
id="Protein_7322f8f856b5171e90c25911a0a3b637_Complex_7f767f5ece0a965922a7108d58a84f0b"
style="font-size:6.000000px;text-anchor:middle;font-family:Arial,Helvetica;alignment-baseline:baseline;stroke.opacity:1;dominant-baseline:baseline"
fill="black"
>
Munc13</text>



<rect
width="58.333333"
height="33.333333"
rx="3.333333"
ry="3.333333"
x="341.241136"
y="684.194282"
id="Protein_5724f615e9b605037ab9c519aa8b8044_Complex_7f767f5ece0a965922a7108d58a84f0b"
style="fill:white;fill-opacity:1.000000;stroke:black;stroke-width:1.000000;stroke-opacity:1.000000" />


<text
x="370.407802"
y="702.860949"
id="Protein_5724f615e9b605037ab9c519aa8b8044_Complex_7f767f5ece0a965922a7108d58a84f0b"
style="font-size:6.000000px;text-anchor:middle;font-family:Arial,Helvetica;alignment-baseline:baseline;stroke.opacity:1;dominant-baseline:baseline"
fill="black"
>
VAMP1</text>



<rect
width="58.333333"
height="33.333333"
rx="3.333333"
ry="3.333333"
x="341.241136"
y="726.277616"
id="Protein_fd1e9f4989f537195c799fdae229a63c_Complex_7f767f5ece0a965922a7108d58a84f0b"
style="fill:white;fill-opacity:1.000000;stroke:black;stroke-width:1.000000;stroke-opacity:1.000000" />


<text
x="370.407802"
y="744.944282"
id="Protein_fd1e9f4989f537195c799fdae229a63c_Complex_7f767f5ece0a965922a7108d58a84f0b"
style="font-size:6.000000px;text-anchor:middle;font-family:Arial,Helvetica;alignment-baseline:baseline;stroke.opacity:1;dominant-baseline:baseline"
fill="black"
>
Rab3A</text>



<rect
width="58.333333"
height="33.333333"
rx="3.333333"
ry="3.333333"
x="495.168689"
y="638.301600"
id="Protein_8b2ba29354baf66570f20393babb91bf"
style="fill:white;fill-opacity:1.000000;stroke:black;stroke-width:1.000000;stroke-opacity:1.000000" />


<text
x="524.335356"
y="656.968267"
id="Protein_8b2ba29354baf66570f20393babb91bf"
style="font-size:6.000000px;text-anchor:middle;font-family:Arial,Helvetica;alignment-baseline:baseline;stroke.opacity:1;dominant-baseline:baseline"
fill="black"
>
Synaptotagmin</text>



<rect
width="58.333333"
height="33.333333"
rx="3.333333"
ry="3.333333"
x="668.118846"
y="548.657983"
id="Protein_7bba8d866c41216ee4f19004b9ffaaea"
style="fill:white;fill-opacity:1.000000;stroke:black;stroke-width:1.000000;stroke-opacity:1.000000" />


<text
x="697.285513"
y="567.324649"
id="Protein_7bba8d866c41216ee4f19004b9ffaaea"
style="font-size:6.000000px;text-anchor:middle;font-family:Arial,Helvetica;alignment-baseline:baseline;stroke.opacity:1;dominant-baseline:baseline"
fill="black"
>
VAMP1</text>



<rect
width="58.333333"
height="33.333333"
rx="3.333333"
ry="3.333333"
x="625.085594"
y="657.953320"
id="Protein_1c054bbff256b719262b5bc8096fa3dc_Complex_3cfa25c96b1d894efb20f849658b140a"
style="fill:white;fill-opacity:1.000000;stroke:black;stroke-width:1.000000;stroke-opacity:1.000000" />


<text
x="654.252260"
y="676.619986"
id="Protein_1c054bbff256b719262b5bc8096fa3dc_Complex_3cfa25c96b1d894efb20f849658b140a"
style="font-size:6.000000px;text-anchor:middle;font-family:Arial,Helvetica;alignment-baseline:baseline;stroke.opacity:1;dominant-baseline:baseline"
fill="black"
>
Synaptotagmin</text>



<rect
width="58.333333"
height="33.333333"
rx="3.333333"
ry="3.333333"
x="625.085594"
y="700.036653"
id="Protein_85d79124693db4e204b044661d96a101_Complex_3cfa25c96b1d894efb20f849658b140a"
style="fill:white;fill-opacity:1.000000;stroke:black;stroke-width:1.000000;stroke-opacity:1.000000" />


<text
x="654.252260"
y="718.703320"
id="Protein_85d79124693db4e204b044661d96a101_Complex_3cfa25c96b1d894efb20f849658b140a"
style="font-size:6.000000px;text-anchor:middle;font-family:Arial,Helvetica;alignment-baseline:baseline;stroke.opacity:1;dominant-baseline:baseline"
fill="black"
>
Syntaxin 1/2</text>



<rect
width="58.333333"
height="33.333333"
rx="3.333333"
ry="3.333333"
x="692.168927"
y="657.953320"
id="Protein_125461cdbd9a25baa12995b1d3360506_Complex_3cfa25c96b1d894efb20f849658b140a"
style="fill:white;fill-opacity:1.000000;stroke:black;stroke-width:1.000000;stroke-opacity:1.000000" />


<text
x="721.335594"
y="676.619986"
id="Protein_125461cdbd9a25baa12995b1d3360506_Complex_3cfa25c96b1d894efb20f849658b140a"
style="font-size:6.000000px;text-anchor:middle;font-family:Arial,Helvetica;alignment-baseline:baseline;stroke.opacity:1;dominant-baseline:baseline"
fill="black"
>
VAMP1</text>



<rect
width="58.333333"
height="33.333333"
rx="3.333333"
ry="3.333333"
x="692.168927"
y="700.036653"
id="Protein_1ebf8492e318d502c4e298f13ed18d28_Complex_3cfa25c96b1d894efb20f849658b140a"
style="fill:white;fill-opacity:1.000000;stroke:black;stroke-width:1.000000;stroke-opacity:1.000000" />


<text
x="721.335594"
y="718.703320"
id="Protein_1ebf8492e318d502c4e298f13ed18d28_Complex_3cfa25c96b1d894efb20f849658b140a"
style="font-size:6.000000px;text-anchor:middle;font-family:Arial,Helvetica;alignment-baseline:baseline;stroke.opacity:1;dominant-baseline:baseline"
fill="black"
>
SNAP25</text>



<ellipse
rx="16.666667"
ry="16.666667"
cx="397.174619"
cy="965.568400"
id="SmallMolecule_68c5883e513923c3087ef0ed398cb813"
style="fill:white;fill-opacity:0.000000;stroke:black;stroke-width:1.000000;stroke-opacity:1.000000" />



<text
x="397.174619"
y="964.568400"
id="SmallMolecule_68c5883e513923c3087ef0ed398cb813"
style="font-size:6.000000px;text-anchor:middle;font-family:Arial,Helvetica;alignment-baseline:baseline;stroke.opacity:1;dominant-baseline:baseline"
fill="black"
>
neurotransm-</text>


<text
x="397.174619"
y="970.568400"
id="SmallMolecule_68c5883e513923c3087ef0ed398cb813"
style="font-size:6.000000px;text-anchor:middle;font-family:Arial,Helvetica;alignment-baseline:baseline;stroke.opacity:1;dominant-baseline:baseline"
fill="black"
>
itter</text>


<rect
width="16.666667"
height="16.666667"
rx="0.000000"
ry="0.000000"
x="596.062939"
y="583.409677"
id="ComplexAssembly_464cf476e938916428e92fc68837e116_LEFT_TO_RIGHT"
style="fill:white;fill-opacity:0.600000;stroke:black;stroke-width:1.000000;stroke-opacity:1.000000" />



<rect
width="16.666667"
height="16.666667"
rx="0.000000"
ry="0.000000"
x="442.800850"
y="879.088288"
id="TransportWithBiochemicalReaction_3d0bd65bc6271b987f5d77716b28b24d_LEFT_TO_RIGHT"
style="fill:white;fill-opacity:0.600000;stroke:black;stroke-width:1.000000;stroke-opacity:1.000000" />




<rect
width="58.333333"
height="33.333333"
rx="3.333333"
ry="3.333333"
x="211.240331"
y="373.892717"
id="Protein_1af35bb268bf7224a95e970ee5542477"
style="fill:white;fill-opacity:1.000000;stroke:black;stroke-width:1.000000;stroke-opacity:1.000000" />


<text
x="240.406997"
y="392.559384"
id="Protein_1af35bb268bf7224a95e970ee5542477"
style="font-size:6.000000px;text-anchor:middle;font-family:Arial,Helvetica;alignment-baseline:baseline;stroke.opacity:1;dominant-baseline:baseline"
fill="black"
>
Munc18</text>



<rect
width="58.333333"
height="33.333333"
rx="3.333333"
ry="3.333333"
x="111.000000"
y="325.657023"
id="Protein_442cc8d09750000a5923e64f707190c4"
style="fill:white;fill-opacity:1.000000;stroke:black;stroke-width:1.000000;stroke-opacity:1.000000" />


<text
x="140.166667"
y="344.323690"
id="Protein_442cc8d09750000a5923e64f707190c4"
style="font-size:6.000000px;text-anchor:middle;font-family:Arial,Helvetica;alignment-baseline:baseline;stroke.opacity:1;dominant-baseline:baseline"
fill="black"
>
SNAP25</text>



<rect
width="58.333333"
height="33.333333"
rx="3.333333"
ry="3.333333"
x="342.859047"
y="310.441653"
id="Protein_d7445acc5e14bf7b1944e7549893a192"
style="fill:white;fill-opacity:1.000000;stroke:black;stroke-width:1.000000;stroke-opacity:1.000000" />


<text
x="372.025714"
y="329.108320"
id="Protein_d7445acc5e14bf7b1944e7549893a192"
style="font-size:6.000000px;text-anchor:middle;font-family:Arial,Helvetica;alignment-baseline:baseline;stroke.opacity:1;dominant-baseline:baseline"
fill="black"
>
NSF</text>



<rect
width="58.333333"
height="33.333333"
rx="3.333333"
ry="3.333333"
x="142.362589"
y="263.192627"
id="Protein_194da949326955dea7f6f09c3a5ef15b"
style="fill:white;fill-opacity:1.000000;stroke:black;stroke-width:1.000000;stroke-opacity:1.000000" />


<text
x="171.529256"
y="281.859294"
id="Protein_194da949326955dea7f6f09c3a5ef15b"
style="font-size:6.000000px;text-anchor:middle;font-family:Arial,Helvetica;alignment-baseline:baseline;stroke.opacity:1;dominant-baseline:baseline"
fill="black"
>
RIM1alpha/2alpha</text>



<rect
width="58.333333"
height="33.333333"
rx="3.333333"
ry="3.333333"
x="305.691840"
y="250.516392"
id="Protein_ad028dc4627780d51686c6ae67c76f95"
style="fill:white;fill-opacity:1.000000;stroke:black;stroke-width:1.000000;stroke-opacity:1.000000" />


<text
x="334.858506"
y="269.183058"
id="Protein_ad028dc4627780d51686c6ae67c76f95"
style="font-size:6.000000px;text-anchor:middle;font-family:Arial,Helvetica;alignment-baseline:baseline;stroke.opacity:1;dominant-baseline:baseline"
fill="black"
>
SNAP</text>



<ellipse
rx="16.666667"
ry="16.666667"
cx="351.138533"
cy="486.402304"
id="SmallMolecule_94d7a54fe8e0fb1b5f98879e413cf8d4"
style="fill:white;fill-opacity:0.000000;stroke:black;stroke-width:1.000000;stroke-opacity:1.000000" />


<text
x="351.138533"
y="488.402304"
id="SmallMolecule_94d7a54fe8e0fb1b5f98879e413cf8d4"
style="font-size:6.000000px;text-anchor:middle;font-family:Arial,Helvetica;alignment-baseline:baseline;stroke.opacity:1;dominant-baseline:baseline"
fill="black"
>
Ca2+</text>



<rect
width="58.333333"
height="33.333333"
rx="3.333333"
ry="3.333333"
x="342.020478"
y="194.000000"
id="Protein_e35c130da35b9f87cbc57fb7f61f6962"
style="fill:white;fill-opacity:1.000000;stroke:black;stroke-width:1.000000;stroke-opacity:1.000000" />


<text
x="371.187145"
y="212.666667"
id="Protein_e35c130da35b9f87cbc57fb7f61f6962"
style="font-size:6.000000px;text-anchor:middle;font-family:Arial,Helvetica;alignment-baseline:baseline;stroke.opacity:1;dominant-baseline:baseline"
fill="black"
>
Syntaxin 1/2</text>



<rect
width="58.333333"
height="33.333333"
rx="3.333333"
ry="3.333333"
x="211.044985"
y="204.332735"
id="Protein_2ed4716293be4f1cf52157c222507182"
style="fill:white;fill-opacity:1.000000;stroke:black;stroke-width:1.000000;stroke-opacity:1.000000" />


<text
x="240.211652"
y="222.999402"
id="Protein_2ed4716293be4f1cf52157c222507182"
style="font-size:6.000000px;text-anchor:middle;font-family:Arial,Helvetica;alignment-baseline:baseline;stroke.opacity:1;dominant-baseline:baseline"
fill="black"
>
Munc13</text>


<rect
width="16.666667"
height="16.666667"
rx="0.000000"
ry="0.000000"
x="254.837828"
y="291.705934"
id="ComplexAssembly_a3b265f027bae956dabafd3fcfd5f3f2_LEFT_TO_RIGHT"
style="fill:white;fill-opacity:0.600000;stroke:black;stroke-width:1.000000;stroke-opacity:1.000000" />



<rect
width="16.666667"
height="16.666667"
rx="0.000000"
ry="0.000000"
x="284.770072"
y="314.484896"
id="BiochemicalReaction_f8714aca5143394ffbab45a75f120a07_LEFT_TO_RIGHT"
style="fill:white;fill-opacity:0.600000;stroke:black;stroke-width:1.000000;stroke-opacity:1.000000" />





<path d="M650.000000 648.000000 C 635.000000 630.000000, 620.000000 611.000000,611.000000 600.000000" stroke="black"  fill="transparent"/>

<line
x1="620" y1="611" x2="611" y2="600"
id="0"
style="stroke:black;stroke-width:1.000000;stroke-opacity:0" />


<line
x1="635" y1="630" x2="650" y2="648"
id="ComplexAssembly_464cf476e938916428e92fc68837e116_LEFT_TO_RIGHT-output--to--Complex_3cfa25c96b1d894efb20f849658b140a"
style="stroke:black;stroke-width:1.000000;stroke-opacity:0" />


<polygon
points = "650,648 641.2,643.6 641.2,652.4"
id="line"
style="fill:black; stroke:#000000; stroke-width:1"
transform = "rotate(50.194429 650.000000 648.000000)"
/>


<path d="M301.000000 675.000000 C 299.000000 570.000000, 294.000000 375.000000,293.000000 331.000000" stroke="black"  fill="transparent"/>

<line
x1="294" y1="375" x2="293" y2="331"
id="0"
style="stroke:black;stroke-width:1.000000;stroke-opacity:0" />


<line
x1="299" y1="570" x2="301" y2="675"
id="BiochemicalReaction_f8714aca5143394ffbab45a75f120a07_LEFT_TO_RIGHT-output--to--Complex_7f767f5ece0a965922a7108d58a84f0b"
style="stroke:black;stroke-width:1.000000;stroke-opacity:0" />


<polygon
points = "301,675 292.2,670.6 292.2,679.4"
id="line"
style="fill:black; stroke:#000000; stroke-width:1"
transform = "rotate(88.908784 301.000000 675.000000)"
/>


<path d="M638.000000 648.000000 C 544.000000 559.000000, 344.000000 371.000000,301.000000 330.000000" stroke="black"  fill="transparent"/>

<line
x1="544" y1="559" x2="638" y2="648"
id="0"
style="stroke:black;stroke-width:1.000000;stroke-opacity:0" />


<line
x1="344" y1="371" x2="301" y2="330"
id="Complex_3cfa25c96b1d894efb20f849658b140a--to--BiochemicalReaction_f8714aca5143394ffbab45a75f120a07_LEFT_TO_RIGHT-input"
style="stroke:black;stroke-width:1.000000;stroke-opacity:0" />


<path d="M372.000000 810.000000 C 400.000000 837.000000, 428.000000 865.000000,442.000000 879.000000" stroke="black"  fill="transparent"/>

<line
x1="400" y1="837" x2="372" y2="810"
id="0"
style="stroke:black;stroke-width:1.000000;stroke-opacity:0" />


<line
x1="428" y1="865" x2="442" y2="879"
id="Complex_7f767f5ece0a965922a7108d58a84f0b--to--TransportWithBiochemicalReaction_3d0bd65bc6271b987f5d77716b28b24d_LEFT_TO_RIGHT"
style="stroke:black;stroke-width:1.000000;stroke-opacity:0" />


<polygon
points = "442,879 428.8,874.6 428.8,883.4"
id="line"
style="fill:white; stroke:#000000; stroke-width:1"
transform = "rotate(45.000000 442.000000 879.000000)"
/>


<path d="M168.000000 332.000000 C 196.000000 322.000000, 237.000000 308.000000,254.000000 302.000000" stroke="black"  fill="transparent"/>

<line
x1="237" y1="308" x2="254" y2="302"
id="0"
style="stroke:black;stroke-width:1.000000;stroke-opacity:0" />


<line
x1="196" y1="322" x2="168" y2="332"
id="ComplexAssembly_a3b265f027bae956dabafd3fcfd5f3f2_LEFT_TO_RIGHT-output--to--Protein_442cc8d09750000a5923e64f707190c4"
style="stroke:black;stroke-width:1.000000;stroke-opacity:0" />


<polygon
points = "168,332 159.2,327.6 159.2,336.4"
id="line"
style="fill:black; stroke:#000000; stroke-width:1"
transform = "rotate(160.346176 168.000000 332.000000)"
/>


<path d="M342.000000 222.000000 C 329.000000 228.000000, 314.000000 237.000000,302.000000 247.000000" stroke="black"  fill="transparent"/>
<path d="M302.000000 247.000000 C 287.000000 260.000000, 274.000000 280.000000,268.000000 291.000000" stroke="black"  fill="transparent"/>

<line
x1="274" y1="280" x2="268" y2="291"
id="0"
style="stroke:black;stroke-width:1.000000;stroke-opacity:0" />


<line
x1="329" y1="228" x2="342" y2="222"
id="ComplexAssembly_a3b265f027bae956dabafd3fcfd5f3f2_LEFT_TO_RIGHT-output--to--Protein_e35c130da35b9f87cbc57fb7f61f6962"
style="stroke:black;stroke-width:1.000000;stroke-opacity:0" />


<polygon
points = "342,222 333.2,217.6 333.2,226.4"
id="line"
style="fill:black; stroke:#000000; stroke-width:1"
transform = "rotate(-24.775141 342.000000 222.000000)"
/>


<path d="M342.000000 319.000000 C 318.000000 313.000000, 286.000000 305.000000,271.000000 302.000000" stroke="black"  fill="transparent"/>

<line
x1="318" y1="313" x2="342" y2="319"
id="0"
style="stroke:black;stroke-width:1.000000;stroke-opacity:0" />


<line
x1="286" y1="305" x2="271" y2="302"
id="Protein_d7445acc5e14bf7b1944e7549893a192--to--ComplexAssembly_a3b265f027bae956dabafd3fcfd5f3f2_LEFT_TO_RIGHT"
style="stroke:black;stroke-width:1.000000;stroke-opacity:0" />


<ellipse
rx="4.400000"
ry="4.400000"
cx="275.314555"
cy="302.862911"
id="Protein_d7445acc5e14bf7b1944e7549893a192--to--ComplexAssembly_a3b265f027bae956dabafd3fcfd5f3f2_LEFT_TO_RIGHT"
style="fill:white;fill-opacity:0.800000;stroke:black;stroke-width:1.000000;stroke-opacity:1.000000" />


<path d="M185.000000 582.000000 C 205.000000 550.000000, 247.000000 477.000000,272.000000 410.000000" stroke="black"  fill="transparent"/>
<path d="M272.000000 410.000000 C 282.000000 382.000000, 289.000000 347.000000,291.000000 331.000000" stroke="black"  fill="transparent"/>

<line
x1="205" y1="550" x2="185" y2="582"
id="0"
style="stroke:black;stroke-width:1.000000;stroke-opacity:0" />


<line
x1="289" y1="347" x2="291" y2="331"
id="Protein_0c0a3807fee7c0fa0660ce66754446be--to--BiochemicalReaction_f8714aca5143394ffbab45a75f120a07_LEFT_TO_RIGHT-input"
style="stroke:black;stroke-width:1.000000;stroke-opacity:0" />


<path d="M668.000000 550.000000 C 605.000000 518.000000, 452.000000 436.000000,339.000000 346.000000" stroke="black"  fill="transparent"/>
<path d="M339.000000 346.000000 C 322.000000 332.000000, 324.000000 322.000000,304.000000 311.000000" stroke="black"  fill="transparent"/>
<path d="M304.000000 311.000000 C 294.000000 305.000000, 280.000000 302.000000,271.000000 300.000000" stroke="black"  fill="transparent"/>

<line
x1="280" y1="302" x2="271" y2="300"
id="0"
style="stroke:black;stroke-width:1.000000;stroke-opacity:0" />


<line
x1="605" y1="518" x2="668" y2="550"
id="ComplexAssembly_a3b265f027bae956dabafd3fcfd5f3f2_LEFT_TO_RIGHT-output--to--Protein_7bba8d866c41216ee4f19004b9ffaaea"
style="stroke:black;stroke-width:1.000000;stroke-opacity:0" />


<polygon
points = "668,550 659.2,545.6 659.2,554.4"
id="line"
style="fill:black; stroke:#000000; stroke-width:1"
transform = "rotate(26.927678 668.000000 550.000000)"
/>


<path d="M599.000000 583.000000 C 569.000000 534.000000, 421.000000 293.000000,381.000000 227.000000" stroke="black"  fill="transparent"/>

<line
x1="421" y1="293" x2="381" y2="227"
id="0"
style="stroke:black;stroke-width:1.000000;stroke-opacity:0" />


<line
x1="569" y1="534" x2="599" y2="583"
id="Protein_e35c130da35b9f87cbc57fb7f61f6962--to--ComplexAssembly_464cf476e938916428e92fc68837e116_LEFT_TO_RIGHT-input"
style="stroke:black;stroke-width:1.000000;stroke-opacity:0" />


<path d="M668.000000 573.000000 C 648.000000 579.000000, 625.000000 585.000000,612.000000 589.000000" stroke="black"  fill="transparent"/>

<line
x1="648" y1="579" x2="668" y2="573"
id="0"
style="stroke:black;stroke-width:1.000000;stroke-opacity:0" />


<line
x1="625" y1="585" x2="612" y2="589"
id="Protein_7bba8d866c41216ee4f19004b9ffaaea--to--ComplexAssembly_464cf476e938916428e92fc68837e116_LEFT_TO_RIGHT-input"
style="stroke:black;stroke-width:1.000000;stroke-opacity:0" />


<path d="M244.000000 373.000000 C 249.000000 354.000000, 257.000000 323.000000,260.000000 308.000000" stroke="black"  fill="transparent"/>

<line
x1="257" y1="323" x2="260" y2="308"
id="0"
style="stroke:black;stroke-width:1.000000;stroke-opacity:0" />


<line
x1="249" y1="354" x2="244" y2="373"
id="ComplexAssembly_a3b265f027bae956dabafd3fcfd5f3f2_LEFT_TO_RIGHT-output--to--Protein_1af35bb268bf7224a95e970ee5542477"
style="stroke:black;stroke-width:1.000000;stroke-opacity:0" />


<polygon
points = "244,373 235.2,368.6 235.2,377.4"
id="line"
style="fill:black; stroke:#000000; stroke-width:1"
transform = "rotate(104.743563 244.000000 373.000000)"
/>


<path d="M345.000000 469.000000 C 333.000000 435.000000, 305.000000 357.000000,296.000000 331.000000" stroke="black"  fill="transparent"/>

<line
x1="333" y1="435" x2="345" y2="469"
id="0"
style="stroke:black;stroke-width:1.000000;stroke-opacity:0" />


<line
x1="305" y1="357" x2="296" y2="331"
id="SmallMolecule_94d7a54fe8e0fb1b5f98879e413cf8d4--to--BiochemicalReaction_f8714aca5143394ffbab45a75f120a07_LEFT_TO_RIGHT-input"
style="stroke:black;stroke-width:1.000000;stroke-opacity:0" />


<path d="M451.000000 1016.000000 C 451.000000 985.000000, 451.000000 919.000000,451.000000 896.000000" stroke="black"  fill="transparent"/>

<line
x1="451" y1="919" x2="451" y2="896"
id="0"
style="stroke:black;stroke-width:1.000000;stroke-opacity:0" />


<line
x1="451" y1="985" x2="451" y2="1016"
id="TransportWithBiochemicalReaction_3d0bd65bc6271b987f5d77716b28b24d_LEFT_TO_RIGHT-output--to--SmallMolecule_486a3fbb1cc9ae8fbf101710f966cdc2"
style="stroke:black;stroke-width:1.000000;stroke-opacity:0" />


<polygon
points = "451,1016 442.2,1011.6 442.2,1020.4"
id="line"
style="fill:black; stroke:#000000; stroke-width:1"
transform = "rotate(90.000000 451.000000 1016.000000)"
/>


<path d="M248.000000 237.000000 C 260.000000 259.000000, 279.000000 297.000000,288.000000 314.000000" stroke="black"  fill="transparent"/>

<line
x1="260" y1="259" x2="248" y2="237"
id="0"
style="stroke:black;stroke-width:1.000000;stroke-opacity:0" />


<line
x1="279" y1="297" x2="288" y2="314"
id="Protein_2ed4716293be4f1cf52157c222507182--to--BiochemicalReaction_f8714aca5143394ffbab45a75f120a07_LEFT_TO_RIGHT-input"
style="stroke:black;stroke-width:1.000000;stroke-opacity:0" />


<path d="M200.000000 286.000000 C 219.000000 290.000000, 242.000000 295.000000,254.000000 298.000000" stroke="black"  fill="transparent"/>

<line
x1="242" y1="295" x2="254" y2="298"
id="0"
style="stroke:black;stroke-width:1.000000;stroke-opacity:0" />


<line
x1="219" y1="290" x2="200" y2="286"
id="ComplexAssembly_a3b265f027bae956dabafd3fcfd5f3f2_LEFT_TO_RIGHT-output--to--Protein_194da949326955dea7f6f09c3a5ef15b"
style="stroke:black;stroke-width:1.000000;stroke-opacity:0" />


<polygon
points = "200,286 191.2,281.6 191.2,290.4"
id="line"
style="fill:black; stroke:#000000; stroke-width:1"
transform = "rotate(191.888658 200.000000 286.000000)"
/>


<path d="M253.000000 373.000000 C 263.000000 360.000000, 278.000000 341.000000,286.000000 331.000000" stroke="black"  fill="transparent"/>

<line
x1="263" y1="360" x2="253" y2="373"
id="0"
style="stroke:black;stroke-width:1.000000;stroke-opacity:0" />


<line
x1="278" y1="341" x2="286" y2="331"
id="Protein_1af35bb268bf7224a95e970ee5542477--to--BiochemicalReaction_f8714aca5143394ffbab45a75f120a07_LEFT_TO_RIGHT-input"
style="stroke:black;stroke-width:1.000000;stroke-opacity:0" />


<path d="M298.000000 675.000000 C 293.000000 600.000000, 284.000000 477.000000,272.000000 370.000000" stroke="black"  fill="transparent"/>
<path d="M272.000000 370.000000 C 270.000000 348.000000, 266.000000 322.000000,264.000000 308.000000" stroke="black"  fill="transparent"/>

<line
x1="293" y1="600" x2="298" y2="675"
id="0"
style="stroke:black;stroke-width:1.000000;stroke-opacity:0" />


<line
x1="266" y1="322" x2="264" y2="308"
id="Complex_7f767f5ece0a965922a7108d58a84f0b--to--ComplexAssembly_a3b265f027bae956dabafd3fcfd5f3f2_LEFT_TO_RIGHT-input"
style="stroke:black;stroke-width:1.000000;stroke-opacity:0" />


<path d="M305.000000 280.000000 C 293.000000 286.000000, 280.000000 292.000000,271.000000 296.000000" stroke="black"  fill="transparent"/>

<line
x1="293" y1="286" x2="305" y2="280"
id="0"
style="stroke:black;stroke-width:1.000000;stroke-opacity:0" />


<line
x1="280" y1="292" x2="271" y2="296"
id="Protein_ad028dc4627780d51686c6ae67c76f95--to--ComplexAssembly_a3b265f027bae956dabafd3fcfd5f3f2_LEFT_TO_RIGHT"
style="stroke:black;stroke-width:1.000000;stroke-opacity:0" />


<ellipse
rx="4.400000"
ry="4.400000"
cx="275.020771"
cy="294.212991"
id="Protein_ad028dc4627780d51686c6ae67c76f95--to--ComplexAssembly_a3b265f027bae956dabafd3fcfd5f3f2_LEFT_TO_RIGHT"
style="fill:white;fill-opacity:0.800000;stroke:black;stroke-width:1.000000;stroke-opacity:1.000000" />


<path d="M510.000000 638.000000 C 471.000000 591.000000, 359.000000 456.000000,281.000000 334.000000" stroke="black"  fill="transparent"/>
<path d="M281.000000 334.000000 C 276.000000 326.000000, 270.000000 315.000000,267.000000 308.000000" stroke="black"  fill="transparent"/>

<line
x1="270" y1="315" x2="267" y2="308"
id="0"
style="stroke:black;stroke-width:1.000000;stroke-opacity:0" />


<line
x1="471" y1="591" x2="510" y2="638"
id="ComplexAssembly_a3b265f027bae956dabafd3fcfd5f3f2_LEFT_TO_RIGHT-output--to--Protein_8b2ba29354baf66570f20393babb91bf"
style="stroke:black;stroke-width:1.000000;stroke-opacity:0" />


<polygon
points = "510,638 501.2,633.6 501.2,642.4"
id="line"
style="fill:black; stroke:#000000; stroke-width:1"
transform = "rotate(50.314546 510.000000 638.000000)"
/>


<path d="M595.000000 586.000000 C 565.000000 568.000000, 461.000000 506.000000,370.000000 466.000000" stroke="black"  fill="transparent"/>
<path d="M370.000000 466.000000 C 300.000000 436.000000, 273.000000 450.000000,208.000000 410.000000" stroke="black"  fill="transparent"/>
<path d="M208.000000 410.000000 C 186.000000 396.000000, 165.000000 374.000000,153.000000 358.000000" stroke="black"  fill="transparent"/>

<line
x1="165" y1="374" x2="153" y2="358"
id="0"
style="stroke:black;stroke-width:1.000000;stroke-opacity:0" />


<line
x1="565" y1="568" x2="595" y2="586"
id="Protein_442cc8d09750000a5923e64f707190c4--to--ComplexAssembly_464cf476e938916428e92fc68837e116_LEFT_TO_RIGHT-input"
style="stroke:black;stroke-width:1.000000;stroke-opacity:0" />


<path d="M174.000000 582.000000 C 174.000000 544.000000, 176.000000 445.000000,208.000000 370.000000" stroke="black"  fill="transparent"/>
<path d="M208.000000 370.000000 C 219.000000 345.000000, 241.000000 320.000000,254.000000 308.000000" stroke="black"  fill="transparent"/>

<line
x1="241" y1="320" x2="254" y2="308"
id="0"
style="stroke:black;stroke-width:1.000000;stroke-opacity:0" />


<line
x1="174" y1="544" x2="174" y2="582"
id="ComplexAssembly_a3b265f027bae956dabafd3fcfd5f3f2_LEFT_TO_RIGHT-output--to--Protein_0c0a3807fee7c0fa0660ce66754446be"
style="stroke:black;stroke-width:1.000000;stroke-opacity:0" />


<polygon
points = "174,582 165.2,577.6 165.2,586.4"
id="line"
style="fill:black; stroke:#000000; stroke-width:1"
transform = "rotate(90.000000 174.000000 582.000000)"
/>


<path d="M545.000000 638.000000 C 561.000000 625.000000, 583.000000 607.000000,595.000000 598.000000" stroke="black"  fill="transparent"/>

<line
x1="561" y1="625" x2="545" y2="638"
id="0"
style="stroke:black;stroke-width:1.000000;stroke-opacity:0" />


<line
x1="583" y1="607" x2="595" y2="598"
id="Protein_8b2ba29354baf66570f20393babb91bf--to--ComplexAssembly_464cf476e938916428e92fc68837e116_LEFT_TO_RIGHT-input"
style="stroke:black;stroke-width:1.000000;stroke-opacity:0" />


<path d="M408.000000 948.000000 C 419.000000 932.000000, 436.000000 908.000000,445.000000 896.000000" stroke="black"  fill="transparent"/>

<line
x1="419" y1="932" x2="408" y2="948"
id="0"
style="stroke:black;stroke-width:1.000000;stroke-opacity:0" />


<line
x1="436" y1="908" x2="445" y2="896"
id="SmallMolecule_68c5883e513923c3087ef0ed398cb813--to--TransportWithBiochemicalReaction_3d0bd65bc6271b987f5d77716b28b24d_LEFT_TO_RIGHT-input"
style="stroke:black;stroke-width:1.000000;stroke-opacity:0" />


<path d="M245.000000 237.000000 C 249.000000 254.000000, 256.000000 278.000000,260.000000 291.000000" stroke="black"  fill="transparent"/>

<line
x1="256" y1="278" x2="260" y2="291"
id="0"
style="stroke:black;stroke-width:1.000000;stroke-opacity:0" />


<line
x1="249" y1="254" x2="245" y2="237"
id="ComplexAssembly_a3b265f027bae956dabafd3fcfd5f3f2_LEFT_TO_RIGHT-output--to--Protein_2ed4716293be4f1cf52157c222507182"
style="stroke:black;stroke-width:1.000000;stroke-opacity:0" />


<polygon
points = "245,237 236.2,232.6 236.2,241.4"
id="line"
style="fill:black; stroke:#000000; stroke-width:1"
transform = "rotate(256.759480 245.000000 237.000000)"
/>


<path d="M200.000000 292.000000 C 215.000000 298.000000, 234.000000 306.000000,251.000000 311.000000" stroke="black"  fill="transparent"/>
<path d="M251.000000 311.000000 C 262.000000 315.000000, 276.000000 318.000000,284.000000 320.000000" stroke="black"  fill="transparent"/>

<line
x1="215" y1="298" x2="200" y2="292"
id="0"
style="stroke:black;stroke-width:1.000000;stroke-opacity:0" />


<line
x1="276" y1="318" x2="284" y2="320"
id="Protein_194da949326955dea7f6f09c3a5ef15b--to--BiochemicalReaction_f8714aca5143394ffbab45a75f120a07_LEFT_TO_RIGHT-input"
style="stroke:black;stroke-width:1.000000;stroke-opacity:0" />



</svg>
