<?xml version="1.0" encoding="UTF-8"?>
<svg width="909.489081" height="847.305468"
xmlns="http://www.w3.org/2000/svg" xmlns:svg="http://www.w3.org/2000/svg"
>
<metadata id="metadata7">image/svg+xml</metadata>

<rect
width="308.519047"
height="246.397598"
rx="11.000000"
ry="11.000000"
x="270.970034"
y="400.907871"
id="cytosol"
style="fill:white;fill-opacity:0.900000;stroke:black;stroke-width:5.000000;stroke-opacity:1.000000" />


<text
x="425.229558"
y="392.907871"
id="cytosol"
style="font-size:6.000000px;text-anchor:middle;font-family:Arial,Helvetica;alignment-baseline:baseline;stroke.opacity:1;dominant-baseline:baseline"
fill="black"
>
cytosol</text>


<rect
width="287.205820"
height="184.947543"
rx="11.000000"
ry="11.000000"
x="100.000000"
y="183.000000"
id="endoplasmic_reticulum_membrane"
style="fill:white;fill-opacity:0.900000;stroke:black;stroke-width:5.000000;stroke-opacity:1.000000" />


<text
x="243.602910"
y="175.000000"
id="endoplasmic_reticulum_membrane"
style="font-size:6.000000px;text-anchor:middle;font-family:Arial,Helvetica;alignment-baseline:baseline;stroke.opacity:1;dominant-baseline:baseline"
fill="black"
>
endoplasmic reticulum membrane</text>





<ellipse
rx="16.666667"
ry="16.666667"
cx="298.636701"
cy="485.772011"
id="SmallMolecule_bfe0d4cd6c12bac80101dff1b5e1f783"
style="fill:white;fill-opacity:0.000000;stroke:black;stroke-width:1.000000;stroke-opacity:1.000000" />


<text
x="298.636701"
y="487.772011"
id="SmallMolecule_bfe0d4cd6c12bac80101dff1b5e1f783"
style="font-size:6.000000px;text-anchor:middle;font-family:Arial,Helvetica;alignment-baseline:baseline;stroke.opacity:1;dominant-baseline:baseline"
fill="black"
>
H2O</text>



<ellipse
rx="16.666667"
ry="16.666667"
cx="502.911317"
cy="619.638802"
id="SmallMolecule_35d14b8fc0bc150d5ee4594d905fd627"
style="fill:white;fill-opacity:0.000000;stroke:black;stroke-width:1.000000;stroke-opacity:1.000000" />


<text
x="502.911317"
y="621.638802"
id="SmallMolecule_35d14b8fc0bc150d5ee4594d905fd627"
style="font-size:6.000000px;text-anchor:middle;font-family:Arial,Helvetica;alignment-baseline:baseline;stroke.opacity:1;dominant-baseline:baseline"
fill="black"
>
G3P</text>



<ellipse
rx="16.666667"
ry="16.666667"
cx="493.651155"
cy="484.338903"
id="SmallMolecule_c787d0b44526be3585a551156d8c0f64"
style="fill:white;fill-opacity:0.000000;stroke:black;stroke-width:1.000000;stroke-opacity:1.000000" />


<text
x="493.651155"
y="486.338903"
id="SmallMolecule_c787d0b44526be3585a551156d8c0f64"
style="font-size:6.000000px;text-anchor:middle;font-family:Arial,Helvetica;alignment-baseline:baseline;stroke.opacity:1;dominant-baseline:baseline"
fill="black"
>
ETA</text>



<ellipse
rx="16.666667"
ry="16.666667"
cx="338.703195"
cy="428.574537"
id="SmallMolecule_90cc287517f509b58421a6fd763a777b"
style="fill:white;fill-opacity:0.000000;stroke:black;stroke-width:1.000000;stroke-opacity:1.000000" />


<text
x="338.703195"
y="430.574537"
id="SmallMolecule_90cc287517f509b58421a6fd763a777b"
style="font-size:6.000000px;text-anchor:middle;font-family:Arial,Helvetica;alignment-baseline:baseline;stroke.opacity:1;dominant-baseline:baseline"
fill="black"
>
GPETA</text>



<rect
width="58.333333"
height="33.333333"
rx="3.333333"
ry="3.333333"
x="510.155748"
y="536.168171"
id="Protein_465af74a2f2a00d117e5c6379ca25d02"
style="fill:white;fill-opacity:1.000000;stroke:black;stroke-width:1.000000;stroke-opacity:1.000000" />


<text
x="539.322415"
y="554.834837"
id="Protein_465af74a2f2a00d117e5c6379ca25d02"
style="font-size:6.000000px;text-anchor:middle;font-family:Arial,Helvetica;alignment-baseline:baseline;stroke.opacity:1;dominant-baseline:baseline"
fill="black"
>
GPCPD1</text>


<ellipse
rx="14.583333"
ry="7.291667"
cx="524.739081"
cy="536.168171"
id="Protein_465af74a2f2a00d117e5c6379ca25d02.info.1"
style="fill:white;fill-opacity:1.000000;stroke:black;stroke-width:1.000000;stroke-opacity:1.000000" />


<text
x="524.739081"
y="538.168171"
id="Protein_465af74a2f2a00d117e5c6379ca25d02.info.1"
style="font-size:6.000000px;text-anchor:middle;font-family:Arial,Helvetica;alignment-baseline:baseline;stroke.opacity:1;dominant-baseline:baseline"
fill="black"
>
x[1-672]</text>


<rect
width="16.666667"
height="16.666667"
rx="0.000000"
ry="0.000000"
x="410.935020"
y="524.694453"
id="reactome_R-HSA-1483107_LEFT_TO_RIGHT"
style="fill:white;fill-opacity:0.600000;stroke:black;stroke-width:1.000000;stroke-opacity:1.000000" />




<ellipse
rx="16.666667"
ry="16.666667"
cx="127.666667"
cy="277.442524"
id="SmallMolecule_8797939a5cd7184fef5a3fa69a37b38d"
style="fill:white;fill-opacity:0.000000;stroke:black;stroke-width:1.000000;stroke-opacity:1.000000" />


<text
x="127.666667"
y="279.442524"
id="SmallMolecule_8797939a5cd7184fef5a3fa69a37b38d"
style="font-size:6.000000px;text-anchor:middle;font-family:Arial,Helvetica;alignment-baseline:baseline;stroke.opacity:1;dominant-baseline:baseline"
fill="black"
>
LCFA(-)</text>



<ellipse
rx="16.666667"
ry="16.666667"
cx="359.539154"
cy="340.280877"
id="SmallMolecule_3eee28df8da2098f98a4c2946f31d86d"
style="fill:white;fill-opacity:0.000000;stroke:black;stroke-width:1.000000;stroke-opacity:1.000000" />


<text
x="359.539154"
y="342.280877"
id="SmallMolecule_3eee28df8da2098f98a4c2946f31d86d"
style="font-size:6.000000px;text-anchor:middle;font-family:Arial,Helvetica;alignment-baseline:baseline;stroke.opacity:1;dominant-baseline:baseline"
fill="black"
>
2-acyl LPE</text>



<rect
width="58.333333"
height="33.333333"
rx="3.333333"
ry="3.333333"
x="142.089663"
y="201.940311"
id="Protein_dd585ab895aa54f592b0f169c4d85f62"
style="fill:white;fill-opacity:1.000000;stroke:black;stroke-width:1.000000;stroke-opacity:1.000000" />


<text
x="171.256330"
y="220.606978"
id="Protein_dd585ab895aa54f592b0f169c4d85f62"
style="font-size:6.000000px;text-anchor:middle;font-family:Arial,Helvetica;alignment-baseline:baseline;stroke.opacity:1;dominant-baseline:baseline"
fill="black"
>
PLA2G4C</text>


<ellipse
rx="14.583333"
ry="7.291667"
cx="156.672997"
cy="201.940311"
id="Protein_dd585ab895aa54f592b0f169c4d85f62.info.1"
style="fill:white;fill-opacity:1.000000;stroke:black;stroke-width:1.000000;stroke-opacity:1.000000" />


<text
x="156.672997"
y="203.940311"
id="Protein_dd585ab895aa54f592b0f169c4d85f62.info.1"
style="font-size:6.000000px;text-anchor:middle;font-family:Arial,Helvetica;alignment-baseline:baseline;stroke.opacity:1;dominant-baseline:baseline"
fill="black"
>
x[1-538]</text>



<ellipse
rx="16.666667"
ry="16.666667"
cx="286.144064"
cy="210.666667"
id="SmallMolecule_af8d82e7ed0249e3a5502e7c871c552d"
style="fill:white;fill-opacity:0.000000;stroke:black;stroke-width:1.000000;stroke-opacity:1.000000" />


<text
x="286.144064"
y="212.666667"
id="SmallMolecule_af8d82e7ed0249e3a5502e7c871c552d"
style="font-size:6.000000px;text-anchor:middle;font-family:Arial,Helvetica;alignment-baseline:baseline;stroke.opacity:1;dominant-baseline:baseline"
fill="black"
>
1-acyl LPE</text>


<rect
width="16.666667"
height="16.666667"
rx="0.000000"
ry="0.000000"
x="199.499152"
y="322.274610"
id="reactome_R-HSA-1482545_LEFT_TO_RIGHT"
style="fill:white;fill-opacity:0.600000;stroke:black;stroke-width:1.000000;stroke-opacity:1.000000" />



<rect
width="16.666667"
height="16.666667"
rx="0.000000"
ry="0.000000"
x="230.445145"
y="284.093399"
id="reactome_R-HSA-1482571_LEFT_TO_RIGHT"
style="fill:white;fill-opacity:0.600000;stroke:black;stroke-width:1.000000;stroke-opacity:1.000000" />





<path d="M288.000000 469.000000 C 269.000000 436.000000, 227.000000 364.000000,212.000000 339.000000" stroke="black"  fill="transparent"/>

<line
x1="269" y1="436" x2="288" y2="469"
id="0"
style="stroke:black;stroke-width:1.000000;stroke-opacity:0" />


<line
x1="227" y1="364" x2="212" y2="339"
id="SmallMolecule_bfe0d4cd6c12bac80101dff1b5e1f783--to--reactome_R-HSA-1482545_LEFT_TO_RIGHT-input"
style="stroke:black;stroke-width:1.000000;stroke-opacity:0" />


<path d="M343.000000 339.000000 C 310.000000 337.000000, 240.000000 332.000000,216.000000 331.000000" stroke="black"  fill="transparent"/>

<line
x1="310" y1="337" x2="343" y2="339"
id="0"
style="stroke:black;stroke-width:1.000000;stroke-opacity:0" />


<line
x1="240" y1="332" x2="216" y2="331"
id="SmallMolecule_3eee28df8da2098f98a4c2946f31d86d--to--reactome_R-HSA-1482545_LEFT_TO_RIGHT-input"
style="stroke:black;stroke-width:1.000000;stroke-opacity:0" />


<path d="M276.000000 227.000000 C 266.000000 244.000000, 251.000000 269.000000,243.000000 283.000000" stroke="black"  fill="transparent"/>

<line
x1="266" y1="244" x2="276" y2="227"
id="0"
style="stroke:black;stroke-width:1.000000;stroke-opacity:0" />


<line
x1="251" y1="269" x2="243" y2="283"
id="SmallMolecule_af8d82e7ed0249e3a5502e7c871c552d--to--reactome_R-HSA-1482571_LEFT_TO_RIGHT-input"
style="stroke:black;stroke-width:1.000000;stroke-opacity:0" />


<path d="M186.000000 235.000000 C 200.000000 250.000000, 219.000000 271.000000,230.000000 283.000000" stroke="black"  fill="transparent"/>

<line
x1="200" y1="250" x2="186" y2="235"
id="0"
style="stroke:black;stroke-width:1.000000;stroke-opacity:0" />


<line
x1="219" y1="271" x2="230" y2="283"
id="Protein_dd585ab895aa54f592b0f169c4d85f62--to--reactome_R-HSA-1482571_LEFT_TO_RIGHT"
style="stroke:black;stroke-width:1.000000;stroke-opacity:0" />


<ellipse
rx="4.400000"
ry="4.400000"
cx="227.026812"
cy="279.756522"
id="Protein_dd585ab895aa54f592b0f169c4d85f62--to--reactome_R-HSA-1482571_LEFT_TO_RIGHT"
style="fill:white;fill-opacity:0.800000;stroke:black;stroke-width:1.000000;stroke-opacity:1.000000" />


<path d="M510.000000 548.000000 C 483.000000 543.000000, 444.000000 537.000000,427.000000 534.000000" stroke="black"  fill="transparent"/>

<line
x1="483" y1="543" x2="510" y2="548"
id="0"
style="stroke:black;stroke-width:1.000000;stroke-opacity:0" />


<line
x1="444" y1="537" x2="427" y2="534"
id="Protein_465af74a2f2a00d117e5c6379ca25d02--to--reactome_R-HSA-1483107_LEFT_TO_RIGHT"
style="stroke:black;stroke-width:1.000000;stroke-opacity:0" />


<ellipse
rx="4.400000"
ry="4.400000"
cx="431.333048"
cy="534.764655"
id="Protein_465af74a2f2a00d117e5c6379ca25d02--to--reactome_R-HSA-1483107_LEFT_TO_RIGHT"
style="fill:white;fill-opacity:0.800000;stroke:black;stroke-width:1.000000;stroke-opacity:1.000000" />


<path d="M486.000000 602.000000 C 469.000000 584.000000, 441.000000 556.000000,427.000000 541.000000" stroke="black"  fill="transparent"/>

<line
x1="441" y1="556" x2="427" y2="541"
id="0"
style="stroke:black;stroke-width:1.000000;stroke-opacity:0" />


<line
x1="469" y1="584" x2="486" y2="602"
id="reactome_R-HSA-1483107_LEFT_TO_RIGHT-output--to--SmallMolecule_35d14b8fc0bc150d5ee4594d905fd627"
style="stroke:black;stroke-width:1.000000;stroke-opacity:0" />


<polygon
points = "486,602 477.2,597.6 477.2,606.4"
id="line"
style="fill:black; stroke:#000000; stroke-width:1"
transform = "rotate(46.636577 486.000000 602.000000)"
/>


<path d="M326.000000 411.000000 C 304.000000 382.000000, 261.000000 323.000000,245.000000 300.000000" stroke="black"  fill="transparent"/>

<line
x1="261" y1="323" x2="245" y2="300"
id="0"
style="stroke:black;stroke-width:1.000000;stroke-opacity:0" />


<line
x1="304" y1="382" x2="326" y2="411"
id="reactome_R-HSA-1482571_LEFT_TO_RIGHT-output--to--SmallMolecule_90cc287517f509b58421a6fd763a777b"
style="stroke:black;stroke-width:1.000000;stroke-opacity:0" />


<polygon
points = "326,411 317.2,406.6 317.2,415.4"
id="line"
style="fill:black; stroke:#000000; stroke-width:1"
transform = "rotate(52.815294 326.000000 411.000000)"
/>


<path d="M293.000000 468.000000 C 281.000000 429.000000, 250.000000 330.000000,241.000000 301.000000" stroke="black"  fill="transparent"/>

<line
x1="281" y1="429" x2="293" y2="468"
id="0"
style="stroke:black;stroke-width:1.000000;stroke-opacity:0" />


<line
x1="250" y1="330" x2="241" y2="301"
id="SmallMolecule_bfe0d4cd6c12bac80101dff1b5e1f783--to--reactome_R-HSA-1482571_LEFT_TO_RIGHT-input"
style="stroke:black;stroke-width:1.000000;stroke-opacity:0" />


<path d="M315.000000 492.000000 C 341.000000 502.000000, 390.000000 521.000000,410.000000 529.000000" stroke="black"  fill="transparent"/>

<line
x1="341" y1="502" x2="315" y2="492"
id="0"
style="stroke:black;stroke-width:1.000000;stroke-opacity:0" />


<line
x1="390" y1="521" x2="410" y2="529"
id="SmallMolecule_bfe0d4cd6c12bac80101dff1b5e1f783--to--reactome_R-HSA-1483107_LEFT_TO_RIGHT-input"
style="stroke:black;stroke-width:1.000000;stroke-opacity:0" />


<path d="M477.000000 495.000000 C 461.000000 505.000000, 439.000000 519.000000,427.000000 527.000000" stroke="black"  fill="transparent"/>

<line
x1="439" y1="519" x2="427" y2="527"
id="0"
style="stroke:black;stroke-width:1.000000;stroke-opacity:0" />


<line
x1="461" y1="505" x2="477" y2="495"
id="reactome_R-HSA-1483107_LEFT_TO_RIGHT-output--to--SmallMolecule_c787d0b44526be3585a551156d8c0f64"
style="stroke:black;stroke-width:1.000000;stroke-opacity:0" />


<polygon
points = "477,495 468.2,490.6 468.2,499.4"
id="line"
style="fill:black; stroke:#000000; stroke-width:1"
transform = "rotate(-32.005383 477.000000 495.000000)"
/>


<path d="M322.000000 416.000000 C 294.000000 395.000000, 237.000000 352.000000,216.000000 336.000000" stroke="black"  fill="transparent"/>

<line
x1="237" y1="352" x2="216" y2="336"
id="0"
style="stroke:black;stroke-width:1.000000;stroke-opacity:0" />


<line
x1="294" y1="395" x2="322" y2="416"
id="reactome_R-HSA-1482545_LEFT_TO_RIGHT-output--to--SmallMolecule_90cc287517f509b58421a6fd763a777b"
style="stroke:black;stroke-width:1.000000;stroke-opacity:0" />


<polygon
points = "322,416 313.2,411.6 313.2,420.4"
id="line"
style="fill:black; stroke:#000000; stroke-width:1"
transform = "rotate(36.869898 322.000000 416.000000)"
/>


<path d="M176.000000 235.000000 C 184.000000 259.000000, 198.000000 303.000000,204.000000 321.000000" stroke="black"  fill="transparent"/>

<line
x1="184" y1="259" x2="176" y2="235"
id="0"
style="stroke:black;stroke-width:1.000000;stroke-opacity:0" />


<line
x1="198" y1="303" x2="204" y2="321"
id="Protein_dd585ab895aa54f592b0f169c4d85f62--to--reactome_R-HSA-1482545_LEFT_TO_RIGHT"
style="stroke:black;stroke-width:1.000000;stroke-opacity:0" />


<ellipse
rx="4.400000"
ry="4.400000"
cx="202.608598"
cy="316.825793"
id="Protein_dd585ab895aa54f592b0f169c4d85f62--to--reactome_R-HSA-1482545_LEFT_TO_RIGHT"
style="fill:white;fill-opacity:0.800000;stroke:black;stroke-width:1.000000;stroke-opacity:1.000000" />


<path d="M144.000000 279.000000 C 168.000000 282.000000, 211.000000 288.000000,230.000000 291.000000" stroke="black"  fill="transparent"/>

<line
x1="211" y1="288" x2="230" y2="291"
id="0"
style="stroke:black;stroke-width:1.000000;stroke-opacity:0" />


<line
x1="168" y1="282" x2="144" y2="279"
id="reactome_R-HSA-1482571_LEFT_TO_RIGHT-output--to--SmallMolecule_8797939a5cd7184fef5a3fa69a37b38d"
style="stroke:black;stroke-width:1.000000;stroke-opacity:0" />


<polygon
points = "144,279 135.2,274.6 135.2,283.4"
id="line"
style="fill:black; stroke:#000000; stroke-width:1"
transform = "rotate(187.125016 144.000000 279.000000)"
/>


<path d="M144.000000 288.000000 C 160.000000 299.000000, 186.000000 316.000000,199.000000 324.000000" stroke="black"  fill="transparent"/>

<line
x1="186" y1="316" x2="199" y2="324"
id="0"
style="stroke:black;stroke-width:1.000000;stroke-opacity:0" />


<line
x1="160" y1="299" x2="144" y2="288"
id="reactome_R-HSA-1482545_LEFT_TO_RIGHT-output--to--SmallMolecule_8797939a5cd7184fef5a3fa69a37b38d"
style="stroke:black;stroke-width:1.000000;stroke-opacity:0" />


<polygon
points = "144,288 135.2,283.6 135.2,292.4"
id="line"
style="fill:black; stroke:#000000; stroke-width:1"
transform = "rotate(214.508523 144.000000 288.000000)"
/>


<path d="M351.000000 445.000000 C 368.000000 467.000000, 399.000000 506.000000,412.000000 524.000000" stroke="black"  fill="transparent"/>

<line
x1="368" y1="467" x2="351" y2="445"
id="0"
style="stroke:black;stroke-width:1.000000;stroke-opacity:0" />


<line
x1="399" y1="506" x2="412" y2="524"
id="SmallMolecule_90cc287517f509b58421a6fd763a777b--to--reactome_R-HSA-1483107_LEFT_TO_RIGHT-input"
style="stroke:black;stroke-width:1.000000;stroke-opacity:0" />



</svg>
