<?xml version="1.0" encoding="UTF-8"?>
<svg width="756.947564" height="590.199192"
xmlns="http://www.w3.org/2000/svg" xmlns:svg="http://www.w3.org/2000/svg"
>
<metadata id="metadata7">image/svg+xml</metadata>

<rect
width="326.947564"
height="267.199192"
rx="11.000000"
ry="11.000000"
x="100.000000"
y="198.000000"
id="endoplasmic_reticulum_quality_control_compartment"
style="fill:white;fill-opacity:0.900000;stroke:black;stroke-width:5.000000;stroke-opacity:1.000000" />


<text
x="263.473782"
y="190.000000"
id="endoplasmic_reticulum_quality_control_compartment"
style="font-size:24.000000px;text-anchor:middle;font-family:Arial,Helvetica;alignment-baseline:baseline;stroke.opacity:1;dominant-baseline:baseline"
fill="black"
>
compartment_1</text>


<rect
width="326.947564"
height="267.199192"
rx="11.000000"
ry="11.000000"
x="100.000000"
y="198.000000"
id="endoplasmic_reticulum_quality_control_compartment"
style="fill:white;fill-opacity:0.900000;stroke:black;stroke-width:5.000000;stroke-opacity:1.000000" />


<text
x="263.473782"
y="190.000000"
id="endoplasmic_reticulum_quality_control_compartment"
style="font-size:24.000000px;text-anchor:middle;font-family:Arial,Helvetica;alignment-baseline:baseline;stroke.opacity:1;dominant-baseline:baseline"
fill="black"
>
compartment_1</text>

NULL
NULL
NULL
NULL
NULL
NULL
NULL
NULL


<path
d="M 334.947563677519 270.905514472441 334.947563677519 359.655514472441 340.447563677519 365.155514472441 410.447563677519 365.155514472441 415.947563677519 359.655514472441 415.947563677519 270.905514472441 410.447563677519 265.405514472441 340.447563677519 265.405514472441 Z"
id="Complex_702215116e2b0ba0c882b5bad29d7e71_member_of_Complex_70b16748e1f45b5ac0426f15c701d974"
style="fill:white;fill-opacity:0.600000;stroke-width:1;stroke:black;stroke-opacity:1.000000"
transform = "rotate(0.000000 0.000000 0.000000)"
/>


<text
x="375.447564"
y="257.405514"
id="Complex_702215116e2b0ba0c882b5bad29d7e71_member_of_Complex_70b16748e1f45b5ac0426f15c701d974"
style="font-size:18.000000px;text-anchor:middle;font-family:Arial,Helvetica;alignment-baseline:baseline;stroke.opacity:1;dominant-baseline:baseline"
fill="black"
>
complex_1</text>


<path
d="M 220.985659949338 232.5 220.985659949338 321.25 226.485659949338 326.75 296.485659949338 326.75 301.985659949338 321.25 301.985659949338 232.5 296.485659949338 227 226.485659949338 227 Z"
id="Complex_dc1905931725e6cb9aa6da3a711ccc44_member_of_Complex_70b16748e1f45b5ac0426f15c701d974"
style="fill:white;fill-opacity:0.600000;stroke-width:1;stroke:black;stroke-opacity:1.000000"
transform = "rotate(0.000000 0.000000 0.000000)"
/>


<text
x="261.485660"
y="219.000000"
id="Complex_dc1905931725e6cb9aa6da3a711ccc44_member_of_Complex_70b16748e1f45b5ac0426f15c701d974"
style="font-size:18.000000px;text-anchor:middle;font-family:Arial,Helvetica;alignment-baseline:baseline;stroke.opacity:1;dominant-baseline:baseline"
fill="black"
>
complex_2</text>




<ellipse
rx="35.000000"
ry="20.000000"
cx="375.447564"
cy="290.905514"
id="PhysicalEntity_25b98386e62c0eb7ff8ebcf4e2bb88b4_Complex_702215116e2b0ba0c882b5bad29d7e71_member_of_Complex_70b16748e1f45b5ac0426f15c701d974"
style="fill:#D96F6F;fill-opacity:0.600000;stroke:black;stroke-width:1.000000;stroke-opacity:0.000000" />


<path
d="M 357.947563677519 308.22602254813 A 35 20 1 1 0 357.947563677519 273.585006396752"
id="PhysicalEntity_25b98386e62c0eb7ff8ebcf4e2bb88b4_Complex_702215116e2b0ba0c882b5bad29d7e71_member_of_Complex_70b16748e1f45b5ac0426f15c701d974"
style="fill:#03FE03;fill-opacity:0.600000;stroke-width:1;stroke:black;stroke-opacity:0.000000"
transform = "rotate(0.000000 0.000000 0.000000)"
/>


<path
d="M 375.447563677519 310.905514472441 A 35 20 1 1 0 375.447563677519 270.905514472441"
id="PhysicalEntity_25b98386e62c0eb7ff8ebcf4e2bb88b4_Complex_702215116e2b0ba0c882b5bad29d7e71_member_of_Complex_70b16748e1f45b5ac0426f15c701d974"
style="fill:white;fill-opacity:0.600000;stroke-width:1;stroke:black;stroke-opacity:0.000000"
transform = "rotate(0.000000 0.000000 0.000000)"
/>


<path
d="M 375.447563677519 310.905514472441 A 35 20 1 1 0 375.447563677519 270.905514472441"
id="PhysicalEntity_25b98386e62c0eb7ff8ebcf4e2bb88b4_Complex_702215116e2b0ba0c882b5bad29d7e71_member_of_Complex_70b16748e1f45b5ac0426f15c701d974"
style="fill:#7BD57B;fill-opacity:0.600000;stroke-width:1;stroke:black;stroke-opacity:0.000000"
transform = "rotate(0.000000 0.000000 0.000000)"
/>


<path
d="M 392.947563677519 308.22602254813 A 35 20 1 0 0 392.947563677519 273.585006396752"
id="PhysicalEntity_25b98386e62c0eb7ff8ebcf4e2bb88b4_Complex_702215116e2b0ba0c882b5bad29d7e71_member_of_Complex_70b16748e1f45b5ac0426f15c701d974"
style="fill:white;fill-opacity:0.600000;stroke-width:1;stroke:black;stroke-opacity:0.000000"
transform = "rotate(0.000000 0.000000 0.000000)"
/>


<path
d="M 392.947563677519 308.22602254813 A 35 20 1 0 0 392.947563677519 273.585006396752"
id="PhysicalEntity_25b98386e62c0eb7ff8ebcf4e2bb88b4_Complex_702215116e2b0ba0c882b5bad29d7e71_member_of_Complex_70b16748e1f45b5ac0426f15c701d974"
style="fill:#F91111;fill-opacity:0.600000;stroke-width:1;stroke:black;stroke-opacity:0.000000"
transform = "rotate(0.000000 0.000000 0.000000)"
/>


<path
d="M 410.447563677519 290.905514472441 A 35 20 1 0 0 410.447563677519 290.905514472441"
id="PhysicalEntity_25b98386e62c0eb7ff8ebcf4e2bb88b4_Complex_702215116e2b0ba0c882b5bad29d7e71_member_of_Complex_70b16748e1f45b5ac0426f15c701d974"
style="fill:white;fill-opacity:0.600000;stroke-width:1;stroke:black;stroke-opacity:0.000000"
transform = "rotate(0.000000 0.000000 0.000000)"
/>


<ellipse
rx="35.000000"
ry="20.000000"
cx="375.447564"
cy="290.905514"
id="PhysicalEntity_25b98386e62c0eb7ff8ebcf4e2bb88b4_Complex_702215116e2b0ba0c882b5bad29d7e71_member_of_Complex_70b16748e1f45b5ac0426f15c701d974"
style="fill:white;fill-opacity:0.000000;stroke:black;stroke-width:1.000000;stroke-opacity:1.000000" />



<text
x="375.447564"
y="287.905514"
id="PhysicalEntity_25b98386e62c0eb7ff8ebcf4e2bb88b4_Complex_702215116e2b0ba0c882b5bad29d7e71_member_of_Complex_70b16748e1f45b5ac0426f15c701d974"
style="font-size:18.000000px;text-anchor:middle;font-family:Arial,Helvetica;alignment-baseline:baseline;stroke.opacity:1;dominant-baseline:baseline"
fill="black"
>
unfolde-</text>


<text
x="375.447564"
y="305.905514"
id="PhysicalEntity_25b98386e62c0eb7ff8ebcf4e2bb88b4_Complex_702215116e2b0ba0c882b5bad29d7e71_member_of_Complex_70b16748e1f45b5ac0426f15c701d974"
style="font-size:18.000000px;text-anchor:middle;font-family:Arial,Helvetica;alignment-baseline:baseline;stroke.opacity:1;dominant-baseline:baseline"
fill="black"
>
d protein</text>



<ellipse
rx="35.000000"
ry="20.000000"
cx="375.447564"
cy="339.655514"
id="SmallMolecule_ec59207ab1de70666e9543050c681bf8_Complex_702215116e2b0ba0c882b5bad29d7e71_member_of_Complex_70b16748e1f45b5ac0426f15c701d974"
style="fill:#E3E353;fill-opacity:0.600000;stroke:black;stroke-width:1.000000;stroke-opacity:0.000000" />


<path
d="M 357.947563677519 356.97602254813 A 35 20 1 1 0 357.947563677519 322.335006396752"
id="SmallMolecule_ec59207ab1de70666e9543050c681bf8_Complex_702215116e2b0ba0c882b5bad29d7e71_member_of_Complex_70b16748e1f45b5ac0426f15c701d974"
style="fill:#0000FF;fill-opacity:0.600000;stroke-width:1;stroke:black;stroke-opacity:0.000000"
transform = "rotate(0.000000 0.000000 0.000000)"
/>


<path
d="M 375.447563677519 359.655514472441 A 35 20 1 1 0 375.447563677519 319.655514472441"
id="SmallMolecule_ec59207ab1de70666e9543050c681bf8_Complex_702215116e2b0ba0c882b5bad29d7e71_member_of_Complex_70b16748e1f45b5ac0426f15c701d974"
style="fill:white;fill-opacity:0.600000;stroke-width:1;stroke:black;stroke-opacity:0.000000"
transform = "rotate(0.000000 0.000000 0.000000)"
/>


<path
d="M 375.447563677519 359.655514472441 A 35 20 1 1 0 375.447563677519 319.655514472441"
id="SmallMolecule_ec59207ab1de70666e9543050c681bf8_Complex_702215116e2b0ba0c882b5bad29d7e71_member_of_Complex_70b16748e1f45b5ac0426f15c701d974"
style="fill:#8484D2;fill-opacity:0.600000;stroke-width:1;stroke:black;stroke-opacity:0.000000"
transform = "rotate(0.000000 0.000000 0.000000)"
/>


<path
d="M 392.947563677519 356.97602254813 A 35 20 1 0 0 392.947563677519 322.335006396752"
id="SmallMolecule_ec59207ab1de70666e9543050c681bf8_Complex_702215116e2b0ba0c882b5bad29d7e71_member_of_Complex_70b16748e1f45b5ac0426f15c701d974"
style="fill:white;fill-opacity:0.600000;stroke-width:1;stroke:black;stroke-opacity:0.000000"
transform = "rotate(0.000000 0.000000 0.000000)"
/>


<path
d="M 392.947563677519 356.97602254813 A 35 20 1 0 0 392.947563677519 322.335006396752"
id="SmallMolecule_ec59207ab1de70666e9543050c681bf8_Complex_702215116e2b0ba0c882b5bad29d7e71_member_of_Complex_70b16748e1f45b5ac0426f15c701d974"
style="fill:#FFFF00;fill-opacity:0.600000;stroke-width:1;stroke:black;stroke-opacity:0.000000"
transform = "rotate(0.000000 0.000000 0.000000)"
/>


<path
d="M 410.447563677519 339.655514472441 A 35 20 1 0 0 410.447563677519 339.655514472441"
id="SmallMolecule_ec59207ab1de70666e9543050c681bf8_Complex_702215116e2b0ba0c882b5bad29d7e71_member_of_Complex_70b16748e1f45b5ac0426f15c701d974"
style="fill:white;fill-opacity:0.600000;stroke-width:1;stroke:black;stroke-opacity:0.000000"
transform = "rotate(0.000000 0.000000 0.000000)"
/>


<ellipse
rx="35.000000"
ry="20.000000"
cx="375.447564"
cy="339.655514"
id="SmallMolecule_ec59207ab1de70666e9543050c681bf8_Complex_702215116e2b0ba0c882b5bad29d7e71_member_of_Complex_70b16748e1f45b5ac0426f15c701d974"
style="fill:white;fill-opacity:0.000000;stroke:black;stroke-width:1.000000;stroke-opacity:1.000000" />



<text
x="375.447564"
y="336.655514"
id="SmallMolecule_ec59207ab1de70666e9543050c681bf8_Complex_702215116e2b0ba0c882b5bad29d7e71_member_of_Complex_70b16748e1f45b5ac0426f15c701d974"
style="font-size:18.000000px;text-anchor:middle;font-family:Arial,Helvetica;alignment-baseline:baseline;stroke.opacity:1;dominant-baseline:baseline"
fill="black"
>
(GlcNAc-</text>


<text
x="375.447564"
y="354.655514"
id="SmallMolecule_ec59207ab1de70666e9543050c681bf8_Complex_702215116e2b0ba0c882b5bad29d7e71_member_of_Complex_70b16748e1f45b5ac0426f15c701d974"
style="font-size:18.000000px;text-anchor:middle;font-family:Arial,Helvetica;alignment-baseline:baseline;stroke.opacity:1;dominant-baseline:baseline"
fill="black"
>
)2 (Man)9</text>



<ellipse
rx="35.000000"
ry="20.000000"
cx="261.485660"
cy="252.500000"
id="PhysicalEntity_25b98386e62c0eb7ff8ebcf4e2bb88b4_Complex_dc1905931725e6cb9aa6da3a711ccc44_member_of_Complex_70b16748e1f45b5ac0426f15c701d974"
style="fill:#FF0000;fill-opacity:0.600000;stroke:black;stroke-width:1.000000;stroke-opacity:0.000000" />


<path
d="M 243.985659949338 269.820508075689 A 35 20 1 1 0 243.985659949338 235.179491924311"
id="PhysicalEntity_25b98386e62c0eb7ff8ebcf4e2bb88b4_Complex_dc1905931725e6cb9aa6da3a711ccc44_member_of_Complex_70b16748e1f45b5ac0426f15c701d974"
style="fill:#E35353;fill-opacity:0.600000;stroke-width:1;stroke:black;stroke-opacity:0.000000"
transform = "rotate(0.000000 0.000000 0.000000)"
/>


<path
d="M 261.485659949338 272.5 A 35 20 1 1 0 261.485659949338 232.5"
id="PhysicalEntity_25b98386e62c0eb7ff8ebcf4e2bb88b4_Complex_dc1905931725e6cb9aa6da3a711ccc44_member_of_Complex_70b16748e1f45b5ac0426f15c701d974"
style="fill:white;fill-opacity:0.600000;stroke-width:1;stroke:black;stroke-opacity:0.000000"
transform = "rotate(0.000000 0.000000 0.000000)"
/>


<path
d="M 261.485659949338 272.5 A 35 20 1 1 0 261.485659949338 232.5"
id="PhysicalEntity_25b98386e62c0eb7ff8ebcf4e2bb88b4_Complex_dc1905931725e6cb9aa6da3a711ccc44_member_of_Complex_70b16748e1f45b5ac0426f15c701d974"
style="fill:#F61C1C;fill-opacity:0.600000;stroke-width:1;stroke:black;stroke-opacity:0.000000"
transform = "rotate(0.000000 0.000000 0.000000)"
/>


<path
d="M 278.985659949338 269.820508075689 A 35 20 1 0 0 278.985659949338 235.179491924311"
id="PhysicalEntity_25b98386e62c0eb7ff8ebcf4e2bb88b4_Complex_dc1905931725e6cb9aa6da3a711ccc44_member_of_Complex_70b16748e1f45b5ac0426f15c701d974"
style="fill:white;fill-opacity:0.600000;stroke-width:1;stroke:black;stroke-opacity:0.000000"
transform = "rotate(0.000000 0.000000 0.000000)"
/>


<path
d="M 278.985659949338 269.820508075689 A 35 20 1 0 0 278.985659949338 235.179491924311"
id="PhysicalEntity_25b98386e62c0eb7ff8ebcf4e2bb88b4_Complex_dc1905931725e6cb9aa6da3a711ccc44_member_of_Complex_70b16748e1f45b5ac0426f15c701d974"
style="fill:#CD9393;fill-opacity:0.600000;stroke-width:1;stroke:black;stroke-opacity:0.000000"
transform = "rotate(0.000000 0.000000 0.000000)"
/>


<path
d="M 296.485659949338 252.5 A 35 20 1 0 0 296.485659949338 252.5"
id="PhysicalEntity_25b98386e62c0eb7ff8ebcf4e2bb88b4_Complex_dc1905931725e6cb9aa6da3a711ccc44_member_of_Complex_70b16748e1f45b5ac0426f15c701d974"
style="fill:white;fill-opacity:0.600000;stroke-width:1;stroke:black;stroke-opacity:0.000000"
transform = "rotate(0.000000 0.000000 0.000000)"
/>


<ellipse
rx="35.000000"
ry="20.000000"
cx="261.485660"
cy="252.500000"
id="PhysicalEntity_25b98386e62c0eb7ff8ebcf4e2bb88b4_Complex_dc1905931725e6cb9aa6da3a711ccc44_member_of_Complex_70b16748e1f45b5ac0426f15c701d974"
style="fill:white;fill-opacity:0.000000;stroke:black;stroke-width:1.000000;stroke-opacity:1.000000" />



<text
x="261.485660"
y="249.500000"
id="PhysicalEntity_25b98386e62c0eb7ff8ebcf4e2bb88b4_Complex_dc1905931725e6cb9aa6da3a711ccc44_member_of_Complex_70b16748e1f45b5ac0426f15c701d974"
style="font-size:18.000000px;text-anchor:middle;font-family:Arial,Helvetica;alignment-baseline:baseline;stroke.opacity:1;dominant-baseline:baseline"
fill="black"
>
unfolde-</text>


<text
x="261.485660"
y="267.500000"
id="PhysicalEntity_25b98386e62c0eb7ff8ebcf4e2bb88b4_Complex_dc1905931725e6cb9aa6da3a711ccc44_member_of_Complex_70b16748e1f45b5ac0426f15c701d974"
style="font-size:18.000000px;text-anchor:middle;font-family:Arial,Helvetica;alignment-baseline:baseline;stroke.opacity:1;dominant-baseline:baseline"
fill="black"
>
d protein</text>



<ellipse
rx="35.000000"
ry="20.000000"
cx="261.485660"
cy="301.250000"
id="SmallMolecule_382c601048495ea029a1bc44d4166ba4_Complex_dc1905931725e6cb9aa6da3a711ccc44_member_of_Complex_70b16748e1f45b5ac0426f15c701d974"
style="fill:#D4D47D;fill-opacity:0.600000;stroke:black;stroke-width:1.000000;stroke-opacity:0.000000" />


<path
d="M 243.985659949338 318.570508075689 A 35 20 1 1 0 243.985659949338 283.929491924311"
id="SmallMolecule_382c601048495ea029a1bc44d4166ba4_Complex_dc1905931725e6cb9aa6da3a711ccc44_member_of_Complex_70b16748e1f45b5ac0426f15c701d974"
style="fill:#F1F129;fill-opacity:0.600000;stroke-width:1;stroke:black;stroke-opacity:0.000000"
transform = "rotate(0.000000 0.000000 0.000000)"
/>


<path
d="M 261.485659949338 321.25 A 35 20 1 1 0 261.485659949338 281.25"
id="SmallMolecule_382c601048495ea029a1bc44d4166ba4_Complex_dc1905931725e6cb9aa6da3a711ccc44_member_of_Complex_70b16748e1f45b5ac0426f15c701d974"
style="fill:white;fill-opacity:0.600000;stroke-width:1;stroke:black;stroke-opacity:0.000000"
transform = "rotate(0.000000 0.000000 0.000000)"
/>


<path
d="M 261.485659949338 321.25 A 35 20 1 1 0 261.485659949338 281.25"
id="SmallMolecule_382c601048495ea029a1bc44d4166ba4_Complex_dc1905931725e6cb9aa6da3a711ccc44_member_of_Complex_70b16748e1f45b5ac0426f15c701d974"
style="fill:#E6E649;fill-opacity:0.600000;stroke-width:1;stroke:black;stroke-opacity:0.000000"
transform = "rotate(0.000000 0.000000 0.000000)"
/>


<path
d="M 278.985659949338 318.570508075689 A 35 20 1 0 0 278.985659949338 283.929491924311"
id="SmallMolecule_382c601048495ea029a1bc44d4166ba4_Complex_dc1905931725e6cb9aa6da3a711ccc44_member_of_Complex_70b16748e1f45b5ac0426f15c701d974"
style="fill:white;fill-opacity:0.600000;stroke-width:1;stroke:black;stroke-opacity:0.000000"
transform = "rotate(0.000000 0.000000 0.000000)"
/>


<path
d="M 278.985659949338 318.570508075689 A 35 20 1 0 0 278.985659949338 283.929491924311"
id="SmallMolecule_382c601048495ea029a1bc44d4166ba4_Complex_dc1905931725e6cb9aa6da3a711ccc44_member_of_Complex_70b16748e1f45b5ac0426f15c701d974"
style="fill:#9797CB;fill-opacity:0.600000;stroke-width:1;stroke:black;stroke-opacity:0.000000"
transform = "rotate(0.000000 0.000000 0.000000)"
/>


<path
d="M 296.485659949338 301.25 A 35 20 1 0 0 296.485659949338 301.25"
id="SmallMolecule_382c601048495ea029a1bc44d4166ba4_Complex_dc1905931725e6cb9aa6da3a711ccc44_member_of_Complex_70b16748e1f45b5ac0426f15c701d974"
style="fill:white;fill-opacity:0.600000;stroke-width:1;stroke:black;stroke-opacity:0.000000"
transform = "rotate(0.000000 0.000000 0.000000)"
/>


<ellipse
rx="35.000000"
ry="20.000000"
cx="261.485660"
cy="301.250000"
id="SmallMolecule_382c601048495ea029a1bc44d4166ba4_Complex_dc1905931725e6cb9aa6da3a711ccc44_member_of_Complex_70b16748e1f45b5ac0426f15c701d974"
style="fill:white;fill-opacity:0.000000;stroke:black;stroke-width:1.000000;stroke-opacity:1.000000" />



<text
x="261.485660"
y="298.250000"
id="SmallMolecule_382c601048495ea029a1bc44d4166ba4_Complex_dc1905931725e6cb9aa6da3a711ccc44_member_of_Complex_70b16748e1f45b5ac0426f15c701d974"
style="font-size:18.000000px;text-anchor:middle;font-family:Arial,Helvetica;alignment-baseline:baseline;stroke.opacity:1;dominant-baseline:baseline"
fill="black"
>
(GlcNAc-</text>


<text
x="261.485660"
y="316.250000"
id="SmallMolecule_382c601048495ea029a1bc44d4166ba4_Complex_dc1905931725e6cb9aa6da3a711ccc44_member_of_Complex_70b16748e1f45b5ac0426f15c701d974"
style="font-size:18.000000px;text-anchor:middle;font-family:Arial,Helvetica;alignment-baseline:baseline;stroke.opacity:1;dominant-baseline:baseline"
fill="black"
>
)2 (Man)8a</text>


<ellipse
rx="13.333333"
ry="13.333333"
cx="292.257142"
cy="440.865858"
id="Complex_70b16748e1f45b5ac0426f15c701d974"
style="fill:white;fill-opacity:0.600000;stroke:black;stroke-width:1.000000;stroke-opacity:1.000000" />



<text
x="292.257142"
y="444.865858"
id="Complex_70b16748e1f45b5ac0426f15c701d974"
style="font-size:12.000000px;text-anchor:middle;font-family:Arial,Helvetica;alignment-baseline:baseline;stroke.opacity:1;dominant-baseline:baseline"
fill="black"
>
OR</text>


<rect
width="26.666667"
height="26.666667"
rx="0.000000"
ry="0.000000"
x="111.000000"
y="366.917054"
id="reactome_R-HSA-4793949_LEFT_TO_RIGHT"
style="fill:white;fill-opacity:0.600000;stroke:black;stroke-width:1.000000;stroke-opacity:1.000000" />





<path d="M342.000000 365.000000 C 327.000000 387.000000, 311.000000 412.000000,301.000000 427.000000" stroke="black"  fill="transparent"/>

<line
x1="327" y1="387" x2="342" y2="365"
id="0"
style="stroke:black;stroke-width:1.000000;stroke-opacity:0" />


<line
x1="311" y1="412" x2="301" y2="427"
id="Complex_702215116e2b0ba0c882b5bad29d7e71_member_of_Complex_70b16748e1f45b5ac0426f15c701d974--to--Complex_70b16748e1f45b5ac0426f15c701d974"
style="stroke:black;stroke-width:1.000000;stroke-opacity:0" />


<path d="M278.000000 436.000000 C 247.000000 424.000000, 169.000000 396.000000,137.000000 385.000000" stroke="black"  fill="transparent"/>

<line
x1="247" y1="424" x2="278" y2="436"
id="0"
style="stroke:black;stroke-width:1.000000;stroke-opacity:0" />


<line
x1="169" y1="396" x2="137" y2="385"
id="Complex_70b16748e1f45b5ac0426f15c701d974--to--reactome_R-HSA-4793949_LEFT_TO_RIGHT-input"
style="stroke:black;stroke-width:1.000000;stroke-opacity:0" />


<path d="M270.000000 326.000000 C 277.000000 361.000000, 285.000000 405.000000,289.000000 427.000000" stroke="black"  fill="transparent"/>

<line
x1="277" y1="361" x2="270" y2="326"
id="0"
style="stroke:black;stroke-width:1.000000;stroke-opacity:0" />


<line
x1="285" y1="405" x2="289" y2="427"
id="Complex_dc1905931725e6cb9aa6da3a711ccc44_member_of_Complex_70b16748e1f45b5ac0426f15c701d974--to--Complex_70b16748e1f45b5ac0426f15c701d974"
style="stroke:black;stroke-width:1.000000;stroke-opacity:0" />






<rect
width="2.485149"
height="21.428571"
rx="0.000000"
ry="0.000000"
x="425.462415"
y="61.500000"
id="col.pan"
style="fill:#FFFF00;fill-opacity:1.000000;stroke:black;stroke-width:0.000000;stroke-opacity:0.000000" />


<rect
width="2.485149"
height="21.428571"
rx="0.000000"
ry="0.000000"
x="423.977267"
y="61.500000"
id="col.pan"
style="fill:#FEFE04;fill-opacity:1.000000;stroke:black;stroke-width:0.000000;stroke-opacity:0.000000" />


<rect
width="2.485149"
height="21.428571"
rx="0.000000"
ry="0.000000"
x="422.492118"
y="61.500000"
id="col.pan"
style="fill:#FCFC08;fill-opacity:1.000000;stroke:black;stroke-width:0.000000;stroke-opacity:0.000000" />


<rect
width="2.485149"
height="21.428571"
rx="0.000000"
ry="0.000000"
x="421.006970"
y="61.500000"
id="col.pan"
style="fill:#FBFB0B;fill-opacity:1.000000;stroke:black;stroke-width:0.000000;stroke-opacity:0.000000" />


<rect
width="2.485149"
height="21.428571"
rx="0.000000"
ry="0.000000"
x="419.521821"
y="61.500000"
id="col.pan"
style="fill:#FAFA0F;fill-opacity:1.000000;stroke:black;stroke-width:0.000000;stroke-opacity:0.000000" />


<rect
width="2.485149"
height="21.428571"
rx="0.000000"
ry="0.000000"
x="418.036673"
y="61.500000"
id="col.pan"
style="fill:#F9F913;fill-opacity:1.000000;stroke:black;stroke-width:0.000000;stroke-opacity:0.000000" />


<rect
width="2.485149"
height="21.428571"
rx="0.000000"
ry="0.000000"
x="416.551524"
y="61.500000"
id="col.pan"
style="fill:#F7F717;fill-opacity:1.000000;stroke:black;stroke-width:0.000000;stroke-opacity:0.000000" />


<rect
width="2.485149"
height="21.428571"
rx="0.000000"
ry="0.000000"
x="415.066376"
y="61.500000"
id="col.pan"
style="fill:#F6F61B;fill-opacity:1.000000;stroke:black;stroke-width:0.000000;stroke-opacity:0.000000" />


<rect
width="2.485149"
height="21.428571"
rx="0.000000"
ry="0.000000"
x="413.581227"
y="61.500000"
id="col.pan"
style="fill:#F5F51E;fill-opacity:1.000000;stroke:black;stroke-width:0.000000;stroke-opacity:0.000000" />


<rect
width="2.485149"
height="21.428571"
rx="0.000000"
ry="0.000000"
x="412.096079"
y="61.500000"
id="col.pan"
style="fill:#F3F322;fill-opacity:1.000000;stroke:black;stroke-width:0.000000;stroke-opacity:0.000000" />


<rect
width="2.485149"
height="21.428571"
rx="0.000000"
ry="0.000000"
x="410.610930"
y="61.500000"
id="col.pan"
style="fill:#F2F226;fill-opacity:1.000000;stroke:black;stroke-width:0.000000;stroke-opacity:0.000000" />


<rect
width="2.485149"
height="21.428571"
rx="0.000000"
ry="0.000000"
x="409.125781"
y="61.500000"
id="col.pan"
style="fill:#F1F12A;fill-opacity:1.000000;stroke:black;stroke-width:0.000000;stroke-opacity:0.000000" />


<rect
width="2.485149"
height="21.428571"
rx="0.000000"
ry="0.000000"
x="407.640633"
y="61.500000"
id="col.pan"
style="fill:#EFEF2E;fill-opacity:1.000000;stroke:black;stroke-width:0.000000;stroke-opacity:0.000000" />


<rect
width="2.485149"
height="21.428571"
rx="0.000000"
ry="0.000000"
x="406.155484"
y="61.500000"
id="col.pan"
style="fill:#EEEE31;fill-opacity:1.000000;stroke:black;stroke-width:0.000000;stroke-opacity:0.000000" />


<rect
width="2.485149"
height="21.428571"
rx="0.000000"
ry="0.000000"
x="404.670336"
y="61.500000"
id="col.pan"
style="fill:#EDED35;fill-opacity:1.000000;stroke:black;stroke-width:0.000000;stroke-opacity:0.000000" />


<rect
width="2.485149"
height="21.428571"
rx="0.000000"
ry="0.000000"
x="403.185187"
y="61.500000"
id="col.pan"
style="fill:#ECEC39;fill-opacity:1.000000;stroke:black;stroke-width:0.000000;stroke-opacity:0.000000" />


<rect
width="2.485149"
height="21.428571"
rx="0.000000"
ry="0.000000"
x="401.700039"
y="61.500000"
id="col.pan"
style="fill:#EAEA3D;fill-opacity:1.000000;stroke:black;stroke-width:0.000000;stroke-opacity:0.000000" />


<rect
width="2.485149"
height="21.428571"
rx="0.000000"
ry="0.000000"
x="400.214890"
y="61.500000"
id="col.pan"
style="fill:#E9E941;fill-opacity:1.000000;stroke:black;stroke-width:0.000000;stroke-opacity:0.000000" />


<rect
width="2.485149"
height="21.428571"
rx="0.000000"
ry="0.000000"
x="398.729742"
y="61.500000"
id="col.pan"
style="fill:#E8E844;fill-opacity:1.000000;stroke:black;stroke-width:0.000000;stroke-opacity:0.000000" />


<rect
width="2.485149"
height="21.428571"
rx="0.000000"
ry="0.000000"
x="397.244593"
y="61.500000"
id="col.pan"
style="fill:#E6E648;fill-opacity:1.000000;stroke:black;stroke-width:0.000000;stroke-opacity:0.000000" />


<rect
width="2.485149"
height="21.428571"
rx="0.000000"
ry="0.000000"
x="395.759445"
y="61.500000"
id="col.pan"
style="fill:#E5E54C;fill-opacity:1.000000;stroke:black;stroke-width:0.000000;stroke-opacity:0.000000" />


<rect
width="2.485149"
height="21.428571"
rx="0.000000"
ry="0.000000"
x="394.274296"
y="61.500000"
id="col.pan"
style="fill:#E4E450;fill-opacity:1.000000;stroke:black;stroke-width:0.000000;stroke-opacity:0.000000" />


<rect
width="2.485149"
height="21.428571"
rx="0.000000"
ry="0.000000"
x="392.789148"
y="61.500000"
id="col.pan"
style="fill:#E2E254;fill-opacity:1.000000;stroke:black;stroke-width:0.000000;stroke-opacity:0.000000" />


<rect
width="2.485149"
height="21.428571"
rx="0.000000"
ry="0.000000"
x="391.303999"
y="61.500000"
id="col.pan"
style="fill:#E1E157;fill-opacity:1.000000;stroke:black;stroke-width:0.000000;stroke-opacity:0.000000" />


<rect
width="2.485149"
height="21.428571"
rx="0.000000"
ry="0.000000"
x="389.818851"
y="61.500000"
id="col.pan"
style="fill:#E0E05B;fill-opacity:1.000000;stroke:black;stroke-width:0.000000;stroke-opacity:0.000000" />


<rect
width="2.485149"
height="21.428571"
rx="0.000000"
ry="0.000000"
x="388.333702"
y="61.500000"
id="col.pan"
style="fill:#DFDF5F;fill-opacity:1.000000;stroke:black;stroke-width:0.000000;stroke-opacity:0.000000" />


<rect
width="2.485149"
height="21.428571"
rx="0.000000"
ry="0.000000"
x="386.848554"
y="61.500000"
id="col.pan"
style="fill:#DDDD63;fill-opacity:1.000000;stroke:black;stroke-width:0.000000;stroke-opacity:0.000000" />


<rect
width="2.485149"
height="21.428571"
rx="0.000000"
ry="0.000000"
x="385.363405"
y="61.500000"
id="col.pan"
style="fill:#DCDC67;fill-opacity:1.000000;stroke:black;stroke-width:0.000000;stroke-opacity:0.000000" />


<rect
width="2.485149"
height="21.428571"
rx="0.000000"
ry="0.000000"
x="383.878257"
y="61.500000"
id="col.pan"
style="fill:#DBDB6A;fill-opacity:1.000000;stroke:black;stroke-width:0.000000;stroke-opacity:0.000000" />


<rect
width="2.485149"
height="21.428571"
rx="0.000000"
ry="0.000000"
x="382.393108"
y="61.500000"
id="col.pan"
style="fill:#D9D96E;fill-opacity:1.000000;stroke:black;stroke-width:0.000000;stroke-opacity:0.000000" />


<rect
width="2.485149"
height="21.428571"
rx="0.000000"
ry="0.000000"
x="380.907960"
y="61.500000"
id="col.pan"
style="fill:#D8D872;fill-opacity:1.000000;stroke:black;stroke-width:0.000000;stroke-opacity:0.000000" />


<rect
width="2.485149"
height="21.428571"
rx="0.000000"
ry="0.000000"
x="379.422811"
y="61.500000"
id="col.pan"
style="fill:#D7D776;fill-opacity:1.000000;stroke:black;stroke-width:0.000000;stroke-opacity:0.000000" />


<rect
width="2.485149"
height="21.428571"
rx="0.000000"
ry="0.000000"
x="377.937663"
y="61.500000"
id="col.pan"
style="fill:#D5D57A;fill-opacity:1.000000;stroke:black;stroke-width:0.000000;stroke-opacity:0.000000" />


<rect
width="2.485149"
height="21.428571"
rx="0.000000"
ry="0.000000"
x="376.452514"
y="61.500000"
id="col.pan"
style="fill:#D4D47D;fill-opacity:1.000000;stroke:black;stroke-width:0.000000;stroke-opacity:0.000000" />


<rect
width="2.485149"
height="21.428571"
rx="0.000000"
ry="0.000000"
x="374.967366"
y="61.500000"
id="col.pan"
style="fill:#D3D381;fill-opacity:1.000000;stroke:black;stroke-width:0.000000;stroke-opacity:0.000000" />


<rect
width="2.485149"
height="21.428571"
rx="0.000000"
ry="0.000000"
x="373.482217"
y="61.500000"
id="col.pan"
style="fill:#D2D285;fill-opacity:1.000000;stroke:black;stroke-width:0.000000;stroke-opacity:0.000000" />


<rect
width="2.485149"
height="21.428571"
rx="0.000000"
ry="0.000000"
x="371.997069"
y="61.500000"
id="col.pan"
style="fill:#D0D089;fill-opacity:1.000000;stroke:black;stroke-width:0.000000;stroke-opacity:0.000000" />


<rect
width="2.485149"
height="21.428571"
rx="0.000000"
ry="0.000000"
x="370.511920"
y="61.500000"
id="col.pan"
style="fill:#CFCF8D;fill-opacity:1.000000;stroke:black;stroke-width:0.000000;stroke-opacity:0.000000" />


<rect
width="2.485149"
height="21.428571"
rx="0.000000"
ry="0.000000"
x="369.026772"
y="61.500000"
id="col.pan"
style="fill:#CECE90;fill-opacity:1.000000;stroke:black;stroke-width:0.000000;stroke-opacity:0.000000" />


<rect
width="2.485149"
height="21.428571"
rx="0.000000"
ry="0.000000"
x="367.541623"
y="61.500000"
id="col.pan"
style="fill:#CCCC94;fill-opacity:1.000000;stroke:black;stroke-width:0.000000;stroke-opacity:0.000000" />


<rect
width="2.485149"
height="21.428571"
rx="0.000000"
ry="0.000000"
x="366.056475"
y="61.500000"
id="col.pan"
style="fill:#CBCB98;fill-opacity:1.000000;stroke:black;stroke-width:0.000000;stroke-opacity:0.000000" />


<rect
width="2.485149"
height="21.428571"
rx="0.000000"
ry="0.000000"
x="364.571326"
y="61.500000"
id="col.pan"
style="fill:#CACA9C;fill-opacity:1.000000;stroke:black;stroke-width:0.000000;stroke-opacity:0.000000" />


<rect
width="2.485149"
height="21.428571"
rx="0.000000"
ry="0.000000"
x="363.086178"
y="61.500000"
id="col.pan"
style="fill:#C8C8A0;fill-opacity:1.000000;stroke:black;stroke-width:0.000000;stroke-opacity:0.000000" />


<rect
width="2.485149"
height="21.428571"
rx="0.000000"
ry="0.000000"
x="361.601029"
y="61.500000"
id="col.pan"
style="fill:#C7C7A3;fill-opacity:1.000000;stroke:black;stroke-width:0.000000;stroke-opacity:0.000000" />


<rect
width="2.485149"
height="21.428571"
rx="0.000000"
ry="0.000000"
x="360.115881"
y="61.500000"
id="col.pan"
style="fill:#C6C6A7;fill-opacity:1.000000;stroke:black;stroke-width:0.000000;stroke-opacity:0.000000" />


<rect
width="2.485149"
height="21.428571"
rx="0.000000"
ry="0.000000"
x="358.630732"
y="61.500000"
id="col.pan"
style="fill:#C5C5AB;fill-opacity:1.000000;stroke:black;stroke-width:0.000000;stroke-opacity:0.000000" />


<rect
width="2.485149"
height="21.428571"
rx="0.000000"
ry="0.000000"
x="357.145583"
y="61.500000"
id="col.pan"
style="fill:#C3C3AF;fill-opacity:1.000000;stroke:black;stroke-width:0.000000;stroke-opacity:0.000000" />


<rect
width="2.485149"
height="21.428571"
rx="0.000000"
ry="0.000000"
x="355.660435"
y="61.500000"
id="col.pan"
style="fill:#C2C2B3;fill-opacity:1.000000;stroke:black;stroke-width:0.000000;stroke-opacity:0.000000" />


<rect
width="2.485149"
height="21.428571"
rx="0.000000"
ry="0.000000"
x="354.175286"
y="61.500000"
id="col.pan"
style="fill:#C1C1B6;fill-opacity:1.000000;stroke:black;stroke-width:0.000000;stroke-opacity:0.000000" />


<rect
width="2.485149"
height="21.428571"
rx="0.000000"
ry="0.000000"
x="352.690138"
y="61.500000"
id="col.pan"
style="fill:#BFBFBA;fill-opacity:1.000000;stroke:black;stroke-width:0.000000;stroke-opacity:0.000000" />


<rect
width="2.485149"
height="21.428571"
rx="0.000000"
ry="0.000000"
x="351.204989"
y="61.500000"
id="col.pan"
style="fill:#BEBEBE;fill-opacity:1.000000;stroke:black;stroke-width:0.000000;stroke-opacity:0.000000" />


<rect
width="2.485149"
height="21.428571"
rx="0.000000"
ry="0.000000"
x="349.719841"
y="61.500000"
id="col.pan"
style="fill:#BABABF;fill-opacity:1.000000;stroke:black;stroke-width:0.000000;stroke-opacity:0.000000" />


<rect
width="2.485149"
height="21.428571"
rx="0.000000"
ry="0.000000"
x="348.234692"
y="61.500000"
id="col.pan"
style="fill:#B6B6C1;fill-opacity:1.000000;stroke:black;stroke-width:0.000000;stroke-opacity:0.000000" />


<rect
width="2.485149"
height="21.428571"
rx="0.000000"
ry="0.000000"
x="346.749544"
y="61.500000"
id="col.pan"
style="fill:#B3B3C2;fill-opacity:1.000000;stroke:black;stroke-width:0.000000;stroke-opacity:0.000000" />


<rect
width="2.485149"
height="21.428571"
rx="0.000000"
ry="0.000000"
x="345.264395"
y="61.500000"
id="col.pan"
style="fill:#AFAFC3;fill-opacity:1.000000;stroke:black;stroke-width:0.000000;stroke-opacity:0.000000" />


<rect
width="2.485149"
height="21.428571"
rx="0.000000"
ry="0.000000"
x="343.779247"
y="61.500000"
id="col.pan"
style="fill:#ABABC5;fill-opacity:1.000000;stroke:black;stroke-width:0.000000;stroke-opacity:0.000000" />


<rect
width="2.485149"
height="21.428571"
rx="0.000000"
ry="0.000000"
x="342.294098"
y="61.500000"
id="col.pan"
style="fill:#A7A7C6;fill-opacity:1.000000;stroke:black;stroke-width:0.000000;stroke-opacity:0.000000" />


<rect
width="2.485149"
height="21.428571"
rx="0.000000"
ry="0.000000"
x="340.808950"
y="61.500000"
id="col.pan"
style="fill:#A3A3C7;fill-opacity:1.000000;stroke:black;stroke-width:0.000000;stroke-opacity:0.000000" />


<rect
width="2.485149"
height="21.428571"
rx="0.000000"
ry="0.000000"
x="339.323801"
y="61.500000"
id="col.pan"
style="fill:#A0A0C8;fill-opacity:1.000000;stroke:black;stroke-width:0.000000;stroke-opacity:0.000000" />


<rect
width="2.485149"
height="21.428571"
rx="0.000000"
ry="0.000000"
x="337.838653"
y="61.500000"
id="col.pan"
style="fill:#9C9CCA;fill-opacity:1.000000;stroke:black;stroke-width:0.000000;stroke-opacity:0.000000" />


<rect
width="2.485149"
height="21.428571"
rx="0.000000"
ry="0.000000"
x="336.353504"
y="61.500000"
id="col.pan"
style="fill:#9898CB;fill-opacity:1.000000;stroke:black;stroke-width:0.000000;stroke-opacity:0.000000" />


<rect
width="2.485149"
height="21.428571"
rx="0.000000"
ry="0.000000"
x="334.868356"
y="61.500000"
id="col.pan"
style="fill:#9494CC;fill-opacity:1.000000;stroke:black;stroke-width:0.000000;stroke-opacity:0.000000" />


<rect
width="2.485149"
height="21.428571"
rx="0.000000"
ry="0.000000"
x="333.383207"
y="61.500000"
id="col.pan"
style="fill:#9090CE;fill-opacity:1.000000;stroke:black;stroke-width:0.000000;stroke-opacity:0.000000" />


<rect
width="2.485149"
height="21.428571"
rx="0.000000"
ry="0.000000"
x="331.898059"
y="61.500000"
id="col.pan"
style="fill:#8D8DCF;fill-opacity:1.000000;stroke:black;stroke-width:0.000000;stroke-opacity:0.000000" />


<rect
width="2.485149"
height="21.428571"
rx="0.000000"
ry="0.000000"
x="330.412910"
y="61.500000"
id="col.pan"
style="fill:#8989D0;fill-opacity:1.000000;stroke:black;stroke-width:0.000000;stroke-opacity:0.000000" />


<rect
width="2.485149"
height="21.428571"
rx="0.000000"
ry="0.000000"
x="328.927762"
y="61.500000"
id="col.pan"
style="fill:#8585D2;fill-opacity:1.000000;stroke:black;stroke-width:0.000000;stroke-opacity:0.000000" />


<rect
width="2.485149"
height="21.428571"
rx="0.000000"
ry="0.000000"
x="327.442613"
y="61.500000"
id="col.pan"
style="fill:#8181D3;fill-opacity:1.000000;stroke:black;stroke-width:0.000000;stroke-opacity:0.000000" />


<rect
width="2.485149"
height="21.428571"
rx="0.000000"
ry="0.000000"
x="325.957465"
y="61.500000"
id="col.pan"
style="fill:#7D7DD4;fill-opacity:1.000000;stroke:black;stroke-width:0.000000;stroke-opacity:0.000000" />


<rect
width="2.485149"
height="21.428571"
rx="0.000000"
ry="0.000000"
x="324.472316"
y="61.500000"
id="col.pan"
style="fill:#7A7AD5;fill-opacity:1.000000;stroke:black;stroke-width:0.000000;stroke-opacity:0.000000" />


<rect
width="2.485149"
height="21.428571"
rx="0.000000"
ry="0.000000"
x="322.987168"
y="61.500000"
id="col.pan"
style="fill:#7676D7;fill-opacity:1.000000;stroke:black;stroke-width:0.000000;stroke-opacity:0.000000" />


<rect
width="2.485149"
height="21.428571"
rx="0.000000"
ry="0.000000"
x="321.502019"
y="61.500000"
id="col.pan"
style="fill:#7272D8;fill-opacity:1.000000;stroke:black;stroke-width:0.000000;stroke-opacity:0.000000" />


<rect
width="2.485149"
height="21.428571"
rx="0.000000"
ry="0.000000"
x="320.016871"
y="61.500000"
id="col.pan"
style="fill:#6E6ED9;fill-opacity:1.000000;stroke:black;stroke-width:0.000000;stroke-opacity:0.000000" />


<rect
width="2.485149"
height="21.428571"
rx="0.000000"
ry="0.000000"
x="318.531722"
y="61.500000"
id="col.pan"
style="fill:#6A6ADB;fill-opacity:1.000000;stroke:black;stroke-width:0.000000;stroke-opacity:0.000000" />


<rect
width="2.485149"
height="21.428571"
rx="0.000000"
ry="0.000000"
x="317.046574"
y="61.500000"
id="col.pan"
style="fill:#6767DC;fill-opacity:1.000000;stroke:black;stroke-width:0.000000;stroke-opacity:0.000000" />


<rect
width="2.485149"
height="21.428571"
rx="0.000000"
ry="0.000000"
x="315.561425"
y="61.500000"
id="col.pan"
style="fill:#6363DD;fill-opacity:1.000000;stroke:black;stroke-width:0.000000;stroke-opacity:0.000000" />


<rect
width="2.485149"
height="21.428571"
rx="0.000000"
ry="0.000000"
x="314.076277"
y="61.500000"
id="col.pan"
style="fill:#5F5FDF;fill-opacity:1.000000;stroke:black;stroke-width:0.000000;stroke-opacity:0.000000" />


<rect
width="2.485149"
height="21.428571"
rx="0.000000"
ry="0.000000"
x="312.591128"
y="61.500000"
id="col.pan"
style="fill:#5B5BE0;fill-opacity:1.000000;stroke:black;stroke-width:0.000000;stroke-opacity:0.000000" />


<rect
width="2.485149"
height="21.428571"
rx="0.000000"
ry="0.000000"
x="311.105980"
y="61.500000"
id="col.pan"
style="fill:#5757E1;fill-opacity:1.000000;stroke:black;stroke-width:0.000000;stroke-opacity:0.000000" />


<rect
width="2.485149"
height="21.428571"
rx="0.000000"
ry="0.000000"
x="309.620831"
y="61.500000"
id="col.pan"
style="fill:#5454E2;fill-opacity:1.000000;stroke:black;stroke-width:0.000000;stroke-opacity:0.000000" />


<rect
width="2.485149"
height="21.428571"
rx="0.000000"
ry="0.000000"
x="308.135682"
y="61.500000"
id="col.pan"
style="fill:#5050E4;fill-opacity:1.000000;stroke:black;stroke-width:0.000000;stroke-opacity:0.000000" />


<rect
width="2.485149"
height="21.428571"
rx="0.000000"
ry="0.000000"
x="306.650534"
y="61.500000"
id="col.pan"
style="fill:#4C4CE5;fill-opacity:1.000000;stroke:black;stroke-width:0.000000;stroke-opacity:0.000000" />


<rect
width="2.485149"
height="21.428571"
rx="0.000000"
ry="0.000000"
x="305.165385"
y="61.500000"
id="col.pan"
style="fill:#4848E6;fill-opacity:1.000000;stroke:black;stroke-width:0.000000;stroke-opacity:0.000000" />


<rect
width="2.485149"
height="21.428571"
rx="0.000000"
ry="0.000000"
x="303.680237"
y="61.500000"
id="col.pan"
style="fill:#4444E8;fill-opacity:1.000000;stroke:black;stroke-width:0.000000;stroke-opacity:0.000000" />


<rect
width="2.485149"
height="21.428571"
rx="0.000000"
ry="0.000000"
x="302.195088"
y="61.500000"
id="col.pan"
style="fill:#4141E9;fill-opacity:1.000000;stroke:black;stroke-width:0.000000;stroke-opacity:0.000000" />


<rect
width="2.485149"
height="21.428571"
rx="0.000000"
ry="0.000000"
x="300.709940"
y="61.500000"
id="col.pan"
style="fill:#3D3DEA;fill-opacity:1.000000;stroke:black;stroke-width:0.000000;stroke-opacity:0.000000" />


<rect
width="2.485149"
height="21.428571"
rx="0.000000"
ry="0.000000"
x="299.224791"
y="61.500000"
id="col.pan"
style="fill:#3939EC;fill-opacity:1.000000;stroke:black;stroke-width:0.000000;stroke-opacity:0.000000" />


<rect
width="2.485149"
height="21.428571"
rx="0.000000"
ry="0.000000"
x="297.739643"
y="61.500000"
id="col.pan"
style="fill:#3535ED;fill-opacity:1.000000;stroke:black;stroke-width:0.000000;stroke-opacity:0.000000" />


<rect
width="2.485149"
height="21.428571"
rx="0.000000"
ry="0.000000"
x="296.254494"
y="61.500000"
id="col.pan"
style="fill:#3131EE;fill-opacity:1.000000;stroke:black;stroke-width:0.000000;stroke-opacity:0.000000" />


<rect
width="2.485149"
height="21.428571"
rx="0.000000"
ry="0.000000"
x="294.769346"
y="61.500000"
id="col.pan"
style="fill:#2E2EEF;fill-opacity:1.000000;stroke:black;stroke-width:0.000000;stroke-opacity:0.000000" />


<rect
width="2.485149"
height="21.428571"
rx="0.000000"
ry="0.000000"
x="293.284197"
y="61.500000"
id="col.pan"
style="fill:#2A2AF1;fill-opacity:1.000000;stroke:black;stroke-width:0.000000;stroke-opacity:0.000000" />


<rect
width="2.485149"
height="21.428571"
rx="0.000000"
ry="0.000000"
x="291.799049"
y="61.500000"
id="col.pan"
style="fill:#2626F2;fill-opacity:1.000000;stroke:black;stroke-width:0.000000;stroke-opacity:0.000000" />


<rect
width="2.485149"
height="21.428571"
rx="0.000000"
ry="0.000000"
x="290.313900"
y="61.500000"
id="col.pan"
style="fill:#2222F3;fill-opacity:1.000000;stroke:black;stroke-width:0.000000;stroke-opacity:0.000000" />


<rect
width="2.485149"
height="21.428571"
rx="0.000000"
ry="0.000000"
x="288.828752"
y="61.500000"
id="col.pan"
style="fill:#1E1EF5;fill-opacity:1.000000;stroke:black;stroke-width:0.000000;stroke-opacity:0.000000" />


<rect
width="2.485149"
height="21.428571"
rx="0.000000"
ry="0.000000"
x="287.343603"
y="61.500000"
id="col.pan"
style="fill:#1B1BF6;fill-opacity:1.000000;stroke:black;stroke-width:0.000000;stroke-opacity:0.000000" />


<rect
width="2.485149"
height="21.428571"
rx="0.000000"
ry="0.000000"
x="285.858455"
y="61.500000"
id="col.pan"
style="fill:#1717F7;fill-opacity:1.000000;stroke:black;stroke-width:0.000000;stroke-opacity:0.000000" />


<rect
width="2.485149"
height="21.428571"
rx="0.000000"
ry="0.000000"
x="284.373306"
y="61.500000"
id="col.pan"
style="fill:#1313F9;fill-opacity:1.000000;stroke:black;stroke-width:0.000000;stroke-opacity:0.000000" />


<rect
width="2.485149"
height="21.428571"
rx="0.000000"
ry="0.000000"
x="282.888158"
y="61.500000"
id="col.pan"
style="fill:#0F0FFA;fill-opacity:1.000000;stroke:black;stroke-width:0.000000;stroke-opacity:0.000000" />


<rect
width="2.485149"
height="21.428571"
rx="0.000000"
ry="0.000000"
x="281.403009"
y="61.500000"
id="col.pan"
style="fill:#0B0BFB;fill-opacity:1.000000;stroke:black;stroke-width:0.000000;stroke-opacity:0.000000" />


<rect
width="2.485149"
height="21.428571"
rx="0.000000"
ry="0.000000"
x="279.917861"
y="61.500000"
id="col.pan"
style="fill:#0808FC;fill-opacity:1.000000;stroke:black;stroke-width:0.000000;stroke-opacity:0.000000" />


<rect
width="2.485149"
height="21.428571"
rx="0.000000"
ry="0.000000"
x="278.432712"
y="61.500000"
id="col.pan"
style="fill:#0404FE;fill-opacity:1.000000;stroke:black;stroke-width:0.000000;stroke-opacity:0.000000" />


<rect
width="2.485149"
height="21.428571"
rx="0.000000"
ry="0.000000"
x="276.947564"
y="61.500000"
id="col.pan"
style="fill:#0000FF;fill-opacity:1.000000;stroke:black;stroke-width:0.000000;stroke-opacity:0.000000" />


<line
x1="276.947563677519" y1="61.5" x2="276.947563677519" y2="88.2857142857142"
id="tick"
style="stroke:black;stroke-width:2.000000;stroke-opacity:1" />


<line
x1="291.947563677519" y1="61.5" x2="291.947563677519" y2="88.2857142857142"
id="tick"
style="stroke:black;stroke-width:2.000000;stroke-opacity:1" />


<line
x1="306.947563677519" y1="61.5" x2="306.947563677519" y2="88.2857142857142"
id="tick"
style="stroke:black;stroke-width:2.000000;stroke-opacity:1" />


<line
x1="321.947563677519" y1="61.5" x2="321.947563677519" y2="88.2857142857142"
id="tick"
style="stroke:black;stroke-width:2.000000;stroke-opacity:1" />


<line
x1="336.947563677519" y1="61.5" x2="336.947563677519" y2="88.2857142857142"
id="tick"
style="stroke:black;stroke-width:2.000000;stroke-opacity:1" />


<line
x1="351.947563677519" y1="61.5" x2="351.947563677519" y2="88.2857142857142"
id="tick"
style="stroke:black;stroke-width:2.000000;stroke-opacity:1" />


<line
x1="366.947563677519" y1="61.5" x2="366.947563677519" y2="88.2857142857142"
id="tick"
style="stroke:black;stroke-width:2.000000;stroke-opacity:1" />


<line
x1="381.947563677519" y1="61.5" x2="381.947563677519" y2="88.2857142857142"
id="tick"
style="stroke:black;stroke-width:2.000000;stroke-opacity:1" />


<line
x1="396.947563677519" y1="61.5" x2="396.947563677519" y2="88.2857142857142"
id="tick"
style="stroke:black;stroke-width:2.000000;stroke-opacity:1" />


<line
x1="411.947563677519" y1="61.5" x2="411.947563677519" y2="88.2857142857142"
id="tick"
style="stroke:black;stroke-width:2.000000;stroke-opacity:1" />


<line
x1="426.947563677519" y1="61.5" x2="426.947563677519" y2="88.2857142857142"
id="tick"
style="stroke:black;stroke-width:2.000000;stroke-opacity:1" />


<text
x="426.204989"
y="111.500000"
id="color.panel.max.value"
style="font-size:21.428571px;text-anchor:middle;font-family:Arial,Helvetica;alignment-baseline:baseline;stroke.opacity:1;dominant-baseline:baseline"
fill="black"
>
1</text>


<text
x="277.690138"
y="111.500000"
id="color.panel.low.value"
style="font-size:21.428571px;text-anchor:middle;font-family:Arial,Helvetica;alignment-baseline:baseline;stroke.opacity:1;dominant-baseline:baseline"
fill="black"
>
-1</text>


<text
x="353.432712"
y="111.500000"
id="color.panel.mid.value"
style="font-size:21.428571px;text-anchor:middle;font-family:Arial,Helvetica;alignment-baseline:baseline;stroke.opacity:1;dominant-baseline:baseline"
fill="black"
>
0</text>

</svg>
