<?xml version="1.0" encoding="UTF-8"?>
<svg width="891.210208" height="549.669464"
xmlns="http://www.w3.org/2000/svg" xmlns:svg="http://www.w3.org/2000/svg"
>
<metadata id="metadata7">image/svg+xml</metadata>



<path
d="M 100 205.674460238495 100 234.674460238495 105.5 240.174460238495 164.5 240.174460238495 170 234.674460238495 170 205.674460238495 164.5 200.174460238495 105.5 200.174460238495 Z"
id="wikipathways_WP715_db47d"
style="fill:white;fill-opacity:0.600000;stroke-width:1;stroke:black;stroke-opacity:1.000000"
transform = "rotate(0.000000 0.000000 0.000000)"
/>


<text
x="135.000000"
y="220.174460"
id="wikipathways_WP715_db47d"
style="font-size:18.000000px;text-anchor:middle;font-family:Arial,Helvetica;alignment-baseline:baseline;stroke.opacity:1;dominant-baseline:baseline"
fill="black"
>
noname</text>


<path
d="M 211.387300669435 390.169464342788 211.387300669435 419.169464342788 216.887300669435 424.669464342788 275.887300669435 424.669464342788 281.387300669435 419.169464342788 281.387300669435 390.169464342788 275.887300669435 384.669464342788 216.887300669435 384.669464342788 Z"
id="wikipathways_WP715_c24a4"
style="fill:white;fill-opacity:0.600000;stroke-width:1;stroke:black;stroke-opacity:1.000000"
transform = "rotate(0.000000 0.000000 0.000000)"
/>


<text
x="246.387301"
y="404.669464"
id="wikipathways_WP715_c24a4"
style="font-size:18.000000px;text-anchor:middle;font-family:Arial,Helvetica;alignment-baseline:baseline;stroke.opacity:1;dominant-baseline:baseline"
fill="black"
>
noname</text>



<rect
width="26.666667"
height="26.666667"
rx="0.000000"
ry="0.000000"
x="359.472508"
y="150.000000"
id="wikipathways_WP715_e4497"
style="fill:white;fill-opacity:0.600000;stroke:black;stroke-width:1.000000;stroke-opacity:1.000000" />



<text
x="372.805841"
y="171.333333"
id="wikipathways_WP715_e4497"
style="font-size:24.000000px;text-anchor:middle;font-family:Arial,Helvetica;alignment-baseline:baseline;stroke.opacity:1;dominant-baseline:baseline"
fill="black"
>
\\</text>



<ellipse
rx="35.000000"
ry="20.000000"
cx="526.210208"
cy="341.669069"
id="wikipathways_WP715_b56c0"
style="fill:#FFFF00;fill-opacity:0.600000;stroke:black;stroke-width:1.000000;stroke-opacity:0.000000" />


<path
d="M 508.710208469543 358.989577075942 A 35 20 1 1 0 508.710208469543 324.348560924564"
id="wikipathways_WP715_b56c0"
style="fill:#FFFF00;fill-opacity:0.600000;stroke-width:1;stroke:black;stroke-opacity:0.000000"
transform = "rotate(0.000000 0.000000 0.000000)"
/>


<path
d="M 526.210208469543 361.669069000253 A 35 20 1 1 0 526.210208469543 321.669069000253"
id="wikipathways_WP715_b56c0"
style="fill:white;fill-opacity:0.600000;stroke-width:1;stroke:black;stroke-opacity:0.000000"
transform = "rotate(0.000000 0.000000 0.000000)"
/>


<path
d="M 526.210208469543 361.669069000253 A 35 20 1 1 0 526.210208469543 321.669069000253"
id="wikipathways_WP715_b56c0"
style="fill:#FFFF00;fill-opacity:0.600000;stroke-width:1;stroke:black;stroke-opacity:0.000000"
transform = "rotate(0.000000 0.000000 0.000000)"
/>


<path
d="M 543.710208469543 358.989577075942 A 35 20 1 0 0 543.710208469543 324.348560924564"
id="wikipathways_WP715_b56c0"
style="fill:white;fill-opacity:0.600000;stroke-width:1;stroke:black;stroke-opacity:0.000000"
transform = "rotate(0.000000 0.000000 0.000000)"
/>


<path
d="M 543.710208469543 358.989577075942 A 35 20 1 0 0 543.710208469543 324.348560924564"
id="wikipathways_WP715_b56c0"
style="fill:#FFFF00;fill-opacity:0.600000;stroke-width:1;stroke:black;stroke-opacity:0.000000"
transform = "rotate(0.000000 0.000000 0.000000)"
/>


<path
d="M 561.210208469543 341.669069000253 A 35 20 1 0 0 561.210208469543 341.669069000253"
id="wikipathways_WP715_b56c0"
style="fill:white;fill-opacity:0.600000;stroke-width:1;stroke:black;stroke-opacity:0.000000"
transform = "rotate(0.000000 0.000000 0.000000)"
/>


<ellipse
rx="35.000000"
ry="20.000000"
cx="526.210208"
cy="341.669069"
id="wikipathways_WP715_b56c0"
style="fill:white;fill-opacity:0.000000;stroke:black;stroke-width:1.000000;stroke-opacity:1.000000" />



<text
x="526.210208"
y="338.669069"
id="wikipathways_WP715_b56c0"
style="font-size:18.000000px;text-anchor:middle;font-family:Arial,Helvetica;alignment-baseline:baseline;stroke.opacity:1;dominant-baseline:baseline"
fill="black"
>
simple_</text>


<text
x="526.210208"
y="356.669069"
id="wikipathways_WP715_b56c0"
style="font-size:18.000000px;text-anchor:middle;font-family:Arial,Helvetica;alignment-baseline:baseline;stroke.opacity:1;dominant-baseline:baseline"
fill="black"
>
chemical_1</text>



<ellipse
rx="35.000000"
ry="20.000000"
cx="366.051190"
cy="354.481543"
id="wikipathways_WP715_ef007"
style="fill:#0000FF;fill-opacity:0.600000;stroke:black;stroke-width:1.000000;stroke-opacity:0.000000" />


<path
d="M 348.55118966943 371.80205061682 A 35 20 1 1 0 348.55118966943 337.161034465442"
id="wikipathways_WP715_ef007"
style="fill:#0000FF;fill-opacity:0.600000;stroke-width:1;stroke:black;stroke-opacity:0.000000"
transform = "rotate(0.000000 0.000000 0.000000)"
/>


<path
d="M 366.05118966943 374.481542541131 A 35 20 1 1 0 366.05118966943 334.481542541131"
id="wikipathways_WP715_ef007"
style="fill:white;fill-opacity:0.600000;stroke-width:1;stroke:black;stroke-opacity:0.000000"
transform = "rotate(0.000000 0.000000 0.000000)"
/>


<path
d="M 366.05118966943 374.481542541131 A 35 20 1 1 0 366.05118966943 334.481542541131"
id="wikipathways_WP715_ef007"
style="fill:#0000FF;fill-opacity:0.600000;stroke-width:1;stroke:black;stroke-opacity:0.000000"
transform = "rotate(0.000000 0.000000 0.000000)"
/>


<path
d="M 383.55118966943 371.80205061682 A 35 20 1 0 0 383.55118966943 337.161034465442"
id="wikipathways_WP715_ef007"
style="fill:white;fill-opacity:0.600000;stroke-width:1;stroke:black;stroke-opacity:0.000000"
transform = "rotate(0.000000 0.000000 0.000000)"
/>


<path
d="M 383.55118966943 371.80205061682 A 35 20 1 0 0 383.55118966943 337.161034465442"
id="wikipathways_WP715_ef007"
style="fill:#0000FF;fill-opacity:0.600000;stroke-width:1;stroke:black;stroke-opacity:0.000000"
transform = "rotate(0.000000 0.000000 0.000000)"
/>


<path
d="M 401.05118966943 354.481542541131 A 35 20 1 0 0 401.05118966943 354.481542541131"
id="wikipathways_WP715_ef007"
style="fill:white;fill-opacity:0.600000;stroke-width:1;stroke:black;stroke-opacity:0.000000"
transform = "rotate(0.000000 0.000000 0.000000)"
/>


<ellipse
rx="35.000000"
ry="20.000000"
cx="366.051190"
cy="354.481543"
id="wikipathways_WP715_ef007"
style="fill:white;fill-opacity:0.000000;stroke:black;stroke-width:1.000000;stroke-opacity:1.000000" />



<text
x="366.051190"
y="351.481543"
id="wikipathways_WP715_ef007"
style="font-size:18.000000px;text-anchor:middle;font-family:Arial,Helvetica;alignment-baseline:baseline;stroke.opacity:1;dominant-baseline:baseline"
fill="black"
>
carboxy-</text>


<text
x="366.051190"
y="369.481543"
id="wikipathways_WP715_ef007"
style="font-size:18.000000px;text-anchor:middle;font-family:Arial,Helvetica;alignment-baseline:baseline;stroke.opacity:1;dominant-baseline:baseline"
fill="black"
>
l CoA</text>


<rect
width="26.666667"
height="26.666667"
rx="0.000000"
ry="0.000000"
x="227.872549"
y="289.943234"
id="wikipathways_WP715_bbbac"
style="fill:white;fill-opacity:0.600000;stroke:black;stroke-width:1.000000;stroke-opacity:1.000000" />



<text
x="241.205882"
y="311.276567"
id="wikipathways_WP715_bbbac"
style="font-size:24.000000px;text-anchor:middle;font-family:Arial,Helvetica;alignment-baseline:baseline;stroke.opacity:1;dominant-baseline:baseline"
fill="black"
>
\\</text>



<ellipse
rx="35.000000"
ry="20.000000"
cx="338.638361"
cy="227.155144"
id="wikipathways_WP715_c34c7"
style="fill:#C8C89F;fill-opacity:0.600000;stroke:black;stroke-width:1.000000;stroke-opacity:0.000000" />


<path
d="M 321.13836118473 244.475652033568 A 35 20 1 1 0 321.13836118473 209.83463588219"
id="wikipathways_WP715_c34c7"
style="fill:#4040E9;fill-opacity:0.600000;stroke-width:1;stroke:black;stroke-opacity:0.000000"
transform = "rotate(0.000000 0.000000 0.000000)"
/>


<path
d="M 338.63836118473 247.155143957879 A 35 20 1 1 0 338.63836118473 207.155143957879"
id="wikipathways_WP715_c34c7"
style="fill:white;fill-opacity:0.600000;stroke-width:1;stroke:black;stroke-opacity:0.000000"
transform = "rotate(0.000000 0.000000 0.000000)"
/>


<path
d="M 338.63836118473 247.155143957879 A 35 20 1 1 0 338.63836118473 207.155143957879"
id="wikipathways_WP715_c34c7"
style="fill:#C5C5A9;fill-opacity:0.600000;stroke-width:1;stroke:black;stroke-opacity:0.000000"
transform = "rotate(0.000000 0.000000 0.000000)"
/>


<path
d="M 356.13836118473 244.475652033568 A 35 20 1 0 0 356.13836118473 209.83463588219"
id="wikipathways_WP715_c34c7"
style="fill:white;fill-opacity:0.600000;stroke-width:1;stroke:black;stroke-opacity:0.000000"
transform = "rotate(0.000000 0.000000 0.000000)"
/>


<path
d="M 356.13836118473 244.475652033568 A 35 20 1 0 0 356.13836118473 209.83463588219"
id="wikipathways_WP715_c34c7"
style="fill:#CCCC94;fill-opacity:0.600000;stroke-width:1;stroke:black;stroke-opacity:0.000000"
transform = "rotate(0.000000 0.000000 0.000000)"
/>


<path
d="M 373.63836118473 227.155143957879 A 35 20 1 0 0 373.63836118473 227.155143957879"
id="wikipathways_WP715_c34c7"
style="fill:white;fill-opacity:0.600000;stroke-width:1;stroke:black;stroke-opacity:0.000000"
transform = "rotate(0.000000 0.000000 0.000000)"
/>


<ellipse
rx="35.000000"
ry="20.000000"
cx="338.638361"
cy="227.155144"
id="wikipathways_WP715_c34c7"
style="fill:white;fill-opacity:0.000000;stroke:black;stroke-width:1.000000;stroke-opacity:1.000000" />



<text
x="338.638361"
y="224.155144"
id="wikipathways_WP715_c34c7"
style="font-size:18.000000px;text-anchor:middle;font-family:Arial,Helvetica;alignment-baseline:baseline;stroke.opacity:1;dominant-baseline:baseline"
fill="black"
>
simple_</text>


<text
x="338.638361"
y="242.155144"
id="wikipathways_WP715_c34c7"
style="font-size:18.000000px;text-anchor:middle;font-family:Arial,Helvetica;alignment-baseline:baseline;stroke.opacity:1;dominant-baseline:baseline"
fill="black"
>
chemical_2</text>



<ellipse
rx="35.000000"
ry="20.000000"
cx="156.786091"
cy="329.842642"
id="wikipathways_WP521_eb377"
style="fill:#0000FF;fill-opacity:0.600000;stroke:black;stroke-width:1.000000;stroke-opacity:0.000000" />


<path
d="M 139.286091494366 347.163149872011 A 35 20 1 1 0 139.286091494366 312.522133720633"
id="wikipathways_WP521_eb377"
style="fill:#0000FF;fill-opacity:0.600000;stroke-width:1;stroke:black;stroke-opacity:0.000000"
transform = "rotate(0.000000 0.000000 0.000000)"
/>


<path
d="M 156.786091494366 349.842641796322 A 35 20 1 1 0 156.786091494366 309.842641796322"
id="wikipathways_WP521_eb377"
style="fill:white;fill-opacity:0.600000;stroke-width:1;stroke:black;stroke-opacity:0.000000"
transform = "rotate(0.000000 0.000000 0.000000)"
/>


<path
d="M 156.786091494366 349.842641796322 A 35 20 1 1 0 156.786091494366 309.842641796322"
id="wikipathways_WP521_eb377"
style="fill:#0000FF;fill-opacity:0.600000;stroke-width:1;stroke:black;stroke-opacity:0.000000"
transform = "rotate(0.000000 0.000000 0.000000)"
/>


<path
d="M 174.286091494366 347.163149872011 A 35 20 1 0 0 174.286091494366 312.522133720633"
id="wikipathways_WP521_eb377"
style="fill:white;fill-opacity:0.600000;stroke-width:1;stroke:black;stroke-opacity:0.000000"
transform = "rotate(0.000000 0.000000 0.000000)"
/>


<path
d="M 174.286091494366 347.163149872011 A 35 20 1 0 0 174.286091494366 312.522133720633"
id="wikipathways_WP521_eb377"
style="fill:#0000FF;fill-opacity:0.600000;stroke-width:1;stroke:black;stroke-opacity:0.000000"
transform = "rotate(0.000000 0.000000 0.000000)"
/>


<path
d="M 191.786091494366 329.842641796322 A 35 20 1 0 0 191.786091494366 329.842641796322"
id="wikipathways_WP521_eb377"
style="fill:white;fill-opacity:0.600000;stroke-width:1;stroke:black;stroke-opacity:0.000000"
transform = "rotate(0.000000 0.000000 0.000000)"
/>


<ellipse
rx="35.000000"
ry="20.000000"
cx="156.786091"
cy="329.842642"
id="wikipathways_WP521_eb377"
style="fill:white;fill-opacity:0.000000;stroke:black;stroke-width:1.000000;stroke-opacity:1.000000" />


<text
x="156.786091"
y="335.842642"
id="wikipathways_WP521_eb377"
style="font-size:18.000000px;text-anchor:middle;font-family:Arial,Helvetica;alignment-baseline:baseline;stroke.opacity:1;dominant-baseline:baseline"
fill="black"
>
ATP</text>



<ellipse
rx="35.000000"
ry="20.000000"
cx="513.684347"
cy="222.569432"
id="wikipathways_WP715_e0361"
style="fill:#FFFF00;fill-opacity:0.600000;stroke:black;stroke-width:1.000000;stroke-opacity:0.000000" />


<path
d="M 496.184347168192 239.889939727261 A 35 20 1 1 0 496.184347168192 205.248923575883"
id="wikipathways_WP715_e0361"
style="fill:#FFFF00;fill-opacity:0.600000;stroke-width:1;stroke:black;stroke-opacity:0.000000"
transform = "rotate(0.000000 0.000000 0.000000)"
/>


<path
d="M 513.684347168192 242.569431651572 A 35 20 1 1 0 513.684347168192 202.569431651572"
id="wikipathways_WP715_e0361"
style="fill:white;fill-opacity:0.600000;stroke-width:1;stroke:black;stroke-opacity:0.000000"
transform = "rotate(0.000000 0.000000 0.000000)"
/>


<path
d="M 513.684347168192 242.569431651572 A 35 20 1 1 0 513.684347168192 202.569431651572"
id="wikipathways_WP715_e0361"
style="fill:#FFFF00;fill-opacity:0.600000;stroke-width:1;stroke:black;stroke-opacity:0.000000"
transform = "rotate(0.000000 0.000000 0.000000)"
/>


<path
d="M 531.184347168192 239.889939727261 A 35 20 1 0 0 531.184347168192 205.248923575883"
id="wikipathways_WP715_e0361"
style="fill:white;fill-opacity:0.600000;stroke-width:1;stroke:black;stroke-opacity:0.000000"
transform = "rotate(0.000000 0.000000 0.000000)"
/>


<path
d="M 531.184347168192 239.889939727261 A 35 20 1 0 0 531.184347168192 205.248923575883"
id="wikipathways_WP715_e0361"
style="fill:#FFFF00;fill-opacity:0.600000;stroke-width:1;stroke:black;stroke-opacity:0.000000"
transform = "rotate(0.000000 0.000000 0.000000)"
/>


<path
d="M 548.684347168192 222.569431651572 A 35 20 1 0 0 548.684347168192 222.569431651572"
id="wikipathways_WP715_e0361"
style="fill:white;fill-opacity:0.600000;stroke-width:1;stroke:black;stroke-opacity:0.000000"
transform = "rotate(0.000000 0.000000 0.000000)"
/>


<ellipse
rx="35.000000"
ry="20.000000"
cx="513.684347"
cy="222.569432"
id="wikipathways_WP715_e0361"
style="fill:white;fill-opacity:0.000000;stroke:black;stroke-width:1.000000;stroke-opacity:1.000000" />



<text
x="513.684347"
y="219.569432"
id="wikipathways_WP715_e0361"
style="font-size:18.000000px;text-anchor:middle;font-family:Arial,Helvetica;alignment-baseline:baseline;stroke.opacity:1;dominant-baseline:baseline"
fill="black"
>
carboxy-</text>


<text
x="513.684347"
y="237.569432"
id="wikipathways_WP715_e0361"
style="font-size:18.000000px;text-anchor:middle;font-family:Arial,Helvetica;alignment-baseline:baseline;stroke.opacity:1;dominant-baseline:baseline"
fill="black"
>
lic acid</text>


<rect
width="26.666667"
height="26.666667"
rx="0.000000"
ry="0.000000"
x="226.693901"
y="185.392753"
id="wikipathways_WP715_d91ed"
style="fill:white;fill-opacity:0.600000;stroke:black;stroke-width:1.000000;stroke-opacity:1.000000" />



<text
x="240.027234"
y="206.726086"
id="wikipathways_WP715_d91ed"
style="font-size:24.000000px;text-anchor:middle;font-family:Arial,Helvetica;alignment-baseline:baseline;stroke.opacity:1;dominant-baseline:baseline"
fill="black"
>
\\</text>


<rect
width="26.666667"
height="26.666667"
rx="0.000000"
ry="0.000000"
x="317.942663"
y="282.597116"
id="wikipathways_WP715_a9d87"
style="fill:white;fill-opacity:0.600000;stroke:black;stroke-width:1.000000;stroke-opacity:1.000000" />



<text
x="331.275996"
y="303.930449"
id="wikipathways_WP715_a9d87"
style="font-size:24.000000px;text-anchor:middle;font-family:Arial,Helvetica;alignment-baseline:baseline;stroke.opacity:1;dominant-baseline:baseline"
fill="black"
>
\\</text>


<rect
width="26.666667"
height="26.666667"
rx="0.000000"
ry="0.000000"
x="278.505566"
y="152.877276"
id="wikipathways_WP715_cb47e"
style="fill:white;fill-opacity:0.600000;stroke:black;stroke-width:1.000000;stroke-opacity:1.000000" />



<text
x="291.838899"
y="174.210609"
id="wikipathways_WP715_cb47e"
style="font-size:24.000000px;text-anchor:middle;font-family:Arial,Helvetica;alignment-baseline:baseline;stroke.opacity:1;dominant-baseline:baseline"
fill="black"
>
\\</text>




<path d="M323.000000 206.000000 C 316.000000 197.000000, 308.000000 187.000000,302.000000 179.000000" stroke="black"  fill="transparent"/>

<line
x1="316" y1="197" x2="323" y2="206"
id="0"
style="stroke:black;stroke-width:1.000000;stroke-opacity:0" />


<line
x1="308" y1="187" x2="302" y2="179"
id="wikipathways_WP715_c34c7--to--wikipathways_WP715_cb47e-input"
style="stroke:black;stroke-width:1.000000;stroke-opacity:0" />


<polygon
points = "302,179 288.8,174.6 293.2,179 288.8,183.4"
id="line"
style="fill:black; stroke:#000000; stroke-width:1"
transform = "rotate(233.130102 302.000000 179.000000)"
/>


<path d="M478.000000 216.000000 C 451.000000 212.000000, 411.000000 206.000000,376.000000 203.000000" stroke="black"  fill="transparent"/>
<path d="M376.000000 203.000000 C 331.000000 200.000000, 278.000000 199.000000,253.000000 198.000000" stroke="black"  fill="transparent"/>

<line
x1="451" y1="212" x2="478" y2="216"
id="0"
style="stroke:black;stroke-width:1.000000;stroke-opacity:0" />


<line
x1="278" y1="199" x2="253" y2="198"
id="wikipathways_WP715_e0361--to--wikipathways_WP715_d91ed-input"
style="stroke:black;stroke-width:1.000000;stroke-opacity:0" />


<polygon
points = "253,198 239.8,193.6 244.2,198 239.8,202.4"
id="line"
style="fill:black; stroke:#000000; stroke-width:1"
transform = "rotate(182.290610 253.000000 198.000000)"
/>


<path d="M490.000000 336.000000 C 427.000000 328.000000, 297.000000 310.000000,254.000000 305.000000" stroke="black"  fill="transparent"/>

<line
x1="427" y1="328" x2="490" y2="336"
id="0"
style="stroke:black;stroke-width:1.000000;stroke-opacity:0" />


<line
x1="297" y1="310" x2="254" y2="305"
id="wikipathways_WP715_b56c0--to--wikipathways_WP715_bbbac-input"
style="stroke:black;stroke-width:1.000000;stroke-opacity:0" />


<polygon
points = "254,305 240.8,300.6 245.2,305 240.8,309.4"
id="line"
style="fill:black; stroke:#000000; stroke-width:1"
transform = "rotate(186.632515 254.000000 305.000000)"
/>


<path d="M330.000000 340.000000 C 305.000000 329.000000, 272.000000 316.000000,254.000000 308.000000" stroke="black"  fill="transparent"/>

<line
x1="305" y1="329" x2="330" y2="340"
id="0"
style="stroke:black;stroke-width:1.000000;stroke-opacity:0" />


<line
x1="272" y1="316" x2="254" y2="308"
id="wikipathways_WP715_ef007--to--wikipathways_WP715_bbbac-input"
style="stroke:black;stroke-width:1.000000;stroke-opacity:0" />


<polygon
points = "254,308 240.8,303.6 245.2,308 240.8,312.4"
id="line"
style="fill:black; stroke:#000000; stroke-width:1"
transform = "rotate(203.962489 254.000000 308.000000)"
/>


<path d="M384.000000 177.000000 C 411.000000 208.000000, 477.000000 284.000000,508.000000 321.000000" stroke="black"  fill="transparent"/>

<line
x1="477" y1="284" x2="508" y2="321"
id="0"
style="stroke:black;stroke-width:1.000000;stroke-opacity:0" />


<line
x1="411" y1="208" x2="384" y2="177"
id="wikipathways_WP715_b56c0--to--wikipathways_WP715_e4497-input"
style="stroke:black;stroke-width:1.000000;stroke-opacity:0" />


<polygon
points = "384,177 370.8,172.6 375.2,177 370.8,181.4"
id="line"
style="fill:black; stroke:#000000; stroke-width:1"
transform = "rotate(228.945186 384.000000 177.000000)"
/>


<path d="M192.000000 328.000000 C 211.000000 326.000000, 236.000000 324.000000,257.000000 319.000000" stroke="black"  fill="transparent"/>
<path d="M257.000000 319.000000 C 279.000000 315.000000, 303.000000 306.000000,317.000000 301.000000" stroke="black"  fill="transparent"/>

<line
x1="211" y1="326" x2="192" y2="328"
id="0"
style="stroke:black;stroke-width:1.000000;stroke-opacity:0" />


<line
x1="303" y1="306" x2="317" y2="301"
id="wikipathways_WP521_eb377--to--wikipathways_WP715_a9d87-input"
style="stroke:black;stroke-width:1.000000;stroke-opacity:0" />


<polygon
points = "317,301 303.8,296.6 308.2,301 303.8,305.4"
id="line"
style="fill:black; stroke:#000000; stroke-width:1"
transform = "rotate(-19.653824 317.000000 301.000000)"
/>


<path d="M303.000000 217.000000 C 286.000000 212.000000, 266.000000 206.000000,253.000000 202.000000" stroke="black"  fill="transparent"/>

<line
x1="286" y1="212" x2="303" y2="217"
id="0"
style="stroke:black;stroke-width:1.000000;stroke-opacity:0" />


<line
x1="266" y1="206" x2="253" y2="202"
id="wikipathways_WP715_c34c7--to--wikipathways_WP715_d91ed-input"
style="stroke:black;stroke-width:1.000000;stroke-opacity:0" />


<polygon
points = "253,202 239.8,197.6 244.2,202 239.8,206.4"
id="line"
style="fill:black; stroke:#000000; stroke-width:1"
transform = "rotate(197.102729 253.000000 202.000000)"
/>


<path d="M334.000000 334.000000 C 326.000000 328.000000, 319.000000 320.000000,314.000000 312.000000" stroke="black"  fill="transparent"/>
<path d="M314.000000 312.000000 C 288.000000 270.000000, 288.000000 207.000000,290.000000 179.000000" stroke="black"  fill="transparent"/>

<line
x1="326" y1="328" x2="334" y2="334"
id="0"
style="stroke:black;stroke-width:1.000000;stroke-opacity:0" />


<line
x1="288" y1="207" x2="290" y2="179"
id="wikipathways_WP715_ef007--to--wikipathways_WP715_cb47e-input"
style="stroke:black;stroke-width:1.000000;stroke-opacity:0" />


<polygon
points = "290,179 276.8,174.6 281.2,179 276.8,183.4"
id="line"
style="fill:black; stroke:#000000; stroke-width:1"
transform = "rotate(-85.914383 290.000000 179.000000)"
/>


<path d="M320.000000 309.000000 C 305.000000 328.000000, 279.000000 362.000000,262.000000 384.000000" stroke="black"  fill="transparent"/>

<line
x1="279" y1="362" x2="262" y2="384"
id="0"
style="stroke:black;stroke-width:1.000000;stroke-opacity:0" />


<line
x1="305" y1="328" x2="320" y2="309"
id="wikipathways_WP715_c24a4--to--wikipathways_WP715_a9d87-input"
style="stroke:black;stroke-width:1.000000;stroke-opacity:0" />


<polygon
points = "320,309 306.8,304.6 311.2,309 306.8,313.4"
id="line"
style="fill:black; stroke:#000000; stroke-width:1"
transform = "rotate(-51.709837 320.000000 309.000000)"
/>


<path d="M359.000000 168.000000 C 346.000000 173.000000, 326.000000 180.000000,308.000000 182.000000" stroke="black"  fill="transparent"/>
<path d="M308.000000 182.000000 C 271.000000 188.000000, 260.000000 174.000000,223.000000 182.000000" stroke="black"  fill="transparent"/>
<path d="M223.000000 182.000000 C 205.000000 185.000000, 185.000000 193.000000,170.000000 201.000000" stroke="black"  fill="transparent"/>

<line
x1="185" y1="193" x2="170" y2="201"
id="0"
style="stroke:black;stroke-width:1.000000;stroke-opacity:0" />


<line
x1="346" y1="173" x2="359" y2="168"
id="wikipathways_WP715_db47d--to--wikipathways_WP715_e4497-input"
style="stroke:black;stroke-width:1.000000;stroke-opacity:0" />


<polygon
points = "359,168 345.8,163.6 350.2,168 345.8,172.4"
id="line"
style="fill:black; stroke:#000000; stroke-width:1"
transform = "rotate(-21.037511 359.000000 168.000000)"
/>






<rect
width="2.485149"
height="21.428571"
rx="0.000000"
ry="0.000000"
x="559.725060"
y="120.069432"
id="col.pan"
style="fill:#FFFF00;fill-opacity:1.000000;stroke:black;stroke-width:0.000000;stroke-opacity:0.000000" />


<rect
width="2.485149"
height="21.428571"
rx="0.000000"
ry="0.000000"
x="558.239911"
y="120.069432"
id="col.pan"
style="fill:#FEFE04;fill-opacity:1.000000;stroke:black;stroke-width:0.000000;stroke-opacity:0.000000" />


<rect
width="2.485149"
height="21.428571"
rx="0.000000"
ry="0.000000"
x="556.754763"
y="120.069432"
id="col.pan"
style="fill:#FCFC08;fill-opacity:1.000000;stroke:black;stroke-width:0.000000;stroke-opacity:0.000000" />


<rect
width="2.485149"
height="21.428571"
rx="0.000000"
ry="0.000000"
x="555.269614"
y="120.069432"
id="col.pan"
style="fill:#FBFB0B;fill-opacity:1.000000;stroke:black;stroke-width:0.000000;stroke-opacity:0.000000" />


<rect
width="2.485149"
height="21.428571"
rx="0.000000"
ry="0.000000"
x="553.784466"
y="120.069432"
id="col.pan"
style="fill:#FAFA0F;fill-opacity:1.000000;stroke:black;stroke-width:0.000000;stroke-opacity:0.000000" />


<rect
width="2.485149"
height="21.428571"
rx="0.000000"
ry="0.000000"
x="552.299317"
y="120.069432"
id="col.pan"
style="fill:#F9F913;fill-opacity:1.000000;stroke:black;stroke-width:0.000000;stroke-opacity:0.000000" />


<rect
width="2.485149"
height="21.428571"
rx="0.000000"
ry="0.000000"
x="550.814169"
y="120.069432"
id="col.pan"
style="fill:#F7F717;fill-opacity:1.000000;stroke:black;stroke-width:0.000000;stroke-opacity:0.000000" />


<rect
width="2.485149"
height="21.428571"
rx="0.000000"
ry="0.000000"
x="549.329020"
y="120.069432"
id="col.pan"
style="fill:#F6F61B;fill-opacity:1.000000;stroke:black;stroke-width:0.000000;stroke-opacity:0.000000" />


<rect
width="2.485149"
height="21.428571"
rx="0.000000"
ry="0.000000"
x="547.843872"
y="120.069432"
id="col.pan"
style="fill:#F5F51E;fill-opacity:1.000000;stroke:black;stroke-width:0.000000;stroke-opacity:0.000000" />


<rect
width="2.485149"
height="21.428571"
rx="0.000000"
ry="0.000000"
x="546.358723"
y="120.069432"
id="col.pan"
style="fill:#F3F322;fill-opacity:1.000000;stroke:black;stroke-width:0.000000;stroke-opacity:0.000000" />


<rect
width="2.485149"
height="21.428571"
rx="0.000000"
ry="0.000000"
x="544.873575"
y="120.069432"
id="col.pan"
style="fill:#F2F226;fill-opacity:1.000000;stroke:black;stroke-width:0.000000;stroke-opacity:0.000000" />


<rect
width="2.485149"
height="21.428571"
rx="0.000000"
ry="0.000000"
x="543.388426"
y="120.069432"
id="col.pan"
style="fill:#F1F12A;fill-opacity:1.000000;stroke:black;stroke-width:0.000000;stroke-opacity:0.000000" />


<rect
width="2.485149"
height="21.428571"
rx="0.000000"
ry="0.000000"
x="541.903278"
y="120.069432"
id="col.pan"
style="fill:#EFEF2E;fill-opacity:1.000000;stroke:black;stroke-width:0.000000;stroke-opacity:0.000000" />


<rect
width="2.485149"
height="21.428571"
rx="0.000000"
ry="0.000000"
x="540.418129"
y="120.069432"
id="col.pan"
style="fill:#EEEE31;fill-opacity:1.000000;stroke:black;stroke-width:0.000000;stroke-opacity:0.000000" />


<rect
width="2.485149"
height="21.428571"
rx="0.000000"
ry="0.000000"
x="538.932981"
y="120.069432"
id="col.pan"
style="fill:#EDED35;fill-opacity:1.000000;stroke:black;stroke-width:0.000000;stroke-opacity:0.000000" />


<rect
width="2.485149"
height="21.428571"
rx="0.000000"
ry="0.000000"
x="537.447832"
y="120.069432"
id="col.pan"
style="fill:#ECEC39;fill-opacity:1.000000;stroke:black;stroke-width:0.000000;stroke-opacity:0.000000" />


<rect
width="2.485149"
height="21.428571"
rx="0.000000"
ry="0.000000"
x="535.962684"
y="120.069432"
id="col.pan"
style="fill:#EAEA3D;fill-opacity:1.000000;stroke:black;stroke-width:0.000000;stroke-opacity:0.000000" />


<rect
width="2.485149"
height="21.428571"
rx="0.000000"
ry="0.000000"
x="534.477535"
y="120.069432"
id="col.pan"
style="fill:#E9E941;fill-opacity:1.000000;stroke:black;stroke-width:0.000000;stroke-opacity:0.000000" />


<rect
width="2.485149"
height="21.428571"
rx="0.000000"
ry="0.000000"
x="532.992387"
y="120.069432"
id="col.pan"
style="fill:#E8E844;fill-opacity:1.000000;stroke:black;stroke-width:0.000000;stroke-opacity:0.000000" />


<rect
width="2.485149"
height="21.428571"
rx="0.000000"
ry="0.000000"
x="531.507238"
y="120.069432"
id="col.pan"
style="fill:#E6E648;fill-opacity:1.000000;stroke:black;stroke-width:0.000000;stroke-opacity:0.000000" />


<rect
width="2.485149"
height="21.428571"
rx="0.000000"
ry="0.000000"
x="530.022090"
y="120.069432"
id="col.pan"
style="fill:#E5E54C;fill-opacity:1.000000;stroke:black;stroke-width:0.000000;stroke-opacity:0.000000" />


<rect
width="2.485149"
height="21.428571"
rx="0.000000"
ry="0.000000"
x="528.536941"
y="120.069432"
id="col.pan"
style="fill:#E4E450;fill-opacity:1.000000;stroke:black;stroke-width:0.000000;stroke-opacity:0.000000" />


<rect
width="2.485149"
height="21.428571"
rx="0.000000"
ry="0.000000"
x="527.051793"
y="120.069432"
id="col.pan"
style="fill:#E2E254;fill-opacity:1.000000;stroke:black;stroke-width:0.000000;stroke-opacity:0.000000" />


<rect
width="2.485149"
height="21.428571"
rx="0.000000"
ry="0.000000"
x="525.566644"
y="120.069432"
id="col.pan"
style="fill:#E1E157;fill-opacity:1.000000;stroke:black;stroke-width:0.000000;stroke-opacity:0.000000" />


<rect
width="2.485149"
height="21.428571"
rx="0.000000"
ry="0.000000"
x="524.081496"
y="120.069432"
id="col.pan"
style="fill:#E0E05B;fill-opacity:1.000000;stroke:black;stroke-width:0.000000;stroke-opacity:0.000000" />


<rect
width="2.485149"
height="21.428571"
rx="0.000000"
ry="0.000000"
x="522.596347"
y="120.069432"
id="col.pan"
style="fill:#DFDF5F;fill-opacity:1.000000;stroke:black;stroke-width:0.000000;stroke-opacity:0.000000" />


<rect
width="2.485149"
height="21.428571"
rx="0.000000"
ry="0.000000"
x="521.111199"
y="120.069432"
id="col.pan"
style="fill:#DDDD63;fill-opacity:1.000000;stroke:black;stroke-width:0.000000;stroke-opacity:0.000000" />


<rect
width="2.485149"
height="21.428571"
rx="0.000000"
ry="0.000000"
x="519.626050"
y="120.069432"
id="col.pan"
style="fill:#DCDC67;fill-opacity:1.000000;stroke:black;stroke-width:0.000000;stroke-opacity:0.000000" />


<rect
width="2.485149"
height="21.428571"
rx="0.000000"
ry="0.000000"
x="518.140902"
y="120.069432"
id="col.pan"
style="fill:#DBDB6A;fill-opacity:1.000000;stroke:black;stroke-width:0.000000;stroke-opacity:0.000000" />


<rect
width="2.485149"
height="21.428571"
rx="0.000000"
ry="0.000000"
x="516.655753"
y="120.069432"
id="col.pan"
style="fill:#D9D96E;fill-opacity:1.000000;stroke:black;stroke-width:0.000000;stroke-opacity:0.000000" />


<rect
width="2.485149"
height="21.428571"
rx="0.000000"
ry="0.000000"
x="515.170605"
y="120.069432"
id="col.pan"
style="fill:#D8D872;fill-opacity:1.000000;stroke:black;stroke-width:0.000000;stroke-opacity:0.000000" />


<rect
width="2.485149"
height="21.428571"
rx="0.000000"
ry="0.000000"
x="513.685456"
y="120.069432"
id="col.pan"
style="fill:#D7D776;fill-opacity:1.000000;stroke:black;stroke-width:0.000000;stroke-opacity:0.000000" />


<rect
width="2.485149"
height="21.428571"
rx="0.000000"
ry="0.000000"
x="512.200307"
y="120.069432"
id="col.pan"
style="fill:#D5D57A;fill-opacity:1.000000;stroke:black;stroke-width:0.000000;stroke-opacity:0.000000" />


<rect
width="2.485149"
height="21.428571"
rx="0.000000"
ry="0.000000"
x="510.715159"
y="120.069432"
id="col.pan"
style="fill:#D4D47D;fill-opacity:1.000000;stroke:black;stroke-width:0.000000;stroke-opacity:0.000000" />


<rect
width="2.485149"
height="21.428571"
rx="0.000000"
ry="0.000000"
x="509.230010"
y="120.069432"
id="col.pan"
style="fill:#D3D381;fill-opacity:1.000000;stroke:black;stroke-width:0.000000;stroke-opacity:0.000000" />


<rect
width="2.485149"
height="21.428571"
rx="0.000000"
ry="0.000000"
x="507.744862"
y="120.069432"
id="col.pan"
style="fill:#D2D285;fill-opacity:1.000000;stroke:black;stroke-width:0.000000;stroke-opacity:0.000000" />


<rect
width="2.485149"
height="21.428571"
rx="0.000000"
ry="0.000000"
x="506.259713"
y="120.069432"
id="col.pan"
style="fill:#D0D089;fill-opacity:1.000000;stroke:black;stroke-width:0.000000;stroke-opacity:0.000000" />


<rect
width="2.485149"
height="21.428571"
rx="0.000000"
ry="0.000000"
x="504.774565"
y="120.069432"
id="col.pan"
style="fill:#CFCF8D;fill-opacity:1.000000;stroke:black;stroke-width:0.000000;stroke-opacity:0.000000" />


<rect
width="2.485149"
height="21.428571"
rx="0.000000"
ry="0.000000"
x="503.289416"
y="120.069432"
id="col.pan"
style="fill:#CECE90;fill-opacity:1.000000;stroke:black;stroke-width:0.000000;stroke-opacity:0.000000" />


<rect
width="2.485149"
height="21.428571"
rx="0.000000"
ry="0.000000"
x="501.804268"
y="120.069432"
id="col.pan"
style="fill:#CCCC94;fill-opacity:1.000000;stroke:black;stroke-width:0.000000;stroke-opacity:0.000000" />


<rect
width="2.485149"
height="21.428571"
rx="0.000000"
ry="0.000000"
x="500.319119"
y="120.069432"
id="col.pan"
style="fill:#CBCB98;fill-opacity:1.000000;stroke:black;stroke-width:0.000000;stroke-opacity:0.000000" />


<rect
width="2.485149"
height="21.428571"
rx="0.000000"
ry="0.000000"
x="498.833971"
y="120.069432"
id="col.pan"
style="fill:#CACA9C;fill-opacity:1.000000;stroke:black;stroke-width:0.000000;stroke-opacity:0.000000" />


<rect
width="2.485149"
height="21.428571"
rx="0.000000"
ry="0.000000"
x="497.348822"
y="120.069432"
id="col.pan"
style="fill:#C8C8A0;fill-opacity:1.000000;stroke:black;stroke-width:0.000000;stroke-opacity:0.000000" />


<rect
width="2.485149"
height="21.428571"
rx="0.000000"
ry="0.000000"
x="495.863674"
y="120.069432"
id="col.pan"
style="fill:#C7C7A3;fill-opacity:1.000000;stroke:black;stroke-width:0.000000;stroke-opacity:0.000000" />


<rect
width="2.485149"
height="21.428571"
rx="0.000000"
ry="0.000000"
x="494.378525"
y="120.069432"
id="col.pan"
style="fill:#C6C6A7;fill-opacity:1.000000;stroke:black;stroke-width:0.000000;stroke-opacity:0.000000" />


<rect
width="2.485149"
height="21.428571"
rx="0.000000"
ry="0.000000"
x="492.893377"
y="120.069432"
id="col.pan"
style="fill:#C5C5AB;fill-opacity:1.000000;stroke:black;stroke-width:0.000000;stroke-opacity:0.000000" />


<rect
width="2.485149"
height="21.428571"
rx="0.000000"
ry="0.000000"
x="491.408228"
y="120.069432"
id="col.pan"
style="fill:#C3C3AF;fill-opacity:1.000000;stroke:black;stroke-width:0.000000;stroke-opacity:0.000000" />


<rect
width="2.485149"
height="21.428571"
rx="0.000000"
ry="0.000000"
x="489.923080"
y="120.069432"
id="col.pan"
style="fill:#C2C2B3;fill-opacity:1.000000;stroke:black;stroke-width:0.000000;stroke-opacity:0.000000" />


<rect
width="2.485149"
height="21.428571"
rx="0.000000"
ry="0.000000"
x="488.437931"
y="120.069432"
id="col.pan"
style="fill:#C1C1B6;fill-opacity:1.000000;stroke:black;stroke-width:0.000000;stroke-opacity:0.000000" />


<rect
width="2.485149"
height="21.428571"
rx="0.000000"
ry="0.000000"
x="486.952783"
y="120.069432"
id="col.pan"
style="fill:#BFBFBA;fill-opacity:1.000000;stroke:black;stroke-width:0.000000;stroke-opacity:0.000000" />


<rect
width="2.485149"
height="21.428571"
rx="0.000000"
ry="0.000000"
x="485.467634"
y="120.069432"
id="col.pan"
style="fill:#BEBEBE;fill-opacity:1.000000;stroke:black;stroke-width:0.000000;stroke-opacity:0.000000" />


<rect
width="2.485149"
height="21.428571"
rx="0.000000"
ry="0.000000"
x="483.982486"
y="120.069432"
id="col.pan"
style="fill:#BABABF;fill-opacity:1.000000;stroke:black;stroke-width:0.000000;stroke-opacity:0.000000" />


<rect
width="2.485149"
height="21.428571"
rx="0.000000"
ry="0.000000"
x="482.497337"
y="120.069432"
id="col.pan"
style="fill:#B6B6C1;fill-opacity:1.000000;stroke:black;stroke-width:0.000000;stroke-opacity:0.000000" />


<rect
width="2.485149"
height="21.428571"
rx="0.000000"
ry="0.000000"
x="481.012189"
y="120.069432"
id="col.pan"
style="fill:#B3B3C2;fill-opacity:1.000000;stroke:black;stroke-width:0.000000;stroke-opacity:0.000000" />


<rect
width="2.485149"
height="21.428571"
rx="0.000000"
ry="0.000000"
x="479.527040"
y="120.069432"
id="col.pan"
style="fill:#AFAFC3;fill-opacity:1.000000;stroke:black;stroke-width:0.000000;stroke-opacity:0.000000" />


<rect
width="2.485149"
height="21.428571"
rx="0.000000"
ry="0.000000"
x="478.041892"
y="120.069432"
id="col.pan"
style="fill:#ABABC5;fill-opacity:1.000000;stroke:black;stroke-width:0.000000;stroke-opacity:0.000000" />


<rect
width="2.485149"
height="21.428571"
rx="0.000000"
ry="0.000000"
x="476.556743"
y="120.069432"
id="col.pan"
style="fill:#A7A7C6;fill-opacity:1.000000;stroke:black;stroke-width:0.000000;stroke-opacity:0.000000" />


<rect
width="2.485149"
height="21.428571"
rx="0.000000"
ry="0.000000"
x="475.071595"
y="120.069432"
id="col.pan"
style="fill:#A3A3C7;fill-opacity:1.000000;stroke:black;stroke-width:0.000000;stroke-opacity:0.000000" />


<rect
width="2.485149"
height="21.428571"
rx="0.000000"
ry="0.000000"
x="473.586446"
y="120.069432"
id="col.pan"
style="fill:#A0A0C8;fill-opacity:1.000000;stroke:black;stroke-width:0.000000;stroke-opacity:0.000000" />


<rect
width="2.485149"
height="21.428571"
rx="0.000000"
ry="0.000000"
x="472.101298"
y="120.069432"
id="col.pan"
style="fill:#9C9CCA;fill-opacity:1.000000;stroke:black;stroke-width:0.000000;stroke-opacity:0.000000" />


<rect
width="2.485149"
height="21.428571"
rx="0.000000"
ry="0.000000"
x="470.616149"
y="120.069432"
id="col.pan"
style="fill:#9898CB;fill-opacity:1.000000;stroke:black;stroke-width:0.000000;stroke-opacity:0.000000" />


<rect
width="2.485149"
height="21.428571"
rx="0.000000"
ry="0.000000"
x="469.131001"
y="120.069432"
id="col.pan"
style="fill:#9494CC;fill-opacity:1.000000;stroke:black;stroke-width:0.000000;stroke-opacity:0.000000" />


<rect
width="2.485149"
height="21.428571"
rx="0.000000"
ry="0.000000"
x="467.645852"
y="120.069432"
id="col.pan"
style="fill:#9090CE;fill-opacity:1.000000;stroke:black;stroke-width:0.000000;stroke-opacity:0.000000" />


<rect
width="2.485149"
height="21.428571"
rx="0.000000"
ry="0.000000"
x="466.160704"
y="120.069432"
id="col.pan"
style="fill:#8D8DCF;fill-opacity:1.000000;stroke:black;stroke-width:0.000000;stroke-opacity:0.000000" />


<rect
width="2.485149"
height="21.428571"
rx="0.000000"
ry="0.000000"
x="464.675555"
y="120.069432"
id="col.pan"
style="fill:#8989D0;fill-opacity:1.000000;stroke:black;stroke-width:0.000000;stroke-opacity:0.000000" />


<rect
width="2.485149"
height="21.428571"
rx="0.000000"
ry="0.000000"
x="463.190406"
y="120.069432"
id="col.pan"
style="fill:#8585D2;fill-opacity:1.000000;stroke:black;stroke-width:0.000000;stroke-opacity:0.000000" />


<rect
width="2.485149"
height="21.428571"
rx="0.000000"
ry="0.000000"
x="461.705258"
y="120.069432"
id="col.pan"
style="fill:#8181D3;fill-opacity:1.000000;stroke:black;stroke-width:0.000000;stroke-opacity:0.000000" />


<rect
width="2.485149"
height="21.428571"
rx="0.000000"
ry="0.000000"
x="460.220109"
y="120.069432"
id="col.pan"
style="fill:#7D7DD4;fill-opacity:1.000000;stroke:black;stroke-width:0.000000;stroke-opacity:0.000000" />


<rect
width="2.485149"
height="21.428571"
rx="0.000000"
ry="0.000000"
x="458.734961"
y="120.069432"
id="col.pan"
style="fill:#7A7AD5;fill-opacity:1.000000;stroke:black;stroke-width:0.000000;stroke-opacity:0.000000" />


<rect
width="2.485149"
height="21.428571"
rx="0.000000"
ry="0.000000"
x="457.249812"
y="120.069432"
id="col.pan"
style="fill:#7676D7;fill-opacity:1.000000;stroke:black;stroke-width:0.000000;stroke-opacity:0.000000" />


<rect
width="2.485149"
height="21.428571"
rx="0.000000"
ry="0.000000"
x="455.764664"
y="120.069432"
id="col.pan"
style="fill:#7272D8;fill-opacity:1.000000;stroke:black;stroke-width:0.000000;stroke-opacity:0.000000" />


<rect
width="2.485149"
height="21.428571"
rx="0.000000"
ry="0.000000"
x="454.279515"
y="120.069432"
id="col.pan"
style="fill:#6E6ED9;fill-opacity:1.000000;stroke:black;stroke-width:0.000000;stroke-opacity:0.000000" />


<rect
width="2.485149"
height="21.428571"
rx="0.000000"
ry="0.000000"
x="452.794367"
y="120.069432"
id="col.pan"
style="fill:#6A6ADB;fill-opacity:1.000000;stroke:black;stroke-width:0.000000;stroke-opacity:0.000000" />


<rect
width="2.485149"
height="21.428571"
rx="0.000000"
ry="0.000000"
x="451.309218"
y="120.069432"
id="col.pan"
style="fill:#6767DC;fill-opacity:1.000000;stroke:black;stroke-width:0.000000;stroke-opacity:0.000000" />


<rect
width="2.485149"
height="21.428571"
rx="0.000000"
ry="0.000000"
x="449.824070"
y="120.069432"
id="col.pan"
style="fill:#6363DD;fill-opacity:1.000000;stroke:black;stroke-width:0.000000;stroke-opacity:0.000000" />


<rect
width="2.485149"
height="21.428571"
rx="0.000000"
ry="0.000000"
x="448.338921"
y="120.069432"
id="col.pan"
style="fill:#5F5FDF;fill-opacity:1.000000;stroke:black;stroke-width:0.000000;stroke-opacity:0.000000" />


<rect
width="2.485149"
height="21.428571"
rx="0.000000"
ry="0.000000"
x="446.853773"
y="120.069432"
id="col.pan"
style="fill:#5B5BE0;fill-opacity:1.000000;stroke:black;stroke-width:0.000000;stroke-opacity:0.000000" />


<rect
width="2.485149"
height="21.428571"
rx="0.000000"
ry="0.000000"
x="445.368624"
y="120.069432"
id="col.pan"
style="fill:#5757E1;fill-opacity:1.000000;stroke:black;stroke-width:0.000000;stroke-opacity:0.000000" />


<rect
width="2.485149"
height="21.428571"
rx="0.000000"
ry="0.000000"
x="443.883476"
y="120.069432"
id="col.pan"
style="fill:#5454E2;fill-opacity:1.000000;stroke:black;stroke-width:0.000000;stroke-opacity:0.000000" />


<rect
width="2.485149"
height="21.428571"
rx="0.000000"
ry="0.000000"
x="442.398327"
y="120.069432"
id="col.pan"
style="fill:#5050E4;fill-opacity:1.000000;stroke:black;stroke-width:0.000000;stroke-opacity:0.000000" />


<rect
width="2.485149"
height="21.428571"
rx="0.000000"
ry="0.000000"
x="440.913179"
y="120.069432"
id="col.pan"
style="fill:#4C4CE5;fill-opacity:1.000000;stroke:black;stroke-width:0.000000;stroke-opacity:0.000000" />


<rect
width="2.485149"
height="21.428571"
rx="0.000000"
ry="0.000000"
x="439.428030"
y="120.069432"
id="col.pan"
style="fill:#4848E6;fill-opacity:1.000000;stroke:black;stroke-width:0.000000;stroke-opacity:0.000000" />


<rect
width="2.485149"
height="21.428571"
rx="0.000000"
ry="0.000000"
x="437.942882"
y="120.069432"
id="col.pan"
style="fill:#4444E8;fill-opacity:1.000000;stroke:black;stroke-width:0.000000;stroke-opacity:0.000000" />


<rect
width="2.485149"
height="21.428571"
rx="0.000000"
ry="0.000000"
x="436.457733"
y="120.069432"
id="col.pan"
style="fill:#4141E9;fill-opacity:1.000000;stroke:black;stroke-width:0.000000;stroke-opacity:0.000000" />


<rect
width="2.485149"
height="21.428571"
rx="0.000000"
ry="0.000000"
x="434.972585"
y="120.069432"
id="col.pan"
style="fill:#3D3DEA;fill-opacity:1.000000;stroke:black;stroke-width:0.000000;stroke-opacity:0.000000" />


<rect
width="2.485149"
height="21.428571"
rx="0.000000"
ry="0.000000"
x="433.487436"
y="120.069432"
id="col.pan"
style="fill:#3939EC;fill-opacity:1.000000;stroke:black;stroke-width:0.000000;stroke-opacity:0.000000" />


<rect
width="2.485149"
height="21.428571"
rx="0.000000"
ry="0.000000"
x="432.002288"
y="120.069432"
id="col.pan"
style="fill:#3535ED;fill-opacity:1.000000;stroke:black;stroke-width:0.000000;stroke-opacity:0.000000" />


<rect
width="2.485149"
height="21.428571"
rx="0.000000"
ry="0.000000"
x="430.517139"
y="120.069432"
id="col.pan"
style="fill:#3131EE;fill-opacity:1.000000;stroke:black;stroke-width:0.000000;stroke-opacity:0.000000" />


<rect
width="2.485149"
height="21.428571"
rx="0.000000"
ry="0.000000"
x="429.031991"
y="120.069432"
id="col.pan"
style="fill:#2E2EEF;fill-opacity:1.000000;stroke:black;stroke-width:0.000000;stroke-opacity:0.000000" />


<rect
width="2.485149"
height="21.428571"
rx="0.000000"
ry="0.000000"
x="427.546842"
y="120.069432"
id="col.pan"
style="fill:#2A2AF1;fill-opacity:1.000000;stroke:black;stroke-width:0.000000;stroke-opacity:0.000000" />


<rect
width="2.485149"
height="21.428571"
rx="0.000000"
ry="0.000000"
x="426.061694"
y="120.069432"
id="col.pan"
style="fill:#2626F2;fill-opacity:1.000000;stroke:black;stroke-width:0.000000;stroke-opacity:0.000000" />


<rect
width="2.485149"
height="21.428571"
rx="0.000000"
ry="0.000000"
x="424.576545"
y="120.069432"
id="col.pan"
style="fill:#2222F3;fill-opacity:1.000000;stroke:black;stroke-width:0.000000;stroke-opacity:0.000000" />


<rect
width="2.485149"
height="21.428571"
rx="0.000000"
ry="0.000000"
x="423.091397"
y="120.069432"
id="col.pan"
style="fill:#1E1EF5;fill-opacity:1.000000;stroke:black;stroke-width:0.000000;stroke-opacity:0.000000" />


<rect
width="2.485149"
height="21.428571"
rx="0.000000"
ry="0.000000"
x="421.606248"
y="120.069432"
id="col.pan"
style="fill:#1B1BF6;fill-opacity:1.000000;stroke:black;stroke-width:0.000000;stroke-opacity:0.000000" />


<rect
width="2.485149"
height="21.428571"
rx="0.000000"
ry="0.000000"
x="420.121100"
y="120.069432"
id="col.pan"
style="fill:#1717F7;fill-opacity:1.000000;stroke:black;stroke-width:0.000000;stroke-opacity:0.000000" />


<rect
width="2.485149"
height="21.428571"
rx="0.000000"
ry="0.000000"
x="418.635951"
y="120.069432"
id="col.pan"
style="fill:#1313F9;fill-opacity:1.000000;stroke:black;stroke-width:0.000000;stroke-opacity:0.000000" />


<rect
width="2.485149"
height="21.428571"
rx="0.000000"
ry="0.000000"
x="417.150803"
y="120.069432"
id="col.pan"
style="fill:#0F0FFA;fill-opacity:1.000000;stroke:black;stroke-width:0.000000;stroke-opacity:0.000000" />


<rect
width="2.485149"
height="21.428571"
rx="0.000000"
ry="0.000000"
x="415.665654"
y="120.069432"
id="col.pan"
style="fill:#0B0BFB;fill-opacity:1.000000;stroke:black;stroke-width:0.000000;stroke-opacity:0.000000" />


<rect
width="2.485149"
height="21.428571"
rx="0.000000"
ry="0.000000"
x="414.180505"
y="120.069432"
id="col.pan"
style="fill:#0808FC;fill-opacity:1.000000;stroke:black;stroke-width:0.000000;stroke-opacity:0.000000" />


<rect
width="2.485149"
height="21.428571"
rx="0.000000"
ry="0.000000"
x="412.695357"
y="120.069432"
id="col.pan"
style="fill:#0404FE;fill-opacity:1.000000;stroke:black;stroke-width:0.000000;stroke-opacity:0.000000" />


<rect
width="2.485149"
height="21.428571"
rx="0.000000"
ry="0.000000"
x="411.210208"
y="120.069432"
id="col.pan"
style="fill:#0000FF;fill-opacity:1.000000;stroke:black;stroke-width:0.000000;stroke-opacity:0.000000" />


<line
x1="411.210208469543" y1="120.069431651572" x2="411.210208469543" y2="146.855145937286"
id="tick"
style="stroke:black;stroke-width:2.000000;stroke-opacity:1" />


<line
x1="426.210208469543" y1="120.069431651572" x2="426.210208469543" y2="146.855145937286"
id="tick"
style="stroke:black;stroke-width:2.000000;stroke-opacity:1" />


<line
x1="441.210208469543" y1="120.069431651572" x2="441.210208469543" y2="146.855145937286"
id="tick"
style="stroke:black;stroke-width:2.000000;stroke-opacity:1" />


<line
x1="456.210208469543" y1="120.069431651572" x2="456.210208469543" y2="146.855145937286"
id="tick"
style="stroke:black;stroke-width:2.000000;stroke-opacity:1" />


<line
x1="471.210208469543" y1="120.069431651572" x2="471.210208469543" y2="146.855145937286"
id="tick"
style="stroke:black;stroke-width:2.000000;stroke-opacity:1" />


<line
x1="486.210208469543" y1="120.069431651572" x2="486.210208469543" y2="146.855145937286"
id="tick"
style="stroke:black;stroke-width:2.000000;stroke-opacity:1" />


<line
x1="501.210208469543" y1="120.069431651572" x2="501.210208469543" y2="146.855145937286"
id="tick"
style="stroke:black;stroke-width:2.000000;stroke-opacity:1" />


<line
x1="516.210208469543" y1="120.069431651572" x2="516.210208469543" y2="146.855145937286"
id="tick"
style="stroke:black;stroke-width:2.000000;stroke-opacity:1" />


<line
x1="531.210208469543" y1="120.069431651572" x2="531.210208469543" y2="146.855145937286"
id="tick"
style="stroke:black;stroke-width:2.000000;stroke-opacity:1" />


<line
x1="546.210208469543" y1="120.069431651572" x2="546.210208469543" y2="146.855145937286"
id="tick"
style="stroke:black;stroke-width:2.000000;stroke-opacity:1" />


<line
x1="561.210208469543" y1="120.069431651572" x2="561.210208469543" y2="146.855145937286"
id="tick"
style="stroke:black;stroke-width:2.000000;stroke-opacity:1" />


<text
x="560.467634"
y="170.069432"
id="color.panel.max.value"
style="font-size:21.428571px;text-anchor:middle;font-family:Arial,Helvetica;alignment-baseline:baseline;stroke.opacity:1;dominant-baseline:baseline"
fill="black"
>
1</text>


<text
x="411.952783"
y="170.069432"
id="color.panel.low.value"
style="font-size:21.428571px;text-anchor:middle;font-family:Arial,Helvetica;alignment-baseline:baseline;stroke.opacity:1;dominant-baseline:baseline"
fill="black"
>
-1</text>


<text
x="487.695357"
y="170.069432"
id="color.panel.mid.value"
style="font-size:21.428571px;text-anchor:middle;font-family:Arial,Helvetica;alignment-baseline:baseline;stroke.opacity:1;dominant-baseline:baseline"
fill="black"
>
0</text>

</svg>
