<?xml version="1.0" encoding="UTF-8"?>
<svg width="813.659863" height="611.865300"
xmlns="http://www.w3.org/2000/svg" xmlns:svg="http://www.w3.org/2000/svg"
>
<metadata id="metadata7">image/svg+xml</metadata>




<rect
width="26.666667"
height="26.666667"
rx="0.000000"
ry="0.000000"
x="254.999923"
y="295.273388"
id="BiochemicalReaction_988d9963cc89f4d5b02e808f3b7947a9_LEFT_TO_RIGHT"
style="fill:white;fill-opacity:0.600000;stroke:black;stroke-width:1.000000;stroke-opacity:1.000000" />




<ellipse
rx="35.000000"
ry="20.000000"
cx="386.535681"
cy="177.000000"
id="SmallMolecule_86e517d5a076fa0f9af5aadc9980e580"
style="fill:#0000FF;fill-opacity:0.600000;stroke:black;stroke-width:1.000000;stroke-opacity:0.000000" />


<path
d="M 369.03568051059 194.320508075689 A 35 20 1 1 0 369.03568051059 159.679491924311"
id="SmallMolecule_86e517d5a076fa0f9af5aadc9980e580"
style="fill:#E9E941;fill-opacity:0.600000;stroke-width:1;stroke:black;stroke-opacity:0.000000"
transform = "rotate(0.000000 0.000000 0.000000)"
/>


<path
d="M 386.53568051059 197 A 35 20 1 1 0 386.53568051059 157"
id="SmallMolecule_86e517d5a076fa0f9af5aadc9980e580"
style="fill:white;fill-opacity:0.600000;stroke-width:1;stroke:black;stroke-opacity:0.000000"
transform = "rotate(0.000000 0.000000 0.000000)"
/>


<path
d="M 386.53568051059 197 A 35 20 1 1 0 386.53568051059 157"
id="SmallMolecule_86e517d5a076fa0f9af5aadc9980e580"
style="fill:#0000FF;fill-opacity:0.600000;stroke-width:1;stroke:black;stroke-opacity:0.000000"
transform = "rotate(0.000000 0.000000 0.000000)"
/>


<path
d="M 404.03568051059 194.320508075689 A 35 20 1 0 0 404.03568051059 159.679491924311"
id="SmallMolecule_86e517d5a076fa0f9af5aadc9980e580"
style="fill:white;fill-opacity:0.600000;stroke-width:1;stroke:black;stroke-opacity:0.000000"
transform = "rotate(0.000000 0.000000 0.000000)"
/>


<path
d="M 404.03568051059 194.320508075689 A 35 20 1 0 0 404.03568051059 159.679491924311"
id="SmallMolecule_86e517d5a076fa0f9af5aadc9980e580"
style="fill:#0505FD;fill-opacity:0.600000;stroke-width:1;stroke:black;stroke-opacity:0.000000"
transform = "rotate(0.000000 0.000000 0.000000)"
/>


<path
d="M 421.53568051059 177 A 35 20 1 0 0 421.53568051059 177"
id="SmallMolecule_86e517d5a076fa0f9af5aadc9980e580"
style="fill:white;fill-opacity:0.600000;stroke-width:1;stroke:black;stroke-opacity:0.000000"
transform = "rotate(0.000000 0.000000 0.000000)"
/>


<ellipse
rx="35.000000"
ry="20.000000"
cx="386.535681"
cy="177.000000"
id="SmallMolecule_86e517d5a076fa0f9af5aadc9980e580"
style="fill:white;fill-opacity:0.000000;stroke:black;stroke-width:1.000000;stroke-opacity:1.000000" />



<text
x="386.535681"
y="165.000000"
id="SmallMolecule_86e517d5a076fa0f9af5aadc9980e580"
style="font-size:18.000000px;text-anchor:middle;font-family:Arial,Helvetica;alignment-baseline:baseline;stroke.opacity:1;dominant-baseline:baseline"
fill="black"
>
Adenosi-</text>


<text
x="386.535681"
y="183.000000"
id="SmallMolecule_86e517d5a076fa0f9af5aadc9980e580"
style="font-size:18.000000px;text-anchor:middle;font-family:Arial,Helvetica;alignment-baseline:baseline;stroke.opacity:1;dominant-baseline:baseline"
fill="black"
>
ne diph-</text>


<text
x="386.535681"
y="201.000000"
id="SmallMolecule_86e517d5a076fa0f9af5aadc9980e580"
style="font-size:18.000000px;text-anchor:middle;font-family:Arial,Helvetica;alignment-baseline:baseline;stroke.opacity:1;dominant-baseline:baseline"
fill="black"
>
osphate</text>



<ellipse
rx="35.000000"
ry="20.000000"
cx="448.659863"
cy="306.002195"
id="SmallMolecule_1c1428de82be4f3155b857dd697fc9e4"
style="fill:#FFFF00;fill-opacity:0.600000;stroke:black;stroke-width:1.000000;stroke-opacity:0.000000" />


<path
d="M 431.159863203899 323.322702682914 A 35 20 1 1 0 431.159863203899 288.681686531536"
id="SmallMolecule_1c1428de82be4f3155b857dd697fc9e4"
style="fill:#9292CD;fill-opacity:0.600000;stroke-width:1;stroke:black;stroke-opacity:0.000000"
transform = "rotate(0.000000 0.000000 0.000000)"
/>


<path
d="M 448.659863203899 326.002194607225 A 35 20 1 1 0 448.659863203899 286.002194607225"
id="SmallMolecule_1c1428de82be4f3155b857dd697fc9e4"
style="fill:white;fill-opacity:0.600000;stroke-width:1;stroke:black;stroke-opacity:0.000000"
transform = "rotate(0.000000 0.000000 0.000000)"
/>


<path
d="M 448.659863203899 326.002194607225 A 35 20 1 1 0 448.659863203899 286.002194607225"
id="SmallMolecule_1c1428de82be4f3155b857dd697fc9e4"
style="fill:#E2E254;fill-opacity:0.600000;stroke-width:1;stroke:black;stroke-opacity:0.000000"
transform = "rotate(0.000000 0.000000 0.000000)"
/>


<path
d="M 466.159863203899 323.322702682914 A 35 20 1 0 0 466.159863203899 288.681686531536"
id="SmallMolecule_1c1428de82be4f3155b857dd697fc9e4"
style="fill:white;fill-opacity:0.600000;stroke-width:1;stroke:black;stroke-opacity:0.000000"
transform = "rotate(0.000000 0.000000 0.000000)"
/>


<path
d="M 466.159863203899 323.322702682914 A 35 20 1 0 0 466.159863203899 288.681686531536"
id="SmallMolecule_1c1428de82be4f3155b857dd697fc9e4"
style="fill:#E3E352;fill-opacity:0.600000;stroke-width:1;stroke:black;stroke-opacity:0.000000"
transform = "rotate(0.000000 0.000000 0.000000)"
/>


<path
d="M 483.659863203899 306.002194607225 A 35 20 1 0 0 483.659863203899 306.002194607225"
id="SmallMolecule_1c1428de82be4f3155b857dd697fc9e4"
style="fill:white;fill-opacity:0.600000;stroke-width:1;stroke:black;stroke-opacity:0.000000"
transform = "rotate(0.000000 0.000000 0.000000)"
/>


<ellipse
rx="35.000000"
ry="20.000000"
cx="448.659863"
cy="306.002195"
id="SmallMolecule_1c1428de82be4f3155b857dd697fc9e4"
style="fill:white;fill-opacity:0.000000;stroke:black;stroke-width:1.000000;stroke-opacity:1.000000" />



<text
x="448.659863"
y="294.002195"
id="SmallMolecule_1c1428de82be4f3155b857dd697fc9e4"
style="font-size:18.000000px;text-anchor:middle;font-family:Arial,Helvetica;alignment-baseline:baseline;stroke.opacity:1;dominant-baseline:baseline"
fill="black"
>
Adenosi-</text>


<text
x="448.659863"
y="312.002195"
id="SmallMolecule_1c1428de82be4f3155b857dd697fc9e4"
style="font-size:18.000000px;text-anchor:middle;font-family:Arial,Helvetica;alignment-baseline:baseline;stroke.opacity:1;dominant-baseline:baseline"
fill="black"
>
ne trip-</text>


<text
x="448.659863"
y="330.002195"
id="SmallMolecule_1c1428de82be4f3155b857dd697fc9e4"
style="font-size:18.000000px;text-anchor:middle;font-family:Arial,Helvetica;alignment-baseline:baseline;stroke.opacity:1;dominant-baseline:baseline"
fill="black"
>
hosphate</text>



<ellipse
rx="35.000000"
ry="20.000000"
cx="135.000000"
cy="227.411378"
id="SmallMolecule_cd1caa513819295acfa381c9afc8e1da"
style="fill:#E9E941;fill-opacity:0.600000;stroke:black;stroke-width:1.000000;stroke-opacity:0.000000" />


<path
d="M 117.5 244.731885728517 A 35 20 1 1 0 117.5 210.090869577139"
id="SmallMolecule_cd1caa513819295acfa381c9afc8e1da"
style="fill:#E0E05C;fill-opacity:0.600000;stroke-width:1;stroke:black;stroke-opacity:0.000000"
transform = "rotate(0.000000 0.000000 0.000000)"
/>


<path
d="M 135 247.411377652828 A 35 20 1 1 0 135 207.411377652828"
id="SmallMolecule_cd1caa513819295acfa381c9afc8e1da"
style="fill:white;fill-opacity:0.600000;stroke-width:1;stroke:black;stroke-opacity:0.000000"
transform = "rotate(0.000000 0.000000 0.000000)"
/>


<path
d="M 135 247.411377652828 A 35 20 1 1 0 135 207.411377652828"
id="SmallMolecule_cd1caa513819295acfa381c9afc8e1da"
style="fill:#FFFF00;fill-opacity:0.600000;stroke-width:1;stroke:black;stroke-opacity:0.000000"
transform = "rotate(0.000000 0.000000 0.000000)"
/>


<path
d="M 152.5 244.731885728517 A 35 20 1 0 0 152.5 210.090869577139"
id="SmallMolecule_cd1caa513819295acfa381c9afc8e1da"
style="fill:white;fill-opacity:0.600000;stroke-width:1;stroke:black;stroke-opacity:0.000000"
transform = "rotate(0.000000 0.000000 0.000000)"
/>


<path
d="M 152.5 244.731885728517 A 35 20 1 0 0 152.5 210.090869577139"
id="SmallMolecule_cd1caa513819295acfa381c9afc8e1da"
style="fill:#C2C2B3;fill-opacity:0.600000;stroke-width:1;stroke:black;stroke-opacity:0.000000"
transform = "rotate(0.000000 0.000000 0.000000)"
/>


<path
d="M 170 227.411377652828 A 35 20 1 0 0 170 227.411377652828"
id="SmallMolecule_cd1caa513819295acfa381c9afc8e1da"
style="fill:white;fill-opacity:0.600000;stroke-width:1;stroke:black;stroke-opacity:0.000000"
transform = "rotate(0.000000 0.000000 0.000000)"
/>


<ellipse
rx="35.000000"
ry="20.000000"
cx="135.000000"
cy="227.411378"
id="SmallMolecule_cd1caa513819295acfa381c9afc8e1da"
style="fill:white;fill-opacity:0.000000;stroke:black;stroke-width:1.000000;stroke-opacity:1.000000" />


<text
x="135.000000"
y="233.411378"
id="SmallMolecule_cd1caa513819295acfa381c9afc8e1da"
style="font-size:18.000000px;text-anchor:middle;font-family:Arial,Helvetica;alignment-baseline:baseline;stroke.opacity:1;dominant-baseline:baseline"
fill="black"
>
Phosphate</text>



<ellipse
rx="35.000000"
ry="20.000000"
cx="135.000000"
cy="370.593012"
id="SmallMolecule_bd08fd46b074a4f56f0ee8d09f69306c"
style="fill:#9292CD;fill-opacity:0.600000;stroke:black;stroke-width:1.000000;stroke-opacity:0.000000" />


<path
d="M 117.5 387.913519637311 A 35 20 1 1 0 117.5 353.272503485933"
id="SmallMolecule_bd08fd46b074a4f56f0ee8d09f69306c"
style="fill:#F7F718;fill-opacity:0.600000;stroke-width:1;stroke:black;stroke-opacity:0.000000"
transform = "rotate(0.000000 0.000000 0.000000)"
/>


<path
d="M 135 390.593011561622 A 35 20 1 1 0 135 350.593011561622"
id="SmallMolecule_bd08fd46b074a4f56f0ee8d09f69306c"
style="fill:white;fill-opacity:0.600000;stroke-width:1;stroke:black;stroke-opacity:0.000000"
transform = "rotate(0.000000 0.000000 0.000000)"
/>


<path
d="M 135 390.593011561622 A 35 20 1 1 0 135 350.593011561622"
id="SmallMolecule_bd08fd46b074a4f56f0ee8d09f69306c"
style="fill:#DBDB69;fill-opacity:0.600000;stroke-width:1;stroke:black;stroke-opacity:0.000000"
transform = "rotate(0.000000 0.000000 0.000000)"
/>


<path
d="M 152.5 387.913519637311 A 35 20 1 0 0 152.5 353.272503485933"
id="SmallMolecule_bd08fd46b074a4f56f0ee8d09f69306c"
style="fill:white;fill-opacity:0.600000;stroke-width:1;stroke:black;stroke-opacity:0.000000"
transform = "rotate(0.000000 0.000000 0.000000)"
/>


<path
d="M 152.5 387.913519637311 A 35 20 1 0 0 152.5 353.272503485933"
id="SmallMolecule_bd08fd46b074a4f56f0ee8d09f69306c"
style="fill:#5555E2;fill-opacity:0.600000;stroke-width:1;stroke:black;stroke-opacity:0.000000"
transform = "rotate(0.000000 0.000000 0.000000)"
/>


<path
d="M 170 370.593011561622 A 35 20 1 0 0 170 370.593011561622"
id="SmallMolecule_bd08fd46b074a4f56f0ee8d09f69306c"
style="fill:white;fill-opacity:0.600000;stroke-width:1;stroke:black;stroke-opacity:0.000000"
transform = "rotate(0.000000 0.000000 0.000000)"
/>


<ellipse
rx="35.000000"
ry="20.000000"
cx="135.000000"
cy="370.593012"
id="SmallMolecule_bd08fd46b074a4f56f0ee8d09f69306c"
style="fill:white;fill-opacity:0.000000;stroke:black;stroke-width:1.000000;stroke-opacity:1.000000" />


<text
x="135.000000"
y="376.593012"
id="SmallMolecule_bd08fd46b074a4f56f0ee8d09f69306c"
style="font-size:18.000000px;text-anchor:middle;font-family:Arial,Helvetica;alignment-baseline:baseline;stroke.opacity:1;dominant-baseline:baseline"
fill="black"
>
Water</text>



<ellipse
rx="35.000000"
ry="20.000000"
cx="246.943909"
cy="466.865300"
id="SmallMolecule_bd73f9ae49984a15b5882b6be47b64e0"
style="fill:#E0E05C;fill-opacity:0.600000;stroke:black;stroke-width:1.000000;stroke-opacity:0.000000" />


<path
d="M 229.443909101107 484.185808192915 A 35 20 1 1 0 229.443909101107 449.544792041537"
id="SmallMolecule_bd73f9ae49984a15b5882b6be47b64e0"
style="fill:#2525F2;fill-opacity:0.600000;stroke-width:1;stroke:black;stroke-opacity:0.000000"
transform = "rotate(0.000000 0.000000 0.000000)"
/>


<path
d="M 246.943909101107 486.865300117226 A 35 20 1 1 0 246.943909101107 446.865300117226"
id="SmallMolecule_bd73f9ae49984a15b5882b6be47b64e0"
style="fill:white;fill-opacity:0.600000;stroke-width:1;stroke:black;stroke-opacity:0.000000"
transform = "rotate(0.000000 0.000000 0.000000)"
/>


<path
d="M 246.943909101107 486.865300117226 A 35 20 1 1 0 246.943909101107 446.865300117226"
id="SmallMolecule_bd73f9ae49984a15b5882b6be47b64e0"
style="fill:#2121F4;fill-opacity:0.600000;stroke-width:1;stroke:black;stroke-opacity:0.000000"
transform = "rotate(0.000000 0.000000 0.000000)"
/>


<path
d="M 264.443909101107 484.185808192915 A 35 20 1 0 0 264.443909101107 449.544792041537"
id="SmallMolecule_bd73f9ae49984a15b5882b6be47b64e0"
style="fill:white;fill-opacity:0.600000;stroke-width:1;stroke:black;stroke-opacity:0.000000"
transform = "rotate(0.000000 0.000000 0.000000)"
/>


<path
d="M 264.443909101107 484.185808192915 A 35 20 1 0 0 264.443909101107 449.544792041537"
id="SmallMolecule_bd73f9ae49984a15b5882b6be47b64e0"
style="fill:#EDED34;fill-opacity:0.600000;stroke-width:1;stroke:black;stroke-opacity:0.000000"
transform = "rotate(0.000000 0.000000 0.000000)"
/>


<path
d="M 281.943909101107 466.865300117226 A 35 20 1 0 0 281.943909101107 466.865300117226"
id="SmallMolecule_bd73f9ae49984a15b5882b6be47b64e0"
style="fill:white;fill-opacity:0.600000;stroke-width:1;stroke:black;stroke-opacity:0.000000"
transform = "rotate(0.000000 0.000000 0.000000)"
/>


<ellipse
rx="35.000000"
ry="20.000000"
cx="246.943909"
cy="466.865300"
id="SmallMolecule_bd73f9ae49984a15b5882b6be47b64e0"
style="fill:white;fill-opacity:0.000000;stroke:black;stroke-width:1.000000;stroke-opacity:1.000000" />



<text
x="246.943909"
y="454.865300"
id="SmallMolecule_bd73f9ae49984a15b5882b6be47b64e0"
style="font-size:18.000000px;text-anchor:middle;font-family:Arial,Helvetica;alignment-baseline:baseline;stroke.opacity:1;dominant-baseline:baseline"
fill="black"
>
Tenofov-</text>


<text
x="246.943909"
y="472.865300"
id="SmallMolecule_bd73f9ae49984a15b5882b6be47b64e0"
style="font-size:18.000000px;text-anchor:middle;font-family:Arial,Helvetica;alignment-baseline:baseline;stroke.opacity:1;dominant-baseline:baseline"
fill="black"
>
ir Diph-</text>


<text
x="246.943909"
y="490.865300"
id="SmallMolecule_bd73f9ae49984a15b5882b6be47b64e0"
style="font-size:18.000000px;text-anchor:middle;font-family:Arial,Helvetica;alignment-baseline:baseline;stroke.opacity:1;dominant-baseline:baseline"
fill="black"
>
osphate</text>


<rect
width="26.666667"
height="26.666667"
rx="0.000000"
ry="0.000000"
x="351.840649"
y="257.949022"
id="Interaction_15887dff56f648d08cf9d94de6cf6b5c"
style="fill:white;fill-opacity:0.600000;stroke:black;stroke-width:1.000000;stroke-opacity:1.000000" />



<text
x="365.173982"
y="279.282356"
id="Interaction_15887dff56f648d08cf9d94de6cf6b5c"
style="font-size:24.000000px;text-anchor:middle;font-family:Arial,Helvetica;alignment-baseline:baseline;stroke.opacity:1;dominant-baseline:baseline"
fill="black"
>
\\</text>




<path d="M281.000000 308.000000 C 309.000000 308.000000, 373.000000 307.000000,413.000000 306.000000" stroke="black"  fill="transparent"/>

<line
x1="373" y1="307" x2="413" y2="306"
id="0"
style="stroke:black;stroke-width:1.000000;stroke-opacity:0" />


<line
x1="309" y1="308" x2="281" y2="308"
id="SmallMolecule_1c1428de82be4f3155b857dd697fc9e4--to--BiochemicalReaction_988d9963cc89f4d5b02e808f3b7947a9_LEFT_TO_RIGHT-input"
style="stroke:black;stroke-width:1.000000;stroke-opacity:0" />


<path d="M255.000000 300.000000 C 234.000000 288.000000, 195.000000 264.000000,167.000000 247.000000" stroke="black"  fill="transparent"/>

<line
x1="234" y1="288" x2="255" y2="300"
id="0"
style="stroke:black;stroke-width:1.000000;stroke-opacity:0" />


<line
x1="195" y1="264" x2="167" y2="247"
id="BiochemicalReaction_988d9963cc89f4d5b02e808f3b7947a9_LEFT_TO_RIGHT-output--to--SmallMolecule_cd1caa513819295acfa381c9afc8e1da"
style="stroke:black;stroke-width:1.000000;stroke-opacity:0" />


<polygon
points = "167,247 158.2,242.6 158.2,251.4"
id="line"
style="fill:black; stroke:#000000; stroke-width:1"
transform = "rotate(211.263732 167.000000 247.000000)"
/>


<path d="M413.000000 291.000000 C 401.000000 286.000000, 388.000000 280.000000,378.000000 277.000000" stroke="black"  fill="transparent"/>

<line
x1="401" y1="286" x2="413" y2="291"
id="0"
style="stroke:black;stroke-width:1.000000;stroke-opacity:0" />


<line
x1="388" y1="280" x2="378" y2="277"
id="SmallMolecule_1c1428de82be4f3155b857dd697fc9e4--to--Interaction_15887dff56f648d08cf9d94de6cf6b5c-input"
style="stroke:black;stroke-width:1.000000;stroke-opacity:0" />


<polygon
points = "378,277 364.8,272.6 369.2,277 364.8,281.4"
id="line"
style="fill:black; stroke:#000000; stroke-width:1"
transform = "rotate(196.699244 378.000000 277.000000)"
/>


<path d="M280.000000 295.000000 C 301.000000 271.000000, 344.000000 224.000000,368.000000 197.000000" stroke="black"  fill="transparent"/>

<line
x1="301" y1="271" x2="280" y2="295"
id="0"
style="stroke:black;stroke-width:1.000000;stroke-opacity:0" />


<line
x1="344" y1="224" x2="368" y2="197"
id="BiochemicalReaction_988d9963cc89f4d5b02e808f3b7947a9_LEFT_TO_RIGHT-output--to--SmallMolecule_86e517d5a076fa0f9af5aadc9980e580"
style="stroke:black;stroke-width:1.000000;stroke-opacity:0" />


<polygon
points = "368,197 359.2,192.6 359.2,201.4"
id="line"
style="fill:black; stroke:#000000; stroke-width:1"
transform = "rotate(-48.366461 368.000000 197.000000)"
/>


<path d="M259.000000 446.000000 C 283.000000 406.000000, 336.000000 319.000000,356.000000 285.000000" stroke="black"  fill="transparent"/>

<line
x1="283" y1="406" x2="259" y2="446"
id="0"
style="stroke:black;stroke-width:1.000000;stroke-opacity:0" />


<line
x1="336" y1="319" x2="356" y2="285"
id="SmallMolecule_bd73f9ae49984a15b5882b6be47b64e0--to--Interaction_15887dff56f648d08cf9d94de6cf6b5c-input"
style="stroke:black;stroke-width:1.000000;stroke-opacity:0" />


<polygon
points = "356,285 342.8,280.6 347.2,285 342.8,289.4"
id="line"
style="fill:black; stroke:#000000; stroke-width:1"
transform = "rotate(-59.534455 356.000000 285.000000)"
/>


<path d="M255.000000 314.000000 C 235.000000 323.000000, 197.000000 341.000000,170.000000 354.000000" stroke="black"  fill="transparent"/>

<line
x1="197" y1="341" x2="170" y2="354"
id="0"
style="stroke:black;stroke-width:1.000000;stroke-opacity:0" />


<line
x1="235" y1="323" x2="255" y2="314"
id="SmallMolecule_bd08fd46b074a4f56f0ee8d09f69306c--to--BiochemicalReaction_988d9963cc89f4d5b02e808f3b7947a9_LEFT_TO_RIGHT-input"
style="stroke:black;stroke-width:1.000000;stroke-opacity:0" />






<rect
width="2.485149"
height="21.428571"
rx="0.000000"
ry="0.000000"
x="482.174715"
y="74.500000"
id="col.pan"
style="fill:#FFFF00;fill-opacity:1.000000;stroke:black;stroke-width:0.000000;stroke-opacity:0.000000" />


<rect
width="2.485149"
height="21.428571"
rx="0.000000"
ry="0.000000"
x="480.689566"
y="74.500000"
id="col.pan"
style="fill:#FEFE04;fill-opacity:1.000000;stroke:black;stroke-width:0.000000;stroke-opacity:0.000000" />


<rect
width="2.485149"
height="21.428571"
rx="0.000000"
ry="0.000000"
x="479.204418"
y="74.500000"
id="col.pan"
style="fill:#FCFC08;fill-opacity:1.000000;stroke:black;stroke-width:0.000000;stroke-opacity:0.000000" />


<rect
width="2.485149"
height="21.428571"
rx="0.000000"
ry="0.000000"
x="477.719269"
y="74.500000"
id="col.pan"
style="fill:#FBFB0B;fill-opacity:1.000000;stroke:black;stroke-width:0.000000;stroke-opacity:0.000000" />


<rect
width="2.485149"
height="21.428571"
rx="0.000000"
ry="0.000000"
x="476.234121"
y="74.500000"
id="col.pan"
style="fill:#FAFA0F;fill-opacity:1.000000;stroke:black;stroke-width:0.000000;stroke-opacity:0.000000" />


<rect
width="2.485149"
height="21.428571"
rx="0.000000"
ry="0.000000"
x="474.748972"
y="74.500000"
id="col.pan"
style="fill:#F9F913;fill-opacity:1.000000;stroke:black;stroke-width:0.000000;stroke-opacity:0.000000" />


<rect
width="2.485149"
height="21.428571"
rx="0.000000"
ry="0.000000"
x="473.263824"
y="74.500000"
id="col.pan"
style="fill:#F7F717;fill-opacity:1.000000;stroke:black;stroke-width:0.000000;stroke-opacity:0.000000" />


<rect
width="2.485149"
height="21.428571"
rx="0.000000"
ry="0.000000"
x="471.778675"
y="74.500000"
id="col.pan"
style="fill:#F6F61B;fill-opacity:1.000000;stroke:black;stroke-width:0.000000;stroke-opacity:0.000000" />


<rect
width="2.485149"
height="21.428571"
rx="0.000000"
ry="0.000000"
x="470.293527"
y="74.500000"
id="col.pan"
style="fill:#F5F51E;fill-opacity:1.000000;stroke:black;stroke-width:0.000000;stroke-opacity:0.000000" />


<rect
width="2.485149"
height="21.428571"
rx="0.000000"
ry="0.000000"
x="468.808378"
y="74.500000"
id="col.pan"
style="fill:#F3F322;fill-opacity:1.000000;stroke:black;stroke-width:0.000000;stroke-opacity:0.000000" />


<rect
width="2.485149"
height="21.428571"
rx="0.000000"
ry="0.000000"
x="467.323230"
y="74.500000"
id="col.pan"
style="fill:#F2F226;fill-opacity:1.000000;stroke:black;stroke-width:0.000000;stroke-opacity:0.000000" />


<rect
width="2.485149"
height="21.428571"
rx="0.000000"
ry="0.000000"
x="465.838081"
y="74.500000"
id="col.pan"
style="fill:#F1F12A;fill-opacity:1.000000;stroke:black;stroke-width:0.000000;stroke-opacity:0.000000" />


<rect
width="2.485149"
height="21.428571"
rx="0.000000"
ry="0.000000"
x="464.352933"
y="74.500000"
id="col.pan"
style="fill:#EFEF2E;fill-opacity:1.000000;stroke:black;stroke-width:0.000000;stroke-opacity:0.000000" />


<rect
width="2.485149"
height="21.428571"
rx="0.000000"
ry="0.000000"
x="462.867784"
y="74.500000"
id="col.pan"
style="fill:#EEEE31;fill-opacity:1.000000;stroke:black;stroke-width:0.000000;stroke-opacity:0.000000" />


<rect
width="2.485149"
height="21.428571"
rx="0.000000"
ry="0.000000"
x="461.382635"
y="74.500000"
id="col.pan"
style="fill:#EDED35;fill-opacity:1.000000;stroke:black;stroke-width:0.000000;stroke-opacity:0.000000" />


<rect
width="2.485149"
height="21.428571"
rx="0.000000"
ry="0.000000"
x="459.897487"
y="74.500000"
id="col.pan"
style="fill:#ECEC39;fill-opacity:1.000000;stroke:black;stroke-width:0.000000;stroke-opacity:0.000000" />


<rect
width="2.485149"
height="21.428571"
rx="0.000000"
ry="0.000000"
x="458.412338"
y="74.500000"
id="col.pan"
style="fill:#EAEA3D;fill-opacity:1.000000;stroke:black;stroke-width:0.000000;stroke-opacity:0.000000" />


<rect
width="2.485149"
height="21.428571"
rx="0.000000"
ry="0.000000"
x="456.927190"
y="74.500000"
id="col.pan"
style="fill:#E9E941;fill-opacity:1.000000;stroke:black;stroke-width:0.000000;stroke-opacity:0.000000" />


<rect
width="2.485149"
height="21.428571"
rx="0.000000"
ry="0.000000"
x="455.442041"
y="74.500000"
id="col.pan"
style="fill:#E8E844;fill-opacity:1.000000;stroke:black;stroke-width:0.000000;stroke-opacity:0.000000" />


<rect
width="2.485149"
height="21.428571"
rx="0.000000"
ry="0.000000"
x="453.956893"
y="74.500000"
id="col.pan"
style="fill:#E6E648;fill-opacity:1.000000;stroke:black;stroke-width:0.000000;stroke-opacity:0.000000" />


<rect
width="2.485149"
height="21.428571"
rx="0.000000"
ry="0.000000"
x="452.471744"
y="74.500000"
id="col.pan"
style="fill:#E5E54C;fill-opacity:1.000000;stroke:black;stroke-width:0.000000;stroke-opacity:0.000000" />


<rect
width="2.485149"
height="21.428571"
rx="0.000000"
ry="0.000000"
x="450.986596"
y="74.500000"
id="col.pan"
style="fill:#E4E450;fill-opacity:1.000000;stroke:black;stroke-width:0.000000;stroke-opacity:0.000000" />


<rect
width="2.485149"
height="21.428571"
rx="0.000000"
ry="0.000000"
x="449.501447"
y="74.500000"
id="col.pan"
style="fill:#E2E254;fill-opacity:1.000000;stroke:black;stroke-width:0.000000;stroke-opacity:0.000000" />


<rect
width="2.485149"
height="21.428571"
rx="0.000000"
ry="0.000000"
x="448.016299"
y="74.500000"
id="col.pan"
style="fill:#E1E157;fill-opacity:1.000000;stroke:black;stroke-width:0.000000;stroke-opacity:0.000000" />


<rect
width="2.485149"
height="21.428571"
rx="0.000000"
ry="0.000000"
x="446.531150"
y="74.500000"
id="col.pan"
style="fill:#E0E05B;fill-opacity:1.000000;stroke:black;stroke-width:0.000000;stroke-opacity:0.000000" />


<rect
width="2.485149"
height="21.428571"
rx="0.000000"
ry="0.000000"
x="445.046002"
y="74.500000"
id="col.pan"
style="fill:#DFDF5F;fill-opacity:1.000000;stroke:black;stroke-width:0.000000;stroke-opacity:0.000000" />


<rect
width="2.485149"
height="21.428571"
rx="0.000000"
ry="0.000000"
x="443.560853"
y="74.500000"
id="col.pan"
style="fill:#DDDD63;fill-opacity:1.000000;stroke:black;stroke-width:0.000000;stroke-opacity:0.000000" />


<rect
width="2.485149"
height="21.428571"
rx="0.000000"
ry="0.000000"
x="442.075705"
y="74.500000"
id="col.pan"
style="fill:#DCDC67;fill-opacity:1.000000;stroke:black;stroke-width:0.000000;stroke-opacity:0.000000" />


<rect
width="2.485149"
height="21.428571"
rx="0.000000"
ry="0.000000"
x="440.590556"
y="74.500000"
id="col.pan"
style="fill:#DBDB6A;fill-opacity:1.000000;stroke:black;stroke-width:0.000000;stroke-opacity:0.000000" />


<rect
width="2.485149"
height="21.428571"
rx="0.000000"
ry="0.000000"
x="439.105408"
y="74.500000"
id="col.pan"
style="fill:#D9D96E;fill-opacity:1.000000;stroke:black;stroke-width:0.000000;stroke-opacity:0.000000" />


<rect
width="2.485149"
height="21.428571"
rx="0.000000"
ry="0.000000"
x="437.620259"
y="74.500000"
id="col.pan"
style="fill:#D8D872;fill-opacity:1.000000;stroke:black;stroke-width:0.000000;stroke-opacity:0.000000" />


<rect
width="2.485149"
height="21.428571"
rx="0.000000"
ry="0.000000"
x="436.135111"
y="74.500000"
id="col.pan"
style="fill:#D7D776;fill-opacity:1.000000;stroke:black;stroke-width:0.000000;stroke-opacity:0.000000" />


<rect
width="2.485149"
height="21.428571"
rx="0.000000"
ry="0.000000"
x="434.649962"
y="74.500000"
id="col.pan"
style="fill:#D5D57A;fill-opacity:1.000000;stroke:black;stroke-width:0.000000;stroke-opacity:0.000000" />


<rect
width="2.485149"
height="21.428571"
rx="0.000000"
ry="0.000000"
x="433.164814"
y="74.500000"
id="col.pan"
style="fill:#D4D47D;fill-opacity:1.000000;stroke:black;stroke-width:0.000000;stroke-opacity:0.000000" />


<rect
width="2.485149"
height="21.428571"
rx="0.000000"
ry="0.000000"
x="431.679665"
y="74.500000"
id="col.pan"
style="fill:#D3D381;fill-opacity:1.000000;stroke:black;stroke-width:0.000000;stroke-opacity:0.000000" />


<rect
width="2.485149"
height="21.428571"
rx="0.000000"
ry="0.000000"
x="430.194517"
y="74.500000"
id="col.pan"
style="fill:#D2D285;fill-opacity:1.000000;stroke:black;stroke-width:0.000000;stroke-opacity:0.000000" />


<rect
width="2.485149"
height="21.428571"
rx="0.000000"
ry="0.000000"
x="428.709368"
y="74.500000"
id="col.pan"
style="fill:#D0D089;fill-opacity:1.000000;stroke:black;stroke-width:0.000000;stroke-opacity:0.000000" />


<rect
width="2.485149"
height="21.428571"
rx="0.000000"
ry="0.000000"
x="427.224220"
y="74.500000"
id="col.pan"
style="fill:#CFCF8D;fill-opacity:1.000000;stroke:black;stroke-width:0.000000;stroke-opacity:0.000000" />


<rect
width="2.485149"
height="21.428571"
rx="0.000000"
ry="0.000000"
x="425.739071"
y="74.500000"
id="col.pan"
style="fill:#CECE90;fill-opacity:1.000000;stroke:black;stroke-width:0.000000;stroke-opacity:0.000000" />


<rect
width="2.485149"
height="21.428571"
rx="0.000000"
ry="0.000000"
x="424.253923"
y="74.500000"
id="col.pan"
style="fill:#CCCC94;fill-opacity:1.000000;stroke:black;stroke-width:0.000000;stroke-opacity:0.000000" />


<rect
width="2.485149"
height="21.428571"
rx="0.000000"
ry="0.000000"
x="422.768774"
y="74.500000"
id="col.pan"
style="fill:#CBCB98;fill-opacity:1.000000;stroke:black;stroke-width:0.000000;stroke-opacity:0.000000" />


<rect
width="2.485149"
height="21.428571"
rx="0.000000"
ry="0.000000"
x="421.283626"
y="74.500000"
id="col.pan"
style="fill:#CACA9C;fill-opacity:1.000000;stroke:black;stroke-width:0.000000;stroke-opacity:0.000000" />


<rect
width="2.485149"
height="21.428571"
rx="0.000000"
ry="0.000000"
x="419.798477"
y="74.500000"
id="col.pan"
style="fill:#C8C8A0;fill-opacity:1.000000;stroke:black;stroke-width:0.000000;stroke-opacity:0.000000" />


<rect
width="2.485149"
height="21.428571"
rx="0.000000"
ry="0.000000"
x="418.313329"
y="74.500000"
id="col.pan"
style="fill:#C7C7A3;fill-opacity:1.000000;stroke:black;stroke-width:0.000000;stroke-opacity:0.000000" />


<rect
width="2.485149"
height="21.428571"
rx="0.000000"
ry="0.000000"
x="416.828180"
y="74.500000"
id="col.pan"
style="fill:#C6C6A7;fill-opacity:1.000000;stroke:black;stroke-width:0.000000;stroke-opacity:0.000000" />


<rect
width="2.485149"
height="21.428571"
rx="0.000000"
ry="0.000000"
x="415.343032"
y="74.500000"
id="col.pan"
style="fill:#C5C5AB;fill-opacity:1.000000;stroke:black;stroke-width:0.000000;stroke-opacity:0.000000" />


<rect
width="2.485149"
height="21.428571"
rx="0.000000"
ry="0.000000"
x="413.857883"
y="74.500000"
id="col.pan"
style="fill:#C3C3AF;fill-opacity:1.000000;stroke:black;stroke-width:0.000000;stroke-opacity:0.000000" />


<rect
width="2.485149"
height="21.428571"
rx="0.000000"
ry="0.000000"
x="412.372734"
y="74.500000"
id="col.pan"
style="fill:#C2C2B3;fill-opacity:1.000000;stroke:black;stroke-width:0.000000;stroke-opacity:0.000000" />


<rect
width="2.485149"
height="21.428571"
rx="0.000000"
ry="0.000000"
x="410.887586"
y="74.500000"
id="col.pan"
style="fill:#C1C1B6;fill-opacity:1.000000;stroke:black;stroke-width:0.000000;stroke-opacity:0.000000" />


<rect
width="2.485149"
height="21.428571"
rx="0.000000"
ry="0.000000"
x="409.402437"
y="74.500000"
id="col.pan"
style="fill:#BFBFBA;fill-opacity:1.000000;stroke:black;stroke-width:0.000000;stroke-opacity:0.000000" />


<rect
width="2.485149"
height="21.428571"
rx="0.000000"
ry="0.000000"
x="407.917289"
y="74.500000"
id="col.pan"
style="fill:#BEBEBE;fill-opacity:1.000000;stroke:black;stroke-width:0.000000;stroke-opacity:0.000000" />


<rect
width="2.485149"
height="21.428571"
rx="0.000000"
ry="0.000000"
x="406.432140"
y="74.500000"
id="col.pan"
style="fill:#BABABF;fill-opacity:1.000000;stroke:black;stroke-width:0.000000;stroke-opacity:0.000000" />


<rect
width="2.485149"
height="21.428571"
rx="0.000000"
ry="0.000000"
x="404.946992"
y="74.500000"
id="col.pan"
style="fill:#B6B6C1;fill-opacity:1.000000;stroke:black;stroke-width:0.000000;stroke-opacity:0.000000" />


<rect
width="2.485149"
height="21.428571"
rx="0.000000"
ry="0.000000"
x="403.461843"
y="74.500000"
id="col.pan"
style="fill:#B3B3C2;fill-opacity:1.000000;stroke:black;stroke-width:0.000000;stroke-opacity:0.000000" />


<rect
width="2.485149"
height="21.428571"
rx="0.000000"
ry="0.000000"
x="401.976695"
y="74.500000"
id="col.pan"
style="fill:#AFAFC3;fill-opacity:1.000000;stroke:black;stroke-width:0.000000;stroke-opacity:0.000000" />


<rect
width="2.485149"
height="21.428571"
rx="0.000000"
ry="0.000000"
x="400.491546"
y="74.500000"
id="col.pan"
style="fill:#ABABC5;fill-opacity:1.000000;stroke:black;stroke-width:0.000000;stroke-opacity:0.000000" />


<rect
width="2.485149"
height="21.428571"
rx="0.000000"
ry="0.000000"
x="399.006398"
y="74.500000"
id="col.pan"
style="fill:#A7A7C6;fill-opacity:1.000000;stroke:black;stroke-width:0.000000;stroke-opacity:0.000000" />


<rect
width="2.485149"
height="21.428571"
rx="0.000000"
ry="0.000000"
x="397.521249"
y="74.500000"
id="col.pan"
style="fill:#A3A3C7;fill-opacity:1.000000;stroke:black;stroke-width:0.000000;stroke-opacity:0.000000" />


<rect
width="2.485149"
height="21.428571"
rx="0.000000"
ry="0.000000"
x="396.036101"
y="74.500000"
id="col.pan"
style="fill:#A0A0C8;fill-opacity:1.000000;stroke:black;stroke-width:0.000000;stroke-opacity:0.000000" />


<rect
width="2.485149"
height="21.428571"
rx="0.000000"
ry="0.000000"
x="394.550952"
y="74.500000"
id="col.pan"
style="fill:#9C9CCA;fill-opacity:1.000000;stroke:black;stroke-width:0.000000;stroke-opacity:0.000000" />


<rect
width="2.485149"
height="21.428571"
rx="0.000000"
ry="0.000000"
x="393.065804"
y="74.500000"
id="col.pan"
style="fill:#9898CB;fill-opacity:1.000000;stroke:black;stroke-width:0.000000;stroke-opacity:0.000000" />


<rect
width="2.485149"
height="21.428571"
rx="0.000000"
ry="0.000000"
x="391.580655"
y="74.500000"
id="col.pan"
style="fill:#9494CC;fill-opacity:1.000000;stroke:black;stroke-width:0.000000;stroke-opacity:0.000000" />


<rect
width="2.485149"
height="21.428571"
rx="0.000000"
ry="0.000000"
x="390.095507"
y="74.500000"
id="col.pan"
style="fill:#9090CE;fill-opacity:1.000000;stroke:black;stroke-width:0.000000;stroke-opacity:0.000000" />


<rect
width="2.485149"
height="21.428571"
rx="0.000000"
ry="0.000000"
x="388.610358"
y="74.500000"
id="col.pan"
style="fill:#8D8DCF;fill-opacity:1.000000;stroke:black;stroke-width:0.000000;stroke-opacity:0.000000" />


<rect
width="2.485149"
height="21.428571"
rx="0.000000"
ry="0.000000"
x="387.125210"
y="74.500000"
id="col.pan"
style="fill:#8989D0;fill-opacity:1.000000;stroke:black;stroke-width:0.000000;stroke-opacity:0.000000" />


<rect
width="2.485149"
height="21.428571"
rx="0.000000"
ry="0.000000"
x="385.640061"
y="74.500000"
id="col.pan"
style="fill:#8585D2;fill-opacity:1.000000;stroke:black;stroke-width:0.000000;stroke-opacity:0.000000" />


<rect
width="2.485149"
height="21.428571"
rx="0.000000"
ry="0.000000"
x="384.154913"
y="74.500000"
id="col.pan"
style="fill:#8181D3;fill-opacity:1.000000;stroke:black;stroke-width:0.000000;stroke-opacity:0.000000" />


<rect
width="2.485149"
height="21.428571"
rx="0.000000"
ry="0.000000"
x="382.669764"
y="74.500000"
id="col.pan"
style="fill:#7D7DD4;fill-opacity:1.000000;stroke:black;stroke-width:0.000000;stroke-opacity:0.000000" />


<rect
width="2.485149"
height="21.428571"
rx="0.000000"
ry="0.000000"
x="381.184616"
y="74.500000"
id="col.pan"
style="fill:#7A7AD5;fill-opacity:1.000000;stroke:black;stroke-width:0.000000;stroke-opacity:0.000000" />


<rect
width="2.485149"
height="21.428571"
rx="0.000000"
ry="0.000000"
x="379.699467"
y="74.500000"
id="col.pan"
style="fill:#7676D7;fill-opacity:1.000000;stroke:black;stroke-width:0.000000;stroke-opacity:0.000000" />


<rect
width="2.485149"
height="21.428571"
rx="0.000000"
ry="0.000000"
x="378.214319"
y="74.500000"
id="col.pan"
style="fill:#7272D8;fill-opacity:1.000000;stroke:black;stroke-width:0.000000;stroke-opacity:0.000000" />


<rect
width="2.485149"
height="21.428571"
rx="0.000000"
ry="0.000000"
x="376.729170"
y="74.500000"
id="col.pan"
style="fill:#6E6ED9;fill-opacity:1.000000;stroke:black;stroke-width:0.000000;stroke-opacity:0.000000" />


<rect
width="2.485149"
height="21.428571"
rx="0.000000"
ry="0.000000"
x="375.244022"
y="74.500000"
id="col.pan"
style="fill:#6A6ADB;fill-opacity:1.000000;stroke:black;stroke-width:0.000000;stroke-opacity:0.000000" />


<rect
width="2.485149"
height="21.428571"
rx="0.000000"
ry="0.000000"
x="373.758873"
y="74.500000"
id="col.pan"
style="fill:#6767DC;fill-opacity:1.000000;stroke:black;stroke-width:0.000000;stroke-opacity:0.000000" />


<rect
width="2.485149"
height="21.428571"
rx="0.000000"
ry="0.000000"
x="372.273725"
y="74.500000"
id="col.pan"
style="fill:#6363DD;fill-opacity:1.000000;stroke:black;stroke-width:0.000000;stroke-opacity:0.000000" />


<rect
width="2.485149"
height="21.428571"
rx="0.000000"
ry="0.000000"
x="370.788576"
y="74.500000"
id="col.pan"
style="fill:#5F5FDF;fill-opacity:1.000000;stroke:black;stroke-width:0.000000;stroke-opacity:0.000000" />


<rect
width="2.485149"
height="21.428571"
rx="0.000000"
ry="0.000000"
x="369.303428"
y="74.500000"
id="col.pan"
style="fill:#5B5BE0;fill-opacity:1.000000;stroke:black;stroke-width:0.000000;stroke-opacity:0.000000" />


<rect
width="2.485149"
height="21.428571"
rx="0.000000"
ry="0.000000"
x="367.818279"
y="74.500000"
id="col.pan"
style="fill:#5757E1;fill-opacity:1.000000;stroke:black;stroke-width:0.000000;stroke-opacity:0.000000" />


<rect
width="2.485149"
height="21.428571"
rx="0.000000"
ry="0.000000"
x="366.333131"
y="74.500000"
id="col.pan"
style="fill:#5454E2;fill-opacity:1.000000;stroke:black;stroke-width:0.000000;stroke-opacity:0.000000" />


<rect
width="2.485149"
height="21.428571"
rx="0.000000"
ry="0.000000"
x="364.847982"
y="74.500000"
id="col.pan"
style="fill:#5050E4;fill-opacity:1.000000;stroke:black;stroke-width:0.000000;stroke-opacity:0.000000" />


<rect
width="2.485149"
height="21.428571"
rx="0.000000"
ry="0.000000"
x="363.362834"
y="74.500000"
id="col.pan"
style="fill:#4C4CE5;fill-opacity:1.000000;stroke:black;stroke-width:0.000000;stroke-opacity:0.000000" />


<rect
width="2.485149"
height="21.428571"
rx="0.000000"
ry="0.000000"
x="361.877685"
y="74.500000"
id="col.pan"
style="fill:#4848E6;fill-opacity:1.000000;stroke:black;stroke-width:0.000000;stroke-opacity:0.000000" />


<rect
width="2.485149"
height="21.428571"
rx="0.000000"
ry="0.000000"
x="360.392536"
y="74.500000"
id="col.pan"
style="fill:#4444E8;fill-opacity:1.000000;stroke:black;stroke-width:0.000000;stroke-opacity:0.000000" />


<rect
width="2.485149"
height="21.428571"
rx="0.000000"
ry="0.000000"
x="358.907388"
y="74.500000"
id="col.pan"
style="fill:#4141E9;fill-opacity:1.000000;stroke:black;stroke-width:0.000000;stroke-opacity:0.000000" />


<rect
width="2.485149"
height="21.428571"
rx="0.000000"
ry="0.000000"
x="357.422239"
y="74.500000"
id="col.pan"
style="fill:#3D3DEA;fill-opacity:1.000000;stroke:black;stroke-width:0.000000;stroke-opacity:0.000000" />


<rect
width="2.485149"
height="21.428571"
rx="0.000000"
ry="0.000000"
x="355.937091"
y="74.500000"
id="col.pan"
style="fill:#3939EC;fill-opacity:1.000000;stroke:black;stroke-width:0.000000;stroke-opacity:0.000000" />


<rect
width="2.485149"
height="21.428571"
rx="0.000000"
ry="0.000000"
x="354.451942"
y="74.500000"
id="col.pan"
style="fill:#3535ED;fill-opacity:1.000000;stroke:black;stroke-width:0.000000;stroke-opacity:0.000000" />


<rect
width="2.485149"
height="21.428571"
rx="0.000000"
ry="0.000000"
x="352.966794"
y="74.500000"
id="col.pan"
style="fill:#3131EE;fill-opacity:1.000000;stroke:black;stroke-width:0.000000;stroke-opacity:0.000000" />


<rect
width="2.485149"
height="21.428571"
rx="0.000000"
ry="0.000000"
x="351.481645"
y="74.500000"
id="col.pan"
style="fill:#2E2EEF;fill-opacity:1.000000;stroke:black;stroke-width:0.000000;stroke-opacity:0.000000" />


<rect
width="2.485149"
height="21.428571"
rx="0.000000"
ry="0.000000"
x="349.996497"
y="74.500000"
id="col.pan"
style="fill:#2A2AF1;fill-opacity:1.000000;stroke:black;stroke-width:0.000000;stroke-opacity:0.000000" />


<rect
width="2.485149"
height="21.428571"
rx="0.000000"
ry="0.000000"
x="348.511348"
y="74.500000"
id="col.pan"
style="fill:#2626F2;fill-opacity:1.000000;stroke:black;stroke-width:0.000000;stroke-opacity:0.000000" />


<rect
width="2.485149"
height="21.428571"
rx="0.000000"
ry="0.000000"
x="347.026200"
y="74.500000"
id="col.pan"
style="fill:#2222F3;fill-opacity:1.000000;stroke:black;stroke-width:0.000000;stroke-opacity:0.000000" />


<rect
width="2.485149"
height="21.428571"
rx="0.000000"
ry="0.000000"
x="345.541051"
y="74.500000"
id="col.pan"
style="fill:#1E1EF5;fill-opacity:1.000000;stroke:black;stroke-width:0.000000;stroke-opacity:0.000000" />


<rect
width="2.485149"
height="21.428571"
rx="0.000000"
ry="0.000000"
x="344.055903"
y="74.500000"
id="col.pan"
style="fill:#1B1BF6;fill-opacity:1.000000;stroke:black;stroke-width:0.000000;stroke-opacity:0.000000" />


<rect
width="2.485149"
height="21.428571"
rx="0.000000"
ry="0.000000"
x="342.570754"
y="74.500000"
id="col.pan"
style="fill:#1717F7;fill-opacity:1.000000;stroke:black;stroke-width:0.000000;stroke-opacity:0.000000" />


<rect
width="2.485149"
height="21.428571"
rx="0.000000"
ry="0.000000"
x="341.085606"
y="74.500000"
id="col.pan"
style="fill:#1313F9;fill-opacity:1.000000;stroke:black;stroke-width:0.000000;stroke-opacity:0.000000" />


<rect
width="2.485149"
height="21.428571"
rx="0.000000"
ry="0.000000"
x="339.600457"
y="74.500000"
id="col.pan"
style="fill:#0F0FFA;fill-opacity:1.000000;stroke:black;stroke-width:0.000000;stroke-opacity:0.000000" />


<rect
width="2.485149"
height="21.428571"
rx="0.000000"
ry="0.000000"
x="338.115309"
y="74.500000"
id="col.pan"
style="fill:#0B0BFB;fill-opacity:1.000000;stroke:black;stroke-width:0.000000;stroke-opacity:0.000000" />


<rect
width="2.485149"
height="21.428571"
rx="0.000000"
ry="0.000000"
x="336.630160"
y="74.500000"
id="col.pan"
style="fill:#0808FC;fill-opacity:1.000000;stroke:black;stroke-width:0.000000;stroke-opacity:0.000000" />


<rect
width="2.485149"
height="21.428571"
rx="0.000000"
ry="0.000000"
x="335.145012"
y="74.500000"
id="col.pan"
style="fill:#0404FE;fill-opacity:1.000000;stroke:black;stroke-width:0.000000;stroke-opacity:0.000000" />


<rect
width="2.485149"
height="21.428571"
rx="0.000000"
ry="0.000000"
x="333.659863"
y="74.500000"
id="col.pan"
style="fill:#0000FF;fill-opacity:1.000000;stroke:black;stroke-width:0.000000;stroke-opacity:0.000000" />


<line
x1="333.659863203899" y1="74.5" x2="333.659863203899" y2="101.285714285714"
id="tick"
style="stroke:black;stroke-width:2.000000;stroke-opacity:1" />


<line
x1="348.659863203899" y1="74.5" x2="348.659863203899" y2="101.285714285714"
id="tick"
style="stroke:black;stroke-width:2.000000;stroke-opacity:1" />


<line
x1="363.659863203899" y1="74.5" x2="363.659863203899" y2="101.285714285714"
id="tick"
style="stroke:black;stroke-width:2.000000;stroke-opacity:1" />


<line
x1="378.659863203899" y1="74.5" x2="378.659863203899" y2="101.285714285714"
id="tick"
style="stroke:black;stroke-width:2.000000;stroke-opacity:1" />


<line
x1="393.659863203899" y1="74.5" x2="393.659863203899" y2="101.285714285714"
id="tick"
style="stroke:black;stroke-width:2.000000;stroke-opacity:1" />


<line
x1="408.659863203899" y1="74.5" x2="408.659863203899" y2="101.285714285714"
id="tick"
style="stroke:black;stroke-width:2.000000;stroke-opacity:1" />


<line
x1="423.659863203899" y1="74.5" x2="423.659863203899" y2="101.285714285714"
id="tick"
style="stroke:black;stroke-width:2.000000;stroke-opacity:1" />


<line
x1="438.659863203899" y1="74.5" x2="438.659863203899" y2="101.285714285714"
id="tick"
style="stroke:black;stroke-width:2.000000;stroke-opacity:1" />


<line
x1="453.659863203899" y1="74.5" x2="453.659863203899" y2="101.285714285714"
id="tick"
style="stroke:black;stroke-width:2.000000;stroke-opacity:1" />


<line
x1="468.659863203899" y1="74.5" x2="468.659863203899" y2="101.285714285714"
id="tick"
style="stroke:black;stroke-width:2.000000;stroke-opacity:1" />


<line
x1="483.659863203899" y1="74.5" x2="483.659863203899" y2="101.285714285714"
id="tick"
style="stroke:black;stroke-width:2.000000;stroke-opacity:1" />


<text
x="482.917289"
y="124.500000"
id="color.panel.max.value"
style="font-size:21.428571px;text-anchor:middle;font-family:Arial,Helvetica;alignment-baseline:baseline;stroke.opacity:1;dominant-baseline:baseline"
fill="black"
>
1</text>


<text
x="334.402437"
y="124.500000"
id="color.panel.low.value"
style="font-size:21.428571px;text-anchor:middle;font-family:Arial,Helvetica;alignment-baseline:baseline;stroke.opacity:1;dominant-baseline:baseline"
fill="black"
>
-1</text>


<text
x="410.145012"
y="124.500000"
id="color.panel.mid.value"
style="font-size:21.428571px;text-anchor:middle;font-family:Arial,Helvetica;alignment-baseline:baseline;stroke.opacity:1;dominant-baseline:baseline"
fill="black"
>
0</text>

</svg>
