<?xml version="1.0" encoding="UTF-8"?>
<svg width="726.166667" height="684.788383"
xmlns="http://www.w3.org/2000/svg" xmlns:svg="http://www.w3.org/2000/svg"
>
<metadata id="metadata7">image/svg+xml</metadata>

<rect
width="296.166667"
height="361.788383"
rx="11.000000"
ry="11.000000"
x="100.000000"
y="198.000000"
id="nucleoplasm"
style="fill:white;fill-opacity:0.900000;stroke:black;stroke-width:5.000000;stroke-opacity:1.000000" />


<text
x="248.083333"
y="190.000000"
id="nucleoplasm"
style="font-size:24.000000px;text-anchor:middle;font-family:Arial,Helvetica;alignment-baseline:baseline;stroke.opacity:1;dominant-baseline:baseline"
fill="black"
>
nucleoplasm</text>


<rect
width="296.166667"
height="361.788383"
rx="11.000000"
ry="11.000000"
x="100.000000"
y="198.000000"
id="nucleoplasm"
style="fill:white;fill-opacity:0.900000;stroke:black;stroke-width:5.000000;stroke-opacity:1.000000" />


<text
x="248.083333"
y="190.000000"
id="nucleoplasm"
style="font-size:24.000000px;text-anchor:middle;font-family:Arial,Helvetica;alignment-baseline:baseline;stroke.opacity:1;dominant-baseline:baseline"
fill="black"
>
nucleoplasm</text>

NULL
NULL
NULL




<ellipse
rx="35.000000"
ry="20.000000"
cx="146.000000"
cy="521.788383"
id="PhysicalEntity_b2e1e6cd46c23abf4977a2be5001282c"
style="fill:#00FF00;fill-opacity:0.600000;stroke:black;stroke-width:1.000000;stroke-opacity:0.000000" />


<path
d="M 128.5 539.108891324554 A 35 20 1 1 0 128.5 504.467875173176"
id="PhysicalEntity_b2e1e6cd46c23abf4977a2be5001282c"
style="fill:#00FF00;fill-opacity:0.600000;stroke-width:1;stroke:black;stroke-opacity:0.000000"
transform = "rotate(0.000000 0.000000 0.000000)"
/>


<path
d="M 146 541.788383248865 A 35 20 1 1 0 146 501.788383248865"
id="PhysicalEntity_b2e1e6cd46c23abf4977a2be5001282c"
style="fill:white;fill-opacity:0.600000;stroke-width:1;stroke:black;stroke-opacity:0.000000"
transform = "rotate(0.000000 0.000000 0.000000)"
/>


<path
d="M 146 541.788383248865 A 35 20 1 1 0 146 501.788383248865"
id="PhysicalEntity_b2e1e6cd46c23abf4977a2be5001282c"
style="fill:#00FF00;fill-opacity:0.600000;stroke-width:1;stroke:black;stroke-opacity:0.000000"
transform = "rotate(0.000000 0.000000 0.000000)"
/>


<path
d="M 163.5 539.108891324554 A 35 20 1 0 0 163.5 504.467875173176"
id="PhysicalEntity_b2e1e6cd46c23abf4977a2be5001282c"
style="fill:white;fill-opacity:0.600000;stroke-width:1;stroke:black;stroke-opacity:0.000000"
transform = "rotate(0.000000 0.000000 0.000000)"
/>


<path
d="M 163.5 539.108891324554 A 35 20 1 0 0 163.5 504.467875173176"
id="PhysicalEntity_b2e1e6cd46c23abf4977a2be5001282c"
style="fill:#00FF00;fill-opacity:0.600000;stroke-width:1;stroke:black;stroke-opacity:0.000000"
transform = "rotate(0.000000 0.000000 0.000000)"
/>


<path
d="M 181 521.788383248865 A 35 20 1 0 0 181 521.788383248865"
id="PhysicalEntity_b2e1e6cd46c23abf4977a2be5001282c"
style="fill:white;fill-opacity:0.600000;stroke-width:1;stroke:black;stroke-opacity:0.000000"
transform = "rotate(0.000000 0.000000 0.000000)"
/>


<ellipse
rx="35.000000"
ry="20.000000"
cx="146.000000"
cy="521.788383"
id="PhysicalEntity_b2e1e6cd46c23abf4977a2be5001282c"
style="fill:white;fill-opacity:0.000000;stroke:black;stroke-width:1.000000;stroke-opacity:1.000000" />



<text
x="146.000000"
y="509.788383"
id="PhysicalEntity_b2e1e6cd46c23abf4977a2be5001282c"
style="font-size:18.000000px;text-anchor:middle;font-family:Arial,Helvetica;alignment-baseline:baseline;stroke.opacity:1;dominant-baseline:baseline"
fill="black"
>
unspeci-</text>


<text
x="146.000000"
y="527.788383"
id="PhysicalEntity_b2e1e6cd46c23abf4977a2be5001282c"
style="font-size:18.000000px;text-anchor:middle;font-family:Arial,Helvetica;alignment-baseline:baseline;stroke.opacity:1;dominant-baseline:baseline"
fill="black"
>
fied_en-</text>


<text
x="146.000000"
y="545.788383"
id="PhysicalEntity_b2e1e6cd46c23abf4977a2be5001282c"
style="font-size:18.000000px;text-anchor:middle;font-family:Arial,Helvetica;alignment-baseline:baseline;stroke.opacity:1;dominant-baseline:baseline"
fill="black"
>
tity_1</text>



<ellipse
rx="35.000000"
ry="20.000000"
cx="146.000000"
cy="229.000000"
id="PhysicalEntity_83660998f128a71dad0c258f1b898612"
style="fill:#00FF00;fill-opacity:0.600000;stroke:black;stroke-width:1.000000;stroke-opacity:0.000000" />


<path
d="M 128.5 246.320508075689 A 35 20 1 1 0 128.5 211.679491924311"
id="PhysicalEntity_83660998f128a71dad0c258f1b898612"
style="fill:#00FF00;fill-opacity:0.600000;stroke-width:1;stroke:black;stroke-opacity:0.000000"
transform = "rotate(0.000000 0.000000 0.000000)"
/>


<path
d="M 146 249 A 35 20 1 1 0 146 209"
id="PhysicalEntity_83660998f128a71dad0c258f1b898612"
style="fill:white;fill-opacity:0.600000;stroke-width:1;stroke:black;stroke-opacity:0.000000"
transform = "rotate(0.000000 0.000000 0.000000)"
/>


<path
d="M 146 249 A 35 20 1 1 0 146 209"
id="PhysicalEntity_83660998f128a71dad0c258f1b898612"
style="fill:#00FF00;fill-opacity:0.600000;stroke-width:1;stroke:black;stroke-opacity:0.000000"
transform = "rotate(0.000000 0.000000 0.000000)"
/>


<path
d="M 163.5 246.320508075689 A 35 20 1 0 0 163.5 211.679491924311"
id="PhysicalEntity_83660998f128a71dad0c258f1b898612"
style="fill:white;fill-opacity:0.600000;stroke-width:1;stroke:black;stroke-opacity:0.000000"
transform = "rotate(0.000000 0.000000 0.000000)"
/>


<path
d="M 163.5 246.320508075689 A 35 20 1 0 0 163.5 211.679491924311"
id="PhysicalEntity_83660998f128a71dad0c258f1b898612"
style="fill:#00FF00;fill-opacity:0.600000;stroke-width:1;stroke:black;stroke-opacity:0.000000"
transform = "rotate(0.000000 0.000000 0.000000)"
/>


<path
d="M 181 229 A 35 20 1 0 0 181 229"
id="PhysicalEntity_83660998f128a71dad0c258f1b898612"
style="fill:white;fill-opacity:0.600000;stroke-width:1;stroke:black;stroke-opacity:0.000000"
transform = "rotate(0.000000 0.000000 0.000000)"
/>


<ellipse
rx="35.000000"
ry="20.000000"
cx="146.000000"
cy="229.000000"
id="PhysicalEntity_83660998f128a71dad0c258f1b898612"
style="fill:white;fill-opacity:0.000000;stroke:black;stroke-width:1.000000;stroke-opacity:1.000000" />



<text
x="146.000000"
y="226.000000"
id="PhysicalEntity_83660998f128a71dad0c258f1b898612"
style="font-size:18.000000px;text-anchor:middle;font-family:Arial,Helvetica;alignment-baseline:baseline;stroke.opacity:1;dominant-baseline:baseline"
fill="black"
>
dsRNA d-</text>


<text
x="146.000000"
y="244.000000"
id="PhysicalEntity_83660998f128a71dad0c258f1b898612"
style="font-size:18.000000px;text-anchor:middle;font-family:Arial,Helvetica;alignment-baseline:baseline;stroke.opacity:1;dominant-baseline:baseline"
fill="black"
>
uplex</text>


<rect
width="26.666667"
height="26.666667"
rx="0.000000"
ry="0.000000"
x="358.500000"
y="351.894192"
id="reactome_R-HSA-77612_LEFT_TO_RIGHT"
style="fill:white;fill-opacity:0.600000;stroke:black;stroke-width:1.000000;stroke-opacity:1.000000" />





<path d="M179.000000 249.000000 C 229.000000 279.000000, 323.000000 336.000000,358.000000 357.000000" stroke="black"  fill="transparent"/>

<line
x1="323" y1="336" x2="358" y2="357"
id="0"
style="stroke:black;stroke-width:1.000000;stroke-opacity:0" />


<line
x1="229" y1="279" x2="179" y2="249"
id="reactome_R-HSA-77612_LEFT_TO_RIGHT-output--to--PhysicalEntity_83660998f128a71dad0c258f1b898612"
style="stroke:black;stroke-width:1.000000;stroke-opacity:0" />


<polygon
points = "179,249 170.2,244.6 170.2,253.4"
id="line"
style="fill:black; stroke:#000000; stroke-width:1"
transform = "rotate(210.963757 179.000000 249.000000)"
/>


<path d="M175.000000 501.000000 C 224.000000 467.000000, 322.000000 399.000000,358.000000 374.000000" stroke="black"  fill="transparent"/>

<line
x1="224" y1="467" x2="175" y2="501"
id="0"
style="stroke:black;stroke-width:1.000000;stroke-opacity:0" />


<line
x1="322" y1="399" x2="358" y2="374"
id="PhysicalEntity_b2e1e6cd46c23abf4977a2be5001282c--to--reactome_R-HSA-77612_LEFT_TO_RIGHT-input"
style="stroke:black;stroke-width:1.000000;stroke-opacity:0" />





</svg>
