<?xml version="1.0" encoding="UTF-8"?>
<svg width="1016.344396" height="641.500000"
xmlns="http://www.w3.org/2000/svg" xmlns:svg="http://www.w3.org/2000/svg"
>
<metadata id="metadata7">image/svg+xml</metadata>



<path
d="M 100 228.709690432745 100 366.209690432745 105.5 371.709690432745 175.5 371.709690432745 181 366.209690432745 181 228.709690432745 175.5 223.209690432745 105.5 223.209690432745 Z"
id="wikipathways_WP136_b0e4c"
style="fill:white;fill-opacity:0.600000;stroke-width:1;stroke:black;stroke-opacity:1.000000"
transform = "rotate(0.000000 0.000000 0.000000)"
/>


<text
x="140.500000"
y="215.209690"
id="wikipathways_WP136_b0e4c"
style="font-size:18.000000px;text-anchor:middle;font-family:Arial,Helvetica;alignment-baseline:baseline;stroke.opacity:1;dominant-baseline:baseline"
fill="black"
>
noname</text>


<path
d="M 178.179334412492 469.5 178.179334412492 509.5 183.679334412492 515 253.679334412492 515 259.179334412492 509.5 259.179334412492 469.5 253.679334412492 464 183.679334412492 464 Z"
id="wikipathways_WP136_c28bd"
style="fill:white;fill-opacity:0.600000;stroke-width:1;stroke:black;stroke-opacity:1.000000"
transform = "rotate(0.000000 0.000000 0.000000)"
/>


<text
x="218.679334"
y="456.000000"
id="wikipathways_WP136_c28bd"
style="font-size:18.000000px;text-anchor:middle;font-family:Arial,Helvetica;alignment-baseline:baseline;stroke.opacity:1;dominant-baseline:baseline"
fill="black"
>
noname</text>


<path
d="M 573.456867020913 451.586379940263 573.456867020913 480.586379940263 578.956867020913 486.086379940263 637.956867020913 486.086379940263 643.456867020913 480.586379940263 643.456867020913 451.586379940263 637.956867020913 446.086379940263 578.956867020913 446.086379940263 Z"
id="wikipathways_WP136_aa661"
style="fill:white;fill-opacity:0.600000;stroke-width:1;stroke:black;stroke-opacity:1.000000"
transform = "rotate(0.000000 0.000000 0.000000)"
/>


<text
x="608.456867"
y="466.086380"
id="wikipathways_WP136_aa661"
style="font-size:18.000000px;text-anchor:middle;font-family:Arial,Helvetica;alignment-baseline:baseline;stroke.opacity:1;dominant-baseline:baseline"
fill="black"
>
noname</text>


<path
d="M 576.62376061918 314.732167866879 576.62376061918 343.732167866879 582.12376061918 349.232167866879 641.12376061918 349.232167866879 646.62376061918 343.732167866879 646.62376061918 314.732167866879 641.12376061918 309.232167866879 582.12376061918 309.232167866879 Z"
id="wikipathways_WP136_ab569"
style="fill:white;fill-opacity:0.600000;stroke-width:1;stroke:black;stroke-opacity:1.000000"
transform = "rotate(0.000000 0.000000 0.000000)"
/>


<text
x="611.623761"
y="329.232168"
id="wikipathways_WP136_ab569"
style="font-size:18.000000px;text-anchor:middle;font-family:Arial,Helvetica;alignment-baseline:baseline;stroke.opacity:1;dominant-baseline:baseline"
fill="black"
>
noname</text>


<path
d="M 321.073526036924 471 321.073526036924 511 326.573526036924 516.5 396.573526036924 516.5 402.073526036924 511 402.073526036924 471 396.573526036924 465.5 326.573526036924 465.5 Z"
id="wikipathways_WP136_cae49"
style="fill:white;fill-opacity:0.600000;stroke-width:1;stroke:black;stroke-opacity:1.000000"
transform = "rotate(0.000000 0.000000 0.000000)"
/>


<text
x="361.573526"
y="457.500000"
id="wikipathways_WP136_cae49"
style="font-size:18.000000px;text-anchor:middle;font-family:Arial,Helvetica;alignment-baseline:baseline;stroke.opacity:1;dominant-baseline:baseline"
fill="black"
>
noname</text>



<rect
width="26.666667"
height="26.666667"
rx="0.000000"
ry="0.000000"
x="659.677729"
y="189.358836"
id="wikipathways_WP136_ae21f"
style="fill:white;fill-opacity:0.600000;stroke:black;stroke-width:1.000000;stroke-opacity:1.000000" />



<text
x="673.011063"
y="210.692169"
id="wikipathways_WP136_ae21f"
style="font-size:24.000000px;text-anchor:middle;font-family:Arial,Helvetica;alignment-baseline:baseline;stroke.opacity:1;dominant-baseline:baseline"
fill="black"
>
\\</text>



<ellipse
rx="35.000000"
ry="20.000000"
cx="140.500000"
cy="248.709690"
id="wikipathways_WP136_db7_wikipathways_WP136_b0e4c"
style="fill:#00FF00;fill-opacity:0.600000;stroke:black;stroke-width:1.000000;stroke-opacity:0.000000" />


<path
d="M 123 266.030198508434 A 35 20 1 1 0 123 231.389182357056"
id="wikipathways_WP136_db7_wikipathways_WP136_b0e4c"
style="fill:#96CC96;fill-opacity:0.600000;stroke-width:1;stroke:black;stroke-opacity:0.000000"
transform = "rotate(0.000000 0.000000 0.000000)"
/>


<path
d="M 140.5 268.709690432745 A 35 20 1 1 0 140.5 228.709690432745"
id="wikipathways_WP136_db7_wikipathways_WP136_b0e4c"
style="fill:white;fill-opacity:0.600000;stroke-width:1;stroke:black;stroke-opacity:0.000000"
transform = "rotate(0.000000 0.000000 0.000000)"
/>


<path
d="M 140.5 268.709690432745 A 35 20 1 1 0 140.5 228.709690432745"
id="wikipathways_WP136_db7_wikipathways_WP136_b0e4c"
style="fill:#36EC36;fill-opacity:0.600000;stroke-width:1;stroke:black;stroke-opacity:0.000000"
transform = "rotate(0.000000 0.000000 0.000000)"
/>


<path
d="M 158 266.030198508434 A 35 20 1 0 0 158 231.389182357056"
id="wikipathways_WP136_db7_wikipathways_WP136_b0e4c"
style="fill:white;fill-opacity:0.600000;stroke-width:1;stroke:black;stroke-opacity:0.000000"
transform = "rotate(0.000000 0.000000 0.000000)"
/>


<path
d="M 158 266.030198508434 A 35 20 1 0 0 158 231.389182357056"
id="wikipathways_WP136_db7_wikipathways_WP136_b0e4c"
style="fill:#03FE03;fill-opacity:0.600000;stroke-width:1;stroke:black;stroke-opacity:0.000000"
transform = "rotate(0.000000 0.000000 0.000000)"
/>


<path
d="M 175.5 248.709690432745 A 35 20 1 0 0 175.5 248.709690432745"
id="wikipathways_WP136_db7_wikipathways_WP136_b0e4c"
style="fill:white;fill-opacity:0.600000;stroke-width:1;stroke:black;stroke-opacity:0.000000"
transform = "rotate(0.000000 0.000000 0.000000)"
/>


<ellipse
rx="35.000000"
ry="20.000000"
cx="140.500000"
cy="248.709690"
id="wikipathways_WP136_db7_wikipathways_WP136_b0e4c"
style="fill:white;fill-opacity:0.000000;stroke:black;stroke-width:1.000000;stroke-opacity:1.000000" />


<text
x="140.500000"
y="254.709690"
id="wikipathways_WP136_db7_wikipathways_WP136_b0e4c"
style="font-size:18.000000px;text-anchor:middle;font-family:Arial,Helvetica;alignment-baseline:baseline;stroke.opacity:1;dominant-baseline:baseline"
fill="black"
>
OH</text>



<ellipse
rx="35.000000"
ry="20.000000"
cx="140.500000"
cy="297.459690"
id="wikipathways_WP136_e68_wikipathways_WP136_b0e4c"
style="fill:#FF0000;fill-opacity:0.600000;stroke:black;stroke-width:1.000000;stroke-opacity:0.000000" />


<path
d="M 123 314.780198508434 A 35 20 1 1 0 123 280.139182357056"
id="wikipathways_WP136_e68_wikipathways_WP136_b0e4c"
style="fill:#C99E9E;fill-opacity:0.600000;stroke-width:1;stroke:black;stroke-opacity:0.000000"
transform = "rotate(0.000000 0.000000 0.000000)"
/>


<path
d="M 140.5 317.459690432745 A 35 20 1 1 0 140.5 277.459690432745"
id="wikipathways_WP136_e68_wikipathways_WP136_b0e4c"
style="fill:white;fill-opacity:0.600000;stroke-width:1;stroke:black;stroke-opacity:0.000000"
transform = "rotate(0.000000 0.000000 0.000000)"
/>


<path
d="M 140.5 317.459690432745 A 35 20 1 1 0 140.5 277.459690432745"
id="wikipathways_WP136_e68_wikipathways_WP136_b0e4c"
style="fill:#F22626;fill-opacity:0.600000;stroke-width:1;stroke:black;stroke-opacity:0.000000"
transform = "rotate(0.000000 0.000000 0.000000)"
/>


<path
d="M 158 314.780198508434 A 35 20 1 0 0 158 280.139182357056"
id="wikipathways_WP136_e68_wikipathways_WP136_b0e4c"
style="fill:white;fill-opacity:0.600000;stroke-width:1;stroke:black;stroke-opacity:0.000000"
transform = "rotate(0.000000 0.000000 0.000000)"
/>


<path
d="M 158 314.780198508434 A 35 20 1 0 0 158 280.139182357056"
id="wikipathways_WP136_e68_wikipathways_WP136_b0e4c"
style="fill:#E64949;fill-opacity:0.600000;stroke-width:1;stroke:black;stroke-opacity:0.000000"
transform = "rotate(0.000000 0.000000 0.000000)"
/>


<path
d="M 175.5 297.459690432745 A 35 20 1 0 0 175.5 297.459690432745"
id="wikipathways_WP136_e68_wikipathways_WP136_b0e4c"
style="fill:white;fill-opacity:0.600000;stroke-width:1;stroke:black;stroke-opacity:0.000000"
transform = "rotate(0.000000 0.000000 0.000000)"
/>


<ellipse
rx="35.000000"
ry="20.000000"
cx="140.500000"
cy="297.459690"
id="wikipathways_WP136_e68_wikipathways_WP136_b0e4c"
style="fill:white;fill-opacity:0.000000;stroke:black;stroke-width:1.000000;stroke-opacity:1.000000" />


<text
x="140.500000"
y="303.459690"
id="wikipathways_WP136_e68_wikipathways_WP136_b0e4c"
style="font-size:18.000000px;text-anchor:middle;font-family:Arial,Helvetica;alignment-baseline:baseline;stroke.opacity:1;dominant-baseline:baseline"
fill="black"
>
OH</text>



<ellipse
rx="35.000000"
ry="20.000000"
cx="140.500000"
cy="346.209690"
id="wikipathways_WP136_e3d_wikipathways_WP136_b0e4c"
style="fill:#AEC3AE;fill-opacity:0.600000;stroke:black;stroke-width:1.000000;stroke-opacity:0.000000" />


<path
d="M 123 363.530198508434 A 35 20 1 1 0 123 328.889182357056"
id="wikipathways_WP136_e3d_wikipathways_WP136_b0e4c"
style="fill:#CE9191;fill-opacity:0.600000;stroke-width:1;stroke:black;stroke-opacity:0.000000"
transform = "rotate(0.000000 0.000000 0.000000)"
/>


<path
d="M 140.5 366.209690432745 A 35 20 1 1 0 140.5 326.209690432745"
id="wikipathways_WP136_e3d_wikipathways_WP136_b0e4c"
style="fill:white;fill-opacity:0.600000;stroke-width:1;stroke:black;stroke-opacity:0.000000"
transform = "rotate(0.000000 0.000000 0.000000)"
/>


<path
d="M 140.5 366.209690432745 A 35 20 1 1 0 140.5 326.209690432745"
id="wikipathways_WP136_e3d_wikipathways_WP136_b0e4c"
style="fill:#C4ACAC;fill-opacity:0.600000;stroke-width:1;stroke:black;stroke-opacity:0.000000"
transform = "rotate(0.000000 0.000000 0.000000)"
/>


<path
d="M 158 363.530198508434 A 35 20 1 0 0 158 328.889182357056"
id="wikipathways_WP136_e3d_wikipathways_WP136_b0e4c"
style="fill:white;fill-opacity:0.600000;stroke-width:1;stroke:black;stroke-opacity:0.000000"
transform = "rotate(0.000000 0.000000 0.000000)"
/>


<path
d="M 158 363.530198508434 A 35 20 1 0 0 158 328.889182357056"
id="wikipathways_WP136_e3d_wikipathways_WP136_b0e4c"
style="fill:#7CD57C;fill-opacity:0.600000;stroke-width:1;stroke:black;stroke-opacity:0.000000"
transform = "rotate(0.000000 0.000000 0.000000)"
/>


<path
d="M 175.5 346.209690432745 A 35 20 1 0 0 175.5 346.209690432745"
id="wikipathways_WP136_e3d_wikipathways_WP136_b0e4c"
style="fill:white;fill-opacity:0.600000;stroke-width:1;stroke:black;stroke-opacity:0.000000"
transform = "rotate(0.000000 0.000000 0.000000)"
/>


<ellipse
rx="35.000000"
ry="20.000000"
cx="140.500000"
cy="346.209690"
id="wikipathways_WP136_e3d_wikipathways_WP136_b0e4c"
style="fill:white;fill-opacity:0.000000;stroke:black;stroke-width:1.000000;stroke-opacity:1.000000" />


<text
x="140.500000"
y="352.209690"
id="wikipathways_WP136_e3d_wikipathways_WP136_b0e4c"
style="font-size:18.000000px;text-anchor:middle;font-family:Arial,Helvetica;alignment-baseline:baseline;stroke.opacity:1;dominant-baseline:baseline"
fill="black"
>
OH</text>



<ellipse
rx="35.000000"
ry="20.000000"
cx="218.679334"
cy="489.500000"
id="wikipathways_WP136_f1b_wikipathways_WP136_c28bd"
style="fill:#96CC96;fill-opacity:0.600000;stroke:black;stroke-width:1.000000;stroke-opacity:0.000000" />


<path
d="M 201.179334412492 506.820508075689 A 35 20 1 1 0 201.179334412492 472.179491924311"
id="wikipathways_WP136_f1b_wikipathways_WP136_c28bd"
style="fill:#6DDA6D;fill-opacity:0.600000;stroke-width:1;stroke:black;stroke-opacity:0.000000"
transform = "rotate(0.000000 0.000000 0.000000)"
/>


<path
d="M 218.679334412492 509.5 A 35 20 1 1 0 218.679334412492 469.5"
id="wikipathways_WP136_f1b_wikipathways_WP136_c28bd"
style="fill:white;fill-opacity:0.600000;stroke-width:1;stroke:black;stroke-opacity:0.000000"
transform = "rotate(0.000000 0.000000 0.000000)"
/>


<path
d="M 218.679334412492 509.5 A 35 20 1 1 0 218.679334412492 469.5"
id="wikipathways_WP136_f1b_wikipathways_WP136_c28bd"
style="fill:#77D677;fill-opacity:0.600000;stroke-width:1;stroke:black;stroke-opacity:0.000000"
transform = "rotate(0.000000 0.000000 0.000000)"
/>


<path
d="M 236.179334412492 506.820508075689 A 35 20 1 0 0 236.179334412492 472.179491924311"
id="wikipathways_WP136_f1b_wikipathways_WP136_c28bd"
style="fill:white;fill-opacity:0.600000;stroke-width:1;stroke:black;stroke-opacity:0.000000"
transform = "rotate(0.000000 0.000000 0.000000)"
/>


<path
d="M 236.179334412492 506.820508075689 A 35 20 1 0 0 236.179334412492 472.179491924311"
id="wikipathways_WP136_f1b_wikipathways_WP136_c28bd"
style="fill:#CB9999;fill-opacity:0.600000;stroke-width:1;stroke:black;stroke-opacity:0.000000"
transform = "rotate(0.000000 0.000000 0.000000)"
/>


<path
d="M 253.679334412492 489.5 A 35 20 1 0 0 253.679334412492 489.5"
id="wikipathways_WP136_f1b_wikipathways_WP136_c28bd"
style="fill:white;fill-opacity:0.600000;stroke-width:1;stroke:black;stroke-opacity:0.000000"
transform = "rotate(0.000000 0.000000 0.000000)"
/>


<ellipse
rx="35.000000"
ry="20.000000"
cx="218.679334"
cy="489.500000"
id="wikipathways_WP136_f1b_wikipathways_WP136_c28bd"
style="fill:white;fill-opacity:0.000000;stroke:black;stroke-width:1.000000;stroke-opacity:1.000000" />


<text
x="218.679334"
y="495.500000"
id="wikipathways_WP136_f1b_wikipathways_WP136_c28bd"
style="font-size:18.000000px;text-anchor:middle;font-family:Arial,Helvetica;alignment-baseline:baseline;stroke.opacity:1;dominant-baseline:baseline"
fill="black"
>
OH</text>



<ellipse
rx="35.000000"
ry="20.000000"
cx="491.226009"
cy="282.365146"
id="wikipathways_WP136_a1e36"
style="fill:#C9C99E;fill-opacity:0.600000;stroke:black;stroke-width:1.000000;stroke-opacity:0.000000" />


<path
d="M 473.726009464195 299.685654439265 A 35 20 1 1 0 473.726009464195 265.044638287887"
id="wikipathways_WP136_a1e36"
style="fill:#EEEE33;fill-opacity:0.600000;stroke-width:1;stroke:black;stroke-opacity:0.000000"
transform = "rotate(0.000000 0.000000 0.000000)"
/>


<path
d="M 491.226009464195 302.365146363576 A 35 20 1 1 0 491.226009464195 262.365146363576"
id="wikipathways_WP136_a1e36"
style="fill:white;fill-opacity:0.600000;stroke-width:1;stroke:black;stroke-opacity:0.000000"
transform = "rotate(0.000000 0.000000 0.000000)"
/>


<path
d="M 491.226009464195 302.365146363576 A 35 20 1 1 0 491.226009464195 262.365146363576"
id="wikipathways_WP136_a1e36"
style="fill:#E6E649;fill-opacity:0.600000;stroke-width:1;stroke:black;stroke-opacity:0.000000"
transform = "rotate(0.000000 0.000000 0.000000)"
/>


<path
d="M 508.726009464195 299.685654439265 A 35 20 1 0 0 508.726009464195 265.044638287887"
id="wikipathways_WP136_a1e36"
style="fill:white;fill-opacity:0.600000;stroke-width:1;stroke:black;stroke-opacity:0.000000"
transform = "rotate(0.000000 0.000000 0.000000)"
/>


<path
d="M 508.726009464195 299.685654439265 A 35 20 1 0 0 508.726009464195 265.044638287887"
id="wikipathways_WP136_a1e36"
style="fill:#4F4FE4;fill-opacity:0.600000;stroke-width:1;stroke:black;stroke-opacity:0.000000"
transform = "rotate(0.000000 0.000000 0.000000)"
/>


<path
d="M 526.226009464195 282.365147487033 A 35 20 1 0 0 526.226009464195 282.365145240119"
id="wikipathways_WP136_a1e36"
style="fill:white;fill-opacity:0.600000;stroke-width:1;stroke:black;stroke-opacity:0.000000"
transform = "rotate(0.000000 0.000000 0.000000)"
/>


<ellipse
rx="35.000000"
ry="20.000000"
cx="491.226009"
cy="282.365146"
id="wikipathways_WP136_a1e36"
style="fill:white;fill-opacity:0.000000;stroke:black;stroke-width:1.000000;stroke-opacity:1.000000" />



<text
x="491.226009"
y="270.365146"
id="wikipathways_WP136_a1e36"
style="font-size:18.000000px;text-anchor:middle;font-family:Arial,Helvetica;alignment-baseline:baseline;stroke.opacity:1;dominant-baseline:baseline"
fill="black"
>
Phospho-</text>


<text
x="491.226009"
y="288.365146"
id="wikipathways_WP136_a1e36"
style="font-size:18.000000px;text-anchor:middle;font-family:Arial,Helvetica;alignment-baseline:baseline;stroke.opacity:1;dominant-baseline:baseline"
fill="black"
>
ric aci-</text>


<text
x="491.226009"
y="306.365146"
id="wikipathways_WP136_a1e36"
style="font-size:18.000000px;text-anchor:middle;font-family:Arial,Helvetica;alignment-baseline:baseline;stroke.opacity:1;dominant-baseline:baseline"
fill="black"
>
d esters</text>


<rect
width="26.666667"
height="26.666667"
rx="0.000000"
ry="0.000000"
x="404.843526"
y="342.889965"
id="wikipathways_WP136_db646_LEFT_TO_RIGHT"
style="fill:white;fill-opacity:0.600000;stroke:black;stroke-width:1.000000;stroke-opacity:1.000000" />



<rect
width="26.666667"
height="26.666667"
rx="0.000000"
ry="0.000000"
x="316.360950"
y="246.563402"
id="wikipathways_WP136_af048"
style="fill:white;fill-opacity:0.600000;stroke:black;stroke-width:1.000000;stroke-opacity:1.000000" />



<text
x="329.694283"
y="267.896735"
id="wikipathways_WP136_af048"
style="font-size:24.000000px;text-anchor:middle;font-family:Arial,Helvetica;alignment-baseline:baseline;stroke.opacity:1;dominant-baseline:baseline"
fill="black"
>
\\</text>


<rect
width="26.666667"
height="26.666667"
rx="0.000000"
ry="0.000000"
x="405.323526"
y="150.000000"
id="wikipathways_WP136_d1dd6"
style="fill:white;fill-opacity:0.600000;stroke:black;stroke-width:1.000000;stroke-opacity:1.000000" />



<text
x="418.656859"
y="171.333333"
id="wikipathways_WP136_d1dd6"
style="font-size:24.000000px;text-anchor:middle;font-family:Arial,Helvetica;alignment-baseline:baseline;stroke.opacity:1;dominant-baseline:baseline"
fill="black"
>
\\</text>



<ellipse
rx="35.000000"
ry="20.000000"
cx="361.573526"
cy="491.000000"
id="wikipathways_WP136_f37_wikipathways_WP136_cae49"
style="fill:#DC6767;fill-opacity:0.600000;stroke:black;stroke-width:1.000000;stroke-opacity:0.000000" />


<path
d="M 344.073526036924 508.320508075689 A 35 20 1 1 0 344.073526036924 473.679491924311"
id="wikipathways_WP136_f37_wikipathways_WP136_cae49"
style="fill:#FF0000;fill-opacity:0.600000;stroke-width:1;stroke:black;stroke-opacity:0.000000"
transform = "rotate(0.000000 0.000000 0.000000)"
/>


<path
d="M 361.573526036924 511 A 35 20 1 1 0 361.573526036924 471"
id="wikipathways_WP136_f37_wikipathways_WP136_cae49"
style="fill:white;fill-opacity:0.600000;stroke-width:1;stroke:black;stroke-opacity:0.000000"
transform = "rotate(0.000000 0.000000 0.000000)"
/>


<path
d="M 361.573526036924 511 A 35 20 1 1 0 361.573526036924 471"
id="wikipathways_WP136_f37_wikipathways_WP136_cae49"
style="fill:#FF0000;fill-opacity:0.600000;stroke-width:1;stroke:black;stroke-opacity:0.000000"
transform = "rotate(0.000000 0.000000 0.000000)"
/>


<path
d="M 379.073526036924 508.320508075689 A 35 20 1 0 0 379.073526036924 473.679491924311"
id="wikipathways_WP136_f37_wikipathways_WP136_cae49"
style="fill:white;fill-opacity:0.600000;stroke-width:1;stroke:black;stroke-opacity:0.000000"
transform = "rotate(0.000000 0.000000 0.000000)"
/>


<path
d="M 379.073526036924 508.320508075689 A 35 20 1 0 0 379.073526036924 473.679491924311"
id="wikipathways_WP136_f37_wikipathways_WP136_cae49"
style="fill:#55E255;fill-opacity:0.600000;stroke-width:1;stroke:black;stroke-opacity:0.000000"
transform = "rotate(0.000000 0.000000 0.000000)"
/>


<path
d="M 396.573526036924 491 A 35 20 1 0 0 396.573526036924 491"
id="wikipathways_WP136_f37_wikipathways_WP136_cae49"
style="fill:white;fill-opacity:0.600000;stroke-width:1;stroke:black;stroke-opacity:0.000000"
transform = "rotate(0.000000 0.000000 0.000000)"
/>


<ellipse
rx="35.000000"
ry="20.000000"
cx="361.573526"
cy="491.000000"
id="wikipathways_WP136_f37_wikipathways_WP136_cae49"
style="fill:white;fill-opacity:0.000000;stroke:black;stroke-width:1.000000;stroke-opacity:1.000000" />


<text
x="361.573526"
y="497.000000"
id="wikipathways_WP136_f37_wikipathways_WP136_cae49"
style="font-size:18.000000px;text-anchor:middle;font-family:Arial,Helvetica;alignment-baseline:baseline;stroke.opacity:1;dominant-baseline:baseline"
fill="black"
>
noname</text>




<path d="M181.000000 306.000000 C 244.000000 319.000000, 364.000000 344.000000,404.000000 353.000000" stroke="black"  fill="transparent"/>

<line
x1="364" y1="344" x2="404" y2="353"
id="0"
style="stroke:black;stroke-width:1.000000;stroke-opacity:0" />


<line
x1="244" y1="319" x2="181" y2="306"
id="wikipathways_WP136_db646_LEFT_TO_RIGHT-output--to--wikipathways_WP136_b0e4c"
style="stroke:black;stroke-width:1.000000;stroke-opacity:0" />


<polygon
points = "181,306 172.2,301.6 172.2,310.4"
id="line"
style="fill:black; stroke:#000000; stroke-width:1"
transform = "rotate(191.659293 181.000000 306.000000)"
/>


<path d="M456.000000 277.000000 C 420.000000 272.000000, 367.000000 265.000000,343.000000 261.000000" stroke="black"  fill="transparent"/>

<line
x1="420" y1="272" x2="456" y2="277"
id="0"
style="stroke:black;stroke-width:1.000000;stroke-opacity:0" />


<line
x1="367" y1="265" x2="343" y2="261"
id="wikipathways_WP136_a1e36--to--wikipathways_WP136_af048-input"
style="stroke:black;stroke-width:1.000000;stroke-opacity:0" />


<polygon
points = "343,261 329.8,256.6 334.2,261 329.8,265.4"
id="line"
style="fill:black; stroke:#000000; stroke-width:1"
transform = "rotate(189.462322 343.000000 261.000000)"
/>


<path d="M432.000000 174.000000 C 464.000000 202.000000, 547.000000 274.000000,588.000000 309.000000" stroke="black"  fill="transparent"/>

<line
x1="547" y1="274" x2="588" y2="309"
id="0"
style="stroke:black;stroke-width:1.000000;stroke-opacity:0" />


<line
x1="464" y1="202" x2="432" y2="174"
id="wikipathways_WP136_ab569--to--wikipathways_WP136_d1dd6-input"
style="stroke:black;stroke-width:1.000000;stroke-opacity:0" />


<polygon
points = "432,174 418.8,169.6 423.2,174 418.8,178.4"
id="line"
style="fill:black; stroke:#000000; stroke-width:1"
transform = "rotate(221.185925 432.000000 174.000000)"
/>


<path d="M412.000000 369.000000 C 403.000000 392.000000, 384.000000 436.000000,372.000000 465.000000" stroke="black"  fill="transparent"/>

<line
x1="384" y1="436" x2="372" y2="465"
id="0"
style="stroke:black;stroke-width:1.000000;stroke-opacity:0" />


<line
x1="403" y1="392" x2="412" y2="369"
id="wikipathways_WP136_cae49--to--wikipathways_WP136_db646_LEFT_TO_RIGHT-input"
style="stroke:black;stroke-width:1.000000;stroke-opacity:0" />


<path d="M671.000000 216.000000 C 669.000000 243.000000, 662.000000 303.000000,649.000000 352.000000" stroke="black"  fill="transparent"/>
<path d="M649.000000 352.000000 C 641.000000 385.000000, 626.000000 423.000000,617.000000 445.000000" stroke="black"  fill="transparent"/>

<line
x1="626" y1="423" x2="617" y2="445"
id="0"
style="stroke:black;stroke-width:1.000000;stroke-opacity:0" />


<line
x1="669" y1="243" x2="671" y2="216"
id="wikipathways_WP136_aa661--to--wikipathways_WP136_ae21f-input"
style="stroke:black;stroke-width:1.000000;stroke-opacity:0" />


<polygon
points = "671,216 657.8,211.6 662.2,216 657.8,220.4"
id="line"
style="fill:black; stroke:#000000; stroke-width:1"
transform = "rotate(-85.763605 671.000000 216.000000)"
/>


<path d="M231.000000 463.000000 C 254.000000 414.000000, 305.000000 310.000000,323.000000 273.000000" stroke="black"  fill="transparent"/>

<line
x1="254" y1="414" x2="231" y2="463"
id="0"
style="stroke:black;stroke-width:1.000000;stroke-opacity:0" />


<line
x1="305" y1="310" x2="323" y2="273"
id="wikipathways_WP136_c28bd--to--wikipathways_WP136_af048-input"
style="stroke:black;stroke-width:1.000000;stroke-opacity:0" />


<polygon
points = "323,273 309.8,268.6 314.2,273 309.8,277.4"
id="line"
style="fill:black; stroke:#000000; stroke-width:1"
transform = "rotate(-64.057705 323.000000 273.000000)"
/>






<rect
width="2.485149"
height="21.428571"
rx="0.000000"
ry="0.000000"
x="684.859247"
y="106.858836"
id="col.pan"
style="fill:#FFFF00;fill-opacity:1.000000;stroke:black;stroke-width:0.000000;stroke-opacity:0.000000" />


<rect
width="2.485149"
height="21.428571"
rx="0.000000"
ry="0.000000"
x="683.374099"
y="106.858836"
id="col.pan"
style="fill:#FEFE04;fill-opacity:1.000000;stroke:black;stroke-width:0.000000;stroke-opacity:0.000000" />


<rect
width="2.485149"
height="21.428571"
rx="0.000000"
ry="0.000000"
x="681.888950"
y="106.858836"
id="col.pan"
style="fill:#FCFC08;fill-opacity:1.000000;stroke:black;stroke-width:0.000000;stroke-opacity:0.000000" />


<rect
width="2.485149"
height="21.428571"
rx="0.000000"
ry="0.000000"
x="680.403802"
y="106.858836"
id="col.pan"
style="fill:#FBFB0B;fill-opacity:1.000000;stroke:black;stroke-width:0.000000;stroke-opacity:0.000000" />


<rect
width="2.485149"
height="21.428571"
rx="0.000000"
ry="0.000000"
x="678.918653"
y="106.858836"
id="col.pan"
style="fill:#FAFA0F;fill-opacity:1.000000;stroke:black;stroke-width:0.000000;stroke-opacity:0.000000" />


<rect
width="2.485149"
height="21.428571"
rx="0.000000"
ry="0.000000"
x="677.433505"
y="106.858836"
id="col.pan"
style="fill:#F9F913;fill-opacity:1.000000;stroke:black;stroke-width:0.000000;stroke-opacity:0.000000" />


<rect
width="2.485149"
height="21.428571"
rx="0.000000"
ry="0.000000"
x="675.948356"
y="106.858836"
id="col.pan"
style="fill:#F7F717;fill-opacity:1.000000;stroke:black;stroke-width:0.000000;stroke-opacity:0.000000" />


<rect
width="2.485149"
height="21.428571"
rx="0.000000"
ry="0.000000"
x="674.463208"
y="106.858836"
id="col.pan"
style="fill:#F6F61B;fill-opacity:1.000000;stroke:black;stroke-width:0.000000;stroke-opacity:0.000000" />


<rect
width="2.485149"
height="21.428571"
rx="0.000000"
ry="0.000000"
x="672.978059"
y="106.858836"
id="col.pan"
style="fill:#F5F51E;fill-opacity:1.000000;stroke:black;stroke-width:0.000000;stroke-opacity:0.000000" />


<rect
width="2.485149"
height="21.428571"
rx="0.000000"
ry="0.000000"
x="671.492911"
y="106.858836"
id="col.pan"
style="fill:#F3F322;fill-opacity:1.000000;stroke:black;stroke-width:0.000000;stroke-opacity:0.000000" />


<rect
width="2.485149"
height="21.428571"
rx="0.000000"
ry="0.000000"
x="670.007762"
y="106.858836"
id="col.pan"
style="fill:#F2F226;fill-opacity:1.000000;stroke:black;stroke-width:0.000000;stroke-opacity:0.000000" />


<rect
width="2.485149"
height="21.428571"
rx="0.000000"
ry="0.000000"
x="668.522614"
y="106.858836"
id="col.pan"
style="fill:#F1F12A;fill-opacity:1.000000;stroke:black;stroke-width:0.000000;stroke-opacity:0.000000" />


<rect
width="2.485149"
height="21.428571"
rx="0.000000"
ry="0.000000"
x="667.037465"
y="106.858836"
id="col.pan"
style="fill:#EFEF2E;fill-opacity:1.000000;stroke:black;stroke-width:0.000000;stroke-opacity:0.000000" />


<rect
width="2.485149"
height="21.428571"
rx="0.000000"
ry="0.000000"
x="665.552317"
y="106.858836"
id="col.pan"
style="fill:#EEEE31;fill-opacity:1.000000;stroke:black;stroke-width:0.000000;stroke-opacity:0.000000" />


<rect
width="2.485149"
height="21.428571"
rx="0.000000"
ry="0.000000"
x="664.067168"
y="106.858836"
id="col.pan"
style="fill:#EDED35;fill-opacity:1.000000;stroke:black;stroke-width:0.000000;stroke-opacity:0.000000" />


<rect
width="2.485149"
height="21.428571"
rx="0.000000"
ry="0.000000"
x="662.582020"
y="106.858836"
id="col.pan"
style="fill:#ECEC39;fill-opacity:1.000000;stroke:black;stroke-width:0.000000;stroke-opacity:0.000000" />


<rect
width="2.485149"
height="21.428571"
rx="0.000000"
ry="0.000000"
x="661.096871"
y="106.858836"
id="col.pan"
style="fill:#EAEA3D;fill-opacity:1.000000;stroke:black;stroke-width:0.000000;stroke-opacity:0.000000" />


<rect
width="2.485149"
height="21.428571"
rx="0.000000"
ry="0.000000"
x="659.611723"
y="106.858836"
id="col.pan"
style="fill:#E9E941;fill-opacity:1.000000;stroke:black;stroke-width:0.000000;stroke-opacity:0.000000" />


<rect
width="2.485149"
height="21.428571"
rx="0.000000"
ry="0.000000"
x="658.126574"
y="106.858836"
id="col.pan"
style="fill:#E8E844;fill-opacity:1.000000;stroke:black;stroke-width:0.000000;stroke-opacity:0.000000" />


<rect
width="2.485149"
height="21.428571"
rx="0.000000"
ry="0.000000"
x="656.641426"
y="106.858836"
id="col.pan"
style="fill:#E6E648;fill-opacity:1.000000;stroke:black;stroke-width:0.000000;stroke-opacity:0.000000" />


<rect
width="2.485149"
height="21.428571"
rx="0.000000"
ry="0.000000"
x="655.156277"
y="106.858836"
id="col.pan"
style="fill:#E5E54C;fill-opacity:1.000000;stroke:black;stroke-width:0.000000;stroke-opacity:0.000000" />


<rect
width="2.485149"
height="21.428571"
rx="0.000000"
ry="0.000000"
x="653.671129"
y="106.858836"
id="col.pan"
style="fill:#E4E450;fill-opacity:1.000000;stroke:black;stroke-width:0.000000;stroke-opacity:0.000000" />


<rect
width="2.485149"
height="21.428571"
rx="0.000000"
ry="0.000000"
x="652.185980"
y="106.858836"
id="col.pan"
style="fill:#E2E254;fill-opacity:1.000000;stroke:black;stroke-width:0.000000;stroke-opacity:0.000000" />


<rect
width="2.485149"
height="21.428571"
rx="0.000000"
ry="0.000000"
x="650.700831"
y="106.858836"
id="col.pan"
style="fill:#E1E157;fill-opacity:1.000000;stroke:black;stroke-width:0.000000;stroke-opacity:0.000000" />


<rect
width="2.485149"
height="21.428571"
rx="0.000000"
ry="0.000000"
x="649.215683"
y="106.858836"
id="col.pan"
style="fill:#E0E05B;fill-opacity:1.000000;stroke:black;stroke-width:0.000000;stroke-opacity:0.000000" />


<rect
width="2.485149"
height="21.428571"
rx="0.000000"
ry="0.000000"
x="647.730534"
y="106.858836"
id="col.pan"
style="fill:#DFDF5F;fill-opacity:1.000000;stroke:black;stroke-width:0.000000;stroke-opacity:0.000000" />


<rect
width="2.485149"
height="21.428571"
rx="0.000000"
ry="0.000000"
x="646.245386"
y="106.858836"
id="col.pan"
style="fill:#DDDD63;fill-opacity:1.000000;stroke:black;stroke-width:0.000000;stroke-opacity:0.000000" />


<rect
width="2.485149"
height="21.428571"
rx="0.000000"
ry="0.000000"
x="644.760237"
y="106.858836"
id="col.pan"
style="fill:#DCDC67;fill-opacity:1.000000;stroke:black;stroke-width:0.000000;stroke-opacity:0.000000" />


<rect
width="2.485149"
height="21.428571"
rx="0.000000"
ry="0.000000"
x="643.275089"
y="106.858836"
id="col.pan"
style="fill:#DBDB6A;fill-opacity:1.000000;stroke:black;stroke-width:0.000000;stroke-opacity:0.000000" />


<rect
width="2.485149"
height="21.428571"
rx="0.000000"
ry="0.000000"
x="641.789940"
y="106.858836"
id="col.pan"
style="fill:#D9D96E;fill-opacity:1.000000;stroke:black;stroke-width:0.000000;stroke-opacity:0.000000" />


<rect
width="2.485149"
height="21.428571"
rx="0.000000"
ry="0.000000"
x="640.304792"
y="106.858836"
id="col.pan"
style="fill:#D8D872;fill-opacity:1.000000;stroke:black;stroke-width:0.000000;stroke-opacity:0.000000" />


<rect
width="2.485149"
height="21.428571"
rx="0.000000"
ry="0.000000"
x="638.819643"
y="106.858836"
id="col.pan"
style="fill:#D7D776;fill-opacity:1.000000;stroke:black;stroke-width:0.000000;stroke-opacity:0.000000" />


<rect
width="2.485149"
height="21.428571"
rx="0.000000"
ry="0.000000"
x="637.334495"
y="106.858836"
id="col.pan"
style="fill:#D5D57A;fill-opacity:1.000000;stroke:black;stroke-width:0.000000;stroke-opacity:0.000000" />


<rect
width="2.485149"
height="21.428571"
rx="0.000000"
ry="0.000000"
x="635.849346"
y="106.858836"
id="col.pan"
style="fill:#D4D47D;fill-opacity:1.000000;stroke:black;stroke-width:0.000000;stroke-opacity:0.000000" />


<rect
width="2.485149"
height="21.428571"
rx="0.000000"
ry="0.000000"
x="634.364198"
y="106.858836"
id="col.pan"
style="fill:#D3D381;fill-opacity:1.000000;stroke:black;stroke-width:0.000000;stroke-opacity:0.000000" />


<rect
width="2.485149"
height="21.428571"
rx="0.000000"
ry="0.000000"
x="632.879049"
y="106.858836"
id="col.pan"
style="fill:#D2D285;fill-opacity:1.000000;stroke:black;stroke-width:0.000000;stroke-opacity:0.000000" />


<rect
width="2.485149"
height="21.428571"
rx="0.000000"
ry="0.000000"
x="631.393901"
y="106.858836"
id="col.pan"
style="fill:#D0D089;fill-opacity:1.000000;stroke:black;stroke-width:0.000000;stroke-opacity:0.000000" />


<rect
width="2.485149"
height="21.428571"
rx="0.000000"
ry="0.000000"
x="629.908752"
y="106.858836"
id="col.pan"
style="fill:#CFCF8D;fill-opacity:1.000000;stroke:black;stroke-width:0.000000;stroke-opacity:0.000000" />


<rect
width="2.485149"
height="21.428571"
rx="0.000000"
ry="0.000000"
x="628.423604"
y="106.858836"
id="col.pan"
style="fill:#CECE90;fill-opacity:1.000000;stroke:black;stroke-width:0.000000;stroke-opacity:0.000000" />


<rect
width="2.485149"
height="21.428571"
rx="0.000000"
ry="0.000000"
x="626.938455"
y="106.858836"
id="col.pan"
style="fill:#CCCC94;fill-opacity:1.000000;stroke:black;stroke-width:0.000000;stroke-opacity:0.000000" />


<rect
width="2.485149"
height="21.428571"
rx="0.000000"
ry="0.000000"
x="625.453307"
y="106.858836"
id="col.pan"
style="fill:#CBCB98;fill-opacity:1.000000;stroke:black;stroke-width:0.000000;stroke-opacity:0.000000" />


<rect
width="2.485149"
height="21.428571"
rx="0.000000"
ry="0.000000"
x="623.968158"
y="106.858836"
id="col.pan"
style="fill:#CACA9C;fill-opacity:1.000000;stroke:black;stroke-width:0.000000;stroke-opacity:0.000000" />


<rect
width="2.485149"
height="21.428571"
rx="0.000000"
ry="0.000000"
x="622.483010"
y="106.858836"
id="col.pan"
style="fill:#C8C8A0;fill-opacity:1.000000;stroke:black;stroke-width:0.000000;stroke-opacity:0.000000" />


<rect
width="2.485149"
height="21.428571"
rx="0.000000"
ry="0.000000"
x="620.997861"
y="106.858836"
id="col.pan"
style="fill:#C7C7A3;fill-opacity:1.000000;stroke:black;stroke-width:0.000000;stroke-opacity:0.000000" />


<rect
width="2.485149"
height="21.428571"
rx="0.000000"
ry="0.000000"
x="619.512713"
y="106.858836"
id="col.pan"
style="fill:#C6C6A7;fill-opacity:1.000000;stroke:black;stroke-width:0.000000;stroke-opacity:0.000000" />


<rect
width="2.485149"
height="21.428571"
rx="0.000000"
ry="0.000000"
x="618.027564"
y="106.858836"
id="col.pan"
style="fill:#C5C5AB;fill-opacity:1.000000;stroke:black;stroke-width:0.000000;stroke-opacity:0.000000" />


<rect
width="2.485149"
height="21.428571"
rx="0.000000"
ry="0.000000"
x="616.542416"
y="106.858836"
id="col.pan"
style="fill:#C3C3AF;fill-opacity:1.000000;stroke:black;stroke-width:0.000000;stroke-opacity:0.000000" />


<rect
width="2.485149"
height="21.428571"
rx="0.000000"
ry="0.000000"
x="615.057267"
y="106.858836"
id="col.pan"
style="fill:#C2C2B3;fill-opacity:1.000000;stroke:black;stroke-width:0.000000;stroke-opacity:0.000000" />


<rect
width="2.485149"
height="21.428571"
rx="0.000000"
ry="0.000000"
x="613.572119"
y="106.858836"
id="col.pan"
style="fill:#C1C1B6;fill-opacity:1.000000;stroke:black;stroke-width:0.000000;stroke-opacity:0.000000" />


<rect
width="2.485149"
height="21.428571"
rx="0.000000"
ry="0.000000"
x="612.086970"
y="106.858836"
id="col.pan"
style="fill:#BFBFBA;fill-opacity:1.000000;stroke:black;stroke-width:0.000000;stroke-opacity:0.000000" />


<rect
width="2.485149"
height="21.428571"
rx="0.000000"
ry="0.000000"
x="610.601822"
y="106.858836"
id="col.pan"
style="fill:#BEBEBE;fill-opacity:1.000000;stroke:black;stroke-width:0.000000;stroke-opacity:0.000000" />


<rect
width="2.485149"
height="21.428571"
rx="0.000000"
ry="0.000000"
x="609.116673"
y="106.858836"
id="col.pan"
style="fill:#BABABF;fill-opacity:1.000000;stroke:black;stroke-width:0.000000;stroke-opacity:0.000000" />


<rect
width="2.485149"
height="21.428571"
rx="0.000000"
ry="0.000000"
x="607.631525"
y="106.858836"
id="col.pan"
style="fill:#B6B6C1;fill-opacity:1.000000;stroke:black;stroke-width:0.000000;stroke-opacity:0.000000" />


<rect
width="2.485149"
height="21.428571"
rx="0.000000"
ry="0.000000"
x="606.146376"
y="106.858836"
id="col.pan"
style="fill:#B3B3C2;fill-opacity:1.000000;stroke:black;stroke-width:0.000000;stroke-opacity:0.000000" />


<rect
width="2.485149"
height="21.428571"
rx="0.000000"
ry="0.000000"
x="604.661228"
y="106.858836"
id="col.pan"
style="fill:#AFAFC3;fill-opacity:1.000000;stroke:black;stroke-width:0.000000;stroke-opacity:0.000000" />


<rect
width="2.485149"
height="21.428571"
rx="0.000000"
ry="0.000000"
x="603.176079"
y="106.858836"
id="col.pan"
style="fill:#ABABC5;fill-opacity:1.000000;stroke:black;stroke-width:0.000000;stroke-opacity:0.000000" />


<rect
width="2.485149"
height="21.428571"
rx="0.000000"
ry="0.000000"
x="601.690931"
y="106.858836"
id="col.pan"
style="fill:#A7A7C6;fill-opacity:1.000000;stroke:black;stroke-width:0.000000;stroke-opacity:0.000000" />


<rect
width="2.485149"
height="21.428571"
rx="0.000000"
ry="0.000000"
x="600.205782"
y="106.858836"
id="col.pan"
style="fill:#A3A3C7;fill-opacity:1.000000;stroke:black;stroke-width:0.000000;stroke-opacity:0.000000" />


<rect
width="2.485149"
height="21.428571"
rx="0.000000"
ry="0.000000"
x="598.720633"
y="106.858836"
id="col.pan"
style="fill:#A0A0C8;fill-opacity:1.000000;stroke:black;stroke-width:0.000000;stroke-opacity:0.000000" />


<rect
width="2.485149"
height="21.428571"
rx="0.000000"
ry="0.000000"
x="597.235485"
y="106.858836"
id="col.pan"
style="fill:#9C9CCA;fill-opacity:1.000000;stroke:black;stroke-width:0.000000;stroke-opacity:0.000000" />


<rect
width="2.485149"
height="21.428571"
rx="0.000000"
ry="0.000000"
x="595.750336"
y="106.858836"
id="col.pan"
style="fill:#9898CB;fill-opacity:1.000000;stroke:black;stroke-width:0.000000;stroke-opacity:0.000000" />


<rect
width="2.485149"
height="21.428571"
rx="0.000000"
ry="0.000000"
x="594.265188"
y="106.858836"
id="col.pan"
style="fill:#9494CC;fill-opacity:1.000000;stroke:black;stroke-width:0.000000;stroke-opacity:0.000000" />


<rect
width="2.485149"
height="21.428571"
rx="0.000000"
ry="0.000000"
x="592.780039"
y="106.858836"
id="col.pan"
style="fill:#9090CE;fill-opacity:1.000000;stroke:black;stroke-width:0.000000;stroke-opacity:0.000000" />


<rect
width="2.485149"
height="21.428571"
rx="0.000000"
ry="0.000000"
x="591.294891"
y="106.858836"
id="col.pan"
style="fill:#8D8DCF;fill-opacity:1.000000;stroke:black;stroke-width:0.000000;stroke-opacity:0.000000" />


<rect
width="2.485149"
height="21.428571"
rx="0.000000"
ry="0.000000"
x="589.809742"
y="106.858836"
id="col.pan"
style="fill:#8989D0;fill-opacity:1.000000;stroke:black;stroke-width:0.000000;stroke-opacity:0.000000" />


<rect
width="2.485149"
height="21.428571"
rx="0.000000"
ry="0.000000"
x="588.324594"
y="106.858836"
id="col.pan"
style="fill:#8585D2;fill-opacity:1.000000;stroke:black;stroke-width:0.000000;stroke-opacity:0.000000" />


<rect
width="2.485149"
height="21.428571"
rx="0.000000"
ry="0.000000"
x="586.839445"
y="106.858836"
id="col.pan"
style="fill:#8181D3;fill-opacity:1.000000;stroke:black;stroke-width:0.000000;stroke-opacity:0.000000" />


<rect
width="2.485149"
height="21.428571"
rx="0.000000"
ry="0.000000"
x="585.354297"
y="106.858836"
id="col.pan"
style="fill:#7D7DD4;fill-opacity:1.000000;stroke:black;stroke-width:0.000000;stroke-opacity:0.000000" />


<rect
width="2.485149"
height="21.428571"
rx="0.000000"
ry="0.000000"
x="583.869148"
y="106.858836"
id="col.pan"
style="fill:#7A7AD5;fill-opacity:1.000000;stroke:black;stroke-width:0.000000;stroke-opacity:0.000000" />


<rect
width="2.485149"
height="21.428571"
rx="0.000000"
ry="0.000000"
x="582.384000"
y="106.858836"
id="col.pan"
style="fill:#7676D7;fill-opacity:1.000000;stroke:black;stroke-width:0.000000;stroke-opacity:0.000000" />


<rect
width="2.485149"
height="21.428571"
rx="0.000000"
ry="0.000000"
x="580.898851"
y="106.858836"
id="col.pan"
style="fill:#7272D8;fill-opacity:1.000000;stroke:black;stroke-width:0.000000;stroke-opacity:0.000000" />


<rect
width="2.485149"
height="21.428571"
rx="0.000000"
ry="0.000000"
x="579.413703"
y="106.858836"
id="col.pan"
style="fill:#6E6ED9;fill-opacity:1.000000;stroke:black;stroke-width:0.000000;stroke-opacity:0.000000" />


<rect
width="2.485149"
height="21.428571"
rx="0.000000"
ry="0.000000"
x="577.928554"
y="106.858836"
id="col.pan"
style="fill:#6A6ADB;fill-opacity:1.000000;stroke:black;stroke-width:0.000000;stroke-opacity:0.000000" />


<rect
width="2.485149"
height="21.428571"
rx="0.000000"
ry="0.000000"
x="576.443406"
y="106.858836"
id="col.pan"
style="fill:#6767DC;fill-opacity:1.000000;stroke:black;stroke-width:0.000000;stroke-opacity:0.000000" />


<rect
width="2.485149"
height="21.428571"
rx="0.000000"
ry="0.000000"
x="574.958257"
y="106.858836"
id="col.pan"
style="fill:#6363DD;fill-opacity:1.000000;stroke:black;stroke-width:0.000000;stroke-opacity:0.000000" />


<rect
width="2.485149"
height="21.428571"
rx="0.000000"
ry="0.000000"
x="573.473109"
y="106.858836"
id="col.pan"
style="fill:#5F5FDF;fill-opacity:1.000000;stroke:black;stroke-width:0.000000;stroke-opacity:0.000000" />


<rect
width="2.485149"
height="21.428571"
rx="0.000000"
ry="0.000000"
x="571.987960"
y="106.858836"
id="col.pan"
style="fill:#5B5BE0;fill-opacity:1.000000;stroke:black;stroke-width:0.000000;stroke-opacity:0.000000" />


<rect
width="2.485149"
height="21.428571"
rx="0.000000"
ry="0.000000"
x="570.502812"
y="106.858836"
id="col.pan"
style="fill:#5757E1;fill-opacity:1.000000;stroke:black;stroke-width:0.000000;stroke-opacity:0.000000" />


<rect
width="2.485149"
height="21.428571"
rx="0.000000"
ry="0.000000"
x="569.017663"
y="106.858836"
id="col.pan"
style="fill:#5454E2;fill-opacity:1.000000;stroke:black;stroke-width:0.000000;stroke-opacity:0.000000" />


<rect
width="2.485149"
height="21.428571"
rx="0.000000"
ry="0.000000"
x="567.532515"
y="106.858836"
id="col.pan"
style="fill:#5050E4;fill-opacity:1.000000;stroke:black;stroke-width:0.000000;stroke-opacity:0.000000" />


<rect
width="2.485149"
height="21.428571"
rx="0.000000"
ry="0.000000"
x="566.047366"
y="106.858836"
id="col.pan"
style="fill:#4C4CE5;fill-opacity:1.000000;stroke:black;stroke-width:0.000000;stroke-opacity:0.000000" />


<rect
width="2.485149"
height="21.428571"
rx="0.000000"
ry="0.000000"
x="564.562218"
y="106.858836"
id="col.pan"
style="fill:#4848E6;fill-opacity:1.000000;stroke:black;stroke-width:0.000000;stroke-opacity:0.000000" />


<rect
width="2.485149"
height="21.428571"
rx="0.000000"
ry="0.000000"
x="563.077069"
y="106.858836"
id="col.pan"
style="fill:#4444E8;fill-opacity:1.000000;stroke:black;stroke-width:0.000000;stroke-opacity:0.000000" />


<rect
width="2.485149"
height="21.428571"
rx="0.000000"
ry="0.000000"
x="561.591921"
y="106.858836"
id="col.pan"
style="fill:#4141E9;fill-opacity:1.000000;stroke:black;stroke-width:0.000000;stroke-opacity:0.000000" />


<rect
width="2.485149"
height="21.428571"
rx="0.000000"
ry="0.000000"
x="560.106772"
y="106.858836"
id="col.pan"
style="fill:#3D3DEA;fill-opacity:1.000000;stroke:black;stroke-width:0.000000;stroke-opacity:0.000000" />


<rect
width="2.485149"
height="21.428571"
rx="0.000000"
ry="0.000000"
x="558.621624"
y="106.858836"
id="col.pan"
style="fill:#3939EC;fill-opacity:1.000000;stroke:black;stroke-width:0.000000;stroke-opacity:0.000000" />


<rect
width="2.485149"
height="21.428571"
rx="0.000000"
ry="0.000000"
x="557.136475"
y="106.858836"
id="col.pan"
style="fill:#3535ED;fill-opacity:1.000000;stroke:black;stroke-width:0.000000;stroke-opacity:0.000000" />


<rect
width="2.485149"
height="21.428571"
rx="0.000000"
ry="0.000000"
x="555.651327"
y="106.858836"
id="col.pan"
style="fill:#3131EE;fill-opacity:1.000000;stroke:black;stroke-width:0.000000;stroke-opacity:0.000000" />


<rect
width="2.485149"
height="21.428571"
rx="0.000000"
ry="0.000000"
x="554.166178"
y="106.858836"
id="col.pan"
style="fill:#2E2EEF;fill-opacity:1.000000;stroke:black;stroke-width:0.000000;stroke-opacity:0.000000" />


<rect
width="2.485149"
height="21.428571"
rx="0.000000"
ry="0.000000"
x="552.681030"
y="106.858836"
id="col.pan"
style="fill:#2A2AF1;fill-opacity:1.000000;stroke:black;stroke-width:0.000000;stroke-opacity:0.000000" />


<rect
width="2.485149"
height="21.428571"
rx="0.000000"
ry="0.000000"
x="551.195881"
y="106.858836"
id="col.pan"
style="fill:#2626F2;fill-opacity:1.000000;stroke:black;stroke-width:0.000000;stroke-opacity:0.000000" />


<rect
width="2.485149"
height="21.428571"
rx="0.000000"
ry="0.000000"
x="549.710732"
y="106.858836"
id="col.pan"
style="fill:#2222F3;fill-opacity:1.000000;stroke:black;stroke-width:0.000000;stroke-opacity:0.000000" />


<rect
width="2.485149"
height="21.428571"
rx="0.000000"
ry="0.000000"
x="548.225584"
y="106.858836"
id="col.pan"
style="fill:#1E1EF5;fill-opacity:1.000000;stroke:black;stroke-width:0.000000;stroke-opacity:0.000000" />


<rect
width="2.485149"
height="21.428571"
rx="0.000000"
ry="0.000000"
x="546.740435"
y="106.858836"
id="col.pan"
style="fill:#1B1BF6;fill-opacity:1.000000;stroke:black;stroke-width:0.000000;stroke-opacity:0.000000" />


<rect
width="2.485149"
height="21.428571"
rx="0.000000"
ry="0.000000"
x="545.255287"
y="106.858836"
id="col.pan"
style="fill:#1717F7;fill-opacity:1.000000;stroke:black;stroke-width:0.000000;stroke-opacity:0.000000" />


<rect
width="2.485149"
height="21.428571"
rx="0.000000"
ry="0.000000"
x="543.770138"
y="106.858836"
id="col.pan"
style="fill:#1313F9;fill-opacity:1.000000;stroke:black;stroke-width:0.000000;stroke-opacity:0.000000" />


<rect
width="2.485149"
height="21.428571"
rx="0.000000"
ry="0.000000"
x="542.284990"
y="106.858836"
id="col.pan"
style="fill:#0F0FFA;fill-opacity:1.000000;stroke:black;stroke-width:0.000000;stroke-opacity:0.000000" />


<rect
width="2.485149"
height="21.428571"
rx="0.000000"
ry="0.000000"
x="540.799841"
y="106.858836"
id="col.pan"
style="fill:#0B0BFB;fill-opacity:1.000000;stroke:black;stroke-width:0.000000;stroke-opacity:0.000000" />


<rect
width="2.485149"
height="21.428571"
rx="0.000000"
ry="0.000000"
x="539.314693"
y="106.858836"
id="col.pan"
style="fill:#0808FC;fill-opacity:1.000000;stroke:black;stroke-width:0.000000;stroke-opacity:0.000000" />


<rect
width="2.485149"
height="21.428571"
rx="0.000000"
ry="0.000000"
x="537.829544"
y="106.858836"
id="col.pan"
style="fill:#0404FE;fill-opacity:1.000000;stroke:black;stroke-width:0.000000;stroke-opacity:0.000000" />


<rect
width="2.485149"
height="21.428571"
rx="0.000000"
ry="0.000000"
x="536.344396"
y="106.858836"
id="col.pan"
style="fill:#0000FF;fill-opacity:1.000000;stroke:black;stroke-width:0.000000;stroke-opacity:0.000000" />


<line
x1="536.344395851746" y1="106.858835702574" x2="536.344395851746" y2="133.644549988288"
id="tick"
style="stroke:black;stroke-width:2.000000;stroke-opacity:1" />


<line
x1="551.344395851746" y1="106.858835702574" x2="551.344395851746" y2="133.644549988288"
id="tick"
style="stroke:black;stroke-width:2.000000;stroke-opacity:1" />


<line
x1="566.344395851746" y1="106.858835702574" x2="566.344395851746" y2="133.644549988288"
id="tick"
style="stroke:black;stroke-width:2.000000;stroke-opacity:1" />


<line
x1="581.344395851746" y1="106.858835702574" x2="581.344395851746" y2="133.644549988288"
id="tick"
style="stroke:black;stroke-width:2.000000;stroke-opacity:1" />


<line
x1="596.344395851746" y1="106.858835702574" x2="596.344395851746" y2="133.644549988288"
id="tick"
style="stroke:black;stroke-width:2.000000;stroke-opacity:1" />


<line
x1="611.344395851746" y1="106.858835702574" x2="611.344395851746" y2="133.644549988288"
id="tick"
style="stroke:black;stroke-width:2.000000;stroke-opacity:1" />


<line
x1="626.344395851746" y1="106.858835702574" x2="626.344395851746" y2="133.644549988288"
id="tick"
style="stroke:black;stroke-width:2.000000;stroke-opacity:1" />


<line
x1="641.344395851746" y1="106.858835702574" x2="641.344395851746" y2="133.644549988288"
id="tick"
style="stroke:black;stroke-width:2.000000;stroke-opacity:1" />


<line
x1="656.344395851746" y1="106.858835702574" x2="656.344395851746" y2="133.644549988288"
id="tick"
style="stroke:black;stroke-width:2.000000;stroke-opacity:1" />


<line
x1="671.344395851746" y1="106.858835702574" x2="671.344395851746" y2="133.644549988288"
id="tick"
style="stroke:black;stroke-width:2.000000;stroke-opacity:1" />


<line
x1="686.344395851746" y1="106.858835702574" x2="686.344395851746" y2="133.644549988288"
id="tick"
style="stroke:black;stroke-width:2.000000;stroke-opacity:1" />


<text
x="685.601822"
y="156.858836"
id="color.panel.max.value"
style="font-size:21.428571px;text-anchor:middle;font-family:Arial,Helvetica;alignment-baseline:baseline;stroke.opacity:1;dominant-baseline:baseline"
fill="black"
>
1</text>


<text
x="537.086970"
y="156.858836"
id="color.panel.low.value"
style="font-size:21.428571px;text-anchor:middle;font-family:Arial,Helvetica;alignment-baseline:baseline;stroke.opacity:1;dominant-baseline:baseline"
fill="black"
>
-1</text>


<text
x="612.829544"
y="156.858836"
id="color.panel.mid.value"
style="font-size:21.428571px;text-anchor:middle;font-family:Arial,Helvetica;alignment-baseline:baseline;stroke.opacity:1;dominant-baseline:baseline"
fill="black"
>
0</text>

</svg>
