<?xml version="1.0" encoding="UTF-8"?>
<svg width="930.818313" height="792.641076"
xmlns="http://www.w3.org/2000/svg" xmlns:svg="http://www.w3.org/2000/svg"
>
<metadata id="metadata7">image/svg+xml</metadata>

<rect
width="500.818313"
height="469.641076"
rx="11.000000"
ry="11.000000"
x="100.000000"
y="198.000000"
id="extracellular"
style="fill:white;fill-opacity:0.900000;stroke:black;stroke-width:5.000000;stroke-opacity:1.000000" />


<text
x="350.409156"
y="190.000000"
id="extracellular"
style="font-size:24.000000px;text-anchor:middle;font-family:Arial,Helvetica;alignment-baseline:baseline;stroke.opacity:1;dominant-baseline:baseline"
fill="black"
>
extracellular</text>


<rect
width="500.818313"
height="469.641076"
rx="11.000000"
ry="11.000000"
x="100.000000"
y="198.000000"
id="extracellular"
style="fill:white;fill-opacity:0.900000;stroke:black;stroke-width:5.000000;stroke-opacity:1.000000" />


<text
x="350.409156"
y="190.000000"
id="extracellular"
style="font-size:24.000000px;text-anchor:middle;font-family:Arial,Helvetica;alignment-baseline:baseline;stroke.opacity:1;dominant-baseline:baseline"
fill="black"
>
extracellular</text>

NULL
NULL
NULL
NULL
NULL
NULL
NULL
NULL
NULL
NULL
NULL




<ellipse
rx="35.000000"
ry="20.000000"
cx="554.818313"
cy="392.320538"
id="SmallMolecule_7c0b3c0ba6a9d9e38e26d0fcc6ce1f4c"
style="fill:#FEFE02;fill-opacity:0.600000;stroke:black;stroke-width:1.000000;stroke-opacity:0.000000" />


<path
d="M 537.31831290997 409.641045986043 A 35 20 1 1 0 537.31831290997 375.000029834665"
id="SmallMolecule_7c0b3c0ba6a9d9e38e26d0fcc6ce1f4c"
style="fill:#0000FF;fill-opacity:0.600000;stroke-width:1;stroke:black;stroke-opacity:0.000000"
transform = "rotate(0.000000 0.000000 0.000000)"
/>


<path
d="M 554.81831290997 412.320537910354 A 35 20 1 1 0 554.81831290997 372.320537910354"
id="SmallMolecule_7c0b3c0ba6a9d9e38e26d0fcc6ce1f4c"
style="fill:white;fill-opacity:0.600000;stroke-width:1;stroke:black;stroke-opacity:0.000000"
transform = "rotate(0.000000 0.000000 0.000000)"
/>


<path
d="M 554.81831290997 412.320537910354 A 35 20 1 1 0 554.81831290997 372.320537910354"
id="SmallMolecule_7c0b3c0ba6a9d9e38e26d0fcc6ce1f4c"
style="fill:#3F3FEA;fill-opacity:0.600000;stroke-width:1;stroke:black;stroke-opacity:0.000000"
transform = "rotate(0.000000 0.000000 0.000000)"
/>


<path
d="M 572.31831290997 409.641045986043 A 35 20 1 0 0 572.31831290997 375.000029834665"
id="SmallMolecule_7c0b3c0ba6a9d9e38e26d0fcc6ce1f4c"
style="fill:white;fill-opacity:0.600000;stroke-width:1;stroke:black;stroke-opacity:0.000000"
transform = "rotate(0.000000 0.000000 0.000000)"
/>


<path
d="M 572.31831290997 409.641045986043 A 35 20 1 0 0 572.31831290997 375.000029834665"
id="SmallMolecule_7c0b3c0ba6a9d9e38e26d0fcc6ce1f4c"
style="fill:#FFFF00;fill-opacity:0.600000;stroke-width:1;stroke:black;stroke-opacity:0.000000"
transform = "rotate(0.000000 0.000000 0.000000)"
/>


<path
d="M 589.81831290997 392.320537910354 A 35 20 1 0 0 589.81831290997 392.320537910354"
id="SmallMolecule_7c0b3c0ba6a9d9e38e26d0fcc6ce1f4c"
style="fill:white;fill-opacity:0.600000;stroke-width:1;stroke:black;stroke-opacity:0.000000"
transform = "rotate(0.000000 0.000000 0.000000)"
/>


<ellipse
rx="35.000000"
ry="20.000000"
cx="554.818313"
cy="392.320538"
id="SmallMolecule_7c0b3c0ba6a9d9e38e26d0fcc6ce1f4c"
style="fill:white;fill-opacity:0.000000;stroke:black;stroke-width:1.000000;stroke-opacity:1.000000" />


<text
x="554.818313"
y="398.320538"
id="SmallMolecule_7c0b3c0ba6a9d9e38e26d0fcc6ce1f4c"
style="font-size:18.000000px;text-anchor:middle;font-family:Arial,Helvetica;alignment-baseline:baseline;stroke.opacity:1;dominant-baseline:baseline"
fill="black"
>
Mal</text>



<ellipse
rx="35.000000"
ry="20.000000"
cx="200.766292"
cy="517.019218"
id="SmallMolecule_cde99bb080a8929c591f990061b80cfa"
style="fill:#0000FF;fill-opacity:0.600000;stroke:black;stroke-width:1.000000;stroke-opacity:0.000000" />


<path
d="M 183.266291808998 534.339725754496 A 35 20 1 1 0 183.266291808998 499.698709603118"
id="SmallMolecule_cde99bb080a8929c591f990061b80cfa"
style="fill:#FFFF00;fill-opacity:0.600000;stroke-width:1;stroke:black;stroke-opacity:0.000000"
transform = "rotate(0.000000 0.000000 0.000000)"
/>


<path
d="M 200.766291808998 537.019217678807 A 35 20 1 1 0 200.766291808998 497.019217678807"
id="SmallMolecule_cde99bb080a8929c591f990061b80cfa"
style="fill:white;fill-opacity:0.600000;stroke-width:1;stroke:black;stroke-opacity:0.000000"
transform = "rotate(0.000000 0.000000 0.000000)"
/>


<path
d="M 200.766291808998 537.019217678807 A 35 20 1 1 0 200.766291808998 497.019217678807"
id="SmallMolecule_cde99bb080a8929c591f990061b80cfa"
style="fill:#0000FF;fill-opacity:0.600000;stroke-width:1;stroke:black;stroke-opacity:0.000000"
transform = "rotate(0.000000 0.000000 0.000000)"
/>


<path
d="M 218.266291808998 534.339725754496 A 35 20 1 0 0 218.266291808998 499.698709603118"
id="SmallMolecule_cde99bb080a8929c591f990061b80cfa"
style="fill:white;fill-opacity:0.600000;stroke-width:1;stroke:black;stroke-opacity:0.000000"
transform = "rotate(0.000000 0.000000 0.000000)"
/>


<path
d="M 218.266291808998 534.339725754496 A 35 20 1 0 0 218.266291808998 499.698709603118"
id="SmallMolecule_cde99bb080a8929c591f990061b80cfa"
style="fill:#0000FF;fill-opacity:0.600000;stroke-width:1;stroke:black;stroke-opacity:0.000000"
transform = "rotate(0.000000 0.000000 0.000000)"
/>


<path
d="M 235.766291808998 517.019217678807 A 35 20 1 0 0 235.766291808998 517.019217678807"
id="SmallMolecule_cde99bb080a8929c591f990061b80cfa"
style="fill:white;fill-opacity:0.600000;stroke-width:1;stroke:black;stroke-opacity:0.000000"
transform = "rotate(0.000000 0.000000 0.000000)"
/>


<ellipse
rx="35.000000"
ry="20.000000"
cx="200.766292"
cy="517.019218"
id="SmallMolecule_cde99bb080a8929c591f990061b80cfa"
style="fill:white;fill-opacity:0.000000;stroke:black;stroke-width:1.000000;stroke-opacity:1.000000" />


<text
x="200.766292"
y="523.019218"
id="SmallMolecule_cde99bb080a8929c591f990061b80cfa"
style="font-size:18.000000px;text-anchor:middle;font-family:Arial,Helvetica;alignment-baseline:baseline;stroke.opacity:1;dominant-baseline:baseline"
fill="black"
>
Suc</text>



<ellipse
rx="35.000000"
ry="20.000000"
cx="150.501972"
cy="438.806410"
id="SmallMolecule_8b61452604a55dbbf40354b927a11f83"
style="fill:#FFFF00;fill-opacity:0.600000;stroke:black;stroke-width:1.000000;stroke-opacity:0.000000" />


<path
d="M 133.001972263578 456.126917864879 A 35 20 1 1 0 133.001972263578 421.485901713501"
id="SmallMolecule_8b61452604a55dbbf40354b927a11f83"
style="fill:#1818F7;fill-opacity:0.600000;stroke-width:1;stroke:black;stroke-opacity:0.000000"
transform = "rotate(0.000000 0.000000 0.000000)"
/>


<path
d="M 150.501972263578 458.80640978919 A 35 20 1 1 0 150.501972263578 418.80640978919"
id="SmallMolecule_8b61452604a55dbbf40354b927a11f83"
style="fill:white;fill-opacity:0.600000;stroke-width:1;stroke:black;stroke-opacity:0.000000"
transform = "rotate(0.000000 0.000000 0.000000)"
/>


<path
d="M 150.501972263578 458.80640978919 A 35 20 1 1 0 150.501972263578 418.80640978919"
id="SmallMolecule_8b61452604a55dbbf40354b927a11f83"
style="fill:#FFFF00;fill-opacity:0.600000;stroke-width:1;stroke:black;stroke-opacity:0.000000"
transform = "rotate(0.000000 0.000000 0.000000)"
/>


<path
d="M 168.001972263578 456.126917864879 A 35 20 1 0 0 168.001972263578 421.485901713501"
id="SmallMolecule_8b61452604a55dbbf40354b927a11f83"
style="fill:white;fill-opacity:0.600000;stroke-width:1;stroke:black;stroke-opacity:0.000000"
transform = "rotate(0.000000 0.000000 0.000000)"
/>


<path
d="M 168.001972263578 456.126917864879 A 35 20 1 0 0 168.001972263578 421.485901713501"
id="SmallMolecule_8b61452604a55dbbf40354b927a11f83"
style="fill:#FBFB0B;fill-opacity:0.600000;stroke-width:1;stroke:black;stroke-opacity:0.000000"
transform = "rotate(0.000000 0.000000 0.000000)"
/>


<path
d="M 185.501972263578 438.80640978919 A 35 20 1 0 0 185.501972263578 438.80640978919"
id="SmallMolecule_8b61452604a55dbbf40354b927a11f83"
style="fill:white;fill-opacity:0.600000;stroke-width:1;stroke:black;stroke-opacity:0.000000"
transform = "rotate(0.000000 0.000000 0.000000)"
/>


<ellipse
rx="35.000000"
ry="20.000000"
cx="150.501972"
cy="438.806410"
id="SmallMolecule_8b61452604a55dbbf40354b927a11f83"
style="fill:white;fill-opacity:0.000000;stroke:black;stroke-width:1.000000;stroke-opacity:1.000000" />



<text
x="150.501972"
y="435.806410"
id="SmallMolecule_8b61452604a55dbbf40354b927a11f83"
style="font-size:18.000000px;text-anchor:middle;font-family:Arial,Helvetica;alignment-baseline:baseline;stroke.opacity:1;dominant-baseline:baseline"
fill="black"
>
maltotr-</text>


<text
x="150.501972"
y="453.806410"
id="SmallMolecule_8b61452604a55dbbf40354b927a11f83"
style="font-size:18.000000px;text-anchor:middle;font-family:Arial,Helvetica;alignment-baseline:baseline;stroke.opacity:1;dominant-baseline:baseline"
fill="black"
>
iose</text>



<ellipse
rx="35.000000"
ry="20.000000"
cx="329.788202"
cy="365.471685"
id="SmallMolecule_5564d1e0cf6712e68c7a57d3d704184c"
style="fill:#FEFE02;fill-opacity:0.600000;stroke:black;stroke-width:1.000000;stroke-opacity:0.000000" />


<path
d="M 312.288201569202 382.792193507993 A 35 20 1 1 0 312.288201569202 348.151177356615"
id="SmallMolecule_5564d1e0cf6712e68c7a57d3d704184c"
style="fill:#0000FF;fill-opacity:0.600000;stroke-width:1;stroke:black;stroke-opacity:0.000000"
transform = "rotate(0.000000 0.000000 0.000000)"
/>


<path
d="M 329.788201569202 385.471685432304 A 35 20 1 1 0 329.788201569202 345.471685432304"
id="SmallMolecule_5564d1e0cf6712e68c7a57d3d704184c"
style="fill:white;fill-opacity:0.600000;stroke-width:1;stroke:black;stroke-opacity:0.000000"
transform = "rotate(0.000000 0.000000 0.000000)"
/>


<path
d="M 329.788201569202 385.471685432304 A 35 20 1 1 0 329.788201569202 345.471685432304"
id="SmallMolecule_5564d1e0cf6712e68c7a57d3d704184c"
style="fill:#3F3FEA;fill-opacity:0.600000;stroke-width:1;stroke:black;stroke-opacity:0.000000"
transform = "rotate(0.000000 0.000000 0.000000)"
/>


<path
d="M 347.288201569202 382.792193507993 A 35 20 1 0 0 347.288201569202 348.151177356615"
id="SmallMolecule_5564d1e0cf6712e68c7a57d3d704184c"
style="fill:white;fill-opacity:0.600000;stroke-width:1;stroke:black;stroke-opacity:0.000000"
transform = "rotate(0.000000 0.000000 0.000000)"
/>


<path
d="M 347.288201569202 382.792193507993 A 35 20 1 0 0 347.288201569202 348.151177356615"
id="SmallMolecule_5564d1e0cf6712e68c7a57d3d704184c"
style="fill:#FFFF00;fill-opacity:0.600000;stroke-width:1;stroke:black;stroke-opacity:0.000000"
transform = "rotate(0.000000 0.000000 0.000000)"
/>


<path
d="M 364.788201569202 365.471685432304 A 35 20 1 0 0 364.788201569202 365.471685432304"
id="SmallMolecule_5564d1e0cf6712e68c7a57d3d704184c"
style="fill:white;fill-opacity:0.600000;stroke-width:1;stroke:black;stroke-opacity:0.000000"
transform = "rotate(0.000000 0.000000 0.000000)"
/>


<ellipse
rx="35.000000"
ry="20.000000"
cx="329.788202"
cy="365.471685"
id="SmallMolecule_5564d1e0cf6712e68c7a57d3d704184c"
style="fill:white;fill-opacity:0.000000;stroke:black;stroke-width:1.000000;stroke-opacity:1.000000" />


<text
x="329.788202"
y="371.471685"
id="SmallMolecule_5564d1e0cf6712e68c7a57d3d704184c"
style="font-size:18.000000px;text-anchor:middle;font-family:Arial,Helvetica;alignment-baseline:baseline;stroke.opacity:1;dominant-baseline:baseline"
fill="black"
>
H2O</text>



<ellipse
rx="35.000000"
ry="20.000000"
cx="285.336365"
cy="636.641076"
id="SmallMolecule_deeca07bc99bdb464cff732231730290"
style="fill:#0000FF;fill-opacity:0.600000;stroke:black;stroke-width:1.000000;stroke-opacity:0.000000" />


<path
d="M 267.836364594878 653.961583896397 A 35 20 1 1 0 267.836364594878 619.320567745019"
id="SmallMolecule_deeca07bc99bdb464cff732231730290"
style="fill:#FFFF00;fill-opacity:0.600000;stroke-width:1;stroke:black;stroke-opacity:0.000000"
transform = "rotate(0.000000 0.000000 0.000000)"
/>


<path
d="M 285.336364594878 656.641075820708 A 35 20 1 1 0 285.336364594878 616.641075820708"
id="SmallMolecule_deeca07bc99bdb464cff732231730290"
style="fill:white;fill-opacity:0.600000;stroke-width:1;stroke:black;stroke-opacity:0.000000"
transform = "rotate(0.000000 0.000000 0.000000)"
/>


<path
d="M 285.336364594878 656.641075820708 A 35 20 1 1 0 285.336364594878 616.641075820708"
id="SmallMolecule_deeca07bc99bdb464cff732231730290"
style="fill:#0000FF;fill-opacity:0.600000;stroke-width:1;stroke:black;stroke-opacity:0.000000"
transform = "rotate(0.000000 0.000000 0.000000)"
/>


<path
d="M 302.836364594878 653.961583896397 A 35 20 1 0 0 302.836364594878 619.320567745019"
id="SmallMolecule_deeca07bc99bdb464cff732231730290"
style="fill:white;fill-opacity:0.600000;stroke-width:1;stroke:black;stroke-opacity:0.000000"
transform = "rotate(0.000000 0.000000 0.000000)"
/>


<path
d="M 302.836364594878 653.961583896397 A 35 20 1 0 0 302.836364594878 619.320567745019"
id="SmallMolecule_deeca07bc99bdb464cff732231730290"
style="fill:#0000FF;fill-opacity:0.600000;stroke-width:1;stroke:black;stroke-opacity:0.000000"
transform = "rotate(0.000000 0.000000 0.000000)"
/>


<path
d="M 320.336364594878 636.641075820708 A 35 20 1 0 0 320.336364594878 636.641075820708"
id="SmallMolecule_deeca07bc99bdb464cff732231730290"
style="fill:white;fill-opacity:0.600000;stroke-width:1;stroke:black;stroke-opacity:0.000000"
transform = "rotate(0.000000 0.000000 0.000000)"
/>


<ellipse
rx="35.000000"
ry="20.000000"
cx="285.336365"
cy="636.641076"
id="SmallMolecule_deeca07bc99bdb464cff732231730290"
style="fill:white;fill-opacity:0.000000;stroke:black;stroke-width:1.000000;stroke-opacity:1.000000" />


<text
x="285.336365"
y="642.641076"
id="SmallMolecule_deeca07bc99bdb464cff732231730290"
style="font-size:18.000000px;text-anchor:middle;font-family:Arial,Helvetica;alignment-baseline:baseline;stroke.opacity:1;dominant-baseline:baseline"
fill="black"
>
iMal</text>



<ellipse
rx="35.000000"
ry="20.000000"
cx="377.361790"
cy="542.409817"
id="SmallMolecule_6f3be7dae8dbf47d07101aee4f3af842"
style="fill:#FFFF00;fill-opacity:0.600000;stroke:black;stroke-width:1.000000;stroke-opacity:0.000000" />


<path
d="M 359.861790055282 559.730325219538 A 35 20 1 1 0 359.861790055282 525.08930906816"
id="SmallMolecule_6f3be7dae8dbf47d07101aee4f3af842"
style="fill:#1818F7;fill-opacity:0.600000;stroke-width:1;stroke:black;stroke-opacity:0.000000"
transform = "rotate(0.000000 0.000000 0.000000)"
/>


<path
d="M 377.361790055282 562.409817143849 A 35 20 1 1 0 377.361790055282 522.409817143849"
id="SmallMolecule_6f3be7dae8dbf47d07101aee4f3af842"
style="fill:white;fill-opacity:0.600000;stroke-width:1;stroke:black;stroke-opacity:0.000000"
transform = "rotate(0.000000 0.000000 0.000000)"
/>


<path
d="M 377.361790055282 562.409817143849 A 35 20 1 1 0 377.361790055282 522.409817143849"
id="SmallMolecule_6f3be7dae8dbf47d07101aee4f3af842"
style="fill:#FFFF00;fill-opacity:0.600000;stroke-width:1;stroke:black;stroke-opacity:0.000000"
transform = "rotate(0.000000 0.000000 0.000000)"
/>


<path
d="M 394.861790055282 559.730325219538 A 35 20 1 0 0 394.861790055282 525.08930906816"
id="SmallMolecule_6f3be7dae8dbf47d07101aee4f3af842"
style="fill:white;fill-opacity:0.600000;stroke-width:1;stroke:black;stroke-opacity:0.000000"
transform = "rotate(0.000000 0.000000 0.000000)"
/>


<path
d="M 394.861790055282 559.730325219538 A 35 20 1 0 0 394.861790055282 525.08930906816"
id="SmallMolecule_6f3be7dae8dbf47d07101aee4f3af842"
style="fill:#FBFB0B;fill-opacity:0.600000;stroke-width:1;stroke:black;stroke-opacity:0.000000"
transform = "rotate(0.000000 0.000000 0.000000)"
/>


<path
d="M 412.361790055282 542.409817143849 A 35 20 1 0 0 412.361790055282 542.409817143849"
id="SmallMolecule_6f3be7dae8dbf47d07101aee4f3af842"
style="fill:white;fill-opacity:0.600000;stroke-width:1;stroke:black;stroke-opacity:0.000000"
transform = "rotate(0.000000 0.000000 0.000000)"
/>


<ellipse
rx="35.000000"
ry="20.000000"
cx="377.361790"
cy="542.409817"
id="SmallMolecule_6f3be7dae8dbf47d07101aee4f3af842"
style="fill:white;fill-opacity:0.000000;stroke:black;stroke-width:1.000000;stroke-opacity:1.000000" />


<text
x="377.361790"
y="548.409817"
id="SmallMolecule_6f3be7dae8dbf47d07101aee4f3af842"
style="font-size:18.000000px;text-anchor:middle;font-family:Arial,Helvetica;alignment-baseline:baseline;stroke.opacity:1;dominant-baseline:baseline"
fill="black"
>
Lac</text>


<rect
width="26.666667"
height="26.666667"
rx="0.000000"
ry="0.000000"
x="250.336365"
y="209.000000"
id="reactome_R-HSA-5658001_LEFT_TO_RIGHT"
style="fill:white;fill-opacity:0.600000;stroke:black;stroke-width:1.000000;stroke-opacity:1.000000" />



<rect
width="26.666667"
height="26.666667"
rx="0.000000"
ry="0.000000"
x="212.243192"
y="351.673030"
id="reactome_R-HSA-5659922_LEFT_TO_RIGHT"
style="fill:white;fill-opacity:0.600000;stroke:black;stroke-width:1.000000;stroke-opacity:1.000000" />



<rect
width="26.666667"
height="26.666667"
rx="0.000000"
ry="0.000000"
x="395.633107"
y="382.635420"
id="reactome_R-HSA-5659926_LEFT_TO_RIGHT"
style="fill:white;fill-opacity:0.600000;stroke:black;stroke-width:1.000000;stroke-opacity:1.000000" />



<rect
width="26.666667"
height="26.666667"
rx="0.000000"
ry="0.000000"
x="111.000000"
y="342.122594"
id="reactome_R-HSA-5659879_LEFT_TO_RIGHT"
style="fill:white;fill-opacity:0.600000;stroke:black;stroke-width:1.000000;stroke-opacity:1.000000" />



<rect
width="26.666667"
height="26.666667"
rx="0.000000"
ry="0.000000"
x="342.361790"
y="222.231259"
id="reactome_R-HSA-5659899_LEFT_TO_RIGHT"
style="fill:white;fill-opacity:0.600000;stroke:black;stroke-width:1.000000;stroke-opacity:1.000000" />





<path d="M519.000000 387.000000 C 493.000000 384.000000, 457.000000 380.000000,425.000000 379.000000" stroke="black"  fill="transparent"/>
<path d="M425.000000 379.000000 C 410.000000 378.000000, 406.000000 376.000000,392.000000 379.000000" stroke="black"  fill="transparent"/>
<path d="M392.000000 379.000000 C 380.000000 381.000000, 379.000000 386.000000,367.000000 388.000000" stroke="black"  fill="transparent"/>
<path d="M367.000000 388.000000 C 334.000000 394.000000, 325.000000 394.000000,291.000000 388.000000" stroke="black"  fill="transparent"/>
<path d="M291.000000 388.000000 C 272.000000 385.000000, 252.000000 377.000000,239.000000 371.000000" stroke="black"  fill="transparent"/>

<line
x1="493" y1="384" x2="519" y2="387"
id="0"
style="stroke:black;stroke-width:1.000000;stroke-opacity:0" />


<line
x1="252" y1="377" x2="239" y2="371"
id="SmallMolecule_7c0b3c0ba6a9d9e38e26d0fcc6ce1f4c--to--reactome_R-HSA-5659922_LEFT_TO_RIGHT-input"
style="stroke:black;stroke-width:1.000000;stroke-opacity:0" />


<path d="M294.000000 356.000000 C 278.000000 353.000000, 259.000000 349.000000,242.000000 348.000000" stroke="black"  fill="transparent"/>
<path d="M242.000000 348.000000 C 204.000000 344.000000, 160.000000 349.000000,138.000000 353.000000" stroke="black"  fill="transparent"/>

<line
x1="278" y1="353" x2="294" y2="356"
id="0"
style="stroke:black;stroke-width:1.000000;stroke-opacity:0" />


<line
x1="160" y1="349" x2="138" y2="353"
id="SmallMolecule_5564d1e0cf6712e68c7a57d3d704184c--to--reactome_R-HSA-5659879_LEFT_TO_RIGHT-input"
style="stroke:black;stroke-width:1.000000;stroke-opacity:0" />


<path d="M363.000000 522.000000 C 343.000000 493.000000, 309.000000 439.000000,291.000000 388.000000" stroke="black"  fill="transparent"/>
<path d="M291.000000 388.000000 C 272.000000 334.000000, 266.000000 265.000000,264.000000 236.000000" stroke="black"  fill="transparent"/>

<line
x1="343" y1="493" x2="363" y2="522"
id="0"
style="stroke:black;stroke-width:1.000000;stroke-opacity:0" />


<line
x1="266" y1="265" x2="264" y2="236"
id="SmallMolecule_6f3be7dae8dbf47d07101aee4f3af842--to--reactome_R-HSA-5658001_LEFT_TO_RIGHT-input"
style="stroke:black;stroke-width:1.000000;stroke-opacity:0" />


<path d="M333.000000 345.000000 C 339.000000 318.000000, 348.000000 272.000000,352.000000 249.000000" stroke="black"  fill="transparent"/>

<line
x1="339" y1="318" x2="333" y2="345"
id="0"
style="stroke:black;stroke-width:1.000000;stroke-opacity:0" />


<line
x1="348" y1="272" x2="352" y2="249"
id="SmallMolecule_5564d1e0cf6712e68c7a57d3d704184c--to--reactome_R-HSA-5659899_LEFT_TO_RIGHT-input"
style="stroke:black;stroke-width:1.000000;stroke-opacity:0" />


<path d="M320.000000 345.000000 C 306.000000 315.000000, 281.000000 261.000000,269.000000 235.000000" stroke="black"  fill="transparent"/>

<line
x1="306" y1="315" x2="320" y2="345"
id="0"
style="stroke:black;stroke-width:1.000000;stroke-opacity:0" />


<line
x1="281" y1="261" x2="269" y2="235"
id="SmallMolecule_5564d1e0cf6712e68c7a57d3d704184c--to--reactome_R-HSA-5658001_LEFT_TO_RIGHT-input"
style="stroke:black;stroke-width:1.000000;stroke-opacity:0" />


<path d="M365.000000 379.000000 C 375.000000 383.000000, 387.000000 387.000000,395.000000 390.000000" stroke="black"  fill="transparent"/>

<line
x1="375" y1="383" x2="365" y2="379"
id="0"
style="stroke:black;stroke-width:1.000000;stroke-opacity:0" />


<line
x1="387" y1="387" x2="395" y2="390"
id="SmallMolecule_5564d1e0cf6712e68c7a57d3d704184c--to--reactome_R-HSA-5659926_LEFT_TO_RIGHT-input"
style="stroke:black;stroke-width:1.000000;stroke-opacity:0" />


<path d="M294.000000 365.000000 C 275.000000 365.000000, 252.000000 365.000000,238.000000 365.000000" stroke="black"  fill="transparent"/>

<line
x1="275" y1="365" x2="294" y2="365"
id="0"
style="stroke:black;stroke-width:1.000000;stroke-opacity:0" />


<line
x1="252" y1="365" x2="238" y2="365"
id="SmallMolecule_5564d1e0cf6712e68c7a57d3d704184c--to--reactome_R-HSA-5659922_LEFT_TO_RIGHT-input"
style="stroke:black;stroke-width:1.000000;stroke-opacity:0" />


<path d="M280.000000 616.000000 C 273.000000 588.000000, 258.000000 535.000000,238.000000 493.000000" stroke="black"  fill="transparent"/>
<path d="M238.000000 493.000000 C 221.000000 456.000000, 215.000000 447.000000,188.000000 415.000000" stroke="black"  fill="transparent"/>
<path d="M188.000000 415.000000 C 172.000000 396.000000, 151.000000 377.000000,137.000000 366.000000" stroke="black"  fill="transparent"/>

<line
x1="273" y1="588" x2="280" y2="616"
id="0"
style="stroke:black;stroke-width:1.000000;stroke-opacity:0" />


<line
x1="151" y1="377" x2="137" y2="366"
id="SmallMolecule_deeca07bc99bdb464cff732231730290--to--reactome_R-HSA-5659879_LEFT_TO_RIGHT-input"
style="stroke:black;stroke-width:1.000000;stroke-opacity:0" />


<path d="M235.000000 496.000000 C 282.000000 469.000000, 363.000000 422.000000,395.000000 403.000000" stroke="black"  fill="transparent"/>

<line
x1="282" y1="469" x2="235" y2="496"
id="0"
style="stroke:black;stroke-width:1.000000;stroke-opacity:0" />


<line
x1="363" y1="422" x2="395" y2="403"
id="SmallMolecule_cde99bb080a8929c591f990061b80cfa--to--reactome_R-HSA-5659926_LEFT_TO_RIGHT-input"
style="stroke:black;stroke-width:1.000000;stroke-opacity:0" />


<path d="M160.000000 418.000000 C 171.000000 399.000000, 188.000000 370.000000,208.000000 348.000000" stroke="black"  fill="transparent"/>
<path d="M208.000000 348.000000 C 251.000000 302.000000, 314.000000 260.000000,341.000000 243.000000" stroke="black"  fill="transparent"/>

<line
x1="171" y1="399" x2="160" y2="418"
id="0"
style="stroke:black;stroke-width:1.000000;stroke-opacity:0" />


<line
x1="314" y1="260" x2="341" y2="243"
id="SmallMolecule_8b61452604a55dbbf40354b927a11f83--to--reactome_R-HSA-5659899_LEFT_TO_RIGHT-input"
style="stroke:black;stroke-width:1.000000;stroke-opacity:0" />






<rect
width="2.485149"
height="21.428571"
rx="0.000000"
ry="0.000000"
x="599.333164"
y="61.500000"
id="col.pan"
style="fill:#FFFF00;fill-opacity:1.000000;stroke:black;stroke-width:0.000000;stroke-opacity:0.000000" />


<rect
width="2.485149"
height="21.428571"
rx="0.000000"
ry="0.000000"
x="597.848016"
y="61.500000"
id="col.pan"
style="fill:#FEFE04;fill-opacity:1.000000;stroke:black;stroke-width:0.000000;stroke-opacity:0.000000" />


<rect
width="2.485149"
height="21.428571"
rx="0.000000"
ry="0.000000"
x="596.362867"
y="61.500000"
id="col.pan"
style="fill:#FCFC08;fill-opacity:1.000000;stroke:black;stroke-width:0.000000;stroke-opacity:0.000000" />


<rect
width="2.485149"
height="21.428571"
rx="0.000000"
ry="0.000000"
x="594.877719"
y="61.500000"
id="col.pan"
style="fill:#FBFB0B;fill-opacity:1.000000;stroke:black;stroke-width:0.000000;stroke-opacity:0.000000" />


<rect
width="2.485149"
height="21.428571"
rx="0.000000"
ry="0.000000"
x="593.392570"
y="61.500000"
id="col.pan"
style="fill:#FAFA0F;fill-opacity:1.000000;stroke:black;stroke-width:0.000000;stroke-opacity:0.000000" />


<rect
width="2.485149"
height="21.428571"
rx="0.000000"
ry="0.000000"
x="591.907422"
y="61.500000"
id="col.pan"
style="fill:#F9F913;fill-opacity:1.000000;stroke:black;stroke-width:0.000000;stroke-opacity:0.000000" />


<rect
width="2.485149"
height="21.428571"
rx="0.000000"
ry="0.000000"
x="590.422273"
y="61.500000"
id="col.pan"
style="fill:#F7F717;fill-opacity:1.000000;stroke:black;stroke-width:0.000000;stroke-opacity:0.000000" />


<rect
width="2.485149"
height="21.428571"
rx="0.000000"
ry="0.000000"
x="588.937125"
y="61.500000"
id="col.pan"
style="fill:#F6F61B;fill-opacity:1.000000;stroke:black;stroke-width:0.000000;stroke-opacity:0.000000" />


<rect
width="2.485149"
height="21.428571"
rx="0.000000"
ry="0.000000"
x="587.451976"
y="61.500000"
id="col.pan"
style="fill:#F5F51E;fill-opacity:1.000000;stroke:black;stroke-width:0.000000;stroke-opacity:0.000000" />


<rect
width="2.485149"
height="21.428571"
rx="0.000000"
ry="0.000000"
x="585.966828"
y="61.500000"
id="col.pan"
style="fill:#F3F322;fill-opacity:1.000000;stroke:black;stroke-width:0.000000;stroke-opacity:0.000000" />


<rect
width="2.485149"
height="21.428571"
rx="0.000000"
ry="0.000000"
x="584.481679"
y="61.500000"
id="col.pan"
style="fill:#F2F226;fill-opacity:1.000000;stroke:black;stroke-width:0.000000;stroke-opacity:0.000000" />


<rect
width="2.485149"
height="21.428571"
rx="0.000000"
ry="0.000000"
x="582.996531"
y="61.500000"
id="col.pan"
style="fill:#F1F12A;fill-opacity:1.000000;stroke:black;stroke-width:0.000000;stroke-opacity:0.000000" />


<rect
width="2.485149"
height="21.428571"
rx="0.000000"
ry="0.000000"
x="581.511382"
y="61.500000"
id="col.pan"
style="fill:#EFEF2E;fill-opacity:1.000000;stroke:black;stroke-width:0.000000;stroke-opacity:0.000000" />


<rect
width="2.485149"
height="21.428571"
rx="0.000000"
ry="0.000000"
x="580.026234"
y="61.500000"
id="col.pan"
style="fill:#EEEE31;fill-opacity:1.000000;stroke:black;stroke-width:0.000000;stroke-opacity:0.000000" />


<rect
width="2.485149"
height="21.428571"
rx="0.000000"
ry="0.000000"
x="578.541085"
y="61.500000"
id="col.pan"
style="fill:#EDED35;fill-opacity:1.000000;stroke:black;stroke-width:0.000000;stroke-opacity:0.000000" />


<rect
width="2.485149"
height="21.428571"
rx="0.000000"
ry="0.000000"
x="577.055937"
y="61.500000"
id="col.pan"
style="fill:#ECEC39;fill-opacity:1.000000;stroke:black;stroke-width:0.000000;stroke-opacity:0.000000" />


<rect
width="2.485149"
height="21.428571"
rx="0.000000"
ry="0.000000"
x="575.570788"
y="61.500000"
id="col.pan"
style="fill:#EAEA3D;fill-opacity:1.000000;stroke:black;stroke-width:0.000000;stroke-opacity:0.000000" />


<rect
width="2.485149"
height="21.428571"
rx="0.000000"
ry="0.000000"
x="574.085640"
y="61.500000"
id="col.pan"
style="fill:#E9E941;fill-opacity:1.000000;stroke:black;stroke-width:0.000000;stroke-opacity:0.000000" />


<rect
width="2.485149"
height="21.428571"
rx="0.000000"
ry="0.000000"
x="572.600491"
y="61.500000"
id="col.pan"
style="fill:#E8E844;fill-opacity:1.000000;stroke:black;stroke-width:0.000000;stroke-opacity:0.000000" />


<rect
width="2.485149"
height="21.428571"
rx="0.000000"
ry="0.000000"
x="571.115343"
y="61.500000"
id="col.pan"
style="fill:#E6E648;fill-opacity:1.000000;stroke:black;stroke-width:0.000000;stroke-opacity:0.000000" />


<rect
width="2.485149"
height="21.428571"
rx="0.000000"
ry="0.000000"
x="569.630194"
y="61.500000"
id="col.pan"
style="fill:#E5E54C;fill-opacity:1.000000;stroke:black;stroke-width:0.000000;stroke-opacity:0.000000" />


<rect
width="2.485149"
height="21.428571"
rx="0.000000"
ry="0.000000"
x="568.145046"
y="61.500000"
id="col.pan"
style="fill:#E4E450;fill-opacity:1.000000;stroke:black;stroke-width:0.000000;stroke-opacity:0.000000" />


<rect
width="2.485149"
height="21.428571"
rx="0.000000"
ry="0.000000"
x="566.659897"
y="61.500000"
id="col.pan"
style="fill:#E2E254;fill-opacity:1.000000;stroke:black;stroke-width:0.000000;stroke-opacity:0.000000" />


<rect
width="2.485149"
height="21.428571"
rx="0.000000"
ry="0.000000"
x="565.174749"
y="61.500000"
id="col.pan"
style="fill:#E1E157;fill-opacity:1.000000;stroke:black;stroke-width:0.000000;stroke-opacity:0.000000" />


<rect
width="2.485149"
height="21.428571"
rx="0.000000"
ry="0.000000"
x="563.689600"
y="61.500000"
id="col.pan"
style="fill:#E0E05B;fill-opacity:1.000000;stroke:black;stroke-width:0.000000;stroke-opacity:0.000000" />


<rect
width="2.485149"
height="21.428571"
rx="0.000000"
ry="0.000000"
x="562.204452"
y="61.500000"
id="col.pan"
style="fill:#DFDF5F;fill-opacity:1.000000;stroke:black;stroke-width:0.000000;stroke-opacity:0.000000" />


<rect
width="2.485149"
height="21.428571"
rx="0.000000"
ry="0.000000"
x="560.719303"
y="61.500000"
id="col.pan"
style="fill:#DDDD63;fill-opacity:1.000000;stroke:black;stroke-width:0.000000;stroke-opacity:0.000000" />


<rect
width="2.485149"
height="21.428571"
rx="0.000000"
ry="0.000000"
x="559.234154"
y="61.500000"
id="col.pan"
style="fill:#DCDC67;fill-opacity:1.000000;stroke:black;stroke-width:0.000000;stroke-opacity:0.000000" />


<rect
width="2.485149"
height="21.428571"
rx="0.000000"
ry="0.000000"
x="557.749006"
y="61.500000"
id="col.pan"
style="fill:#DBDB6A;fill-opacity:1.000000;stroke:black;stroke-width:0.000000;stroke-opacity:0.000000" />


<rect
width="2.485149"
height="21.428571"
rx="0.000000"
ry="0.000000"
x="556.263857"
y="61.500000"
id="col.pan"
style="fill:#D9D96E;fill-opacity:1.000000;stroke:black;stroke-width:0.000000;stroke-opacity:0.000000" />


<rect
width="2.485149"
height="21.428571"
rx="0.000000"
ry="0.000000"
x="554.778709"
y="61.500000"
id="col.pan"
style="fill:#D8D872;fill-opacity:1.000000;stroke:black;stroke-width:0.000000;stroke-opacity:0.000000" />


<rect
width="2.485149"
height="21.428571"
rx="0.000000"
ry="0.000000"
x="553.293560"
y="61.500000"
id="col.pan"
style="fill:#D7D776;fill-opacity:1.000000;stroke:black;stroke-width:0.000000;stroke-opacity:0.000000" />


<rect
width="2.485149"
height="21.428571"
rx="0.000000"
ry="0.000000"
x="551.808412"
y="61.500000"
id="col.pan"
style="fill:#D5D57A;fill-opacity:1.000000;stroke:black;stroke-width:0.000000;stroke-opacity:0.000000" />


<rect
width="2.485149"
height="21.428571"
rx="0.000000"
ry="0.000000"
x="550.323263"
y="61.500000"
id="col.pan"
style="fill:#D4D47D;fill-opacity:1.000000;stroke:black;stroke-width:0.000000;stroke-opacity:0.000000" />


<rect
width="2.485149"
height="21.428571"
rx="0.000000"
ry="0.000000"
x="548.838115"
y="61.500000"
id="col.pan"
style="fill:#D3D381;fill-opacity:1.000000;stroke:black;stroke-width:0.000000;stroke-opacity:0.000000" />


<rect
width="2.485149"
height="21.428571"
rx="0.000000"
ry="0.000000"
x="547.352966"
y="61.500000"
id="col.pan"
style="fill:#D2D285;fill-opacity:1.000000;stroke:black;stroke-width:0.000000;stroke-opacity:0.000000" />


<rect
width="2.485149"
height="21.428571"
rx="0.000000"
ry="0.000000"
x="545.867818"
y="61.500000"
id="col.pan"
style="fill:#D0D089;fill-opacity:1.000000;stroke:black;stroke-width:0.000000;stroke-opacity:0.000000" />


<rect
width="2.485149"
height="21.428571"
rx="0.000000"
ry="0.000000"
x="544.382669"
y="61.500000"
id="col.pan"
style="fill:#CFCF8D;fill-opacity:1.000000;stroke:black;stroke-width:0.000000;stroke-opacity:0.000000" />


<rect
width="2.485149"
height="21.428571"
rx="0.000000"
ry="0.000000"
x="542.897521"
y="61.500000"
id="col.pan"
style="fill:#CECE90;fill-opacity:1.000000;stroke:black;stroke-width:0.000000;stroke-opacity:0.000000" />


<rect
width="2.485149"
height="21.428571"
rx="0.000000"
ry="0.000000"
x="541.412372"
y="61.500000"
id="col.pan"
style="fill:#CCCC94;fill-opacity:1.000000;stroke:black;stroke-width:0.000000;stroke-opacity:0.000000" />


<rect
width="2.485149"
height="21.428571"
rx="0.000000"
ry="0.000000"
x="539.927224"
y="61.500000"
id="col.pan"
style="fill:#CBCB98;fill-opacity:1.000000;stroke:black;stroke-width:0.000000;stroke-opacity:0.000000" />


<rect
width="2.485149"
height="21.428571"
rx="0.000000"
ry="0.000000"
x="538.442075"
y="61.500000"
id="col.pan"
style="fill:#CACA9C;fill-opacity:1.000000;stroke:black;stroke-width:0.000000;stroke-opacity:0.000000" />


<rect
width="2.485149"
height="21.428571"
rx="0.000000"
ry="0.000000"
x="536.956927"
y="61.500000"
id="col.pan"
style="fill:#C8C8A0;fill-opacity:1.000000;stroke:black;stroke-width:0.000000;stroke-opacity:0.000000" />


<rect
width="2.485149"
height="21.428571"
rx="0.000000"
ry="0.000000"
x="535.471778"
y="61.500000"
id="col.pan"
style="fill:#C7C7A3;fill-opacity:1.000000;stroke:black;stroke-width:0.000000;stroke-opacity:0.000000" />


<rect
width="2.485149"
height="21.428571"
rx="0.000000"
ry="0.000000"
x="533.986630"
y="61.500000"
id="col.pan"
style="fill:#C6C6A7;fill-opacity:1.000000;stroke:black;stroke-width:0.000000;stroke-opacity:0.000000" />


<rect
width="2.485149"
height="21.428571"
rx="0.000000"
ry="0.000000"
x="532.501481"
y="61.500000"
id="col.pan"
style="fill:#C5C5AB;fill-opacity:1.000000;stroke:black;stroke-width:0.000000;stroke-opacity:0.000000" />


<rect
width="2.485149"
height="21.428571"
rx="0.000000"
ry="0.000000"
x="531.016333"
y="61.500000"
id="col.pan"
style="fill:#C3C3AF;fill-opacity:1.000000;stroke:black;stroke-width:0.000000;stroke-opacity:0.000000" />


<rect
width="2.485149"
height="21.428571"
rx="0.000000"
ry="0.000000"
x="529.531184"
y="61.500000"
id="col.pan"
style="fill:#C2C2B3;fill-opacity:1.000000;stroke:black;stroke-width:0.000000;stroke-opacity:0.000000" />


<rect
width="2.485149"
height="21.428571"
rx="0.000000"
ry="0.000000"
x="528.046036"
y="61.500000"
id="col.pan"
style="fill:#C1C1B6;fill-opacity:1.000000;stroke:black;stroke-width:0.000000;stroke-opacity:0.000000" />


<rect
width="2.485149"
height="21.428571"
rx="0.000000"
ry="0.000000"
x="526.560887"
y="61.500000"
id="col.pan"
style="fill:#BFBFBA;fill-opacity:1.000000;stroke:black;stroke-width:0.000000;stroke-opacity:0.000000" />


<rect
width="2.485149"
height="21.428571"
rx="0.000000"
ry="0.000000"
x="525.075739"
y="61.500000"
id="col.pan"
style="fill:#BEBEBE;fill-opacity:1.000000;stroke:black;stroke-width:0.000000;stroke-opacity:0.000000" />


<rect
width="2.485149"
height="21.428571"
rx="0.000000"
ry="0.000000"
x="523.590590"
y="61.500000"
id="col.pan"
style="fill:#BABABF;fill-opacity:1.000000;stroke:black;stroke-width:0.000000;stroke-opacity:0.000000" />


<rect
width="2.485149"
height="21.428571"
rx="0.000000"
ry="0.000000"
x="522.105442"
y="61.500000"
id="col.pan"
style="fill:#B6B6C1;fill-opacity:1.000000;stroke:black;stroke-width:0.000000;stroke-opacity:0.000000" />


<rect
width="2.485149"
height="21.428571"
rx="0.000000"
ry="0.000000"
x="520.620293"
y="61.500000"
id="col.pan"
style="fill:#B3B3C2;fill-opacity:1.000000;stroke:black;stroke-width:0.000000;stroke-opacity:0.000000" />


<rect
width="2.485149"
height="21.428571"
rx="0.000000"
ry="0.000000"
x="519.135145"
y="61.500000"
id="col.pan"
style="fill:#AFAFC3;fill-opacity:1.000000;stroke:black;stroke-width:0.000000;stroke-opacity:0.000000" />


<rect
width="2.485149"
height="21.428571"
rx="0.000000"
ry="0.000000"
x="517.649996"
y="61.500000"
id="col.pan"
style="fill:#ABABC5;fill-opacity:1.000000;stroke:black;stroke-width:0.000000;stroke-opacity:0.000000" />


<rect
width="2.485149"
height="21.428571"
rx="0.000000"
ry="0.000000"
x="516.164848"
y="61.500000"
id="col.pan"
style="fill:#A7A7C6;fill-opacity:1.000000;stroke:black;stroke-width:0.000000;stroke-opacity:0.000000" />


<rect
width="2.485149"
height="21.428571"
rx="0.000000"
ry="0.000000"
x="514.679699"
y="61.500000"
id="col.pan"
style="fill:#A3A3C7;fill-opacity:1.000000;stroke:black;stroke-width:0.000000;stroke-opacity:0.000000" />


<rect
width="2.485149"
height="21.428571"
rx="0.000000"
ry="0.000000"
x="513.194551"
y="61.500000"
id="col.pan"
style="fill:#A0A0C8;fill-opacity:1.000000;stroke:black;stroke-width:0.000000;stroke-opacity:0.000000" />


<rect
width="2.485149"
height="21.428571"
rx="0.000000"
ry="0.000000"
x="511.709402"
y="61.500000"
id="col.pan"
style="fill:#9C9CCA;fill-opacity:1.000000;stroke:black;stroke-width:0.000000;stroke-opacity:0.000000" />


<rect
width="2.485149"
height="21.428571"
rx="0.000000"
ry="0.000000"
x="510.224254"
y="61.500000"
id="col.pan"
style="fill:#9898CB;fill-opacity:1.000000;stroke:black;stroke-width:0.000000;stroke-opacity:0.000000" />


<rect
width="2.485149"
height="21.428571"
rx="0.000000"
ry="0.000000"
x="508.739105"
y="61.500000"
id="col.pan"
style="fill:#9494CC;fill-opacity:1.000000;stroke:black;stroke-width:0.000000;stroke-opacity:0.000000" />


<rect
width="2.485149"
height="21.428571"
rx="0.000000"
ry="0.000000"
x="507.253956"
y="61.500000"
id="col.pan"
style="fill:#9090CE;fill-opacity:1.000000;stroke:black;stroke-width:0.000000;stroke-opacity:0.000000" />


<rect
width="2.485149"
height="21.428571"
rx="0.000000"
ry="0.000000"
x="505.768808"
y="61.500000"
id="col.pan"
style="fill:#8D8DCF;fill-opacity:1.000000;stroke:black;stroke-width:0.000000;stroke-opacity:0.000000" />


<rect
width="2.485149"
height="21.428571"
rx="0.000000"
ry="0.000000"
x="504.283659"
y="61.500000"
id="col.pan"
style="fill:#8989D0;fill-opacity:1.000000;stroke:black;stroke-width:0.000000;stroke-opacity:0.000000" />


<rect
width="2.485149"
height="21.428571"
rx="0.000000"
ry="0.000000"
x="502.798511"
y="61.500000"
id="col.pan"
style="fill:#8585D2;fill-opacity:1.000000;stroke:black;stroke-width:0.000000;stroke-opacity:0.000000" />


<rect
width="2.485149"
height="21.428571"
rx="0.000000"
ry="0.000000"
x="501.313362"
y="61.500000"
id="col.pan"
style="fill:#8181D3;fill-opacity:1.000000;stroke:black;stroke-width:0.000000;stroke-opacity:0.000000" />


<rect
width="2.485149"
height="21.428571"
rx="0.000000"
ry="0.000000"
x="499.828214"
y="61.500000"
id="col.pan"
style="fill:#7D7DD4;fill-opacity:1.000000;stroke:black;stroke-width:0.000000;stroke-opacity:0.000000" />


<rect
width="2.485149"
height="21.428571"
rx="0.000000"
ry="0.000000"
x="498.343065"
y="61.500000"
id="col.pan"
style="fill:#7A7AD5;fill-opacity:1.000000;stroke:black;stroke-width:0.000000;stroke-opacity:0.000000" />


<rect
width="2.485149"
height="21.428571"
rx="0.000000"
ry="0.000000"
x="496.857917"
y="61.500000"
id="col.pan"
style="fill:#7676D7;fill-opacity:1.000000;stroke:black;stroke-width:0.000000;stroke-opacity:0.000000" />


<rect
width="2.485149"
height="21.428571"
rx="0.000000"
ry="0.000000"
x="495.372768"
y="61.500000"
id="col.pan"
style="fill:#7272D8;fill-opacity:1.000000;stroke:black;stroke-width:0.000000;stroke-opacity:0.000000" />


<rect
width="2.485149"
height="21.428571"
rx="0.000000"
ry="0.000000"
x="493.887620"
y="61.500000"
id="col.pan"
style="fill:#6E6ED9;fill-opacity:1.000000;stroke:black;stroke-width:0.000000;stroke-opacity:0.000000" />


<rect
width="2.485149"
height="21.428571"
rx="0.000000"
ry="0.000000"
x="492.402471"
y="61.500000"
id="col.pan"
style="fill:#6A6ADB;fill-opacity:1.000000;stroke:black;stroke-width:0.000000;stroke-opacity:0.000000" />


<rect
width="2.485149"
height="21.428571"
rx="0.000000"
ry="0.000000"
x="490.917323"
y="61.500000"
id="col.pan"
style="fill:#6767DC;fill-opacity:1.000000;stroke:black;stroke-width:0.000000;stroke-opacity:0.000000" />


<rect
width="2.485149"
height="21.428571"
rx="0.000000"
ry="0.000000"
x="489.432174"
y="61.500000"
id="col.pan"
style="fill:#6363DD;fill-opacity:1.000000;stroke:black;stroke-width:0.000000;stroke-opacity:0.000000" />


<rect
width="2.485149"
height="21.428571"
rx="0.000000"
ry="0.000000"
x="487.947026"
y="61.500000"
id="col.pan"
style="fill:#5F5FDF;fill-opacity:1.000000;stroke:black;stroke-width:0.000000;stroke-opacity:0.000000" />


<rect
width="2.485149"
height="21.428571"
rx="0.000000"
ry="0.000000"
x="486.461877"
y="61.500000"
id="col.pan"
style="fill:#5B5BE0;fill-opacity:1.000000;stroke:black;stroke-width:0.000000;stroke-opacity:0.000000" />


<rect
width="2.485149"
height="21.428571"
rx="0.000000"
ry="0.000000"
x="484.976729"
y="61.500000"
id="col.pan"
style="fill:#5757E1;fill-opacity:1.000000;stroke:black;stroke-width:0.000000;stroke-opacity:0.000000" />


<rect
width="2.485149"
height="21.428571"
rx="0.000000"
ry="0.000000"
x="483.491580"
y="61.500000"
id="col.pan"
style="fill:#5454E2;fill-opacity:1.000000;stroke:black;stroke-width:0.000000;stroke-opacity:0.000000" />


<rect
width="2.485149"
height="21.428571"
rx="0.000000"
ry="0.000000"
x="482.006432"
y="61.500000"
id="col.pan"
style="fill:#5050E4;fill-opacity:1.000000;stroke:black;stroke-width:0.000000;stroke-opacity:0.000000" />


<rect
width="2.485149"
height="21.428571"
rx="0.000000"
ry="0.000000"
x="480.521283"
y="61.500000"
id="col.pan"
style="fill:#4C4CE5;fill-opacity:1.000000;stroke:black;stroke-width:0.000000;stroke-opacity:0.000000" />


<rect
width="2.485149"
height="21.428571"
rx="0.000000"
ry="0.000000"
x="479.036135"
y="61.500000"
id="col.pan"
style="fill:#4848E6;fill-opacity:1.000000;stroke:black;stroke-width:0.000000;stroke-opacity:0.000000" />


<rect
width="2.485149"
height="21.428571"
rx="0.000000"
ry="0.000000"
x="477.550986"
y="61.500000"
id="col.pan"
style="fill:#4444E8;fill-opacity:1.000000;stroke:black;stroke-width:0.000000;stroke-opacity:0.000000" />


<rect
width="2.485149"
height="21.428571"
rx="0.000000"
ry="0.000000"
x="476.065838"
y="61.500000"
id="col.pan"
style="fill:#4141E9;fill-opacity:1.000000;stroke:black;stroke-width:0.000000;stroke-opacity:0.000000" />


<rect
width="2.485149"
height="21.428571"
rx="0.000000"
ry="0.000000"
x="474.580689"
y="61.500000"
id="col.pan"
style="fill:#3D3DEA;fill-opacity:1.000000;stroke:black;stroke-width:0.000000;stroke-opacity:0.000000" />


<rect
width="2.485149"
height="21.428571"
rx="0.000000"
ry="0.000000"
x="473.095541"
y="61.500000"
id="col.pan"
style="fill:#3939EC;fill-opacity:1.000000;stroke:black;stroke-width:0.000000;stroke-opacity:0.000000" />


<rect
width="2.485149"
height="21.428571"
rx="0.000000"
ry="0.000000"
x="471.610392"
y="61.500000"
id="col.pan"
style="fill:#3535ED;fill-opacity:1.000000;stroke:black;stroke-width:0.000000;stroke-opacity:0.000000" />


<rect
width="2.485149"
height="21.428571"
rx="0.000000"
ry="0.000000"
x="470.125244"
y="61.500000"
id="col.pan"
style="fill:#3131EE;fill-opacity:1.000000;stroke:black;stroke-width:0.000000;stroke-opacity:0.000000" />


<rect
width="2.485149"
height="21.428571"
rx="0.000000"
ry="0.000000"
x="468.640095"
y="61.500000"
id="col.pan"
style="fill:#2E2EEF;fill-opacity:1.000000;stroke:black;stroke-width:0.000000;stroke-opacity:0.000000" />


<rect
width="2.485149"
height="21.428571"
rx="0.000000"
ry="0.000000"
x="467.154947"
y="61.500000"
id="col.pan"
style="fill:#2A2AF1;fill-opacity:1.000000;stroke:black;stroke-width:0.000000;stroke-opacity:0.000000" />


<rect
width="2.485149"
height="21.428571"
rx="0.000000"
ry="0.000000"
x="465.669798"
y="61.500000"
id="col.pan"
style="fill:#2626F2;fill-opacity:1.000000;stroke:black;stroke-width:0.000000;stroke-opacity:0.000000" />


<rect
width="2.485149"
height="21.428571"
rx="0.000000"
ry="0.000000"
x="464.184650"
y="61.500000"
id="col.pan"
style="fill:#2222F3;fill-opacity:1.000000;stroke:black;stroke-width:0.000000;stroke-opacity:0.000000" />


<rect
width="2.485149"
height="21.428571"
rx="0.000000"
ry="0.000000"
x="462.699501"
y="61.500000"
id="col.pan"
style="fill:#1E1EF5;fill-opacity:1.000000;stroke:black;stroke-width:0.000000;stroke-opacity:0.000000" />


<rect
width="2.485149"
height="21.428571"
rx="0.000000"
ry="0.000000"
x="461.214353"
y="61.500000"
id="col.pan"
style="fill:#1B1BF6;fill-opacity:1.000000;stroke:black;stroke-width:0.000000;stroke-opacity:0.000000" />


<rect
width="2.485149"
height="21.428571"
rx="0.000000"
ry="0.000000"
x="459.729204"
y="61.500000"
id="col.pan"
style="fill:#1717F7;fill-opacity:1.000000;stroke:black;stroke-width:0.000000;stroke-opacity:0.000000" />


<rect
width="2.485149"
height="21.428571"
rx="0.000000"
ry="0.000000"
x="458.244055"
y="61.500000"
id="col.pan"
style="fill:#1313F9;fill-opacity:1.000000;stroke:black;stroke-width:0.000000;stroke-opacity:0.000000" />


<rect
width="2.485149"
height="21.428571"
rx="0.000000"
ry="0.000000"
x="456.758907"
y="61.500000"
id="col.pan"
style="fill:#0F0FFA;fill-opacity:1.000000;stroke:black;stroke-width:0.000000;stroke-opacity:0.000000" />


<rect
width="2.485149"
height="21.428571"
rx="0.000000"
ry="0.000000"
x="455.273758"
y="61.500000"
id="col.pan"
style="fill:#0B0BFB;fill-opacity:1.000000;stroke:black;stroke-width:0.000000;stroke-opacity:0.000000" />


<rect
width="2.485149"
height="21.428571"
rx="0.000000"
ry="0.000000"
x="453.788610"
y="61.500000"
id="col.pan"
style="fill:#0808FC;fill-opacity:1.000000;stroke:black;stroke-width:0.000000;stroke-opacity:0.000000" />


<rect
width="2.485149"
height="21.428571"
rx="0.000000"
ry="0.000000"
x="452.303461"
y="61.500000"
id="col.pan"
style="fill:#0404FE;fill-opacity:1.000000;stroke:black;stroke-width:0.000000;stroke-opacity:0.000000" />


<rect
width="2.485149"
height="21.428571"
rx="0.000000"
ry="0.000000"
x="450.818313"
y="61.500000"
id="col.pan"
style="fill:#0000FF;fill-opacity:1.000000;stroke:black;stroke-width:0.000000;stroke-opacity:0.000000" />


<line
x1="450.81831290997" y1="61.5" x2="450.81831290997" y2="88.2857142857143"
id="tick"
style="stroke:black;stroke-width:2.000000;stroke-opacity:1" />


<line
x1="465.81831290997" y1="61.5" x2="465.81831290997" y2="88.2857142857143"
id="tick"
style="stroke:black;stroke-width:2.000000;stroke-opacity:1" />


<line
x1="480.81831290997" y1="61.5" x2="480.81831290997" y2="88.2857142857143"
id="tick"
style="stroke:black;stroke-width:2.000000;stroke-opacity:1" />


<line
x1="495.81831290997" y1="61.5" x2="495.81831290997" y2="88.2857142857143"
id="tick"
style="stroke:black;stroke-width:2.000000;stroke-opacity:1" />


<line
x1="510.81831290997" y1="61.5" x2="510.81831290997" y2="88.2857142857143"
id="tick"
style="stroke:black;stroke-width:2.000000;stroke-opacity:1" />


<line
x1="525.81831290997" y1="61.5" x2="525.81831290997" y2="88.2857142857143"
id="tick"
style="stroke:black;stroke-width:2.000000;stroke-opacity:1" />


<line
x1="540.81831290997" y1="61.5" x2="540.81831290997" y2="88.2857142857143"
id="tick"
style="stroke:black;stroke-width:2.000000;stroke-opacity:1" />


<line
x1="555.81831290997" y1="61.5" x2="555.81831290997" y2="88.2857142857143"
id="tick"
style="stroke:black;stroke-width:2.000000;stroke-opacity:1" />


<line
x1="570.81831290997" y1="61.5" x2="570.81831290997" y2="88.2857142857143"
id="tick"
style="stroke:black;stroke-width:2.000000;stroke-opacity:1" />


<line
x1="585.81831290997" y1="61.5" x2="585.81831290997" y2="88.2857142857143"
id="tick"
style="stroke:black;stroke-width:2.000000;stroke-opacity:1" />


<line
x1="600.81831290997" y1="61.5" x2="600.81831290997" y2="88.2857142857143"
id="tick"
style="stroke:black;stroke-width:2.000000;stroke-opacity:1" />


<text
x="600.075739"
y="111.500000"
id="color.panel.max.value"
style="font-size:21.428571px;text-anchor:middle;font-family:Arial,Helvetica;alignment-baseline:baseline;stroke.opacity:1;dominant-baseline:baseline"
fill="black"
>
1</text>


<text
x="451.560887"
y="111.500000"
id="color.panel.low.value"
style="font-size:21.428571px;text-anchor:middle;font-family:Arial,Helvetica;alignment-baseline:baseline;stroke.opacity:1;dominant-baseline:baseline"
fill="black"
>
-1</text>


<text
x="527.303461"
y="111.500000"
id="color.panel.mid.value"
style="font-size:21.428571px;text-anchor:middle;font-family:Arial,Helvetica;alignment-baseline:baseline;stroke.opacity:1;dominant-baseline:baseline"
fill="black"
>
0</text>

</svg>
