<?xml version="1.0" encoding="UTF-8"?>
<svg width="812.500000" height="708.378771"
xmlns="http://www.w3.org/2000/svg" xmlns:svg="http://www.w3.org/2000/svg"
>
<metadata id="metadata7">image/svg+xml</metadata>

<rect
width="382.500000"
height="385.378771"
rx="11.000000"
ry="11.000000"
x="100.000000"
y="198.000000"
id="extracellular"
style="fill:white;fill-opacity:0.900000;stroke:black;stroke-width:5.000000;stroke-opacity:1.000000" />


<text
x="291.250000"
y="190.000000"
id="extracellular"
style="font-size:24.000000px;text-anchor:middle;font-family:Arial,Helvetica;alignment-baseline:baseline;stroke.opacity:1;dominant-baseline:baseline"
fill="black"
>
extracellular</text>


<rect
width="382.500000"
height="385.378771"
rx="11.000000"
ry="11.000000"
x="100.000000"
y="198.000000"
id="extracellular"
style="fill:white;fill-opacity:0.900000;stroke:black;stroke-width:5.000000;stroke-opacity:1.000000" />


<text
x="291.250000"
y="190.000000"
id="extracellular"
style="font-size:24.000000px;text-anchor:middle;font-family:Arial,Helvetica;alignment-baseline:baseline;stroke.opacity:1;dominant-baseline:baseline"
fill="black"
>
extracellular</text>

NULL
NULL
NULL
NULL
NULL
NULL


<path
d="M 111 232.5 111 335.25 116.5 340.75 186.5 340.75 192 335.25 192 232.5 186.5 227 116.5 227 Z"
id="Complex_ba1f53a3d39a74aeda7a1137594d7800"
style="fill:white;fill-opacity:0.600000;stroke-width:1;stroke:black;stroke-opacity:1.000000"
transform = "rotate(0.000000 0.000000 0.000000)"
/>


<text
x="151.500000"
y="219.000000"
id="Complex_ba1f53a3d39a74aeda7a1137594d7800"
style="font-size:18.000000px;text-anchor:middle;font-family:Arial,Helvetica;alignment-baseline:baseline;stroke.opacity:1;dominant-baseline:baseline"
fill="black"
>
complex_1</text>




<ellipse
rx="35.000000"
ry="20.000000"
cx="436.500000"
cy="402.454446"
id="PhysicalEntity_5b9aba2cca65f6eeb2488cb90e40e5c4"
style="fill:#E05B5B;fill-opacity:0.600000;stroke:black;stroke-width:1.000000;stroke-opacity:0.000000" />


<path
d="M 419 419.774953984168 A 35 20 1 1 0 419 385.13393783279"
id="PhysicalEntity_5b9aba2cca65f6eeb2488cb90e40e5c4"
style="fill:#39EC39;fill-opacity:0.600000;stroke-width:1;stroke:black;stroke-opacity:0.000000"
transform = "rotate(0.000000 0.000000 0.000000)"
/>


<path
d="M 436.5 422.454445908479 A 35 20 1 1 0 436.5 382.454445908479"
id="PhysicalEntity_5b9aba2cca65f6eeb2488cb90e40e5c4"
style="fill:white;fill-opacity:0.600000;stroke-width:1;stroke:black;stroke-opacity:0.000000"
transform = "rotate(0.000000 0.000000 0.000000)"
/>


<path
d="M 436.5 422.454445908479 A 35 20 1 1 0 436.5 382.454445908479"
id="PhysicalEntity_5b9aba2cca65f6eeb2488cb90e40e5c4"
style="fill:#C2B3B3;fill-opacity:0.600000;stroke-width:1;stroke:black;stroke-opacity:0.000000"
transform = "rotate(0.000000 0.000000 0.000000)"
/>


<path
d="M 454 419.774953984168 A 35 20 1 0 0 454 385.13393783279"
id="PhysicalEntity_5b9aba2cca65f6eeb2488cb90e40e5c4"
style="fill:white;fill-opacity:0.600000;stroke-width:1;stroke:black;stroke-opacity:0.000000"
transform = "rotate(0.000000 0.000000 0.000000)"
/>


<path
d="M 454 419.774953984168 A 35 20 1 0 0 454 385.13393783279"
id="PhysicalEntity_5b9aba2cca65f6eeb2488cb90e40e5c4"
style="fill:#E94141;fill-opacity:0.600000;stroke-width:1;stroke:black;stroke-opacity:0.000000"
transform = "rotate(0.000000 0.000000 0.000000)"
/>


<path
d="M 471.5 402.454445908479 A 35 20 1 0 0 471.5 402.454445908479"
id="PhysicalEntity_5b9aba2cca65f6eeb2488cb90e40e5c4"
style="fill:white;fill-opacity:0.600000;stroke-width:1;stroke:black;stroke-opacity:0.000000"
transform = "rotate(0.000000 0.000000 0.000000)"
/>


<ellipse
rx="35.000000"
ry="20.000000"
cx="436.500000"
cy="402.454446"
id="PhysicalEntity_5b9aba2cca65f6eeb2488cb90e40e5c4"
style="fill:white;fill-opacity:0.000000;stroke:black;stroke-width:1.000000;stroke-opacity:1.000000" />



<text
x="436.500000"
y="390.454446"
id="PhysicalEntity_5b9aba2cca65f6eeb2488cb90e40e5c4"
style="font-size:18.000000px;text-anchor:middle;font-family:Arial,Helvetica;alignment-baseline:baseline;stroke.opacity:1;dominant-baseline:baseline"
fill="black"
>
Collage-</text>


<text
x="436.500000"
y="408.454446"
id="PhysicalEntity_5b9aba2cca65f6eeb2488cb90e40e5c4"
style="font-size:18.000000px;text-anchor:middle;font-family:Arial,Helvetica;alignment-baseline:baseline;stroke.opacity:1;dominant-baseline:baseline"
fill="black"
>
n types</text>


<text
x="436.500000"
y="426.454446"
id="PhysicalEntity_5b9aba2cca65f6eeb2488cb90e40e5c4"
style="font-size:18.000000px;text-anchor:middle;font-family:Arial,Helvetica;alignment-baseline:baseline;stroke.opacity:1;dominant-baseline:baseline"
fill="black"
>
 I-V, VII</text>




<rect
width="17.500000"
height="40.000000"
rx="1.750000"
ry="1.750000"
x="116.500000"
y="232.500000"
id="Protein_799223f16d1efe21b51c7a06a8b2a8cf_Complex_ba1f53a3d39a74aeda7a1137594d7800"
style="fill:#FF0000;fill-opacity:1.000000;stroke:black;stroke-width:0.500000;stroke-opacity:0.000000" />


<text
x="125.250000"
y="254.000000"
id="Protein_799223f16d1efe21b51c7a06a8b2a8cf_Complex_ba1f53a3d39a74aeda7a1137594d7800"
style="font-size:4.500000px;text-anchor:middle;font-family:Arial,Helvetica;alignment-baseline:baseline;stroke.opacity:1;dominant-baseline:baseline"
fill="black"
>
 </text>



<rect
width="17.500000"
height="40.000000"
rx="1.750000"
ry="1.750000"
x="134.000000"
y="232.500000"
id="Protein_799223f16d1efe21b51c7a06a8b2a8cf_Complex_ba1f53a3d39a74aeda7a1137594d7800"
style="fill:#E05B5B;fill-opacity:1.000000;stroke:black;stroke-width:0.500000;stroke-opacity:0.000000" />


<text
x="142.750000"
y="254.000000"
id="Protein_799223f16d1efe21b51c7a06a8b2a8cf_Complex_ba1f53a3d39a74aeda7a1137594d7800"
style="font-size:4.500000px;text-anchor:middle;font-family:Arial,Helvetica;alignment-baseline:baseline;stroke.opacity:1;dominant-baseline:baseline"
fill="black"
>
 </text>



<rect
width="17.500000"
height="40.000000"
rx="1.750000"
ry="1.750000"
x="151.500000"
y="232.500000"
id="Protein_799223f16d1efe21b51c7a06a8b2a8cf_Complex_ba1f53a3d39a74aeda7a1137594d7800"
style="fill:#FF0000;fill-opacity:1.000000;stroke:black;stroke-width:0.500000;stroke-opacity:0.000000" />


<text
x="160.250000"
y="254.000000"
id="Protein_799223f16d1efe21b51c7a06a8b2a8cf_Complex_ba1f53a3d39a74aeda7a1137594d7800"
style="font-size:4.500000px;text-anchor:middle;font-family:Arial,Helvetica;alignment-baseline:baseline;stroke.opacity:1;dominant-baseline:baseline"
fill="black"
>
 </text>



<rect
width="17.500000"
height="40.000000"
rx="1.750000"
ry="1.750000"
x="169.000000"
y="232.500000"
id="Protein_799223f16d1efe21b51c7a06a8b2a8cf_Complex_ba1f53a3d39a74aeda7a1137594d7800"
style="fill:#D47F7F;fill-opacity:1.000000;stroke:black;stroke-width:0.500000;stroke-opacity:0.000000" />


<text
x="177.750000"
y="254.000000"
id="Protein_799223f16d1efe21b51c7a06a8b2a8cf_Complex_ba1f53a3d39a74aeda7a1137594d7800"
style="font-size:4.500000px;text-anchor:middle;font-family:Arial,Helvetica;alignment-baseline:baseline;stroke.opacity:1;dominant-baseline:baseline"
fill="black"
>
 </text>


<rect
width="70.000000"
height="40.000000"
rx="4.000000"
ry="4.000000"
x="116.500000"
y="232.500000"
id="Protein_799223f16d1efe21b51c7a06a8b2a8cf_Complex_ba1f53a3d39a74aeda7a1137594d7800"
style="fill:#D47F7F;fill-opacity:0.000000;stroke:black;stroke-width:1.000000;stroke-opacity:1.000000" />


<text
x="151.500000"
y="258.500000"
id="Protein_799223f16d1efe21b51c7a06a8b2a8cf_Complex_ba1f53a3d39a74aeda7a1137594d7800"
style="font-size:18.000000px;text-anchor:middle;font-family:Arial,Helvetica;alignment-baseline:baseline;stroke.opacity:1;dominant-baseline:baseline"
fill="black"
>
FN1</text>


<ellipse
rx="17.500000"
ry="8.750000"
cx="134.000000"
cy="232.500000"
id="Protein_799223f16d1efe21b51c7a06a8b2a8cf_Complex_ba1f53a3d39a74aeda7a1137594d7800.info.1"
style="fill:white;fill-opacity:1.000000;stroke:black;stroke-width:1.000000;stroke-opacity:1.000000" />


<text
x="134.000000"
y="235.500000"
id="Protein_799223f16d1efe21b51c7a06a8b2a8cf_Complex_ba1f53a3d39a74aeda7a1137594d7800.info.1"
style="font-size:9.000000px;text-anchor:middle;font-family:Arial,Helvetica;alignment-baseline:baseline;stroke.opacity:1;dominant-baseline:baseline"
fill="black"
>
x[32-2386]</text>



<ellipse
rx="35.000000"
ry="20.000000"
cx="151.500000"
cy="308.250000"
id="PhysicalEntity_5b9aba2cca65f6eeb2488cb90e40e5c4_Complex_ba1f53a3d39a74aeda7a1137594d7800"
style="fill:#00FF00;fill-opacity:0.600000;stroke:black;stroke-width:1.000000;stroke-opacity:0.000000" />


<path
d="M 134 325.570508075689 A 35 20 1 1 0 134 290.929491924311"
id="PhysicalEntity_5b9aba2cca65f6eeb2488cb90e40e5c4_Complex_ba1f53a3d39a74aeda7a1137594d7800"
style="fill:#FF0000;fill-opacity:0.600000;stroke-width:1;stroke:black;stroke-opacity:0.000000"
transform = "rotate(0.000000 0.000000 0.000000)"
/>


<path
d="M 151.5 328.25 A 35 20 1 1 0 151.5 288.25"
id="PhysicalEntity_5b9aba2cca65f6eeb2488cb90e40e5c4_Complex_ba1f53a3d39a74aeda7a1137594d7800"
style="fill:white;fill-opacity:0.600000;stroke-width:1;stroke:black;stroke-opacity:0.000000"
transform = "rotate(0.000000 0.000000 0.000000)"
/>


<path
d="M 151.5 328.25 A 35 20 1 1 0 151.5 288.25"
id="PhysicalEntity_5b9aba2cca65f6eeb2488cb90e40e5c4_Complex_ba1f53a3d39a74aeda7a1137594d7800"
style="fill:#CF8D8D;fill-opacity:0.600000;stroke-width:1;stroke:black;stroke-opacity:0.000000"
transform = "rotate(0.000000 0.000000 0.000000)"
/>


<path
d="M 169 325.570508075689 A 35 20 1 0 0 169 290.929491924311"
id="PhysicalEntity_5b9aba2cca65f6eeb2488cb90e40e5c4_Complex_ba1f53a3d39a74aeda7a1137594d7800"
style="fill:white;fill-opacity:0.600000;stroke-width:1;stroke:black;stroke-opacity:0.000000"
transform = "rotate(0.000000 0.000000 0.000000)"
/>


<path
d="M 169 325.570508075689 A 35 20 1 0 0 169 290.929491924311"
id="PhysicalEntity_5b9aba2cca65f6eeb2488cb90e40e5c4_Complex_ba1f53a3d39a74aeda7a1137594d7800"
style="fill:#00FF00;fill-opacity:0.600000;stroke-width:1;stroke:black;stroke-opacity:0.000000"
transform = "rotate(0.000000 0.000000 0.000000)"
/>


<path
d="M 186.5 308.25 A 35 20 1 0 0 186.5 308.25"
id="PhysicalEntity_5b9aba2cca65f6eeb2488cb90e40e5c4_Complex_ba1f53a3d39a74aeda7a1137594d7800"
style="fill:white;fill-opacity:0.600000;stroke-width:1;stroke:black;stroke-opacity:0.000000"
transform = "rotate(0.000000 0.000000 0.000000)"
/>


<ellipse
rx="35.000000"
ry="20.000000"
cx="151.500000"
cy="308.250000"
id="PhysicalEntity_5b9aba2cca65f6eeb2488cb90e40e5c4_Complex_ba1f53a3d39a74aeda7a1137594d7800"
style="fill:white;fill-opacity:0.000000;stroke:black;stroke-width:1.000000;stroke-opacity:1.000000" />



<text
x="151.500000"
y="296.250000"
id="PhysicalEntity_5b9aba2cca65f6eeb2488cb90e40e5c4_Complex_ba1f53a3d39a74aeda7a1137594d7800"
style="font-size:18.000000px;text-anchor:middle;font-family:Arial,Helvetica;alignment-baseline:baseline;stroke.opacity:1;dominant-baseline:baseline"
fill="black"
>
Collage-</text>


<text
x="151.500000"
y="314.250000"
id="PhysicalEntity_5b9aba2cca65f6eeb2488cb90e40e5c4_Complex_ba1f53a3d39a74aeda7a1137594d7800"
style="font-size:18.000000px;text-anchor:middle;font-family:Arial,Helvetica;alignment-baseline:baseline;stroke.opacity:1;dominant-baseline:baseline"
fill="black"
>
n types</text>


<text
x="151.500000"
y="332.250000"
id="PhysicalEntity_5b9aba2cca65f6eeb2488cb90e40e5c4_Complex_ba1f53a3d39a74aeda7a1137594d7800"
style="font-size:18.000000px;text-anchor:middle;font-family:Arial,Helvetica;alignment-baseline:baseline;stroke.opacity:1;dominant-baseline:baseline"
fill="black"
>
 I-V, VII</text>




<rect
width="17.500000"
height="40.000000"
rx="1.750000"
ry="1.750000"
x="287.487804"
y="532.378771"
id="Protein_799223f16d1efe21b51c7a06a8b2a8cf"
style="fill:#C99F9F;fill-opacity:1.000000;stroke:black;stroke-width:0.500000;stroke-opacity:0.000000" />


<text
x="296.237804"
y="553.878771"
id="Protein_799223f16d1efe21b51c7a06a8b2a8cf"
style="font-size:4.500000px;text-anchor:middle;font-family:Arial,Helvetica;alignment-baseline:baseline;stroke.opacity:1;dominant-baseline:baseline"
fill="black"
>
 </text>



<rect
width="17.500000"
height="40.000000"
rx="1.750000"
ry="1.750000"
x="304.987804"
y="532.378771"
id="Protein_799223f16d1efe21b51c7a06a8b2a8cf"
style="fill:#00FF00;fill-opacity:1.000000;stroke:black;stroke-width:0.500000;stroke-opacity:0.000000" />


<text
x="313.737804"
y="553.878771"
id="Protein_799223f16d1efe21b51c7a06a8b2a8cf"
style="font-size:4.500000px;text-anchor:middle;font-family:Arial,Helvetica;alignment-baseline:baseline;stroke.opacity:1;dominant-baseline:baseline"
fill="black"
>
 </text>



<rect
width="17.500000"
height="40.000000"
rx="1.750000"
ry="1.750000"
x="322.487804"
y="532.378771"
id="Protein_799223f16d1efe21b51c7a06a8b2a8cf"
style="fill:#6BDA6B;fill-opacity:1.000000;stroke:black;stroke-width:0.500000;stroke-opacity:0.000000" />


<text
x="331.237804"
y="553.878771"
id="Protein_799223f16d1efe21b51c7a06a8b2a8cf"
style="font-size:4.500000px;text-anchor:middle;font-family:Arial,Helvetica;alignment-baseline:baseline;stroke.opacity:1;dominant-baseline:baseline"
fill="black"
>
 </text>



<rect
width="17.500000"
height="40.000000"
rx="1.750000"
ry="1.750000"
x="339.987804"
y="532.378771"
id="Protein_799223f16d1efe21b51c7a06a8b2a8cf"
style="fill:#E15858;fill-opacity:1.000000;stroke:black;stroke-width:0.500000;stroke-opacity:0.000000" />


<text
x="348.737804"
y="553.878771"
id="Protein_799223f16d1efe21b51c7a06a8b2a8cf"
style="font-size:4.500000px;text-anchor:middle;font-family:Arial,Helvetica;alignment-baseline:baseline;stroke.opacity:1;dominant-baseline:baseline"
fill="black"
>
 </text>


<rect
width="70.000000"
height="40.000000"
rx="4.000000"
ry="4.000000"
x="287.487804"
y="532.378771"
id="Protein_799223f16d1efe21b51c7a06a8b2a8cf"
style="fill:#E15858;fill-opacity:0.000000;stroke:black;stroke-width:1.000000;stroke-opacity:1.000000" />


<text
x="322.487804"
y="558.378771"
id="Protein_799223f16d1efe21b51c7a06a8b2a8cf"
style="font-size:18.000000px;text-anchor:middle;font-family:Arial,Helvetica;alignment-baseline:baseline;stroke.opacity:1;dominant-baseline:baseline"
fill="black"
>
FN1</text>


<ellipse
rx="17.500000"
ry="8.750000"
cx="304.987804"
cy="532.378771"
id="Protein_799223f16d1efe21b51c7a06a8b2a8cf.info.1"
style="fill:white;fill-opacity:1.000000;stroke:black;stroke-width:1.000000;stroke-opacity:1.000000" />


<text
x="304.987804"
y="535.378771"
id="Protein_799223f16d1efe21b51c7a06a8b2a8cf.info.1"
style="font-size:9.000000px;text-anchor:middle;font-family:Arial,Helvetica;alignment-baseline:baseline;stroke.opacity:1;dominant-baseline:baseline"
fill="black"
>
x[32-2386]</text>


<rect
width="26.666667"
height="26.666667"
rx="0.000000"
ry="0.000000"
x="210.907726"
y="419.481450"
id="reactome_R-HSA-2327733_LEFT_TO_RIGHT"
style="fill:white;fill-opacity:0.600000;stroke:black;stroke-width:1.000000;stroke-opacity:1.000000" />





<path d="M401.000000 407.000000 C 353.000000 414.000000, 271.000000 426.000000,238.000000 430.000000" stroke="black"  fill="transparent"/>

<line
x1="353" y1="414" x2="401" y2="407"
id="0"
style="stroke:black;stroke-width:1.000000;stroke-opacity:0" />


<line
x1="271" y1="426" x2="238" y2="430"
id="PhysicalEntity_5b9aba2cca65f6eeb2488cb90e40e5c4--to--reactome_R-HSA-2327733_LEFT_TO_RIGHT-input"
style="stroke:black;stroke-width:1.000000;stroke-opacity:0" />


<path d="M306.000000 532.000000 C 286.000000 508.000000, 252.000000 467.000000,235.000000 446.000000" stroke="black"  fill="transparent"/>

<line
x1="286" y1="508" x2="306" y2="532"
id="0"
style="stroke:black;stroke-width:1.000000;stroke-opacity:0" />


<line
x1="252" y1="467" x2="235" y2="446"
id="Protein_799223f16d1efe21b51c7a06a8b2a8cf--to--reactome_R-HSA-2327733_LEFT_TO_RIGHT-input"
style="stroke:black;stroke-width:1.000000;stroke-opacity:0" />


<path d="M179.000000 341.000000 C 193.000000 369.000000, 208.000000 401.000000,217.000000 419.000000" stroke="black"  fill="transparent"/>

<line
x1="208" y1="401" x2="217" y2="419"
id="0"
style="stroke:black;stroke-width:1.000000;stroke-opacity:0" />


<line
x1="193" y1="369" x2="179" y2="341"
id="reactome_R-HSA-2327733_LEFT_TO_RIGHT-output--to--Complex_ba1f53a3d39a74aeda7a1137594d7800"
style="stroke:black;stroke-width:1.000000;stroke-opacity:0" />


<polygon
points = "179,341 170.2,336.6 170.2,345.4"
id="line"
style="fill:black; stroke:#000000; stroke-width:1"
transform = "rotate(243.434949 179.000000 341.000000)"
/>





<rect
width="2.485149"
height="21.428571"
rx="0.000000"
ry="0.000000"
x="481.014851"
y="61.500000"
id="col.pan"
style="fill:#FF0000;fill-opacity:1.000000;stroke:black;stroke-width:0.000000;stroke-opacity:0.000000" />


<rect
width="2.485149"
height="21.428571"
rx="0.000000"
ry="0.000000"
x="479.529703"
y="61.500000"
id="col.pan"
style="fill:#FE0404;fill-opacity:1.000000;stroke:black;stroke-width:0.000000;stroke-opacity:0.000000" />


<rect
width="2.485149"
height="21.428571"
rx="0.000000"
ry="0.000000"
x="478.044554"
y="61.500000"
id="col.pan"
style="fill:#FC0808;fill-opacity:1.000000;stroke:black;stroke-width:0.000000;stroke-opacity:0.000000" />


<rect
width="2.485149"
height="21.428571"
rx="0.000000"
ry="0.000000"
x="476.559406"
y="61.500000"
id="col.pan"
style="fill:#FB0B0B;fill-opacity:1.000000;stroke:black;stroke-width:0.000000;stroke-opacity:0.000000" />


<rect
width="2.485149"
height="21.428571"
rx="0.000000"
ry="0.000000"
x="475.074257"
y="61.500000"
id="col.pan"
style="fill:#FA0F0F;fill-opacity:1.000000;stroke:black;stroke-width:0.000000;stroke-opacity:0.000000" />


<rect
width="2.485149"
height="21.428571"
rx="0.000000"
ry="0.000000"
x="473.589109"
y="61.500000"
id="col.pan"
style="fill:#F91313;fill-opacity:1.000000;stroke:black;stroke-width:0.000000;stroke-opacity:0.000000" />


<rect
width="2.485149"
height="21.428571"
rx="0.000000"
ry="0.000000"
x="472.103960"
y="61.500000"
id="col.pan"
style="fill:#F71717;fill-opacity:1.000000;stroke:black;stroke-width:0.000000;stroke-opacity:0.000000" />


<rect
width="2.485149"
height="21.428571"
rx="0.000000"
ry="0.000000"
x="470.618812"
y="61.500000"
id="col.pan"
style="fill:#F61B1B;fill-opacity:1.000000;stroke:black;stroke-width:0.000000;stroke-opacity:0.000000" />


<rect
width="2.485149"
height="21.428571"
rx="0.000000"
ry="0.000000"
x="469.133663"
y="61.500000"
id="col.pan"
style="fill:#F51E1E;fill-opacity:1.000000;stroke:black;stroke-width:0.000000;stroke-opacity:0.000000" />


<rect
width="2.485149"
height="21.428571"
rx="0.000000"
ry="0.000000"
x="467.648515"
y="61.500000"
id="col.pan"
style="fill:#F32222;fill-opacity:1.000000;stroke:black;stroke-width:0.000000;stroke-opacity:0.000000" />


<rect
width="2.485149"
height="21.428571"
rx="0.000000"
ry="0.000000"
x="466.163366"
y="61.500000"
id="col.pan"
style="fill:#F22626;fill-opacity:1.000000;stroke:black;stroke-width:0.000000;stroke-opacity:0.000000" />


<rect
width="2.485149"
height="21.428571"
rx="0.000000"
ry="0.000000"
x="464.678218"
y="61.500000"
id="col.pan"
style="fill:#F12A2A;fill-opacity:1.000000;stroke:black;stroke-width:0.000000;stroke-opacity:0.000000" />


<rect
width="2.485149"
height="21.428571"
rx="0.000000"
ry="0.000000"
x="463.193069"
y="61.500000"
id="col.pan"
style="fill:#EF2E2E;fill-opacity:1.000000;stroke:black;stroke-width:0.000000;stroke-opacity:0.000000" />


<rect
width="2.485149"
height="21.428571"
rx="0.000000"
ry="0.000000"
x="461.707921"
y="61.500000"
id="col.pan"
style="fill:#EE3131;fill-opacity:1.000000;stroke:black;stroke-width:0.000000;stroke-opacity:0.000000" />


<rect
width="2.485149"
height="21.428571"
rx="0.000000"
ry="0.000000"
x="460.222772"
y="61.500000"
id="col.pan"
style="fill:#ED3535;fill-opacity:1.000000;stroke:black;stroke-width:0.000000;stroke-opacity:0.000000" />


<rect
width="2.485149"
height="21.428571"
rx="0.000000"
ry="0.000000"
x="458.737624"
y="61.500000"
id="col.pan"
style="fill:#EC3939;fill-opacity:1.000000;stroke:black;stroke-width:0.000000;stroke-opacity:0.000000" />


<rect
width="2.485149"
height="21.428571"
rx="0.000000"
ry="0.000000"
x="457.252475"
y="61.500000"
id="col.pan"
style="fill:#EA3D3D;fill-opacity:1.000000;stroke:black;stroke-width:0.000000;stroke-opacity:0.000000" />


<rect
width="2.485149"
height="21.428571"
rx="0.000000"
ry="0.000000"
x="455.767327"
y="61.500000"
id="col.pan"
style="fill:#E94141;fill-opacity:1.000000;stroke:black;stroke-width:0.000000;stroke-opacity:0.000000" />


<rect
width="2.485149"
height="21.428571"
rx="0.000000"
ry="0.000000"
x="454.282178"
y="61.500000"
id="col.pan"
style="fill:#E84444;fill-opacity:1.000000;stroke:black;stroke-width:0.000000;stroke-opacity:0.000000" />


<rect
width="2.485149"
height="21.428571"
rx="0.000000"
ry="0.000000"
x="452.797030"
y="61.500000"
id="col.pan"
style="fill:#E64848;fill-opacity:1.000000;stroke:black;stroke-width:0.000000;stroke-opacity:0.000000" />


<rect
width="2.485149"
height="21.428571"
rx="0.000000"
ry="0.000000"
x="451.311881"
y="61.500000"
id="col.pan"
style="fill:#E54C4C;fill-opacity:1.000000;stroke:black;stroke-width:0.000000;stroke-opacity:0.000000" />


<rect
width="2.485149"
height="21.428571"
rx="0.000000"
ry="0.000000"
x="449.826733"
y="61.500000"
id="col.pan"
style="fill:#E45050;fill-opacity:1.000000;stroke:black;stroke-width:0.000000;stroke-opacity:0.000000" />


<rect
width="2.485149"
height="21.428571"
rx="0.000000"
ry="0.000000"
x="448.341584"
y="61.500000"
id="col.pan"
style="fill:#E25454;fill-opacity:1.000000;stroke:black;stroke-width:0.000000;stroke-opacity:0.000000" />


<rect
width="2.485149"
height="21.428571"
rx="0.000000"
ry="0.000000"
x="446.856436"
y="61.500000"
id="col.pan"
style="fill:#E15757;fill-opacity:1.000000;stroke:black;stroke-width:0.000000;stroke-opacity:0.000000" />


<rect
width="2.485149"
height="21.428571"
rx="0.000000"
ry="0.000000"
x="445.371287"
y="61.500000"
id="col.pan"
style="fill:#E05B5B;fill-opacity:1.000000;stroke:black;stroke-width:0.000000;stroke-opacity:0.000000" />


<rect
width="2.485149"
height="21.428571"
rx="0.000000"
ry="0.000000"
x="443.886139"
y="61.500000"
id="col.pan"
style="fill:#DF5F5F;fill-opacity:1.000000;stroke:black;stroke-width:0.000000;stroke-opacity:0.000000" />


<rect
width="2.485149"
height="21.428571"
rx="0.000000"
ry="0.000000"
x="442.400990"
y="61.500000"
id="col.pan"
style="fill:#DD6363;fill-opacity:1.000000;stroke:black;stroke-width:0.000000;stroke-opacity:0.000000" />


<rect
width="2.485149"
height="21.428571"
rx="0.000000"
ry="0.000000"
x="440.915842"
y="61.500000"
id="col.pan"
style="fill:#DC6767;fill-opacity:1.000000;stroke:black;stroke-width:0.000000;stroke-opacity:0.000000" />


<rect
width="2.485149"
height="21.428571"
rx="0.000000"
ry="0.000000"
x="439.430693"
y="61.500000"
id="col.pan"
style="fill:#DB6A6A;fill-opacity:1.000000;stroke:black;stroke-width:0.000000;stroke-opacity:0.000000" />


<rect
width="2.485149"
height="21.428571"
rx="0.000000"
ry="0.000000"
x="437.945545"
y="61.500000"
id="col.pan"
style="fill:#D96E6E;fill-opacity:1.000000;stroke:black;stroke-width:0.000000;stroke-opacity:0.000000" />


<rect
width="2.485149"
height="21.428571"
rx="0.000000"
ry="0.000000"
x="436.460396"
y="61.500000"
id="col.pan"
style="fill:#D87272;fill-opacity:1.000000;stroke:black;stroke-width:0.000000;stroke-opacity:0.000000" />


<rect
width="2.485149"
height="21.428571"
rx="0.000000"
ry="0.000000"
x="434.975248"
y="61.500000"
id="col.pan"
style="fill:#D77676;fill-opacity:1.000000;stroke:black;stroke-width:0.000000;stroke-opacity:0.000000" />


<rect
width="2.485149"
height="21.428571"
rx="0.000000"
ry="0.000000"
x="433.490099"
y="61.500000"
id="col.pan"
style="fill:#D57A7A;fill-opacity:1.000000;stroke:black;stroke-width:0.000000;stroke-opacity:0.000000" />


<rect
width="2.485149"
height="21.428571"
rx="0.000000"
ry="0.000000"
x="432.004950"
y="61.500000"
id="col.pan"
style="fill:#D47D7D;fill-opacity:1.000000;stroke:black;stroke-width:0.000000;stroke-opacity:0.000000" />


<rect
width="2.485149"
height="21.428571"
rx="0.000000"
ry="0.000000"
x="430.519802"
y="61.500000"
id="col.pan"
style="fill:#D38181;fill-opacity:1.000000;stroke:black;stroke-width:0.000000;stroke-opacity:0.000000" />


<rect
width="2.485149"
height="21.428571"
rx="0.000000"
ry="0.000000"
x="429.034653"
y="61.500000"
id="col.pan"
style="fill:#D28585;fill-opacity:1.000000;stroke:black;stroke-width:0.000000;stroke-opacity:0.000000" />


<rect
width="2.485149"
height="21.428571"
rx="0.000000"
ry="0.000000"
x="427.549505"
y="61.500000"
id="col.pan"
style="fill:#D08989;fill-opacity:1.000000;stroke:black;stroke-width:0.000000;stroke-opacity:0.000000" />


<rect
width="2.485149"
height="21.428571"
rx="0.000000"
ry="0.000000"
x="426.064356"
y="61.500000"
id="col.pan"
style="fill:#CF8D8D;fill-opacity:1.000000;stroke:black;stroke-width:0.000000;stroke-opacity:0.000000" />


<rect
width="2.485149"
height="21.428571"
rx="0.000000"
ry="0.000000"
x="424.579208"
y="61.500000"
id="col.pan"
style="fill:#CE9090;fill-opacity:1.000000;stroke:black;stroke-width:0.000000;stroke-opacity:0.000000" />


<rect
width="2.485149"
height="21.428571"
rx="0.000000"
ry="0.000000"
x="423.094059"
y="61.500000"
id="col.pan"
style="fill:#CC9494;fill-opacity:1.000000;stroke:black;stroke-width:0.000000;stroke-opacity:0.000000" />


<rect
width="2.485149"
height="21.428571"
rx="0.000000"
ry="0.000000"
x="421.608911"
y="61.500000"
id="col.pan"
style="fill:#CB9898;fill-opacity:1.000000;stroke:black;stroke-width:0.000000;stroke-opacity:0.000000" />


<rect
width="2.485149"
height="21.428571"
rx="0.000000"
ry="0.000000"
x="420.123762"
y="61.500000"
id="col.pan"
style="fill:#CA9C9C;fill-opacity:1.000000;stroke:black;stroke-width:0.000000;stroke-opacity:0.000000" />


<rect
width="2.485149"
height="21.428571"
rx="0.000000"
ry="0.000000"
x="418.638614"
y="61.500000"
id="col.pan"
style="fill:#C8A0A0;fill-opacity:1.000000;stroke:black;stroke-width:0.000000;stroke-opacity:0.000000" />


<rect
width="2.485149"
height="21.428571"
rx="0.000000"
ry="0.000000"
x="417.153465"
y="61.500000"
id="col.pan"
style="fill:#C7A3A3;fill-opacity:1.000000;stroke:black;stroke-width:0.000000;stroke-opacity:0.000000" />


<rect
width="2.485149"
height="21.428571"
rx="0.000000"
ry="0.000000"
x="415.668317"
y="61.500000"
id="col.pan"
style="fill:#C6A7A7;fill-opacity:1.000000;stroke:black;stroke-width:0.000000;stroke-opacity:0.000000" />


<rect
width="2.485149"
height="21.428571"
rx="0.000000"
ry="0.000000"
x="414.183168"
y="61.500000"
id="col.pan"
style="fill:#C5ABAB;fill-opacity:1.000000;stroke:black;stroke-width:0.000000;stroke-opacity:0.000000" />


<rect
width="2.485149"
height="21.428571"
rx="0.000000"
ry="0.000000"
x="412.698020"
y="61.500000"
id="col.pan"
style="fill:#C3AFAF;fill-opacity:1.000000;stroke:black;stroke-width:0.000000;stroke-opacity:0.000000" />


<rect
width="2.485149"
height="21.428571"
rx="0.000000"
ry="0.000000"
x="411.212871"
y="61.500000"
id="col.pan"
style="fill:#C2B3B3;fill-opacity:1.000000;stroke:black;stroke-width:0.000000;stroke-opacity:0.000000" />


<rect
width="2.485149"
height="21.428571"
rx="0.000000"
ry="0.000000"
x="409.727723"
y="61.500000"
id="col.pan"
style="fill:#C1B6B6;fill-opacity:1.000000;stroke:black;stroke-width:0.000000;stroke-opacity:0.000000" />


<rect
width="2.485149"
height="21.428571"
rx="0.000000"
ry="0.000000"
x="408.242574"
y="61.500000"
id="col.pan"
style="fill:#BFBABA;fill-opacity:1.000000;stroke:black;stroke-width:0.000000;stroke-opacity:0.000000" />


<rect
width="2.485149"
height="21.428571"
rx="0.000000"
ry="0.000000"
x="406.757426"
y="61.500000"
id="col.pan"
style="fill:#BEBEBE;fill-opacity:1.000000;stroke:black;stroke-width:0.000000;stroke-opacity:0.000000" />


<rect
width="2.485149"
height="21.428571"
rx="0.000000"
ry="0.000000"
x="405.272277"
y="61.500000"
id="col.pan"
style="fill:#BABFBA;fill-opacity:1.000000;stroke:black;stroke-width:0.000000;stroke-opacity:0.000000" />


<rect
width="2.485149"
height="21.428571"
rx="0.000000"
ry="0.000000"
x="403.787129"
y="61.500000"
id="col.pan"
style="fill:#B6C1B6;fill-opacity:1.000000;stroke:black;stroke-width:0.000000;stroke-opacity:0.000000" />


<rect
width="2.485149"
height="21.428571"
rx="0.000000"
ry="0.000000"
x="402.301980"
y="61.500000"
id="col.pan"
style="fill:#B3C2B3;fill-opacity:1.000000;stroke:black;stroke-width:0.000000;stroke-opacity:0.000000" />


<rect
width="2.485149"
height="21.428571"
rx="0.000000"
ry="0.000000"
x="400.816832"
y="61.500000"
id="col.pan"
style="fill:#AFC3AF;fill-opacity:1.000000;stroke:black;stroke-width:0.000000;stroke-opacity:0.000000" />


<rect
width="2.485149"
height="21.428571"
rx="0.000000"
ry="0.000000"
x="399.331683"
y="61.500000"
id="col.pan"
style="fill:#ABC5AB;fill-opacity:1.000000;stroke:black;stroke-width:0.000000;stroke-opacity:0.000000" />


<rect
width="2.485149"
height="21.428571"
rx="0.000000"
ry="0.000000"
x="397.846535"
y="61.500000"
id="col.pan"
style="fill:#A7C6A7;fill-opacity:1.000000;stroke:black;stroke-width:0.000000;stroke-opacity:0.000000" />


<rect
width="2.485149"
height="21.428571"
rx="0.000000"
ry="0.000000"
x="396.361386"
y="61.500000"
id="col.pan"
style="fill:#A3C7A3;fill-opacity:1.000000;stroke:black;stroke-width:0.000000;stroke-opacity:0.000000" />


<rect
width="2.485149"
height="21.428571"
rx="0.000000"
ry="0.000000"
x="394.876238"
y="61.500000"
id="col.pan"
style="fill:#A0C8A0;fill-opacity:1.000000;stroke:black;stroke-width:0.000000;stroke-opacity:0.000000" />


<rect
width="2.485149"
height="21.428571"
rx="0.000000"
ry="0.000000"
x="393.391089"
y="61.500000"
id="col.pan"
style="fill:#9CCA9C;fill-opacity:1.000000;stroke:black;stroke-width:0.000000;stroke-opacity:0.000000" />


<rect
width="2.485149"
height="21.428571"
rx="0.000000"
ry="0.000000"
x="391.905941"
y="61.500000"
id="col.pan"
style="fill:#98CB98;fill-opacity:1.000000;stroke:black;stroke-width:0.000000;stroke-opacity:0.000000" />


<rect
width="2.485149"
height="21.428571"
rx="0.000000"
ry="0.000000"
x="390.420792"
y="61.500000"
id="col.pan"
style="fill:#94CC94;fill-opacity:1.000000;stroke:black;stroke-width:0.000000;stroke-opacity:0.000000" />


<rect
width="2.485149"
height="21.428571"
rx="0.000000"
ry="0.000000"
x="388.935644"
y="61.500000"
id="col.pan"
style="fill:#90CE90;fill-opacity:1.000000;stroke:black;stroke-width:0.000000;stroke-opacity:0.000000" />


<rect
width="2.485149"
height="21.428571"
rx="0.000000"
ry="0.000000"
x="387.450495"
y="61.500000"
id="col.pan"
style="fill:#8DCF8D;fill-opacity:1.000000;stroke:black;stroke-width:0.000000;stroke-opacity:0.000000" />


<rect
width="2.485149"
height="21.428571"
rx="0.000000"
ry="0.000000"
x="385.965347"
y="61.500000"
id="col.pan"
style="fill:#89D089;fill-opacity:1.000000;stroke:black;stroke-width:0.000000;stroke-opacity:0.000000" />


<rect
width="2.485149"
height="21.428571"
rx="0.000000"
ry="0.000000"
x="384.480198"
y="61.500000"
id="col.pan"
style="fill:#85D285;fill-opacity:1.000000;stroke:black;stroke-width:0.000000;stroke-opacity:0.000000" />


<rect
width="2.485149"
height="21.428571"
rx="0.000000"
ry="0.000000"
x="382.995050"
y="61.500000"
id="col.pan"
style="fill:#81D381;fill-opacity:1.000000;stroke:black;stroke-width:0.000000;stroke-opacity:0.000000" />


<rect
width="2.485149"
height="21.428571"
rx="0.000000"
ry="0.000000"
x="381.509901"
y="61.500000"
id="col.pan"
style="fill:#7DD47D;fill-opacity:1.000000;stroke:black;stroke-width:0.000000;stroke-opacity:0.000000" />


<rect
width="2.485149"
height="21.428571"
rx="0.000000"
ry="0.000000"
x="380.024752"
y="61.500000"
id="col.pan"
style="fill:#7AD57A;fill-opacity:1.000000;stroke:black;stroke-width:0.000000;stroke-opacity:0.000000" />


<rect
width="2.485149"
height="21.428571"
rx="0.000000"
ry="0.000000"
x="378.539604"
y="61.500000"
id="col.pan"
style="fill:#76D776;fill-opacity:1.000000;stroke:black;stroke-width:0.000000;stroke-opacity:0.000000" />


<rect
width="2.485149"
height="21.428571"
rx="0.000000"
ry="0.000000"
x="377.054455"
y="61.500000"
id="col.pan"
style="fill:#72D872;fill-opacity:1.000000;stroke:black;stroke-width:0.000000;stroke-opacity:0.000000" />


<rect
width="2.485149"
height="21.428571"
rx="0.000000"
ry="0.000000"
x="375.569307"
y="61.500000"
id="col.pan"
style="fill:#6ED96E;fill-opacity:1.000000;stroke:black;stroke-width:0.000000;stroke-opacity:0.000000" />


<rect
width="2.485149"
height="21.428571"
rx="0.000000"
ry="0.000000"
x="374.084158"
y="61.500000"
id="col.pan"
style="fill:#6ADB6A;fill-opacity:1.000000;stroke:black;stroke-width:0.000000;stroke-opacity:0.000000" />


<rect
width="2.485149"
height="21.428571"
rx="0.000000"
ry="0.000000"
x="372.599010"
y="61.500000"
id="col.pan"
style="fill:#67DC67;fill-opacity:1.000000;stroke:black;stroke-width:0.000000;stroke-opacity:0.000000" />


<rect
width="2.485149"
height="21.428571"
rx="0.000000"
ry="0.000000"
x="371.113861"
y="61.500000"
id="col.pan"
style="fill:#63DD63;fill-opacity:1.000000;stroke:black;stroke-width:0.000000;stroke-opacity:0.000000" />


<rect
width="2.485149"
height="21.428571"
rx="0.000000"
ry="0.000000"
x="369.628713"
y="61.500000"
id="col.pan"
style="fill:#5FDF5F;fill-opacity:1.000000;stroke:black;stroke-width:0.000000;stroke-opacity:0.000000" />


<rect
width="2.485149"
height="21.428571"
rx="0.000000"
ry="0.000000"
x="368.143564"
y="61.500000"
id="col.pan"
style="fill:#5BE05B;fill-opacity:1.000000;stroke:black;stroke-width:0.000000;stroke-opacity:0.000000" />


<rect
width="2.485149"
height="21.428571"
rx="0.000000"
ry="0.000000"
x="366.658416"
y="61.500000"
id="col.pan"
style="fill:#57E157;fill-opacity:1.000000;stroke:black;stroke-width:0.000000;stroke-opacity:0.000000" />


<rect
width="2.485149"
height="21.428571"
rx="0.000000"
ry="0.000000"
x="365.173267"
y="61.500000"
id="col.pan"
style="fill:#54E254;fill-opacity:1.000000;stroke:black;stroke-width:0.000000;stroke-opacity:0.000000" />


<rect
width="2.485149"
height="21.428571"
rx="0.000000"
ry="0.000000"
x="363.688119"
y="61.500000"
id="col.pan"
style="fill:#50E450;fill-opacity:1.000000;stroke:black;stroke-width:0.000000;stroke-opacity:0.000000" />


<rect
width="2.485149"
height="21.428571"
rx="0.000000"
ry="0.000000"
x="362.202970"
y="61.500000"
id="col.pan"
style="fill:#4CE54C;fill-opacity:1.000000;stroke:black;stroke-width:0.000000;stroke-opacity:0.000000" />


<rect
width="2.485149"
height="21.428571"
rx="0.000000"
ry="0.000000"
x="360.717822"
y="61.500000"
id="col.pan"
style="fill:#48E648;fill-opacity:1.000000;stroke:black;stroke-width:0.000000;stroke-opacity:0.000000" />


<rect
width="2.485149"
height="21.428571"
rx="0.000000"
ry="0.000000"
x="359.232673"
y="61.500000"
id="col.pan"
style="fill:#44E844;fill-opacity:1.000000;stroke:black;stroke-width:0.000000;stroke-opacity:0.000000" />


<rect
width="2.485149"
height="21.428571"
rx="0.000000"
ry="0.000000"
x="357.747525"
y="61.500000"
id="col.pan"
style="fill:#41E941;fill-opacity:1.000000;stroke:black;stroke-width:0.000000;stroke-opacity:0.000000" />


<rect
width="2.485149"
height="21.428571"
rx="0.000000"
ry="0.000000"
x="356.262376"
y="61.500000"
id="col.pan"
style="fill:#3DEA3D;fill-opacity:1.000000;stroke:black;stroke-width:0.000000;stroke-opacity:0.000000" />


<rect
width="2.485149"
height="21.428571"
rx="0.000000"
ry="0.000000"
x="354.777228"
y="61.500000"
id="col.pan"
style="fill:#39EC39;fill-opacity:1.000000;stroke:black;stroke-width:0.000000;stroke-opacity:0.000000" />


<rect
width="2.485149"
height="21.428571"
rx="0.000000"
ry="0.000000"
x="353.292079"
y="61.500000"
id="col.pan"
style="fill:#35ED35;fill-opacity:1.000000;stroke:black;stroke-width:0.000000;stroke-opacity:0.000000" />


<rect
width="2.485149"
height="21.428571"
rx="0.000000"
ry="0.000000"
x="351.806931"
y="61.500000"
id="col.pan"
style="fill:#31EE31;fill-opacity:1.000000;stroke:black;stroke-width:0.000000;stroke-opacity:0.000000" />


<rect
width="2.485149"
height="21.428571"
rx="0.000000"
ry="0.000000"
x="350.321782"
y="61.500000"
id="col.pan"
style="fill:#2EEF2E;fill-opacity:1.000000;stroke:black;stroke-width:0.000000;stroke-opacity:0.000000" />


<rect
width="2.485149"
height="21.428571"
rx="0.000000"
ry="0.000000"
x="348.836634"
y="61.500000"
id="col.pan"
style="fill:#2AF12A;fill-opacity:1.000000;stroke:black;stroke-width:0.000000;stroke-opacity:0.000000" />


<rect
width="2.485149"
height="21.428571"
rx="0.000000"
ry="0.000000"
x="347.351485"
y="61.500000"
id="col.pan"
style="fill:#26F226;fill-opacity:1.000000;stroke:black;stroke-width:0.000000;stroke-opacity:0.000000" />


<rect
width="2.485149"
height="21.428571"
rx="0.000000"
ry="0.000000"
x="345.866337"
y="61.500000"
id="col.pan"
style="fill:#22F322;fill-opacity:1.000000;stroke:black;stroke-width:0.000000;stroke-opacity:0.000000" />


<rect
width="2.485149"
height="21.428571"
rx="0.000000"
ry="0.000000"
x="344.381188"
y="61.500000"
id="col.pan"
style="fill:#1EF51E;fill-opacity:1.000000;stroke:black;stroke-width:0.000000;stroke-opacity:0.000000" />


<rect
width="2.485149"
height="21.428571"
rx="0.000000"
ry="0.000000"
x="342.896040"
y="61.500000"
id="col.pan"
style="fill:#1BF61B;fill-opacity:1.000000;stroke:black;stroke-width:0.000000;stroke-opacity:0.000000" />


<rect
width="2.485149"
height="21.428571"
rx="0.000000"
ry="0.000000"
x="341.410891"
y="61.500000"
id="col.pan"
style="fill:#17F717;fill-opacity:1.000000;stroke:black;stroke-width:0.000000;stroke-opacity:0.000000" />


<rect
width="2.485149"
height="21.428571"
rx="0.000000"
ry="0.000000"
x="339.925743"
y="61.500000"
id="col.pan"
style="fill:#13F913;fill-opacity:1.000000;stroke:black;stroke-width:0.000000;stroke-opacity:0.000000" />


<rect
width="2.485149"
height="21.428571"
rx="0.000000"
ry="0.000000"
x="338.440594"
y="61.500000"
id="col.pan"
style="fill:#0FFA0F;fill-opacity:1.000000;stroke:black;stroke-width:0.000000;stroke-opacity:0.000000" />


<rect
width="2.485149"
height="21.428571"
rx="0.000000"
ry="0.000000"
x="336.955446"
y="61.500000"
id="col.pan"
style="fill:#0BFB0B;fill-opacity:1.000000;stroke:black;stroke-width:0.000000;stroke-opacity:0.000000" />


<rect
width="2.485149"
height="21.428571"
rx="0.000000"
ry="0.000000"
x="335.470297"
y="61.500000"
id="col.pan"
style="fill:#08FC08;fill-opacity:1.000000;stroke:black;stroke-width:0.000000;stroke-opacity:0.000000" />


<rect
width="2.485149"
height="21.428571"
rx="0.000000"
ry="0.000000"
x="333.985149"
y="61.500000"
id="col.pan"
style="fill:#04FE04;fill-opacity:1.000000;stroke:black;stroke-width:0.000000;stroke-opacity:0.000000" />


<rect
width="2.485149"
height="21.428571"
rx="0.000000"
ry="0.000000"
x="332.500000"
y="61.500000"
id="col.pan"
style="fill:#00FF00;fill-opacity:1.000000;stroke:black;stroke-width:0.000000;stroke-opacity:0.000000" />


<line
x1="332.5" y1="61.5" x2="332.5" y2="88.2857142857143"
id="tick"
style="stroke:black;stroke-width:2.000000;stroke-opacity:1" />


<line
x1="347.5" y1="61.5" x2="347.5" y2="88.2857142857143"
id="tick"
style="stroke:black;stroke-width:2.000000;stroke-opacity:1" />


<line
x1="362.5" y1="61.5" x2="362.5" y2="88.2857142857143"
id="tick"
style="stroke:black;stroke-width:2.000000;stroke-opacity:1" />


<line
x1="377.5" y1="61.5" x2="377.5" y2="88.2857142857143"
id="tick"
style="stroke:black;stroke-width:2.000000;stroke-opacity:1" />


<line
x1="392.5" y1="61.5" x2="392.5" y2="88.2857142857143"
id="tick"
style="stroke:black;stroke-width:2.000000;stroke-opacity:1" />


<line
x1="407.5" y1="61.5" x2="407.5" y2="88.2857142857143"
id="tick"
style="stroke:black;stroke-width:2.000000;stroke-opacity:1" />


<line
x1="422.5" y1="61.5" x2="422.5" y2="88.2857142857143"
id="tick"
style="stroke:black;stroke-width:2.000000;stroke-opacity:1" />


<line
x1="437.5" y1="61.5" x2="437.5" y2="88.2857142857143"
id="tick"
style="stroke:black;stroke-width:2.000000;stroke-opacity:1" />


<line
x1="452.5" y1="61.5" x2="452.5" y2="88.2857142857143"
id="tick"
style="stroke:black;stroke-width:2.000000;stroke-opacity:1" />


<line
x1="467.5" y1="61.5" x2="467.5" y2="88.2857142857143"
id="tick"
style="stroke:black;stroke-width:2.000000;stroke-opacity:1" />


<line
x1="482.5" y1="61.5" x2="482.5" y2="88.2857142857143"
id="tick"
style="stroke:black;stroke-width:2.000000;stroke-opacity:1" />


<text
x="481.757426"
y="111.500000"
id="color.panel.max.value"
style="font-size:21.428571px;text-anchor:middle;font-family:Arial,Helvetica;alignment-baseline:baseline;stroke.opacity:1;dominant-baseline:baseline"
fill="black"
>
1</text>


<text
x="333.242574"
y="111.500000"
id="color.panel.low.value"
style="font-size:21.428571px;text-anchor:middle;font-family:Arial,Helvetica;alignment-baseline:baseline;stroke.opacity:1;dominant-baseline:baseline"
fill="black"
>
-1</text>


<text
x="408.985149"
y="111.500000"
id="color.panel.mid.value"
style="font-size:21.428571px;text-anchor:middle;font-family:Arial,Helvetica;alignment-baseline:baseline;stroke.opacity:1;dominant-baseline:baseline"
fill="black"
>
0</text>


</svg>
