<?xml version="1.0" encoding="UTF-8"?>
<svg width="1076.697487" height="664.715038"
xmlns="http://www.w3.org/2000/svg" xmlns:svg="http://www.w3.org/2000/svg"
>
<metadata id="metadata7">image/svg+xml</metadata>



<path
d="M 388.274645122064 402.910486202516 388.274645122064 431.910486202516 393.774645122064 437.410486202516 452.774645122064 437.410486202516 458.274645122064 431.910486202516 458.274645122064 402.910486202516 452.774645122064 397.410486202516 393.774645122064 397.410486202516 Z"
id="wikipathways_WP206_f9003"
style="fill:white;fill-opacity:0.600000;stroke-width:1;stroke:black;stroke-opacity:1.000000"
transform = "rotate(0.000000 0.000000 0.000000)"
/>


<text
x="423.274645"
y="417.410486"
id="wikipathways_WP206_f9003"
style="font-size:18.000000px;text-anchor:middle;font-family:Arial,Helvetica;alignment-baseline:baseline;stroke.opacity:1;dominant-baseline:baseline"
fill="black"
>
noname</text>


<path
d="M 628.436434811405 349.284514817972 628.436434811405 378.284514817972 633.936434811405 383.784514817972 692.936434811405 383.784514817972 698.436434811405 378.284514817972 698.436434811405 349.284514817972 692.936434811405 343.784514817972 633.936434811405 343.784514817972 Z"
id="wikipathways_WP206_df412"
style="fill:white;fill-opacity:0.600000;stroke-width:1;stroke:black;stroke-opacity:1.000000"
transform = "rotate(0.000000 0.000000 0.000000)"
/>


<text
x="663.436435"
y="363.784515"
id="wikipathways_WP206_df412"
style="font-size:18.000000px;text-anchor:middle;font-family:Arial,Helvetica;alignment-baseline:baseline;stroke.opacity:1;dominant-baseline:baseline"
fill="black"
>
noname</text>


<path
d="M 572.530320167126 285.885322846695 572.530320167126 314.885322846695 578.030320167126 320.385322846695 637.030320167126 320.385322846695 642.530320167126 314.885322846695 642.530320167126 285.885322846695 637.030320167126 280.385322846695 578.030320167126 280.385322846695 Z"
id="wikipathways_WP206_f32ff"
style="fill:white;fill-opacity:0.600000;stroke-width:1;stroke:black;stroke-opacity:1.000000"
transform = "rotate(0.000000 0.000000 0.000000)"
/>


<text
x="607.530320"
y="300.385323"
id="wikipathways_WP206_f32ff"
style="font-size:18.000000px;text-anchor:middle;font-family:Arial,Helvetica;alignment-baseline:baseline;stroke.opacity:1;dominant-baseline:baseline"
fill="black"
>
noname</text>




<ellipse
rx="35.000000"
ry="20.000000"
cx="290.859841"
cy="292.955003"
id="wikipathways_WP206_dd7"
style="fill:#59E159;fill-opacity:0.600000;stroke:black;stroke-width:1.000000;stroke-opacity:0.000000" />


<path
d="M 273.359840606698 310.275510825262 A 35 20 1 1 0 273.359840606698 275.634494673884"
id="wikipathways_WP206_dd7"
style="fill:#4CE54C;fill-opacity:0.600000;stroke-width:1;stroke:black;stroke-opacity:0.000000"
transform = "rotate(0.000000 0.000000 0.000000)"
/>


<path
d="M 290.859840606698 312.955002749573 A 35 20 1 1 0 290.859840606698 272.955002749573"
id="wikipathways_WP206_dd7"
style="fill:white;fill-opacity:0.600000;stroke-width:1;stroke:black;stroke-opacity:0.000000"
transform = "rotate(0.000000 0.000000 0.000000)"
/>


<path
d="M 290.859840606698 312.955002749573 A 35 20 1 1 0 290.859840606698 272.955002749573"
id="wikipathways_WP206_dd7"
style="fill:#2AF12A;fill-opacity:0.600000;stroke-width:1;stroke:black;stroke-opacity:0.000000"
transform = "rotate(0.000000 0.000000 0.000000)"
/>


<path
d="M 308.359840606698 310.275510825262 A 35 20 1 0 0 308.359840606698 275.634494673884"
id="wikipathways_WP206_dd7"
style="fill:white;fill-opacity:0.600000;stroke-width:1;stroke:black;stroke-opacity:0.000000"
transform = "rotate(0.000000 0.000000 0.000000)"
/>


<path
d="M 308.359840606698 310.275510825262 A 35 20 1 0 0 308.359840606698 275.634494673884"
id="wikipathways_WP206_dd7"
style="fill:#C0B7B7;fill-opacity:0.600000;stroke-width:1;stroke:black;stroke-opacity:0.000000"
transform = "rotate(0.000000 0.000000 0.000000)"
/>


<path
d="M 325.859840606698 292.955002749573 A 35 20 1 0 0 325.859840606698 292.955002749573"
id="wikipathways_WP206_dd7"
style="fill:white;fill-opacity:0.600000;stroke-width:1;stroke:black;stroke-opacity:0.000000"
transform = "rotate(0.000000 0.000000 0.000000)"
/>


<ellipse
rx="35.000000"
ry="20.000000"
cx="290.859841"
cy="292.955003"
id="wikipathways_WP206_dd7"
style="fill:white;fill-opacity:0.000000;stroke:black;stroke-width:1.000000;stroke-opacity:1.000000" />



<text
x="290.859841"
y="280.955003"
id="wikipathways_WP206_dd7"
style="font-size:18.000000px;text-anchor:middle;font-family:Arial,Helvetica;alignment-baseline:baseline;stroke.opacity:1;dominant-baseline:baseline"
fill="black"
>
HO-CH-(</text>


<text
x="290.859841"
y="298.955003"
id="wikipathways_WP206_dd7"
style="font-size:18.000000px;text-anchor:middle;font-family:Arial,Helvetica;alignment-baseline:baseline;stroke.opacity:1;dominant-baseline:baseline"
fill="black"
>
CH2)10-</text>


<text
x="290.859841"
y="316.955003"
id="wikipathways_WP206_dd7"
style="font-size:18.000000px;text-anchor:middle;font-family:Arial,Helvetica;alignment-baseline:baseline;stroke.opacity:1;dominant-baseline:baseline"
fill="black"
>
COO-</text>


<rect
width="26.666667"
height="26.666667"
rx="0.000000"
ry="0.000000"
x="407.901465"
y="308.485284"
id="wikipathways_WP206_f1bc1"
style="fill:white;fill-opacity:0.600000;stroke:black;stroke-width:1.000000;stroke-opacity:1.000000" />



<text
x="421.234799"
y="329.818618"
id="wikipathways_WP206_f1bc1"
style="font-size:24.000000px;text-anchor:middle;font-family:Arial,Helvetica;alignment-baseline:baseline;stroke.opacity:1;dominant-baseline:baseline"
fill="black"
>
\\</text>



<ellipse
rx="35.000000"
ry="20.000000"
cx="135.000000"
cy="381.920985"
id="wikipathways_WP206_e96"
style="fill:#00FF00;fill-opacity:0.600000;stroke:black;stroke-width:1.000000;stroke-opacity:0.000000" />


<path
d="M 117.5 399.241492675906 A 35 20 1 1 0 117.5 364.600476524528"
id="wikipathways_WP206_e96"
style="fill:#9EC99E;fill-opacity:0.600000;stroke-width:1;stroke:black;stroke-opacity:0.000000"
transform = "rotate(0.000000 0.000000 0.000000)"
/>


<path
d="M 135 401.920984600217 A 35 20 1 1 0 135 361.920984600217"
id="wikipathways_WP206_e96"
style="fill:white;fill-opacity:0.600000;stroke-width:1;stroke:black;stroke-opacity:0.000000"
transform = "rotate(0.000000 0.000000 0.000000)"
/>


<path
d="M 135 401.920984600217 A 35 20 1 1 0 135 361.920984600217"
id="wikipathways_WP206_e96"
style="fill:#25F225;fill-opacity:0.600000;stroke-width:1;stroke:black;stroke-opacity:0.000000"
transform = "rotate(0.000000 0.000000 0.000000)"
/>


<path
d="M 152.5 399.241492675906 A 35 20 1 0 0 152.5 364.600476524528"
id="wikipathways_WP206_e96"
style="fill:white;fill-opacity:0.600000;stroke-width:1;stroke:black;stroke-opacity:0.000000"
transform = "rotate(0.000000 0.000000 0.000000)"
/>


<path
d="M 152.5 399.241492675906 A 35 20 1 0 0 152.5 364.600476524528"
id="wikipathways_WP206_e96"
style="fill:#3CEA3C;fill-opacity:0.600000;stroke-width:1;stroke:black;stroke-opacity:0.000000"
transform = "rotate(0.000000 0.000000 0.000000)"
/>


<path
d="M 170 381.920984600217 A 35 20 1 0 0 170 381.920984600217"
id="wikipathways_WP206_e96"
style="fill:white;fill-opacity:0.600000;stroke-width:1;stroke:black;stroke-opacity:0.000000"
transform = "rotate(0.000000 0.000000 0.000000)"
/>


<ellipse
rx="35.000000"
ry="20.000000"
cx="135.000000"
cy="381.920985"
id="wikipathways_WP206_e96"
style="fill:white;fill-opacity:0.000000;stroke:black;stroke-width:1.000000;stroke-opacity:1.000000" />



<text
x="135.000000"
y="378.920985"
id="wikipathways_WP206_e96"
style="font-size:18.000000px;text-anchor:middle;font-family:Arial,Helvetica;alignment-baseline:baseline;stroke.opacity:1;dominant-baseline:baseline"
fill="black"
>
CH3-(CH-</text>


<text
x="135.000000"
y="396.920985"
id="wikipathways_WP206_e96"
style="font-size:18.000000px;text-anchor:middle;font-family:Arial,Helvetica;alignment-baseline:baseline;stroke.opacity:1;dominant-baseline:baseline"
fill="black"
>
2)10-COO-</text>


<rect
width="26.666667"
height="26.666667"
rx="0.000000"
ry="0.000000"
x="461.241556"
y="253.592893"
id="wikipathways_WP206_d14df"
style="fill:white;fill-opacity:0.600000;stroke:black;stroke-width:1.000000;stroke-opacity:1.000000" />



<text
x="474.574890"
y="274.926227"
id="wikipathways_WP206_d14df"
style="font-size:24.000000px;text-anchor:middle;font-family:Arial,Helvetica;alignment-baseline:baseline;stroke.opacity:1;dominant-baseline:baseline"
fill="black"
>
\\</text>



<ellipse
rx="35.000000"
ry="20.000000"
cx="528.143896"
cy="386.732142"
id="wikipathways_WP206_a02"
style="fill:#4CE54C;fill-opacity:0.600000;stroke:black;stroke-width:1.000000;stroke-opacity:0.000000" />


<path
d="M 510.643895994945 404.05265002389 A 35 20 1 1 0 510.643895994945 369.411633872512"
id="wikipathways_WP206_a02"
style="fill:#C5A8A8;fill-opacity:0.600000;stroke-width:1;stroke:black;stroke-opacity:0.000000"
transform = "rotate(0.000000 0.000000 0.000000)"
/>


<path
d="M 528.143895994945 406.732141948201 A 35 20 1 1 0 528.143895994945 366.732141948201"
id="wikipathways_WP206_a02"
style="fill:white;fill-opacity:0.600000;stroke-width:1;stroke:black;stroke-opacity:0.000000"
transform = "rotate(0.000000 0.000000 0.000000)"
/>


<path
d="M 528.143895994945 406.732141948201 A 35 20 1 1 0 528.143895994945 366.732141948201"
id="wikipathways_WP206_a02"
style="fill:#7FD37F;fill-opacity:0.600000;stroke-width:1;stroke:black;stroke-opacity:0.000000"
transform = "rotate(0.000000 0.000000 0.000000)"
/>


<path
d="M 545.643895994945 404.05265002389 A 35 20 1 0 0 545.643895994945 369.411633872512"
id="wikipathways_WP206_a02"
style="fill:white;fill-opacity:0.600000;stroke-width:1;stroke:black;stroke-opacity:0.000000"
transform = "rotate(0.000000 0.000000 0.000000)"
/>


<path
d="M 545.643895994945 404.05265002389 A 35 20 1 0 0 545.643895994945 369.411633872512"
id="wikipathways_WP206_a02"
style="fill:#4DE54D;fill-opacity:0.600000;stroke-width:1;stroke:black;stroke-opacity:0.000000"
transform = "rotate(0.000000 0.000000 0.000000)"
/>


<path
d="M 563.143895994945 386.732141948201 A 35 20 1 0 0 563.143895994945 386.732141948201"
id="wikipathways_WP206_a02"
style="fill:white;fill-opacity:0.600000;stroke-width:1;stroke:black;stroke-opacity:0.000000"
transform = "rotate(0.000000 0.000000 0.000000)"
/>


<ellipse
rx="35.000000"
ry="20.000000"
cx="528.143896"
cy="386.732142"
id="wikipathways_WP206_a02"
style="fill:white;fill-opacity:0.000000;stroke:black;stroke-width:1.000000;stroke-opacity:1.000000" />



<text
x="528.143896"
y="383.732142"
id="wikipathways_WP206_a02"
style="font-size:18.000000px;text-anchor:middle;font-family:Arial,Helvetica;alignment-baseline:baseline;stroke.opacity:1;dominant-baseline:baseline"
fill="black"
>
-OOC-(C-</text>


<text
x="528.143896"
y="401.732142"
id="wikipathways_WP206_a02"
style="font-size:18.000000px;text-anchor:middle;font-family:Arial,Helvetica;alignment-baseline:baseline;stroke.opacity:1;dominant-baseline:baseline"
fill="black"
>
H2)10-COO-</text>



<ellipse
rx="35.000000"
ry="20.000000"
cx="452.651530"
cy="170.000000"
id="wikipathways_WP206_bd9"
style="fill:#C3AFAF;fill-opacity:0.600000;stroke:black;stroke-width:1.000000;stroke-opacity:0.000000" />


<path
d="M 435.151530144833 187.320508075689 A 35 20 1 1 0 435.151530144833 152.679491924311"
id="wikipathways_WP206_bd9"
style="fill:#D87272;fill-opacity:0.600000;stroke-width:1;stroke:black;stroke-opacity:0.000000"
transform = "rotate(0.000000 0.000000 0.000000)"
/>


<path
d="M 452.651530144833 190 A 35 20 1 1 0 452.651530144833 150"
id="wikipathways_WP206_bd9"
style="fill:white;fill-opacity:0.600000;stroke-width:1;stroke:black;stroke-opacity:0.000000"
transform = "rotate(0.000000 0.000000 0.000000)"
/>


<path
d="M 452.651530144833 190 A 35 20 1 1 0 452.651530144833 150"
id="wikipathways_WP206_bd9"
style="fill:#CE9090;fill-opacity:0.600000;stroke-width:1;stroke:black;stroke-opacity:0.000000"
transform = "rotate(0.000000 0.000000 0.000000)"
/>


<path
d="M 470.151530144833 187.320508075689 A 35 20 1 0 0 470.151530144833 152.679491924311"
id="wikipathways_WP206_bd9"
style="fill:white;fill-opacity:0.600000;stroke-width:1;stroke:black;stroke-opacity:0.000000"
transform = "rotate(0.000000 0.000000 0.000000)"
/>


<path
d="M 470.151530144833 187.320508075689 A 35 20 1 0 0 470.151530144833 152.679491924311"
id="wikipathways_WP206_bd9"
style="fill:#88D088;fill-opacity:0.600000;stroke-width:1;stroke:black;stroke-opacity:0.000000"
transform = "rotate(0.000000 0.000000 0.000000)"
/>


<path
d="M 487.651530144833 170 A 35 20 1 0 0 487.651530144833 170"
id="wikipathways_WP206_bd9"
style="fill:white;fill-opacity:0.600000;stroke-width:1;stroke:black;stroke-opacity:0.000000"
transform = "rotate(0.000000 0.000000 0.000000)"
/>


<ellipse
rx="35.000000"
ry="20.000000"
cx="452.651530"
cy="170.000000"
id="wikipathways_WP206_bd9"
style="fill:white;fill-opacity:0.000000;stroke:black;stroke-width:1.000000;stroke-opacity:1.000000" />



<text
x="452.651530"
y="167.000000"
id="wikipathways_WP206_bd9"
style="font-size:18.000000px;text-anchor:middle;font-family:Arial,Helvetica;alignment-baseline:baseline;stroke.opacity:1;dominant-baseline:baseline"
fill="black"
>
HOC-(CH-</text>


<text
x="452.651530"
y="185.000000"
id="wikipathways_WP206_bd9"
style="font-size:18.000000px;text-anchor:middle;font-family:Arial,Helvetica;alignment-baseline:baseline;stroke.opacity:1;dominant-baseline:baseline"
fill="black"
>
2)10-COO-</text>


<rect
width="26.666667"
height="26.666667"
rx="0.000000"
ry="0.000000"
x="598.702370"
y="220.171817"
id="wikipathways_WP206_c1ff9"
style="fill:white;fill-opacity:0.600000;stroke:black;stroke-width:1.000000;stroke-opacity:1.000000" />



<text
x="612.035703"
y="241.505150"
id="wikipathways_WP206_c1ff9"
style="font-size:24.000000px;text-anchor:middle;font-family:Arial,Helvetica;alignment-baseline:baseline;stroke.opacity:1;dominant-baseline:baseline"
fill="black"
>
\\</text>


<rect
width="26.666667"
height="26.666667"
rx="0.000000"
ry="0.000000"
x="354.808016"
y="245.806147"
id="wikipathways_WP206_b1ee0"
style="fill:white;fill-opacity:0.600000;stroke:black;stroke-width:1.000000;stroke-opacity:1.000000" />



<text
x="368.141349"
y="267.139480"
id="wikipathways_WP206_b1ee0"
style="font-size:24.000000px;text-anchor:middle;font-family:Arial,Helvetica;alignment-baseline:baseline;stroke.opacity:1;dominant-baseline:baseline"
fill="black"
>
\\</text>


<rect
width="26.666667"
height="26.666667"
rx="0.000000"
ry="0.000000"
x="720.030820"
y="275.679167"
id="wikipathways_WP206_f9fc3"
style="fill:white;fill-opacity:0.600000;stroke:black;stroke-width:1.000000;stroke-opacity:1.000000" />



<text
x="733.364153"
y="297.012501"
id="wikipathways_WP206_f9fc3"
style="font-size:24.000000px;text-anchor:middle;font-family:Arial,Helvetica;alignment-baseline:baseline;stroke.opacity:1;dominant-baseline:baseline"
fill="black"
>
\\</text>



<ellipse
rx="35.000000"
ry="20.000000"
cx="574.283624"
cy="519.715038"
id="wikipathways_WP206_f78"
style="fill:#E64A4A;fill-opacity:0.600000;stroke:black;stroke-width:1.000000;stroke-opacity:0.000000" />


<path
d="M 556.783623664636 537.035546563102 A 35 20 1 1 0 556.783623664636 502.394530411724"
id="wikipathways_WP206_f78"
style="fill:#91CD91;fill-opacity:0.600000;stroke-width:1;stroke:black;stroke-opacity:0.000000"
transform = "rotate(0.000000 0.000000 0.000000)"
/>


<path
d="M 574.283623664636 539.715038487413 A 35 20 1 1 0 574.283623664636 499.715038487413"
id="wikipathways_WP206_f78"
style="fill:white;fill-opacity:0.600000;stroke-width:1;stroke:black;stroke-opacity:0.000000"
transform = "rotate(0.000000 0.000000 0.000000)"
/>


<path
d="M 574.283623664636 539.715038487413 A 35 20 1 1 0 574.283623664636 499.715038487413"
id="wikipathways_WP206_f78"
style="fill:#CB9898;fill-opacity:0.600000;stroke-width:1;stroke:black;stroke-opacity:0.000000"
transform = "rotate(0.000000 0.000000 0.000000)"
/>


<path
d="M 591.783623664636 537.035546563102 A 35 20 1 0 0 591.783623664636 502.394530411724"
id="wikipathways_WP206_f78"
style="fill:white;fill-opacity:0.600000;stroke-width:1;stroke:black;stroke-opacity:0.000000"
transform = "rotate(0.000000 0.000000 0.000000)"
/>


<path
d="M 591.783623664636 537.035546563102 A 35 20 1 0 0 591.783623664636 502.394530411724"
id="wikipathways_WP206_f78"
style="fill:#DC6565;fill-opacity:0.600000;stroke-width:1;stroke:black;stroke-opacity:0.000000"
transform = "rotate(0.000000 0.000000 0.000000)"
/>


<path
d="M 609.283623664636 519.715038487413 A 35 20 1 0 0 609.283623664636 519.715038487413"
id="wikipathways_WP206_f78"
style="fill:white;fill-opacity:0.600000;stroke-width:1;stroke:black;stroke-opacity:0.000000"
transform = "rotate(0.000000 0.000000 0.000000)"
/>


<ellipse
rx="35.000000"
ry="20.000000"
cx="574.283624"
cy="519.715038"
id="wikipathways_WP206_f78"
style="fill:white;fill-opacity:0.000000;stroke:black;stroke-width:1.000000;stroke-opacity:1.000000" />



<text
x="574.283624"
y="516.715038"
id="wikipathways_WP206_f78"
style="font-size:18.000000px;text-anchor:middle;font-family:Arial,Helvetica;alignment-baseline:baseline;stroke.opacity:1;dominant-baseline:baseline"
fill="black"
>
Beta Ox-</text>


<text
x="574.283624"
y="534.715038"
id="wikipathways_WP206_f78"
style="font-size:18.000000px;text-anchor:middle;font-family:Arial,Helvetica;alignment-baseline:baseline;stroke.opacity:1;dominant-baseline:baseline"
fill="black"
>
idation</text>


<rect
width="26.666667"
height="26.666667"
rx="0.000000"
ry="0.000000"
x="148.024515"
y="280.142758"
id="wikipathways_WP206_a00e2"
style="fill:white;fill-opacity:0.600000;stroke:black;stroke-width:1.000000;stroke-opacity:1.000000" />



<text
x="161.357848"
y="301.476092"
id="wikipathways_WP206_a00e2"
style="font-size:24.000000px;text-anchor:middle;font-family:Arial,Helvetica;alignment-baseline:baseline;stroke.opacity:1;dominant-baseline:baseline"
fill="black"
>
\\</text>


<rect
width="26.666667"
height="26.666667"
rx="0.000000"
ry="0.000000"
x="482.148313"
y="483.477117"
id="wikipathways_WP206_d0387"
style="fill:white;fill-opacity:0.600000;stroke:black;stroke-width:1.000000;stroke-opacity:1.000000" />



<text
x="495.481646"
y="504.810451"
id="wikipathways_WP206_d0387"
style="font-size:24.000000px;text-anchor:middle;font-family:Arial,Helvetica;alignment-baseline:baseline;stroke.opacity:1;dominant-baseline:baseline"
fill="black"
>
\\</text>




<path d="M424.000000 308.000000 C 429.000000 281.000000, 441.000000 221.000000,448.000000 190.000000" stroke="black"  fill="transparent"/>

<line
x1="441" y1="221" x2="448" y2="190"
id="0"
style="stroke:black;stroke-width:1.000000;stroke-opacity:0" />


<line
x1="429" y1="281" x2="424" y2="308"
id="wikipathways_WP206_bd9--to--wikipathways_WP206_f1bc1-input"
style="stroke:black;stroke-width:1.000000;stroke-opacity:0" />


<polygon
points = "424,308 410.8,303.6 415.2,308 410.8,312.4"
id="line"
style="fill:black; stroke:#000000; stroke-width:1"
transform = "rotate(100.491477 424.000000 308.000000)"
/>


<path d="M416.000000 397.000000 C 404.000000 364.000000, 382.000000 301.000000,372.000000 272.000000" stroke="black"  fill="transparent"/>

<line
x1="404" y1="364" x2="416" y2="397"
id="0"
style="stroke:black;stroke-width:1.000000;stroke-opacity:0" />


<line
x1="382" y1="301" x2="372" y2="272"
id="wikipathways_WP206_f9003--to--wikipathways_WP206_b1ee0-input"
style="stroke:black;stroke-width:1.000000;stroke-opacity:0" />


<polygon
points = "372,272 358.8,267.6 363.2,272 358.8,276.4"
id="line"
style="fill:black; stroke:#000000; stroke-width:1"
transform = "rotate(250.974394 372.000000 272.000000)"
/>


<path d="M326.000000 300.000000 C 352.000000 306.000000, 388.000000 314.000000,407.000000 318.000000" stroke="black"  fill="transparent"/>

<line
x1="352" y1="306" x2="326" y2="300"
id="0"
style="stroke:black;stroke-width:1.000000;stroke-opacity:0" />


<line
x1="388" y1="314" x2="407" y2="318"
id="wikipathways_WP206_dd7--to--wikipathways_WP206_f1bc1-input"
style="stroke:black;stroke-width:1.000000;stroke-opacity:0" />


<polygon
points = "407,318 393.8,313.6 398.2,318 393.8,322.4"
id="line"
style="fill:black; stroke:#000000; stroke-width:1"
transform = "rotate(11.888658 407.000000 318.000000)"
/>


<path d="M255.000000 293.000000 C 229.000000 293.000000, 193.000000 293.000000,174.000000 293.000000" stroke="black"  fill="transparent"/>

<line
x1="229" y1="293" x2="255" y2="293"
id="0"
style="stroke:black;stroke-width:1.000000;stroke-opacity:0" />


<line
x1="193" y1="293" x2="174" y2="293"
id="wikipathways_WP206_dd7--to--wikipathways_WP206_a00e2-input"
style="stroke:black;stroke-width:1.000000;stroke-opacity:0" />


<polygon
points = "174,293 160.8,288.6 165.2,293 160.8,297.4"
id="line"
style="fill:black; stroke:#000000; stroke-width:1"
transform = "rotate(180.000000 174.000000 293.000000)"
/>


<path d="M539.000000 509.000000 C 528.000000 506.000000, 517.000000 503.000000,509.000000 500.000000" stroke="black"  fill="transparent"/>

<line
x1="528" y1="506" x2="539" y2="509"
id="0"
style="stroke:black;stroke-width:1.000000;stroke-opacity:0" />


<line
x1="517" y1="503" x2="509" y2="500"
id="wikipathways_WP206_f78--to--wikipathways_WP206_d0387-input"
style="stroke:black;stroke-width:1.000000;stroke-opacity:0" />


<polygon
points = "509,500 495.8,495.6 500.2,500 495.8,504.4"
id="line"
style="fill:black; stroke:#000000; stroke-width:1"
transform = "rotate(200.556045 509.000000 500.000000)"
/>


<path d="M480.000000 280.000000 C 490.000000 301.000000, 508.000000 341.000000,519.000000 366.000000" stroke="black"  fill="transparent"/>

<line
x1="508" y1="341" x2="519" y2="366"
id="0"
style="stroke:black;stroke-width:1.000000;stroke-opacity:0" />


<line
x1="490" y1="301" x2="480" y2="280"
id="wikipathways_WP206_a02--to--wikipathways_WP206_d14df-input"
style="stroke:black;stroke-width:1.000000;stroke-opacity:0" />


<polygon
points = "480,280 466.8,275.6 471.2,280 466.8,284.4"
id="line"
style="fill:black; stroke:#000000; stroke-width:1"
transform = "rotate(244.536655 480.000000 280.000000)"
/>


<path d="M611.000000 247.000000 C 610.000000 256.000000, 609.000000 269.000000,608.000000 280.000000" stroke="black"  fill="transparent"/>

<line
x1="609" y1="269" x2="608" y2="280"
id="0"
style="stroke:black;stroke-width:1.000000;stroke-opacity:0" />


<line
x1="610" y1="256" x2="611" y2="247"
id="wikipathways_WP206_f32ff--to--wikipathways_WP206_c1ff9-input"
style="stroke:black;stroke-width:1.000000;stroke-opacity:0" />


<polygon
points = "611,247 597.8,242.6 602.2,247 597.8,251.4"
id="line"
style="fill:black; stroke:#000000; stroke-width:1"
transform = "rotate(-83.659808 611.000000 247.000000)"
/>


<path d="M720.000000 302.000000 C 709.000000 314.000000, 694.000000 330.000000,682.000000 343.000000" stroke="black"  fill="transparent"/>

<line
x1="694" y1="330" x2="682" y2="343"
id="0"
style="stroke:black;stroke-width:1.000000;stroke-opacity:0" />


<line
x1="709" y1="314" x2="720" y2="302"
id="wikipathways_WP206_df412--to--wikipathways_WP206_f9fc3-input"
style="stroke:black;stroke-width:1.000000;stroke-opacity:0" />


<polygon
points = "720,302 706.8,297.6 711.2,302 706.8,306.4"
id="line"
style="fill:black; stroke:#000000; stroke-width:1"
transform = "rotate(-47.489553 720.000000 302.000000)"
/>


<path d="M140.000000 361.000000 C 145.000000 345.000000, 152.000000 321.000000,157.000000 307.000000" stroke="black"  fill="transparent"/>

<line
x1="145" y1="345" x2="140" y2="361"
id="0"
style="stroke:black;stroke-width:1.000000;stroke-opacity:0" />


<line
x1="152" y1="321" x2="157" y2="307"
id="wikipathways_WP206_e96--to--wikipathways_WP206_a00e2-input"
style="stroke:black;stroke-width:1.000000;stroke-opacity:0" />


<polygon
points = "157,307 143.8,302.6 148.2,307 143.8,311.4"
id="line"
style="fill:black; stroke:#000000; stroke-width:1"
transform = "rotate(-70.346176 157.000000 307.000000)"
/>


<path d="M471.000000 253.000000 C 467.000000 236.000000, 461.000000 209.000000,457.000000 190.000000" stroke="black"  fill="transparent"/>

<line
x1="461" y1="209" x2="457" y2="190"
id="0"
style="stroke:black;stroke-width:1.000000;stroke-opacity:0" />


<line
x1="467" y1="236" x2="471" y2="253"
id="wikipathways_WP206_bd9--to--wikipathways_WP206_d14df-input"
style="stroke:black;stroke-width:1.000000;stroke-opacity:0" />


<polygon
points = "471,253 457.8,248.6 462.2,253 457.8,257.4"
id="line"
style="fill:black; stroke:#000000; stroke-width:1"
transform = "rotate(76.759480 471.000000 253.000000)"
/>


<path d="M522.000000 406.000000 C 515.000000 429.000000, 505.000000 463.000000,499.000000 483.000000" stroke="black"  fill="transparent"/>

<line
x1="515" y1="429" x2="522" y2="406"
id="0"
style="stroke:black;stroke-width:1.000000;stroke-opacity:0" />


<line
x1="505" y1="463" x2="499" y2="483"
id="wikipathways_WP206_a02--to--wikipathways_WP206_d0387-input"
style="stroke:black;stroke-width:1.000000;stroke-opacity:0" />


<polygon
points = "499,483 485.8,478.6 490.2,483 485.8,487.4"
id="line"
style="fill:black; stroke:#000000; stroke-width:1"
transform = "rotate(106.699244 499.000000 483.000000)"
/>





</svg>
