<?xml version="1.0" encoding="UTF-8"?>
<svg width="694.988301" height="847.077405"
xmlns="http://www.w3.org/2000/svg" xmlns:svg="http://www.w3.org/2000/svg"
>
<metadata id="metadata7">image/svg+xml</metadata>

<rect
width="202.377644"
height="177.668861"
rx="11.000000"
ry="11.000000"
x="158.993278"
y="496.940510"
id="cytosol"
style="fill:white;fill-opacity:0.900000;stroke:black;stroke-width:5.000000;stroke-opacity:1.000000" />


<text
x="260.182100"
y="488.940510"
id="cytosol"
style="font-size:24.000000px;text-anchor:middle;font-family:Arial,Helvetica;alignment-baseline:baseline;stroke.opacity:1;dominant-baseline:baseline"
fill="black"
>
cytosol</text>


<rect
width="264.988301"
height="197.803616"
rx="11.000000"
ry="11.000000"
x="100.000000"
y="198.000000"
id="nucleus"
style="fill:white;fill-opacity:0.900000;stroke:black;stroke-width:5.000000;stroke-opacity:1.000000" />


<text
x="232.494150"
y="190.000000"
id="nucleus"
style="font-size:24.000000px;text-anchor:middle;font-family:Arial,Helvetica;alignment-baseline:baseline;stroke.opacity:1;dominant-baseline:baseline"
fill="black"
>
nucleus</text>


<rect
width="92.000000"
height="62.000000"
rx="11.000000"
ry="11.000000"
x="272.988301"
y="660.077405"
id="plasma_membrane__extrinsic_to_internal_side_of_plasma_membrane_"
style="fill:white;fill-opacity:0.900000;stroke:black;stroke-width:5.000000;stroke-opacity:1.000000" />



<text
x="318.988301"
y="628.077405"
id="plasma_membrane__extrinsic_to_internal_side_of_plasma_membrane_"
style="font-size:24.000000px;text-anchor:middle;font-family:Arial,Helvetica;alignment-baseline:baseline;stroke.opacity:1;dominant-baseline:baseline"
fill="black"
>
compart-</text>


<text
x="318.988301"
y="652.077405"
id="plasma_membrane__extrinsic_to_internal_side_of_plasma_membrane_"
style="font-size:24.000000px;text-anchor:middle;font-family:Arial,Helvetica;alignment-baseline:baseline;stroke.opacity:1;dominant-baseline:baseline"
fill="black"
>
ment_1</text>



<path
d="M 111 232.5 111 321.25 116.5 326.75 186.5 326.75 192 321.25 192 232.5 186.5 227 116.5 227 Z"
id="Complex_81284e947e37bb340a6710c0476862b6"
style="fill:white;fill-opacity:0.600000;stroke-width:1;stroke:black;stroke-opacity:1.000000"
transform = "rotate(0.000000 0.000000 0.000000)"
/>


<text
x="151.500000"
y="219.000000"
id="Complex_81284e947e37bb340a6710c0476862b6"
style="font-size:18.000000px;text-anchor:middle;font-family:Arial,Helvetica;alignment-baseline:baseline;stroke.opacity:1;dominant-baseline:baseline"
fill="black"
>
R-Smad:Smad4</text>





<path
d="M 169.993278038583 553.5604864427 Q 169.993278038583 553.5604864427 169.993278038583 553.5604864427 L 187.493278038583 553.5604864427 Q 187.493278038583 553.5604864427 187.493278038583 553.5604864427 L 187.493278038583 593.5604864427 Q 187.493278038583 593.5604864427 187.493278038583 593.5604864427 L 173.993278038583 593.5604864427 Q 169.993278038583 593.5604864427 169.993278038583 589.5604864427 Z"
id="Rna_2044100e8981d15a59776dc194f74c38"
style="fill:#A9C5A9;fill-opacity:1.000000;stroke-width:0.5;stroke:black;stroke-opacity:0.000000"
transform = "rotate(0.000000 0.000000 0.000000)"
/>


<text
x="178.743278"
y="575.060486"
id="Rna_2044100e8981d15a59776dc194f74c38"
style="font-size:4.500000px;text-anchor:middle;font-family:Arial,Helvetica;alignment-baseline:baseline;stroke.opacity:1;dominant-baseline:baseline"
fill="black"
>
 </text>



<path
d="M 187.493278038583 553.5604864427 Q 187.493278038583 553.5604864427 187.493278038583 553.5604864427 L 204.993278038583 553.5604864427 Q 204.993278038583 553.5604864427 204.993278038583 553.5604864427 L 204.993278038583 593.5604864427 Q 204.993278038583 593.5604864427 204.993278038583 593.5604864427 L 187.493278038583 593.5604864427 Q 187.493278038583 593.5604864427 187.493278038583 593.5604864427 Z"
id="Rna_2044100e8981d15a59776dc194f74c38"
style="fill:#FF0000;fill-opacity:1.000000;stroke-width:0.5;stroke:black;stroke-opacity:0.000000"
transform = "rotate(0.000000 0.000000 0.000000)"
/>


<text
x="196.243278"
y="575.060486"
id="Rna_2044100e8981d15a59776dc194f74c38"
style="font-size:4.500000px;text-anchor:middle;font-family:Arial,Helvetica;alignment-baseline:baseline;stroke.opacity:1;dominant-baseline:baseline"
fill="black"
>
 </text>



<path
d="M 204.993278038583 553.5604864427 Q 204.993278038583 553.5604864427 204.993278038583 553.5604864427 L 222.493278038583 553.5604864427 Q 222.493278038583 553.5604864427 222.493278038583 553.5604864427 L 222.493278038583 593.5604864427 Q 222.493278038583 593.5604864427 222.493278038583 593.5604864427 L 204.993278038583 593.5604864427 Q 204.993278038583 593.5604864427 204.993278038583 593.5604864427 Z"
id="Rna_2044100e8981d15a59776dc194f74c38"
style="fill:#E64A4A;fill-opacity:1.000000;stroke-width:0.5;stroke:black;stroke-opacity:0.000000"
transform = "rotate(0.000000 0.000000 0.000000)"
/>


<text
x="213.743278"
y="575.060486"
id="Rna_2044100e8981d15a59776dc194f74c38"
style="font-size:4.500000px;text-anchor:middle;font-family:Arial,Helvetica;alignment-baseline:baseline;stroke.opacity:1;dominant-baseline:baseline"
fill="black"
>
 </text>



<path
d="M 222.493278038583 553.5604864427 Q 222.493278038583 553.5604864427 222.493278038583 553.5604864427 L 239.993278038583 553.5604864427 Q 239.993278038583 553.5604864427 239.993278038583 553.5604864427 L 239.993278038583 589.5604864427 Q 239.993278038583 593.5604864427 235.993278038583 593.5604864427 L 222.493278038583 593.5604864427 Q 222.493278038583 593.5604864427 222.493278038583 593.5604864427 Z"
id="Rna_2044100e8981d15a59776dc194f74c38"
style="fill:#00FF00;fill-opacity:1.000000;stroke-width:0.5;stroke:black;stroke-opacity:0.000000"
transform = "rotate(0.000000 0.000000 0.000000)"
/>


<text
x="231.243278"
y="575.060486"
id="Rna_2044100e8981d15a59776dc194f74c38"
style="font-size:4.500000px;text-anchor:middle;font-family:Arial,Helvetica;alignment-baseline:baseline;stroke.opacity:1;dominant-baseline:baseline"
fill="black"
>
 </text>


<path
d="M 169.993278038583 553.5604864427 Q 169.993278038583 553.5604864427 169.993278038583 553.5604864427 L 239.993278038583 553.5604864427 Q 239.993278038583 553.5604864427 239.993278038583 553.5604864427 L 239.993278038583 586.5604864427 Q 239.993278038583 593.5604864427 232.993278038583 593.5604864427 L 176.993278038583 593.5604864427 Q 169.993278038583 593.5604864427 169.993278038583 586.5604864427 Z"
id="Rna_2044100e8981d15a59776dc194f74c38"
style="fill:#00FF00;fill-opacity:0.000000;stroke-width:1;stroke:black;stroke-opacity:1.000000"
transform = "rotate(0.000000 0.000000 0.000000)"
/>


<text
x="204.993278"
y="579.560486"
id="Rna_2044100e8981d15a59776dc194f74c38"
style="font-size:18.000000px;text-anchor:middle;font-family:Arial,Helvetica;alignment-baseline:baseline;stroke.opacity:1;dominant-baseline:baseline"
fill="black"
>
Smad6/7</text>


<rect
width="35.000000"
height="17.500000"
rx="0.000000"
ry="0.000000"
x="169.993278"
y="544.810486"
id="Rna_2044100e8981d15a59776dc194f74c38.info.1"
style="fill:white;fill-opacity:1.000000;stroke:black;stroke-width:1.000000;stroke-opacity:1.000000" />


<text
x="187.493278"
y="556.560486"
id="Rna_2044100e8981d15a59776dc194f74c38.info.1"
style="font-size:9.000000px;text-anchor:middle;font-family:Arial,Helvetica;alignment-baseline:baseline;stroke.opacity:1;dominant-baseline:baseline"
fill="black"
>
mt:RNA</text>


<rect
width="26.666667"
height="26.666667"
rx="0.000000"
ry="0.000000"
x="323.704255"
y="507.940510"
id="Transport_87d2bcd7783ceaa47f4411f22e15d13e_LEFT_TO_RIGHT"
style="fill:white;fill-opacity:0.600000;stroke:black;stroke-width:1.000000;stroke-opacity:1.000000" />



<rect
width="26.666667"
height="26.666667"
rx="0.000000"
ry="0.000000"
x="180.580072"
y="636.942705"
id="TemplateReaction_b3ecacfd9391e84df8059b0717bc5798"
style="fill:white;fill-opacity:0.600000;stroke:black;stroke-width:1.000000;stroke-opacity:1.000000" />





<rect
width="17.500000"
height="40.000000"
rx="1.750000"
ry="1.750000"
x="116.500000"
y="232.500000"
id="Protein_3e2e76ed220592be1ee7e172c5965af7_Complex_81284e947e37bb340a6710c0476862b6"
style="fill:#FF0000;fill-opacity:1.000000;stroke:black;stroke-width:0.500000;stroke-opacity:0.000000" />


<text
x="125.250000"
y="254.000000"
id="Protein_3e2e76ed220592be1ee7e172c5965af7_Complex_81284e947e37bb340a6710c0476862b6"
style="font-size:4.500000px;text-anchor:middle;font-family:Arial,Helvetica;alignment-baseline:baseline;stroke.opacity:1;dominant-baseline:baseline"
fill="black"
>
 </text>



<rect
width="17.500000"
height="40.000000"
rx="1.750000"
ry="1.750000"
x="134.000000"
y="232.500000"
id="Protein_3e2e76ed220592be1ee7e172c5965af7_Complex_81284e947e37bb340a6710c0476862b6"
style="fill:#D87272;fill-opacity:1.000000;stroke:black;stroke-width:0.500000;stroke-opacity:0.000000" />


<text
x="142.750000"
y="254.000000"
id="Protein_3e2e76ed220592be1ee7e172c5965af7_Complex_81284e947e37bb340a6710c0476862b6"
style="font-size:4.500000px;text-anchor:middle;font-family:Arial,Helvetica;alignment-baseline:baseline;stroke.opacity:1;dominant-baseline:baseline"
fill="black"
>
 </text>



<rect
width="17.500000"
height="40.000000"
rx="1.750000"
ry="1.750000"
x="151.500000"
y="232.500000"
id="Protein_3e2e76ed220592be1ee7e172c5965af7_Complex_81284e947e37bb340a6710c0476862b6"
style="fill:#FF0000;fill-opacity:1.000000;stroke:black;stroke-width:0.500000;stroke-opacity:0.000000" />


<text
x="160.250000"
y="254.000000"
id="Protein_3e2e76ed220592be1ee7e172c5965af7_Complex_81284e947e37bb340a6710c0476862b6"
style="font-size:4.500000px;text-anchor:middle;font-family:Arial,Helvetica;alignment-baseline:baseline;stroke.opacity:1;dominant-baseline:baseline"
fill="black"
>
 </text>



<rect
width="17.500000"
height="40.000000"
rx="1.750000"
ry="1.750000"
x="169.000000"
y="232.500000"
id="Protein_3e2e76ed220592be1ee7e172c5965af7_Complex_81284e947e37bb340a6710c0476862b6"
style="fill:#E25454;fill-opacity:1.000000;stroke:black;stroke-width:0.500000;stroke-opacity:0.000000" />


<text
x="177.750000"
y="254.000000"
id="Protein_3e2e76ed220592be1ee7e172c5965af7_Complex_81284e947e37bb340a6710c0476862b6"
style="font-size:4.500000px;text-anchor:middle;font-family:Arial,Helvetica;alignment-baseline:baseline;stroke.opacity:1;dominant-baseline:baseline"
fill="black"
>
 </text>


<rect
width="70.000000"
height="40.000000"
rx="4.000000"
ry="4.000000"
x="116.500000"
y="232.500000"
id="Protein_3e2e76ed220592be1ee7e172c5965af7_Complex_81284e947e37bb340a6710c0476862b6"
style="fill:#E25454;fill-opacity:0.000000;stroke:black;stroke-width:1.000000;stroke-opacity:1.000000" />


<text
x="151.500000"
y="258.500000"
id="Protein_3e2e76ed220592be1ee7e172c5965af7_Complex_81284e947e37bb340a6710c0476862b6"
style="font-size:18.000000px;text-anchor:middle;font-family:Arial,Helvetica;alignment-baseline:baseline;stroke.opacity:1;dominant-baseline:baseline"
fill="black"
>
R-smad_pS</text>


<ellipse
rx="17.500000"
ry="8.750000"
cx="134.000000"
cy="232.500000"
id="Protein_3e2e76ed220592be1ee7e172c5965af7_Complex_81284e947e37bb340a6710c0476862b6.info.1"
style="fill:white;fill-opacity:1.000000;stroke:black;stroke-width:1.000000;stroke-opacity:1.000000" />



<text
x="134.000000"
y="231.000000"
id="Protein_3e2e76ed220592be1ee7e172c5965af7_Complex_81284e947e37bb340a6710c0476862b6.info.1"
style="font-size:9.000000px;text-anchor:middle;font-family:Arial,Helvetica;alignment-baseline:baseline;stroke.opacity:1;dominant-baseline:baseline"
fill="black"
>
phospho-</text>


<text
x="134.000000"
y="240.000000"
id="Protein_3e2e76ed220592be1ee7e172c5965af7_Complex_81284e947e37bb340a6710c0476862b6.info.1"
style="font-size:9.000000px;text-anchor:middle;font-family:Arial,Helvetica;alignment-baseline:baseline;stroke.opacity:1;dominant-baseline:baseline"
fill="black"
>
rylated</text>




<rect
width="17.500000"
height="40.000000"
rx="1.750000"
ry="1.750000"
x="116.500000"
y="281.250000"
id="Protein_a4dfbdfb4d47b4c2f49d94f09f3dd5a5_Complex_81284e947e37bb340a6710c0476862b6"
style="fill:#A9C5A9;fill-opacity:1.000000;stroke:black;stroke-width:0.500000;stroke-opacity:0.000000" />


<text
x="125.250000"
y="302.750000"
id="Protein_a4dfbdfb4d47b4c2f49d94f09f3dd5a5_Complex_81284e947e37bb340a6710c0476862b6"
style="font-size:4.500000px;text-anchor:middle;font-family:Arial,Helvetica;alignment-baseline:baseline;stroke.opacity:1;dominant-baseline:baseline"
fill="black"
>
 </text>



<rect
width="17.500000"
height="40.000000"
rx="1.750000"
ry="1.750000"
x="134.000000"
y="281.250000"
id="Protein_a4dfbdfb4d47b4c2f49d94f09f3dd5a5_Complex_81284e947e37bb340a6710c0476862b6"
style="fill:#FF0000;fill-opacity:1.000000;stroke:black;stroke-width:0.500000;stroke-opacity:0.000000" />


<text
x="142.750000"
y="302.750000"
id="Protein_a4dfbdfb4d47b4c2f49d94f09f3dd5a5_Complex_81284e947e37bb340a6710c0476862b6"
style="font-size:4.500000px;text-anchor:middle;font-family:Arial,Helvetica;alignment-baseline:baseline;stroke.opacity:1;dominant-baseline:baseline"
fill="black"
>
 </text>



<rect
width="17.500000"
height="40.000000"
rx="1.750000"
ry="1.750000"
x="151.500000"
y="281.250000"
id="Protein_a4dfbdfb4d47b4c2f49d94f09f3dd5a5_Complex_81284e947e37bb340a6710c0476862b6"
style="fill:#E64A4A;fill-opacity:1.000000;stroke:black;stroke-width:0.500000;stroke-opacity:0.000000" />


<text
x="160.250000"
y="302.750000"
id="Protein_a4dfbdfb4d47b4c2f49d94f09f3dd5a5_Complex_81284e947e37bb340a6710c0476862b6"
style="font-size:4.500000px;text-anchor:middle;font-family:Arial,Helvetica;alignment-baseline:baseline;stroke.opacity:1;dominant-baseline:baseline"
fill="black"
>
 </text>



<rect
width="17.500000"
height="40.000000"
rx="1.750000"
ry="1.750000"
x="169.000000"
y="281.250000"
id="Protein_a4dfbdfb4d47b4c2f49d94f09f3dd5a5_Complex_81284e947e37bb340a6710c0476862b6"
style="fill:#00FF00;fill-opacity:1.000000;stroke:black;stroke-width:0.500000;stroke-opacity:0.000000" />


<text
x="177.750000"
y="302.750000"
id="Protein_a4dfbdfb4d47b4c2f49d94f09f3dd5a5_Complex_81284e947e37bb340a6710c0476862b6"
style="font-size:4.500000px;text-anchor:middle;font-family:Arial,Helvetica;alignment-baseline:baseline;stroke.opacity:1;dominant-baseline:baseline"
fill="black"
>
 </text>


<rect
width="70.000000"
height="40.000000"
rx="4.000000"
ry="4.000000"
x="116.500000"
y="281.250000"
id="Protein_a4dfbdfb4d47b4c2f49d94f09f3dd5a5_Complex_81284e947e37bb340a6710c0476862b6"
style="fill:#00FF00;fill-opacity:0.000000;stroke:black;stroke-width:1.000000;stroke-opacity:1.000000" />


<text
x="151.500000"
y="307.250000"
id="Protein_a4dfbdfb4d47b4c2f49d94f09f3dd5a5_Complex_81284e947e37bb340a6710c0476862b6"
style="font-size:18.000000px;text-anchor:middle;font-family:Arial,Helvetica;alignment-baseline:baseline;stroke.opacity:1;dominant-baseline:baseline"
fill="black"
>
Smad4</text>




<path
d="M 283.988300850798 344.803615651047 Q 283.988300850798 344.803615651047 283.988300850798 344.803615651047 L 301.488300850798 344.803615651047 Q 301.488300850798 344.803615651047 301.488300850798 344.803615651047 L 301.488300850798 384.803615651047 Q 301.488300850798 384.803615651047 301.488300850798 384.803615651047 L 287.988300850798 384.803615651047 Q 283.988300850798 384.803615651047 283.988300850798 380.803615651047 Z"
id="Rna_06ed04cf5a143402c47f62ac1d5aa232"
style="fill:#D57B7B;fill-opacity:1.000000;stroke-width:0.5;stroke:black;stroke-opacity:0.000000"
transform = "rotate(0.000000 0.000000 0.000000)"
/>


<text
x="292.738301"
y="366.303616"
id="Rna_06ed04cf5a143402c47f62ac1d5aa232"
style="font-size:4.500000px;text-anchor:middle;font-family:Arial,Helvetica;alignment-baseline:baseline;stroke.opacity:1;dominant-baseline:baseline"
fill="black"
>
 </text>



<path
d="M 301.488300850798 344.803615651047 Q 301.488300850798 344.803615651047 301.488300850798 344.803615651047 L 318.988300850798 344.803615651047 Q 318.988300850798 344.803615651047 318.988300850798 344.803615651047 L 318.988300850798 384.803615651047 Q 318.988300850798 384.803615651047 318.988300850798 384.803615651047 L 301.488300850798 384.803615651047 Q 301.488300850798 384.803615651047 301.488300850798 384.803615651047 Z"
id="Rna_06ed04cf5a143402c47f62ac1d5aa232"
style="fill:#2FEF2F;fill-opacity:1.000000;stroke-width:0.5;stroke:black;stroke-opacity:0.000000"
transform = "rotate(0.000000 0.000000 0.000000)"
/>


<text
x="310.238301"
y="366.303616"
id="Rna_06ed04cf5a143402c47f62ac1d5aa232"
style="font-size:4.500000px;text-anchor:middle;font-family:Arial,Helvetica;alignment-baseline:baseline;stroke.opacity:1;dominant-baseline:baseline"
fill="black"
>
 </text>



<path
d="M 318.988300850798 344.803615651047 Q 318.988300850798 344.803615651047 318.988300850798 344.803615651047 L 336.488300850798 344.803615651047 Q 336.488300850798 344.803615651047 336.488300850798 344.803615651047 L 336.488300850798 384.803615651047 Q 336.488300850798 384.803615651047 336.488300850798 384.803615651047 L 318.988300850798 384.803615651047 Q 318.988300850798 384.803615651047 318.988300850798 384.803615651047 Z"
id="Rna_06ed04cf5a143402c47f62ac1d5aa232"
style="fill:#86D186;fill-opacity:1.000000;stroke-width:0.5;stroke:black;stroke-opacity:0.000000"
transform = "rotate(0.000000 0.000000 0.000000)"
/>


<text
x="327.738301"
y="366.303616"
id="Rna_06ed04cf5a143402c47f62ac1d5aa232"
style="font-size:4.500000px;text-anchor:middle;font-family:Arial,Helvetica;alignment-baseline:baseline;stroke.opacity:1;dominant-baseline:baseline"
fill="black"
>
 </text>



<path
d="M 336.488300850798 344.803615651047 Q 336.488300850798 344.803615651047 336.488300850798 344.803615651047 L 353.988300850798 344.803615651047 Q 353.988300850798 344.803615651047 353.988300850798 344.803615651047 L 353.988300850798 380.803615651047 Q 353.988300850798 384.803615651047 349.988300850798 384.803615651047 L 336.488300850798 384.803615651047 Q 336.488300850798 384.803615651047 336.488300850798 384.803615651047 Z"
id="Rna_06ed04cf5a143402c47f62ac1d5aa232"
style="fill:#FF0000;fill-opacity:1.000000;stroke-width:0.5;stroke:black;stroke-opacity:0.000000"
transform = "rotate(0.000000 0.000000 0.000000)"
/>


<text
x="345.238301"
y="366.303616"
id="Rna_06ed04cf5a143402c47f62ac1d5aa232"
style="font-size:4.500000px;text-anchor:middle;font-family:Arial,Helvetica;alignment-baseline:baseline;stroke.opacity:1;dominant-baseline:baseline"
fill="black"
>
 </text>


<path
d="M 283.988300850798 344.803615651047 Q 283.988300850798 344.803615651047 283.988300850798 344.803615651047 L 353.988300850798 344.803615651047 Q 353.988300850798 344.803615651047 353.988300850798 344.803615651047 L 353.988300850798 377.803615651047 Q 353.988300850798 384.803615651047 346.988300850798 384.803615651047 L 290.988300850798 384.803615651047 Q 283.988300850798 384.803615651047 283.988300850798 377.803615651047 Z"
id="Rna_06ed04cf5a143402c47f62ac1d5aa232"
style="fill:#FF0000;fill-opacity:0.000000;stroke-width:1;stroke:black;stroke-opacity:1.000000"
transform = "rotate(0.000000 0.000000 0.000000)"
/>


<text
x="318.988301"
y="370.803616"
id="Rna_06ed04cf5a143402c47f62ac1d5aa232"
style="font-size:18.000000px;text-anchor:middle;font-family:Arial,Helvetica;alignment-baseline:baseline;stroke.opacity:1;dominant-baseline:baseline"
fill="black"
>
Smad7</text>


<rect
width="35.000000"
height="17.500000"
rx="0.000000"
ry="0.000000"
x="283.988301"
y="336.053616"
id="Rna_06ed04cf5a143402c47f62ac1d5aa232.info.1"
style="fill:white;fill-opacity:1.000000;stroke:black;stroke-width:1.000000;stroke-opacity:1.000000" />


<text
x="301.488301"
y="347.803616"
id="Rna_06ed04cf5a143402c47f62ac1d5aa232.info.1"
style="font-size:9.000000px;text-anchor:middle;font-family:Arial,Helvetica;alignment-baseline:baseline;stroke.opacity:1;dominant-baseline:baseline"
fill="black"
>
mt:RNA</text>




<rect
width="17.500000"
height="40.000000"
rx="1.750000"
ry="1.750000"
x="283.988301"
y="671.077405"
id="Protein_87fa5964ee3230d0c54ecaebeac0abcf"
style="fill:#D47D7D;fill-opacity:1.000000;stroke:black;stroke-width:0.500000;stroke-opacity:0.000000" />


<text
x="292.738301"
y="692.577405"
id="Protein_87fa5964ee3230d0c54ecaebeac0abcf"
style="font-size:4.500000px;text-anchor:middle;font-family:Arial,Helvetica;alignment-baseline:baseline;stroke.opacity:1;dominant-baseline:baseline"
fill="black"
>
 </text>



<rect
width="17.500000"
height="40.000000"
rx="1.750000"
ry="1.750000"
x="301.488301"
y="671.077405"
id="Protein_87fa5964ee3230d0c54ecaebeac0abcf"
style="fill:#FD0505;fill-opacity:1.000000;stroke:black;stroke-width:0.500000;stroke-opacity:0.000000" />


<text
x="310.238301"
y="692.577405"
id="Protein_87fa5964ee3230d0c54ecaebeac0abcf"
style="font-size:4.500000px;text-anchor:middle;font-family:Arial,Helvetica;alignment-baseline:baseline;stroke.opacity:1;dominant-baseline:baseline"
fill="black"
>
 </text>



<rect
width="17.500000"
height="40.000000"
rx="1.750000"
ry="1.750000"
x="318.988301"
y="671.077405"
id="Protein_87fa5964ee3230d0c54ecaebeac0abcf"
style="fill:#FA1010;fill-opacity:1.000000;stroke:black;stroke-width:0.500000;stroke-opacity:0.000000" />


<text
x="327.738301"
y="692.577405"
id="Protein_87fa5964ee3230d0c54ecaebeac0abcf"
style="font-size:4.500000px;text-anchor:middle;font-family:Arial,Helvetica;alignment-baseline:baseline;stroke.opacity:1;dominant-baseline:baseline"
fill="black"
>
 </text>



<rect
width="17.500000"
height="40.000000"
rx="1.750000"
ry="1.750000"
x="336.488301"
y="671.077405"
id="Protein_87fa5964ee3230d0c54ecaebeac0abcf"
style="fill:#56E256;fill-opacity:1.000000;stroke:black;stroke-width:0.500000;stroke-opacity:0.000000" />


<text
x="345.238301"
y="692.577405"
id="Protein_87fa5964ee3230d0c54ecaebeac0abcf"
style="font-size:4.500000px;text-anchor:middle;font-family:Arial,Helvetica;alignment-baseline:baseline;stroke.opacity:1;dominant-baseline:baseline"
fill="black"
>
 </text>


<rect
width="70.000000"
height="40.000000"
rx="4.000000"
ry="4.000000"
x="283.988301"
y="671.077405"
id="Protein_87fa5964ee3230d0c54ecaebeac0abcf"
style="fill:#56E256;fill-opacity:0.000000;stroke:black;stroke-width:1.000000;stroke-opacity:1.000000" />


<text
x="318.988301"
y="697.077405"
id="Protein_87fa5964ee3230d0c54ecaebeac0abcf"
style="font-size:18.000000px;text-anchor:middle;font-family:Arial,Helvetica;alignment-baseline:baseline;stroke.opacity:1;dominant-baseline:baseline"
fill="black"
>
Smad7</text>




<path d="M240.000000 559.000000 C 267.000000 548.000000, 303.000000 534.000000,323.000000 526.000000" stroke="black"  fill="transparent"/>

<line
x1="303" y1="534" x2="323" y2="526"
id="0"
style="stroke:black;stroke-width:1.000000;stroke-opacity:0" />


<line
x1="267" y1="548" x2="240" y2="559"
id="Transport_87d2bcd7783ceaa47f4411f22e15d13e_LEFT_TO_RIGHT-output--to--Rna_2044100e8981d15a59776dc194f74c38"
style="stroke:black;stroke-width:1.000000;stroke-opacity:0" />


<polygon
points = "240,559 231.2,554.6 231.2,563.4"
id="line"
style="fill:black; stroke:#000000; stroke-width:1"
transform = "rotate(157.833654 240.000000 559.000000)"
/>


<path d="M202.000000 593.000000 C 200.000000 607.000000, 197.000000 624.000000,195.000000 636.000000" stroke="black"  fill="transparent"/>

<line
x1="197" y1="624" x2="195" y2="636"
id="0"
style="stroke:black;stroke-width:1.000000;stroke-opacity:0" />


<line
x1="200" y1="607" x2="202" y2="593"
id="TemplateReaction_b3ecacfd9391e84df8059b0717bc5798-input--to--Rna_2044100e8981d15a59776dc194f74c38"
style="stroke:black;stroke-width:1.000000;stroke-opacity:0" />


<polygon
points = "202,593 188.8,588.6 193.2,593 188.8,597.4"
id="line"
style="fill:black; stroke:#000000; stroke-width:1"
transform = "rotate(-81.869898 202.000000 593.000000)"
/>


<path d="M335.000000 507.000000 C 332.000000 480.000000, 325.000000 417.000000,321.000000 385.000000" stroke="black"  fill="transparent"/>

<line
x1="325" y1="417" x2="321" y2="385"
id="0"
style="stroke:black;stroke-width:1.000000;stroke-opacity:0" />


<line
x1="332" y1="480" x2="335" y2="507"
id="Rna_06ed04cf5a143402c47f62ac1d5aa232--to--Transport_87d2bcd7783ceaa47f4411f22e15d13e_LEFT_TO_RIGHT-input"
style="stroke:black;stroke-width:1.000000;stroke-opacity:0" />


<path d="M207.000000 654.000000 C 225.000000 660.000000, 258.000000 671.000000,283.000000 679.000000" stroke="black"  fill="transparent"/>

<line
x1="225" y1="660" x2="207" y2="654"
id="0"
style="stroke:black;stroke-width:1.000000;stroke-opacity:0" />


<line
x1="258" y1="671" x2="283" y2="679"
id="TemplateReaction_b3ecacfd9391e84df8059b0717bc5798-output--to--Protein_87fa5964ee3230d0c54ecaebeac0abcf"
style="stroke:black;stroke-width:1.000000;stroke-opacity:0" />


<polygon
points = "283,679 274.2,674.6 274.2,683.4"
id="line"
style="fill:black; stroke:#000000; stroke-width:1"
transform = "rotate(17.744672 283.000000 679.000000)"
/>





<rect
width="2.485149"
height="21.428571"
rx="0.000000"
ry="0.000000"
x="363.503152"
y="85.500000"
id="col.pan"
style="fill:#FF0000;fill-opacity:1.000000;stroke:black;stroke-width:0.000000;stroke-opacity:0.000000" />


<rect
width="2.485149"
height="21.428571"
rx="0.000000"
ry="0.000000"
x="362.018004"
y="85.500000"
id="col.pan"
style="fill:#FE0404;fill-opacity:1.000000;stroke:black;stroke-width:0.000000;stroke-opacity:0.000000" />


<rect
width="2.485149"
height="21.428571"
rx="0.000000"
ry="0.000000"
x="360.532855"
y="85.500000"
id="col.pan"
style="fill:#FC0808;fill-opacity:1.000000;stroke:black;stroke-width:0.000000;stroke-opacity:0.000000" />


<rect
width="2.485149"
height="21.428571"
rx="0.000000"
ry="0.000000"
x="359.047707"
y="85.500000"
id="col.pan"
style="fill:#FB0B0B;fill-opacity:1.000000;stroke:black;stroke-width:0.000000;stroke-opacity:0.000000" />


<rect
width="2.485149"
height="21.428571"
rx="0.000000"
ry="0.000000"
x="357.562558"
y="85.500000"
id="col.pan"
style="fill:#FA0F0F;fill-opacity:1.000000;stroke:black;stroke-width:0.000000;stroke-opacity:0.000000" />


<rect
width="2.485149"
height="21.428571"
rx="0.000000"
ry="0.000000"
x="356.077410"
y="85.500000"
id="col.pan"
style="fill:#F91313;fill-opacity:1.000000;stroke:black;stroke-width:0.000000;stroke-opacity:0.000000" />


<rect
width="2.485149"
height="21.428571"
rx="0.000000"
ry="0.000000"
x="354.592261"
y="85.500000"
id="col.pan"
style="fill:#F71717;fill-opacity:1.000000;stroke:black;stroke-width:0.000000;stroke-opacity:0.000000" />


<rect
width="2.485149"
height="21.428571"
rx="0.000000"
ry="0.000000"
x="353.107113"
y="85.500000"
id="col.pan"
style="fill:#F61B1B;fill-opacity:1.000000;stroke:black;stroke-width:0.000000;stroke-opacity:0.000000" />


<rect
width="2.485149"
height="21.428571"
rx="0.000000"
ry="0.000000"
x="351.621964"
y="85.500000"
id="col.pan"
style="fill:#F51E1E;fill-opacity:1.000000;stroke:black;stroke-width:0.000000;stroke-opacity:0.000000" />


<rect
width="2.485149"
height="21.428571"
rx="0.000000"
ry="0.000000"
x="350.136816"
y="85.500000"
id="col.pan"
style="fill:#F32222;fill-opacity:1.000000;stroke:black;stroke-width:0.000000;stroke-opacity:0.000000" />


<rect
width="2.485149"
height="21.428571"
rx="0.000000"
ry="0.000000"
x="348.651667"
y="85.500000"
id="col.pan"
style="fill:#F22626;fill-opacity:1.000000;stroke:black;stroke-width:0.000000;stroke-opacity:0.000000" />


<rect
width="2.485149"
height="21.428571"
rx="0.000000"
ry="0.000000"
x="347.166519"
y="85.500000"
id="col.pan"
style="fill:#F12A2A;fill-opacity:1.000000;stroke:black;stroke-width:0.000000;stroke-opacity:0.000000" />


<rect
width="2.485149"
height="21.428571"
rx="0.000000"
ry="0.000000"
x="345.681370"
y="85.500000"
id="col.pan"
style="fill:#EF2E2E;fill-opacity:1.000000;stroke:black;stroke-width:0.000000;stroke-opacity:0.000000" />


<rect
width="2.485149"
height="21.428571"
rx="0.000000"
ry="0.000000"
x="344.196222"
y="85.500000"
id="col.pan"
style="fill:#EE3131;fill-opacity:1.000000;stroke:black;stroke-width:0.000000;stroke-opacity:0.000000" />


<rect
width="2.485149"
height="21.428571"
rx="0.000000"
ry="0.000000"
x="342.711073"
y="85.500000"
id="col.pan"
style="fill:#ED3535;fill-opacity:1.000000;stroke:black;stroke-width:0.000000;stroke-opacity:0.000000" />


<rect
width="2.485149"
height="21.428571"
rx="0.000000"
ry="0.000000"
x="341.225925"
y="85.500000"
id="col.pan"
style="fill:#EC3939;fill-opacity:1.000000;stroke:black;stroke-width:0.000000;stroke-opacity:0.000000" />


<rect
width="2.485149"
height="21.428571"
rx="0.000000"
ry="0.000000"
x="339.740776"
y="85.500000"
id="col.pan"
style="fill:#EA3D3D;fill-opacity:1.000000;stroke:black;stroke-width:0.000000;stroke-opacity:0.000000" />


<rect
width="2.485149"
height="21.428571"
rx="0.000000"
ry="0.000000"
x="338.255628"
y="85.500000"
id="col.pan"
style="fill:#E94141;fill-opacity:1.000000;stroke:black;stroke-width:0.000000;stroke-opacity:0.000000" />


<rect
width="2.485149"
height="21.428571"
rx="0.000000"
ry="0.000000"
x="336.770479"
y="85.500000"
id="col.pan"
style="fill:#E84444;fill-opacity:1.000000;stroke:black;stroke-width:0.000000;stroke-opacity:0.000000" />


<rect
width="2.485149"
height="21.428571"
rx="0.000000"
ry="0.000000"
x="335.285331"
y="85.500000"
id="col.pan"
style="fill:#E64848;fill-opacity:1.000000;stroke:black;stroke-width:0.000000;stroke-opacity:0.000000" />


<rect
width="2.485149"
height="21.428571"
rx="0.000000"
ry="0.000000"
x="333.800182"
y="85.500000"
id="col.pan"
style="fill:#E54C4C;fill-opacity:1.000000;stroke:black;stroke-width:0.000000;stroke-opacity:0.000000" />


<rect
width="2.485149"
height="21.428571"
rx="0.000000"
ry="0.000000"
x="332.315034"
y="85.500000"
id="col.pan"
style="fill:#E45050;fill-opacity:1.000000;stroke:black;stroke-width:0.000000;stroke-opacity:0.000000" />


<rect
width="2.485149"
height="21.428571"
rx="0.000000"
ry="0.000000"
x="330.829885"
y="85.500000"
id="col.pan"
style="fill:#E25454;fill-opacity:1.000000;stroke:black;stroke-width:0.000000;stroke-opacity:0.000000" />


<rect
width="2.485149"
height="21.428571"
rx="0.000000"
ry="0.000000"
x="329.344736"
y="85.500000"
id="col.pan"
style="fill:#E15757;fill-opacity:1.000000;stroke:black;stroke-width:0.000000;stroke-opacity:0.000000" />


<rect
width="2.485149"
height="21.428571"
rx="0.000000"
ry="0.000000"
x="327.859588"
y="85.500000"
id="col.pan"
style="fill:#E05B5B;fill-opacity:1.000000;stroke:black;stroke-width:0.000000;stroke-opacity:0.000000" />


<rect
width="2.485149"
height="21.428571"
rx="0.000000"
ry="0.000000"
x="326.374439"
y="85.500000"
id="col.pan"
style="fill:#DF5F5F;fill-opacity:1.000000;stroke:black;stroke-width:0.000000;stroke-opacity:0.000000" />


<rect
width="2.485149"
height="21.428571"
rx="0.000000"
ry="0.000000"
x="324.889291"
y="85.500000"
id="col.pan"
style="fill:#DD6363;fill-opacity:1.000000;stroke:black;stroke-width:0.000000;stroke-opacity:0.000000" />


<rect
width="2.485149"
height="21.428571"
rx="0.000000"
ry="0.000000"
x="323.404142"
y="85.500000"
id="col.pan"
style="fill:#DC6767;fill-opacity:1.000000;stroke:black;stroke-width:0.000000;stroke-opacity:0.000000" />


<rect
width="2.485149"
height="21.428571"
rx="0.000000"
ry="0.000000"
x="321.918994"
y="85.500000"
id="col.pan"
style="fill:#DB6A6A;fill-opacity:1.000000;stroke:black;stroke-width:0.000000;stroke-opacity:0.000000" />


<rect
width="2.485149"
height="21.428571"
rx="0.000000"
ry="0.000000"
x="320.433845"
y="85.500000"
id="col.pan"
style="fill:#D96E6E;fill-opacity:1.000000;stroke:black;stroke-width:0.000000;stroke-opacity:0.000000" />


<rect
width="2.485149"
height="21.428571"
rx="0.000000"
ry="0.000000"
x="318.948697"
y="85.500000"
id="col.pan"
style="fill:#D87272;fill-opacity:1.000000;stroke:black;stroke-width:0.000000;stroke-opacity:0.000000" />


<rect
width="2.485149"
height="21.428571"
rx="0.000000"
ry="0.000000"
x="317.463548"
y="85.500000"
id="col.pan"
style="fill:#D77676;fill-opacity:1.000000;stroke:black;stroke-width:0.000000;stroke-opacity:0.000000" />


<rect
width="2.485149"
height="21.428571"
rx="0.000000"
ry="0.000000"
x="315.978400"
y="85.500000"
id="col.pan"
style="fill:#D57A7A;fill-opacity:1.000000;stroke:black;stroke-width:0.000000;stroke-opacity:0.000000" />


<rect
width="2.485149"
height="21.428571"
rx="0.000000"
ry="0.000000"
x="314.493251"
y="85.500000"
id="col.pan"
style="fill:#D47D7D;fill-opacity:1.000000;stroke:black;stroke-width:0.000000;stroke-opacity:0.000000" />


<rect
width="2.485149"
height="21.428571"
rx="0.000000"
ry="0.000000"
x="313.008103"
y="85.500000"
id="col.pan"
style="fill:#D38181;fill-opacity:1.000000;stroke:black;stroke-width:0.000000;stroke-opacity:0.000000" />


<rect
width="2.485149"
height="21.428571"
rx="0.000000"
ry="0.000000"
x="311.522954"
y="85.500000"
id="col.pan"
style="fill:#D28585;fill-opacity:1.000000;stroke:black;stroke-width:0.000000;stroke-opacity:0.000000" />


<rect
width="2.485149"
height="21.428571"
rx="0.000000"
ry="0.000000"
x="310.037806"
y="85.500000"
id="col.pan"
style="fill:#D08989;fill-opacity:1.000000;stroke:black;stroke-width:0.000000;stroke-opacity:0.000000" />


<rect
width="2.485149"
height="21.428571"
rx="0.000000"
ry="0.000000"
x="308.552657"
y="85.500000"
id="col.pan"
style="fill:#CF8D8D;fill-opacity:1.000000;stroke:black;stroke-width:0.000000;stroke-opacity:0.000000" />


<rect
width="2.485149"
height="21.428571"
rx="0.000000"
ry="0.000000"
x="307.067509"
y="85.500000"
id="col.pan"
style="fill:#CE9090;fill-opacity:1.000000;stroke:black;stroke-width:0.000000;stroke-opacity:0.000000" />


<rect
width="2.485149"
height="21.428571"
rx="0.000000"
ry="0.000000"
x="305.582360"
y="85.500000"
id="col.pan"
style="fill:#CC9494;fill-opacity:1.000000;stroke:black;stroke-width:0.000000;stroke-opacity:0.000000" />


<rect
width="2.485149"
height="21.428571"
rx="0.000000"
ry="0.000000"
x="304.097212"
y="85.500000"
id="col.pan"
style="fill:#CB9898;fill-opacity:1.000000;stroke:black;stroke-width:0.000000;stroke-opacity:0.000000" />


<rect
width="2.485149"
height="21.428571"
rx="0.000000"
ry="0.000000"
x="302.612063"
y="85.500000"
id="col.pan"
style="fill:#CA9C9C;fill-opacity:1.000000;stroke:black;stroke-width:0.000000;stroke-opacity:0.000000" />


<rect
width="2.485149"
height="21.428571"
rx="0.000000"
ry="0.000000"
x="301.126915"
y="85.500000"
id="col.pan"
style="fill:#C8A0A0;fill-opacity:1.000000;stroke:black;stroke-width:0.000000;stroke-opacity:0.000000" />


<rect
width="2.485149"
height="21.428571"
rx="0.000000"
ry="0.000000"
x="299.641766"
y="85.500000"
id="col.pan"
style="fill:#C7A3A3;fill-opacity:1.000000;stroke:black;stroke-width:0.000000;stroke-opacity:0.000000" />


<rect
width="2.485149"
height="21.428571"
rx="0.000000"
ry="0.000000"
x="298.156618"
y="85.500000"
id="col.pan"
style="fill:#C6A7A7;fill-opacity:1.000000;stroke:black;stroke-width:0.000000;stroke-opacity:0.000000" />


<rect
width="2.485149"
height="21.428571"
rx="0.000000"
ry="0.000000"
x="296.671469"
y="85.500000"
id="col.pan"
style="fill:#C5ABAB;fill-opacity:1.000000;stroke:black;stroke-width:0.000000;stroke-opacity:0.000000" />


<rect
width="2.485149"
height="21.428571"
rx="0.000000"
ry="0.000000"
x="295.186321"
y="85.500000"
id="col.pan"
style="fill:#C3AFAF;fill-opacity:1.000000;stroke:black;stroke-width:0.000000;stroke-opacity:0.000000" />


<rect
width="2.485149"
height="21.428571"
rx="0.000000"
ry="0.000000"
x="293.701172"
y="85.500000"
id="col.pan"
style="fill:#C2B3B3;fill-opacity:1.000000;stroke:black;stroke-width:0.000000;stroke-opacity:0.000000" />


<rect
width="2.485149"
height="21.428571"
rx="0.000000"
ry="0.000000"
x="292.216024"
y="85.500000"
id="col.pan"
style="fill:#C1B6B6;fill-opacity:1.000000;stroke:black;stroke-width:0.000000;stroke-opacity:0.000000" />


<rect
width="2.485149"
height="21.428571"
rx="0.000000"
ry="0.000000"
x="290.730875"
y="85.500000"
id="col.pan"
style="fill:#BFBABA;fill-opacity:1.000000;stroke:black;stroke-width:0.000000;stroke-opacity:0.000000" />


<rect
width="2.485149"
height="21.428571"
rx="0.000000"
ry="0.000000"
x="289.245727"
y="85.500000"
id="col.pan"
style="fill:#BEBEBE;fill-opacity:1.000000;stroke:black;stroke-width:0.000000;stroke-opacity:0.000000" />


<rect
width="2.485149"
height="21.428571"
rx="0.000000"
ry="0.000000"
x="287.760578"
y="85.500000"
id="col.pan"
style="fill:#BABFBA;fill-opacity:1.000000;stroke:black;stroke-width:0.000000;stroke-opacity:0.000000" />


<rect
width="2.485149"
height="21.428571"
rx="0.000000"
ry="0.000000"
x="286.275430"
y="85.500000"
id="col.pan"
style="fill:#B6C1B6;fill-opacity:1.000000;stroke:black;stroke-width:0.000000;stroke-opacity:0.000000" />


<rect
width="2.485149"
height="21.428571"
rx="0.000000"
ry="0.000000"
x="284.790281"
y="85.500000"
id="col.pan"
style="fill:#B3C2B3;fill-opacity:1.000000;stroke:black;stroke-width:0.000000;stroke-opacity:0.000000" />


<rect
width="2.485149"
height="21.428571"
rx="0.000000"
ry="0.000000"
x="283.305133"
y="85.500000"
id="col.pan"
style="fill:#AFC3AF;fill-opacity:1.000000;stroke:black;stroke-width:0.000000;stroke-opacity:0.000000" />


<rect
width="2.485149"
height="21.428571"
rx="0.000000"
ry="0.000000"
x="281.819984"
y="85.500000"
id="col.pan"
style="fill:#ABC5AB;fill-opacity:1.000000;stroke:black;stroke-width:0.000000;stroke-opacity:0.000000" />


<rect
width="2.485149"
height="21.428571"
rx="0.000000"
ry="0.000000"
x="280.334836"
y="85.500000"
id="col.pan"
style="fill:#A7C6A7;fill-opacity:1.000000;stroke:black;stroke-width:0.000000;stroke-opacity:0.000000" />


<rect
width="2.485149"
height="21.428571"
rx="0.000000"
ry="0.000000"
x="278.849687"
y="85.500000"
id="col.pan"
style="fill:#A3C7A3;fill-opacity:1.000000;stroke:black;stroke-width:0.000000;stroke-opacity:0.000000" />


<rect
width="2.485149"
height="21.428571"
rx="0.000000"
ry="0.000000"
x="277.364538"
y="85.500000"
id="col.pan"
style="fill:#A0C8A0;fill-opacity:1.000000;stroke:black;stroke-width:0.000000;stroke-opacity:0.000000" />


<rect
width="2.485149"
height="21.428571"
rx="0.000000"
ry="0.000000"
x="275.879390"
y="85.500000"
id="col.pan"
style="fill:#9CCA9C;fill-opacity:1.000000;stroke:black;stroke-width:0.000000;stroke-opacity:0.000000" />


<rect
width="2.485149"
height="21.428571"
rx="0.000000"
ry="0.000000"
x="274.394241"
y="85.500000"
id="col.pan"
style="fill:#98CB98;fill-opacity:1.000000;stroke:black;stroke-width:0.000000;stroke-opacity:0.000000" />


<rect
width="2.485149"
height="21.428571"
rx="0.000000"
ry="0.000000"
x="272.909093"
y="85.500000"
id="col.pan"
style="fill:#94CC94;fill-opacity:1.000000;stroke:black;stroke-width:0.000000;stroke-opacity:0.000000" />


<rect
width="2.485149"
height="21.428571"
rx="0.000000"
ry="0.000000"
x="271.423944"
y="85.500000"
id="col.pan"
style="fill:#90CE90;fill-opacity:1.000000;stroke:black;stroke-width:0.000000;stroke-opacity:0.000000" />


<rect
width="2.485149"
height="21.428571"
rx="0.000000"
ry="0.000000"
x="269.938796"
y="85.500000"
id="col.pan"
style="fill:#8DCF8D;fill-opacity:1.000000;stroke:black;stroke-width:0.000000;stroke-opacity:0.000000" />


<rect
width="2.485149"
height="21.428571"
rx="0.000000"
ry="0.000000"
x="268.453647"
y="85.500000"
id="col.pan"
style="fill:#89D089;fill-opacity:1.000000;stroke:black;stroke-width:0.000000;stroke-opacity:0.000000" />


<rect
width="2.485149"
height="21.428571"
rx="0.000000"
ry="0.000000"
x="266.968499"
y="85.500000"
id="col.pan"
style="fill:#85D285;fill-opacity:1.000000;stroke:black;stroke-width:0.000000;stroke-opacity:0.000000" />


<rect
width="2.485149"
height="21.428571"
rx="0.000000"
ry="0.000000"
x="265.483350"
y="85.500000"
id="col.pan"
style="fill:#81D381;fill-opacity:1.000000;stroke:black;stroke-width:0.000000;stroke-opacity:0.000000" />


<rect
width="2.485149"
height="21.428571"
rx="0.000000"
ry="0.000000"
x="263.998202"
y="85.500000"
id="col.pan"
style="fill:#7DD47D;fill-opacity:1.000000;stroke:black;stroke-width:0.000000;stroke-opacity:0.000000" />


<rect
width="2.485149"
height="21.428571"
rx="0.000000"
ry="0.000000"
x="262.513053"
y="85.500000"
id="col.pan"
style="fill:#7AD57A;fill-opacity:1.000000;stroke:black;stroke-width:0.000000;stroke-opacity:0.000000" />


<rect
width="2.485149"
height="21.428571"
rx="0.000000"
ry="0.000000"
x="261.027905"
y="85.500000"
id="col.pan"
style="fill:#76D776;fill-opacity:1.000000;stroke:black;stroke-width:0.000000;stroke-opacity:0.000000" />


<rect
width="2.485149"
height="21.428571"
rx="0.000000"
ry="0.000000"
x="259.542756"
y="85.500000"
id="col.pan"
style="fill:#72D872;fill-opacity:1.000000;stroke:black;stroke-width:0.000000;stroke-opacity:0.000000" />


<rect
width="2.485149"
height="21.428571"
rx="0.000000"
ry="0.000000"
x="258.057608"
y="85.500000"
id="col.pan"
style="fill:#6ED96E;fill-opacity:1.000000;stroke:black;stroke-width:0.000000;stroke-opacity:0.000000" />


<rect
width="2.485149"
height="21.428571"
rx="0.000000"
ry="0.000000"
x="256.572459"
y="85.500000"
id="col.pan"
style="fill:#6ADB6A;fill-opacity:1.000000;stroke:black;stroke-width:0.000000;stroke-opacity:0.000000" />


<rect
width="2.485149"
height="21.428571"
rx="0.000000"
ry="0.000000"
x="255.087311"
y="85.500000"
id="col.pan"
style="fill:#67DC67;fill-opacity:1.000000;stroke:black;stroke-width:0.000000;stroke-opacity:0.000000" />


<rect
width="2.485149"
height="21.428571"
rx="0.000000"
ry="0.000000"
x="253.602162"
y="85.500000"
id="col.pan"
style="fill:#63DD63;fill-opacity:1.000000;stroke:black;stroke-width:0.000000;stroke-opacity:0.000000" />


<rect
width="2.485149"
height="21.428571"
rx="0.000000"
ry="0.000000"
x="252.117014"
y="85.500000"
id="col.pan"
style="fill:#5FDF5F;fill-opacity:1.000000;stroke:black;stroke-width:0.000000;stroke-opacity:0.000000" />


<rect
width="2.485149"
height="21.428571"
rx="0.000000"
ry="0.000000"
x="250.631865"
y="85.500000"
id="col.pan"
style="fill:#5BE05B;fill-opacity:1.000000;stroke:black;stroke-width:0.000000;stroke-opacity:0.000000" />


<rect
width="2.485149"
height="21.428571"
rx="0.000000"
ry="0.000000"
x="249.146717"
y="85.500000"
id="col.pan"
style="fill:#57E157;fill-opacity:1.000000;stroke:black;stroke-width:0.000000;stroke-opacity:0.000000" />


<rect
width="2.485149"
height="21.428571"
rx="0.000000"
ry="0.000000"
x="247.661568"
y="85.500000"
id="col.pan"
style="fill:#54E254;fill-opacity:1.000000;stroke:black;stroke-width:0.000000;stroke-opacity:0.000000" />


<rect
width="2.485149"
height="21.428571"
rx="0.000000"
ry="0.000000"
x="246.176420"
y="85.500000"
id="col.pan"
style="fill:#50E450;fill-opacity:1.000000;stroke:black;stroke-width:0.000000;stroke-opacity:0.000000" />


<rect
width="2.485149"
height="21.428571"
rx="0.000000"
ry="0.000000"
x="244.691271"
y="85.500000"
id="col.pan"
style="fill:#4CE54C;fill-opacity:1.000000;stroke:black;stroke-width:0.000000;stroke-opacity:0.000000" />


<rect
width="2.485149"
height="21.428571"
rx="0.000000"
ry="0.000000"
x="243.206123"
y="85.500000"
id="col.pan"
style="fill:#48E648;fill-opacity:1.000000;stroke:black;stroke-width:0.000000;stroke-opacity:0.000000" />


<rect
width="2.485149"
height="21.428571"
rx="0.000000"
ry="0.000000"
x="241.720974"
y="85.500000"
id="col.pan"
style="fill:#44E844;fill-opacity:1.000000;stroke:black;stroke-width:0.000000;stroke-opacity:0.000000" />


<rect
width="2.485149"
height="21.428571"
rx="0.000000"
ry="0.000000"
x="240.235826"
y="85.500000"
id="col.pan"
style="fill:#41E941;fill-opacity:1.000000;stroke:black;stroke-width:0.000000;stroke-opacity:0.000000" />


<rect
width="2.485149"
height="21.428571"
rx="0.000000"
ry="0.000000"
x="238.750677"
y="85.500000"
id="col.pan"
style="fill:#3DEA3D;fill-opacity:1.000000;stroke:black;stroke-width:0.000000;stroke-opacity:0.000000" />


<rect
width="2.485149"
height="21.428571"
rx="0.000000"
ry="0.000000"
x="237.265529"
y="85.500000"
id="col.pan"
style="fill:#39EC39;fill-opacity:1.000000;stroke:black;stroke-width:0.000000;stroke-opacity:0.000000" />


<rect
width="2.485149"
height="21.428571"
rx="0.000000"
ry="0.000000"
x="235.780380"
y="85.500000"
id="col.pan"
style="fill:#35ED35;fill-opacity:1.000000;stroke:black;stroke-width:0.000000;stroke-opacity:0.000000" />


<rect
width="2.485149"
height="21.428571"
rx="0.000000"
ry="0.000000"
x="234.295232"
y="85.500000"
id="col.pan"
style="fill:#31EE31;fill-opacity:1.000000;stroke:black;stroke-width:0.000000;stroke-opacity:0.000000" />


<rect
width="2.485149"
height="21.428571"
rx="0.000000"
ry="0.000000"
x="232.810083"
y="85.500000"
id="col.pan"
style="fill:#2EEF2E;fill-opacity:1.000000;stroke:black;stroke-width:0.000000;stroke-opacity:0.000000" />


<rect
width="2.485149"
height="21.428571"
rx="0.000000"
ry="0.000000"
x="231.324935"
y="85.500000"
id="col.pan"
style="fill:#2AF12A;fill-opacity:1.000000;stroke:black;stroke-width:0.000000;stroke-opacity:0.000000" />


<rect
width="2.485149"
height="21.428571"
rx="0.000000"
ry="0.000000"
x="229.839786"
y="85.500000"
id="col.pan"
style="fill:#26F226;fill-opacity:1.000000;stroke:black;stroke-width:0.000000;stroke-opacity:0.000000" />


<rect
width="2.485149"
height="21.428571"
rx="0.000000"
ry="0.000000"
x="228.354637"
y="85.500000"
id="col.pan"
style="fill:#22F322;fill-opacity:1.000000;stroke:black;stroke-width:0.000000;stroke-opacity:0.000000" />


<rect
width="2.485149"
height="21.428571"
rx="0.000000"
ry="0.000000"
x="226.869489"
y="85.500000"
id="col.pan"
style="fill:#1EF51E;fill-opacity:1.000000;stroke:black;stroke-width:0.000000;stroke-opacity:0.000000" />


<rect
width="2.485149"
height="21.428571"
rx="0.000000"
ry="0.000000"
x="225.384340"
y="85.500000"
id="col.pan"
style="fill:#1BF61B;fill-opacity:1.000000;stroke:black;stroke-width:0.000000;stroke-opacity:0.000000" />


<rect
width="2.485149"
height="21.428571"
rx="0.000000"
ry="0.000000"
x="223.899192"
y="85.500000"
id="col.pan"
style="fill:#17F717;fill-opacity:1.000000;stroke:black;stroke-width:0.000000;stroke-opacity:0.000000" />


<rect
width="2.485149"
height="21.428571"
rx="0.000000"
ry="0.000000"
x="222.414043"
y="85.500000"
id="col.pan"
style="fill:#13F913;fill-opacity:1.000000;stroke:black;stroke-width:0.000000;stroke-opacity:0.000000" />


<rect
width="2.485149"
height="21.428571"
rx="0.000000"
ry="0.000000"
x="220.928895"
y="85.500000"
id="col.pan"
style="fill:#0FFA0F;fill-opacity:1.000000;stroke:black;stroke-width:0.000000;stroke-opacity:0.000000" />


<rect
width="2.485149"
height="21.428571"
rx="0.000000"
ry="0.000000"
x="219.443746"
y="85.500000"
id="col.pan"
style="fill:#0BFB0B;fill-opacity:1.000000;stroke:black;stroke-width:0.000000;stroke-opacity:0.000000" />


<rect
width="2.485149"
height="21.428571"
rx="0.000000"
ry="0.000000"
x="217.958598"
y="85.500000"
id="col.pan"
style="fill:#08FC08;fill-opacity:1.000000;stroke:black;stroke-width:0.000000;stroke-opacity:0.000000" />


<rect
width="2.485149"
height="21.428571"
rx="0.000000"
ry="0.000000"
x="216.473449"
y="85.500000"
id="col.pan"
style="fill:#04FE04;fill-opacity:1.000000;stroke:black;stroke-width:0.000000;stroke-opacity:0.000000" />


<rect
width="2.485149"
height="21.428571"
rx="0.000000"
ry="0.000000"
x="214.988301"
y="85.500000"
id="col.pan"
style="fill:#00FF00;fill-opacity:1.000000;stroke:black;stroke-width:0.000000;stroke-opacity:0.000000" />


<line
x1="214.988300850798" y1="85.5" x2="214.988300850798" y2="112.285714285714"
id="tick"
style="stroke:black;stroke-width:2.000000;stroke-opacity:1" />


<line
x1="229.988300850798" y1="85.5" x2="229.988300850798" y2="112.285714285714"
id="tick"
style="stroke:black;stroke-width:2.000000;stroke-opacity:1" />


<line
x1="244.988300850798" y1="85.5" x2="244.988300850798" y2="112.285714285714"
id="tick"
style="stroke:black;stroke-width:2.000000;stroke-opacity:1" />


<line
x1="259.988300850798" y1="85.5" x2="259.988300850798" y2="112.285714285714"
id="tick"
style="stroke:black;stroke-width:2.000000;stroke-opacity:1" />


<line
x1="274.988300850798" y1="85.5" x2="274.988300850798" y2="112.285714285714"
id="tick"
style="stroke:black;stroke-width:2.000000;stroke-opacity:1" />


<line
x1="289.988300850798" y1="85.5" x2="289.988300850798" y2="112.285714285714"
id="tick"
style="stroke:black;stroke-width:2.000000;stroke-opacity:1" />


<line
x1="304.988300850798" y1="85.5" x2="304.988300850798" y2="112.285714285714"
id="tick"
style="stroke:black;stroke-width:2.000000;stroke-opacity:1" />


<line
x1="319.988300850798" y1="85.5" x2="319.988300850798" y2="112.285714285714"
id="tick"
style="stroke:black;stroke-width:2.000000;stroke-opacity:1" />


<line
x1="334.988300850798" y1="85.5" x2="334.988300850798" y2="112.285714285714"
id="tick"
style="stroke:black;stroke-width:2.000000;stroke-opacity:1" />


<line
x1="349.988300850798" y1="85.5" x2="349.988300850798" y2="112.285714285714"
id="tick"
style="stroke:black;stroke-width:2.000000;stroke-opacity:1" />


<line
x1="364.988300850798" y1="85.5" x2="364.988300850798" y2="112.285714285714"
id="tick"
style="stroke:black;stroke-width:2.000000;stroke-opacity:1" />


<text
x="364.245727"
y="135.500000"
id="color.panel.max.value"
style="font-size:21.428571px;text-anchor:middle;font-family:Arial,Helvetica;alignment-baseline:baseline;stroke.opacity:1;dominant-baseline:baseline"
fill="black"
>
1</text>


<text
x="215.730875"
y="135.500000"
id="color.panel.low.value"
style="font-size:21.428571px;text-anchor:middle;font-family:Arial,Helvetica;alignment-baseline:baseline;stroke.opacity:1;dominant-baseline:baseline"
fill="black"
>
-1</text>


<text
x="291.473449"
y="135.500000"
id="color.panel.mid.value"
style="font-size:21.428571px;text-anchor:middle;font-family:Arial,Helvetica;alignment-baseline:baseline;stroke.opacity:1;dominant-baseline:baseline"
fill="black"
>
0</text>


</svg>
