<?xml version="1.0" encoding="UTF-8"?>
<svg width="528.500000" height="734.788383"
xmlns="http://www.w3.org/2000/svg" xmlns:svg="http://www.w3.org/2000/svg"
>
<metadata id="metadata7">image/svg+xml</metadata>

<rect
width="92.000000"
height="347.788383"
rx="11.000000"
ry="11.000000"
x="102.000000"
y="262.000000"
id="golgi_lumen"
style="fill:white;fill-opacity:0.900000;stroke:black;stroke-width:5.000000;stroke-opacity:1.000000" />



<text
x="148.000000"
y="230.000000"
id="golgi_lumen"
style="font-size:24.000000px;text-anchor:middle;font-family:Arial,Helvetica;alignment-baseline:baseline;stroke.opacity:1;dominant-baseline:baseline"
fill="black"
>
golgi l-</text>


<text
x="148.000000"
y="254.000000"
id="golgi_lumen"
style="font-size:24.000000px;text-anchor:middle;font-family:Arial,Helvetica;alignment-baseline:baseline;stroke.opacity:1;dominant-baseline:baseline"
fill="black"
>
umen</text>


<rect
width="92.000000"
height="62.000000"
rx="11.000000"
ry="11.000000"
x="106.500000"
y="404.894192"
id="cytosol"
style="fill:white;fill-opacity:0.900000;stroke:black;stroke-width:5.000000;stroke-opacity:1.000000" />


<text
x="152.500000"
y="396.894192"
id="cytosol"
style="font-size:24.000000px;text-anchor:middle;font-family:Arial,Helvetica;alignment-baseline:baseline;stroke.opacity:1;dominant-baseline:baseline"
fill="black"
>
cytosol</text>





<ellipse
rx="35.000000"
ry="20.000000"
cx="148.000000"
cy="578.788383"
id="SmallMolecule_32689662a9a393332125d26ae70a52ff"
style="fill:#4C4CE5;fill-opacity:0.600000;stroke:black;stroke-width:1.000000;stroke-opacity:0.000000" />


<path
d="M 130.5 596.108891324554 A 35 20 1 1 0 130.5 561.467875173176"
id="SmallMolecule_32689662a9a393332125d26ae70a52ff"
style="fill:#FFFF00;fill-opacity:0.600000;stroke-width:1;stroke:black;stroke-opacity:0.000000"
transform = "rotate(0.000000 0.000000 0.000000)"
/>


<path
d="M 148 598.788383248865 A 35 20 1 1 0 148 558.788383248865"
id="SmallMolecule_32689662a9a393332125d26ae70a52ff"
style="fill:white;fill-opacity:0.600000;stroke-width:1;stroke:black;stroke-opacity:0.000000"
transform = "rotate(0.000000 0.000000 0.000000)"
/>


<path
d="M 148 598.788383248865 A 35 20 1 1 0 148 558.788383248865"
id="SmallMolecule_32689662a9a393332125d26ae70a52ff"
style="fill:#CECE90;fill-opacity:0.600000;stroke-width:1;stroke:black;stroke-opacity:0.000000"
transform = "rotate(0.000000 0.000000 0.000000)"
/>


<path
d="M 165.5 596.108891324554 A 35 20 1 0 0 165.5 561.467875173176"
id="SmallMolecule_32689662a9a393332125d26ae70a52ff"
style="fill:white;fill-opacity:0.600000;stroke-width:1;stroke:black;stroke-opacity:0.000000"
transform = "rotate(0.000000 0.000000 0.000000)"
/>


<path
d="M 165.5 596.108891324554 A 35 20 1 0 0 165.5 561.467875173176"
id="SmallMolecule_32689662a9a393332125d26ae70a52ff"
style="fill:#0000FF;fill-opacity:0.600000;stroke-width:1;stroke:black;stroke-opacity:0.000000"
transform = "rotate(0.000000 0.000000 0.000000)"
/>


<path
d="M 183 578.788383248865 A 35 20 1 0 0 183 578.788383248865"
id="SmallMolecule_32689662a9a393332125d26ae70a52ff"
style="fill:white;fill-opacity:0.600000;stroke-width:1;stroke:black;stroke-opacity:0.000000"
transform = "rotate(0.000000 0.000000 0.000000)"
/>


<ellipse
rx="35.000000"
ry="20.000000"
cx="148.000000"
cy="578.788383"
id="SmallMolecule_32689662a9a393332125d26ae70a52ff"
style="fill:white;fill-opacity:0.000000;stroke:black;stroke-width:1.000000;stroke-opacity:1.000000" />


<text
x="148.000000"
y="584.788383"
id="SmallMolecule_32689662a9a393332125d26ae70a52ff"
style="font-size:18.000000px;text-anchor:middle;font-family:Arial,Helvetica;alignment-baseline:baseline;stroke.opacity:1;dominant-baseline:baseline"
fill="black"
>
CMP</text>


<rect
width="26.666667"
height="26.666667"
rx="0.000000"
ry="0.000000"
x="113.000000"
y="273.000000"
id="reactome_R-HSA-5651942_LEFT_TO_RIGHT"
style="fill:white;fill-opacity:0.600000;stroke:black;stroke-width:1.000000;stroke-opacity:1.000000" />




<ellipse
rx="35.000000"
ry="20.000000"
cx="152.500000"
cy="435.894192"
id="SmallMolecule_7e673ef24bc0f09188fa7429e06c2ff3"
style="fill:#0000FF;fill-opacity:0.600000;stroke:black;stroke-width:1.000000;stroke-opacity:0.000000" />


<path
d="M 135 453.214699700121 A 35 20 1 1 0 135 418.573683548743"
id="SmallMolecule_7e673ef24bc0f09188fa7429e06c2ff3"
style="fill:#AAAAC5;fill-opacity:0.600000;stroke-width:1;stroke:black;stroke-opacity:0.000000"
transform = "rotate(0.000000 0.000000 0.000000)"
/>


<path
d="M 152.5 455.894191624432 A 35 20 1 1 0 152.5 415.894191624432"
id="SmallMolecule_7e673ef24bc0f09188fa7429e06c2ff3"
style="fill:white;fill-opacity:0.600000;stroke-width:1;stroke:black;stroke-opacity:0.000000"
transform = "rotate(0.000000 0.000000 0.000000)"
/>


<path
d="M 152.5 455.894191624432 A 35 20 1 1 0 152.5 415.894191624432"
id="SmallMolecule_7e673ef24bc0f09188fa7429e06c2ff3"
style="fill:#0000FF;fill-opacity:0.600000;stroke-width:1;stroke:black;stroke-opacity:0.000000"
transform = "rotate(0.000000 0.000000 0.000000)"
/>


<path
d="M 170 453.214699700121 A 35 20 1 0 0 170 418.573683548743"
id="SmallMolecule_7e673ef24bc0f09188fa7429e06c2ff3"
style="fill:white;fill-opacity:0.600000;stroke-width:1;stroke:black;stroke-opacity:0.000000"
transform = "rotate(0.000000 0.000000 0.000000)"
/>


<path
d="M 170 453.214699700121 A 35 20 1 0 0 170 418.573683548743"
id="SmallMolecule_7e673ef24bc0f09188fa7429e06c2ff3"
style="fill:#5555E2;fill-opacity:0.600000;stroke-width:1;stroke:black;stroke-opacity:0.000000"
transform = "rotate(0.000000 0.000000 0.000000)"
/>


<path
d="M 187.5 435.894191624432 A 35 20 1 0 0 187.5 435.894191624432"
id="SmallMolecule_7e673ef24bc0f09188fa7429e06c2ff3"
style="fill:white;fill-opacity:0.600000;stroke-width:1;stroke:black;stroke-opacity:0.000000"
transform = "rotate(0.000000 0.000000 0.000000)"
/>


<ellipse
rx="35.000000"
ry="20.000000"
cx="152.500000"
cy="435.894192"
id="SmallMolecule_7e673ef24bc0f09188fa7429e06c2ff3"
style="fill:white;fill-opacity:0.000000;stroke:black;stroke-width:1.000000;stroke-opacity:1.000000" />


<text
x="152.500000"
y="441.894192"
id="SmallMolecule_7e673ef24bc0f09188fa7429e06c2ff3"
style="font-size:18.000000px;text-anchor:middle;font-family:Arial,Helvetica;alignment-baseline:baseline;stroke.opacity:1;dominant-baseline:baseline"
fill="black"
>
CMP-Neu5Ac</text>




<path d="M128.000000 299.000000 C 133.000000 326.000000, 143.000000 384.000000,148.000000 415.000000" stroke="black"  fill="transparent"/>

<line
x1="143" y1="384" x2="148" y2="415"
id="0"
style="stroke:black;stroke-width:1.000000;stroke-opacity:0" />


<line
x1="133" y1="326" x2="128" y2="299"
id="SmallMolecule_7e673ef24bc0f09188fa7429e06c2ff3--to--reactome_R-HSA-5651942_LEFT_TO_RIGHT-input"
style="stroke:black;stroke-width:1.000000;stroke-opacity:0" />


<path d="M140.000000 558.000000 C 132.000000 534.000000, 119.000000 494.000000,114.000000 459.000000" stroke="black"  fill="transparent"/>
<path d="M114.000000 459.000000 C 106.000000 400.000000, 117.000000 329.000000,123.000000 299.000000" stroke="black"  fill="transparent"/>

<line
x1="132" y1="534" x2="140" y2="558"
id="0"
style="stroke:black;stroke-width:1.000000;stroke-opacity:0" />


<line
x1="117" y1="329" x2="123" y2="299"
id="SmallMolecule_32689662a9a393332125d26ae70a52ff--to--reactome_R-HSA-5651942_LEFT_TO_RIGHT-input"
style="stroke:black;stroke-width:1.000000;stroke-opacity:0" />






<rect
width="2.485149"
height="21.428571"
rx="0.000000"
ry="0.000000"
x="197.014851"
y="125.500000"
id="col.pan"
style="fill:#FFFF00;fill-opacity:1.000000;stroke:black;stroke-width:0.000000;stroke-opacity:0.000000" />


<rect
width="2.485149"
height="21.428571"
rx="0.000000"
ry="0.000000"
x="195.529703"
y="125.500000"
id="col.pan"
style="fill:#FEFE04;fill-opacity:1.000000;stroke:black;stroke-width:0.000000;stroke-opacity:0.000000" />


<rect
width="2.485149"
height="21.428571"
rx="0.000000"
ry="0.000000"
x="194.044554"
y="125.500000"
id="col.pan"
style="fill:#FCFC08;fill-opacity:1.000000;stroke:black;stroke-width:0.000000;stroke-opacity:0.000000" />


<rect
width="2.485149"
height="21.428571"
rx="0.000000"
ry="0.000000"
x="192.559406"
y="125.500000"
id="col.pan"
style="fill:#FBFB0B;fill-opacity:1.000000;stroke:black;stroke-width:0.000000;stroke-opacity:0.000000" />


<rect
width="2.485149"
height="21.428571"
rx="0.000000"
ry="0.000000"
x="191.074257"
y="125.500000"
id="col.pan"
style="fill:#FAFA0F;fill-opacity:1.000000;stroke:black;stroke-width:0.000000;stroke-opacity:0.000000" />


<rect
width="2.485149"
height="21.428571"
rx="0.000000"
ry="0.000000"
x="189.589109"
y="125.500000"
id="col.pan"
style="fill:#F9F913;fill-opacity:1.000000;stroke:black;stroke-width:0.000000;stroke-opacity:0.000000" />


<rect
width="2.485149"
height="21.428571"
rx="0.000000"
ry="0.000000"
x="188.103960"
y="125.500000"
id="col.pan"
style="fill:#F7F717;fill-opacity:1.000000;stroke:black;stroke-width:0.000000;stroke-opacity:0.000000" />


<rect
width="2.485149"
height="21.428571"
rx="0.000000"
ry="0.000000"
x="186.618812"
y="125.500000"
id="col.pan"
style="fill:#F6F61B;fill-opacity:1.000000;stroke:black;stroke-width:0.000000;stroke-opacity:0.000000" />


<rect
width="2.485149"
height="21.428571"
rx="0.000000"
ry="0.000000"
x="185.133663"
y="125.500000"
id="col.pan"
style="fill:#F5F51E;fill-opacity:1.000000;stroke:black;stroke-width:0.000000;stroke-opacity:0.000000" />


<rect
width="2.485149"
height="21.428571"
rx="0.000000"
ry="0.000000"
x="183.648515"
y="125.500000"
id="col.pan"
style="fill:#F3F322;fill-opacity:1.000000;stroke:black;stroke-width:0.000000;stroke-opacity:0.000000" />


<rect
width="2.485149"
height="21.428571"
rx="0.000000"
ry="0.000000"
x="182.163366"
y="125.500000"
id="col.pan"
style="fill:#F2F226;fill-opacity:1.000000;stroke:black;stroke-width:0.000000;stroke-opacity:0.000000" />


<rect
width="2.485149"
height="21.428571"
rx="0.000000"
ry="0.000000"
x="180.678218"
y="125.500000"
id="col.pan"
style="fill:#F1F12A;fill-opacity:1.000000;stroke:black;stroke-width:0.000000;stroke-opacity:0.000000" />


<rect
width="2.485149"
height="21.428571"
rx="0.000000"
ry="0.000000"
x="179.193069"
y="125.500000"
id="col.pan"
style="fill:#EFEF2E;fill-opacity:1.000000;stroke:black;stroke-width:0.000000;stroke-opacity:0.000000" />


<rect
width="2.485149"
height="21.428571"
rx="0.000000"
ry="0.000000"
x="177.707921"
y="125.500000"
id="col.pan"
style="fill:#EEEE31;fill-opacity:1.000000;stroke:black;stroke-width:0.000000;stroke-opacity:0.000000" />


<rect
width="2.485149"
height="21.428571"
rx="0.000000"
ry="0.000000"
x="176.222772"
y="125.500000"
id="col.pan"
style="fill:#EDED35;fill-opacity:1.000000;stroke:black;stroke-width:0.000000;stroke-opacity:0.000000" />


<rect
width="2.485149"
height="21.428571"
rx="0.000000"
ry="0.000000"
x="174.737624"
y="125.500000"
id="col.pan"
style="fill:#ECEC39;fill-opacity:1.000000;stroke:black;stroke-width:0.000000;stroke-opacity:0.000000" />


<rect
width="2.485149"
height="21.428571"
rx="0.000000"
ry="0.000000"
x="173.252475"
y="125.500000"
id="col.pan"
style="fill:#EAEA3D;fill-opacity:1.000000;stroke:black;stroke-width:0.000000;stroke-opacity:0.000000" />


<rect
width="2.485149"
height="21.428571"
rx="0.000000"
ry="0.000000"
x="171.767327"
y="125.500000"
id="col.pan"
style="fill:#E9E941;fill-opacity:1.000000;stroke:black;stroke-width:0.000000;stroke-opacity:0.000000" />


<rect
width="2.485149"
height="21.428571"
rx="0.000000"
ry="0.000000"
x="170.282178"
y="125.500000"
id="col.pan"
style="fill:#E8E844;fill-opacity:1.000000;stroke:black;stroke-width:0.000000;stroke-opacity:0.000000" />


<rect
width="2.485149"
height="21.428571"
rx="0.000000"
ry="0.000000"
x="168.797030"
y="125.500000"
id="col.pan"
style="fill:#E6E648;fill-opacity:1.000000;stroke:black;stroke-width:0.000000;stroke-opacity:0.000000" />


<rect
width="2.485149"
height="21.428571"
rx="0.000000"
ry="0.000000"
x="167.311881"
y="125.500000"
id="col.pan"
style="fill:#E5E54C;fill-opacity:1.000000;stroke:black;stroke-width:0.000000;stroke-opacity:0.000000" />


<rect
width="2.485149"
height="21.428571"
rx="0.000000"
ry="0.000000"
x="165.826733"
y="125.500000"
id="col.pan"
style="fill:#E4E450;fill-opacity:1.000000;stroke:black;stroke-width:0.000000;stroke-opacity:0.000000" />


<rect
width="2.485149"
height="21.428571"
rx="0.000000"
ry="0.000000"
x="164.341584"
y="125.500000"
id="col.pan"
style="fill:#E2E254;fill-opacity:1.000000;stroke:black;stroke-width:0.000000;stroke-opacity:0.000000" />


<rect
width="2.485149"
height="21.428571"
rx="0.000000"
ry="0.000000"
x="162.856436"
y="125.500000"
id="col.pan"
style="fill:#E1E157;fill-opacity:1.000000;stroke:black;stroke-width:0.000000;stroke-opacity:0.000000" />


<rect
width="2.485149"
height="21.428571"
rx="0.000000"
ry="0.000000"
x="161.371287"
y="125.500000"
id="col.pan"
style="fill:#E0E05B;fill-opacity:1.000000;stroke:black;stroke-width:0.000000;stroke-opacity:0.000000" />


<rect
width="2.485149"
height="21.428571"
rx="0.000000"
ry="0.000000"
x="159.886139"
y="125.500000"
id="col.pan"
style="fill:#DFDF5F;fill-opacity:1.000000;stroke:black;stroke-width:0.000000;stroke-opacity:0.000000" />


<rect
width="2.485149"
height="21.428571"
rx="0.000000"
ry="0.000000"
x="158.400990"
y="125.500000"
id="col.pan"
style="fill:#DDDD63;fill-opacity:1.000000;stroke:black;stroke-width:0.000000;stroke-opacity:0.000000" />


<rect
width="2.485149"
height="21.428571"
rx="0.000000"
ry="0.000000"
x="156.915842"
y="125.500000"
id="col.pan"
style="fill:#DCDC67;fill-opacity:1.000000;stroke:black;stroke-width:0.000000;stroke-opacity:0.000000" />


<rect
width="2.485149"
height="21.428571"
rx="0.000000"
ry="0.000000"
x="155.430693"
y="125.500000"
id="col.pan"
style="fill:#DBDB6A;fill-opacity:1.000000;stroke:black;stroke-width:0.000000;stroke-opacity:0.000000" />


<rect
width="2.485149"
height="21.428571"
rx="0.000000"
ry="0.000000"
x="153.945545"
y="125.500000"
id="col.pan"
style="fill:#D9D96E;fill-opacity:1.000000;stroke:black;stroke-width:0.000000;stroke-opacity:0.000000" />


<rect
width="2.485149"
height="21.428571"
rx="0.000000"
ry="0.000000"
x="152.460396"
y="125.500000"
id="col.pan"
style="fill:#D8D872;fill-opacity:1.000000;stroke:black;stroke-width:0.000000;stroke-opacity:0.000000" />


<rect
width="2.485149"
height="21.428571"
rx="0.000000"
ry="0.000000"
x="150.975248"
y="125.500000"
id="col.pan"
style="fill:#D7D776;fill-opacity:1.000000;stroke:black;stroke-width:0.000000;stroke-opacity:0.000000" />


<rect
width="2.485149"
height="21.428571"
rx="0.000000"
ry="0.000000"
x="149.490099"
y="125.500000"
id="col.pan"
style="fill:#D5D57A;fill-opacity:1.000000;stroke:black;stroke-width:0.000000;stroke-opacity:0.000000" />


<rect
width="2.485149"
height="21.428571"
rx="0.000000"
ry="0.000000"
x="148.004950"
y="125.500000"
id="col.pan"
style="fill:#D4D47D;fill-opacity:1.000000;stroke:black;stroke-width:0.000000;stroke-opacity:0.000000" />


<rect
width="2.485149"
height="21.428571"
rx="0.000000"
ry="0.000000"
x="146.519802"
y="125.500000"
id="col.pan"
style="fill:#D3D381;fill-opacity:1.000000;stroke:black;stroke-width:0.000000;stroke-opacity:0.000000" />


<rect
width="2.485149"
height="21.428571"
rx="0.000000"
ry="0.000000"
x="145.034653"
y="125.500000"
id="col.pan"
style="fill:#D2D285;fill-opacity:1.000000;stroke:black;stroke-width:0.000000;stroke-opacity:0.000000" />


<rect
width="2.485149"
height="21.428571"
rx="0.000000"
ry="0.000000"
x="143.549505"
y="125.500000"
id="col.pan"
style="fill:#D0D089;fill-opacity:1.000000;stroke:black;stroke-width:0.000000;stroke-opacity:0.000000" />


<rect
width="2.485149"
height="21.428571"
rx="0.000000"
ry="0.000000"
x="142.064356"
y="125.500000"
id="col.pan"
style="fill:#CFCF8D;fill-opacity:1.000000;stroke:black;stroke-width:0.000000;stroke-opacity:0.000000" />


<rect
width="2.485149"
height="21.428571"
rx="0.000000"
ry="0.000000"
x="140.579208"
y="125.500000"
id="col.pan"
style="fill:#CECE90;fill-opacity:1.000000;stroke:black;stroke-width:0.000000;stroke-opacity:0.000000" />


<rect
width="2.485149"
height="21.428571"
rx="0.000000"
ry="0.000000"
x="139.094059"
y="125.500000"
id="col.pan"
style="fill:#CCCC94;fill-opacity:1.000000;stroke:black;stroke-width:0.000000;stroke-opacity:0.000000" />


<rect
width="2.485149"
height="21.428571"
rx="0.000000"
ry="0.000000"
x="137.608911"
y="125.500000"
id="col.pan"
style="fill:#CBCB98;fill-opacity:1.000000;stroke:black;stroke-width:0.000000;stroke-opacity:0.000000" />


<rect
width="2.485149"
height="21.428571"
rx="0.000000"
ry="0.000000"
x="136.123762"
y="125.500000"
id="col.pan"
style="fill:#CACA9C;fill-opacity:1.000000;stroke:black;stroke-width:0.000000;stroke-opacity:0.000000" />


<rect
width="2.485149"
height="21.428571"
rx="0.000000"
ry="0.000000"
x="134.638614"
y="125.500000"
id="col.pan"
style="fill:#C8C8A0;fill-opacity:1.000000;stroke:black;stroke-width:0.000000;stroke-opacity:0.000000" />


<rect
width="2.485149"
height="21.428571"
rx="0.000000"
ry="0.000000"
x="133.153465"
y="125.500000"
id="col.pan"
style="fill:#C7C7A3;fill-opacity:1.000000;stroke:black;stroke-width:0.000000;stroke-opacity:0.000000" />


<rect
width="2.485149"
height="21.428571"
rx="0.000000"
ry="0.000000"
x="131.668317"
y="125.500000"
id="col.pan"
style="fill:#C6C6A7;fill-opacity:1.000000;stroke:black;stroke-width:0.000000;stroke-opacity:0.000000" />


<rect
width="2.485149"
height="21.428571"
rx="0.000000"
ry="0.000000"
x="130.183168"
y="125.500000"
id="col.pan"
style="fill:#C5C5AB;fill-opacity:1.000000;stroke:black;stroke-width:0.000000;stroke-opacity:0.000000" />


<rect
width="2.485149"
height="21.428571"
rx="0.000000"
ry="0.000000"
x="128.698020"
y="125.500000"
id="col.pan"
style="fill:#C3C3AF;fill-opacity:1.000000;stroke:black;stroke-width:0.000000;stroke-opacity:0.000000" />


<rect
width="2.485149"
height="21.428571"
rx="0.000000"
ry="0.000000"
x="127.212871"
y="125.500000"
id="col.pan"
style="fill:#C2C2B3;fill-opacity:1.000000;stroke:black;stroke-width:0.000000;stroke-opacity:0.000000" />


<rect
width="2.485149"
height="21.428571"
rx="0.000000"
ry="0.000000"
x="125.727723"
y="125.500000"
id="col.pan"
style="fill:#C1C1B6;fill-opacity:1.000000;stroke:black;stroke-width:0.000000;stroke-opacity:0.000000" />


<rect
width="2.485149"
height="21.428571"
rx="0.000000"
ry="0.000000"
x="124.242574"
y="125.500000"
id="col.pan"
style="fill:#BFBFBA;fill-opacity:1.000000;stroke:black;stroke-width:0.000000;stroke-opacity:0.000000" />


<rect
width="2.485149"
height="21.428571"
rx="0.000000"
ry="0.000000"
x="122.757426"
y="125.500000"
id="col.pan"
style="fill:#BEBEBE;fill-opacity:1.000000;stroke:black;stroke-width:0.000000;stroke-opacity:0.000000" />


<rect
width="2.485149"
height="21.428571"
rx="0.000000"
ry="0.000000"
x="121.272277"
y="125.500000"
id="col.pan"
style="fill:#BABABF;fill-opacity:1.000000;stroke:black;stroke-width:0.000000;stroke-opacity:0.000000" />


<rect
width="2.485149"
height="21.428571"
rx="0.000000"
ry="0.000000"
x="119.787129"
y="125.500000"
id="col.pan"
style="fill:#B6B6C1;fill-opacity:1.000000;stroke:black;stroke-width:0.000000;stroke-opacity:0.000000" />


<rect
width="2.485149"
height="21.428571"
rx="0.000000"
ry="0.000000"
x="118.301980"
y="125.500000"
id="col.pan"
style="fill:#B3B3C2;fill-opacity:1.000000;stroke:black;stroke-width:0.000000;stroke-opacity:0.000000" />


<rect
width="2.485149"
height="21.428571"
rx="0.000000"
ry="0.000000"
x="116.816832"
y="125.500000"
id="col.pan"
style="fill:#AFAFC3;fill-opacity:1.000000;stroke:black;stroke-width:0.000000;stroke-opacity:0.000000" />


<rect
width="2.485149"
height="21.428571"
rx="0.000000"
ry="0.000000"
x="115.331683"
y="125.500000"
id="col.pan"
style="fill:#ABABC5;fill-opacity:1.000000;stroke:black;stroke-width:0.000000;stroke-opacity:0.000000" />


<rect
width="2.485149"
height="21.428571"
rx="0.000000"
ry="0.000000"
x="113.846535"
y="125.500000"
id="col.pan"
style="fill:#A7A7C6;fill-opacity:1.000000;stroke:black;stroke-width:0.000000;stroke-opacity:0.000000" />


<rect
width="2.485149"
height="21.428571"
rx="0.000000"
ry="0.000000"
x="112.361386"
y="125.500000"
id="col.pan"
style="fill:#A3A3C7;fill-opacity:1.000000;stroke:black;stroke-width:0.000000;stroke-opacity:0.000000" />


<rect
width="2.485149"
height="21.428571"
rx="0.000000"
ry="0.000000"
x="110.876238"
y="125.500000"
id="col.pan"
style="fill:#A0A0C8;fill-opacity:1.000000;stroke:black;stroke-width:0.000000;stroke-opacity:0.000000" />


<rect
width="2.485149"
height="21.428571"
rx="0.000000"
ry="0.000000"
x="109.391089"
y="125.500000"
id="col.pan"
style="fill:#9C9CCA;fill-opacity:1.000000;stroke:black;stroke-width:0.000000;stroke-opacity:0.000000" />


<rect
width="2.485149"
height="21.428571"
rx="0.000000"
ry="0.000000"
x="107.905941"
y="125.500000"
id="col.pan"
style="fill:#9898CB;fill-opacity:1.000000;stroke:black;stroke-width:0.000000;stroke-opacity:0.000000" />


<rect
width="2.485149"
height="21.428571"
rx="0.000000"
ry="0.000000"
x="106.420792"
y="125.500000"
id="col.pan"
style="fill:#9494CC;fill-opacity:1.000000;stroke:black;stroke-width:0.000000;stroke-opacity:0.000000" />


<rect
width="2.485149"
height="21.428571"
rx="0.000000"
ry="0.000000"
x="104.935644"
y="125.500000"
id="col.pan"
style="fill:#9090CE;fill-opacity:1.000000;stroke:black;stroke-width:0.000000;stroke-opacity:0.000000" />


<rect
width="2.485149"
height="21.428571"
rx="0.000000"
ry="0.000000"
x="103.450495"
y="125.500000"
id="col.pan"
style="fill:#8D8DCF;fill-opacity:1.000000;stroke:black;stroke-width:0.000000;stroke-opacity:0.000000" />


<rect
width="2.485149"
height="21.428571"
rx="0.000000"
ry="0.000000"
x="101.965347"
y="125.500000"
id="col.pan"
style="fill:#8989D0;fill-opacity:1.000000;stroke:black;stroke-width:0.000000;stroke-opacity:0.000000" />


<rect
width="2.485149"
height="21.428571"
rx="0.000000"
ry="0.000000"
x="100.480198"
y="125.500000"
id="col.pan"
style="fill:#8585D2;fill-opacity:1.000000;stroke:black;stroke-width:0.000000;stroke-opacity:0.000000" />


<rect
width="2.485149"
height="21.428571"
rx="0.000000"
ry="0.000000"
x="98.995050"
y="125.500000"
id="col.pan"
style="fill:#8181D3;fill-opacity:1.000000;stroke:black;stroke-width:0.000000;stroke-opacity:0.000000" />


<rect
width="2.485149"
height="21.428571"
rx="0.000000"
ry="0.000000"
x="97.509901"
y="125.500000"
id="col.pan"
style="fill:#7D7DD4;fill-opacity:1.000000;stroke:black;stroke-width:0.000000;stroke-opacity:0.000000" />


<rect
width="2.485149"
height="21.428571"
rx="0.000000"
ry="0.000000"
x="96.024752"
y="125.500000"
id="col.pan"
style="fill:#7A7AD5;fill-opacity:1.000000;stroke:black;stroke-width:0.000000;stroke-opacity:0.000000" />


<rect
width="2.485149"
height="21.428571"
rx="0.000000"
ry="0.000000"
x="94.539604"
y="125.500000"
id="col.pan"
style="fill:#7676D7;fill-opacity:1.000000;stroke:black;stroke-width:0.000000;stroke-opacity:0.000000" />


<rect
width="2.485149"
height="21.428571"
rx="0.000000"
ry="0.000000"
x="93.054455"
y="125.500000"
id="col.pan"
style="fill:#7272D8;fill-opacity:1.000000;stroke:black;stroke-width:0.000000;stroke-opacity:0.000000" />


<rect
width="2.485149"
height="21.428571"
rx="0.000000"
ry="0.000000"
x="91.569307"
y="125.500000"
id="col.pan"
style="fill:#6E6ED9;fill-opacity:1.000000;stroke:black;stroke-width:0.000000;stroke-opacity:0.000000" />


<rect
width="2.485149"
height="21.428571"
rx="0.000000"
ry="0.000000"
x="90.084158"
y="125.500000"
id="col.pan"
style="fill:#6A6ADB;fill-opacity:1.000000;stroke:black;stroke-width:0.000000;stroke-opacity:0.000000" />


<rect
width="2.485149"
height="21.428571"
rx="0.000000"
ry="0.000000"
x="88.599010"
y="125.500000"
id="col.pan"
style="fill:#6767DC;fill-opacity:1.000000;stroke:black;stroke-width:0.000000;stroke-opacity:0.000000" />


<rect
width="2.485149"
height="21.428571"
rx="0.000000"
ry="0.000000"
x="87.113861"
y="125.500000"
id="col.pan"
style="fill:#6363DD;fill-opacity:1.000000;stroke:black;stroke-width:0.000000;stroke-opacity:0.000000" />


<rect
width="2.485149"
height="21.428571"
rx="0.000000"
ry="0.000000"
x="85.628713"
y="125.500000"
id="col.pan"
style="fill:#5F5FDF;fill-opacity:1.000000;stroke:black;stroke-width:0.000000;stroke-opacity:0.000000" />


<rect
width="2.485149"
height="21.428571"
rx="0.000000"
ry="0.000000"
x="84.143564"
y="125.500000"
id="col.pan"
style="fill:#5B5BE0;fill-opacity:1.000000;stroke:black;stroke-width:0.000000;stroke-opacity:0.000000" />


<rect
width="2.485149"
height="21.428571"
rx="0.000000"
ry="0.000000"
x="82.658416"
y="125.500000"
id="col.pan"
style="fill:#5757E1;fill-opacity:1.000000;stroke:black;stroke-width:0.000000;stroke-opacity:0.000000" />


<rect
width="2.485149"
height="21.428571"
rx="0.000000"
ry="0.000000"
x="81.173267"
y="125.500000"
id="col.pan"
style="fill:#5454E2;fill-opacity:1.000000;stroke:black;stroke-width:0.000000;stroke-opacity:0.000000" />


<rect
width="2.485149"
height="21.428571"
rx="0.000000"
ry="0.000000"
x="79.688119"
y="125.500000"
id="col.pan"
style="fill:#5050E4;fill-opacity:1.000000;stroke:black;stroke-width:0.000000;stroke-opacity:0.000000" />


<rect
width="2.485149"
height="21.428571"
rx="0.000000"
ry="0.000000"
x="78.202970"
y="125.500000"
id="col.pan"
style="fill:#4C4CE5;fill-opacity:1.000000;stroke:black;stroke-width:0.000000;stroke-opacity:0.000000" />


<rect
width="2.485149"
height="21.428571"
rx="0.000000"
ry="0.000000"
x="76.717822"
y="125.500000"
id="col.pan"
style="fill:#4848E6;fill-opacity:1.000000;stroke:black;stroke-width:0.000000;stroke-opacity:0.000000" />


<rect
width="2.485149"
height="21.428571"
rx="0.000000"
ry="0.000000"
x="75.232673"
y="125.500000"
id="col.pan"
style="fill:#4444E8;fill-opacity:1.000000;stroke:black;stroke-width:0.000000;stroke-opacity:0.000000" />


<rect
width="2.485149"
height="21.428571"
rx="0.000000"
ry="0.000000"
x="73.747525"
y="125.500000"
id="col.pan"
style="fill:#4141E9;fill-opacity:1.000000;stroke:black;stroke-width:0.000000;stroke-opacity:0.000000" />


<rect
width="2.485149"
height="21.428571"
rx="0.000000"
ry="0.000000"
x="72.262376"
y="125.500000"
id="col.pan"
style="fill:#3D3DEA;fill-opacity:1.000000;stroke:black;stroke-width:0.000000;stroke-opacity:0.000000" />


<rect
width="2.485149"
height="21.428571"
rx="0.000000"
ry="0.000000"
x="70.777228"
y="125.500000"
id="col.pan"
style="fill:#3939EC;fill-opacity:1.000000;stroke:black;stroke-width:0.000000;stroke-opacity:0.000000" />


<rect
width="2.485149"
height="21.428571"
rx="0.000000"
ry="0.000000"
x="69.292079"
y="125.500000"
id="col.pan"
style="fill:#3535ED;fill-opacity:1.000000;stroke:black;stroke-width:0.000000;stroke-opacity:0.000000" />


<rect
width="2.485149"
height="21.428571"
rx="0.000000"
ry="0.000000"
x="67.806931"
y="125.500000"
id="col.pan"
style="fill:#3131EE;fill-opacity:1.000000;stroke:black;stroke-width:0.000000;stroke-opacity:0.000000" />


<rect
width="2.485149"
height="21.428571"
rx="0.000000"
ry="0.000000"
x="66.321782"
y="125.500000"
id="col.pan"
style="fill:#2E2EEF;fill-opacity:1.000000;stroke:black;stroke-width:0.000000;stroke-opacity:0.000000" />


<rect
width="2.485149"
height="21.428571"
rx="0.000000"
ry="0.000000"
x="64.836634"
y="125.500000"
id="col.pan"
style="fill:#2A2AF1;fill-opacity:1.000000;stroke:black;stroke-width:0.000000;stroke-opacity:0.000000" />


<rect
width="2.485149"
height="21.428571"
rx="0.000000"
ry="0.000000"
x="63.351485"
y="125.500000"
id="col.pan"
style="fill:#2626F2;fill-opacity:1.000000;stroke:black;stroke-width:0.000000;stroke-opacity:0.000000" />


<rect
width="2.485149"
height="21.428571"
rx="0.000000"
ry="0.000000"
x="61.866337"
y="125.500000"
id="col.pan"
style="fill:#2222F3;fill-opacity:1.000000;stroke:black;stroke-width:0.000000;stroke-opacity:0.000000" />


<rect
width="2.485149"
height="21.428571"
rx="0.000000"
ry="0.000000"
x="60.381188"
y="125.500000"
id="col.pan"
style="fill:#1E1EF5;fill-opacity:1.000000;stroke:black;stroke-width:0.000000;stroke-opacity:0.000000" />


<rect
width="2.485149"
height="21.428571"
rx="0.000000"
ry="0.000000"
x="58.896040"
y="125.500000"
id="col.pan"
style="fill:#1B1BF6;fill-opacity:1.000000;stroke:black;stroke-width:0.000000;stroke-opacity:0.000000" />


<rect
width="2.485149"
height="21.428571"
rx="0.000000"
ry="0.000000"
x="57.410891"
y="125.500000"
id="col.pan"
style="fill:#1717F7;fill-opacity:1.000000;stroke:black;stroke-width:0.000000;stroke-opacity:0.000000" />


<rect
width="2.485149"
height="21.428571"
rx="0.000000"
ry="0.000000"
x="55.925743"
y="125.500000"
id="col.pan"
style="fill:#1313F9;fill-opacity:1.000000;stroke:black;stroke-width:0.000000;stroke-opacity:0.000000" />


<rect
width="2.485149"
height="21.428571"
rx="0.000000"
ry="0.000000"
x="54.440594"
y="125.500000"
id="col.pan"
style="fill:#0F0FFA;fill-opacity:1.000000;stroke:black;stroke-width:0.000000;stroke-opacity:0.000000" />


<rect
width="2.485149"
height="21.428571"
rx="0.000000"
ry="0.000000"
x="52.955446"
y="125.500000"
id="col.pan"
style="fill:#0B0BFB;fill-opacity:1.000000;stroke:black;stroke-width:0.000000;stroke-opacity:0.000000" />


<rect
width="2.485149"
height="21.428571"
rx="0.000000"
ry="0.000000"
x="51.470297"
y="125.500000"
id="col.pan"
style="fill:#0808FC;fill-opacity:1.000000;stroke:black;stroke-width:0.000000;stroke-opacity:0.000000" />


<rect
width="2.485149"
height="21.428571"
rx="0.000000"
ry="0.000000"
x="49.985149"
y="125.500000"
id="col.pan"
style="fill:#0404FE;fill-opacity:1.000000;stroke:black;stroke-width:0.000000;stroke-opacity:0.000000" />


<rect
width="2.485149"
height="21.428571"
rx="0.000000"
ry="0.000000"
x="48.500000"
y="125.500000"
id="col.pan"
style="fill:#0000FF;fill-opacity:1.000000;stroke:black;stroke-width:0.000000;stroke-opacity:0.000000" />


<line
x1="48.5" y1="125.5" x2="48.5" y2="152.285714285714"
id="tick"
style="stroke:black;stroke-width:2.000000;stroke-opacity:1" />


<line
x1="63.5" y1="125.5" x2="63.5" y2="152.285714285714"
id="tick"
style="stroke:black;stroke-width:2.000000;stroke-opacity:1" />


<line
x1="78.5" y1="125.5" x2="78.5" y2="152.285714285714"
id="tick"
style="stroke:black;stroke-width:2.000000;stroke-opacity:1" />


<line
x1="93.5" y1="125.5" x2="93.5" y2="152.285714285714"
id="tick"
style="stroke:black;stroke-width:2.000000;stroke-opacity:1" />


<line
x1="108.5" y1="125.5" x2="108.5" y2="152.285714285714"
id="tick"
style="stroke:black;stroke-width:2.000000;stroke-opacity:1" />


<line
x1="123.5" y1="125.5" x2="123.5" y2="152.285714285714"
id="tick"
style="stroke:black;stroke-width:2.000000;stroke-opacity:1" />


<line
x1="138.5" y1="125.5" x2="138.5" y2="152.285714285714"
id="tick"
style="stroke:black;stroke-width:2.000000;stroke-opacity:1" />


<line
x1="153.5" y1="125.5" x2="153.5" y2="152.285714285714"
id="tick"
style="stroke:black;stroke-width:2.000000;stroke-opacity:1" />


<line
x1="168.5" y1="125.5" x2="168.5" y2="152.285714285714"
id="tick"
style="stroke:black;stroke-width:2.000000;stroke-opacity:1" />


<line
x1="183.5" y1="125.5" x2="183.5" y2="152.285714285714"
id="tick"
style="stroke:black;stroke-width:2.000000;stroke-opacity:1" />


<line
x1="198.5" y1="125.5" x2="198.5" y2="152.285714285714"
id="tick"
style="stroke:black;stroke-width:2.000000;stroke-opacity:1" />


<text
x="197.757426"
y="175.500000"
id="color.panel.max.value"
style="font-size:21.428571px;text-anchor:middle;font-family:Arial,Helvetica;alignment-baseline:baseline;stroke.opacity:1;dominant-baseline:baseline"
fill="black"
>
1</text>


<text
x="49.242574"
y="175.500000"
id="color.panel.low.value"
style="font-size:21.428571px;text-anchor:middle;font-family:Arial,Helvetica;alignment-baseline:baseline;stroke.opacity:1;dominant-baseline:baseline"
fill="black"
>
-1</text>


<text
x="124.985149"
y="175.500000"
id="color.panel.mid.value"
style="font-size:21.428571px;text-anchor:middle;font-family:Arial,Helvetica;alignment-baseline:baseline;stroke.opacity:1;dominant-baseline:baseline"
fill="black"
>
0</text>

</svg>
