<?xml version="1.0" encoding="UTF-8"?>
<svg width="808.666667" height="715.000000"
xmlns="http://www.w3.org/2000/svg" xmlns:svg="http://www.w3.org/2000/svg"
>
<metadata id="metadata7">image/svg+xml</metadata>

<rect
width="378.666667"
height="392.000000"
rx="11.000000"
ry="11.000000"
x="100.000000"
y="198.000000"
id="cytoplasm"
style="fill:white;fill-opacity:0.900000;stroke:black;stroke-width:5.000000;stroke-opacity:1.000000" />


<text
x="289.333333"
y="190.000000"
id="cytoplasm"
style="font-size:24.000000px;text-anchor:middle;font-family:Arial,Helvetica;alignment-baseline:baseline;stroke.opacity:1;dominant-baseline:baseline"
fill="black"
>
cytoplasm</text>


<rect
width="378.666667"
height="392.000000"
rx="11.000000"
ry="11.000000"
x="100.000000"
y="198.000000"
id="cytoplasm"
style="fill:white;fill-opacity:0.900000;stroke:black;stroke-width:5.000000;stroke-opacity:1.000000" />


<text
x="289.333333"
y="190.000000"
id="cytoplasm"
style="font-size:24.000000px;text-anchor:middle;font-family:Arial,Helvetica;alignment-baseline:baseline;stroke.opacity:1;dominant-baseline:baseline"
fill="black"
>
cytoplasm</text>

NULL
NULL
NULL
NULL




<ellipse
rx="35.000000"
ry="20.000000"
cx="311.000000"
cy="229.000000"
id="SmallMolecule_8cff9b05d1bf5301c58e13e8f3d9a39b"
style="fill:#FFFF00;fill-opacity:0.600000;stroke:black;stroke-width:1.000000;stroke-opacity:0.000000" />


<path
d="M 293.5 246.320508075689 A 35 20 1 1 0 293.5 211.679491924311"
id="SmallMolecule_8cff9b05d1bf5301c58e13e8f3d9a39b"
style="fill:#C9C99E;fill-opacity:0.600000;stroke-width:1;stroke:black;stroke-opacity:0.000000"
transform = "rotate(0.000000 0.000000 0.000000)"
/>


<path
d="M 311 249 A 35 20 1 1 0 311 209"
id="SmallMolecule_8cff9b05d1bf5301c58e13e8f3d9a39b"
style="fill:white;fill-opacity:0.600000;stroke-width:1;stroke:black;stroke-opacity:0.000000"
transform = "rotate(0.000000 0.000000 0.000000)"
/>


<path
d="M 311 249 A 35 20 1 1 0 311 209"
id="SmallMolecule_8cff9b05d1bf5301c58e13e8f3d9a39b"
style="fill:#FAFA0D;fill-opacity:0.600000;stroke-width:1;stroke:black;stroke-opacity:0.000000"
transform = "rotate(0.000000 0.000000 0.000000)"
/>


<path
d="M 328.5 246.320508075689 A 35 20 1 0 0 328.5 211.679491924311"
id="SmallMolecule_8cff9b05d1bf5301c58e13e8f3d9a39b"
style="fill:white;fill-opacity:0.600000;stroke-width:1;stroke:black;stroke-opacity:0.000000"
transform = "rotate(0.000000 0.000000 0.000000)"
/>


<path
d="M 328.5 246.320508075689 A 35 20 1 0 0 328.5 211.679491924311"
id="SmallMolecule_8cff9b05d1bf5301c58e13e8f3d9a39b"
style="fill:#EBEB3B;fill-opacity:0.600000;stroke-width:1;stroke:black;stroke-opacity:0.000000"
transform = "rotate(0.000000 0.000000 0.000000)"
/>


<path
d="M 346 229 A 35 20 1 0 0 346 229"
id="SmallMolecule_8cff9b05d1bf5301c58e13e8f3d9a39b"
style="fill:white;fill-opacity:0.600000;stroke-width:1;stroke:black;stroke-opacity:0.000000"
transform = "rotate(0.000000 0.000000 0.000000)"
/>


<ellipse
rx="35.000000"
ry="20.000000"
cx="311.000000"
cy="229.000000"
id="SmallMolecule_8cff9b05d1bf5301c58e13e8f3d9a39b"
style="fill:white;fill-opacity:0.000000;stroke:black;stroke-width:1.000000;stroke-opacity:1.000000" />



<text
x="311.000000"
y="226.000000"
id="SmallMolecule_8cff9b05d1bf5301c58e13e8f3d9a39b"
style="font-size:18.000000px;text-anchor:middle;font-family:Arial,Helvetica;alignment-baseline:baseline;stroke.opacity:1;dominant-baseline:baseline"
fill="black"
>
simple_</text>


<text
x="311.000000"
y="244.000000"
id="SmallMolecule_8cff9b05d1bf5301c58e13e8f3d9a39b"
style="font-size:18.000000px;text-anchor:middle;font-family:Arial,Helvetica;alignment-baseline:baseline;stroke.opacity:1;dominant-baseline:baseline"
fill="black"
>
chemical_1</text>



<ellipse
rx="35.000000"
ry="20.000000"
cx="311.000000"
cy="559.000000"
id="SmallMolecule_792ef733846c976c2644edec448fa300"
style="fill:#CFCF8E;fill-opacity:0.600000;stroke:black;stroke-width:1.000000;stroke-opacity:0.000000" />


<path
d="M 293.5 576.320508075689 A 35 20 1 1 0 293.5 541.679491924311"
id="SmallMolecule_792ef733846c976c2644edec448fa300"
style="fill:#FFFF00;fill-opacity:0.600000;stroke-width:1;stroke:black;stroke-opacity:0.000000"
transform = "rotate(0.000000 0.000000 0.000000)"
/>


<path
d="M 311 579 A 35 20 1 1 0 311 539"
id="SmallMolecule_792ef733846c976c2644edec448fa300"
style="fill:white;fill-opacity:0.600000;stroke-width:1;stroke:black;stroke-opacity:0.000000"
transform = "rotate(0.000000 0.000000 0.000000)"
/>


<path
d="M 311 579 A 35 20 1 1 0 311 539"
id="SmallMolecule_792ef733846c976c2644edec448fa300"
style="fill:#FFFF00;fill-opacity:0.600000;stroke-width:1;stroke:black;stroke-opacity:0.000000"
transform = "rotate(0.000000 0.000000 0.000000)"
/>


<path
d="M 328.5 576.320508075689 A 35 20 1 0 0 328.5 541.679491924311"
id="SmallMolecule_792ef733846c976c2644edec448fa300"
style="fill:white;fill-opacity:0.600000;stroke-width:1;stroke:black;stroke-opacity:0.000000"
transform = "rotate(0.000000 0.000000 0.000000)"
/>


<path
d="M 328.5 576.320508075689 A 35 20 1 0 0 328.5 541.679491924311"
id="SmallMolecule_792ef733846c976c2644edec448fa300"
style="fill:#0000FF;fill-opacity:0.600000;stroke-width:1;stroke:black;stroke-opacity:0.000000"
transform = "rotate(0.000000 0.000000 0.000000)"
/>


<path
d="M 346 559 A 35 20 1 0 0 346 559"
id="SmallMolecule_792ef733846c976c2644edec448fa300"
style="fill:white;fill-opacity:0.600000;stroke-width:1;stroke:black;stroke-opacity:0.000000"
transform = "rotate(0.000000 0.000000 0.000000)"
/>


<ellipse
rx="35.000000"
ry="20.000000"
cx="311.000000"
cy="559.000000"
id="SmallMolecule_792ef733846c976c2644edec448fa300"
style="fill:white;fill-opacity:0.000000;stroke:black;stroke-width:1.000000;stroke-opacity:1.000000" />



<text
x="311.000000"
y="556.000000"
id="SmallMolecule_792ef733846c976c2644edec448fa300"
style="font-size:18.000000px;text-anchor:middle;font-family:Arial,Helvetica;alignment-baseline:baseline;stroke.opacity:1;dominant-baseline:baseline"
fill="black"
>
Azathio-</text>


<text
x="311.000000"
y="574.000000"
id="SmallMolecule_792ef733846c976c2644edec448fa300"
style="font-size:18.000000px;text-anchor:middle;font-family:Arial,Helvetica;alignment-baseline:baseline;stroke.opacity:1;dominant-baseline:baseline"
fill="black"
>
prine</text>



<ellipse
rx="35.000000"
ry="20.000000"
cx="146.000000"
cy="394.000000"
id="SmallMolecule_1813fcb4a7defcd8a20fbe74ed889a43"
style="fill:#7878D6;fill-opacity:0.600000;stroke:black;stroke-width:1.000000;stroke-opacity:0.000000" />


<path
d="M 128.5 411.320508075689 A 35 20 1 1 0 128.5 376.679491924311"
id="SmallMolecule_1813fcb4a7defcd8a20fbe74ed889a43"
style="fill:#CFCF8E;fill-opacity:0.600000;stroke-width:1;stroke:black;stroke-opacity:0.000000"
transform = "rotate(0.000000 0.000000 0.000000)"
/>


<path
d="M 146 414 A 35 20 1 1 0 146 374"
id="SmallMolecule_1813fcb4a7defcd8a20fbe74ed889a43"
style="fill:white;fill-opacity:0.600000;stroke-width:1;stroke:black;stroke-opacity:0.000000"
transform = "rotate(0.000000 0.000000 0.000000)"
/>


<path
d="M 146 414 A 35 20 1 1 0 146 374"
id="SmallMolecule_1813fcb4a7defcd8a20fbe74ed889a43"
style="fill:#ADADC4;fill-opacity:0.600000;stroke-width:1;stroke:black;stroke-opacity:0.000000"
transform = "rotate(0.000000 0.000000 0.000000)"
/>


<path
d="M 163.5 411.320508075689 A 35 20 1 0 0 163.5 376.679491924311"
id="SmallMolecule_1813fcb4a7defcd8a20fbe74ed889a43"
style="fill:white;fill-opacity:0.600000;stroke-width:1;stroke:black;stroke-opacity:0.000000"
transform = "rotate(0.000000 0.000000 0.000000)"
/>


<path
d="M 163.5 411.320508075689 A 35 20 1 0 0 163.5 376.679491924311"
id="SmallMolecule_1813fcb4a7defcd8a20fbe74ed889a43"
style="fill:#1C1CF6;fill-opacity:0.600000;stroke-width:1;stroke:black;stroke-opacity:0.000000"
transform = "rotate(0.000000 0.000000 0.000000)"
/>


<path
d="M 181 394 A 35 20 1 0 0 181 394"
id="SmallMolecule_1813fcb4a7defcd8a20fbe74ed889a43"
style="fill:white;fill-opacity:0.600000;stroke-width:1;stroke:black;stroke-opacity:0.000000"
transform = "rotate(0.000000 0.000000 0.000000)"
/>


<ellipse
rx="35.000000"
ry="20.000000"
cx="146.000000"
cy="394.000000"
id="SmallMolecule_1813fcb4a7defcd8a20fbe74ed889a43"
style="fill:white;fill-opacity:0.000000;stroke:black;stroke-width:1.000000;stroke-opacity:1.000000" />



<text
x="146.000000"
y="391.000000"
id="SmallMolecule_1813fcb4a7defcd8a20fbe74ed889a43"
style="font-size:18.000000px;text-anchor:middle;font-family:Arial,Helvetica;alignment-baseline:baseline;stroke.opacity:1;dominant-baseline:baseline"
fill="black"
>
Mercapt-</text>


<text
x="146.000000"
y="409.000000"
id="SmallMolecule_1813fcb4a7defcd8a20fbe74ed889a43"
style="font-size:18.000000px;text-anchor:middle;font-family:Arial,Helvetica;alignment-baseline:baseline;stroke.opacity:1;dominant-baseline:baseline"
fill="black"
>
opurine</text>


<rect
width="26.666667"
height="26.666667"
rx="0.000000"
ry="0.000000"
x="441.000000"
y="374.000000"
id="BiochemicalReaction_fcfbb67975458a9d733487fe01377633_LEFT_TO_RIGHT"
style="fill:white;fill-opacity:0.600000;stroke:black;stroke-width:1.000000;stroke-opacity:1.000000" />





<path d="M181.000000 393.000000 C 248.000000 391.000000, 395.000000 388.000000,440.000000 387.000000" stroke="black"  fill="transparent"/>

<line
x1="395" y1="388" x2="440" y2="387"
id="0"
style="stroke:black;stroke-width:1.000000;stroke-opacity:0" />


<line
x1="248" y1="391" x2="181" y2="393"
id="BiochemicalReaction_fcfbb67975458a9d733487fe01377633_LEFT_TO_RIGHT-output--to--SmallMolecule_1813fcb4a7defcd8a20fbe74ed889a43"
style="stroke:black;stroke-width:1.000000;stroke-opacity:0" />


<polygon
points = "181,393 172.2,388.6 172.2,397.4"
id="line"
style="fill:black; stroke:#000000; stroke-width:1"
transform = "rotate(178.290186 181.000000 393.000000)"
/>


<path d="M327.000000 538.000000 C 357.000000 503.000000, 417.000000 430.000000,443.000000 400.000000" stroke="black"  fill="transparent"/>

<line
x1="357" y1="503" x2="327" y2="538"
id="0"
style="stroke:black;stroke-width:1.000000;stroke-opacity:0" />


<line
x1="417" y1="430" x2="443" y2="400"
id="SmallMolecule_792ef733846c976c2644edec448fa300--to--BiochemicalReaction_fcfbb67975458a9d733487fe01377633_LEFT_TO_RIGHT-input"
style="stroke:black;stroke-width:1.000000;stroke-opacity:0" />


<path d="M329.000000 249.000000 C 358.000000 281.000000, 416.000000 345.000000,441.000000 373.000000" stroke="black"  fill="transparent"/>

<line
x1="416" y1="345" x2="441" y2="373"
id="0"
style="stroke:black;stroke-width:1.000000;stroke-opacity:0" />


<line
x1="358" y1="281" x2="329" y2="249"
id="BiochemicalReaction_fcfbb67975458a9d733487fe01377633_LEFT_TO_RIGHT-output--to--SmallMolecule_8cff9b05d1bf5301c58e13e8f3d9a39b"
style="stroke:black;stroke-width:1.000000;stroke-opacity:0" />


<polygon
points = "329,249 320.2,244.6 320.2,253.4"
id="line"
style="fill:black; stroke:#000000; stroke-width:1"
transform = "rotate(227.815557 329.000000 249.000000)"
/>






<rect
width="2.485149"
height="21.428571"
rx="0.000000"
ry="0.000000"
x="477.181518"
y="61.500000"
id="col.pan"
style="fill:#FFFF00;fill-opacity:1.000000;stroke:black;stroke-width:0.000000;stroke-opacity:0.000000" />


<rect
width="2.485149"
height="21.428571"
rx="0.000000"
ry="0.000000"
x="475.696370"
y="61.500000"
id="col.pan"
style="fill:#FEFE04;fill-opacity:1.000000;stroke:black;stroke-width:0.000000;stroke-opacity:0.000000" />


<rect
width="2.485149"
height="21.428571"
rx="0.000000"
ry="0.000000"
x="474.211221"
y="61.500000"
id="col.pan"
style="fill:#FCFC08;fill-opacity:1.000000;stroke:black;stroke-width:0.000000;stroke-opacity:0.000000" />


<rect
width="2.485149"
height="21.428571"
rx="0.000000"
ry="0.000000"
x="472.726073"
y="61.500000"
id="col.pan"
style="fill:#FBFB0B;fill-opacity:1.000000;stroke:black;stroke-width:0.000000;stroke-opacity:0.000000" />


<rect
width="2.485149"
height="21.428571"
rx="0.000000"
ry="0.000000"
x="471.240924"
y="61.500000"
id="col.pan"
style="fill:#FAFA0F;fill-opacity:1.000000;stroke:black;stroke-width:0.000000;stroke-opacity:0.000000" />


<rect
width="2.485149"
height="21.428571"
rx="0.000000"
ry="0.000000"
x="469.755776"
y="61.500000"
id="col.pan"
style="fill:#F9F913;fill-opacity:1.000000;stroke:black;stroke-width:0.000000;stroke-opacity:0.000000" />


<rect
width="2.485149"
height="21.428571"
rx="0.000000"
ry="0.000000"
x="468.270627"
y="61.500000"
id="col.pan"
style="fill:#F7F717;fill-opacity:1.000000;stroke:black;stroke-width:0.000000;stroke-opacity:0.000000" />


<rect
width="2.485149"
height="21.428571"
rx="0.000000"
ry="0.000000"
x="466.785479"
y="61.500000"
id="col.pan"
style="fill:#F6F61B;fill-opacity:1.000000;stroke:black;stroke-width:0.000000;stroke-opacity:0.000000" />


<rect
width="2.485149"
height="21.428571"
rx="0.000000"
ry="0.000000"
x="465.300330"
y="61.500000"
id="col.pan"
style="fill:#F5F51E;fill-opacity:1.000000;stroke:black;stroke-width:0.000000;stroke-opacity:0.000000" />


<rect
width="2.485149"
height="21.428571"
rx="0.000000"
ry="0.000000"
x="463.815182"
y="61.500000"
id="col.pan"
style="fill:#F3F322;fill-opacity:1.000000;stroke:black;stroke-width:0.000000;stroke-opacity:0.000000" />


<rect
width="2.485149"
height="21.428571"
rx="0.000000"
ry="0.000000"
x="462.330033"
y="61.500000"
id="col.pan"
style="fill:#F2F226;fill-opacity:1.000000;stroke:black;stroke-width:0.000000;stroke-opacity:0.000000" />


<rect
width="2.485149"
height="21.428571"
rx="0.000000"
ry="0.000000"
x="460.844884"
y="61.500000"
id="col.pan"
style="fill:#F1F12A;fill-opacity:1.000000;stroke:black;stroke-width:0.000000;stroke-opacity:0.000000" />


<rect
width="2.485149"
height="21.428571"
rx="0.000000"
ry="0.000000"
x="459.359736"
y="61.500000"
id="col.pan"
style="fill:#EFEF2E;fill-opacity:1.000000;stroke:black;stroke-width:0.000000;stroke-opacity:0.000000" />


<rect
width="2.485149"
height="21.428571"
rx="0.000000"
ry="0.000000"
x="457.874587"
y="61.500000"
id="col.pan"
style="fill:#EEEE31;fill-opacity:1.000000;stroke:black;stroke-width:0.000000;stroke-opacity:0.000000" />


<rect
width="2.485149"
height="21.428571"
rx="0.000000"
ry="0.000000"
x="456.389439"
y="61.500000"
id="col.pan"
style="fill:#EDED35;fill-opacity:1.000000;stroke:black;stroke-width:0.000000;stroke-opacity:0.000000" />


<rect
width="2.485149"
height="21.428571"
rx="0.000000"
ry="0.000000"
x="454.904290"
y="61.500000"
id="col.pan"
style="fill:#ECEC39;fill-opacity:1.000000;stroke:black;stroke-width:0.000000;stroke-opacity:0.000000" />


<rect
width="2.485149"
height="21.428571"
rx="0.000000"
ry="0.000000"
x="453.419142"
y="61.500000"
id="col.pan"
style="fill:#EAEA3D;fill-opacity:1.000000;stroke:black;stroke-width:0.000000;stroke-opacity:0.000000" />


<rect
width="2.485149"
height="21.428571"
rx="0.000000"
ry="0.000000"
x="451.933993"
y="61.500000"
id="col.pan"
style="fill:#E9E941;fill-opacity:1.000000;stroke:black;stroke-width:0.000000;stroke-opacity:0.000000" />


<rect
width="2.485149"
height="21.428571"
rx="0.000000"
ry="0.000000"
x="450.448845"
y="61.500000"
id="col.pan"
style="fill:#E8E844;fill-opacity:1.000000;stroke:black;stroke-width:0.000000;stroke-opacity:0.000000" />


<rect
width="2.485149"
height="21.428571"
rx="0.000000"
ry="0.000000"
x="448.963696"
y="61.500000"
id="col.pan"
style="fill:#E6E648;fill-opacity:1.000000;stroke:black;stroke-width:0.000000;stroke-opacity:0.000000" />


<rect
width="2.485149"
height="21.428571"
rx="0.000000"
ry="0.000000"
x="447.478548"
y="61.500000"
id="col.pan"
style="fill:#E5E54C;fill-opacity:1.000000;stroke:black;stroke-width:0.000000;stroke-opacity:0.000000" />


<rect
width="2.485149"
height="21.428571"
rx="0.000000"
ry="0.000000"
x="445.993399"
y="61.500000"
id="col.pan"
style="fill:#E4E450;fill-opacity:1.000000;stroke:black;stroke-width:0.000000;stroke-opacity:0.000000" />


<rect
width="2.485149"
height="21.428571"
rx="0.000000"
ry="0.000000"
x="444.508251"
y="61.500000"
id="col.pan"
style="fill:#E2E254;fill-opacity:1.000000;stroke:black;stroke-width:0.000000;stroke-opacity:0.000000" />


<rect
width="2.485149"
height="21.428571"
rx="0.000000"
ry="0.000000"
x="443.023102"
y="61.500000"
id="col.pan"
style="fill:#E1E157;fill-opacity:1.000000;stroke:black;stroke-width:0.000000;stroke-opacity:0.000000" />


<rect
width="2.485149"
height="21.428571"
rx="0.000000"
ry="0.000000"
x="441.537954"
y="61.500000"
id="col.pan"
style="fill:#E0E05B;fill-opacity:1.000000;stroke:black;stroke-width:0.000000;stroke-opacity:0.000000" />


<rect
width="2.485149"
height="21.428571"
rx="0.000000"
ry="0.000000"
x="440.052805"
y="61.500000"
id="col.pan"
style="fill:#DFDF5F;fill-opacity:1.000000;stroke:black;stroke-width:0.000000;stroke-opacity:0.000000" />


<rect
width="2.485149"
height="21.428571"
rx="0.000000"
ry="0.000000"
x="438.567657"
y="61.500000"
id="col.pan"
style="fill:#DDDD63;fill-opacity:1.000000;stroke:black;stroke-width:0.000000;stroke-opacity:0.000000" />


<rect
width="2.485149"
height="21.428571"
rx="0.000000"
ry="0.000000"
x="437.082508"
y="61.500000"
id="col.pan"
style="fill:#DCDC67;fill-opacity:1.000000;stroke:black;stroke-width:0.000000;stroke-opacity:0.000000" />


<rect
width="2.485149"
height="21.428571"
rx="0.000000"
ry="0.000000"
x="435.597360"
y="61.500000"
id="col.pan"
style="fill:#DBDB6A;fill-opacity:1.000000;stroke:black;stroke-width:0.000000;stroke-opacity:0.000000" />


<rect
width="2.485149"
height="21.428571"
rx="0.000000"
ry="0.000000"
x="434.112211"
y="61.500000"
id="col.pan"
style="fill:#D9D96E;fill-opacity:1.000000;stroke:black;stroke-width:0.000000;stroke-opacity:0.000000" />


<rect
width="2.485149"
height="21.428571"
rx="0.000000"
ry="0.000000"
x="432.627063"
y="61.500000"
id="col.pan"
style="fill:#D8D872;fill-opacity:1.000000;stroke:black;stroke-width:0.000000;stroke-opacity:0.000000" />


<rect
width="2.485149"
height="21.428571"
rx="0.000000"
ry="0.000000"
x="431.141914"
y="61.500000"
id="col.pan"
style="fill:#D7D776;fill-opacity:1.000000;stroke:black;stroke-width:0.000000;stroke-opacity:0.000000" />


<rect
width="2.485149"
height="21.428571"
rx="0.000000"
ry="0.000000"
x="429.656766"
y="61.500000"
id="col.pan"
style="fill:#D5D57A;fill-opacity:1.000000;stroke:black;stroke-width:0.000000;stroke-opacity:0.000000" />


<rect
width="2.485149"
height="21.428571"
rx="0.000000"
ry="0.000000"
x="428.171617"
y="61.500000"
id="col.pan"
style="fill:#D4D47D;fill-opacity:1.000000;stroke:black;stroke-width:0.000000;stroke-opacity:0.000000" />


<rect
width="2.485149"
height="21.428571"
rx="0.000000"
ry="0.000000"
x="426.686469"
y="61.500000"
id="col.pan"
style="fill:#D3D381;fill-opacity:1.000000;stroke:black;stroke-width:0.000000;stroke-opacity:0.000000" />


<rect
width="2.485149"
height="21.428571"
rx="0.000000"
ry="0.000000"
x="425.201320"
y="61.500000"
id="col.pan"
style="fill:#D2D285;fill-opacity:1.000000;stroke:black;stroke-width:0.000000;stroke-opacity:0.000000" />


<rect
width="2.485149"
height="21.428571"
rx="0.000000"
ry="0.000000"
x="423.716172"
y="61.500000"
id="col.pan"
style="fill:#D0D089;fill-opacity:1.000000;stroke:black;stroke-width:0.000000;stroke-opacity:0.000000" />


<rect
width="2.485149"
height="21.428571"
rx="0.000000"
ry="0.000000"
x="422.231023"
y="61.500000"
id="col.pan"
style="fill:#CFCF8D;fill-opacity:1.000000;stroke:black;stroke-width:0.000000;stroke-opacity:0.000000" />


<rect
width="2.485149"
height="21.428571"
rx="0.000000"
ry="0.000000"
x="420.745875"
y="61.500000"
id="col.pan"
style="fill:#CECE90;fill-opacity:1.000000;stroke:black;stroke-width:0.000000;stroke-opacity:0.000000" />


<rect
width="2.485149"
height="21.428571"
rx="0.000000"
ry="0.000000"
x="419.260726"
y="61.500000"
id="col.pan"
style="fill:#CCCC94;fill-opacity:1.000000;stroke:black;stroke-width:0.000000;stroke-opacity:0.000000" />


<rect
width="2.485149"
height="21.428571"
rx="0.000000"
ry="0.000000"
x="417.775578"
y="61.500000"
id="col.pan"
style="fill:#CBCB98;fill-opacity:1.000000;stroke:black;stroke-width:0.000000;stroke-opacity:0.000000" />


<rect
width="2.485149"
height="21.428571"
rx="0.000000"
ry="0.000000"
x="416.290429"
y="61.500000"
id="col.pan"
style="fill:#CACA9C;fill-opacity:1.000000;stroke:black;stroke-width:0.000000;stroke-opacity:0.000000" />


<rect
width="2.485149"
height="21.428571"
rx="0.000000"
ry="0.000000"
x="414.805281"
y="61.500000"
id="col.pan"
style="fill:#C8C8A0;fill-opacity:1.000000;stroke:black;stroke-width:0.000000;stroke-opacity:0.000000" />


<rect
width="2.485149"
height="21.428571"
rx="0.000000"
ry="0.000000"
x="413.320132"
y="61.500000"
id="col.pan"
style="fill:#C7C7A3;fill-opacity:1.000000;stroke:black;stroke-width:0.000000;stroke-opacity:0.000000" />


<rect
width="2.485149"
height="21.428571"
rx="0.000000"
ry="0.000000"
x="411.834983"
y="61.500000"
id="col.pan"
style="fill:#C6C6A7;fill-opacity:1.000000;stroke:black;stroke-width:0.000000;stroke-opacity:0.000000" />


<rect
width="2.485149"
height="21.428571"
rx="0.000000"
ry="0.000000"
x="410.349835"
y="61.500000"
id="col.pan"
style="fill:#C5C5AB;fill-opacity:1.000000;stroke:black;stroke-width:0.000000;stroke-opacity:0.000000" />


<rect
width="2.485149"
height="21.428571"
rx="0.000000"
ry="0.000000"
x="408.864686"
y="61.500000"
id="col.pan"
style="fill:#C3C3AF;fill-opacity:1.000000;stroke:black;stroke-width:0.000000;stroke-opacity:0.000000" />


<rect
width="2.485149"
height="21.428571"
rx="0.000000"
ry="0.000000"
x="407.379538"
y="61.500000"
id="col.pan"
style="fill:#C2C2B3;fill-opacity:1.000000;stroke:black;stroke-width:0.000000;stroke-opacity:0.000000" />


<rect
width="2.485149"
height="21.428571"
rx="0.000000"
ry="0.000000"
x="405.894389"
y="61.500000"
id="col.pan"
style="fill:#C1C1B6;fill-opacity:1.000000;stroke:black;stroke-width:0.000000;stroke-opacity:0.000000" />


<rect
width="2.485149"
height="21.428571"
rx="0.000000"
ry="0.000000"
x="404.409241"
y="61.500000"
id="col.pan"
style="fill:#BFBFBA;fill-opacity:1.000000;stroke:black;stroke-width:0.000000;stroke-opacity:0.000000" />


<rect
width="2.485149"
height="21.428571"
rx="0.000000"
ry="0.000000"
x="402.924092"
y="61.500000"
id="col.pan"
style="fill:#BEBEBE;fill-opacity:1.000000;stroke:black;stroke-width:0.000000;stroke-opacity:0.000000" />


<rect
width="2.485149"
height="21.428571"
rx="0.000000"
ry="0.000000"
x="401.438944"
y="61.500000"
id="col.pan"
style="fill:#BABABF;fill-opacity:1.000000;stroke:black;stroke-width:0.000000;stroke-opacity:0.000000" />


<rect
width="2.485149"
height="21.428571"
rx="0.000000"
ry="0.000000"
x="399.953795"
y="61.500000"
id="col.pan"
style="fill:#B6B6C1;fill-opacity:1.000000;stroke:black;stroke-width:0.000000;stroke-opacity:0.000000" />


<rect
width="2.485149"
height="21.428571"
rx="0.000000"
ry="0.000000"
x="398.468647"
y="61.500000"
id="col.pan"
style="fill:#B3B3C2;fill-opacity:1.000000;stroke:black;stroke-width:0.000000;stroke-opacity:0.000000" />


<rect
width="2.485149"
height="21.428571"
rx="0.000000"
ry="0.000000"
x="396.983498"
y="61.500000"
id="col.pan"
style="fill:#AFAFC3;fill-opacity:1.000000;stroke:black;stroke-width:0.000000;stroke-opacity:0.000000" />


<rect
width="2.485149"
height="21.428571"
rx="0.000000"
ry="0.000000"
x="395.498350"
y="61.500000"
id="col.pan"
style="fill:#ABABC5;fill-opacity:1.000000;stroke:black;stroke-width:0.000000;stroke-opacity:0.000000" />


<rect
width="2.485149"
height="21.428571"
rx="0.000000"
ry="0.000000"
x="394.013201"
y="61.500000"
id="col.pan"
style="fill:#A7A7C6;fill-opacity:1.000000;stroke:black;stroke-width:0.000000;stroke-opacity:0.000000" />


<rect
width="2.485149"
height="21.428571"
rx="0.000000"
ry="0.000000"
x="392.528053"
y="61.500000"
id="col.pan"
style="fill:#A3A3C7;fill-opacity:1.000000;stroke:black;stroke-width:0.000000;stroke-opacity:0.000000" />


<rect
width="2.485149"
height="21.428571"
rx="0.000000"
ry="0.000000"
x="391.042904"
y="61.500000"
id="col.pan"
style="fill:#A0A0C8;fill-opacity:1.000000;stroke:black;stroke-width:0.000000;stroke-opacity:0.000000" />


<rect
width="2.485149"
height="21.428571"
rx="0.000000"
ry="0.000000"
x="389.557756"
y="61.500000"
id="col.pan"
style="fill:#9C9CCA;fill-opacity:1.000000;stroke:black;stroke-width:0.000000;stroke-opacity:0.000000" />


<rect
width="2.485149"
height="21.428571"
rx="0.000000"
ry="0.000000"
x="388.072607"
y="61.500000"
id="col.pan"
style="fill:#9898CB;fill-opacity:1.000000;stroke:black;stroke-width:0.000000;stroke-opacity:0.000000" />


<rect
width="2.485149"
height="21.428571"
rx="0.000000"
ry="0.000000"
x="386.587459"
y="61.500000"
id="col.pan"
style="fill:#9494CC;fill-opacity:1.000000;stroke:black;stroke-width:0.000000;stroke-opacity:0.000000" />


<rect
width="2.485149"
height="21.428571"
rx="0.000000"
ry="0.000000"
x="385.102310"
y="61.500000"
id="col.pan"
style="fill:#9090CE;fill-opacity:1.000000;stroke:black;stroke-width:0.000000;stroke-opacity:0.000000" />


<rect
width="2.485149"
height="21.428571"
rx="0.000000"
ry="0.000000"
x="383.617162"
y="61.500000"
id="col.pan"
style="fill:#8D8DCF;fill-opacity:1.000000;stroke:black;stroke-width:0.000000;stroke-opacity:0.000000" />


<rect
width="2.485149"
height="21.428571"
rx="0.000000"
ry="0.000000"
x="382.132013"
y="61.500000"
id="col.pan"
style="fill:#8989D0;fill-opacity:1.000000;stroke:black;stroke-width:0.000000;stroke-opacity:0.000000" />


<rect
width="2.485149"
height="21.428571"
rx="0.000000"
ry="0.000000"
x="380.646865"
y="61.500000"
id="col.pan"
style="fill:#8585D2;fill-opacity:1.000000;stroke:black;stroke-width:0.000000;stroke-opacity:0.000000" />


<rect
width="2.485149"
height="21.428571"
rx="0.000000"
ry="0.000000"
x="379.161716"
y="61.500000"
id="col.pan"
style="fill:#8181D3;fill-opacity:1.000000;stroke:black;stroke-width:0.000000;stroke-opacity:0.000000" />


<rect
width="2.485149"
height="21.428571"
rx="0.000000"
ry="0.000000"
x="377.676568"
y="61.500000"
id="col.pan"
style="fill:#7D7DD4;fill-opacity:1.000000;stroke:black;stroke-width:0.000000;stroke-opacity:0.000000" />


<rect
width="2.485149"
height="21.428571"
rx="0.000000"
ry="0.000000"
x="376.191419"
y="61.500000"
id="col.pan"
style="fill:#7A7AD5;fill-opacity:1.000000;stroke:black;stroke-width:0.000000;stroke-opacity:0.000000" />


<rect
width="2.485149"
height="21.428571"
rx="0.000000"
ry="0.000000"
x="374.706271"
y="61.500000"
id="col.pan"
style="fill:#7676D7;fill-opacity:1.000000;stroke:black;stroke-width:0.000000;stroke-opacity:0.000000" />


<rect
width="2.485149"
height="21.428571"
rx="0.000000"
ry="0.000000"
x="373.221122"
y="61.500000"
id="col.pan"
style="fill:#7272D8;fill-opacity:1.000000;stroke:black;stroke-width:0.000000;stroke-opacity:0.000000" />


<rect
width="2.485149"
height="21.428571"
rx="0.000000"
ry="0.000000"
x="371.735974"
y="61.500000"
id="col.pan"
style="fill:#6E6ED9;fill-opacity:1.000000;stroke:black;stroke-width:0.000000;stroke-opacity:0.000000" />


<rect
width="2.485149"
height="21.428571"
rx="0.000000"
ry="0.000000"
x="370.250825"
y="61.500000"
id="col.pan"
style="fill:#6A6ADB;fill-opacity:1.000000;stroke:black;stroke-width:0.000000;stroke-opacity:0.000000" />


<rect
width="2.485149"
height="21.428571"
rx="0.000000"
ry="0.000000"
x="368.765677"
y="61.500000"
id="col.pan"
style="fill:#6767DC;fill-opacity:1.000000;stroke:black;stroke-width:0.000000;stroke-opacity:0.000000" />


<rect
width="2.485149"
height="21.428571"
rx="0.000000"
ry="0.000000"
x="367.280528"
y="61.500000"
id="col.pan"
style="fill:#6363DD;fill-opacity:1.000000;stroke:black;stroke-width:0.000000;stroke-opacity:0.000000" />


<rect
width="2.485149"
height="21.428571"
rx="0.000000"
ry="0.000000"
x="365.795380"
y="61.500000"
id="col.pan"
style="fill:#5F5FDF;fill-opacity:1.000000;stroke:black;stroke-width:0.000000;stroke-opacity:0.000000" />


<rect
width="2.485149"
height="21.428571"
rx="0.000000"
ry="0.000000"
x="364.310231"
y="61.500000"
id="col.pan"
style="fill:#5B5BE0;fill-opacity:1.000000;stroke:black;stroke-width:0.000000;stroke-opacity:0.000000" />


<rect
width="2.485149"
height="21.428571"
rx="0.000000"
ry="0.000000"
x="362.825083"
y="61.500000"
id="col.pan"
style="fill:#5757E1;fill-opacity:1.000000;stroke:black;stroke-width:0.000000;stroke-opacity:0.000000" />


<rect
width="2.485149"
height="21.428571"
rx="0.000000"
ry="0.000000"
x="361.339934"
y="61.500000"
id="col.pan"
style="fill:#5454E2;fill-opacity:1.000000;stroke:black;stroke-width:0.000000;stroke-opacity:0.000000" />


<rect
width="2.485149"
height="21.428571"
rx="0.000000"
ry="0.000000"
x="359.854785"
y="61.500000"
id="col.pan"
style="fill:#5050E4;fill-opacity:1.000000;stroke:black;stroke-width:0.000000;stroke-opacity:0.000000" />


<rect
width="2.485149"
height="21.428571"
rx="0.000000"
ry="0.000000"
x="358.369637"
y="61.500000"
id="col.pan"
style="fill:#4C4CE5;fill-opacity:1.000000;stroke:black;stroke-width:0.000000;stroke-opacity:0.000000" />


<rect
width="2.485149"
height="21.428571"
rx="0.000000"
ry="0.000000"
x="356.884488"
y="61.500000"
id="col.pan"
style="fill:#4848E6;fill-opacity:1.000000;stroke:black;stroke-width:0.000000;stroke-opacity:0.000000" />


<rect
width="2.485149"
height="21.428571"
rx="0.000000"
ry="0.000000"
x="355.399340"
y="61.500000"
id="col.pan"
style="fill:#4444E8;fill-opacity:1.000000;stroke:black;stroke-width:0.000000;stroke-opacity:0.000000" />


<rect
width="2.485149"
height="21.428571"
rx="0.000000"
ry="0.000000"
x="353.914191"
y="61.500000"
id="col.pan"
style="fill:#4141E9;fill-opacity:1.000000;stroke:black;stroke-width:0.000000;stroke-opacity:0.000000" />


<rect
width="2.485149"
height="21.428571"
rx="0.000000"
ry="0.000000"
x="352.429043"
y="61.500000"
id="col.pan"
style="fill:#3D3DEA;fill-opacity:1.000000;stroke:black;stroke-width:0.000000;stroke-opacity:0.000000" />


<rect
width="2.485149"
height="21.428571"
rx="0.000000"
ry="0.000000"
x="350.943894"
y="61.500000"
id="col.pan"
style="fill:#3939EC;fill-opacity:1.000000;stroke:black;stroke-width:0.000000;stroke-opacity:0.000000" />


<rect
width="2.485149"
height="21.428571"
rx="0.000000"
ry="0.000000"
x="349.458746"
y="61.500000"
id="col.pan"
style="fill:#3535ED;fill-opacity:1.000000;stroke:black;stroke-width:0.000000;stroke-opacity:0.000000" />


<rect
width="2.485149"
height="21.428571"
rx="0.000000"
ry="0.000000"
x="347.973597"
y="61.500000"
id="col.pan"
style="fill:#3131EE;fill-opacity:1.000000;stroke:black;stroke-width:0.000000;stroke-opacity:0.000000" />


<rect
width="2.485149"
height="21.428571"
rx="0.000000"
ry="0.000000"
x="346.488449"
y="61.500000"
id="col.pan"
style="fill:#2E2EEF;fill-opacity:1.000000;stroke:black;stroke-width:0.000000;stroke-opacity:0.000000" />


<rect
width="2.485149"
height="21.428571"
rx="0.000000"
ry="0.000000"
x="345.003300"
y="61.500000"
id="col.pan"
style="fill:#2A2AF1;fill-opacity:1.000000;stroke:black;stroke-width:0.000000;stroke-opacity:0.000000" />


<rect
width="2.485149"
height="21.428571"
rx="0.000000"
ry="0.000000"
x="343.518152"
y="61.500000"
id="col.pan"
style="fill:#2626F2;fill-opacity:1.000000;stroke:black;stroke-width:0.000000;stroke-opacity:0.000000" />


<rect
width="2.485149"
height="21.428571"
rx="0.000000"
ry="0.000000"
x="342.033003"
y="61.500000"
id="col.pan"
style="fill:#2222F3;fill-opacity:1.000000;stroke:black;stroke-width:0.000000;stroke-opacity:0.000000" />


<rect
width="2.485149"
height="21.428571"
rx="0.000000"
ry="0.000000"
x="340.547855"
y="61.500000"
id="col.pan"
style="fill:#1E1EF5;fill-opacity:1.000000;stroke:black;stroke-width:0.000000;stroke-opacity:0.000000" />


<rect
width="2.485149"
height="21.428571"
rx="0.000000"
ry="0.000000"
x="339.062706"
y="61.500000"
id="col.pan"
style="fill:#1B1BF6;fill-opacity:1.000000;stroke:black;stroke-width:0.000000;stroke-opacity:0.000000" />


<rect
width="2.485149"
height="21.428571"
rx="0.000000"
ry="0.000000"
x="337.577558"
y="61.500000"
id="col.pan"
style="fill:#1717F7;fill-opacity:1.000000;stroke:black;stroke-width:0.000000;stroke-opacity:0.000000" />


<rect
width="2.485149"
height="21.428571"
rx="0.000000"
ry="0.000000"
x="336.092409"
y="61.500000"
id="col.pan"
style="fill:#1313F9;fill-opacity:1.000000;stroke:black;stroke-width:0.000000;stroke-opacity:0.000000" />


<rect
width="2.485149"
height="21.428571"
rx="0.000000"
ry="0.000000"
x="334.607261"
y="61.500000"
id="col.pan"
style="fill:#0F0FFA;fill-opacity:1.000000;stroke:black;stroke-width:0.000000;stroke-opacity:0.000000" />


<rect
width="2.485149"
height="21.428571"
rx="0.000000"
ry="0.000000"
x="333.122112"
y="61.500000"
id="col.pan"
style="fill:#0B0BFB;fill-opacity:1.000000;stroke:black;stroke-width:0.000000;stroke-opacity:0.000000" />


<rect
width="2.485149"
height="21.428571"
rx="0.000000"
ry="0.000000"
x="331.636964"
y="61.500000"
id="col.pan"
style="fill:#0808FC;fill-opacity:1.000000;stroke:black;stroke-width:0.000000;stroke-opacity:0.000000" />


<rect
width="2.485149"
height="21.428571"
rx="0.000000"
ry="0.000000"
x="330.151815"
y="61.500000"
id="col.pan"
style="fill:#0404FE;fill-opacity:1.000000;stroke:black;stroke-width:0.000000;stroke-opacity:0.000000" />


<rect
width="2.485149"
height="21.428571"
rx="0.000000"
ry="0.000000"
x="328.666667"
y="61.500000"
id="col.pan"
style="fill:#0000FF;fill-opacity:1.000000;stroke:black;stroke-width:0.000000;stroke-opacity:0.000000" />


<line
x1="328.666666666667" y1="61.5" x2="328.666666666667" y2="88.2857142857143"
id="tick"
style="stroke:black;stroke-width:2.000000;stroke-opacity:1" />


<line
x1="343.666666666667" y1="61.5" x2="343.666666666667" y2="88.2857142857143"
id="tick"
style="stroke:black;stroke-width:2.000000;stroke-opacity:1" />


<line
x1="358.666666666667" y1="61.5" x2="358.666666666667" y2="88.2857142857143"
id="tick"
style="stroke:black;stroke-width:2.000000;stroke-opacity:1" />


<line
x1="373.666666666667" y1="61.5" x2="373.666666666667" y2="88.2857142857143"
id="tick"
style="stroke:black;stroke-width:2.000000;stroke-opacity:1" />


<line
x1="388.666666666667" y1="61.5" x2="388.666666666667" y2="88.2857142857143"
id="tick"
style="stroke:black;stroke-width:2.000000;stroke-opacity:1" />


<line
x1="403.666666666667" y1="61.5" x2="403.666666666667" y2="88.2857142857143"
id="tick"
style="stroke:black;stroke-width:2.000000;stroke-opacity:1" />


<line
x1="418.666666666667" y1="61.5" x2="418.666666666667" y2="88.2857142857143"
id="tick"
style="stroke:black;stroke-width:2.000000;stroke-opacity:1" />


<line
x1="433.666666666667" y1="61.5" x2="433.666666666667" y2="88.2857142857143"
id="tick"
style="stroke:black;stroke-width:2.000000;stroke-opacity:1" />


<line
x1="448.666666666667" y1="61.5" x2="448.666666666667" y2="88.2857142857143"
id="tick"
style="stroke:black;stroke-width:2.000000;stroke-opacity:1" />


<line
x1="463.666666666667" y1="61.5" x2="463.666666666667" y2="88.2857142857143"
id="tick"
style="stroke:black;stroke-width:2.000000;stroke-opacity:1" />


<line
x1="478.666666666667" y1="61.5" x2="478.666666666667" y2="88.2857142857143"
id="tick"
style="stroke:black;stroke-width:2.000000;stroke-opacity:1" />


<text
x="477.924092"
y="111.500000"
id="color.panel.max.value"
style="font-size:21.428571px;text-anchor:middle;font-family:Arial,Helvetica;alignment-baseline:baseline;stroke.opacity:1;dominant-baseline:baseline"
fill="black"
>
1</text>


<text
x="329.409241"
y="111.500000"
id="color.panel.low.value"
style="font-size:21.428571px;text-anchor:middle;font-family:Arial,Helvetica;alignment-baseline:baseline;stroke.opacity:1;dominant-baseline:baseline"
fill="black"
>
-1</text>


<text
x="405.151815"
y="111.500000"
id="color.panel.mid.value"
style="font-size:21.428571px;text-anchor:middle;font-family:Arial,Helvetica;alignment-baseline:baseline;stroke.opacity:1;dominant-baseline:baseline"
fill="black"
>
0</text>

</svg>
