<?xml version="1.0" encoding="UTF-8"?>
<svg width="747.500000" height="600.788383"
xmlns="http://www.w3.org/2000/svg" xmlns:svg="http://www.w3.org/2000/svg"
>
<metadata id="metadata7">image/svg+xml</metadata>



<path
d="M 100 441.288383248865 100 470.288383248865 105.5 475.788383248865 164.5 475.788383248865 170 470.288383248865 170 441.288383248865 164.5 435.788383248865 105.5 435.788383248865 Z"
id="wikipathways_WP438_c6ab2"
style="fill:white;fill-opacity:0.600000;stroke-width:1;stroke:black;stroke-opacity:1.000000"
transform = "rotate(0.000000 0.000000 0.000000)"
/>


<text
x="135.000000"
y="455.788383"
id="wikipathways_WP438_c6ab2"
style="font-size:18.000000px;text-anchor:middle;font-family:Arial,Helvetica;alignment-baseline:baseline;stroke.opacity:1;dominant-baseline:baseline"
fill="black"
>
noname</text>



<rect
width="26.666667"
height="26.666667"
rx="0.000000"
ry="0.000000"
x="100.000000"
y="150.000000"
id="wikipathways_WP438_ad5af"
style="fill:white;fill-opacity:0.600000;stroke:black;stroke-width:1.000000;stroke-opacity:1.000000" />



<text
x="113.333333"
y="171.333333"
id="wikipathways_WP438_ad5af"
style="font-size:24.000000px;text-anchor:middle;font-family:Arial,Helvetica;alignment-baseline:baseline;stroke.opacity:1;dominant-baseline:baseline"
fill="black"
>
\\</text>




<path
d="M 347.5 292.894191624432 Q 347.5 292.894191624432 347.5 292.894191624432 L 365 292.894191624432 Q 365 292.894191624432 365 292.894191624432 L 365 332.894191624432 Q 365 332.894191624432 365 332.894191624432 L 351.5 332.894191624432 Q 347.5 332.894191624432 347.5 328.894191624432 Z"
id="wikipathways_WP438_a98"
style="fill:#00FF00;fill-opacity:1.000000;stroke-width:0.5;stroke:black;stroke-opacity:0.000000"
transform = "rotate(0.000000 0.000000 0.000000)"
/>


<text
x="356.250000"
y="314.394192"
id="wikipathways_WP438_a98"
style="font-size:4.500000px;text-anchor:middle;font-family:Arial,Helvetica;alignment-baseline:baseline;stroke.opacity:1;dominant-baseline:baseline"
fill="black"
>
 </text>



<path
d="M 365 292.894191624432 Q 365 292.894191624432 365 292.894191624432 L 382.5 292.894191624432 Q 382.5 292.894191624432 382.5 292.894191624432 L 382.5 332.894191624432 Q 382.5 332.894191624432 382.5 332.894191624432 L 365 332.894191624432 Q 365 332.894191624432 365 332.894191624432 Z"
id="wikipathways_WP438_a98"
style="fill:#00FF00;fill-opacity:1.000000;stroke-width:0.5;stroke:black;stroke-opacity:0.000000"
transform = "rotate(0.000000 0.000000 0.000000)"
/>


<text
x="373.750000"
y="314.394192"
id="wikipathways_WP438_a98"
style="font-size:4.500000px;text-anchor:middle;font-family:Arial,Helvetica;alignment-baseline:baseline;stroke.opacity:1;dominant-baseline:baseline"
fill="black"
>
 </text>



<path
d="M 382.5 292.894191624432 Q 382.5 292.894191624432 382.5 292.894191624432 L 400 292.894191624432 Q 400 292.894191624432 400 292.894191624432 L 400 332.894191624432 Q 400 332.894191624432 400 332.894191624432 L 382.5 332.894191624432 Q 382.5 332.894191624432 382.5 332.894191624432 Z"
id="wikipathways_WP438_a98"
style="fill:#00FF00;fill-opacity:1.000000;stroke-width:0.5;stroke:black;stroke-opacity:0.000000"
transform = "rotate(0.000000 0.000000 0.000000)"
/>


<text
x="391.250000"
y="314.394192"
id="wikipathways_WP438_a98"
style="font-size:4.500000px;text-anchor:middle;font-family:Arial,Helvetica;alignment-baseline:baseline;stroke.opacity:1;dominant-baseline:baseline"
fill="black"
>
 </text>



<path
d="M 400 292.894191624432 Q 400 292.894191624432 400 292.894191624432 L 417.5 292.894191624432 Q 417.5 292.894191624432 417.5 292.894191624432 L 417.5 328.894191624432 Q 417.5 332.894191624432 413.5 332.894191624432 L 400 332.894191624432 Q 400 332.894191624432 400 332.894191624432 Z"
id="wikipathways_WP438_a98"
style="fill:#00FF00;fill-opacity:1.000000;stroke-width:0.5;stroke:black;stroke-opacity:0.000000"
transform = "rotate(0.000000 0.000000 0.000000)"
/>


<text
x="408.750000"
y="314.394192"
id="wikipathways_WP438_a98"
style="font-size:4.500000px;text-anchor:middle;font-family:Arial,Helvetica;alignment-baseline:baseline;stroke.opacity:1;dominant-baseline:baseline"
fill="black"
>
 </text>


<path
d="M 347.5 292.894191624432 Q 347.5 292.894191624432 347.5 292.894191624432 L 417.5 292.894191624432 Q 417.5 292.894191624432 417.5 292.894191624432 L 417.5 325.894191624432 Q 417.5 332.894191624432 410.5 332.894191624432 L 354.5 332.894191624432 Q 347.5 332.894191624432 347.5 325.894191624432 Z"
id="wikipathways_WP438_a98"
style="fill:#00FF00;fill-opacity:0.000000;stroke-width:1;stroke:black;stroke-opacity:1.000000"
transform = "rotate(0.000000 0.000000 0.000000)"
/>


<text
x="382.500000"
y="318.894192"
id="wikipathways_WP438_a98"
style="font-size:18.000000px;text-anchor:middle;font-family:Arial,Helvetica;alignment-baseline:baseline;stroke.opacity:1;dominant-baseline:baseline"
fill="black"
>
Ligase V</text>


<rect
width="35.000000"
height="17.500000"
rx="0.000000"
ry="0.000000"
x="347.500000"
y="284.144192"
id="wikipathways_WP438_a98.info.1"
style="fill:white;fill-opacity:1.000000;stroke:black;stroke-width:1.000000;stroke-opacity:1.000000" />


<text
x="365.000000"
y="295.894192"
id="wikipathways_WP438_a98.info.1"
style="font-size:9.000000px;text-anchor:middle;font-family:Arial,Helvetica;alignment-baseline:baseline;stroke.opacity:1;dominant-baseline:baseline"
fill="black"
>
mt:DNA</text>




<path d="M126.000000 170.000000 C 166.000000 193.000000, 287.000000 259.000000,347.000000 293.000000" stroke="black"  fill="transparent"/>

<line
x1="287" y1="259" x2="347" y2="293"
id="0"
style="stroke:black;stroke-width:1.000000;stroke-opacity:0" />


<line
x1="166" y1="193" x2="126" y2="170"
id="wikipathways_WP438_a98--to--wikipathways_WP438_ad5af-input"
style="stroke:black;stroke-width:1.000000;stroke-opacity:0" />


<polygon
points = "126,170 112.8,165.6 117.2,170 112.8,174.4"
id="line"
style="fill:black; stroke:#000000; stroke-width:1"
transform = "rotate(209.898902 126.000000 170.000000)"
/>


<path d="M114.000000 177.000000 C 117.000000 224.000000, 129.000000 379.000000,133.000000 435.000000" stroke="black"  fill="transparent"/>

<line
x1="129" y1="379" x2="133" y2="435"
id="0"
style="stroke:black;stroke-width:1.000000;stroke-opacity:0" />


<line
x1="117" y1="224" x2="114" y2="177"
id="wikipathways_WP438_c6ab2--to--wikipathways_WP438_ad5af-input"
style="stroke:black;stroke-width:1.000000;stroke-opacity:0" />


<polygon
points = "114,177 100.8,172.6 105.2,177 100.8,181.4"
id="line"
style="fill:black; stroke:#000000; stroke-width:1"
transform = "rotate(266.347777 114.000000 177.000000)"
/>





<rect
width="2.485149"
height="21.428571"
rx="0.000000"
ry="0.000000"
x="416.014851"
y="150.000000"
id="col.pan"
style="fill:#FF0000;fill-opacity:1.000000;stroke:black;stroke-width:0.000000;stroke-opacity:0.000000" />


<rect
width="2.485149"
height="21.428571"
rx="0.000000"
ry="0.000000"
x="414.529703"
y="150.000000"
id="col.pan"
style="fill:#FE0404;fill-opacity:1.000000;stroke:black;stroke-width:0.000000;stroke-opacity:0.000000" />


<rect
width="2.485149"
height="21.428571"
rx="0.000000"
ry="0.000000"
x="413.044554"
y="150.000000"
id="col.pan"
style="fill:#FC0808;fill-opacity:1.000000;stroke:black;stroke-width:0.000000;stroke-opacity:0.000000" />


<rect
width="2.485149"
height="21.428571"
rx="0.000000"
ry="0.000000"
x="411.559406"
y="150.000000"
id="col.pan"
style="fill:#FB0B0B;fill-opacity:1.000000;stroke:black;stroke-width:0.000000;stroke-opacity:0.000000" />


<rect
width="2.485149"
height="21.428571"
rx="0.000000"
ry="0.000000"
x="410.074257"
y="150.000000"
id="col.pan"
style="fill:#FA0F0F;fill-opacity:1.000000;stroke:black;stroke-width:0.000000;stroke-opacity:0.000000" />


<rect
width="2.485149"
height="21.428571"
rx="0.000000"
ry="0.000000"
x="408.589109"
y="150.000000"
id="col.pan"
style="fill:#F91313;fill-opacity:1.000000;stroke:black;stroke-width:0.000000;stroke-opacity:0.000000" />


<rect
width="2.485149"
height="21.428571"
rx="0.000000"
ry="0.000000"
x="407.103960"
y="150.000000"
id="col.pan"
style="fill:#F71717;fill-opacity:1.000000;stroke:black;stroke-width:0.000000;stroke-opacity:0.000000" />


<rect
width="2.485149"
height="21.428571"
rx="0.000000"
ry="0.000000"
x="405.618812"
y="150.000000"
id="col.pan"
style="fill:#F61B1B;fill-opacity:1.000000;stroke:black;stroke-width:0.000000;stroke-opacity:0.000000" />


<rect
width="2.485149"
height="21.428571"
rx="0.000000"
ry="0.000000"
x="404.133663"
y="150.000000"
id="col.pan"
style="fill:#F51E1E;fill-opacity:1.000000;stroke:black;stroke-width:0.000000;stroke-opacity:0.000000" />


<rect
width="2.485149"
height="21.428571"
rx="0.000000"
ry="0.000000"
x="402.648515"
y="150.000000"
id="col.pan"
style="fill:#F32222;fill-opacity:1.000000;stroke:black;stroke-width:0.000000;stroke-opacity:0.000000" />


<rect
width="2.485149"
height="21.428571"
rx="0.000000"
ry="0.000000"
x="401.163366"
y="150.000000"
id="col.pan"
style="fill:#F22626;fill-opacity:1.000000;stroke:black;stroke-width:0.000000;stroke-opacity:0.000000" />


<rect
width="2.485149"
height="21.428571"
rx="0.000000"
ry="0.000000"
x="399.678218"
y="150.000000"
id="col.pan"
style="fill:#F12A2A;fill-opacity:1.000000;stroke:black;stroke-width:0.000000;stroke-opacity:0.000000" />


<rect
width="2.485149"
height="21.428571"
rx="0.000000"
ry="0.000000"
x="398.193069"
y="150.000000"
id="col.pan"
style="fill:#EF2E2E;fill-opacity:1.000000;stroke:black;stroke-width:0.000000;stroke-opacity:0.000000" />


<rect
width="2.485149"
height="21.428571"
rx="0.000000"
ry="0.000000"
x="396.707921"
y="150.000000"
id="col.pan"
style="fill:#EE3131;fill-opacity:1.000000;stroke:black;stroke-width:0.000000;stroke-opacity:0.000000" />


<rect
width="2.485149"
height="21.428571"
rx="0.000000"
ry="0.000000"
x="395.222772"
y="150.000000"
id="col.pan"
style="fill:#ED3535;fill-opacity:1.000000;stroke:black;stroke-width:0.000000;stroke-opacity:0.000000" />


<rect
width="2.485149"
height="21.428571"
rx="0.000000"
ry="0.000000"
x="393.737624"
y="150.000000"
id="col.pan"
style="fill:#EC3939;fill-opacity:1.000000;stroke:black;stroke-width:0.000000;stroke-opacity:0.000000" />


<rect
width="2.485149"
height="21.428571"
rx="0.000000"
ry="0.000000"
x="392.252475"
y="150.000000"
id="col.pan"
style="fill:#EA3D3D;fill-opacity:1.000000;stroke:black;stroke-width:0.000000;stroke-opacity:0.000000" />


<rect
width="2.485149"
height="21.428571"
rx="0.000000"
ry="0.000000"
x="390.767327"
y="150.000000"
id="col.pan"
style="fill:#E94141;fill-opacity:1.000000;stroke:black;stroke-width:0.000000;stroke-opacity:0.000000" />


<rect
width="2.485149"
height="21.428571"
rx="0.000000"
ry="0.000000"
x="389.282178"
y="150.000000"
id="col.pan"
style="fill:#E84444;fill-opacity:1.000000;stroke:black;stroke-width:0.000000;stroke-opacity:0.000000" />


<rect
width="2.485149"
height="21.428571"
rx="0.000000"
ry="0.000000"
x="387.797030"
y="150.000000"
id="col.pan"
style="fill:#E64848;fill-opacity:1.000000;stroke:black;stroke-width:0.000000;stroke-opacity:0.000000" />


<rect
width="2.485149"
height="21.428571"
rx="0.000000"
ry="0.000000"
x="386.311881"
y="150.000000"
id="col.pan"
style="fill:#E54C4C;fill-opacity:1.000000;stroke:black;stroke-width:0.000000;stroke-opacity:0.000000" />


<rect
width="2.485149"
height="21.428571"
rx="0.000000"
ry="0.000000"
x="384.826733"
y="150.000000"
id="col.pan"
style="fill:#E45050;fill-opacity:1.000000;stroke:black;stroke-width:0.000000;stroke-opacity:0.000000" />


<rect
width="2.485149"
height="21.428571"
rx="0.000000"
ry="0.000000"
x="383.341584"
y="150.000000"
id="col.pan"
style="fill:#E25454;fill-opacity:1.000000;stroke:black;stroke-width:0.000000;stroke-opacity:0.000000" />


<rect
width="2.485149"
height="21.428571"
rx="0.000000"
ry="0.000000"
x="381.856436"
y="150.000000"
id="col.pan"
style="fill:#E15757;fill-opacity:1.000000;stroke:black;stroke-width:0.000000;stroke-opacity:0.000000" />


<rect
width="2.485149"
height="21.428571"
rx="0.000000"
ry="0.000000"
x="380.371287"
y="150.000000"
id="col.pan"
style="fill:#E05B5B;fill-opacity:1.000000;stroke:black;stroke-width:0.000000;stroke-opacity:0.000000" />


<rect
width="2.485149"
height="21.428571"
rx="0.000000"
ry="0.000000"
x="378.886139"
y="150.000000"
id="col.pan"
style="fill:#DF5F5F;fill-opacity:1.000000;stroke:black;stroke-width:0.000000;stroke-opacity:0.000000" />


<rect
width="2.485149"
height="21.428571"
rx="0.000000"
ry="0.000000"
x="377.400990"
y="150.000000"
id="col.pan"
style="fill:#DD6363;fill-opacity:1.000000;stroke:black;stroke-width:0.000000;stroke-opacity:0.000000" />


<rect
width="2.485149"
height="21.428571"
rx="0.000000"
ry="0.000000"
x="375.915842"
y="150.000000"
id="col.pan"
style="fill:#DC6767;fill-opacity:1.000000;stroke:black;stroke-width:0.000000;stroke-opacity:0.000000" />


<rect
width="2.485149"
height="21.428571"
rx="0.000000"
ry="0.000000"
x="374.430693"
y="150.000000"
id="col.pan"
style="fill:#DB6A6A;fill-opacity:1.000000;stroke:black;stroke-width:0.000000;stroke-opacity:0.000000" />


<rect
width="2.485149"
height="21.428571"
rx="0.000000"
ry="0.000000"
x="372.945545"
y="150.000000"
id="col.pan"
style="fill:#D96E6E;fill-opacity:1.000000;stroke:black;stroke-width:0.000000;stroke-opacity:0.000000" />


<rect
width="2.485149"
height="21.428571"
rx="0.000000"
ry="0.000000"
x="371.460396"
y="150.000000"
id="col.pan"
style="fill:#D87272;fill-opacity:1.000000;stroke:black;stroke-width:0.000000;stroke-opacity:0.000000" />


<rect
width="2.485149"
height="21.428571"
rx="0.000000"
ry="0.000000"
x="369.975248"
y="150.000000"
id="col.pan"
style="fill:#D77676;fill-opacity:1.000000;stroke:black;stroke-width:0.000000;stroke-opacity:0.000000" />


<rect
width="2.485149"
height="21.428571"
rx="0.000000"
ry="0.000000"
x="368.490099"
y="150.000000"
id="col.pan"
style="fill:#D57A7A;fill-opacity:1.000000;stroke:black;stroke-width:0.000000;stroke-opacity:0.000000" />


<rect
width="2.485149"
height="21.428571"
rx="0.000000"
ry="0.000000"
x="367.004950"
y="150.000000"
id="col.pan"
style="fill:#D47D7D;fill-opacity:1.000000;stroke:black;stroke-width:0.000000;stroke-opacity:0.000000" />


<rect
width="2.485149"
height="21.428571"
rx="0.000000"
ry="0.000000"
x="365.519802"
y="150.000000"
id="col.pan"
style="fill:#D38181;fill-opacity:1.000000;stroke:black;stroke-width:0.000000;stroke-opacity:0.000000" />


<rect
width="2.485149"
height="21.428571"
rx="0.000000"
ry="0.000000"
x="364.034653"
y="150.000000"
id="col.pan"
style="fill:#D28585;fill-opacity:1.000000;stroke:black;stroke-width:0.000000;stroke-opacity:0.000000" />


<rect
width="2.485149"
height="21.428571"
rx="0.000000"
ry="0.000000"
x="362.549505"
y="150.000000"
id="col.pan"
style="fill:#D08989;fill-opacity:1.000000;stroke:black;stroke-width:0.000000;stroke-opacity:0.000000" />


<rect
width="2.485149"
height="21.428571"
rx="0.000000"
ry="0.000000"
x="361.064356"
y="150.000000"
id="col.pan"
style="fill:#CF8D8D;fill-opacity:1.000000;stroke:black;stroke-width:0.000000;stroke-opacity:0.000000" />


<rect
width="2.485149"
height="21.428571"
rx="0.000000"
ry="0.000000"
x="359.579208"
y="150.000000"
id="col.pan"
style="fill:#CE9090;fill-opacity:1.000000;stroke:black;stroke-width:0.000000;stroke-opacity:0.000000" />


<rect
width="2.485149"
height="21.428571"
rx="0.000000"
ry="0.000000"
x="358.094059"
y="150.000000"
id="col.pan"
style="fill:#CC9494;fill-opacity:1.000000;stroke:black;stroke-width:0.000000;stroke-opacity:0.000000" />


<rect
width="2.485149"
height="21.428571"
rx="0.000000"
ry="0.000000"
x="356.608911"
y="150.000000"
id="col.pan"
style="fill:#CB9898;fill-opacity:1.000000;stroke:black;stroke-width:0.000000;stroke-opacity:0.000000" />


<rect
width="2.485149"
height="21.428571"
rx="0.000000"
ry="0.000000"
x="355.123762"
y="150.000000"
id="col.pan"
style="fill:#CA9C9C;fill-opacity:1.000000;stroke:black;stroke-width:0.000000;stroke-opacity:0.000000" />


<rect
width="2.485149"
height="21.428571"
rx="0.000000"
ry="0.000000"
x="353.638614"
y="150.000000"
id="col.pan"
style="fill:#C8A0A0;fill-opacity:1.000000;stroke:black;stroke-width:0.000000;stroke-opacity:0.000000" />


<rect
width="2.485149"
height="21.428571"
rx="0.000000"
ry="0.000000"
x="352.153465"
y="150.000000"
id="col.pan"
style="fill:#C7A3A3;fill-opacity:1.000000;stroke:black;stroke-width:0.000000;stroke-opacity:0.000000" />


<rect
width="2.485149"
height="21.428571"
rx="0.000000"
ry="0.000000"
x="350.668317"
y="150.000000"
id="col.pan"
style="fill:#C6A7A7;fill-opacity:1.000000;stroke:black;stroke-width:0.000000;stroke-opacity:0.000000" />


<rect
width="2.485149"
height="21.428571"
rx="0.000000"
ry="0.000000"
x="349.183168"
y="150.000000"
id="col.pan"
style="fill:#C5ABAB;fill-opacity:1.000000;stroke:black;stroke-width:0.000000;stroke-opacity:0.000000" />


<rect
width="2.485149"
height="21.428571"
rx="0.000000"
ry="0.000000"
x="347.698020"
y="150.000000"
id="col.pan"
style="fill:#C3AFAF;fill-opacity:1.000000;stroke:black;stroke-width:0.000000;stroke-opacity:0.000000" />


<rect
width="2.485149"
height="21.428571"
rx="0.000000"
ry="0.000000"
x="346.212871"
y="150.000000"
id="col.pan"
style="fill:#C2B3B3;fill-opacity:1.000000;stroke:black;stroke-width:0.000000;stroke-opacity:0.000000" />


<rect
width="2.485149"
height="21.428571"
rx="0.000000"
ry="0.000000"
x="344.727723"
y="150.000000"
id="col.pan"
style="fill:#C1B6B6;fill-opacity:1.000000;stroke:black;stroke-width:0.000000;stroke-opacity:0.000000" />


<rect
width="2.485149"
height="21.428571"
rx="0.000000"
ry="0.000000"
x="343.242574"
y="150.000000"
id="col.pan"
style="fill:#BFBABA;fill-opacity:1.000000;stroke:black;stroke-width:0.000000;stroke-opacity:0.000000" />


<rect
width="2.485149"
height="21.428571"
rx="0.000000"
ry="0.000000"
x="341.757426"
y="150.000000"
id="col.pan"
style="fill:#BEBEBE;fill-opacity:1.000000;stroke:black;stroke-width:0.000000;stroke-opacity:0.000000" />


<rect
width="2.485149"
height="21.428571"
rx="0.000000"
ry="0.000000"
x="340.272277"
y="150.000000"
id="col.pan"
style="fill:#BABFBA;fill-opacity:1.000000;stroke:black;stroke-width:0.000000;stroke-opacity:0.000000" />


<rect
width="2.485149"
height="21.428571"
rx="0.000000"
ry="0.000000"
x="338.787129"
y="150.000000"
id="col.pan"
style="fill:#B6C1B6;fill-opacity:1.000000;stroke:black;stroke-width:0.000000;stroke-opacity:0.000000" />


<rect
width="2.485149"
height="21.428571"
rx="0.000000"
ry="0.000000"
x="337.301980"
y="150.000000"
id="col.pan"
style="fill:#B3C2B3;fill-opacity:1.000000;stroke:black;stroke-width:0.000000;stroke-opacity:0.000000" />


<rect
width="2.485149"
height="21.428571"
rx="0.000000"
ry="0.000000"
x="335.816832"
y="150.000000"
id="col.pan"
style="fill:#AFC3AF;fill-opacity:1.000000;stroke:black;stroke-width:0.000000;stroke-opacity:0.000000" />


<rect
width="2.485149"
height="21.428571"
rx="0.000000"
ry="0.000000"
x="334.331683"
y="150.000000"
id="col.pan"
style="fill:#ABC5AB;fill-opacity:1.000000;stroke:black;stroke-width:0.000000;stroke-opacity:0.000000" />


<rect
width="2.485149"
height="21.428571"
rx="0.000000"
ry="0.000000"
x="332.846535"
y="150.000000"
id="col.pan"
style="fill:#A7C6A7;fill-opacity:1.000000;stroke:black;stroke-width:0.000000;stroke-opacity:0.000000" />


<rect
width="2.485149"
height="21.428571"
rx="0.000000"
ry="0.000000"
x="331.361386"
y="150.000000"
id="col.pan"
style="fill:#A3C7A3;fill-opacity:1.000000;stroke:black;stroke-width:0.000000;stroke-opacity:0.000000" />


<rect
width="2.485149"
height="21.428571"
rx="0.000000"
ry="0.000000"
x="329.876238"
y="150.000000"
id="col.pan"
style="fill:#A0C8A0;fill-opacity:1.000000;stroke:black;stroke-width:0.000000;stroke-opacity:0.000000" />


<rect
width="2.485149"
height="21.428571"
rx="0.000000"
ry="0.000000"
x="328.391089"
y="150.000000"
id="col.pan"
style="fill:#9CCA9C;fill-opacity:1.000000;stroke:black;stroke-width:0.000000;stroke-opacity:0.000000" />


<rect
width="2.485149"
height="21.428571"
rx="0.000000"
ry="0.000000"
x="326.905941"
y="150.000000"
id="col.pan"
style="fill:#98CB98;fill-opacity:1.000000;stroke:black;stroke-width:0.000000;stroke-opacity:0.000000" />


<rect
width="2.485149"
height="21.428571"
rx="0.000000"
ry="0.000000"
x="325.420792"
y="150.000000"
id="col.pan"
style="fill:#94CC94;fill-opacity:1.000000;stroke:black;stroke-width:0.000000;stroke-opacity:0.000000" />


<rect
width="2.485149"
height="21.428571"
rx="0.000000"
ry="0.000000"
x="323.935644"
y="150.000000"
id="col.pan"
style="fill:#90CE90;fill-opacity:1.000000;stroke:black;stroke-width:0.000000;stroke-opacity:0.000000" />


<rect
width="2.485149"
height="21.428571"
rx="0.000000"
ry="0.000000"
x="322.450495"
y="150.000000"
id="col.pan"
style="fill:#8DCF8D;fill-opacity:1.000000;stroke:black;stroke-width:0.000000;stroke-opacity:0.000000" />


<rect
width="2.485149"
height="21.428571"
rx="0.000000"
ry="0.000000"
x="320.965347"
y="150.000000"
id="col.pan"
style="fill:#89D089;fill-opacity:1.000000;stroke:black;stroke-width:0.000000;stroke-opacity:0.000000" />


<rect
width="2.485149"
height="21.428571"
rx="0.000000"
ry="0.000000"
x="319.480198"
y="150.000000"
id="col.pan"
style="fill:#85D285;fill-opacity:1.000000;stroke:black;stroke-width:0.000000;stroke-opacity:0.000000" />


<rect
width="2.485149"
height="21.428571"
rx="0.000000"
ry="0.000000"
x="317.995050"
y="150.000000"
id="col.pan"
style="fill:#81D381;fill-opacity:1.000000;stroke:black;stroke-width:0.000000;stroke-opacity:0.000000" />


<rect
width="2.485149"
height="21.428571"
rx="0.000000"
ry="0.000000"
x="316.509901"
y="150.000000"
id="col.pan"
style="fill:#7DD47D;fill-opacity:1.000000;stroke:black;stroke-width:0.000000;stroke-opacity:0.000000" />


<rect
width="2.485149"
height="21.428571"
rx="0.000000"
ry="0.000000"
x="315.024752"
y="150.000000"
id="col.pan"
style="fill:#7AD57A;fill-opacity:1.000000;stroke:black;stroke-width:0.000000;stroke-opacity:0.000000" />


<rect
width="2.485149"
height="21.428571"
rx="0.000000"
ry="0.000000"
x="313.539604"
y="150.000000"
id="col.pan"
style="fill:#76D776;fill-opacity:1.000000;stroke:black;stroke-width:0.000000;stroke-opacity:0.000000" />


<rect
width="2.485149"
height="21.428571"
rx="0.000000"
ry="0.000000"
x="312.054455"
y="150.000000"
id="col.pan"
style="fill:#72D872;fill-opacity:1.000000;stroke:black;stroke-width:0.000000;stroke-opacity:0.000000" />


<rect
width="2.485149"
height="21.428571"
rx="0.000000"
ry="0.000000"
x="310.569307"
y="150.000000"
id="col.pan"
style="fill:#6ED96E;fill-opacity:1.000000;stroke:black;stroke-width:0.000000;stroke-opacity:0.000000" />


<rect
width="2.485149"
height="21.428571"
rx="0.000000"
ry="0.000000"
x="309.084158"
y="150.000000"
id="col.pan"
style="fill:#6ADB6A;fill-opacity:1.000000;stroke:black;stroke-width:0.000000;stroke-opacity:0.000000" />


<rect
width="2.485149"
height="21.428571"
rx="0.000000"
ry="0.000000"
x="307.599010"
y="150.000000"
id="col.pan"
style="fill:#67DC67;fill-opacity:1.000000;stroke:black;stroke-width:0.000000;stroke-opacity:0.000000" />


<rect
width="2.485149"
height="21.428571"
rx="0.000000"
ry="0.000000"
x="306.113861"
y="150.000000"
id="col.pan"
style="fill:#63DD63;fill-opacity:1.000000;stroke:black;stroke-width:0.000000;stroke-opacity:0.000000" />


<rect
width="2.485149"
height="21.428571"
rx="0.000000"
ry="0.000000"
x="304.628713"
y="150.000000"
id="col.pan"
style="fill:#5FDF5F;fill-opacity:1.000000;stroke:black;stroke-width:0.000000;stroke-opacity:0.000000" />


<rect
width="2.485149"
height="21.428571"
rx="0.000000"
ry="0.000000"
x="303.143564"
y="150.000000"
id="col.pan"
style="fill:#5BE05B;fill-opacity:1.000000;stroke:black;stroke-width:0.000000;stroke-opacity:0.000000" />


<rect
width="2.485149"
height="21.428571"
rx="0.000000"
ry="0.000000"
x="301.658416"
y="150.000000"
id="col.pan"
style="fill:#57E157;fill-opacity:1.000000;stroke:black;stroke-width:0.000000;stroke-opacity:0.000000" />


<rect
width="2.485149"
height="21.428571"
rx="0.000000"
ry="0.000000"
x="300.173267"
y="150.000000"
id="col.pan"
style="fill:#54E254;fill-opacity:1.000000;stroke:black;stroke-width:0.000000;stroke-opacity:0.000000" />


<rect
width="2.485149"
height="21.428571"
rx="0.000000"
ry="0.000000"
x="298.688119"
y="150.000000"
id="col.pan"
style="fill:#50E450;fill-opacity:1.000000;stroke:black;stroke-width:0.000000;stroke-opacity:0.000000" />


<rect
width="2.485149"
height="21.428571"
rx="0.000000"
ry="0.000000"
x="297.202970"
y="150.000000"
id="col.pan"
style="fill:#4CE54C;fill-opacity:1.000000;stroke:black;stroke-width:0.000000;stroke-opacity:0.000000" />


<rect
width="2.485149"
height="21.428571"
rx="0.000000"
ry="0.000000"
x="295.717822"
y="150.000000"
id="col.pan"
style="fill:#48E648;fill-opacity:1.000000;stroke:black;stroke-width:0.000000;stroke-opacity:0.000000" />


<rect
width="2.485149"
height="21.428571"
rx="0.000000"
ry="0.000000"
x="294.232673"
y="150.000000"
id="col.pan"
style="fill:#44E844;fill-opacity:1.000000;stroke:black;stroke-width:0.000000;stroke-opacity:0.000000" />


<rect
width="2.485149"
height="21.428571"
rx="0.000000"
ry="0.000000"
x="292.747525"
y="150.000000"
id="col.pan"
style="fill:#41E941;fill-opacity:1.000000;stroke:black;stroke-width:0.000000;stroke-opacity:0.000000" />


<rect
width="2.485149"
height="21.428571"
rx="0.000000"
ry="0.000000"
x="291.262376"
y="150.000000"
id="col.pan"
style="fill:#3DEA3D;fill-opacity:1.000000;stroke:black;stroke-width:0.000000;stroke-opacity:0.000000" />


<rect
width="2.485149"
height="21.428571"
rx="0.000000"
ry="0.000000"
x="289.777228"
y="150.000000"
id="col.pan"
style="fill:#39EC39;fill-opacity:1.000000;stroke:black;stroke-width:0.000000;stroke-opacity:0.000000" />


<rect
width="2.485149"
height="21.428571"
rx="0.000000"
ry="0.000000"
x="288.292079"
y="150.000000"
id="col.pan"
style="fill:#35ED35;fill-opacity:1.000000;stroke:black;stroke-width:0.000000;stroke-opacity:0.000000" />


<rect
width="2.485149"
height="21.428571"
rx="0.000000"
ry="0.000000"
x="286.806931"
y="150.000000"
id="col.pan"
style="fill:#31EE31;fill-opacity:1.000000;stroke:black;stroke-width:0.000000;stroke-opacity:0.000000" />


<rect
width="2.485149"
height="21.428571"
rx="0.000000"
ry="0.000000"
x="285.321782"
y="150.000000"
id="col.pan"
style="fill:#2EEF2E;fill-opacity:1.000000;stroke:black;stroke-width:0.000000;stroke-opacity:0.000000" />


<rect
width="2.485149"
height="21.428571"
rx="0.000000"
ry="0.000000"
x="283.836634"
y="150.000000"
id="col.pan"
style="fill:#2AF12A;fill-opacity:1.000000;stroke:black;stroke-width:0.000000;stroke-opacity:0.000000" />


<rect
width="2.485149"
height="21.428571"
rx="0.000000"
ry="0.000000"
x="282.351485"
y="150.000000"
id="col.pan"
style="fill:#26F226;fill-opacity:1.000000;stroke:black;stroke-width:0.000000;stroke-opacity:0.000000" />


<rect
width="2.485149"
height="21.428571"
rx="0.000000"
ry="0.000000"
x="280.866337"
y="150.000000"
id="col.pan"
style="fill:#22F322;fill-opacity:1.000000;stroke:black;stroke-width:0.000000;stroke-opacity:0.000000" />


<rect
width="2.485149"
height="21.428571"
rx="0.000000"
ry="0.000000"
x="279.381188"
y="150.000000"
id="col.pan"
style="fill:#1EF51E;fill-opacity:1.000000;stroke:black;stroke-width:0.000000;stroke-opacity:0.000000" />


<rect
width="2.485149"
height="21.428571"
rx="0.000000"
ry="0.000000"
x="277.896040"
y="150.000000"
id="col.pan"
style="fill:#1BF61B;fill-opacity:1.000000;stroke:black;stroke-width:0.000000;stroke-opacity:0.000000" />


<rect
width="2.485149"
height="21.428571"
rx="0.000000"
ry="0.000000"
x="276.410891"
y="150.000000"
id="col.pan"
style="fill:#17F717;fill-opacity:1.000000;stroke:black;stroke-width:0.000000;stroke-opacity:0.000000" />


<rect
width="2.485149"
height="21.428571"
rx="0.000000"
ry="0.000000"
x="274.925743"
y="150.000000"
id="col.pan"
style="fill:#13F913;fill-opacity:1.000000;stroke:black;stroke-width:0.000000;stroke-opacity:0.000000" />


<rect
width="2.485149"
height="21.428571"
rx="0.000000"
ry="0.000000"
x="273.440594"
y="150.000000"
id="col.pan"
style="fill:#0FFA0F;fill-opacity:1.000000;stroke:black;stroke-width:0.000000;stroke-opacity:0.000000" />


<rect
width="2.485149"
height="21.428571"
rx="0.000000"
ry="0.000000"
x="271.955446"
y="150.000000"
id="col.pan"
style="fill:#0BFB0B;fill-opacity:1.000000;stroke:black;stroke-width:0.000000;stroke-opacity:0.000000" />


<rect
width="2.485149"
height="21.428571"
rx="0.000000"
ry="0.000000"
x="270.470297"
y="150.000000"
id="col.pan"
style="fill:#08FC08;fill-opacity:1.000000;stroke:black;stroke-width:0.000000;stroke-opacity:0.000000" />


<rect
width="2.485149"
height="21.428571"
rx="0.000000"
ry="0.000000"
x="268.985149"
y="150.000000"
id="col.pan"
style="fill:#04FE04;fill-opacity:1.000000;stroke:black;stroke-width:0.000000;stroke-opacity:0.000000" />


<rect
width="2.485149"
height="21.428571"
rx="0.000000"
ry="0.000000"
x="267.500000"
y="150.000000"
id="col.pan"
style="fill:#00FF00;fill-opacity:1.000000;stroke:black;stroke-width:0.000000;stroke-opacity:0.000000" />


<line
x1="267.5" y1="150" x2="267.5" y2="176.785714285714"
id="tick"
style="stroke:black;stroke-width:2.000000;stroke-opacity:1" />


<line
x1="282.5" y1="150" x2="282.5" y2="176.785714285714"
id="tick"
style="stroke:black;stroke-width:2.000000;stroke-opacity:1" />


<line
x1="297.5" y1="150" x2="297.5" y2="176.785714285714"
id="tick"
style="stroke:black;stroke-width:2.000000;stroke-opacity:1" />


<line
x1="312.5" y1="150" x2="312.5" y2="176.785714285714"
id="tick"
style="stroke:black;stroke-width:2.000000;stroke-opacity:1" />


<line
x1="327.5" y1="150" x2="327.5" y2="176.785714285714"
id="tick"
style="stroke:black;stroke-width:2.000000;stroke-opacity:1" />


<line
x1="342.5" y1="150" x2="342.5" y2="176.785714285714"
id="tick"
style="stroke:black;stroke-width:2.000000;stroke-opacity:1" />


<line
x1="357.5" y1="150" x2="357.5" y2="176.785714285714"
id="tick"
style="stroke:black;stroke-width:2.000000;stroke-opacity:1" />


<line
x1="372.5" y1="150" x2="372.5" y2="176.785714285714"
id="tick"
style="stroke:black;stroke-width:2.000000;stroke-opacity:1" />


<line
x1="387.5" y1="150" x2="387.5" y2="176.785714285714"
id="tick"
style="stroke:black;stroke-width:2.000000;stroke-opacity:1" />


<line
x1="402.5" y1="150" x2="402.5" y2="176.785714285714"
id="tick"
style="stroke:black;stroke-width:2.000000;stroke-opacity:1" />


<line
x1="417.5" y1="150" x2="417.5" y2="176.785714285714"
id="tick"
style="stroke:black;stroke-width:2.000000;stroke-opacity:1" />


<text
x="416.757426"
y="200.000000"
id="color.panel.max.value"
style="font-size:21.428571px;text-anchor:middle;font-family:Arial,Helvetica;alignment-baseline:baseline;stroke.opacity:1;dominant-baseline:baseline"
fill="black"
>
1</text>


<text
x="268.242574"
y="200.000000"
id="color.panel.low.value"
style="font-size:21.428571px;text-anchor:middle;font-family:Arial,Helvetica;alignment-baseline:baseline;stroke.opacity:1;dominant-baseline:baseline"
fill="black"
>
-1</text>


<text
x="343.985149"
y="200.000000"
id="color.panel.mid.value"
style="font-size:21.428571px;text-anchor:middle;font-family:Arial,Helvetica;alignment-baseline:baseline;stroke.opacity:1;dominant-baseline:baseline"
fill="black"
>
0</text>


</svg>
