<?xml version="1.0" encoding="UTF-8"?>
<svg width="923.268812" height="931.050351"
xmlns="http://www.w3.org/2000/svg" xmlns:svg="http://www.w3.org/2000/svg"
>
<metadata id="metadata7">image/svg+xml</metadata>






<path
d="M 277.777714267389 647.970733179877 Q 277.777714267389 647.970733179877 277.777714267389 647.970733179877 L 295.277714267389 647.970733179877 Q 295.277714267389 647.970733179877 295.277714267389 647.970733179877 L 295.277714267389 687.970733179877 Q 295.277714267389 687.970733179877 295.277714267389 687.970733179877 L 281.777714267389 687.970733179877 Q 277.777714267389 687.970733179877 277.777714267389 683.970733179877 Z"
id="wikipathways_WP262_de3bc"
style="fill:#9DC99D;fill-opacity:1.000000;stroke-width:0.5;stroke:black;stroke-opacity:0.000000"
transform = "rotate(0.000000 0.000000 0.000000)"
/>


<text
x="286.527714"
y="669.470733"
id="wikipathways_WP262_de3bc"
style="font-size:4.500000px;text-anchor:middle;font-family:Arial,Helvetica;alignment-baseline:baseline;stroke.opacity:1;dominant-baseline:baseline"
fill="black"
>
 </text>



<path
d="M 295.277714267389 647.970733179877 Q 295.277714267389 647.970733179877 295.277714267389 647.970733179877 L 312.777714267389 647.970733179877 Q 312.777714267389 647.970733179877 312.777714267389 647.970733179877 L 312.777714267389 687.970733179877 Q 312.777714267389 687.970733179877 312.777714267389 687.970733179877 L 295.277714267389 687.970733179877 Q 295.277714267389 687.970733179877 295.277714267389 687.970733179877 Z"
id="wikipathways_WP262_de3bc"
style="fill:#F22525;fill-opacity:1.000000;stroke-width:0.5;stroke:black;stroke-opacity:0.000000"
transform = "rotate(0.000000 0.000000 0.000000)"
/>


<text
x="304.027714"
y="669.470733"
id="wikipathways_WP262_de3bc"
style="font-size:4.500000px;text-anchor:middle;font-family:Arial,Helvetica;alignment-baseline:baseline;stroke.opacity:1;dominant-baseline:baseline"
fill="black"
>
 </text>



<path
d="M 312.777714267389 647.970733179877 Q 312.777714267389 647.970733179877 312.777714267389 647.970733179877 L 330.277714267389 647.970733179877 Q 330.277714267389 647.970733179877 330.277714267389 647.970733179877 L 330.277714267389 687.970733179877 Q 330.277714267389 687.970733179877 330.277714267389 687.970733179877 L 312.777714267389 687.970733179877 Q 312.777714267389 687.970733179877 312.777714267389 687.970733179877 Z"
id="wikipathways_WP262_de3bc"
style="fill:#D18888;fill-opacity:1.000000;stroke-width:0.5;stroke:black;stroke-opacity:0.000000"
transform = "rotate(0.000000 0.000000 0.000000)"
/>


<text
x="321.527714"
y="669.470733"
id="wikipathways_WP262_de3bc"
style="font-size:4.500000px;text-anchor:middle;font-family:Arial,Helvetica;alignment-baseline:baseline;stroke.opacity:1;dominant-baseline:baseline"
fill="black"
>
 </text>



<path
d="M 330.277714267389 647.970733179877 Q 330.277714267389 647.970733179877 330.277714267389 647.970733179877 L 347.777714267389 647.970733179877 Q 347.777714267389 647.970733179877 347.777714267389 647.970733179877 L 347.777714267389 683.970733179877 Q 347.777714267389 687.970733179877 343.777714267389 687.970733179877 L 330.277714267389 687.970733179877 Q 330.277714267389 687.970733179877 330.277714267389 687.970733179877 Z"
id="wikipathways_WP262_de3bc"
style="fill:#5FDF5F;fill-opacity:1.000000;stroke-width:0.5;stroke:black;stroke-opacity:0.000000"
transform = "rotate(0.000000 0.000000 0.000000)"
/>


<text
x="339.027714"
y="669.470733"
id="wikipathways_WP262_de3bc"
style="font-size:4.500000px;text-anchor:middle;font-family:Arial,Helvetica;alignment-baseline:baseline;stroke.opacity:1;dominant-baseline:baseline"
fill="black"
>
 </text>


<path
d="M 277.777714267389 647.970733179877 Q 277.777714267389 647.970733179877 277.777714267389 647.970733179877 L 347.777714267389 647.970733179877 Q 347.777714267389 647.970733179877 347.777714267389 647.970733179877 L 347.777714267389 680.970733179877 Q 347.777714267389 687.970733179877 340.777714267389 687.970733179877 L 284.777714267389 687.970733179877 Q 277.777714267389 687.970733179877 277.777714267389 680.970733179877 Z"
id="wikipathways_WP262_de3bc"
style="fill:#5FDF5F;fill-opacity:0.000000;stroke-width:1;stroke:black;stroke-opacity:1.000000"
transform = "rotate(0.000000 0.000000 0.000000)"
/>


<text
x="312.777714"
y="673.970733"
id="wikipathways_WP262_de3bc"
style="font-size:18.000000px;text-anchor:middle;font-family:Arial,Helvetica;alignment-baseline:baseline;stroke.opacity:1;dominant-baseline:baseline"
fill="black"
>
RELA</text>


<rect
width="35.000000"
height="17.500000"
rx="0.000000"
ry="0.000000"
x="277.777714"
y="639.220733"
id="wikipathways_WP262_de3bc.info.1"
style="fill:white;fill-opacity:1.000000;stroke:black;stroke-width:1.000000;stroke-opacity:1.000000" />


<text
x="295.277714"
y="650.970733"
id="wikipathways_WP262_de3bc.info.1"
style="font-size:9.000000px;text-anchor:middle;font-family:Arial,Helvetica;alignment-baseline:baseline;stroke.opacity:1;dominant-baseline:baseline"
fill="black"
>
mt:DNA</text>


<rect
width="26.666667"
height="26.666667"
rx="0.000000"
ry="0.000000"
x="429.926296"
y="683.607565"
id="wikipathways_WP1433_b52ac"
style="fill:white;fill-opacity:0.600000;stroke:black;stroke-width:1.000000;stroke-opacity:1.000000" />



<text
x="443.259630"
y="704.940899"
id="wikipathways_WP1433_b52ac"
style="font-size:24.000000px;text-anchor:middle;font-family:Arial,Helvetica;alignment-baseline:baseline;stroke.opacity:1;dominant-baseline:baseline"
fill="black"
>
\\</text>




<path
d="M 523.268811872203 640.784456992077 Q 523.268811872203 640.784456992077 523.268811872203 640.784456992077 L 540.768811872203 640.784456992077 Q 540.768811872203 640.784456992077 540.768811872203 640.784456992077 L 540.768811872203 680.784456992077 Q 540.768811872203 680.784456992077 540.768811872203 680.784456992077 L 527.268811872203 680.784456992077 Q 523.268811872203 680.784456992077 523.268811872203 676.784456992077 Z"
id="wikipathways_WP1433_e4d99"
style="fill:#B8C0B8;fill-opacity:1.000000;stroke-width:0.5;stroke:black;stroke-opacity:0.000000"
transform = "rotate(0.000000 0.000000 0.000000)"
/>


<text
x="532.018812"
y="662.284457"
id="wikipathways_WP1433_e4d99"
style="font-size:4.500000px;text-anchor:middle;font-family:Arial,Helvetica;alignment-baseline:baseline;stroke.opacity:1;dominant-baseline:baseline"
fill="black"
>
 </text>



<path
d="M 540.768811872203 640.784456992077 Q 540.768811872203 640.784456992077 540.768811872203 640.784456992077 L 558.268811872203 640.784456992077 Q 558.268811872203 640.784456992077 558.268811872203 640.784456992077 L 558.268811872203 680.784456992077 Q 558.268811872203 680.784456992077 558.268811872203 680.784456992077 L 540.768811872203 680.784456992077 Q 540.768811872203 680.784456992077 540.768811872203 680.784456992077 Z"
id="wikipathways_WP1433_e4d99"
style="fill:#D96E6E;fill-opacity:1.000000;stroke-width:0.5;stroke:black;stroke-opacity:0.000000"
transform = "rotate(0.000000 0.000000 0.000000)"
/>


<text
x="549.518812"
y="662.284457"
id="wikipathways_WP1433_e4d99"
style="font-size:4.500000px;text-anchor:middle;font-family:Arial,Helvetica;alignment-baseline:baseline;stroke.opacity:1;dominant-baseline:baseline"
fill="black"
>
 </text>



<path
d="M 558.268811872203 640.784456992077 Q 558.268811872203 640.784456992077 558.268811872203 640.784456992077 L 575.768811872203 640.784456992077 Q 575.768811872203 640.784456992077 575.768811872203 640.784456992077 L 575.768811872203 680.784456992077 Q 575.768811872203 680.784456992077 575.768811872203 680.784456992077 L 558.268811872203 680.784456992077 Q 558.268811872203 680.784456992077 558.268811872203 680.784456992077 Z"
id="wikipathways_WP1433_e4d99"
style="fill:#CA9A9A;fill-opacity:1.000000;stroke-width:0.5;stroke:black;stroke-opacity:0.000000"
transform = "rotate(0.000000 0.000000 0.000000)"
/>


<text
x="567.018812"
y="662.284457"
id="wikipathways_WP1433_e4d99"
style="font-size:4.500000px;text-anchor:middle;font-family:Arial,Helvetica;alignment-baseline:baseline;stroke.opacity:1;dominant-baseline:baseline"
fill="black"
>
 </text>



<path
d="M 575.768811872203 640.784456992077 Q 575.768811872203 640.784456992077 575.768811872203 640.784456992077 L 593.268811872203 640.784456992077 Q 593.268811872203 640.784456992077 593.268811872203 640.784456992077 L 593.268811872203 676.784456992077 Q 593.268811872203 680.784456992077 589.268811872203 680.784456992077 L 575.768811872203 680.784456992077 Q 575.768811872203 680.784456992077 575.768811872203 680.784456992077 Z"
id="wikipathways_WP1433_e4d99"
style="fill:#94CC94;fill-opacity:1.000000;stroke-width:0.5;stroke:black;stroke-opacity:0.000000"
transform = "rotate(0.000000 0.000000 0.000000)"
/>


<text
x="584.518812"
y="662.284457"
id="wikipathways_WP1433_e4d99"
style="font-size:4.500000px;text-anchor:middle;font-family:Arial,Helvetica;alignment-baseline:baseline;stroke.opacity:1;dominant-baseline:baseline"
fill="black"
>
 </text>


<path
d="M 523.268811872203 640.784456992077 Q 523.268811872203 640.784456992077 523.268811872203 640.784456992077 L 593.268811872203 640.784456992077 Q 593.268811872203 640.784456992077 593.268811872203 640.784456992077 L 593.268811872203 673.784456992077 Q 593.268811872203 680.784456992077 586.268811872203 680.784456992077 L 530.268811872203 680.784456992077 Q 523.268811872203 680.784456992077 523.268811872203 673.784456992077 Z"
id="wikipathways_WP1433_e4d99"
style="fill:#94CC94;fill-opacity:0.000000;stroke-width:1;stroke:black;stroke-opacity:1.000000"
transform = "rotate(0.000000 0.000000 0.000000)"
/>


<text
x="558.268812"
y="666.784457"
id="wikipathways_WP1433_e4d99"
style="font-size:18.000000px;text-anchor:middle;font-family:Arial,Helvetica;alignment-baseline:baseline;stroke.opacity:1;dominant-baseline:baseline"
fill="black"
>
PRDM1</text>


<rect
width="35.000000"
height="17.500000"
rx="0.000000"
ry="0.000000"
x="523.268812"
y="632.034457"
id="wikipathways_WP1433_e4d99.info.1"
style="fill:white;fill-opacity:1.000000;stroke:black;stroke-width:1.000000;stroke-opacity:1.000000" />


<text
x="540.768812"
y="643.784457"
id="wikipathways_WP1433_e4d99.info.1"
style="font-size:9.000000px;text-anchor:middle;font-family:Arial,Helvetica;alignment-baseline:baseline;stroke.opacity:1;dominant-baseline:baseline"
fill="black"
>
mt:DNA</text>




<path
d="M 457.01616986924 427.58887144224 Q 457.01616986924 427.58887144224 457.01616986924 427.58887144224 L 474.51616986924 427.58887144224 Q 474.51616986924 427.58887144224 474.51616986924 427.58887144224 L 474.51616986924 467.58887144224 Q 474.51616986924 467.58887144224 474.51616986924 467.58887144224 L 461.01616986924 467.58887144224 Q 457.01616986924 467.58887144224 457.01616986924 463.58887144224 Z"
id="wikipathways_WP1433_f372e"
style="fill:#1EF51E;fill-opacity:1.000000;stroke-width:0.5;stroke:black;stroke-opacity:0.000000"
transform = "rotate(0.000000 0.000000 0.000000)"
/>


<text
x="465.766170"
y="449.088871"
id="wikipathways_WP1433_f372e"
style="font-size:4.500000px;text-anchor:middle;font-family:Arial,Helvetica;alignment-baseline:baseline;stroke.opacity:1;dominant-baseline:baseline"
fill="black"
>
 </text>



<path
d="M 474.51616986924 427.58887144224 Q 474.51616986924 427.58887144224 474.51616986924 427.58887144224 L 492.01616986924 427.58887144224 Q 492.01616986924 427.58887144224 492.01616986924 427.58887144224 L 492.01616986924 467.58887144224 Q 492.01616986924 467.58887144224 492.01616986924 467.58887144224 L 474.51616986924 467.58887144224 Q 474.51616986924 467.58887144224 474.51616986924 467.58887144224 Z"
id="wikipathways_WP1433_f372e"
style="fill:#FC0A0A;fill-opacity:1.000000;stroke-width:0.5;stroke:black;stroke-opacity:0.000000"
transform = "rotate(0.000000 0.000000 0.000000)"
/>


<text
x="483.266170"
y="449.088871"
id="wikipathways_WP1433_f372e"
style="font-size:4.500000px;text-anchor:middle;font-family:Arial,Helvetica;alignment-baseline:baseline;stroke.opacity:1;dominant-baseline:baseline"
fill="black"
>
 </text>



<path
d="M 492.01616986924 427.58887144224 Q 492.01616986924 427.58887144224 492.01616986924 427.58887144224 L 509.51616986924 427.58887144224 Q 509.51616986924 427.58887144224 509.51616986924 427.58887144224 L 509.51616986924 467.58887144224 Q 509.51616986924 467.58887144224 509.51616986924 467.58887144224 L 492.01616986924 467.58887144224 Q 492.01616986924 467.58887144224 492.01616986924 467.58887144224 Z"
id="wikipathways_WP1433_f372e"
style="fill:#ADC4AD;fill-opacity:1.000000;stroke-width:0.5;stroke:black;stroke-opacity:0.000000"
transform = "rotate(0.000000 0.000000 0.000000)"
/>


<text
x="500.766170"
y="449.088871"
id="wikipathways_WP1433_f372e"
style="font-size:4.500000px;text-anchor:middle;font-family:Arial,Helvetica;alignment-baseline:baseline;stroke.opacity:1;dominant-baseline:baseline"
fill="black"
>
 </text>



<path
d="M 509.51616986924 427.58887144224 Q 509.51616986924 427.58887144224 509.51616986924 427.58887144224 L 527.01616986924 427.58887144224 Q 527.01616986924 427.58887144224 527.01616986924 427.58887144224 L 527.01616986924 463.58887144224 Q 527.01616986924 467.58887144224 523.01616986924 467.58887144224 L 509.51616986924 467.58887144224 Q 509.51616986924 467.58887144224 509.51616986924 467.58887144224 Z"
id="wikipathways_WP1433_f372e"
style="fill:#00FF00;fill-opacity:1.000000;stroke-width:0.5;stroke:black;stroke-opacity:0.000000"
transform = "rotate(0.000000 0.000000 0.000000)"
/>


<text
x="518.266170"
y="449.088871"
id="wikipathways_WP1433_f372e"
style="font-size:4.500000px;text-anchor:middle;font-family:Arial,Helvetica;alignment-baseline:baseline;stroke.opacity:1;dominant-baseline:baseline"
fill="black"
>
 </text>


<path
d="M 457.01616986924 427.58887144224 Q 457.01616986924 427.58887144224 457.01616986924 427.58887144224 L 527.01616986924 427.58887144224 Q 527.01616986924 427.58887144224 527.01616986924 427.58887144224 L 527.01616986924 460.58887144224 Q 527.01616986924 467.58887144224 520.01616986924 467.58887144224 L 464.01616986924 467.58887144224 Q 457.01616986924 467.58887144224 457.01616986924 460.58887144224 Z"
id="wikipathways_WP1433_f372e"
style="fill:#00FF00;fill-opacity:0.000000;stroke-width:1;stroke:black;stroke-opacity:1.000000"
transform = "rotate(0.000000 0.000000 0.000000)"
/>


<text
x="492.016170"
y="453.588871"
id="wikipathways_WP1433_f372e"
style="font-size:18.000000px;text-anchor:middle;font-family:Arial,Helvetica;alignment-baseline:baseline;stroke.opacity:1;dominant-baseline:baseline"
fill="black"
>
NOD1</text>


<rect
width="35.000000"
height="17.500000"
rx="0.000000"
ry="0.000000"
x="457.016170"
y="418.838871"
id="wikipathways_WP1433_f372e.info.1"
style="fill:white;fill-opacity:1.000000;stroke:black;stroke-width:1.000000;stroke-opacity:1.000000" />


<text
x="474.516170"
y="430.588871"
id="wikipathways_WP1433_f372e.info.1"
style="font-size:9.000000px;text-anchor:middle;font-family:Arial,Helvetica;alignment-baseline:baseline;stroke.opacity:1;dominant-baseline:baseline"
fill="black"
>
mt:DNA</text>


<rect
width="26.666667"
height="26.666667"
rx="0.000000"
ry="0.000000"
x="251.303076"
y="593.272376"
id="wikipathways_WP1433_f1a7d"
style="fill:white;fill-opacity:0.600000;stroke:black;stroke-width:1.000000;stroke-opacity:1.000000" />



<text
x="264.636409"
y="614.605710"
id="wikipathways_WP1433_f1a7d"
style="font-size:24.000000px;text-anchor:middle;font-family:Arial,Helvetica;alignment-baseline:baseline;stroke.opacity:1;dominant-baseline:baseline"
fill="black"
>
\\</text>




<path
d="M 258.30540031126 276.586145195523 Q 258.30540031126 276.586145195523 258.30540031126 276.586145195523 L 275.80540031126 276.586145195523 Q 275.80540031126 276.586145195523 275.80540031126 276.586145195523 L 275.80540031126 316.586145195523 Q 275.80540031126 316.586145195523 275.80540031126 316.586145195523 L 262.30540031126 316.586145195523 Q 258.30540031126 316.586145195523 258.30540031126 312.586145195523 Z"
id="wikipathways_WP1433_a0e05"
style="fill:#CC9595;fill-opacity:1.000000;stroke-width:0.5;stroke:black;stroke-opacity:0.000000"
transform = "rotate(0.000000 0.000000 0.000000)"
/>


<text
x="267.055400"
y="298.086145"
id="wikipathways_WP1433_a0e05"
style="font-size:4.500000px;text-anchor:middle;font-family:Arial,Helvetica;alignment-baseline:baseline;stroke.opacity:1;dominant-baseline:baseline"
fill="black"
>
 </text>



<path
d="M 275.80540031126 276.586145195523 Q 275.80540031126 276.586145195523 275.80540031126 276.586145195523 L 293.30540031126 276.586145195523 Q 293.30540031126 276.586145195523 293.30540031126 276.586145195523 L 293.30540031126 316.586145195523 Q 293.30540031126 316.586145195523 293.30540031126 316.586145195523 L 275.80540031126 316.586145195523 Q 275.80540031126 316.586145195523 275.80540031126 316.586145195523 Z"
id="wikipathways_WP1433_a0e05"
style="fill:#C6A6A6;fill-opacity:1.000000;stroke-width:0.5;stroke:black;stroke-opacity:0.000000"
transform = "rotate(0.000000 0.000000 0.000000)"
/>


<text
x="284.555400"
y="298.086145"
id="wikipathways_WP1433_a0e05"
style="font-size:4.500000px;text-anchor:middle;font-family:Arial,Helvetica;alignment-baseline:baseline;stroke.opacity:1;dominant-baseline:baseline"
fill="black"
>
 </text>



<path
d="M 293.30540031126 276.586145195523 Q 293.30540031126 276.586145195523 293.30540031126 276.586145195523 L 310.80540031126 276.586145195523 Q 310.80540031126 276.586145195523 310.80540031126 276.586145195523 L 310.80540031126 316.586145195523 Q 310.80540031126 316.586145195523 310.80540031126 316.586145195523 L 293.30540031126 316.586145195523 Q 293.30540031126 316.586145195523 293.30540031126 316.586145195523 Z"
id="wikipathways_WP1433_a0e05"
style="fill:#C99D9D;fill-opacity:1.000000;stroke-width:0.5;stroke:black;stroke-opacity:0.000000"
transform = "rotate(0.000000 0.000000 0.000000)"
/>


<text
x="302.055400"
y="298.086145"
id="wikipathways_WP1433_a0e05"
style="font-size:4.500000px;text-anchor:middle;font-family:Arial,Helvetica;alignment-baseline:baseline;stroke.opacity:1;dominant-baseline:baseline"
fill="black"
>
 </text>



<path
d="M 310.80540031126 276.586145195523 Q 310.80540031126 276.586145195523 310.80540031126 276.586145195523 L 328.30540031126 276.586145195523 Q 328.30540031126 276.586145195523 328.30540031126 276.586145195523 L 328.30540031126 312.586145195523 Q 328.30540031126 316.586145195523 324.30540031126 316.586145195523 L 310.80540031126 316.586145195523 Q 310.80540031126 316.586145195523 310.80540031126 316.586145195523 Z"
id="wikipathways_WP1433_a0e05"
style="fill:#C1B6B6;fill-opacity:1.000000;stroke-width:0.5;stroke:black;stroke-opacity:0.000000"
transform = "rotate(0.000000 0.000000 0.000000)"
/>


<text
x="319.555400"
y="298.086145"
id="wikipathways_WP1433_a0e05"
style="font-size:4.500000px;text-anchor:middle;font-family:Arial,Helvetica;alignment-baseline:baseline;stroke.opacity:1;dominant-baseline:baseline"
fill="black"
>
 </text>


<path
d="M 258.30540031126 276.586145195523 Q 258.30540031126 276.586145195523 258.30540031126 276.586145195523 L 328.30540031126 276.586145195523 Q 328.30540031126 276.586145195523 328.30540031126 276.586145195523 L 328.30540031126 309.586145195523 Q 328.30540031126 316.586145195523 321.30540031126 316.586145195523 L 265.30540031126 316.586145195523 Q 258.30540031126 316.586145195523 258.30540031126 309.586145195523 Z"
id="wikipathways_WP1433_a0e05"
style="fill:#C1B6B6;fill-opacity:0.000000;stroke-width:1;stroke:black;stroke-opacity:1.000000"
transform = "rotate(0.000000 0.000000 0.000000)"
/>


<text
x="293.305400"
y="302.586145"
id="wikipathways_WP1433_a0e05"
style="font-size:18.000000px;text-anchor:middle;font-family:Arial,Helvetica;alignment-baseline:baseline;stroke.opacity:1;dominant-baseline:baseline"
fill="black"
>
CASP1</text>


<rect
width="35.000000"
height="17.500000"
rx="0.000000"
ry="0.000000"
x="258.305400"
y="267.836145"
id="wikipathways_WP1433_a0e05.info.1"
style="fill:white;fill-opacity:1.000000;stroke:black;stroke-width:1.000000;stroke-opacity:1.000000" />


<text
x="275.805400"
y="279.586145"
id="wikipathways_WP1433_a0e05.info.1"
style="font-size:9.000000px;text-anchor:middle;font-family:Arial,Helvetica;alignment-baseline:baseline;stroke.opacity:1;dominant-baseline:baseline"
fill="black"
>
mt:DNA</text>


<rect
width="26.666667"
height="26.666667"
rx="0.000000"
ry="0.000000"
x="421.159843"
y="238.400095"
id="wikipathways_WP1433_ca899"
style="fill:white;fill-opacity:0.600000;stroke:black;stroke-width:1.000000;stroke-opacity:1.000000" />



<text
x="434.493176"
y="259.733428"
id="wikipathways_WP1433_ca899"
style="font-size:24.000000px;text-anchor:middle;font-family:Arial,Helvetica;alignment-baseline:baseline;stroke.opacity:1;dominant-baseline:baseline"
fill="black"
>
\\</text>




<path
d="M 347.477105623429 570.183882110913 Q 347.477105623429 570.183882110913 347.477105623429 570.183882110913 L 364.977105623429 570.183882110913 Q 364.977105623429 570.183882110913 364.977105623429 570.183882110913 L 364.977105623429 610.183882110913 Q 364.977105623429 610.183882110913 364.977105623429 610.183882110913 L 351.477105623429 610.183882110913 Q 347.477105623429 610.183882110913 347.477105623429 606.183882110913 Z"
id="wikipathways_WP1433_a29e7"
style="fill:#CA9B9B;fill-opacity:1.000000;stroke-width:0.5;stroke:black;stroke-opacity:0.000000"
transform = "rotate(0.000000 0.000000 0.000000)"
/>


<text
x="356.227106"
y="591.683882"
id="wikipathways_WP1433_a29e7"
style="font-size:4.500000px;text-anchor:middle;font-family:Arial,Helvetica;alignment-baseline:baseline;stroke.opacity:1;dominant-baseline:baseline"
fill="black"
>
 </text>



<path
d="M 364.977105623429 570.183882110913 Q 364.977105623429 570.183882110913 364.977105623429 570.183882110913 L 382.477105623429 570.183882110913 Q 382.477105623429 570.183882110913 382.477105623429 570.183882110913 L 382.477105623429 610.183882110913 Q 382.477105623429 610.183882110913 382.477105623429 610.183882110913 L 364.977105623429 610.183882110913 Q 364.977105623429 610.183882110913 364.977105623429 610.183882110913 Z"
id="wikipathways_WP1433_a29e7"
style="fill:#EA3C3C;fill-opacity:1.000000;stroke-width:0.5;stroke:black;stroke-opacity:0.000000"
transform = "rotate(0.000000 0.000000 0.000000)"
/>


<text
x="373.727106"
y="591.683882"
id="wikipathways_WP1433_a29e7"
style="font-size:4.500000px;text-anchor:middle;font-family:Arial,Helvetica;alignment-baseline:baseline;stroke.opacity:1;dominant-baseline:baseline"
fill="black"
>
 </text>



<path
d="M 382.477105623429 570.183882110913 Q 382.477105623429 570.183882110913 382.477105623429 570.183882110913 L 399.977105623429 570.183882110913 Q 399.977105623429 570.183882110913 399.977105623429 570.183882110913 L 399.977105623429 610.183882110913 Q 399.977105623429 610.183882110913 399.977105623429 610.183882110913 L 382.477105623429 610.183882110913 Q 382.477105623429 610.183882110913 382.477105623429 610.183882110913 Z"
id="wikipathways_WP1433_a29e7"
style="fill:#DA6B6B;fill-opacity:1.000000;stroke-width:0.5;stroke:black;stroke-opacity:0.000000"
transform = "rotate(0.000000 0.000000 0.000000)"
/>


<text
x="391.227106"
y="591.683882"
id="wikipathways_WP1433_a29e7"
style="font-size:4.500000px;text-anchor:middle;font-family:Arial,Helvetica;alignment-baseline:baseline;stroke.opacity:1;dominant-baseline:baseline"
fill="black"
>
 </text>



<path
d="M 399.977105623429 570.183882110913 Q 399.977105623429 570.183882110913 399.977105623429 570.183882110913 L 417.477105623429 570.183882110913 Q 417.477105623429 570.183882110913 417.477105623429 570.183882110913 L 417.477105623429 606.183882110913 Q 417.477105623429 610.183882110913 413.477105623429 610.183882110913 L 399.977105623429 610.183882110913 Q 399.977105623429 610.183882110913 399.977105623429 610.183882110913 Z"
id="wikipathways_WP1433_a29e7"
style="fill:#90CE90;fill-opacity:1.000000;stroke-width:0.5;stroke:black;stroke-opacity:0.000000"
transform = "rotate(0.000000 0.000000 0.000000)"
/>


<text
x="408.727106"
y="591.683882"
id="wikipathways_WP1433_a29e7"
style="font-size:4.500000px;text-anchor:middle;font-family:Arial,Helvetica;alignment-baseline:baseline;stroke.opacity:1;dominant-baseline:baseline"
fill="black"
>
 </text>


<path
d="M 347.477105623429 570.183882110913 Q 347.477105623429 570.183882110913 347.477105623429 570.183882110913 L 417.477105623429 570.183882110913 Q 417.477105623429 570.183882110913 417.477105623429 570.183882110913 L 417.477105623429 603.183882110913 Q 417.477105623429 610.183882110913 410.477105623429 610.183882110913 L 354.477105623429 610.183882110913 Q 347.477105623429 610.183882110913 347.477105623429 603.183882110913 Z"
id="wikipathways_WP1433_a29e7"
style="fill:#90CE90;fill-opacity:0.000000;stroke-width:1;stroke:black;stroke-opacity:1.000000"
transform = "rotate(0.000000 0.000000 0.000000)"
/>


<text
x="382.477106"
y="596.183882"
id="wikipathways_WP1433_a29e7"
style="font-size:18.000000px;text-anchor:middle;font-family:Arial,Helvetica;alignment-baseline:baseline;stroke.opacity:1;dominant-baseline:baseline"
fill="black"
>
ACAP1</text>


<rect
width="35.000000"
height="17.500000"
rx="0.000000"
ry="0.000000"
x="347.477106"
y="561.433882"
id="wikipathways_WP1433_a29e7.info.1"
style="fill:white;fill-opacity:1.000000;stroke:black;stroke-width:1.000000;stroke-opacity:1.000000" />


<text
x="364.977106"
y="573.183882"
id="wikipathways_WP1433_a29e7.info.1"
style="font-size:9.000000px;text-anchor:middle;font-family:Arial,Helvetica;alignment-baseline:baseline;stroke.opacity:1;dominant-baseline:baseline"
fill="black"
>
mt:DNA</text>




<path
d="M 226.397333114631 766.050351306273 Q 226.397333114631 766.050351306273 226.397333114631 766.050351306273 L 243.897333114631 766.050351306273 Q 243.897333114631 766.050351306273 243.897333114631 766.050351306273 L 243.897333114631 806.050351306273 Q 243.897333114631 806.050351306273 243.897333114631 806.050351306273 L 230.397333114631 806.050351306273 Q 226.397333114631 806.050351306273 226.397333114631 802.050351306273 Z"
id="wikipathways_WP1433_abdec"
style="fill:#70D970;fill-opacity:1.000000;stroke-width:0.5;stroke:black;stroke-opacity:0.000000"
transform = "rotate(0.000000 0.000000 0.000000)"
/>


<text
x="235.147333"
y="787.550351"
id="wikipathways_WP1433_abdec"
style="font-size:4.500000px;text-anchor:middle;font-family:Arial,Helvetica;alignment-baseline:baseline;stroke.opacity:1;dominant-baseline:baseline"
fill="black"
>
 </text>



<path
d="M 243.897333114631 766.050351306273 Q 243.897333114631 766.050351306273 243.897333114631 766.050351306273 L 261.397333114631 766.050351306273 Q 261.397333114631 766.050351306273 261.397333114631 766.050351306273 L 261.397333114631 806.050351306273 Q 261.397333114631 806.050351306273 261.397333114631 806.050351306273 L 243.897333114631 806.050351306273 Q 243.897333114631 806.050351306273 243.897333114631 806.050351306273 Z"
id="wikipathways_WP1433_abdec"
style="fill:#E54C4C;fill-opacity:1.000000;stroke-width:0.5;stroke:black;stroke-opacity:0.000000"
transform = "rotate(0.000000 0.000000 0.000000)"
/>


<text
x="252.647333"
y="787.550351"
id="wikipathways_WP1433_abdec"
style="font-size:4.500000px;text-anchor:middle;font-family:Arial,Helvetica;alignment-baseline:baseline;stroke.opacity:1;dominant-baseline:baseline"
fill="black"
>
 </text>



<path
d="M 261.397333114631 766.050351306273 Q 261.397333114631 766.050351306273 261.397333114631 766.050351306273 L 278.897333114631 766.050351306273 Q 278.897333114631 766.050351306273 278.897333114631 766.050351306273 L 278.897333114631 806.050351306273 Q 278.897333114631 806.050351306273 278.897333114631 806.050351306273 L 261.397333114631 806.050351306273 Q 261.397333114631 806.050351306273 261.397333114631 806.050351306273 Z"
id="wikipathways_WP1433_abdec"
style="fill:#C0B9B9;fill-opacity:1.000000;stroke-width:0.5;stroke:black;stroke-opacity:0.000000"
transform = "rotate(0.000000 0.000000 0.000000)"
/>


<text
x="270.147333"
y="787.550351"
id="wikipathways_WP1433_abdec"
style="font-size:4.500000px;text-anchor:middle;font-family:Arial,Helvetica;alignment-baseline:baseline;stroke.opacity:1;dominant-baseline:baseline"
fill="black"
>
 </text>



<path
d="M 278.897333114631 766.050351306273 Q 278.897333114631 766.050351306273 278.897333114631 766.050351306273 L 296.397333114631 766.050351306273 Q 296.397333114631 766.050351306273 296.397333114631 766.050351306273 L 296.397333114631 802.050351306273 Q 296.397333114631 806.050351306273 292.397333114631 806.050351306273 L 278.897333114631 806.050351306273 Q 278.897333114631 806.050351306273 278.897333114631 806.050351306273 Z"
id="wikipathways_WP1433_abdec"
style="fill:#54E254;fill-opacity:1.000000;stroke-width:0.5;stroke:black;stroke-opacity:0.000000"
transform = "rotate(0.000000 0.000000 0.000000)"
/>


<text
x="287.647333"
y="787.550351"
id="wikipathways_WP1433_abdec"
style="font-size:4.500000px;text-anchor:middle;font-family:Arial,Helvetica;alignment-baseline:baseline;stroke.opacity:1;dominant-baseline:baseline"
fill="black"
>
 </text>


<path
d="M 226.397333114631 766.050351306273 Q 226.397333114631 766.050351306273 226.397333114631 766.050351306273 L 296.397333114631 766.050351306273 Q 296.397333114631 766.050351306273 296.397333114631 766.050351306273 L 296.397333114631 799.050351306273 Q 296.397333114631 806.050351306273 289.397333114631 806.050351306273 L 233.397333114631 806.050351306273 Q 226.397333114631 806.050351306273 226.397333114631 799.050351306273 Z"
id="wikipathways_WP1433_abdec"
style="fill:#54E254;fill-opacity:0.000000;stroke-width:1;stroke:black;stroke-opacity:1.000000"
transform = "rotate(0.000000 0.000000 0.000000)"
/>


<text
x="261.397333"
y="792.050351"
id="wikipathways_WP1433_abdec"
style="font-size:18.000000px;text-anchor:middle;font-family:Arial,Helvetica;alignment-baseline:baseline;stroke.opacity:1;dominant-baseline:baseline"
fill="black"
>
NOD2</text>


<rect
width="35.000000"
height="17.500000"
rx="0.000000"
ry="0.000000"
x="226.397333"
y="757.300351"
id="wikipathways_WP1433_abdec.info.1"
style="fill:white;fill-opacity:1.000000;stroke:black;stroke-width:1.000000;stroke-opacity:1.000000" />


<text
x="243.897333"
y="769.050351"
id="wikipathways_WP1433_abdec.info.1"
style="font-size:9.000000px;text-anchor:middle;font-family:Arial,Helvetica;alignment-baseline:baseline;stroke.opacity:1;dominant-baseline:baseline"
fill="black"
>
mt:DNA</text>


<rect
width="26.666667"
height="26.666667"
rx="0.000000"
ry="0.000000"
x="168.630988"
y="646.150821"
id="wikipathways_WP1433_a4605"
style="fill:white;fill-opacity:0.600000;stroke:black;stroke-width:1.000000;stroke-opacity:1.000000" />



<text
x="181.964322"
y="667.484154"
id="wikipathways_WP1433_a4605"
style="font-size:24.000000px;text-anchor:middle;font-family:Arial,Helvetica;alignment-baseline:baseline;stroke.opacity:1;dominant-baseline:baseline"
fill="black"
>
\\</text>




<path
d="M 445.870965216119 572.244275696552 Q 445.870965216119 572.244275696552 445.870965216119 572.244275696552 L 463.370965216119 572.244275696552 Q 463.370965216119 572.244275696552 463.370965216119 572.244275696552 L 463.370965216119 612.244275696552 Q 463.370965216119 612.244275696552 463.370965216119 612.244275696552 L 449.870965216119 612.244275696552 Q 445.870965216119 612.244275696552 445.870965216119 608.244275696552 Z"
id="wikipathways_WP1433_ee805"
style="fill:#32EE32;fill-opacity:1.000000;stroke-width:0.5;stroke:black;stroke-opacity:0.000000"
transform = "rotate(0.000000 0.000000 0.000000)"
/>


<text
x="454.620965"
y="593.744276"
id="wikipathways_WP1433_ee805"
style="font-size:4.500000px;text-anchor:middle;font-family:Arial,Helvetica;alignment-baseline:baseline;stroke.opacity:1;dominant-baseline:baseline"
fill="black"
>
 </text>



<path
d="M 463.370965216119 572.244275696552 Q 463.370965216119 572.244275696552 463.370965216119 572.244275696552 L 480.870965216119 572.244275696552 Q 480.870965216119 572.244275696552 480.870965216119 572.244275696552 L 480.870965216119 612.244275696552 Q 480.870965216119 612.244275696552 480.870965216119 612.244275696552 L 463.370965216119 612.244275696552 Q 463.370965216119 612.244275696552 463.370965216119 612.244275696552 Z"
id="wikipathways_WP1433_ee805"
style="fill:#D47D7D;fill-opacity:1.000000;stroke-width:0.5;stroke:black;stroke-opacity:0.000000"
transform = "rotate(0.000000 0.000000 0.000000)"
/>


<text
x="472.120965"
y="593.744276"
id="wikipathways_WP1433_ee805"
style="font-size:4.500000px;text-anchor:middle;font-family:Arial,Helvetica;alignment-baseline:baseline;stroke.opacity:1;dominant-baseline:baseline"
fill="black"
>
 </text>



<path
d="M 480.870965216119 572.244275696552 Q 480.870965216119 572.244275696552 480.870965216119 572.244275696552 L 498.370965216119 572.244275696552 Q 498.370965216119 572.244275696552 498.370965216119 572.244275696552 L 498.370965216119 612.244275696552 Q 498.370965216119 612.244275696552 498.370965216119 612.244275696552 L 480.870965216119 612.244275696552 Q 480.870965216119 612.244275696552 480.870965216119 612.244275696552 Z"
id="wikipathways_WP1433_ee805"
style="fill:#7FD37F;fill-opacity:1.000000;stroke-width:0.5;stroke:black;stroke-opacity:0.000000"
transform = "rotate(0.000000 0.000000 0.000000)"
/>


<text
x="489.620965"
y="593.744276"
id="wikipathways_WP1433_ee805"
style="font-size:4.500000px;text-anchor:middle;font-family:Arial,Helvetica;alignment-baseline:baseline;stroke.opacity:1;dominant-baseline:baseline"
fill="black"
>
 </text>



<path
d="M 498.370965216119 572.244275696552 Q 498.370965216119 572.244275696552 498.370965216119 572.244275696552 L 515.870965216119 572.244275696552 Q 515.870965216119 572.244275696552 515.870965216119 572.244275696552 L 515.870965216119 608.244275696552 Q 515.870965216119 612.244275696552 511.870965216119 612.244275696552 L 498.370965216119 612.244275696552 Q 498.370965216119 612.244275696552 498.370965216119 612.244275696552 Z"
id="wikipathways_WP1433_ee805"
style="fill:#44E844;fill-opacity:1.000000;stroke-width:0.5;stroke:black;stroke-opacity:0.000000"
transform = "rotate(0.000000 0.000000 0.000000)"
/>


<text
x="507.120965"
y="593.744276"
id="wikipathways_WP1433_ee805"
style="font-size:4.500000px;text-anchor:middle;font-family:Arial,Helvetica;alignment-baseline:baseline;stroke.opacity:1;dominant-baseline:baseline"
fill="black"
>
 </text>


<path
d="M 445.870965216119 572.244275696552 Q 445.870965216119 572.244275696552 445.870965216119 572.244275696552 L 515.870965216119 572.244275696552 Q 515.870965216119 572.244275696552 515.870965216119 572.244275696552 L 515.870965216119 605.244275696552 Q 515.870965216119 612.244275696552 508.870965216119 612.244275696552 L 452.870965216119 612.244275696552 Q 445.870965216119 612.244275696552 445.870965216119 605.244275696552 Z"
id="wikipathways_WP1433_ee805"
style="fill:#44E844;fill-opacity:0.000000;stroke-width:1;stroke:black;stroke-opacity:1.000000"
transform = "rotate(0.000000 0.000000 0.000000)"
/>


<text
x="480.870965"
y="598.244276"
id="wikipathways_WP1433_ee805"
style="font-size:18.000000px;text-anchor:middle;font-family:Arial,Helvetica;alignment-baseline:baseline;stroke.opacity:1;dominant-baseline:baseline"
fill="black"
>
CASP5</text>


<rect
width="35.000000"
height="17.500000"
rx="0.000000"
ry="0.000000"
x="445.870965"
y="563.494276"
id="wikipathways_WP1433_ee805.info.1"
style="fill:white;fill-opacity:1.000000;stroke:black;stroke-width:1.000000;stroke-opacity:1.000000" />


<text
x="463.370965"
y="575.244276"
id="wikipathways_WP1433_ee805.info.1"
style="font-size:9.000000px;text-anchor:middle;font-family:Arial,Helvetica;alignment-baseline:baseline;stroke.opacity:1;dominant-baseline:baseline"
fill="black"
>
mt:DNA</text>


<rect
width="26.666667"
height="26.666667"
rx="0.000000"
ry="0.000000"
x="377.186908"
y="495.001034"
id="wikipathways_WP1433_d81c6"
style="fill:white;fill-opacity:0.600000;stroke:black;stroke-width:1.000000;stroke-opacity:1.000000" />



<text
x="390.520242"
y="516.334368"
id="wikipathways_WP1433_d81c6"
style="font-size:24.000000px;text-anchor:middle;font-family:Arial,Helvetica;alignment-baseline:baseline;stroke.opacity:1;dominant-baseline:baseline"
fill="black"
>
\\</text>


<rect
width="26.666667"
height="26.666667"
rx="0.000000"
ry="0.000000"
x="231.135451"
y="509.619280"
id="wikipathways_WP1433_b2d4c"
style="fill:white;fill-opacity:0.600000;stroke:black;stroke-width:1.000000;stroke-opacity:1.000000" />



<text
x="244.468785"
y="530.952614"
id="wikipathways_WP1433_b2d4c"
style="font-size:24.000000px;text-anchor:middle;font-family:Arial,Helvetica;alignment-baseline:baseline;stroke.opacity:1;dominant-baseline:baseline"
fill="black"
>
\\</text>




<path
d="M 297.86041983623 150 Q 297.86041983623 150 297.86041983623 150 L 315.36041983623 150 Q 315.36041983623 150 315.36041983623 150 L 315.36041983623 190 Q 315.36041983623 190 315.36041983623 190 L 301.86041983623 190 Q 297.86041983623 190 297.86041983623 186 Z"
id="wikipathways_WP2873_a460d"
style="fill:#10F910;fill-opacity:1.000000;stroke-width:0.5;stroke:black;stroke-opacity:0.000000"
transform = "rotate(0.000000 0.000000 0.000000)"
/>


<text
x="306.610420"
y="171.500000"
id="wikipathways_WP2873_a460d"
style="font-size:4.500000px;text-anchor:middle;font-family:Arial,Helvetica;alignment-baseline:baseline;stroke.opacity:1;dominant-baseline:baseline"
fill="black"
>
 </text>



<path
d="M 315.36041983623 150 Q 315.36041983623 150 315.36041983623 150 L 332.86041983623 150 Q 332.86041983623 150 332.86041983623 150 L 332.86041983623 190 Q 332.86041983623 190 332.86041983623 190 L 315.36041983623 190 Q 315.36041983623 190 315.36041983623 190 Z"
id="wikipathways_WP2873_a460d"
style="fill:#70D970;fill-opacity:1.000000;stroke-width:0.5;stroke:black;stroke-opacity:0.000000"
transform = "rotate(0.000000 0.000000 0.000000)"
/>


<text
x="324.110420"
y="171.500000"
id="wikipathways_WP2873_a460d"
style="font-size:4.500000px;text-anchor:middle;font-family:Arial,Helvetica;alignment-baseline:baseline;stroke.opacity:1;dominant-baseline:baseline"
fill="black"
>
 </text>



<path
d="M 332.86041983623 150 Q 332.86041983623 150 332.86041983623 150 L 350.36041983623 150 Q 350.36041983623 150 350.36041983623 150 L 350.36041983623 190 Q 350.36041983623 190 350.36041983623 190 L 332.86041983623 190 Q 332.86041983623 190 332.86041983623 190 Z"
id="wikipathways_WP2873_a460d"
style="fill:#12F912;fill-opacity:1.000000;stroke-width:0.5;stroke:black;stroke-opacity:0.000000"
transform = "rotate(0.000000 0.000000 0.000000)"
/>


<text
x="341.610420"
y="171.500000"
id="wikipathways_WP2873_a460d"
style="font-size:4.500000px;text-anchor:middle;font-family:Arial,Helvetica;alignment-baseline:baseline;stroke.opacity:1;dominant-baseline:baseline"
fill="black"
>
 </text>



<path
d="M 350.36041983623 150 Q 350.36041983623 150 350.36041983623 150 L 367.86041983623 150 Q 367.86041983623 150 367.86041983623 150 L 367.86041983623 186 Q 367.86041983623 190 363.86041983623 190 L 350.36041983623 190 Q 350.36041983623 190 350.36041983623 190 Z"
id="wikipathways_WP2873_a460d"
style="fill:#81D381;fill-opacity:1.000000;stroke-width:0.5;stroke:black;stroke-opacity:0.000000"
transform = "rotate(0.000000 0.000000 0.000000)"
/>


<text
x="359.110420"
y="171.500000"
id="wikipathways_WP2873_a460d"
style="font-size:4.500000px;text-anchor:middle;font-family:Arial,Helvetica;alignment-baseline:baseline;stroke.opacity:1;dominant-baseline:baseline"
fill="black"
>
 </text>


<path
d="M 297.86041983623 150 Q 297.86041983623 150 297.86041983623 150 L 367.86041983623 150 Q 367.86041983623 150 367.86041983623 150 L 367.86041983623 183 Q 367.86041983623 190 360.86041983623 190 L 304.86041983623 190 Q 297.86041983623 190 297.86041983623 183 Z"
id="wikipathways_WP2873_a460d"
style="fill:#81D381;fill-opacity:0.000000;stroke-width:1;stroke:black;stroke-opacity:1.000000"
transform = "rotate(0.000000 0.000000 0.000000)"
/>


<text
x="332.860420"
y="176.000000"
id="wikipathways_WP2873_a460d"
style="font-size:18.000000px;text-anchor:middle;font-family:Arial,Helvetica;alignment-baseline:baseline;stroke.opacity:1;dominant-baseline:baseline"
fill="black"
>
IL1B</text>


<rect
width="35.000000"
height="17.500000"
rx="0.000000"
ry="0.000000"
x="297.860420"
y="141.250000"
id="wikipathways_WP2873_a460d.info.1"
style="fill:white;fill-opacity:1.000000;stroke:black;stroke-width:1.000000;stroke-opacity:1.000000" />


<text
x="315.360420"
y="153.000000"
id="wikipathways_WP2873_a460d.info.1"
style="font-size:9.000000px;text-anchor:middle;font-family:Arial,Helvetica;alignment-baseline:baseline;stroke.opacity:1;dominant-baseline:baseline"
fill="black"
>
mt:DNA</text>




<path
d="M 100 578.990395707993 Q 100 578.990395707993 100 578.990395707993 L 117.5 578.990395707993 Q 117.5 578.990395707993 117.5 578.990395707993 L 117.5 618.990395707993 Q 117.5 618.990395707993 117.5 618.990395707993 L 104 618.990395707993 Q 100 618.990395707993 100 614.990395707993 Z"
id="wikipathways_WP1433_d7816"
style="fill:#F22525;fill-opacity:1.000000;stroke-width:0.5;stroke:black;stroke-opacity:0.000000"
transform = "rotate(0.000000 0.000000 0.000000)"
/>


<text
x="108.750000"
y="600.490396"
id="wikipathways_WP1433_d7816"
style="font-size:4.500000px;text-anchor:middle;font-family:Arial,Helvetica;alignment-baseline:baseline;stroke.opacity:1;dominant-baseline:baseline"
fill="black"
>
 </text>



<path
d="M 117.5 578.990395707993 Q 117.5 578.990395707993 117.5 578.990395707993 L 135 578.990395707993 Q 135 578.990395707993 135 578.990395707993 L 135 618.990395707993 Q 135 618.990395707993 135 618.990395707993 L 117.5 618.990395707993 Q 117.5 618.990395707993 117.5 618.990395707993 Z"
id="wikipathways_WP1433_d7816"
style="fill:#64DD64;fill-opacity:1.000000;stroke-width:0.5;stroke:black;stroke-opacity:0.000000"
transform = "rotate(0.000000 0.000000 0.000000)"
/>


<text
x="126.250000"
y="600.490396"
id="wikipathways_WP1433_d7816"
style="font-size:4.500000px;text-anchor:middle;font-family:Arial,Helvetica;alignment-baseline:baseline;stroke.opacity:1;dominant-baseline:baseline"
fill="black"
>
 </text>



<path
d="M 135 578.990395707993 Q 135 578.990395707993 135 578.990395707993 L 152.5 578.990395707993 Q 152.5 578.990395707993 152.5 578.990395707993 L 152.5 618.990395707993 Q 152.5 618.990395707993 152.5 618.990395707993 L 135 618.990395707993 Q 135 618.990395707993 135 618.990395707993 Z"
id="wikipathways_WP1433_d7816"
style="fill:#C4ADAD;fill-opacity:1.000000;stroke-width:0.5;stroke:black;stroke-opacity:0.000000"
transform = "rotate(0.000000 0.000000 0.000000)"
/>


<text
x="143.750000"
y="600.490396"
id="wikipathways_WP1433_d7816"
style="font-size:4.500000px;text-anchor:middle;font-family:Arial,Helvetica;alignment-baseline:baseline;stroke.opacity:1;dominant-baseline:baseline"
fill="black"
>
 </text>



<path
d="M 152.5 578.990395707993 Q 152.5 578.990395707993 152.5 578.990395707993 L 170 578.990395707993 Q 170 578.990395707993 170 578.990395707993 L 170 614.990395707993 Q 170 618.990395707993 166 618.990395707993 L 152.5 618.990395707993 Q 152.5 618.990395707993 152.5 618.990395707993 Z"
id="wikipathways_WP1433_d7816"
style="fill:#E94141;fill-opacity:1.000000;stroke-width:0.5;stroke:black;stroke-opacity:0.000000"
transform = "rotate(0.000000 0.000000 0.000000)"
/>


<text
x="161.250000"
y="600.490396"
id="wikipathways_WP1433_d7816"
style="font-size:4.500000px;text-anchor:middle;font-family:Arial,Helvetica;alignment-baseline:baseline;stroke.opacity:1;dominant-baseline:baseline"
fill="black"
>
 </text>


<path
d="M 100 578.990395707993 Q 100 578.990395707993 100 578.990395707993 L 170 578.990395707993 Q 170 578.990395707993 170 578.990395707993 L 170 611.990395707993 Q 170 618.990395707993 163 618.990395707993 L 107 618.990395707993 Q 100 618.990395707993 100 611.990395707993 Z"
id="wikipathways_WP1433_d7816"
style="fill:#E94141;fill-opacity:0.000000;stroke-width:1;stroke:black;stroke-opacity:1.000000"
transform = "rotate(0.000000 0.000000 0.000000)"
/>


<text
x="135.000000"
y="604.990396"
id="wikipathways_WP1433_d7816"
style="font-size:18.000000px;text-anchor:middle;font-family:Arial,Helvetica;alignment-baseline:baseline;stroke.opacity:1;dominant-baseline:baseline"
fill="black"
>
CARD8</text>


<rect
width="35.000000"
height="17.500000"
rx="0.000000"
ry="0.000000"
x="100.000000"
y="570.240396"
id="wikipathways_WP1433_d7816.info.1"
style="fill:white;fill-opacity:1.000000;stroke:black;stroke-width:1.000000;stroke-opacity:1.000000" />


<text
x="117.500000"
y="581.990396"
id="wikipathways_WP1433_d7816.info.1"
style="font-size:9.000000px;text-anchor:middle;font-family:Arial,Helvetica;alignment-baseline:baseline;stroke.opacity:1;dominant-baseline:baseline"
fill="black"
>
mt:DNA</text>




<path
d="M 250.516559549086 430.451623801603 Q 250.516559549086 430.451623801603 250.516559549086 430.451623801603 L 268.016559549086 430.451623801603 Q 268.016559549086 430.451623801603 268.016559549086 430.451623801603 L 268.016559549086 470.451623801603 Q 268.016559549086 470.451623801603 268.016559549086 470.451623801603 L 254.516559549086 470.451623801603 Q 250.516559549086 470.451623801603 250.516559549086 466.451623801603 Z"
id="wikipathways_WP1433_d53d2"
style="fill:#DA6D6D;fill-opacity:1.000000;stroke-width:0.5;stroke:black;stroke-opacity:0.000000"
transform = "rotate(0.000000 0.000000 0.000000)"
/>


<text
x="259.266560"
y="451.951624"
id="wikipathways_WP1433_d53d2"
style="font-size:4.500000px;text-anchor:middle;font-family:Arial,Helvetica;alignment-baseline:baseline;stroke.opacity:1;dominant-baseline:baseline"
fill="black"
>
 </text>



<path
d="M 268.016559549086 430.451623801603 Q 268.016559549086 430.451623801603 268.016559549086 430.451623801603 L 285.516559549086 430.451623801603 Q 285.516559549086 430.451623801603 285.516559549086 430.451623801603 L 285.516559549086 470.451623801603 Q 285.516559549086 470.451623801603 285.516559549086 470.451623801603 L 268.016559549086 470.451623801603 Q 268.016559549086 470.451623801603 268.016559549086 470.451623801603 Z"
id="wikipathways_WP1433_d53d2"
style="fill:#FE0202;fill-opacity:1.000000;stroke-width:0.5;stroke:black;stroke-opacity:0.000000"
transform = "rotate(0.000000 0.000000 0.000000)"
/>


<text
x="276.766560"
y="451.951624"
id="wikipathways_WP1433_d53d2"
style="font-size:4.500000px;text-anchor:middle;font-family:Arial,Helvetica;alignment-baseline:baseline;stroke.opacity:1;dominant-baseline:baseline"
fill="black"
>
 </text>



<path
d="M 285.516559549086 430.451623801603 Q 285.516559549086 430.451623801603 285.516559549086 430.451623801603 L 303.016559549086 430.451623801603 Q 303.016559549086 430.451623801603 303.016559549086 430.451623801603 L 303.016559549086 470.451623801603 Q 303.016559549086 470.451623801603 303.016559549086 470.451623801603 L 285.516559549086 470.451623801603 Q 285.516559549086 470.451623801603 285.516559549086 470.451623801603 Z"
id="wikipathways_WP1433_d53d2"
style="fill:#EC3737;fill-opacity:1.000000;stroke-width:0.5;stroke:black;stroke-opacity:0.000000"
transform = "rotate(0.000000 0.000000 0.000000)"
/>


<text
x="294.266560"
y="451.951624"
id="wikipathways_WP1433_d53d2"
style="font-size:4.500000px;text-anchor:middle;font-family:Arial,Helvetica;alignment-baseline:baseline;stroke.opacity:1;dominant-baseline:baseline"
fill="black"
>
 </text>



<path
d="M 303.016559549086 430.451623801603 Q 303.016559549086 430.451623801603 303.016559549086 430.451623801603 L 320.516559549086 430.451623801603 Q 320.516559549086 430.451623801603 320.516559549086 430.451623801603 L 320.516559549086 466.451623801603 Q 320.516559549086 470.451623801603 316.516559549086 470.451623801603 L 303.016559549086 470.451623801603 Q 303.016559549086 470.451623801603 303.016559549086 470.451623801603 Z"
id="wikipathways_WP1433_d53d2"
style="fill:#8AD08A;fill-opacity:1.000000;stroke-width:0.5;stroke:black;stroke-opacity:0.000000"
transform = "rotate(0.000000 0.000000 0.000000)"
/>


<text
x="311.766560"
y="451.951624"
id="wikipathways_WP1433_d53d2"
style="font-size:4.500000px;text-anchor:middle;font-family:Arial,Helvetica;alignment-baseline:baseline;stroke.opacity:1;dominant-baseline:baseline"
fill="black"
>
 </text>


<path
d="M 250.516559549086 430.451623801603 Q 250.516559549086 430.451623801603 250.516559549086 430.451623801603 L 320.516559549086 430.451623801603 Q 320.516559549086 430.451623801603 320.516559549086 430.451623801603 L 320.516559549086 463.451623801603 Q 320.516559549086 470.451623801603 313.516559549086 470.451623801603 L 257.516559549086 470.451623801603 Q 250.516559549086 470.451623801603 250.516559549086 463.451623801603 Z"
id="wikipathways_WP1433_d53d2"
style="fill:#8AD08A;fill-opacity:0.000000;stroke-width:1;stroke:black;stroke-opacity:1.000000"
transform = "rotate(0.000000 0.000000 0.000000)"
/>


<text
x="285.516560"
y="456.451624"
id="wikipathways_WP1433_d53d2"
style="font-size:18.000000px;text-anchor:middle;font-family:Arial,Helvetica;alignment-baseline:baseline;stroke.opacity:1;dominant-baseline:baseline"
fill="black"
>
IL18</text>


<rect
width="35.000000"
height="17.500000"
rx="0.000000"
ry="0.000000"
x="250.516560"
y="421.701624"
id="wikipathways_WP1433_d53d2.info.1"
style="fill:white;fill-opacity:1.000000;stroke:black;stroke-width:1.000000;stroke-opacity:1.000000" />


<text
x="268.016560"
y="433.451624"
id="wikipathways_WP1433_d53d2.info.1"
style="font-size:9.000000px;text-anchor:middle;font-family:Arial,Helvetica;alignment-baseline:baseline;stroke.opacity:1;dominant-baseline:baseline"
fill="black"
>
mt:DNA</text>


<rect
width="26.666667"
height="26.666667"
rx="0.000000"
ry="0.000000"
x="291.122000"
y="351.338410"
id="wikipathways_WP1433_d2d8b"
style="fill:white;fill-opacity:0.600000;stroke:black;stroke-width:1.000000;stroke-opacity:1.000000" />



<text
x="304.455334"
y="372.671744"
id="wikipathways_WP1433_d2d8b"
style="font-size:24.000000px;text-anchor:middle;font-family:Arial,Helvetica;alignment-baseline:baseline;stroke.opacity:1;dominant-baseline:baseline"
fill="black"
>
\\</text>




<path
d="M 390.957555123951 738.165862556699 Q 390.957555123951 738.165862556699 390.957555123951 738.165862556699 L 408.457555123951 738.165862556699 Q 408.457555123951 738.165862556699 408.457555123951 738.165862556699 L 408.457555123951 778.165862556699 Q 408.457555123951 778.165862556699 408.457555123951 778.165862556699 L 394.957555123951 778.165862556699 Q 390.957555123951 778.165862556699 390.957555123951 774.165862556699 Z"
id="wikipathways_WP1433_cc2a9"
style="fill:#FC0A0A;fill-opacity:1.000000;stroke-width:0.5;stroke:black;stroke-opacity:0.000000"
transform = "rotate(0.000000 0.000000 0.000000)"
/>


<text
x="399.707555"
y="759.665863"
id="wikipathways_WP1433_cc2a9"
style="font-size:4.500000px;text-anchor:middle;font-family:Arial,Helvetica;alignment-baseline:baseline;stroke.opacity:1;dominant-baseline:baseline"
fill="black"
>
 </text>



<path
d="M 408.457555123951 738.165862556699 Q 408.457555123951 738.165862556699 408.457555123951 738.165862556699 L 425.957555123951 738.165862556699 Q 425.957555123951 738.165862556699 425.957555123951 738.165862556699 L 425.957555123951 778.165862556699 Q 425.957555123951 778.165862556699 425.957555123951 778.165862556699 L 408.457555123951 778.165862556699 Q 408.457555123951 778.165862556699 408.457555123951 778.165862556699 Z"
id="wikipathways_WP1433_cc2a9"
style="fill:#10F910;fill-opacity:1.000000;stroke-width:0.5;stroke:black;stroke-opacity:0.000000"
transform = "rotate(0.000000 0.000000 0.000000)"
/>


<text
x="417.207555"
y="759.665863"
id="wikipathways_WP1433_cc2a9"
style="font-size:4.500000px;text-anchor:middle;font-family:Arial,Helvetica;alignment-baseline:baseline;stroke.opacity:1;dominant-baseline:baseline"
fill="black"
>
 </text>



<path
d="M 425.957555123951 738.165862556699 Q 425.957555123951 738.165862556699 425.957555123951 738.165862556699 L 443.457555123951 738.165862556699 Q 443.457555123951 738.165862556699 443.457555123951 738.165862556699 L 443.457555123951 778.165862556699 Q 443.457555123951 778.165862556699 443.457555123951 778.165862556699 L 425.957555123951 778.165862556699 Q 425.957555123951 778.165862556699 425.957555123951 778.165862556699 Z"
id="wikipathways_WP1433_cc2a9"
style="fill:#A4C7A4;fill-opacity:1.000000;stroke-width:0.5;stroke:black;stroke-opacity:0.000000"
transform = "rotate(0.000000 0.000000 0.000000)"
/>


<text
x="434.707555"
y="759.665863"
id="wikipathways_WP1433_cc2a9"
style="font-size:4.500000px;text-anchor:middle;font-family:Arial,Helvetica;alignment-baseline:baseline;stroke.opacity:1;dominant-baseline:baseline"
fill="black"
>
 </text>



<path
d="M 443.457555123951 738.165862556699 Q 443.457555123951 738.165862556699 443.457555123951 738.165862556699 L 460.957555123951 738.165862556699 Q 460.957555123951 738.165862556699 460.957555123951 738.165862556699 L 460.957555123951 774.165862556699 Q 460.957555123951 778.165862556699 456.957555123951 778.165862556699 L 443.457555123951 778.165862556699 Q 443.457555123951 778.165862556699 443.457555123951 778.165862556699 Z"
id="wikipathways_WP1433_cc2a9"
style="fill:#FF0000;fill-opacity:1.000000;stroke-width:0.5;stroke:black;stroke-opacity:0.000000"
transform = "rotate(0.000000 0.000000 0.000000)"
/>


<text
x="452.207555"
y="759.665863"
id="wikipathways_WP1433_cc2a9"
style="font-size:4.500000px;text-anchor:middle;font-family:Arial,Helvetica;alignment-baseline:baseline;stroke.opacity:1;dominant-baseline:baseline"
fill="black"
>
 </text>


<path
d="M 390.957555123951 738.165862556699 Q 390.957555123951 738.165862556699 390.957555123951 738.165862556699 L 460.957555123951 738.165862556699 Q 460.957555123951 738.165862556699 460.957555123951 738.165862556699 L 460.957555123951 771.165862556699 Q 460.957555123951 778.165862556699 453.957555123951 778.165862556699 L 397.957555123951 778.165862556699 Q 390.957555123951 778.165862556699 390.957555123951 771.165862556699 Z"
id="wikipathways_WP1433_cc2a9"
style="fill:#FF0000;fill-opacity:0.000000;stroke-width:1;stroke:black;stroke-opacity:1.000000"
transform = "rotate(0.000000 0.000000 0.000000)"
/>


<text
x="425.957555"
y="764.165863"
id="wikipathways_WP1433_cc2a9"
style="font-size:18.000000px;text-anchor:middle;font-family:Arial,Helvetica;alignment-baseline:baseline;stroke.opacity:1;dominant-baseline:baseline"
fill="black"
>
NLRP12</text>


<rect
width="35.000000"
height="17.500000"
rx="0.000000"
ry="0.000000"
x="390.957555"
y="729.415863"
id="wikipathways_WP1433_cc2a9.info.1"
style="fill:white;fill-opacity:1.000000;stroke:black;stroke-width:1.000000;stroke-opacity:1.000000" />


<text
x="408.457555"
y="741.165863"
id="wikipathways_WP1433_cc2a9.info.1"
style="font-size:9.000000px;text-anchor:middle;font-family:Arial,Helvetica;alignment-baseline:baseline;stroke.opacity:1;dominant-baseline:baseline"
fill="black"
>
mt:DNA</text>




<path d="M456.000000 692.000000 C 473.000000 687.000000, 500.000000 678.000000,523.000000 671.000000" stroke="black"  fill="transparent"/>

<line
x1="500" y1="678" x2="523" y2="671"
id="0"
style="stroke:black;stroke-width:1.000000;stroke-opacity:0" />


<line
x1="473" y1="687" x2="456" y2="692"
id="wikipathways_WP1433_e4d99--to--wikipathways_WP1433_b52ac-input"
style="stroke:black;stroke-width:1.000000;stroke-opacity:0" />


<polygon
points = "456,692 442.8,687.6 447.2,692 442.8,696.4"
id="line"
style="fill:black; stroke:#000000; stroke-width:1"
transform = "rotate(163.610460 456.000000 692.000000)"
/>


<path d="M278.000000 604.000000 C 294.000000 602.000000, 324.000000 598.000000,347.000000 595.000000" stroke="black"  fill="transparent"/>

<line
x1="324" y1="598" x2="347" y2="595"
id="0"
style="stroke:black;stroke-width:1.000000;stroke-opacity:0" />


<line
x1="294" y1="602" x2="278" y2="604"
id="wikipathways_WP1433_a29e7--to--wikipathways_WP1433_f1a7d-input"
style="stroke:black;stroke-width:1.000000;stroke-opacity:0" />


<polygon
points = "278,604 264.8,599.6 269.2,604 264.8,608.4"
id="line"
style="fill:black; stroke:#000000; stroke-width:1"
transform = "rotate(172.874984 278.000000 604.000000)"
/>


<path d="M439.000000 710.000000 C 437.000000 718.000000, 434.000000 728.000000,431.000000 737.000000" stroke="black"  fill="transparent"/>

<line
x1="434" y1="728" x2="431" y2="737"
id="0"
style="stroke:black;stroke-width:1.000000;stroke-opacity:0" />


<line
x1="437" y1="718" x2="439" y2="710"
id="wikipathways_WP1433_cc2a9--to--wikipathways_WP1433_b52ac-input"
style="stroke:black;stroke-width:1.000000;stroke-opacity:0" />


<polygon
points = "439,710 425.8,705.6 430.2,710 425.8,714.4"
id="line"
style="fill:black; stroke:#000000; stroke-width:1"
transform = "rotate(-75.963757 439.000000 710.000000)"
/>


<path d="M445.000000 576.000000 C 437.000000 573.000000, 428.000000 569.000000,420.000000 566.000000" stroke="black"  fill="transparent"/>
<path d="M420.000000 566.000000 C 361.000000 547.000000, 288.000000 531.000000,258.000000 525.000000" stroke="black"  fill="transparent"/>

<line
x1="437" y1="573" x2="445" y2="576"
id="0"
style="stroke:black;stroke-width:1.000000;stroke-opacity:0" />


<line
x1="288" y1="531" x2="258" y2="525"
id="wikipathways_WP1433_ee805--to--wikipathways_WP1433_b2d4c-input"
style="stroke:black;stroke-width:1.000000;stroke-opacity:0" />


<polygon
points = "258,525 244.8,520.6 249.2,525 244.8,529.4"
id="line"
style="fill:black; stroke:#000000; stroke-width:1"
transform = "rotate(191.309932 258.000000 525.000000)"
/>


<path d="M277.000000 665.000000 C 250.000000 663.000000, 215.000000 661.000000,195.000000 660.000000" stroke="black"  fill="transparent"/>

<line
x1="250" y1="663" x2="277" y2="665"
id="0"
style="stroke:black;stroke-width:1.000000;stroke-opacity:0" />


<line
x1="215" y1="661" x2="195" y2="660"
id="wikipathways_WP262_de3bc--to--wikipathways_WP1433_a4605-input"
style="stroke:black;stroke-width:1.000000;stroke-opacity:0" />


<polygon
points = "195,660 181.8,655.6 186.2,660 181.8,664.4"
id="line"
style="fill:black; stroke:#000000; stroke-width:1"
transform = "rotate(182.862405 195.000000 660.000000)"
/>


<path d="M264.000000 620.000000 C 263.000000 651.000000, 262.000000 728.000000,261.000000 765.000000" stroke="black"  fill="transparent"/>

<line
x1="262" y1="728" x2="261" y2="765"
id="0"
style="stroke:black;stroke-width:1.000000;stroke-opacity:0" />


<line
x1="263" y1="651" x2="264" y2="620"
id="wikipathways_WP1433_abdec--to--wikipathways_WP1433_f1a7d-input"
style="stroke:black;stroke-width:1.000000;stroke-opacity:0" />


<polygon
points = "264,620 250.8,615.6 255.2,620 250.8,624.4"
id="line"
style="fill:black; stroke:#000000; stroke-width:1"
transform = "rotate(-88.152390 264.000000 620.000000)"
/>


<path d="M328.000000 285.000000 C 358.000000 275.000000, 399.000000 262.000000,420.000000 256.000000" stroke="black"  fill="transparent"/>

<line
x1="358" y1="275" x2="328" y2="285"
id="0"
style="stroke:black;stroke-width:1.000000;stroke-opacity:0" />


<line
x1="399" y1="262" x2="420" y2="256"
id="wikipathways_WP1433_a0e05--to--wikipathways_WP1433_ca899-input"
style="stroke:black;stroke-width:1.000000;stroke-opacity:0" />


<polygon
points = "420,256 406.8,251.6 411.2,256 406.8,260.4"
id="line"
style="fill:black; stroke:#000000; stroke-width:1"
transform = "rotate(-15.945396 420.000000 256.000000)"
/>


<path d="M421.000000 241.000000 C 405.000000 228.000000, 377.000000 206.000000,357.000000 190.000000" stroke="black"  fill="transparent"/>

<line
x1="377" y1="206" x2="357" y2="190"
id="0"
style="stroke:black;stroke-width:1.000000;stroke-opacity:0" />


<line
x1="405" y1="228" x2="421" y2="241"
id="wikipathways_WP2873_a460d--to--wikipathways_WP1433_ca899-input"
style="stroke:black;stroke-width:1.000000;stroke-opacity:0" />


<polygon
points = "421,241 407.8,236.6 412.2,241 407.8,245.4"
id="line"
style="fill:black; stroke:#000000; stroke-width:1"
transform = "rotate(39.093859 421.000000 241.000000)"
/>


<path d="M171.000000 645.000000 C 165.000000 637.000000, 157.000000 628.000000,150.000000 619.000000" stroke="black"  fill="transparent"/>

<line
x1="157" y1="628" x2="150" y2="619"
id="0"
style="stroke:black;stroke-width:1.000000;stroke-opacity:0" />


<line
x1="165" y1="637" x2="171" y2="645"
id="wikipathways_WP1433_d7816--to--wikipathways_WP1433_a4605-input"
style="stroke:black;stroke-width:1.000000;stroke-opacity:0" />


<polygon
points = "171,645 157.8,640.6 162.2,645 157.8,649.4"
id="line"
style="fill:black; stroke:#000000; stroke-width:1"
transform = "rotate(53.130102 171.000000 645.000000)"
/>


<path d="M252.000000 509.000000 C 258.000000 498.000000, 267.000000 482.000000,274.000000 470.000000" stroke="black"  fill="transparent"/>

<line
x1="267" y1="482" x2="274" y2="470"
id="0"
style="stroke:black;stroke-width:1.000000;stroke-opacity:0" />


<line
x1="258" y1="498" x2="252" y2="509"
id="wikipathways_WP1433_d53d2--to--wikipathways_WP1433_b2d4c-input"
style="stroke:black;stroke-width:1.000000;stroke-opacity:0" />


<polygon
points = "252,509 238.8,504.6 243.2,509 238.8,513.4"
id="line"
style="fill:black; stroke:#000000; stroke-width:1"
transform = "rotate(118.610460 252.000000 509.000000)"
/>


<path d="M290.000000 430.000000 C 293.000000 414.000000, 298.000000 392.000000,301.000000 378.000000" stroke="black"  fill="transparent"/>

<line
x1="293" y1="414" x2="290" y2="430"
id="0"
style="stroke:black;stroke-width:1.000000;stroke-opacity:0" />


<line
x1="298" y1="392" x2="301" y2="378"
id="wikipathways_WP1433_d53d2--to--wikipathways_WP1433_d2d8b-input"
style="stroke:black;stroke-width:1.000000;stroke-opacity:0" />


<polygon
points = "301,378 287.8,373.6 292.2,378 287.8,382.4"
id="line"
style="fill:black; stroke:#000000; stroke-width:1"
transform = "rotate(-77.905243 301.000000 378.000000)"
/>


<path d="M384.000000 569.000000 C 385.000000 554.000000, 387.000000 535.000000,389.000000 521.000000" stroke="black"  fill="transparent"/>

<line
x1="385" y1="554" x2="384" y2="569"
id="0"
style="stroke:black;stroke-width:1.000000;stroke-opacity:0" />


<line
x1="387" y1="535" x2="389" y2="521"
id="wikipathways_WP1433_a29e7--to--wikipathways_WP1433_d81c6-input"
style="stroke:black;stroke-width:1.000000;stroke-opacity:0" />


<polygon
points = "389,521 375.8,516.6 380.2,521 375.8,525.4"
id="line"
style="fill:black; stroke:#000000; stroke-width:1"
transform = "rotate(-81.869898 389.000000 521.000000)"
/>


<path d="M458.000000 467.000000 C 440.000000 478.000000, 418.000000 491.000000,404.000000 500.000000" stroke="black"  fill="transparent"/>

<line
x1="440" y1="478" x2="458" y2="467"
id="0"
style="stroke:black;stroke-width:1.000000;stroke-opacity:0" />


<line
x1="418" y1="491" x2="404" y2="500"
id="wikipathways_WP1433_f372e--to--wikipathways_WP1433_d81c6-input"
style="stroke:black;stroke-width:1.000000;stroke-opacity:0" />


<polygon
points = "404,500 390.8,495.6 395.2,500 390.8,504.4"
id="line"
style="fill:black; stroke:#000000; stroke-width:1"
transform = "rotate(147.264774 404.000000 500.000000)"
/>


<path d="M296.000000 316.000000 C 298.000000 327.000000, 300.000000 340.000000,302.000000 350.000000" stroke="black"  fill="transparent"/>

<line
x1="298" y1="327" x2="296" y2="316"
id="0"
style="stroke:black;stroke-width:1.000000;stroke-opacity:0" />


<line
x1="300" y1="340" x2="302" y2="350"
id="wikipathways_WP1433_a0e05--to--wikipathways_WP1433_d2d8b-input"
style="stroke:black;stroke-width:1.000000;stroke-opacity:0" />


<polygon
points = "302,350 288.8,345.6 293.2,350 288.8,354.4"
id="line"
style="fill:black; stroke:#000000; stroke-width:1"
transform = "rotate(78.690068 302.000000 350.000000)"
/>





<rect
width="2.485149"
height="21.428571"
rx="0.000000"
ry="0.000000"
x="591.783663"
y="150.000000"
id="col.pan"
style="fill:#FF0000;fill-opacity:1.000000;stroke:black;stroke-width:0.000000;stroke-opacity:0.000000" />


<rect
width="2.485149"
height="21.428571"
rx="0.000000"
ry="0.000000"
x="590.298515"
y="150.000000"
id="col.pan"
style="fill:#FE0404;fill-opacity:1.000000;stroke:black;stroke-width:0.000000;stroke-opacity:0.000000" />


<rect
width="2.485149"
height="21.428571"
rx="0.000000"
ry="0.000000"
x="588.813366"
y="150.000000"
id="col.pan"
style="fill:#FC0808;fill-opacity:1.000000;stroke:black;stroke-width:0.000000;stroke-opacity:0.000000" />


<rect
width="2.485149"
height="21.428571"
rx="0.000000"
ry="0.000000"
x="587.328218"
y="150.000000"
id="col.pan"
style="fill:#FB0B0B;fill-opacity:1.000000;stroke:black;stroke-width:0.000000;stroke-opacity:0.000000" />


<rect
width="2.485149"
height="21.428571"
rx="0.000000"
ry="0.000000"
x="585.843069"
y="150.000000"
id="col.pan"
style="fill:#FA0F0F;fill-opacity:1.000000;stroke:black;stroke-width:0.000000;stroke-opacity:0.000000" />


<rect
width="2.485149"
height="21.428571"
rx="0.000000"
ry="0.000000"
x="584.357921"
y="150.000000"
id="col.pan"
style="fill:#F91313;fill-opacity:1.000000;stroke:black;stroke-width:0.000000;stroke-opacity:0.000000" />


<rect
width="2.485149"
height="21.428571"
rx="0.000000"
ry="0.000000"
x="582.872772"
y="150.000000"
id="col.pan"
style="fill:#F71717;fill-opacity:1.000000;stroke:black;stroke-width:0.000000;stroke-opacity:0.000000" />


<rect
width="2.485149"
height="21.428571"
rx="0.000000"
ry="0.000000"
x="581.387624"
y="150.000000"
id="col.pan"
style="fill:#F61B1B;fill-opacity:1.000000;stroke:black;stroke-width:0.000000;stroke-opacity:0.000000" />


<rect
width="2.485149"
height="21.428571"
rx="0.000000"
ry="0.000000"
x="579.902475"
y="150.000000"
id="col.pan"
style="fill:#F51E1E;fill-opacity:1.000000;stroke:black;stroke-width:0.000000;stroke-opacity:0.000000" />


<rect
width="2.485149"
height="21.428571"
rx="0.000000"
ry="0.000000"
x="578.417327"
y="150.000000"
id="col.pan"
style="fill:#F32222;fill-opacity:1.000000;stroke:black;stroke-width:0.000000;stroke-opacity:0.000000" />


<rect
width="2.485149"
height="21.428571"
rx="0.000000"
ry="0.000000"
x="576.932178"
y="150.000000"
id="col.pan"
style="fill:#F22626;fill-opacity:1.000000;stroke:black;stroke-width:0.000000;stroke-opacity:0.000000" />


<rect
width="2.485149"
height="21.428571"
rx="0.000000"
ry="0.000000"
x="575.447030"
y="150.000000"
id="col.pan"
style="fill:#F12A2A;fill-opacity:1.000000;stroke:black;stroke-width:0.000000;stroke-opacity:0.000000" />


<rect
width="2.485149"
height="21.428571"
rx="0.000000"
ry="0.000000"
x="573.961881"
y="150.000000"
id="col.pan"
style="fill:#EF2E2E;fill-opacity:1.000000;stroke:black;stroke-width:0.000000;stroke-opacity:0.000000" />


<rect
width="2.485149"
height="21.428571"
rx="0.000000"
ry="0.000000"
x="572.476733"
y="150.000000"
id="col.pan"
style="fill:#EE3131;fill-opacity:1.000000;stroke:black;stroke-width:0.000000;stroke-opacity:0.000000" />


<rect
width="2.485149"
height="21.428571"
rx="0.000000"
ry="0.000000"
x="570.991584"
y="150.000000"
id="col.pan"
style="fill:#ED3535;fill-opacity:1.000000;stroke:black;stroke-width:0.000000;stroke-opacity:0.000000" />


<rect
width="2.485149"
height="21.428571"
rx="0.000000"
ry="0.000000"
x="569.506436"
y="150.000000"
id="col.pan"
style="fill:#EC3939;fill-opacity:1.000000;stroke:black;stroke-width:0.000000;stroke-opacity:0.000000" />


<rect
width="2.485149"
height="21.428571"
rx="0.000000"
ry="0.000000"
x="568.021287"
y="150.000000"
id="col.pan"
style="fill:#EA3D3D;fill-opacity:1.000000;stroke:black;stroke-width:0.000000;stroke-opacity:0.000000" />


<rect
width="2.485149"
height="21.428571"
rx="0.000000"
ry="0.000000"
x="566.536139"
y="150.000000"
id="col.pan"
style="fill:#E94141;fill-opacity:1.000000;stroke:black;stroke-width:0.000000;stroke-opacity:0.000000" />


<rect
width="2.485149"
height="21.428571"
rx="0.000000"
ry="0.000000"
x="565.050990"
y="150.000000"
id="col.pan"
style="fill:#E84444;fill-opacity:1.000000;stroke:black;stroke-width:0.000000;stroke-opacity:0.000000" />


<rect
width="2.485149"
height="21.428571"
rx="0.000000"
ry="0.000000"
x="563.565842"
y="150.000000"
id="col.pan"
style="fill:#E64848;fill-opacity:1.000000;stroke:black;stroke-width:0.000000;stroke-opacity:0.000000" />


<rect
width="2.485149"
height="21.428571"
rx="0.000000"
ry="0.000000"
x="562.080693"
y="150.000000"
id="col.pan"
style="fill:#E54C4C;fill-opacity:1.000000;stroke:black;stroke-width:0.000000;stroke-opacity:0.000000" />


<rect
width="2.485149"
height="21.428571"
rx="0.000000"
ry="0.000000"
x="560.595545"
y="150.000000"
id="col.pan"
style="fill:#E45050;fill-opacity:1.000000;stroke:black;stroke-width:0.000000;stroke-opacity:0.000000" />


<rect
width="2.485149"
height="21.428571"
rx="0.000000"
ry="0.000000"
x="559.110396"
y="150.000000"
id="col.pan"
style="fill:#E25454;fill-opacity:1.000000;stroke:black;stroke-width:0.000000;stroke-opacity:0.000000" />


<rect
width="2.485149"
height="21.428571"
rx="0.000000"
ry="0.000000"
x="557.625248"
y="150.000000"
id="col.pan"
style="fill:#E15757;fill-opacity:1.000000;stroke:black;stroke-width:0.000000;stroke-opacity:0.000000" />


<rect
width="2.485149"
height="21.428571"
rx="0.000000"
ry="0.000000"
x="556.140099"
y="150.000000"
id="col.pan"
style="fill:#E05B5B;fill-opacity:1.000000;stroke:black;stroke-width:0.000000;stroke-opacity:0.000000" />


<rect
width="2.485149"
height="21.428571"
rx="0.000000"
ry="0.000000"
x="554.654950"
y="150.000000"
id="col.pan"
style="fill:#DF5F5F;fill-opacity:1.000000;stroke:black;stroke-width:0.000000;stroke-opacity:0.000000" />


<rect
width="2.485149"
height="21.428571"
rx="0.000000"
ry="0.000000"
x="553.169802"
y="150.000000"
id="col.pan"
style="fill:#DD6363;fill-opacity:1.000000;stroke:black;stroke-width:0.000000;stroke-opacity:0.000000" />


<rect
width="2.485149"
height="21.428571"
rx="0.000000"
ry="0.000000"
x="551.684653"
y="150.000000"
id="col.pan"
style="fill:#DC6767;fill-opacity:1.000000;stroke:black;stroke-width:0.000000;stroke-opacity:0.000000" />


<rect
width="2.485149"
height="21.428571"
rx="0.000000"
ry="0.000000"
x="550.199505"
y="150.000000"
id="col.pan"
style="fill:#DB6A6A;fill-opacity:1.000000;stroke:black;stroke-width:0.000000;stroke-opacity:0.000000" />


<rect
width="2.485149"
height="21.428571"
rx="0.000000"
ry="0.000000"
x="548.714356"
y="150.000000"
id="col.pan"
style="fill:#D96E6E;fill-opacity:1.000000;stroke:black;stroke-width:0.000000;stroke-opacity:0.000000" />


<rect
width="2.485149"
height="21.428571"
rx="0.000000"
ry="0.000000"
x="547.229208"
y="150.000000"
id="col.pan"
style="fill:#D87272;fill-opacity:1.000000;stroke:black;stroke-width:0.000000;stroke-opacity:0.000000" />


<rect
width="2.485149"
height="21.428571"
rx="0.000000"
ry="0.000000"
x="545.744059"
y="150.000000"
id="col.pan"
style="fill:#D77676;fill-opacity:1.000000;stroke:black;stroke-width:0.000000;stroke-opacity:0.000000" />


<rect
width="2.485149"
height="21.428571"
rx="0.000000"
ry="0.000000"
x="544.258911"
y="150.000000"
id="col.pan"
style="fill:#D57A7A;fill-opacity:1.000000;stroke:black;stroke-width:0.000000;stroke-opacity:0.000000" />


<rect
width="2.485149"
height="21.428571"
rx="0.000000"
ry="0.000000"
x="542.773762"
y="150.000000"
id="col.pan"
style="fill:#D47D7D;fill-opacity:1.000000;stroke:black;stroke-width:0.000000;stroke-opacity:0.000000" />


<rect
width="2.485149"
height="21.428571"
rx="0.000000"
ry="0.000000"
x="541.288614"
y="150.000000"
id="col.pan"
style="fill:#D38181;fill-opacity:1.000000;stroke:black;stroke-width:0.000000;stroke-opacity:0.000000" />


<rect
width="2.485149"
height="21.428571"
rx="0.000000"
ry="0.000000"
x="539.803465"
y="150.000000"
id="col.pan"
style="fill:#D28585;fill-opacity:1.000000;stroke:black;stroke-width:0.000000;stroke-opacity:0.000000" />


<rect
width="2.485149"
height="21.428571"
rx="0.000000"
ry="0.000000"
x="538.318317"
y="150.000000"
id="col.pan"
style="fill:#D08989;fill-opacity:1.000000;stroke:black;stroke-width:0.000000;stroke-opacity:0.000000" />


<rect
width="2.485149"
height="21.428571"
rx="0.000000"
ry="0.000000"
x="536.833168"
y="150.000000"
id="col.pan"
style="fill:#CF8D8D;fill-opacity:1.000000;stroke:black;stroke-width:0.000000;stroke-opacity:0.000000" />


<rect
width="2.485149"
height="21.428571"
rx="0.000000"
ry="0.000000"
x="535.348020"
y="150.000000"
id="col.pan"
style="fill:#CE9090;fill-opacity:1.000000;stroke:black;stroke-width:0.000000;stroke-opacity:0.000000" />


<rect
width="2.485149"
height="21.428571"
rx="0.000000"
ry="0.000000"
x="533.862871"
y="150.000000"
id="col.pan"
style="fill:#CC9494;fill-opacity:1.000000;stroke:black;stroke-width:0.000000;stroke-opacity:0.000000" />


<rect
width="2.485149"
height="21.428571"
rx="0.000000"
ry="0.000000"
x="532.377723"
y="150.000000"
id="col.pan"
style="fill:#CB9898;fill-opacity:1.000000;stroke:black;stroke-width:0.000000;stroke-opacity:0.000000" />


<rect
width="2.485149"
height="21.428571"
rx="0.000000"
ry="0.000000"
x="530.892574"
y="150.000000"
id="col.pan"
style="fill:#CA9C9C;fill-opacity:1.000000;stroke:black;stroke-width:0.000000;stroke-opacity:0.000000" />


<rect
width="2.485149"
height="21.428571"
rx="0.000000"
ry="0.000000"
x="529.407426"
y="150.000000"
id="col.pan"
style="fill:#C8A0A0;fill-opacity:1.000000;stroke:black;stroke-width:0.000000;stroke-opacity:0.000000" />


<rect
width="2.485149"
height="21.428571"
rx="0.000000"
ry="0.000000"
x="527.922277"
y="150.000000"
id="col.pan"
style="fill:#C7A3A3;fill-opacity:1.000000;stroke:black;stroke-width:0.000000;stroke-opacity:0.000000" />


<rect
width="2.485149"
height="21.428571"
rx="0.000000"
ry="0.000000"
x="526.437129"
y="150.000000"
id="col.pan"
style="fill:#C6A7A7;fill-opacity:1.000000;stroke:black;stroke-width:0.000000;stroke-opacity:0.000000" />


<rect
width="2.485149"
height="21.428571"
rx="0.000000"
ry="0.000000"
x="524.951980"
y="150.000000"
id="col.pan"
style="fill:#C5ABAB;fill-opacity:1.000000;stroke:black;stroke-width:0.000000;stroke-opacity:0.000000" />


<rect
width="2.485149"
height="21.428571"
rx="0.000000"
ry="0.000000"
x="523.466832"
y="150.000000"
id="col.pan"
style="fill:#C3AFAF;fill-opacity:1.000000;stroke:black;stroke-width:0.000000;stroke-opacity:0.000000" />


<rect
width="2.485149"
height="21.428571"
rx="0.000000"
ry="0.000000"
x="521.981683"
y="150.000000"
id="col.pan"
style="fill:#C2B3B3;fill-opacity:1.000000;stroke:black;stroke-width:0.000000;stroke-opacity:0.000000" />


<rect
width="2.485149"
height="21.428571"
rx="0.000000"
ry="0.000000"
x="520.496535"
y="150.000000"
id="col.pan"
style="fill:#C1B6B6;fill-opacity:1.000000;stroke:black;stroke-width:0.000000;stroke-opacity:0.000000" />


<rect
width="2.485149"
height="21.428571"
rx="0.000000"
ry="0.000000"
x="519.011386"
y="150.000000"
id="col.pan"
style="fill:#BFBABA;fill-opacity:1.000000;stroke:black;stroke-width:0.000000;stroke-opacity:0.000000" />


<rect
width="2.485149"
height="21.428571"
rx="0.000000"
ry="0.000000"
x="517.526238"
y="150.000000"
id="col.pan"
style="fill:#BEBEBE;fill-opacity:1.000000;stroke:black;stroke-width:0.000000;stroke-opacity:0.000000" />


<rect
width="2.485149"
height="21.428571"
rx="0.000000"
ry="0.000000"
x="516.041089"
y="150.000000"
id="col.pan"
style="fill:#BABFBA;fill-opacity:1.000000;stroke:black;stroke-width:0.000000;stroke-opacity:0.000000" />


<rect
width="2.485149"
height="21.428571"
rx="0.000000"
ry="0.000000"
x="514.555941"
y="150.000000"
id="col.pan"
style="fill:#B6C1B6;fill-opacity:1.000000;stroke:black;stroke-width:0.000000;stroke-opacity:0.000000" />


<rect
width="2.485149"
height="21.428571"
rx="0.000000"
ry="0.000000"
x="513.070792"
y="150.000000"
id="col.pan"
style="fill:#B3C2B3;fill-opacity:1.000000;stroke:black;stroke-width:0.000000;stroke-opacity:0.000000" />


<rect
width="2.485149"
height="21.428571"
rx="0.000000"
ry="0.000000"
x="511.585644"
y="150.000000"
id="col.pan"
style="fill:#AFC3AF;fill-opacity:1.000000;stroke:black;stroke-width:0.000000;stroke-opacity:0.000000" />


<rect
width="2.485149"
height="21.428571"
rx="0.000000"
ry="0.000000"
x="510.100495"
y="150.000000"
id="col.pan"
style="fill:#ABC5AB;fill-opacity:1.000000;stroke:black;stroke-width:0.000000;stroke-opacity:0.000000" />


<rect
width="2.485149"
height="21.428571"
rx="0.000000"
ry="0.000000"
x="508.615347"
y="150.000000"
id="col.pan"
style="fill:#A7C6A7;fill-opacity:1.000000;stroke:black;stroke-width:0.000000;stroke-opacity:0.000000" />


<rect
width="2.485149"
height="21.428571"
rx="0.000000"
ry="0.000000"
x="507.130198"
y="150.000000"
id="col.pan"
style="fill:#A3C7A3;fill-opacity:1.000000;stroke:black;stroke-width:0.000000;stroke-opacity:0.000000" />


<rect
width="2.485149"
height="21.428571"
rx="0.000000"
ry="0.000000"
x="505.645049"
y="150.000000"
id="col.pan"
style="fill:#A0C8A0;fill-opacity:1.000000;stroke:black;stroke-width:0.000000;stroke-opacity:0.000000" />


<rect
width="2.485149"
height="21.428571"
rx="0.000000"
ry="0.000000"
x="504.159901"
y="150.000000"
id="col.pan"
style="fill:#9CCA9C;fill-opacity:1.000000;stroke:black;stroke-width:0.000000;stroke-opacity:0.000000" />


<rect
width="2.485149"
height="21.428571"
rx="0.000000"
ry="0.000000"
x="502.674752"
y="150.000000"
id="col.pan"
style="fill:#98CB98;fill-opacity:1.000000;stroke:black;stroke-width:0.000000;stroke-opacity:0.000000" />


<rect
width="2.485149"
height="21.428571"
rx="0.000000"
ry="0.000000"
x="501.189604"
y="150.000000"
id="col.pan"
style="fill:#94CC94;fill-opacity:1.000000;stroke:black;stroke-width:0.000000;stroke-opacity:0.000000" />


<rect
width="2.485149"
height="21.428571"
rx="0.000000"
ry="0.000000"
x="499.704455"
y="150.000000"
id="col.pan"
style="fill:#90CE90;fill-opacity:1.000000;stroke:black;stroke-width:0.000000;stroke-opacity:0.000000" />


<rect
width="2.485149"
height="21.428571"
rx="0.000000"
ry="0.000000"
x="498.219307"
y="150.000000"
id="col.pan"
style="fill:#8DCF8D;fill-opacity:1.000000;stroke:black;stroke-width:0.000000;stroke-opacity:0.000000" />


<rect
width="2.485149"
height="21.428571"
rx="0.000000"
ry="0.000000"
x="496.734158"
y="150.000000"
id="col.pan"
style="fill:#89D089;fill-opacity:1.000000;stroke:black;stroke-width:0.000000;stroke-opacity:0.000000" />


<rect
width="2.485149"
height="21.428571"
rx="0.000000"
ry="0.000000"
x="495.249010"
y="150.000000"
id="col.pan"
style="fill:#85D285;fill-opacity:1.000000;stroke:black;stroke-width:0.000000;stroke-opacity:0.000000" />


<rect
width="2.485149"
height="21.428571"
rx="0.000000"
ry="0.000000"
x="493.763861"
y="150.000000"
id="col.pan"
style="fill:#81D381;fill-opacity:1.000000;stroke:black;stroke-width:0.000000;stroke-opacity:0.000000" />


<rect
width="2.485149"
height="21.428571"
rx="0.000000"
ry="0.000000"
x="492.278713"
y="150.000000"
id="col.pan"
style="fill:#7DD47D;fill-opacity:1.000000;stroke:black;stroke-width:0.000000;stroke-opacity:0.000000" />


<rect
width="2.485149"
height="21.428571"
rx="0.000000"
ry="0.000000"
x="490.793564"
y="150.000000"
id="col.pan"
style="fill:#7AD57A;fill-opacity:1.000000;stroke:black;stroke-width:0.000000;stroke-opacity:0.000000" />


<rect
width="2.485149"
height="21.428571"
rx="0.000000"
ry="0.000000"
x="489.308416"
y="150.000000"
id="col.pan"
style="fill:#76D776;fill-opacity:1.000000;stroke:black;stroke-width:0.000000;stroke-opacity:0.000000" />


<rect
width="2.485149"
height="21.428571"
rx="0.000000"
ry="0.000000"
x="487.823267"
y="150.000000"
id="col.pan"
style="fill:#72D872;fill-opacity:1.000000;stroke:black;stroke-width:0.000000;stroke-opacity:0.000000" />


<rect
width="2.485149"
height="21.428571"
rx="0.000000"
ry="0.000000"
x="486.338119"
y="150.000000"
id="col.pan"
style="fill:#6ED96E;fill-opacity:1.000000;stroke:black;stroke-width:0.000000;stroke-opacity:0.000000" />


<rect
width="2.485149"
height="21.428571"
rx="0.000000"
ry="0.000000"
x="484.852970"
y="150.000000"
id="col.pan"
style="fill:#6ADB6A;fill-opacity:1.000000;stroke:black;stroke-width:0.000000;stroke-opacity:0.000000" />


<rect
width="2.485149"
height="21.428571"
rx="0.000000"
ry="0.000000"
x="483.367822"
y="150.000000"
id="col.pan"
style="fill:#67DC67;fill-opacity:1.000000;stroke:black;stroke-width:0.000000;stroke-opacity:0.000000" />


<rect
width="2.485149"
height="21.428571"
rx="0.000000"
ry="0.000000"
x="481.882673"
y="150.000000"
id="col.pan"
style="fill:#63DD63;fill-opacity:1.000000;stroke:black;stroke-width:0.000000;stroke-opacity:0.000000" />


<rect
width="2.485149"
height="21.428571"
rx="0.000000"
ry="0.000000"
x="480.397525"
y="150.000000"
id="col.pan"
style="fill:#5FDF5F;fill-opacity:1.000000;stroke:black;stroke-width:0.000000;stroke-opacity:0.000000" />


<rect
width="2.485149"
height="21.428571"
rx="0.000000"
ry="0.000000"
x="478.912376"
y="150.000000"
id="col.pan"
style="fill:#5BE05B;fill-opacity:1.000000;stroke:black;stroke-width:0.000000;stroke-opacity:0.000000" />


<rect
width="2.485149"
height="21.428571"
rx="0.000000"
ry="0.000000"
x="477.427228"
y="150.000000"
id="col.pan"
style="fill:#57E157;fill-opacity:1.000000;stroke:black;stroke-width:0.000000;stroke-opacity:0.000000" />


<rect
width="2.485149"
height="21.428571"
rx="0.000000"
ry="0.000000"
x="475.942079"
y="150.000000"
id="col.pan"
style="fill:#54E254;fill-opacity:1.000000;stroke:black;stroke-width:0.000000;stroke-opacity:0.000000" />


<rect
width="2.485149"
height="21.428571"
rx="0.000000"
ry="0.000000"
x="474.456931"
y="150.000000"
id="col.pan"
style="fill:#50E450;fill-opacity:1.000000;stroke:black;stroke-width:0.000000;stroke-opacity:0.000000" />


<rect
width="2.485149"
height="21.428571"
rx="0.000000"
ry="0.000000"
x="472.971782"
y="150.000000"
id="col.pan"
style="fill:#4CE54C;fill-opacity:1.000000;stroke:black;stroke-width:0.000000;stroke-opacity:0.000000" />


<rect
width="2.485149"
height="21.428571"
rx="0.000000"
ry="0.000000"
x="471.486634"
y="150.000000"
id="col.pan"
style="fill:#48E648;fill-opacity:1.000000;stroke:black;stroke-width:0.000000;stroke-opacity:0.000000" />


<rect
width="2.485149"
height="21.428571"
rx="0.000000"
ry="0.000000"
x="470.001485"
y="150.000000"
id="col.pan"
style="fill:#44E844;fill-opacity:1.000000;stroke:black;stroke-width:0.000000;stroke-opacity:0.000000" />


<rect
width="2.485149"
height="21.428571"
rx="0.000000"
ry="0.000000"
x="468.516337"
y="150.000000"
id="col.pan"
style="fill:#41E941;fill-opacity:1.000000;stroke:black;stroke-width:0.000000;stroke-opacity:0.000000" />


<rect
width="2.485149"
height="21.428571"
rx="0.000000"
ry="0.000000"
x="467.031188"
y="150.000000"
id="col.pan"
style="fill:#3DEA3D;fill-opacity:1.000000;stroke:black;stroke-width:0.000000;stroke-opacity:0.000000" />


<rect
width="2.485149"
height="21.428571"
rx="0.000000"
ry="0.000000"
x="465.546040"
y="150.000000"
id="col.pan"
style="fill:#39EC39;fill-opacity:1.000000;stroke:black;stroke-width:0.000000;stroke-opacity:0.000000" />


<rect
width="2.485149"
height="21.428571"
rx="0.000000"
ry="0.000000"
x="464.060891"
y="150.000000"
id="col.pan"
style="fill:#35ED35;fill-opacity:1.000000;stroke:black;stroke-width:0.000000;stroke-opacity:0.000000" />


<rect
width="2.485149"
height="21.428571"
rx="0.000000"
ry="0.000000"
x="462.575743"
y="150.000000"
id="col.pan"
style="fill:#31EE31;fill-opacity:1.000000;stroke:black;stroke-width:0.000000;stroke-opacity:0.000000" />


<rect
width="2.485149"
height="21.428571"
rx="0.000000"
ry="0.000000"
x="461.090594"
y="150.000000"
id="col.pan"
style="fill:#2EEF2E;fill-opacity:1.000000;stroke:black;stroke-width:0.000000;stroke-opacity:0.000000" />


<rect
width="2.485149"
height="21.428571"
rx="0.000000"
ry="0.000000"
x="459.605446"
y="150.000000"
id="col.pan"
style="fill:#2AF12A;fill-opacity:1.000000;stroke:black;stroke-width:0.000000;stroke-opacity:0.000000" />


<rect
width="2.485149"
height="21.428571"
rx="0.000000"
ry="0.000000"
x="458.120297"
y="150.000000"
id="col.pan"
style="fill:#26F226;fill-opacity:1.000000;stroke:black;stroke-width:0.000000;stroke-opacity:0.000000" />


<rect
width="2.485149"
height="21.428571"
rx="0.000000"
ry="0.000000"
x="456.635149"
y="150.000000"
id="col.pan"
style="fill:#22F322;fill-opacity:1.000000;stroke:black;stroke-width:0.000000;stroke-opacity:0.000000" />


<rect
width="2.485149"
height="21.428571"
rx="0.000000"
ry="0.000000"
x="455.150000"
y="150.000000"
id="col.pan"
style="fill:#1EF51E;fill-opacity:1.000000;stroke:black;stroke-width:0.000000;stroke-opacity:0.000000" />


<rect
width="2.485149"
height="21.428571"
rx="0.000000"
ry="0.000000"
x="453.664851"
y="150.000000"
id="col.pan"
style="fill:#1BF61B;fill-opacity:1.000000;stroke:black;stroke-width:0.000000;stroke-opacity:0.000000" />


<rect
width="2.485149"
height="21.428571"
rx="0.000000"
ry="0.000000"
x="452.179703"
y="150.000000"
id="col.pan"
style="fill:#17F717;fill-opacity:1.000000;stroke:black;stroke-width:0.000000;stroke-opacity:0.000000" />


<rect
width="2.485149"
height="21.428571"
rx="0.000000"
ry="0.000000"
x="450.694554"
y="150.000000"
id="col.pan"
style="fill:#13F913;fill-opacity:1.000000;stroke:black;stroke-width:0.000000;stroke-opacity:0.000000" />


<rect
width="2.485149"
height="21.428571"
rx="0.000000"
ry="0.000000"
x="449.209406"
y="150.000000"
id="col.pan"
style="fill:#0FFA0F;fill-opacity:1.000000;stroke:black;stroke-width:0.000000;stroke-opacity:0.000000" />


<rect
width="2.485149"
height="21.428571"
rx="0.000000"
ry="0.000000"
x="447.724257"
y="150.000000"
id="col.pan"
style="fill:#0BFB0B;fill-opacity:1.000000;stroke:black;stroke-width:0.000000;stroke-opacity:0.000000" />


<rect
width="2.485149"
height="21.428571"
rx="0.000000"
ry="0.000000"
x="446.239109"
y="150.000000"
id="col.pan"
style="fill:#08FC08;fill-opacity:1.000000;stroke:black;stroke-width:0.000000;stroke-opacity:0.000000" />


<rect
width="2.485149"
height="21.428571"
rx="0.000000"
ry="0.000000"
x="444.753960"
y="150.000000"
id="col.pan"
style="fill:#04FE04;fill-opacity:1.000000;stroke:black;stroke-width:0.000000;stroke-opacity:0.000000" />


<rect
width="2.485149"
height="21.428571"
rx="0.000000"
ry="0.000000"
x="443.268812"
y="150.000000"
id="col.pan"
style="fill:#00FF00;fill-opacity:1.000000;stroke:black;stroke-width:0.000000;stroke-opacity:0.000000" />


<line
x1="443.268811872203" y1="150" x2="443.268811872203" y2="176.785714285714"
id="tick"
style="stroke:black;stroke-width:2.000000;stroke-opacity:1" />


<line
x1="458.268811872203" y1="150" x2="458.268811872203" y2="176.785714285714"
id="tick"
style="stroke:black;stroke-width:2.000000;stroke-opacity:1" />


<line
x1="473.268811872203" y1="150" x2="473.268811872203" y2="176.785714285714"
id="tick"
style="stroke:black;stroke-width:2.000000;stroke-opacity:1" />


<line
x1="488.268811872203" y1="150" x2="488.268811872203" y2="176.785714285714"
id="tick"
style="stroke:black;stroke-width:2.000000;stroke-opacity:1" />


<line
x1="503.268811872203" y1="150" x2="503.268811872203" y2="176.785714285714"
id="tick"
style="stroke:black;stroke-width:2.000000;stroke-opacity:1" />


<line
x1="518.268811872203" y1="150" x2="518.268811872203" y2="176.785714285714"
id="tick"
style="stroke:black;stroke-width:2.000000;stroke-opacity:1" />


<line
x1="533.268811872203" y1="150" x2="533.268811872203" y2="176.785714285714"
id="tick"
style="stroke:black;stroke-width:2.000000;stroke-opacity:1" />


<line
x1="548.268811872203" y1="150" x2="548.268811872203" y2="176.785714285714"
id="tick"
style="stroke:black;stroke-width:2.000000;stroke-opacity:1" />


<line
x1="563.268811872203" y1="150" x2="563.268811872203" y2="176.785714285714"
id="tick"
style="stroke:black;stroke-width:2.000000;stroke-opacity:1" />


<line
x1="578.268811872203" y1="150" x2="578.268811872203" y2="176.785714285714"
id="tick"
style="stroke:black;stroke-width:2.000000;stroke-opacity:1" />


<line
x1="593.268811872203" y1="150" x2="593.268811872203" y2="176.785714285714"
id="tick"
style="stroke:black;stroke-width:2.000000;stroke-opacity:1" />


<text
x="592.526238"
y="200.000000"
id="color.panel.max.value"
style="font-size:21.428571px;text-anchor:middle;font-family:Arial,Helvetica;alignment-baseline:baseline;stroke.opacity:1;dominant-baseline:baseline"
fill="black"
>
1</text>


<text
x="444.011386"
y="200.000000"
id="color.panel.low.value"
style="font-size:21.428571px;text-anchor:middle;font-family:Arial,Helvetica;alignment-baseline:baseline;stroke.opacity:1;dominant-baseline:baseline"
fill="black"
>
-1</text>


<text
x="519.753960"
y="200.000000"
id="color.panel.mid.value"
style="font-size:21.428571px;text-anchor:middle;font-family:Arial,Helvetica;alignment-baseline:baseline;stroke.opacity:1;dominant-baseline:baseline"
fill="black"
>
0</text>


</svg>
