<?xml version="1.0" encoding="UTF-8"?>
<svg width="742.524392" height="633.075675"
xmlns="http://www.w3.org/2000/svg" xmlns:svg="http://www.w3.org/2000/svg"
>
<metadata id="metadata7">image/svg+xml</metadata>

<rect
width="162.678863"
height="205.590992"
rx="11.000000"
ry="11.000000"
x="100.000000"
y="198.000000"
id="cytosol"
style="fill:white;fill-opacity:0.900000;stroke:black;stroke-width:5.000000;stroke-opacity:1.000000" />


<text
x="181.339431"
y="190.000000"
id="cytosol"
style="font-size:24.000000px;text-anchor:middle;font-family:Arial,Helvetica;alignment-baseline:baseline;stroke.opacity:1;dominant-baseline:baseline"
fill="black"
>
cytosol</text>


<rect
width="92.000000"
height="62.000000"
rx="11.000000"
ry="11.000000"
x="181.000000"
y="446.075675"
id="plasma_membrane__extrinsic_to_internal_side_of_plasma_membrane_"
style="fill:white;fill-opacity:0.900000;stroke:black;stroke-width:5.000000;stroke-opacity:1.000000" />



<text
x="227.000000"
y="414.075675"
id="plasma_membrane__extrinsic_to_internal_side_of_plasma_membrane_"
style="font-size:24.000000px;text-anchor:middle;font-family:Arial,Helvetica;alignment-baseline:baseline;stroke.opacity:1;dominant-baseline:baseline"
fill="black"
>
compart-</text>


<text
x="227.000000"
y="438.075675"
id="plasma_membrane__extrinsic_to_internal_side_of_plasma_membrane_"
style="font-size:24.000000px;text-anchor:middle;font-family:Arial,Helvetica;alignment-baseline:baseline;stroke.opacity:1;dominant-baseline:baseline"
fill="black"
>
ment_1</text>


<rect
width="92.000000"
height="62.000000"
rx="11.000000"
ry="11.000000"
x="320.524392"
y="213.984567"
id="nucleus"
style="fill:white;fill-opacity:0.900000;stroke:black;stroke-width:5.000000;stroke-opacity:1.000000" />


<text
x="366.524392"
y="205.984567"
id="nucleus"
style="font-size:24.000000px;text-anchor:middle;font-family:Arial,Helvetica;alignment-baseline:baseline;stroke.opacity:1;dominant-baseline:baseline"
fill="black"
>
nucleus</text>






<path
d="M 132.098023703566 261.373419545323 Q 132.098023703566 261.373419545323 132.098023703566 261.373419545323 L 149.598023703566 261.373419545323 Q 149.598023703566 261.373419545323 149.598023703566 261.373419545323 L 149.598023703566 301.373419545323 Q 149.598023703566 301.373419545323 149.598023703566 301.373419545323 L 136.098023703566 301.373419545323 Q 132.098023703566 301.373419545323 132.098023703566 297.373419545323 Z"
id="Rna_1a40919975547dc9a5d7f2cae3b69c77"
style="fill:#FF0000;fill-opacity:1.000000;stroke-width:0.5;stroke:black;stroke-opacity:0.000000"
transform = "rotate(0.000000 0.000000 0.000000)"
/>


<text
x="140.848024"
y="282.873420"
id="Rna_1a40919975547dc9a5d7f2cae3b69c77"
style="font-size:4.500000px;text-anchor:middle;font-family:Arial,Helvetica;alignment-baseline:baseline;stroke.opacity:1;dominant-baseline:baseline"
fill="black"
>
 </text>



<path
d="M 149.598023703566 261.373419545323 Q 149.598023703566 261.373419545323 149.598023703566 261.373419545323 L 167.098023703566 261.373419545323 Q 167.098023703566 261.373419545323 167.098023703566 261.373419545323 L 167.098023703566 301.373419545323 Q 167.098023703566 301.373419545323 167.098023703566 301.373419545323 L 149.598023703566 301.373419545323 Q 149.598023703566 301.373419545323 149.598023703566 301.373419545323 Z"
id="Rna_1a40919975547dc9a5d7f2cae3b69c77"
style="fill:#CF8C8C;fill-opacity:1.000000;stroke-width:0.5;stroke:black;stroke-opacity:0.000000"
transform = "rotate(0.000000 0.000000 0.000000)"
/>


<text
x="158.348024"
y="282.873420"
id="Rna_1a40919975547dc9a5d7f2cae3b69c77"
style="font-size:4.500000px;text-anchor:middle;font-family:Arial,Helvetica;alignment-baseline:baseline;stroke.opacity:1;dominant-baseline:baseline"
fill="black"
>
 </text>



<path
d="M 167.098023703566 261.373419545323 Q 167.098023703566 261.373419545323 167.098023703566 261.373419545323 L 184.598023703566 261.373419545323 Q 184.598023703566 261.373419545323 184.598023703566 261.373419545323 L 184.598023703566 301.373419545323 Q 184.598023703566 301.373419545323 184.598023703566 301.373419545323 L 167.098023703566 301.373419545323 Q 167.098023703566 301.373419545323 167.098023703566 301.373419545323 Z"
id="Rna_1a40919975547dc9a5d7f2cae3b69c77"
style="fill:#EC3737;fill-opacity:1.000000;stroke-width:0.5;stroke:black;stroke-opacity:0.000000"
transform = "rotate(0.000000 0.000000 0.000000)"
/>


<text
x="175.848024"
y="282.873420"
id="Rna_1a40919975547dc9a5d7f2cae3b69c77"
style="font-size:4.500000px;text-anchor:middle;font-family:Arial,Helvetica;alignment-baseline:baseline;stroke.opacity:1;dominant-baseline:baseline"
fill="black"
>
 </text>



<path
d="M 184.598023703566 261.373419545323 Q 184.598023703566 261.373419545323 184.598023703566 261.373419545323 L 202.098023703566 261.373419545323 Q 202.098023703566 261.373419545323 202.098023703566 261.373419545323 L 202.098023703566 297.373419545323 Q 202.098023703566 301.373419545323 198.098023703566 301.373419545323 L 184.598023703566 301.373419545323 Q 184.598023703566 301.373419545323 184.598023703566 301.373419545323 Z"
id="Rna_1a40919975547dc9a5d7f2cae3b69c77"
style="fill:#D77474;fill-opacity:1.000000;stroke-width:0.5;stroke:black;stroke-opacity:0.000000"
transform = "rotate(0.000000 0.000000 0.000000)"
/>


<text
x="193.348024"
y="282.873420"
id="Rna_1a40919975547dc9a5d7f2cae3b69c77"
style="font-size:4.500000px;text-anchor:middle;font-family:Arial,Helvetica;alignment-baseline:baseline;stroke.opacity:1;dominant-baseline:baseline"
fill="black"
>
 </text>


<path
d="M 132.098023703566 261.373419545323 Q 132.098023703566 261.373419545323 132.098023703566 261.373419545323 L 202.098023703566 261.373419545323 Q 202.098023703566 261.373419545323 202.098023703566 261.373419545323 L 202.098023703566 294.373419545323 Q 202.098023703566 301.373419545323 195.098023703566 301.373419545323 L 139.098023703566 301.373419545323 Q 132.098023703566 301.373419545323 132.098023703566 294.373419545323 Z"
id="Rna_1a40919975547dc9a5d7f2cae3b69c77"
style="fill:#D77474;fill-opacity:0.000000;stroke-width:1;stroke:black;stroke-opacity:1.000000"
transform = "rotate(0.000000 0.000000 0.000000)"
/>


<text
x="167.098024"
y="287.373420"
id="Rna_1a40919975547dc9a5d7f2cae3b69c77"
style="font-size:18.000000px;text-anchor:middle;font-family:Arial,Helvetica;alignment-baseline:baseline;stroke.opacity:1;dominant-baseline:baseline"
fill="black"
>
Mkp3</text>


<rect
width="35.000000"
height="17.500000"
rx="0.000000"
ry="0.000000"
x="132.098024"
y="252.623420"
id="Rna_1a40919975547dc9a5d7f2cae3b69c77.info.1"
style="fill:white;fill-opacity:1.000000;stroke:black;stroke-width:1.000000;stroke-opacity:1.000000" />


<text
x="149.598024"
y="264.373420"
id="Rna_1a40919975547dc9a5d7f2cae3b69c77.info.1"
style="font-size:9.000000px;text-anchor:middle;font-family:Arial,Helvetica;alignment-baseline:baseline;stroke.opacity:1;dominant-baseline:baseline"
fill="black"
>
mt:RNA</text>


<rect
width="26.666667"
height="26.666667"
rx="0.000000"
ry="0.000000"
x="225.012196"
y="209.000000"
id="Transport_cd09a1a0f55352e7849129a172330f05_LEFT_TO_RIGHT"
style="fill:white;fill-opacity:0.600000;stroke:black;stroke-width:1.000000;stroke-opacity:1.000000" />



<rect
width="26.666667"
height="26.666667"
rx="0.000000"
ry="0.000000"
x="111.000000"
y="365.924325"
id="TemplateReaction_43c5a372c2d366954d532225bbd9ba5e"
style="fill:white;fill-opacity:0.600000;stroke:black;stroke-width:1.000000;stroke-opacity:1.000000" />





<path
d="M 331.524391856267 224.984566628258 Q 331.524391856267 224.984566628258 331.524391856267 224.984566628258 L 349.024391856267 224.984566628258 Q 349.024391856267 224.984566628258 349.024391856267 224.984566628258 L 349.024391856267 264.984566628258 Q 349.024391856267 264.984566628258 349.024391856267 264.984566628258 L 335.524391856267 264.984566628258 Q 331.524391856267 264.984566628258 331.524391856267 260.984566628258 Z"
id="Rna_de6365de0fc2f273fadc4a0f3fc5872b"
style="fill:#00FF00;fill-opacity:1.000000;stroke-width:0.5;stroke:black;stroke-opacity:0.000000"
transform = "rotate(0.000000 0.000000 0.000000)"
/>


<text
x="340.274392"
y="246.484567"
id="Rna_de6365de0fc2f273fadc4a0f3fc5872b"
style="font-size:4.500000px;text-anchor:middle;font-family:Arial,Helvetica;alignment-baseline:baseline;stroke.opacity:1;dominant-baseline:baseline"
fill="black"
>
 </text>



<path
d="M 349.024391856267 224.984566628258 Q 349.024391856267 224.984566628258 349.024391856267 224.984566628258 L 366.524391856267 224.984566628258 Q 366.524391856267 224.984566628258 366.524391856267 224.984566628258 L 366.524391856267 264.984566628258 Q 366.524391856267 264.984566628258 366.524391856267 264.984566628258 L 349.024391856267 264.984566628258 Q 349.024391856267 264.984566628258 349.024391856267 264.984566628258 Z"
id="Rna_de6365de0fc2f273fadc4a0f3fc5872b"
style="fill:#9EC99E;fill-opacity:1.000000;stroke-width:0.5;stroke:black;stroke-opacity:0.000000"
transform = "rotate(0.000000 0.000000 0.000000)"
/>


<text
x="357.774392"
y="246.484567"
id="Rna_de6365de0fc2f273fadc4a0f3fc5872b"
style="font-size:4.500000px;text-anchor:middle;font-family:Arial,Helvetica;alignment-baseline:baseline;stroke.opacity:1;dominant-baseline:baseline"
fill="black"
>
 </text>



<path
d="M 366.524391856267 224.984566628258 Q 366.524391856267 224.984566628258 366.524391856267 224.984566628258 L 384.024391856267 224.984566628258 Q 384.024391856267 224.984566628258 384.024391856267 224.984566628258 L 384.024391856267 264.984566628258 Q 384.024391856267 264.984566628258 384.024391856267 264.984566628258 L 366.524391856267 264.984566628258 Q 366.524391856267 264.984566628258 366.524391856267 264.984566628258 Z"
id="Rna_de6365de0fc2f273fadc4a0f3fc5872b"
style="fill:#22F322;fill-opacity:1.000000;stroke-width:0.5;stroke:black;stroke-opacity:0.000000"
transform = "rotate(0.000000 0.000000 0.000000)"
/>


<text
x="375.274392"
y="246.484567"
id="Rna_de6365de0fc2f273fadc4a0f3fc5872b"
style="font-size:4.500000px;text-anchor:middle;font-family:Arial,Helvetica;alignment-baseline:baseline;stroke.opacity:1;dominant-baseline:baseline"
fill="black"
>
 </text>



<path
d="M 384.024391856267 224.984566628258 Q 384.024391856267 224.984566628258 384.024391856267 224.984566628258 L 401.524391856267 224.984566628258 Q 401.524391856267 224.984566628258 401.524391856267 224.984566628258 L 401.524391856267 260.984566628258 Q 401.524391856267 264.984566628258 397.524391856267 264.984566628258 L 384.024391856267 264.984566628258 Q 384.024391856267 264.984566628258 384.024391856267 264.984566628258 Z"
id="Rna_de6365de0fc2f273fadc4a0f3fc5872b"
style="fill:#25F225;fill-opacity:1.000000;stroke-width:0.5;stroke:black;stroke-opacity:0.000000"
transform = "rotate(0.000000 0.000000 0.000000)"
/>


<text
x="392.774392"
y="246.484567"
id="Rna_de6365de0fc2f273fadc4a0f3fc5872b"
style="font-size:4.500000px;text-anchor:middle;font-family:Arial,Helvetica;alignment-baseline:baseline;stroke.opacity:1;dominant-baseline:baseline"
fill="black"
>
 </text>


<path
d="M 331.524391856267 224.984566628258 Q 331.524391856267 224.984566628258 331.524391856267 224.984566628258 L 401.524391856267 224.984566628258 Q 401.524391856267 224.984566628258 401.524391856267 224.984566628258 L 401.524391856267 257.984566628258 Q 401.524391856267 264.984566628258 394.524391856267 264.984566628258 L 338.524391856267 264.984566628258 Q 331.524391856267 264.984566628258 331.524391856267 257.984566628258 Z"
id="Rna_de6365de0fc2f273fadc4a0f3fc5872b"
style="fill:#25F225;fill-opacity:0.000000;stroke-width:1;stroke:black;stroke-opacity:1.000000"
transform = "rotate(0.000000 0.000000 0.000000)"
/>


<text
x="366.524392"
y="250.984567"
id="Rna_de6365de0fc2f273fadc4a0f3fc5872b"
style="font-size:18.000000px;text-anchor:middle;font-family:Arial,Helvetica;alignment-baseline:baseline;stroke.opacity:1;dominant-baseline:baseline"
fill="black"
>
Sprouty1</text>


<rect
width="35.000000"
height="17.500000"
rx="0.000000"
ry="0.000000"
x="331.524392"
y="216.234567"
id="Rna_de6365de0fc2f273fadc4a0f3fc5872b.info.1"
style="fill:white;fill-opacity:1.000000;stroke:black;stroke-width:1.000000;stroke-opacity:1.000000" />


<text
x="349.024392"
y="227.984567"
id="Rna_de6365de0fc2f273fadc4a0f3fc5872b.info.1"
style="font-size:9.000000px;text-anchor:middle;font-family:Arial,Helvetica;alignment-baseline:baseline;stroke.opacity:1;dominant-baseline:baseline"
fill="black"
>
mt:RNA</text>




<rect
width="17.500000"
height="40.000000"
rx="1.750000"
ry="1.750000"
x="192.000000"
y="457.075675"
id="Protein_192c1792f26b28b806354d51d50f0137"
style="fill:#DE6060;fill-opacity:1.000000;stroke:black;stroke-width:0.500000;stroke-opacity:0.000000" />


<text
x="200.750000"
y="478.575675"
id="Protein_192c1792f26b28b806354d51d50f0137"
style="font-size:4.500000px;text-anchor:middle;font-family:Arial,Helvetica;alignment-baseline:baseline;stroke.opacity:1;dominant-baseline:baseline"
fill="black"
>
 </text>



<rect
width="17.500000"
height="40.000000"
rx="1.750000"
ry="1.750000"
x="209.500000"
y="457.075675"
id="Protein_192c1792f26b28b806354d51d50f0137"
style="fill:#03FE03;fill-opacity:1.000000;stroke:black;stroke-width:0.500000;stroke-opacity:0.000000" />


<text
x="218.250000"
y="478.575675"
id="Protein_192c1792f26b28b806354d51d50f0137"
style="font-size:4.500000px;text-anchor:middle;font-family:Arial,Helvetica;alignment-baseline:baseline;stroke.opacity:1;dominant-baseline:baseline"
fill="black"
>
 </text>



<rect
width="17.500000"
height="40.000000"
rx="1.750000"
ry="1.750000"
x="227.000000"
y="457.075675"
id="Protein_192c1792f26b28b806354d51d50f0137"
style="fill:#89D089;fill-opacity:1.000000;stroke:black;stroke-width:0.500000;stroke-opacity:0.000000" />


<text
x="235.750000"
y="478.575675"
id="Protein_192c1792f26b28b806354d51d50f0137"
style="font-size:4.500000px;text-anchor:middle;font-family:Arial,Helvetica;alignment-baseline:baseline;stroke.opacity:1;dominant-baseline:baseline"
fill="black"
>
 </text>



<rect
width="17.500000"
height="40.000000"
rx="1.750000"
ry="1.750000"
x="244.500000"
y="457.075675"
id="Protein_192c1792f26b28b806354d51d50f0137"
style="fill:#FF0000;fill-opacity:1.000000;stroke:black;stroke-width:0.500000;stroke-opacity:0.000000" />


<text
x="253.250000"
y="478.575675"
id="Protein_192c1792f26b28b806354d51d50f0137"
style="font-size:4.500000px;text-anchor:middle;font-family:Arial,Helvetica;alignment-baseline:baseline;stroke.opacity:1;dominant-baseline:baseline"
fill="black"
>
 </text>


<rect
width="70.000000"
height="40.000000"
rx="4.000000"
ry="4.000000"
x="192.000000"
y="457.075675"
id="Protein_192c1792f26b28b806354d51d50f0137"
style="fill:#FF0000;fill-opacity:0.000000;stroke:black;stroke-width:1.000000;stroke-opacity:1.000000" />


<text
x="227.000000"
y="483.075675"
id="Protein_192c1792f26b28b806354d51d50f0137"
style="font-size:18.000000px;text-anchor:middle;font-family:Arial,Helvetica;alignment-baseline:baseline;stroke.opacity:1;dominant-baseline:baseline"
fill="black"
>
Sprouty1</text>




<path d="M191.000000 261.000000 C 202.000000 251.000000, 215.000000 241.000000,224.000000 233.000000" stroke="black"  fill="transparent"/>

<line
x1="215" y1="241" x2="224" y2="233"
id="0"
style="stroke:black;stroke-width:1.000000;stroke-opacity:0" />


<line
x1="202" y1="251" x2="191" y2="261"
id="Transport_cd09a1a0f55352e7849129a172330f05_LEFT_TO_RIGHT-output--to--Rna_1a40919975547dc9a5d7f2cae3b69c77"
style="stroke:black;stroke-width:1.000000;stroke-opacity:0" />


<polygon
points = "191,261 182.2,256.6 182.2,265.4"
id="line"
style="fill:black; stroke:#000000; stroke-width:1"
transform = "rotate(137.726311 191.000000 261.000000)"
/>


<path d="M158.000000 301.000000 C 149.000000 320.000000, 137.000000 348.000000,130.000000 365.000000" stroke="black"  fill="transparent"/>

<line
x1="137" y1="348" x2="130" y2="365"
id="0"
style="stroke:black;stroke-width:1.000000;stroke-opacity:0" />


<line
x1="149" y1="320" x2="158" y2="301"
id="TemplateReaction_43c5a372c2d366954d532225bbd9ba5e-input--to--Rna_1a40919975547dc9a5d7f2cae3b69c77"
style="stroke:black;stroke-width:1.000000;stroke-opacity:0" />


<polygon
points = "158,301 144.8,296.6 149.2,301 144.8,305.4"
id="line"
style="fill:black; stroke:#000000; stroke-width:1"
transform = "rotate(-64.653824 158.000000 301.000000)"
/>


<path d="M137.000000 392.000000 C 155.000000 408.000000, 185.000000 437.000000,205.000000 456.000000" stroke="black"  fill="transparent"/>

<line
x1="155" y1="408" x2="137" y2="392"
id="0"
style="stroke:black;stroke-width:1.000000;stroke-opacity:0" />


<line
x1="185" y1="437" x2="205" y2="456"
id="TemplateReaction_43c5a372c2d366954d532225bbd9ba5e-output--to--Protein_192c1792f26b28b806354d51d50f0137"
style="stroke:black;stroke-width:1.000000;stroke-opacity:0" />


<polygon
points = "205,456 196.2,451.6 196.2,460.4"
id="line"
style="fill:black; stroke:#000000; stroke-width:1"
transform = "rotate(43.531199 205.000000 456.000000)"
/>


<path d="M252.000000 224.000000 C 270.000000 228.000000, 305.000000 234.000000,331.000000 238.000000" stroke="black"  fill="transparent"/>

<line
x1="305" y1="234" x2="331" y2="238"
id="0"
style="stroke:black;stroke-width:1.000000;stroke-opacity:0" />


<line
x1="270" y1="228" x2="252" y2="224"
id="Rna_de6365de0fc2f273fadc4a0f3fc5872b--to--Transport_cd09a1a0f55352e7849129a172330f05_LEFT_TO_RIGHT-input"
style="stroke:black;stroke-width:1.000000;stroke-opacity:0" />





<rect
width="2.485149"
height="21.428571"
rx="0.000000"
ry="0.000000"
x="411.039243"
y="85.500000"
id="col.pan"
style="fill:#FF0000;fill-opacity:1.000000;stroke:black;stroke-width:0.000000;stroke-opacity:0.000000" />


<rect
width="2.485149"
height="21.428571"
rx="0.000000"
ry="0.000000"
x="409.554095"
y="85.500000"
id="col.pan"
style="fill:#FE0404;fill-opacity:1.000000;stroke:black;stroke-width:0.000000;stroke-opacity:0.000000" />


<rect
width="2.485149"
height="21.428571"
rx="0.000000"
ry="0.000000"
x="408.068946"
y="85.500000"
id="col.pan"
style="fill:#FC0808;fill-opacity:1.000000;stroke:black;stroke-width:0.000000;stroke-opacity:0.000000" />


<rect
width="2.485149"
height="21.428571"
rx="0.000000"
ry="0.000000"
x="406.583798"
y="85.500000"
id="col.pan"
style="fill:#FB0B0B;fill-opacity:1.000000;stroke:black;stroke-width:0.000000;stroke-opacity:0.000000" />


<rect
width="2.485149"
height="21.428571"
rx="0.000000"
ry="0.000000"
x="405.098649"
y="85.500000"
id="col.pan"
style="fill:#FA0F0F;fill-opacity:1.000000;stroke:black;stroke-width:0.000000;stroke-opacity:0.000000" />


<rect
width="2.485149"
height="21.428571"
rx="0.000000"
ry="0.000000"
x="403.613501"
y="85.500000"
id="col.pan"
style="fill:#F91313;fill-opacity:1.000000;stroke:black;stroke-width:0.000000;stroke-opacity:0.000000" />


<rect
width="2.485149"
height="21.428571"
rx="0.000000"
ry="0.000000"
x="402.128352"
y="85.500000"
id="col.pan"
style="fill:#F71717;fill-opacity:1.000000;stroke:black;stroke-width:0.000000;stroke-opacity:0.000000" />


<rect
width="2.485149"
height="21.428571"
rx="0.000000"
ry="0.000000"
x="400.643204"
y="85.500000"
id="col.pan"
style="fill:#F61B1B;fill-opacity:1.000000;stroke:black;stroke-width:0.000000;stroke-opacity:0.000000" />


<rect
width="2.485149"
height="21.428571"
rx="0.000000"
ry="0.000000"
x="399.158055"
y="85.500000"
id="col.pan"
style="fill:#F51E1E;fill-opacity:1.000000;stroke:black;stroke-width:0.000000;stroke-opacity:0.000000" />


<rect
width="2.485149"
height="21.428571"
rx="0.000000"
ry="0.000000"
x="397.672907"
y="85.500000"
id="col.pan"
style="fill:#F32222;fill-opacity:1.000000;stroke:black;stroke-width:0.000000;stroke-opacity:0.000000" />


<rect
width="2.485149"
height="21.428571"
rx="0.000000"
ry="0.000000"
x="396.187758"
y="85.500000"
id="col.pan"
style="fill:#F22626;fill-opacity:1.000000;stroke:black;stroke-width:0.000000;stroke-opacity:0.000000" />


<rect
width="2.485149"
height="21.428571"
rx="0.000000"
ry="0.000000"
x="394.702610"
y="85.500000"
id="col.pan"
style="fill:#F12A2A;fill-opacity:1.000000;stroke:black;stroke-width:0.000000;stroke-opacity:0.000000" />


<rect
width="2.485149"
height="21.428571"
rx="0.000000"
ry="0.000000"
x="393.217461"
y="85.500000"
id="col.pan"
style="fill:#EF2E2E;fill-opacity:1.000000;stroke:black;stroke-width:0.000000;stroke-opacity:0.000000" />


<rect
width="2.485149"
height="21.428571"
rx="0.000000"
ry="0.000000"
x="391.732313"
y="85.500000"
id="col.pan"
style="fill:#EE3131;fill-opacity:1.000000;stroke:black;stroke-width:0.000000;stroke-opacity:0.000000" />


<rect
width="2.485149"
height="21.428571"
rx="0.000000"
ry="0.000000"
x="390.247164"
y="85.500000"
id="col.pan"
style="fill:#ED3535;fill-opacity:1.000000;stroke:black;stroke-width:0.000000;stroke-opacity:0.000000" />


<rect
width="2.485149"
height="21.428571"
rx="0.000000"
ry="0.000000"
x="388.762016"
y="85.500000"
id="col.pan"
style="fill:#EC3939;fill-opacity:1.000000;stroke:black;stroke-width:0.000000;stroke-opacity:0.000000" />


<rect
width="2.485149"
height="21.428571"
rx="0.000000"
ry="0.000000"
x="387.276867"
y="85.500000"
id="col.pan"
style="fill:#EA3D3D;fill-opacity:1.000000;stroke:black;stroke-width:0.000000;stroke-opacity:0.000000" />


<rect
width="2.485149"
height="21.428571"
rx="0.000000"
ry="0.000000"
x="385.791719"
y="85.500000"
id="col.pan"
style="fill:#E94141;fill-opacity:1.000000;stroke:black;stroke-width:0.000000;stroke-opacity:0.000000" />


<rect
width="2.485149"
height="21.428571"
rx="0.000000"
ry="0.000000"
x="384.306570"
y="85.500000"
id="col.pan"
style="fill:#E84444;fill-opacity:1.000000;stroke:black;stroke-width:0.000000;stroke-opacity:0.000000" />


<rect
width="2.485149"
height="21.428571"
rx="0.000000"
ry="0.000000"
x="382.821422"
y="85.500000"
id="col.pan"
style="fill:#E64848;fill-opacity:1.000000;stroke:black;stroke-width:0.000000;stroke-opacity:0.000000" />


<rect
width="2.485149"
height="21.428571"
rx="0.000000"
ry="0.000000"
x="381.336273"
y="85.500000"
id="col.pan"
style="fill:#E54C4C;fill-opacity:1.000000;stroke:black;stroke-width:0.000000;stroke-opacity:0.000000" />


<rect
width="2.485149"
height="21.428571"
rx="0.000000"
ry="0.000000"
x="379.851125"
y="85.500000"
id="col.pan"
style="fill:#E45050;fill-opacity:1.000000;stroke:black;stroke-width:0.000000;stroke-opacity:0.000000" />


<rect
width="2.485149"
height="21.428571"
rx="0.000000"
ry="0.000000"
x="378.365976"
y="85.500000"
id="col.pan"
style="fill:#E25454;fill-opacity:1.000000;stroke:black;stroke-width:0.000000;stroke-opacity:0.000000" />


<rect
width="2.485149"
height="21.428571"
rx="0.000000"
ry="0.000000"
x="376.880827"
y="85.500000"
id="col.pan"
style="fill:#E15757;fill-opacity:1.000000;stroke:black;stroke-width:0.000000;stroke-opacity:0.000000" />


<rect
width="2.485149"
height="21.428571"
rx="0.000000"
ry="0.000000"
x="375.395679"
y="85.500000"
id="col.pan"
style="fill:#E05B5B;fill-opacity:1.000000;stroke:black;stroke-width:0.000000;stroke-opacity:0.000000" />


<rect
width="2.485149"
height="21.428571"
rx="0.000000"
ry="0.000000"
x="373.910530"
y="85.500000"
id="col.pan"
style="fill:#DF5F5F;fill-opacity:1.000000;stroke:black;stroke-width:0.000000;stroke-opacity:0.000000" />


<rect
width="2.485149"
height="21.428571"
rx="0.000000"
ry="0.000000"
x="372.425382"
y="85.500000"
id="col.pan"
style="fill:#DD6363;fill-opacity:1.000000;stroke:black;stroke-width:0.000000;stroke-opacity:0.000000" />


<rect
width="2.485149"
height="21.428571"
rx="0.000000"
ry="0.000000"
x="370.940233"
y="85.500000"
id="col.pan"
style="fill:#DC6767;fill-opacity:1.000000;stroke:black;stroke-width:0.000000;stroke-opacity:0.000000" />


<rect
width="2.485149"
height="21.428571"
rx="0.000000"
ry="0.000000"
x="369.455085"
y="85.500000"
id="col.pan"
style="fill:#DB6A6A;fill-opacity:1.000000;stroke:black;stroke-width:0.000000;stroke-opacity:0.000000" />


<rect
width="2.485149"
height="21.428571"
rx="0.000000"
ry="0.000000"
x="367.969936"
y="85.500000"
id="col.pan"
style="fill:#D96E6E;fill-opacity:1.000000;stroke:black;stroke-width:0.000000;stroke-opacity:0.000000" />


<rect
width="2.485149"
height="21.428571"
rx="0.000000"
ry="0.000000"
x="366.484788"
y="85.500000"
id="col.pan"
style="fill:#D87272;fill-opacity:1.000000;stroke:black;stroke-width:0.000000;stroke-opacity:0.000000" />


<rect
width="2.485149"
height="21.428571"
rx="0.000000"
ry="0.000000"
x="364.999639"
y="85.500000"
id="col.pan"
style="fill:#D77676;fill-opacity:1.000000;stroke:black;stroke-width:0.000000;stroke-opacity:0.000000" />


<rect
width="2.485149"
height="21.428571"
rx="0.000000"
ry="0.000000"
x="363.514491"
y="85.500000"
id="col.pan"
style="fill:#D57A7A;fill-opacity:1.000000;stroke:black;stroke-width:0.000000;stroke-opacity:0.000000" />


<rect
width="2.485149"
height="21.428571"
rx="0.000000"
ry="0.000000"
x="362.029342"
y="85.500000"
id="col.pan"
style="fill:#D47D7D;fill-opacity:1.000000;stroke:black;stroke-width:0.000000;stroke-opacity:0.000000" />


<rect
width="2.485149"
height="21.428571"
rx="0.000000"
ry="0.000000"
x="360.544194"
y="85.500000"
id="col.pan"
style="fill:#D38181;fill-opacity:1.000000;stroke:black;stroke-width:0.000000;stroke-opacity:0.000000" />


<rect
width="2.485149"
height="21.428571"
rx="0.000000"
ry="0.000000"
x="359.059045"
y="85.500000"
id="col.pan"
style="fill:#D28585;fill-opacity:1.000000;stroke:black;stroke-width:0.000000;stroke-opacity:0.000000" />


<rect
width="2.485149"
height="21.428571"
rx="0.000000"
ry="0.000000"
x="357.573897"
y="85.500000"
id="col.pan"
style="fill:#D08989;fill-opacity:1.000000;stroke:black;stroke-width:0.000000;stroke-opacity:0.000000" />


<rect
width="2.485149"
height="21.428571"
rx="0.000000"
ry="0.000000"
x="356.088748"
y="85.500000"
id="col.pan"
style="fill:#CF8D8D;fill-opacity:1.000000;stroke:black;stroke-width:0.000000;stroke-opacity:0.000000" />


<rect
width="2.485149"
height="21.428571"
rx="0.000000"
ry="0.000000"
x="354.603600"
y="85.500000"
id="col.pan"
style="fill:#CE9090;fill-opacity:1.000000;stroke:black;stroke-width:0.000000;stroke-opacity:0.000000" />


<rect
width="2.485149"
height="21.428571"
rx="0.000000"
ry="0.000000"
x="353.118451"
y="85.500000"
id="col.pan"
style="fill:#CC9494;fill-opacity:1.000000;stroke:black;stroke-width:0.000000;stroke-opacity:0.000000" />


<rect
width="2.485149"
height="21.428571"
rx="0.000000"
ry="0.000000"
x="351.633303"
y="85.500000"
id="col.pan"
style="fill:#CB9898;fill-opacity:1.000000;stroke:black;stroke-width:0.000000;stroke-opacity:0.000000" />


<rect
width="2.485149"
height="21.428571"
rx="0.000000"
ry="0.000000"
x="350.148154"
y="85.500000"
id="col.pan"
style="fill:#CA9C9C;fill-opacity:1.000000;stroke:black;stroke-width:0.000000;stroke-opacity:0.000000" />


<rect
width="2.485149"
height="21.428571"
rx="0.000000"
ry="0.000000"
x="348.663006"
y="85.500000"
id="col.pan"
style="fill:#C8A0A0;fill-opacity:1.000000;stroke:black;stroke-width:0.000000;stroke-opacity:0.000000" />


<rect
width="2.485149"
height="21.428571"
rx="0.000000"
ry="0.000000"
x="347.177857"
y="85.500000"
id="col.pan"
style="fill:#C7A3A3;fill-opacity:1.000000;stroke:black;stroke-width:0.000000;stroke-opacity:0.000000" />


<rect
width="2.485149"
height="21.428571"
rx="0.000000"
ry="0.000000"
x="345.692709"
y="85.500000"
id="col.pan"
style="fill:#C6A7A7;fill-opacity:1.000000;stroke:black;stroke-width:0.000000;stroke-opacity:0.000000" />


<rect
width="2.485149"
height="21.428571"
rx="0.000000"
ry="0.000000"
x="344.207560"
y="85.500000"
id="col.pan"
style="fill:#C5ABAB;fill-opacity:1.000000;stroke:black;stroke-width:0.000000;stroke-opacity:0.000000" />


<rect
width="2.485149"
height="21.428571"
rx="0.000000"
ry="0.000000"
x="342.722412"
y="85.500000"
id="col.pan"
style="fill:#C3AFAF;fill-opacity:1.000000;stroke:black;stroke-width:0.000000;stroke-opacity:0.000000" />


<rect
width="2.485149"
height="21.428571"
rx="0.000000"
ry="0.000000"
x="341.237263"
y="85.500000"
id="col.pan"
style="fill:#C2B3B3;fill-opacity:1.000000;stroke:black;stroke-width:0.000000;stroke-opacity:0.000000" />


<rect
width="2.485149"
height="21.428571"
rx="0.000000"
ry="0.000000"
x="339.752115"
y="85.500000"
id="col.pan"
style="fill:#C1B6B6;fill-opacity:1.000000;stroke:black;stroke-width:0.000000;stroke-opacity:0.000000" />


<rect
width="2.485149"
height="21.428571"
rx="0.000000"
ry="0.000000"
x="338.266966"
y="85.500000"
id="col.pan"
style="fill:#BFBABA;fill-opacity:1.000000;stroke:black;stroke-width:0.000000;stroke-opacity:0.000000" />


<rect
width="2.485149"
height="21.428571"
rx="0.000000"
ry="0.000000"
x="336.781818"
y="85.500000"
id="col.pan"
style="fill:#BEBEBE;fill-opacity:1.000000;stroke:black;stroke-width:0.000000;stroke-opacity:0.000000" />


<rect
width="2.485149"
height="21.428571"
rx="0.000000"
ry="0.000000"
x="335.296669"
y="85.500000"
id="col.pan"
style="fill:#BABFBA;fill-opacity:1.000000;stroke:black;stroke-width:0.000000;stroke-opacity:0.000000" />


<rect
width="2.485149"
height="21.428571"
rx="0.000000"
ry="0.000000"
x="333.811521"
y="85.500000"
id="col.pan"
style="fill:#B6C1B6;fill-opacity:1.000000;stroke:black;stroke-width:0.000000;stroke-opacity:0.000000" />


<rect
width="2.485149"
height="21.428571"
rx="0.000000"
ry="0.000000"
x="332.326372"
y="85.500000"
id="col.pan"
style="fill:#B3C2B3;fill-opacity:1.000000;stroke:black;stroke-width:0.000000;stroke-opacity:0.000000" />


<rect
width="2.485149"
height="21.428571"
rx="0.000000"
ry="0.000000"
x="330.841224"
y="85.500000"
id="col.pan"
style="fill:#AFC3AF;fill-opacity:1.000000;stroke:black;stroke-width:0.000000;stroke-opacity:0.000000" />


<rect
width="2.485149"
height="21.428571"
rx="0.000000"
ry="0.000000"
x="329.356075"
y="85.500000"
id="col.pan"
style="fill:#ABC5AB;fill-opacity:1.000000;stroke:black;stroke-width:0.000000;stroke-opacity:0.000000" />


<rect
width="2.485149"
height="21.428571"
rx="0.000000"
ry="0.000000"
x="327.870927"
y="85.500000"
id="col.pan"
style="fill:#A7C6A7;fill-opacity:1.000000;stroke:black;stroke-width:0.000000;stroke-opacity:0.000000" />


<rect
width="2.485149"
height="21.428571"
rx="0.000000"
ry="0.000000"
x="326.385778"
y="85.500000"
id="col.pan"
style="fill:#A3C7A3;fill-opacity:1.000000;stroke:black;stroke-width:0.000000;stroke-opacity:0.000000" />


<rect
width="2.485149"
height="21.428571"
rx="0.000000"
ry="0.000000"
x="324.900629"
y="85.500000"
id="col.pan"
style="fill:#A0C8A0;fill-opacity:1.000000;stroke:black;stroke-width:0.000000;stroke-opacity:0.000000" />


<rect
width="2.485149"
height="21.428571"
rx="0.000000"
ry="0.000000"
x="323.415481"
y="85.500000"
id="col.pan"
style="fill:#9CCA9C;fill-opacity:1.000000;stroke:black;stroke-width:0.000000;stroke-opacity:0.000000" />


<rect
width="2.485149"
height="21.428571"
rx="0.000000"
ry="0.000000"
x="321.930332"
y="85.500000"
id="col.pan"
style="fill:#98CB98;fill-opacity:1.000000;stroke:black;stroke-width:0.000000;stroke-opacity:0.000000" />


<rect
width="2.485149"
height="21.428571"
rx="0.000000"
ry="0.000000"
x="320.445184"
y="85.500000"
id="col.pan"
style="fill:#94CC94;fill-opacity:1.000000;stroke:black;stroke-width:0.000000;stroke-opacity:0.000000" />


<rect
width="2.485149"
height="21.428571"
rx="0.000000"
ry="0.000000"
x="318.960035"
y="85.500000"
id="col.pan"
style="fill:#90CE90;fill-opacity:1.000000;stroke:black;stroke-width:0.000000;stroke-opacity:0.000000" />


<rect
width="2.485149"
height="21.428571"
rx="0.000000"
ry="0.000000"
x="317.474887"
y="85.500000"
id="col.pan"
style="fill:#8DCF8D;fill-opacity:1.000000;stroke:black;stroke-width:0.000000;stroke-opacity:0.000000" />


<rect
width="2.485149"
height="21.428571"
rx="0.000000"
ry="0.000000"
x="315.989738"
y="85.500000"
id="col.pan"
style="fill:#89D089;fill-opacity:1.000000;stroke:black;stroke-width:0.000000;stroke-opacity:0.000000" />


<rect
width="2.485149"
height="21.428571"
rx="0.000000"
ry="0.000000"
x="314.504590"
y="85.500000"
id="col.pan"
style="fill:#85D285;fill-opacity:1.000000;stroke:black;stroke-width:0.000000;stroke-opacity:0.000000" />


<rect
width="2.485149"
height="21.428571"
rx="0.000000"
ry="0.000000"
x="313.019441"
y="85.500000"
id="col.pan"
style="fill:#81D381;fill-opacity:1.000000;stroke:black;stroke-width:0.000000;stroke-opacity:0.000000" />


<rect
width="2.485149"
height="21.428571"
rx="0.000000"
ry="0.000000"
x="311.534293"
y="85.500000"
id="col.pan"
style="fill:#7DD47D;fill-opacity:1.000000;stroke:black;stroke-width:0.000000;stroke-opacity:0.000000" />


<rect
width="2.485149"
height="21.428571"
rx="0.000000"
ry="0.000000"
x="310.049144"
y="85.500000"
id="col.pan"
style="fill:#7AD57A;fill-opacity:1.000000;stroke:black;stroke-width:0.000000;stroke-opacity:0.000000" />


<rect
width="2.485149"
height="21.428571"
rx="0.000000"
ry="0.000000"
x="308.563996"
y="85.500000"
id="col.pan"
style="fill:#76D776;fill-opacity:1.000000;stroke:black;stroke-width:0.000000;stroke-opacity:0.000000" />


<rect
width="2.485149"
height="21.428571"
rx="0.000000"
ry="0.000000"
x="307.078847"
y="85.500000"
id="col.pan"
style="fill:#72D872;fill-opacity:1.000000;stroke:black;stroke-width:0.000000;stroke-opacity:0.000000" />


<rect
width="2.485149"
height="21.428571"
rx="0.000000"
ry="0.000000"
x="305.593699"
y="85.500000"
id="col.pan"
style="fill:#6ED96E;fill-opacity:1.000000;stroke:black;stroke-width:0.000000;stroke-opacity:0.000000" />


<rect
width="2.485149"
height="21.428571"
rx="0.000000"
ry="0.000000"
x="304.108550"
y="85.500000"
id="col.pan"
style="fill:#6ADB6A;fill-opacity:1.000000;stroke:black;stroke-width:0.000000;stroke-opacity:0.000000" />


<rect
width="2.485149"
height="21.428571"
rx="0.000000"
ry="0.000000"
x="302.623402"
y="85.500000"
id="col.pan"
style="fill:#67DC67;fill-opacity:1.000000;stroke:black;stroke-width:0.000000;stroke-opacity:0.000000" />


<rect
width="2.485149"
height="21.428571"
rx="0.000000"
ry="0.000000"
x="301.138253"
y="85.500000"
id="col.pan"
style="fill:#63DD63;fill-opacity:1.000000;stroke:black;stroke-width:0.000000;stroke-opacity:0.000000" />


<rect
width="2.485149"
height="21.428571"
rx="0.000000"
ry="0.000000"
x="299.653105"
y="85.500000"
id="col.pan"
style="fill:#5FDF5F;fill-opacity:1.000000;stroke:black;stroke-width:0.000000;stroke-opacity:0.000000" />


<rect
width="2.485149"
height="21.428571"
rx="0.000000"
ry="0.000000"
x="298.167956"
y="85.500000"
id="col.pan"
style="fill:#5BE05B;fill-opacity:1.000000;stroke:black;stroke-width:0.000000;stroke-opacity:0.000000" />


<rect
width="2.485149"
height="21.428571"
rx="0.000000"
ry="0.000000"
x="296.682808"
y="85.500000"
id="col.pan"
style="fill:#57E157;fill-opacity:1.000000;stroke:black;stroke-width:0.000000;stroke-opacity:0.000000" />


<rect
width="2.485149"
height="21.428571"
rx="0.000000"
ry="0.000000"
x="295.197659"
y="85.500000"
id="col.pan"
style="fill:#54E254;fill-opacity:1.000000;stroke:black;stroke-width:0.000000;stroke-opacity:0.000000" />


<rect
width="2.485149"
height="21.428571"
rx="0.000000"
ry="0.000000"
x="293.712511"
y="85.500000"
id="col.pan"
style="fill:#50E450;fill-opacity:1.000000;stroke:black;stroke-width:0.000000;stroke-opacity:0.000000" />


<rect
width="2.485149"
height="21.428571"
rx="0.000000"
ry="0.000000"
x="292.227362"
y="85.500000"
id="col.pan"
style="fill:#4CE54C;fill-opacity:1.000000;stroke:black;stroke-width:0.000000;stroke-opacity:0.000000" />


<rect
width="2.485149"
height="21.428571"
rx="0.000000"
ry="0.000000"
x="290.742214"
y="85.500000"
id="col.pan"
style="fill:#48E648;fill-opacity:1.000000;stroke:black;stroke-width:0.000000;stroke-opacity:0.000000" />


<rect
width="2.485149"
height="21.428571"
rx="0.000000"
ry="0.000000"
x="289.257065"
y="85.500000"
id="col.pan"
style="fill:#44E844;fill-opacity:1.000000;stroke:black;stroke-width:0.000000;stroke-opacity:0.000000" />


<rect
width="2.485149"
height="21.428571"
rx="0.000000"
ry="0.000000"
x="287.771917"
y="85.500000"
id="col.pan"
style="fill:#41E941;fill-opacity:1.000000;stroke:black;stroke-width:0.000000;stroke-opacity:0.000000" />


<rect
width="2.485149"
height="21.428571"
rx="0.000000"
ry="0.000000"
x="286.286768"
y="85.500000"
id="col.pan"
style="fill:#3DEA3D;fill-opacity:1.000000;stroke:black;stroke-width:0.000000;stroke-opacity:0.000000" />


<rect
width="2.485149"
height="21.428571"
rx="0.000000"
ry="0.000000"
x="284.801620"
y="85.500000"
id="col.pan"
style="fill:#39EC39;fill-opacity:1.000000;stroke:black;stroke-width:0.000000;stroke-opacity:0.000000" />


<rect
width="2.485149"
height="21.428571"
rx="0.000000"
ry="0.000000"
x="283.316471"
y="85.500000"
id="col.pan"
style="fill:#35ED35;fill-opacity:1.000000;stroke:black;stroke-width:0.000000;stroke-opacity:0.000000" />


<rect
width="2.485149"
height="21.428571"
rx="0.000000"
ry="0.000000"
x="281.831323"
y="85.500000"
id="col.pan"
style="fill:#31EE31;fill-opacity:1.000000;stroke:black;stroke-width:0.000000;stroke-opacity:0.000000" />


<rect
width="2.485149"
height="21.428571"
rx="0.000000"
ry="0.000000"
x="280.346174"
y="85.500000"
id="col.pan"
style="fill:#2EEF2E;fill-opacity:1.000000;stroke:black;stroke-width:0.000000;stroke-opacity:0.000000" />


<rect
width="2.485149"
height="21.428571"
rx="0.000000"
ry="0.000000"
x="278.861026"
y="85.500000"
id="col.pan"
style="fill:#2AF12A;fill-opacity:1.000000;stroke:black;stroke-width:0.000000;stroke-opacity:0.000000" />


<rect
width="2.485149"
height="21.428571"
rx="0.000000"
ry="0.000000"
x="277.375877"
y="85.500000"
id="col.pan"
style="fill:#26F226;fill-opacity:1.000000;stroke:black;stroke-width:0.000000;stroke-opacity:0.000000" />


<rect
width="2.485149"
height="21.428571"
rx="0.000000"
ry="0.000000"
x="275.890728"
y="85.500000"
id="col.pan"
style="fill:#22F322;fill-opacity:1.000000;stroke:black;stroke-width:0.000000;stroke-opacity:0.000000" />


<rect
width="2.485149"
height="21.428571"
rx="0.000000"
ry="0.000000"
x="274.405580"
y="85.500000"
id="col.pan"
style="fill:#1EF51E;fill-opacity:1.000000;stroke:black;stroke-width:0.000000;stroke-opacity:0.000000" />


<rect
width="2.485149"
height="21.428571"
rx="0.000000"
ry="0.000000"
x="272.920431"
y="85.500000"
id="col.pan"
style="fill:#1BF61B;fill-opacity:1.000000;stroke:black;stroke-width:0.000000;stroke-opacity:0.000000" />


<rect
width="2.485149"
height="21.428571"
rx="0.000000"
ry="0.000000"
x="271.435283"
y="85.500000"
id="col.pan"
style="fill:#17F717;fill-opacity:1.000000;stroke:black;stroke-width:0.000000;stroke-opacity:0.000000" />


<rect
width="2.485149"
height="21.428571"
rx="0.000000"
ry="0.000000"
x="269.950134"
y="85.500000"
id="col.pan"
style="fill:#13F913;fill-opacity:1.000000;stroke:black;stroke-width:0.000000;stroke-opacity:0.000000" />


<rect
width="2.485149"
height="21.428571"
rx="0.000000"
ry="0.000000"
x="268.464986"
y="85.500000"
id="col.pan"
style="fill:#0FFA0F;fill-opacity:1.000000;stroke:black;stroke-width:0.000000;stroke-opacity:0.000000" />


<rect
width="2.485149"
height="21.428571"
rx="0.000000"
ry="0.000000"
x="266.979837"
y="85.500000"
id="col.pan"
style="fill:#0BFB0B;fill-opacity:1.000000;stroke:black;stroke-width:0.000000;stroke-opacity:0.000000" />


<rect
width="2.485149"
height="21.428571"
rx="0.000000"
ry="0.000000"
x="265.494689"
y="85.500000"
id="col.pan"
style="fill:#08FC08;fill-opacity:1.000000;stroke:black;stroke-width:0.000000;stroke-opacity:0.000000" />


<rect
width="2.485149"
height="21.428571"
rx="0.000000"
ry="0.000000"
x="264.009540"
y="85.500000"
id="col.pan"
style="fill:#04FE04;fill-opacity:1.000000;stroke:black;stroke-width:0.000000;stroke-opacity:0.000000" />


<rect
width="2.485149"
height="21.428571"
rx="0.000000"
ry="0.000000"
x="262.524392"
y="85.500000"
id="col.pan"
style="fill:#00FF00;fill-opacity:1.000000;stroke:black;stroke-width:0.000000;stroke-opacity:0.000000" />


<line
x1="262.524391856267" y1="85.5" x2="262.524391856267" y2="112.285714285714"
id="tick"
style="stroke:black;stroke-width:2.000000;stroke-opacity:1" />


<line
x1="277.524391856267" y1="85.5" x2="277.524391856267" y2="112.285714285714"
id="tick"
style="stroke:black;stroke-width:2.000000;stroke-opacity:1" />


<line
x1="292.524391856267" y1="85.5" x2="292.524391856267" y2="112.285714285714"
id="tick"
style="stroke:black;stroke-width:2.000000;stroke-opacity:1" />


<line
x1="307.524391856267" y1="85.5" x2="307.524391856267" y2="112.285714285714"
id="tick"
style="stroke:black;stroke-width:2.000000;stroke-opacity:1" />


<line
x1="322.524391856267" y1="85.5" x2="322.524391856267" y2="112.285714285714"
id="tick"
style="stroke:black;stroke-width:2.000000;stroke-opacity:1" />


<line
x1="337.524391856267" y1="85.5" x2="337.524391856267" y2="112.285714285714"
id="tick"
style="stroke:black;stroke-width:2.000000;stroke-opacity:1" />


<line
x1="352.524391856267" y1="85.5" x2="352.524391856267" y2="112.285714285714"
id="tick"
style="stroke:black;stroke-width:2.000000;stroke-opacity:1" />


<line
x1="367.524391856267" y1="85.5" x2="367.524391856267" y2="112.285714285714"
id="tick"
style="stroke:black;stroke-width:2.000000;stroke-opacity:1" />


<line
x1="382.524391856267" y1="85.5" x2="382.524391856267" y2="112.285714285714"
id="tick"
style="stroke:black;stroke-width:2.000000;stroke-opacity:1" />


<line
x1="397.524391856267" y1="85.5" x2="397.524391856267" y2="112.285714285714"
id="tick"
style="stroke:black;stroke-width:2.000000;stroke-opacity:1" />


<line
x1="412.524391856267" y1="85.5" x2="412.524391856267" y2="112.285714285714"
id="tick"
style="stroke:black;stroke-width:2.000000;stroke-opacity:1" />


<text
x="411.781818"
y="135.500000"
id="color.panel.max.value"
style="font-size:21.428571px;text-anchor:middle;font-family:Arial,Helvetica;alignment-baseline:baseline;stroke.opacity:1;dominant-baseline:baseline"
fill="black"
>
1</text>


<text
x="263.266966"
y="135.500000"
id="color.panel.low.value"
style="font-size:21.428571px;text-anchor:middle;font-family:Arial,Helvetica;alignment-baseline:baseline;stroke.opacity:1;dominant-baseline:baseline"
fill="black"
>
-1</text>


<text
x="339.009540"
y="135.500000"
id="color.panel.mid.value"
style="font-size:21.428571px;text-anchor:middle;font-family:Arial,Helvetica;alignment-baseline:baseline;stroke.opacity:1;dominant-baseline:baseline"
fill="black"
>
0</text>


</svg>
