<?xml version="1.0" encoding="UTF-8"?>
<svg width="930.000000" height="541.894192"
xmlns="http://www.w3.org/2000/svg" xmlns:svg="http://www.w3.org/2000/svg"
>
<metadata id="metadata7">image/svg+xml</metadata>

<rect
width="339.500000"
height="218.894192"
rx="11.000000"
ry="11.000000"
x="260.500000"
y="198.000000"
id="nucleus"
style="fill:white;fill-opacity:0.900000;stroke:black;stroke-width:5.000000;stroke-opacity:1.000000" />


<text
x="430.250000"
y="190.000000"
id="nucleus"
style="font-size:24.000000px;text-anchor:middle;font-family:Arial,Helvetica;alignment-baseline:baseline;stroke.opacity:1;dominant-baseline:baseline"
fill="black"
>
nucleus</text>


<rect
width="213.666667"
height="62.000000"
rx="11.000000"
ry="11.000000"
x="100.000000"
y="240.788383"
id="cytosol"
style="fill:white;fill-opacity:0.900000;stroke:black;stroke-width:5.000000;stroke-opacity:1.000000" />


<text
x="206.833333"
y="232.788383"
id="cytosol"
style="font-size:24.000000px;text-anchor:middle;font-family:Arial,Helvetica;alignment-baseline:baseline;stroke.opacity:1;dominant-baseline:baseline"
fill="black"
>
cytosol</text>






<rect
width="17.500000"
height="40.000000"
rx="1.750000"
ry="1.750000"
x="111.000000"
y="251.788383"
id="Protein_b0c4721108f0b35523579263cf742858"
style="fill:#00FF00;fill-opacity:1.000000;stroke:black;stroke-width:0.500000;stroke-opacity:0.000000" />


<text
x="119.750000"
y="273.288383"
id="Protein_b0c4721108f0b35523579263cf742858"
style="font-size:4.500000px;text-anchor:middle;font-family:Arial,Helvetica;alignment-baseline:baseline;stroke.opacity:1;dominant-baseline:baseline"
fill="black"
>
 </text>



<rect
width="17.500000"
height="40.000000"
rx="1.750000"
ry="1.750000"
x="128.500000"
y="251.788383"
id="Protein_b0c4721108f0b35523579263cf742858"
style="fill:#9DC99D;fill-opacity:1.000000;stroke:black;stroke-width:0.500000;stroke-opacity:0.000000" />


<text
x="137.250000"
y="273.288383"
id="Protein_b0c4721108f0b35523579263cf742858"
style="font-size:4.500000px;text-anchor:middle;font-family:Arial,Helvetica;alignment-baseline:baseline;stroke.opacity:1;dominant-baseline:baseline"
fill="black"
>
 </text>



<rect
width="17.500000"
height="40.000000"
rx="1.750000"
ry="1.750000"
x="146.000000"
y="251.788383"
id="Protein_b0c4721108f0b35523579263cf742858"
style="fill:#00FF00;fill-opacity:1.000000;stroke:black;stroke-width:0.500000;stroke-opacity:0.000000" />


<text
x="154.750000"
y="273.288383"
id="Protein_b0c4721108f0b35523579263cf742858"
style="font-size:4.500000px;text-anchor:middle;font-family:Arial,Helvetica;alignment-baseline:baseline;stroke.opacity:1;dominant-baseline:baseline"
fill="black"
>
 </text>



<rect
width="17.500000"
height="40.000000"
rx="1.750000"
ry="1.750000"
x="163.500000"
y="251.788383"
id="Protein_b0c4721108f0b35523579263cf742858"
style="fill:#7AD57A;fill-opacity:1.000000;stroke:black;stroke-width:0.500000;stroke-opacity:0.000000" />


<text
x="172.250000"
y="273.288383"
id="Protein_b0c4721108f0b35523579263cf742858"
style="font-size:4.500000px;text-anchor:middle;font-family:Arial,Helvetica;alignment-baseline:baseline;stroke.opacity:1;dominant-baseline:baseline"
fill="black"
>
 </text>


<rect
width="70.000000"
height="40.000000"
rx="4.000000"
ry="4.000000"
x="111.000000"
y="251.788383"
id="Protein_b0c4721108f0b35523579263cf742858"
style="fill:#7AD57A;fill-opacity:0.000000;stroke:black;stroke-width:1.000000;stroke-opacity:1.000000" />


<text
x="146.000000"
y="277.788383"
id="Protein_b0c4721108f0b35523579263cf742858"
style="font-size:18.000000px;text-anchor:middle;font-family:Arial,Helvetica;alignment-baseline:baseline;stroke.opacity:1;dominant-baseline:baseline"
fill="black"
>
Ci/Gli</text>


<rect
width="26.666667"
height="26.666667"
rx="0.000000"
ry="0.000000"
x="276.000000"
y="251.788383"
id="Transport_951a48ffbe8b816e97bbe5d9aeb1357e_LEFT_TO_RIGHT"
style="fill:white;fill-opacity:0.600000;stroke:black;stroke-width:1.000000;stroke-opacity:1.000000" />





<path
d="M 519 216 Q 519 216 519 216 L 536.5 216 Q 536.5 216 536.5 216 L 536.5 256 Q 536.5 256 536.5 256 L 523 256 Q 519 256 519 252 Z"
id="Dna_4e875beabdcd8317cc291dbd352ddbca"
style="fill:#27F227;fill-opacity:1.000000;stroke-width:0.5;stroke:black;stroke-opacity:0.000000"
transform = "rotate(0.000000 0.000000 0.000000)"
/>


<text
x="527.750000"
y="237.500000"
id="Dna_4e875beabdcd8317cc291dbd352ddbca"
style="font-size:4.500000px;text-anchor:middle;font-family:Arial,Helvetica;alignment-baseline:baseline;stroke.opacity:1;dominant-baseline:baseline"
fill="black"
>
 </text>



<path
d="M 536.5 216 Q 536.5 216 536.5 216 L 554 216 Q 554 216 554 216 L 554 256 Q 554 256 554 256 L 536.5 256 Q 536.5 256 536.5 256 Z"
id="Dna_4e875beabdcd8317cc291dbd352ddbca"
style="fill:#FF0000;fill-opacity:1.000000;stroke-width:0.5;stroke:black;stroke-opacity:0.000000"
transform = "rotate(0.000000 0.000000 0.000000)"
/>


<text
x="545.250000"
y="237.500000"
id="Dna_4e875beabdcd8317cc291dbd352ddbca"
style="font-size:4.500000px;text-anchor:middle;font-family:Arial,Helvetica;alignment-baseline:baseline;stroke.opacity:1;dominant-baseline:baseline"
fill="black"
>
 </text>



<path
d="M 554 216 Q 554 216 554 216 L 571.5 216 Q 571.5 216 571.5 216 L 571.5 256 Q 571.5 256 571.5 256 L 554 256 Q 554 256 554 256 Z"
id="Dna_4e875beabdcd8317cc291dbd352ddbca"
style="fill:#F91111;fill-opacity:1.000000;stroke-width:0.5;stroke:black;stroke-opacity:0.000000"
transform = "rotate(0.000000 0.000000 0.000000)"
/>


<text
x="562.750000"
y="237.500000"
id="Dna_4e875beabdcd8317cc291dbd352ddbca"
style="font-size:4.500000px;text-anchor:middle;font-family:Arial,Helvetica;alignment-baseline:baseline;stroke.opacity:1;dominant-baseline:baseline"
fill="black"
>
 </text>



<path
d="M 571.5 216 Q 571.5 216 571.5 216 L 589 216 Q 589 216 589 216 L 589 252 Q 589 256 585 256 L 571.5 256 Q 571.5 256 571.5 256 Z"
id="Dna_4e875beabdcd8317cc291dbd352ddbca"
style="fill:#00FF00;fill-opacity:1.000000;stroke-width:0.5;stroke:black;stroke-opacity:0.000000"
transform = "rotate(0.000000 0.000000 0.000000)"
/>


<text
x="580.250000"
y="237.500000"
id="Dna_4e875beabdcd8317cc291dbd352ddbca"
style="font-size:4.500000px;text-anchor:middle;font-family:Arial,Helvetica;alignment-baseline:baseline;stroke.opacity:1;dominant-baseline:baseline"
fill="black"
>
 </text>


<path
d="M 519 216 Q 519 216 519 216 L 589 216 Q 589 216 589 216 L 589 249 Q 589 256 582 256 L 526 256 Q 519 256 519 249 Z"
id="Dna_4e875beabdcd8317cc291dbd352ddbca"
style="fill:#00FF00;fill-opacity:0.000000;stroke-width:1;stroke:black;stroke-opacity:1.000000"
transform = "rotate(0.000000 0.000000 0.000000)"
/>



<text
x="554.000000"
y="224.000000"
id="Dna_4e875beabdcd8317cc291dbd352ddbca"
style="font-size:18.000000px;text-anchor:middle;font-family:Arial,Helvetica;alignment-baseline:baseline;stroke.opacity:1;dominant-baseline:baseline"
fill="black"
>
nucleic-</text>


<text
x="554.000000"
y="242.000000"
id="Dna_4e875beabdcd8317cc291dbd352ddbca"
style="font-size:18.000000px;text-anchor:middle;font-family:Arial,Helvetica;alignment-baseline:baseline;stroke.opacity:1;dominant-baseline:baseline"
fill="black"
>
_acid_f-</text>


<text
x="554.000000"
y="260.000000"
id="Dna_4e875beabdcd8317cc291dbd352ddbca"
style="font-size:18.000000px;text-anchor:middle;font-family:Arial,Helvetica;alignment-baseline:baseline;stroke.opacity:1;dominant-baseline:baseline"
fill="black"
>
eature_1</text>


<rect
width="35.000000"
height="17.500000"
rx="0.000000"
ry="0.000000"
x="519.000000"
y="207.250000"
id="Dna_4e875beabdcd8317cc291dbd352ddbca.info.1"
style="fill:white;fill-opacity:1.000000;stroke:black;stroke-width:1.000000;stroke-opacity:1.000000" />


<text
x="536.500000"
y="219.000000"
id="Dna_4e875beabdcd8317cc291dbd352ddbca.info.1"
style="font-size:9.000000px;text-anchor:middle;font-family:Arial,Helvetica;alignment-baseline:baseline;stroke.opacity:1;dominant-baseline:baseline"
fill="black"
>
mt:DNA</text>




<rect
width="17.500000"
height="40.000000"
rx="1.750000"
ry="1.750000"
x="354.000000"
y="209.000000"
id="Protein_60e1cc0de2bd92286ac1a33216230b30"
style="fill:#EC3737;fill-opacity:1.000000;stroke:black;stroke-width:0.500000;stroke-opacity:0.000000" />


<text
x="362.750000"
y="230.500000"
id="Protein_60e1cc0de2bd92286ac1a33216230b30"
style="font-size:4.500000px;text-anchor:middle;font-family:Arial,Helvetica;alignment-baseline:baseline;stroke.opacity:1;dominant-baseline:baseline"
fill="black"
>
 </text>



<rect
width="17.500000"
height="40.000000"
rx="1.750000"
ry="1.750000"
x="371.500000"
y="209.000000"
id="Protein_60e1cc0de2bd92286ac1a33216230b30"
style="fill:#00FF00;fill-opacity:1.000000;stroke:black;stroke-width:0.500000;stroke-opacity:0.000000" />


<text
x="380.250000"
y="230.500000"
id="Protein_60e1cc0de2bd92286ac1a33216230b30"
style="font-size:4.500000px;text-anchor:middle;font-family:Arial,Helvetica;alignment-baseline:baseline;stroke.opacity:1;dominant-baseline:baseline"
fill="black"
>
 </text>



<rect
width="17.500000"
height="40.000000"
rx="1.750000"
ry="1.750000"
x="389.000000"
y="209.000000"
id="Protein_60e1cc0de2bd92286ac1a33216230b30"
style="fill:#6DDA6D;fill-opacity:1.000000;stroke:black;stroke-width:0.500000;stroke-opacity:0.000000" />


<text
x="397.750000"
y="230.500000"
id="Protein_60e1cc0de2bd92286ac1a33216230b30"
style="font-size:4.500000px;text-anchor:middle;font-family:Arial,Helvetica;alignment-baseline:baseline;stroke.opacity:1;dominant-baseline:baseline"
fill="black"
>
 </text>



<rect
width="17.500000"
height="40.000000"
rx="1.750000"
ry="1.750000"
x="406.500000"
y="209.000000"
id="Protein_60e1cc0de2bd92286ac1a33216230b30"
style="fill:#FF0000;fill-opacity:1.000000;stroke:black;stroke-width:0.500000;stroke-opacity:0.000000" />


<text
x="415.250000"
y="230.500000"
id="Protein_60e1cc0de2bd92286ac1a33216230b30"
style="font-size:4.500000px;text-anchor:middle;font-family:Arial,Helvetica;alignment-baseline:baseline;stroke.opacity:1;dominant-baseline:baseline"
fill="black"
>
 </text>


<rect
width="70.000000"
height="40.000000"
rx="4.000000"
ry="4.000000"
x="354.000000"
y="209.000000"
id="Protein_60e1cc0de2bd92286ac1a33216230b30"
style="fill:#FF0000;fill-opacity:0.000000;stroke:black;stroke-width:1.000000;stroke-opacity:1.000000" />


<text
x="389.000000"
y="235.000000"
id="Protein_60e1cc0de2bd92286ac1a33216230b30"
style="font-size:18.000000px;text-anchor:middle;font-family:Arial,Helvetica;alignment-baseline:baseline;stroke.opacity:1;dominant-baseline:baseline"
fill="black"
>
Ci/Gli</text>




<path
d="M 271.5 358.894191624432 Q 271.5 358.894191624432 271.5 358.894191624432 L 289 358.894191624432 Q 289 358.894191624432 289 358.894191624432 L 289 398.894191624432 Q 289 398.894191624432 289 398.894191624432 L 275.5 398.894191624432 Q 271.5 398.894191624432 271.5 394.894191624432 Z"
id="Rna_8b105d19d3206a8a66cd2f4cdbaebe74"
style="fill:#00FF00;fill-opacity:1.000000;stroke-width:0.5;stroke:black;stroke-opacity:0.000000"
transform = "rotate(0.000000 0.000000 0.000000)"
/>


<text
x="280.250000"
y="380.394192"
id="Rna_8b105d19d3206a8a66cd2f4cdbaebe74"
style="font-size:4.500000px;text-anchor:middle;font-family:Arial,Helvetica;alignment-baseline:baseline;stroke.opacity:1;dominant-baseline:baseline"
fill="black"
>
 </text>



<path
d="M 289 358.894191624432 Q 289 358.894191624432 289 358.894191624432 L 306.5 358.894191624432 Q 306.5 358.894191624432 306.5 358.894191624432 L 306.5 398.894191624432 Q 306.5 398.894191624432 306.5 398.894191624432 L 289 398.894191624432 Q 289 398.894191624432 289 398.894191624432 Z"
id="Rna_8b105d19d3206a8a66cd2f4cdbaebe74"
style="fill:#9DC99D;fill-opacity:1.000000;stroke-width:0.5;stroke:black;stroke-opacity:0.000000"
transform = "rotate(0.000000 0.000000 0.000000)"
/>


<text
x="297.750000"
y="380.394192"
id="Rna_8b105d19d3206a8a66cd2f4cdbaebe74"
style="font-size:4.500000px;text-anchor:middle;font-family:Arial,Helvetica;alignment-baseline:baseline;stroke.opacity:1;dominant-baseline:baseline"
fill="black"
>
 </text>



<path
d="M 306.5 358.894191624432 Q 306.5 358.894191624432 306.5 358.894191624432 L 324 358.894191624432 Q 324 358.894191624432 324 358.894191624432 L 324 398.894191624432 Q 324 398.894191624432 324 398.894191624432 L 306.5 398.894191624432 Q 306.5 398.894191624432 306.5 398.894191624432 Z"
id="Rna_8b105d19d3206a8a66cd2f4cdbaebe74"
style="fill:#00FF00;fill-opacity:1.000000;stroke-width:0.5;stroke:black;stroke-opacity:0.000000"
transform = "rotate(0.000000 0.000000 0.000000)"
/>


<text
x="315.250000"
y="380.394192"
id="Rna_8b105d19d3206a8a66cd2f4cdbaebe74"
style="font-size:4.500000px;text-anchor:middle;font-family:Arial,Helvetica;alignment-baseline:baseline;stroke.opacity:1;dominant-baseline:baseline"
fill="black"
>
 </text>



<path
d="M 324 358.894191624432 Q 324 358.894191624432 324 358.894191624432 L 341.5 358.894191624432 Q 341.5 358.894191624432 341.5 358.894191624432 L 341.5 394.894191624432 Q 341.5 398.894191624432 337.5 398.894191624432 L 324 398.894191624432 Q 324 398.894191624432 324 398.894191624432 Z"
id="Rna_8b105d19d3206a8a66cd2f4cdbaebe74"
style="fill:#7AD57A;fill-opacity:1.000000;stroke-width:0.5;stroke:black;stroke-opacity:0.000000"
transform = "rotate(0.000000 0.000000 0.000000)"
/>


<text
x="332.750000"
y="380.394192"
id="Rna_8b105d19d3206a8a66cd2f4cdbaebe74"
style="font-size:4.500000px;text-anchor:middle;font-family:Arial,Helvetica;alignment-baseline:baseline;stroke.opacity:1;dominant-baseline:baseline"
fill="black"
>
 </text>


<path
d="M 271.5 358.894191624432 Q 271.5 358.894191624432 271.5 358.894191624432 L 341.5 358.894191624432 Q 341.5 358.894191624432 341.5 358.894191624432 L 341.5 391.894191624432 Q 341.5 398.894191624432 334.5 398.894191624432 L 278.5 398.894191624432 Q 271.5 398.894191624432 271.5 391.894191624432 Z"
id="Rna_8b105d19d3206a8a66cd2f4cdbaebe74"
style="fill:#7AD57A;fill-opacity:0.000000;stroke-width:1;stroke:black;stroke-opacity:1.000000"
transform = "rotate(0.000000 0.000000 0.000000)"
/>



<text
x="306.500000"
y="366.894192"
id="Rna_8b105d19d3206a8a66cd2f4cdbaebe74"
style="font-size:18.000000px;text-anchor:middle;font-family:Arial,Helvetica;alignment-baseline:baseline;stroke.opacity:1;dominant-baseline:baseline"
fill="black"
>
nucleic-</text>


<text
x="306.500000"
y="384.894192"
id="Rna_8b105d19d3206a8a66cd2f4cdbaebe74"
style="font-size:18.000000px;text-anchor:middle;font-family:Arial,Helvetica;alignment-baseline:baseline;stroke.opacity:1;dominant-baseline:baseline"
fill="black"
>
_acid_f-</text>


<text
x="306.500000"
y="402.894192"
id="Rna_8b105d19d3206a8a66cd2f4cdbaebe74"
style="font-size:18.000000px;text-anchor:middle;font-family:Arial,Helvetica;alignment-baseline:baseline;stroke.opacity:1;dominant-baseline:baseline"
fill="black"
>
eature_2</text>


<rect
width="35.000000"
height="17.500000"
rx="0.000000"
ry="0.000000"
x="271.500000"
y="350.144192"
id="Rna_8b105d19d3206a8a66cd2f4cdbaebe74.info.1"
style="fill:white;fill-opacity:1.000000;stroke:black;stroke-width:1.000000;stroke-opacity:1.000000" />


<text
x="289.000000"
y="361.894192"
id="Rna_8b105d19d3206a8a66cd2f4cdbaebe74.info.1"
style="font-size:9.000000px;text-anchor:middle;font-family:Arial,Helvetica;alignment-baseline:baseline;stroke.opacity:1;dominant-baseline:baseline"
fill="black"
>
mt:RNA</text>


<rect
width="26.666667"
height="26.666667"
rx="0.000000"
ry="0.000000"
x="418.644978"
y="288.208297"
id="TemplateReaction_e87cea4a1f048d3c9a7dad71bdc46095"
style="fill:white;fill-opacity:0.600000;stroke:black;stroke-width:1.000000;stroke-opacity:1.000000" />





<path d="M339.000000 358.000000 C 364.000000 342.000000, 399.000000 321.000000,418.000000 309.000000" stroke="black"  fill="transparent"/>

<line
x1="399" y1="321" x2="418" y2="309"
id="0"
style="stroke:black;stroke-width:1.000000;stroke-opacity:0" />


<line
x1="364" y1="342" x2="339" y2="358"
id="TemplateReaction_e87cea4a1f048d3c9a7dad71bdc46095-output--to--Rna_8b105d19d3206a8a66cd2f4cdbaebe74"
style="stroke:black;stroke-width:1.000000;stroke-opacity:0" />


<polygon
points = "339,358 330.2,353.6 330.2,362.4"
id="line"
style="fill:black; stroke:#000000; stroke-width:1"
transform = "rotate(147.380757 339.000000 358.000000)"
/>


<path d="M303.000000 260.000000 C 316.000000 255.000000, 336.000000 248.000000,353.000000 241.000000" stroke="black"  fill="transparent"/>

<line
x1="316" y1="255" x2="303" y2="260"
id="0"
style="stroke:black;stroke-width:1.000000;stroke-opacity:0" />


<line
x1="336" y1="248" x2="353" y2="241"
id="Transport_951a48ffbe8b816e97bbe5d9aeb1357e_LEFT_TO_RIGHT-output--to--Protein_60e1cc0de2bd92286ac1a33216230b30"
style="stroke:black;stroke-width:1.000000;stroke-opacity:0" />


<polygon
points = "353,241 344.2,236.6 344.2,245.4"
id="line"
style="fill:black; stroke:#000000; stroke-width:1"
transform = "rotate(-22.380135 353.000000 241.000000)"
/>


<path d="M518.000000 254.000000 C 494.000000 268.000000, 463.000000 284.000000,445.000000 294.000000" stroke="black"  fill="transparent"/>

<line
x1="463" y1="284" x2="445" y2="294"
id="0"
style="stroke:black;stroke-width:1.000000;stroke-opacity:0" />


<line
x1="494" y1="268" x2="518" y2="254"
id="TemplateReaction_e87cea4a1f048d3c9a7dad71bdc46095-input--to--Dna_4e875beabdcd8317cc291dbd352ddbca"
style="stroke:black;stroke-width:1.000000;stroke-opacity:0" />


<polygon
points = "518,254 504.8,249.6 509.2,254 504.8,258.4"
id="line"
style="fill:black; stroke:#000000; stroke-width:1"
transform = "rotate(-30.256437 518.000000 254.000000)"
/>


<path d="M181.000000 270.000000 C 211.000000 268.000000, 254.000000 266.000000,275.000000 265.000000" stroke="black"  fill="transparent"/>

<line
x1="211" y1="268" x2="181" y2="270"
id="0"
style="stroke:black;stroke-width:1.000000;stroke-opacity:0" />


<line
x1="254" y1="266" x2="275" y2="265"
id="Protein_b0c4721108f0b35523579263cf742858--to--Transport_951a48ffbe8b816e97bbe5d9aeb1357e_LEFT_TO_RIGHT-input"
style="stroke:black;stroke-width:1.000000;stroke-opacity:0" />





<rect
width="2.485149"
height="21.428571"
rx="0.000000"
ry="0.000000"
x="598.514851"
y="85.500000"
id="col.pan"
style="fill:#FF0000;fill-opacity:1.000000;stroke:black;stroke-width:0.000000;stroke-opacity:0.000000" />


<rect
width="2.485149"
height="21.428571"
rx="0.000000"
ry="0.000000"
x="597.029703"
y="85.500000"
id="col.pan"
style="fill:#FE0404;fill-opacity:1.000000;stroke:black;stroke-width:0.000000;stroke-opacity:0.000000" />


<rect
width="2.485149"
height="21.428571"
rx="0.000000"
ry="0.000000"
x="595.544554"
y="85.500000"
id="col.pan"
style="fill:#FC0808;fill-opacity:1.000000;stroke:black;stroke-width:0.000000;stroke-opacity:0.000000" />


<rect
width="2.485149"
height="21.428571"
rx="0.000000"
ry="0.000000"
x="594.059406"
y="85.500000"
id="col.pan"
style="fill:#FB0B0B;fill-opacity:1.000000;stroke:black;stroke-width:0.000000;stroke-opacity:0.000000" />


<rect
width="2.485149"
height="21.428571"
rx="0.000000"
ry="0.000000"
x="592.574257"
y="85.500000"
id="col.pan"
style="fill:#FA0F0F;fill-opacity:1.000000;stroke:black;stroke-width:0.000000;stroke-opacity:0.000000" />


<rect
width="2.485149"
height="21.428571"
rx="0.000000"
ry="0.000000"
x="591.089109"
y="85.500000"
id="col.pan"
style="fill:#F91313;fill-opacity:1.000000;stroke:black;stroke-width:0.000000;stroke-opacity:0.000000" />


<rect
width="2.485149"
height="21.428571"
rx="0.000000"
ry="0.000000"
x="589.603960"
y="85.500000"
id="col.pan"
style="fill:#F71717;fill-opacity:1.000000;stroke:black;stroke-width:0.000000;stroke-opacity:0.000000" />


<rect
width="2.485149"
height="21.428571"
rx="0.000000"
ry="0.000000"
x="588.118812"
y="85.500000"
id="col.pan"
style="fill:#F61B1B;fill-opacity:1.000000;stroke:black;stroke-width:0.000000;stroke-opacity:0.000000" />


<rect
width="2.485149"
height="21.428571"
rx="0.000000"
ry="0.000000"
x="586.633663"
y="85.500000"
id="col.pan"
style="fill:#F51E1E;fill-opacity:1.000000;stroke:black;stroke-width:0.000000;stroke-opacity:0.000000" />


<rect
width="2.485149"
height="21.428571"
rx="0.000000"
ry="0.000000"
x="585.148515"
y="85.500000"
id="col.pan"
style="fill:#F32222;fill-opacity:1.000000;stroke:black;stroke-width:0.000000;stroke-opacity:0.000000" />


<rect
width="2.485149"
height="21.428571"
rx="0.000000"
ry="0.000000"
x="583.663366"
y="85.500000"
id="col.pan"
style="fill:#F22626;fill-opacity:1.000000;stroke:black;stroke-width:0.000000;stroke-opacity:0.000000" />


<rect
width="2.485149"
height="21.428571"
rx="0.000000"
ry="0.000000"
x="582.178218"
y="85.500000"
id="col.pan"
style="fill:#F12A2A;fill-opacity:1.000000;stroke:black;stroke-width:0.000000;stroke-opacity:0.000000" />


<rect
width="2.485149"
height="21.428571"
rx="0.000000"
ry="0.000000"
x="580.693069"
y="85.500000"
id="col.pan"
style="fill:#EF2E2E;fill-opacity:1.000000;stroke:black;stroke-width:0.000000;stroke-opacity:0.000000" />


<rect
width="2.485149"
height="21.428571"
rx="0.000000"
ry="0.000000"
x="579.207921"
y="85.500000"
id="col.pan"
style="fill:#EE3131;fill-opacity:1.000000;stroke:black;stroke-width:0.000000;stroke-opacity:0.000000" />


<rect
width="2.485149"
height="21.428571"
rx="0.000000"
ry="0.000000"
x="577.722772"
y="85.500000"
id="col.pan"
style="fill:#ED3535;fill-opacity:1.000000;stroke:black;stroke-width:0.000000;stroke-opacity:0.000000" />


<rect
width="2.485149"
height="21.428571"
rx="0.000000"
ry="0.000000"
x="576.237624"
y="85.500000"
id="col.pan"
style="fill:#EC3939;fill-opacity:1.000000;stroke:black;stroke-width:0.000000;stroke-opacity:0.000000" />


<rect
width="2.485149"
height="21.428571"
rx="0.000000"
ry="0.000000"
x="574.752475"
y="85.500000"
id="col.pan"
style="fill:#EA3D3D;fill-opacity:1.000000;stroke:black;stroke-width:0.000000;stroke-opacity:0.000000" />


<rect
width="2.485149"
height="21.428571"
rx="0.000000"
ry="0.000000"
x="573.267327"
y="85.500000"
id="col.pan"
style="fill:#E94141;fill-opacity:1.000000;stroke:black;stroke-width:0.000000;stroke-opacity:0.000000" />


<rect
width="2.485149"
height="21.428571"
rx="0.000000"
ry="0.000000"
x="571.782178"
y="85.500000"
id="col.pan"
style="fill:#E84444;fill-opacity:1.000000;stroke:black;stroke-width:0.000000;stroke-opacity:0.000000" />


<rect
width="2.485149"
height="21.428571"
rx="0.000000"
ry="0.000000"
x="570.297030"
y="85.500000"
id="col.pan"
style="fill:#E64848;fill-opacity:1.000000;stroke:black;stroke-width:0.000000;stroke-opacity:0.000000" />


<rect
width="2.485149"
height="21.428571"
rx="0.000000"
ry="0.000000"
x="568.811881"
y="85.500000"
id="col.pan"
style="fill:#E54C4C;fill-opacity:1.000000;stroke:black;stroke-width:0.000000;stroke-opacity:0.000000" />


<rect
width="2.485149"
height="21.428571"
rx="0.000000"
ry="0.000000"
x="567.326733"
y="85.500000"
id="col.pan"
style="fill:#E45050;fill-opacity:1.000000;stroke:black;stroke-width:0.000000;stroke-opacity:0.000000" />


<rect
width="2.485149"
height="21.428571"
rx="0.000000"
ry="0.000000"
x="565.841584"
y="85.500000"
id="col.pan"
style="fill:#E25454;fill-opacity:1.000000;stroke:black;stroke-width:0.000000;stroke-opacity:0.000000" />


<rect
width="2.485149"
height="21.428571"
rx="0.000000"
ry="0.000000"
x="564.356436"
y="85.500000"
id="col.pan"
style="fill:#E15757;fill-opacity:1.000000;stroke:black;stroke-width:0.000000;stroke-opacity:0.000000" />


<rect
width="2.485149"
height="21.428571"
rx="0.000000"
ry="0.000000"
x="562.871287"
y="85.500000"
id="col.pan"
style="fill:#E05B5B;fill-opacity:1.000000;stroke:black;stroke-width:0.000000;stroke-opacity:0.000000" />


<rect
width="2.485149"
height="21.428571"
rx="0.000000"
ry="0.000000"
x="561.386139"
y="85.500000"
id="col.pan"
style="fill:#DF5F5F;fill-opacity:1.000000;stroke:black;stroke-width:0.000000;stroke-opacity:0.000000" />


<rect
width="2.485149"
height="21.428571"
rx="0.000000"
ry="0.000000"
x="559.900990"
y="85.500000"
id="col.pan"
style="fill:#DD6363;fill-opacity:1.000000;stroke:black;stroke-width:0.000000;stroke-opacity:0.000000" />


<rect
width="2.485149"
height="21.428571"
rx="0.000000"
ry="0.000000"
x="558.415842"
y="85.500000"
id="col.pan"
style="fill:#DC6767;fill-opacity:1.000000;stroke:black;stroke-width:0.000000;stroke-opacity:0.000000" />


<rect
width="2.485149"
height="21.428571"
rx="0.000000"
ry="0.000000"
x="556.930693"
y="85.500000"
id="col.pan"
style="fill:#DB6A6A;fill-opacity:1.000000;stroke:black;stroke-width:0.000000;stroke-opacity:0.000000" />


<rect
width="2.485149"
height="21.428571"
rx="0.000000"
ry="0.000000"
x="555.445545"
y="85.500000"
id="col.pan"
style="fill:#D96E6E;fill-opacity:1.000000;stroke:black;stroke-width:0.000000;stroke-opacity:0.000000" />


<rect
width="2.485149"
height="21.428571"
rx="0.000000"
ry="0.000000"
x="553.960396"
y="85.500000"
id="col.pan"
style="fill:#D87272;fill-opacity:1.000000;stroke:black;stroke-width:0.000000;stroke-opacity:0.000000" />


<rect
width="2.485149"
height="21.428571"
rx="0.000000"
ry="0.000000"
x="552.475248"
y="85.500000"
id="col.pan"
style="fill:#D77676;fill-opacity:1.000000;stroke:black;stroke-width:0.000000;stroke-opacity:0.000000" />


<rect
width="2.485149"
height="21.428571"
rx="0.000000"
ry="0.000000"
x="550.990099"
y="85.500000"
id="col.pan"
style="fill:#D57A7A;fill-opacity:1.000000;stroke:black;stroke-width:0.000000;stroke-opacity:0.000000" />


<rect
width="2.485149"
height="21.428571"
rx="0.000000"
ry="0.000000"
x="549.504950"
y="85.500000"
id="col.pan"
style="fill:#D47D7D;fill-opacity:1.000000;stroke:black;stroke-width:0.000000;stroke-opacity:0.000000" />


<rect
width="2.485149"
height="21.428571"
rx="0.000000"
ry="0.000000"
x="548.019802"
y="85.500000"
id="col.pan"
style="fill:#D38181;fill-opacity:1.000000;stroke:black;stroke-width:0.000000;stroke-opacity:0.000000" />


<rect
width="2.485149"
height="21.428571"
rx="0.000000"
ry="0.000000"
x="546.534653"
y="85.500000"
id="col.pan"
style="fill:#D28585;fill-opacity:1.000000;stroke:black;stroke-width:0.000000;stroke-opacity:0.000000" />


<rect
width="2.485149"
height="21.428571"
rx="0.000000"
ry="0.000000"
x="545.049505"
y="85.500000"
id="col.pan"
style="fill:#D08989;fill-opacity:1.000000;stroke:black;stroke-width:0.000000;stroke-opacity:0.000000" />


<rect
width="2.485149"
height="21.428571"
rx="0.000000"
ry="0.000000"
x="543.564356"
y="85.500000"
id="col.pan"
style="fill:#CF8D8D;fill-opacity:1.000000;stroke:black;stroke-width:0.000000;stroke-opacity:0.000000" />


<rect
width="2.485149"
height="21.428571"
rx="0.000000"
ry="0.000000"
x="542.079208"
y="85.500000"
id="col.pan"
style="fill:#CE9090;fill-opacity:1.000000;stroke:black;stroke-width:0.000000;stroke-opacity:0.000000" />


<rect
width="2.485149"
height="21.428571"
rx="0.000000"
ry="0.000000"
x="540.594059"
y="85.500000"
id="col.pan"
style="fill:#CC9494;fill-opacity:1.000000;stroke:black;stroke-width:0.000000;stroke-opacity:0.000000" />


<rect
width="2.485149"
height="21.428571"
rx="0.000000"
ry="0.000000"
x="539.108911"
y="85.500000"
id="col.pan"
style="fill:#CB9898;fill-opacity:1.000000;stroke:black;stroke-width:0.000000;stroke-opacity:0.000000" />


<rect
width="2.485149"
height="21.428571"
rx="0.000000"
ry="0.000000"
x="537.623762"
y="85.500000"
id="col.pan"
style="fill:#CA9C9C;fill-opacity:1.000000;stroke:black;stroke-width:0.000000;stroke-opacity:0.000000" />


<rect
width="2.485149"
height="21.428571"
rx="0.000000"
ry="0.000000"
x="536.138614"
y="85.500000"
id="col.pan"
style="fill:#C8A0A0;fill-opacity:1.000000;stroke:black;stroke-width:0.000000;stroke-opacity:0.000000" />


<rect
width="2.485149"
height="21.428571"
rx="0.000000"
ry="0.000000"
x="534.653465"
y="85.500000"
id="col.pan"
style="fill:#C7A3A3;fill-opacity:1.000000;stroke:black;stroke-width:0.000000;stroke-opacity:0.000000" />


<rect
width="2.485149"
height="21.428571"
rx="0.000000"
ry="0.000000"
x="533.168317"
y="85.500000"
id="col.pan"
style="fill:#C6A7A7;fill-opacity:1.000000;stroke:black;stroke-width:0.000000;stroke-opacity:0.000000" />


<rect
width="2.485149"
height="21.428571"
rx="0.000000"
ry="0.000000"
x="531.683168"
y="85.500000"
id="col.pan"
style="fill:#C5ABAB;fill-opacity:1.000000;stroke:black;stroke-width:0.000000;stroke-opacity:0.000000" />


<rect
width="2.485149"
height="21.428571"
rx="0.000000"
ry="0.000000"
x="530.198020"
y="85.500000"
id="col.pan"
style="fill:#C3AFAF;fill-opacity:1.000000;stroke:black;stroke-width:0.000000;stroke-opacity:0.000000" />


<rect
width="2.485149"
height="21.428571"
rx="0.000000"
ry="0.000000"
x="528.712871"
y="85.500000"
id="col.pan"
style="fill:#C2B3B3;fill-opacity:1.000000;stroke:black;stroke-width:0.000000;stroke-opacity:0.000000" />


<rect
width="2.485149"
height="21.428571"
rx="0.000000"
ry="0.000000"
x="527.227723"
y="85.500000"
id="col.pan"
style="fill:#C1B6B6;fill-opacity:1.000000;stroke:black;stroke-width:0.000000;stroke-opacity:0.000000" />


<rect
width="2.485149"
height="21.428571"
rx="0.000000"
ry="0.000000"
x="525.742574"
y="85.500000"
id="col.pan"
style="fill:#BFBABA;fill-opacity:1.000000;stroke:black;stroke-width:0.000000;stroke-opacity:0.000000" />


<rect
width="2.485149"
height="21.428571"
rx="0.000000"
ry="0.000000"
x="524.257426"
y="85.500000"
id="col.pan"
style="fill:#BEBEBE;fill-opacity:1.000000;stroke:black;stroke-width:0.000000;stroke-opacity:0.000000" />


<rect
width="2.485149"
height="21.428571"
rx="0.000000"
ry="0.000000"
x="522.772277"
y="85.500000"
id="col.pan"
style="fill:#BABFBA;fill-opacity:1.000000;stroke:black;stroke-width:0.000000;stroke-opacity:0.000000" />


<rect
width="2.485149"
height="21.428571"
rx="0.000000"
ry="0.000000"
x="521.287129"
y="85.500000"
id="col.pan"
style="fill:#B6C1B6;fill-opacity:1.000000;stroke:black;stroke-width:0.000000;stroke-opacity:0.000000" />


<rect
width="2.485149"
height="21.428571"
rx="0.000000"
ry="0.000000"
x="519.801980"
y="85.500000"
id="col.pan"
style="fill:#B3C2B3;fill-opacity:1.000000;stroke:black;stroke-width:0.000000;stroke-opacity:0.000000" />


<rect
width="2.485149"
height="21.428571"
rx="0.000000"
ry="0.000000"
x="518.316832"
y="85.500000"
id="col.pan"
style="fill:#AFC3AF;fill-opacity:1.000000;stroke:black;stroke-width:0.000000;stroke-opacity:0.000000" />


<rect
width="2.485149"
height="21.428571"
rx="0.000000"
ry="0.000000"
x="516.831683"
y="85.500000"
id="col.pan"
style="fill:#ABC5AB;fill-opacity:1.000000;stroke:black;stroke-width:0.000000;stroke-opacity:0.000000" />


<rect
width="2.485149"
height="21.428571"
rx="0.000000"
ry="0.000000"
x="515.346535"
y="85.500000"
id="col.pan"
style="fill:#A7C6A7;fill-opacity:1.000000;stroke:black;stroke-width:0.000000;stroke-opacity:0.000000" />


<rect
width="2.485149"
height="21.428571"
rx="0.000000"
ry="0.000000"
x="513.861386"
y="85.500000"
id="col.pan"
style="fill:#A3C7A3;fill-opacity:1.000000;stroke:black;stroke-width:0.000000;stroke-opacity:0.000000" />


<rect
width="2.485149"
height="21.428571"
rx="0.000000"
ry="0.000000"
x="512.376238"
y="85.500000"
id="col.pan"
style="fill:#A0C8A0;fill-opacity:1.000000;stroke:black;stroke-width:0.000000;stroke-opacity:0.000000" />


<rect
width="2.485149"
height="21.428571"
rx="0.000000"
ry="0.000000"
x="510.891089"
y="85.500000"
id="col.pan"
style="fill:#9CCA9C;fill-opacity:1.000000;stroke:black;stroke-width:0.000000;stroke-opacity:0.000000" />


<rect
width="2.485149"
height="21.428571"
rx="0.000000"
ry="0.000000"
x="509.405941"
y="85.500000"
id="col.pan"
style="fill:#98CB98;fill-opacity:1.000000;stroke:black;stroke-width:0.000000;stroke-opacity:0.000000" />


<rect
width="2.485149"
height="21.428571"
rx="0.000000"
ry="0.000000"
x="507.920792"
y="85.500000"
id="col.pan"
style="fill:#94CC94;fill-opacity:1.000000;stroke:black;stroke-width:0.000000;stroke-opacity:0.000000" />


<rect
width="2.485149"
height="21.428571"
rx="0.000000"
ry="0.000000"
x="506.435644"
y="85.500000"
id="col.pan"
style="fill:#90CE90;fill-opacity:1.000000;stroke:black;stroke-width:0.000000;stroke-opacity:0.000000" />


<rect
width="2.485149"
height="21.428571"
rx="0.000000"
ry="0.000000"
x="504.950495"
y="85.500000"
id="col.pan"
style="fill:#8DCF8D;fill-opacity:1.000000;stroke:black;stroke-width:0.000000;stroke-opacity:0.000000" />


<rect
width="2.485149"
height="21.428571"
rx="0.000000"
ry="0.000000"
x="503.465347"
y="85.500000"
id="col.pan"
style="fill:#89D089;fill-opacity:1.000000;stroke:black;stroke-width:0.000000;stroke-opacity:0.000000" />


<rect
width="2.485149"
height="21.428571"
rx="0.000000"
ry="0.000000"
x="501.980198"
y="85.500000"
id="col.pan"
style="fill:#85D285;fill-opacity:1.000000;stroke:black;stroke-width:0.000000;stroke-opacity:0.000000" />


<rect
width="2.485149"
height="21.428571"
rx="0.000000"
ry="0.000000"
x="500.495050"
y="85.500000"
id="col.pan"
style="fill:#81D381;fill-opacity:1.000000;stroke:black;stroke-width:0.000000;stroke-opacity:0.000000" />


<rect
width="2.485149"
height="21.428571"
rx="0.000000"
ry="0.000000"
x="499.009901"
y="85.500000"
id="col.pan"
style="fill:#7DD47D;fill-opacity:1.000000;stroke:black;stroke-width:0.000000;stroke-opacity:0.000000" />


<rect
width="2.485149"
height="21.428571"
rx="0.000000"
ry="0.000000"
x="497.524752"
y="85.500000"
id="col.pan"
style="fill:#7AD57A;fill-opacity:1.000000;stroke:black;stroke-width:0.000000;stroke-opacity:0.000000" />


<rect
width="2.485149"
height="21.428571"
rx="0.000000"
ry="0.000000"
x="496.039604"
y="85.500000"
id="col.pan"
style="fill:#76D776;fill-opacity:1.000000;stroke:black;stroke-width:0.000000;stroke-opacity:0.000000" />


<rect
width="2.485149"
height="21.428571"
rx="0.000000"
ry="0.000000"
x="494.554455"
y="85.500000"
id="col.pan"
style="fill:#72D872;fill-opacity:1.000000;stroke:black;stroke-width:0.000000;stroke-opacity:0.000000" />


<rect
width="2.485149"
height="21.428571"
rx="0.000000"
ry="0.000000"
x="493.069307"
y="85.500000"
id="col.pan"
style="fill:#6ED96E;fill-opacity:1.000000;stroke:black;stroke-width:0.000000;stroke-opacity:0.000000" />


<rect
width="2.485149"
height="21.428571"
rx="0.000000"
ry="0.000000"
x="491.584158"
y="85.500000"
id="col.pan"
style="fill:#6ADB6A;fill-opacity:1.000000;stroke:black;stroke-width:0.000000;stroke-opacity:0.000000" />


<rect
width="2.485149"
height="21.428571"
rx="0.000000"
ry="0.000000"
x="490.099010"
y="85.500000"
id="col.pan"
style="fill:#67DC67;fill-opacity:1.000000;stroke:black;stroke-width:0.000000;stroke-opacity:0.000000" />


<rect
width="2.485149"
height="21.428571"
rx="0.000000"
ry="0.000000"
x="488.613861"
y="85.500000"
id="col.pan"
style="fill:#63DD63;fill-opacity:1.000000;stroke:black;stroke-width:0.000000;stroke-opacity:0.000000" />


<rect
width="2.485149"
height="21.428571"
rx="0.000000"
ry="0.000000"
x="487.128713"
y="85.500000"
id="col.pan"
style="fill:#5FDF5F;fill-opacity:1.000000;stroke:black;stroke-width:0.000000;stroke-opacity:0.000000" />


<rect
width="2.485149"
height="21.428571"
rx="0.000000"
ry="0.000000"
x="485.643564"
y="85.500000"
id="col.pan"
style="fill:#5BE05B;fill-opacity:1.000000;stroke:black;stroke-width:0.000000;stroke-opacity:0.000000" />


<rect
width="2.485149"
height="21.428571"
rx="0.000000"
ry="0.000000"
x="484.158416"
y="85.500000"
id="col.pan"
style="fill:#57E157;fill-opacity:1.000000;stroke:black;stroke-width:0.000000;stroke-opacity:0.000000" />


<rect
width="2.485149"
height="21.428571"
rx="0.000000"
ry="0.000000"
x="482.673267"
y="85.500000"
id="col.pan"
style="fill:#54E254;fill-opacity:1.000000;stroke:black;stroke-width:0.000000;stroke-opacity:0.000000" />


<rect
width="2.485149"
height="21.428571"
rx="0.000000"
ry="0.000000"
x="481.188119"
y="85.500000"
id="col.pan"
style="fill:#50E450;fill-opacity:1.000000;stroke:black;stroke-width:0.000000;stroke-opacity:0.000000" />


<rect
width="2.485149"
height="21.428571"
rx="0.000000"
ry="0.000000"
x="479.702970"
y="85.500000"
id="col.pan"
style="fill:#4CE54C;fill-opacity:1.000000;stroke:black;stroke-width:0.000000;stroke-opacity:0.000000" />


<rect
width="2.485149"
height="21.428571"
rx="0.000000"
ry="0.000000"
x="478.217822"
y="85.500000"
id="col.pan"
style="fill:#48E648;fill-opacity:1.000000;stroke:black;stroke-width:0.000000;stroke-opacity:0.000000" />


<rect
width="2.485149"
height="21.428571"
rx="0.000000"
ry="0.000000"
x="476.732673"
y="85.500000"
id="col.pan"
style="fill:#44E844;fill-opacity:1.000000;stroke:black;stroke-width:0.000000;stroke-opacity:0.000000" />


<rect
width="2.485149"
height="21.428571"
rx="0.000000"
ry="0.000000"
x="475.247525"
y="85.500000"
id="col.pan"
style="fill:#41E941;fill-opacity:1.000000;stroke:black;stroke-width:0.000000;stroke-opacity:0.000000" />


<rect
width="2.485149"
height="21.428571"
rx="0.000000"
ry="0.000000"
x="473.762376"
y="85.500000"
id="col.pan"
style="fill:#3DEA3D;fill-opacity:1.000000;stroke:black;stroke-width:0.000000;stroke-opacity:0.000000" />


<rect
width="2.485149"
height="21.428571"
rx="0.000000"
ry="0.000000"
x="472.277228"
y="85.500000"
id="col.pan"
style="fill:#39EC39;fill-opacity:1.000000;stroke:black;stroke-width:0.000000;stroke-opacity:0.000000" />


<rect
width="2.485149"
height="21.428571"
rx="0.000000"
ry="0.000000"
x="470.792079"
y="85.500000"
id="col.pan"
style="fill:#35ED35;fill-opacity:1.000000;stroke:black;stroke-width:0.000000;stroke-opacity:0.000000" />


<rect
width="2.485149"
height="21.428571"
rx="0.000000"
ry="0.000000"
x="469.306931"
y="85.500000"
id="col.pan"
style="fill:#31EE31;fill-opacity:1.000000;stroke:black;stroke-width:0.000000;stroke-opacity:0.000000" />


<rect
width="2.485149"
height="21.428571"
rx="0.000000"
ry="0.000000"
x="467.821782"
y="85.500000"
id="col.pan"
style="fill:#2EEF2E;fill-opacity:1.000000;stroke:black;stroke-width:0.000000;stroke-opacity:0.000000" />


<rect
width="2.485149"
height="21.428571"
rx="0.000000"
ry="0.000000"
x="466.336634"
y="85.500000"
id="col.pan"
style="fill:#2AF12A;fill-opacity:1.000000;stroke:black;stroke-width:0.000000;stroke-opacity:0.000000" />


<rect
width="2.485149"
height="21.428571"
rx="0.000000"
ry="0.000000"
x="464.851485"
y="85.500000"
id="col.pan"
style="fill:#26F226;fill-opacity:1.000000;stroke:black;stroke-width:0.000000;stroke-opacity:0.000000" />


<rect
width="2.485149"
height="21.428571"
rx="0.000000"
ry="0.000000"
x="463.366337"
y="85.500000"
id="col.pan"
style="fill:#22F322;fill-opacity:1.000000;stroke:black;stroke-width:0.000000;stroke-opacity:0.000000" />


<rect
width="2.485149"
height="21.428571"
rx="0.000000"
ry="0.000000"
x="461.881188"
y="85.500000"
id="col.pan"
style="fill:#1EF51E;fill-opacity:1.000000;stroke:black;stroke-width:0.000000;stroke-opacity:0.000000" />


<rect
width="2.485149"
height="21.428571"
rx="0.000000"
ry="0.000000"
x="460.396040"
y="85.500000"
id="col.pan"
style="fill:#1BF61B;fill-opacity:1.000000;stroke:black;stroke-width:0.000000;stroke-opacity:0.000000" />


<rect
width="2.485149"
height="21.428571"
rx="0.000000"
ry="0.000000"
x="458.910891"
y="85.500000"
id="col.pan"
style="fill:#17F717;fill-opacity:1.000000;stroke:black;stroke-width:0.000000;stroke-opacity:0.000000" />


<rect
width="2.485149"
height="21.428571"
rx="0.000000"
ry="0.000000"
x="457.425743"
y="85.500000"
id="col.pan"
style="fill:#13F913;fill-opacity:1.000000;stroke:black;stroke-width:0.000000;stroke-opacity:0.000000" />


<rect
width="2.485149"
height="21.428571"
rx="0.000000"
ry="0.000000"
x="455.940594"
y="85.500000"
id="col.pan"
style="fill:#0FFA0F;fill-opacity:1.000000;stroke:black;stroke-width:0.000000;stroke-opacity:0.000000" />


<rect
width="2.485149"
height="21.428571"
rx="0.000000"
ry="0.000000"
x="454.455446"
y="85.500000"
id="col.pan"
style="fill:#0BFB0B;fill-opacity:1.000000;stroke:black;stroke-width:0.000000;stroke-opacity:0.000000" />


<rect
width="2.485149"
height="21.428571"
rx="0.000000"
ry="0.000000"
x="452.970297"
y="85.500000"
id="col.pan"
style="fill:#08FC08;fill-opacity:1.000000;stroke:black;stroke-width:0.000000;stroke-opacity:0.000000" />


<rect
width="2.485149"
height="21.428571"
rx="0.000000"
ry="0.000000"
x="451.485149"
y="85.500000"
id="col.pan"
style="fill:#04FE04;fill-opacity:1.000000;stroke:black;stroke-width:0.000000;stroke-opacity:0.000000" />


<rect
width="2.485149"
height="21.428571"
rx="0.000000"
ry="0.000000"
x="450.000000"
y="85.500000"
id="col.pan"
style="fill:#00FF00;fill-opacity:1.000000;stroke:black;stroke-width:0.000000;stroke-opacity:0.000000" />


<line
x1="450" y1="85.5" x2="450" y2="112.285714285714"
id="tick"
style="stroke:black;stroke-width:2.000000;stroke-opacity:1" />


<line
x1="465" y1="85.5" x2="465" y2="112.285714285714"
id="tick"
style="stroke:black;stroke-width:2.000000;stroke-opacity:1" />


<line
x1="480" y1="85.5" x2="480" y2="112.285714285714"
id="tick"
style="stroke:black;stroke-width:2.000000;stroke-opacity:1" />


<line
x1="495" y1="85.5" x2="495" y2="112.285714285714"
id="tick"
style="stroke:black;stroke-width:2.000000;stroke-opacity:1" />


<line
x1="510" y1="85.5" x2="510" y2="112.285714285714"
id="tick"
style="stroke:black;stroke-width:2.000000;stroke-opacity:1" />


<line
x1="525" y1="85.5" x2="525" y2="112.285714285714"
id="tick"
style="stroke:black;stroke-width:2.000000;stroke-opacity:1" />


<line
x1="540" y1="85.5" x2="540" y2="112.285714285714"
id="tick"
style="stroke:black;stroke-width:2.000000;stroke-opacity:1" />


<line
x1="555" y1="85.5" x2="555" y2="112.285714285714"
id="tick"
style="stroke:black;stroke-width:2.000000;stroke-opacity:1" />


<line
x1="570" y1="85.5" x2="570" y2="112.285714285714"
id="tick"
style="stroke:black;stroke-width:2.000000;stroke-opacity:1" />


<line
x1="585" y1="85.5" x2="585" y2="112.285714285714"
id="tick"
style="stroke:black;stroke-width:2.000000;stroke-opacity:1" />


<line
x1="600" y1="85.5" x2="600" y2="112.285714285714"
id="tick"
style="stroke:black;stroke-width:2.000000;stroke-opacity:1" />


<text
x="599.257426"
y="135.500000"
id="color.panel.max.value"
style="font-size:21.428571px;text-anchor:middle;font-family:Arial,Helvetica;alignment-baseline:baseline;stroke.opacity:1;dominant-baseline:baseline"
fill="black"
>
1</text>


<text
x="450.742574"
y="135.500000"
id="color.panel.low.value"
style="font-size:21.428571px;text-anchor:middle;font-family:Arial,Helvetica;alignment-baseline:baseline;stroke.opacity:1;dominant-baseline:baseline"
fill="black"
>
-1</text>


<text
x="526.485149"
y="135.500000"
id="color.panel.mid.value"
style="font-size:21.428571px;text-anchor:middle;font-family:Arial,Helvetica;alignment-baseline:baseline;stroke.opacity:1;dominant-baseline:baseline"
fill="black"
>
0</text>


</svg>
