<?xml version="1.0" encoding="UTF-8"?>
<svg width="728.075301" height="587.400056"
xmlns="http://www.w3.org/2000/svg" xmlns:svg="http://www.w3.org/2000/svg"
>
<metadata id="metadata7">image/svg+xml</metadata>



<path
d="M 317.075301144712 416.900055954376 317.075301144712 456.900055954376 322.575301144712 462.400055954376 392.575301144712 462.400055954376 398.075301144712 456.900055954376 398.075301144712 416.900055954376 392.575301144712 411.400055954376 322.575301144712 411.400055954376 Z"
id="wikipathways_WP186_f269e"
style="fill:white;fill-opacity:0.600000;stroke-width:1;stroke:black;stroke-opacity:1.000000"
transform = "rotate(0.000000 0.000000 0.000000)"
/>


<text
x="357.575301"
y="403.400056"
id="wikipathways_WP186_f269e"
style="font-size:18.000000px;text-anchor:middle;font-family:Arial,Helvetica;alignment-baseline:baseline;stroke.opacity:1;dominant-baseline:baseline"
fill="black"
>
noname</text>


<path
d="M 285.420958510272 258.371317369969 285.420958510272 298.371317369969 290.920958510272 303.871317369969 360.920958510272 303.871317369969 366.420958510272 298.371317369969 366.420958510272 258.371317369969 360.920958510272 252.871317369969 290.920958510272 252.871317369969 Z"
id="wikipathways_WP186_e3c89"
style="fill:white;fill-opacity:0.600000;stroke-width:1;stroke:black;stroke-opacity:1.000000"
transform = "rotate(0.000000 0.000000 0.000000)"
/>


<text
x="325.920959"
y="244.871317"
id="wikipathways_WP186_e3c89"
style="font-size:18.000000px;text-anchor:middle;font-family:Arial,Helvetica;alignment-baseline:baseline;stroke.opacity:1;dominant-baseline:baseline"
fill="black"
>
noname</text>


<path
d="M 180.75 306 180.75 443.5 186.25 449 256.25 449 261.75 443.5 261.75 306 256.25 300.5 186.25 300.5 Z"
id="wikipathways_WP186_a8e9c"
style="fill:white;fill-opacity:0.600000;stroke-width:1;stroke:black;stroke-opacity:1.000000"
transform = "rotate(0.000000 0.000000 0.000000)"
/>


<text
x="221.250000"
y="292.500000"
id="wikipathways_WP186_a8e9c"
style="font-size:18.000000px;text-anchor:middle;font-family:Arial,Helvetica;alignment-baseline:baseline;stroke.opacity:1;dominant-baseline:baseline"
fill="black"
>
noname</text>



<rect
width="26.666667"
height="26.666667"
rx="0.000000"
ry="0.000000"
x="265.000000"
y="150.000000"
id="wikipathways_WP186_a3570"
style="fill:white;fill-opacity:0.600000;stroke:black;stroke-width:1.000000;stroke-opacity:1.000000" />



<text
x="278.333333"
y="171.333333"
id="wikipathways_WP186_a3570"
style="font-size:24.000000px;text-anchor:middle;font-family:Arial,Helvetica;alignment-baseline:baseline;stroke.opacity:1;dominant-baseline:baseline"
fill="black"
>
\\</text>



<ellipse
rx="35.000000"
ry="20.000000"
cx="357.575301"
cy="436.900056"
id="wikipathways_WP186_e60_wikipathways_WP186_f269e"
style="fill:#00FF00;fill-opacity:0.600000;stroke:black;stroke-width:1.000000;stroke-opacity:0.000000" />


<path
d="M 340.075301144712 454.220564030065 A 35 20 1 1 0 340.075301144712 419.579547878687"
id="wikipathways_WP186_e60_wikipathways_WP186_f269e"
style="fill:#13F813;fill-opacity:0.600000;stroke-width:1;stroke:black;stroke-opacity:0.000000"
transform = "rotate(0.000000 0.000000 0.000000)"
/>


<path
d="M 357.575301144712 456.900055954376 A 35 20 1 1 0 357.575301144712 416.900055954376"
id="wikipathways_WP186_e60_wikipathways_WP186_f269e"
style="fill:white;fill-opacity:0.600000;stroke-width:1;stroke:black;stroke-opacity:0.000000"
transform = "rotate(0.000000 0.000000 0.000000)"
/>


<path
d="M 357.575301144712 456.900055954376 A 35 20 1 1 0 357.575301144712 416.900055954376"
id="wikipathways_WP186_e60_wikipathways_WP186_f269e"
style="fill:#00FF00;fill-opacity:0.600000;stroke-width:1;stroke:black;stroke-opacity:0.000000"
transform = "rotate(0.000000 0.000000 0.000000)"
/>


<path
d="M 375.075301144712 454.220564030065 A 35 20 1 0 0 375.075301144712 419.579547878687"
id="wikipathways_WP186_e60_wikipathways_WP186_f269e"
style="fill:white;fill-opacity:0.600000;stroke-width:1;stroke:black;stroke-opacity:0.000000"
transform = "rotate(0.000000 0.000000 0.000000)"
/>


<path
d="M 375.075301144712 454.220564030065 A 35 20 1 0 0 375.075301144712 419.579547878687"
id="wikipathways_WP186_e60_wikipathways_WP186_f269e"
style="fill:#B1C2B1;fill-opacity:0.600000;stroke-width:1;stroke:black;stroke-opacity:0.000000"
transform = "rotate(0.000000 0.000000 0.000000)"
/>


<path
d="M 392.575301144712 436.900055954376 A 35 20 1 0 0 392.575301144712 436.900055954376"
id="wikipathways_WP186_e60_wikipathways_WP186_f269e"
style="fill:white;fill-opacity:0.600000;stroke-width:1;stroke:black;stroke-opacity:0.000000"
transform = "rotate(0.000000 0.000000 0.000000)"
/>


<ellipse
rx="35.000000"
ry="20.000000"
cx="357.575301"
cy="436.900056"
id="wikipathways_WP186_e60_wikipathways_WP186_f269e"
style="fill:white;fill-opacity:0.000000;stroke:black;stroke-width:1.000000;stroke-opacity:1.000000" />


<text
x="357.575301"
y="442.900056"
id="wikipathways_WP186_e60_wikipathways_WP186_f269e"
style="font-size:18.000000px;text-anchor:middle;font-family:Arial,Helvetica;alignment-baseline:baseline;stroke.opacity:1;dominant-baseline:baseline"
fill="black"
>
noname</text>



<ellipse
rx="35.000000"
ry="20.000000"
cx="325.920959"
cy="278.371317"
id="wikipathways_WP186_f9a_wikipathways_WP186_e3c89"
style="fill:#FB0B0B;fill-opacity:0.600000;stroke:black;stroke-width:1.000000;stroke-opacity:0.000000" />


<path
d="M 308.420958510272 295.691825445658 A 35 20 1 1 0 308.420958510272 261.05080929428"
id="wikipathways_WP186_f9a_wikipathways_WP186_e3c89"
style="fill:#F61A1A;fill-opacity:0.600000;stroke-width:1;stroke:black;stroke-opacity:0.000000"
transform = "rotate(0.000000 0.000000 0.000000)"
/>


<path
d="M 325.920958510272 298.371317369969 A 35 20 1 1 0 325.920958510272 258.371317369969"
id="wikipathways_WP186_f9a_wikipathways_WP186_e3c89"
style="fill:white;fill-opacity:0.600000;stroke-width:1;stroke:black;stroke-opacity:0.000000"
transform = "rotate(0.000000 0.000000 0.000000)"
/>


<path
d="M 325.920958510272 298.371317369969 A 35 20 1 1 0 325.920958510272 258.371317369969"
id="wikipathways_WP186_f9a_wikipathways_WP186_e3c89"
style="fill:#FF0000;fill-opacity:0.600000;stroke-width:1;stroke:black;stroke-opacity:0.000000"
transform = "rotate(0.000000 0.000000 0.000000)"
/>


<path
d="M 343.420958510272 295.691825445658 A 35 20 1 0 0 343.420958510272 261.05080929428"
id="wikipathways_WP186_f9a_wikipathways_WP186_e3c89"
style="fill:white;fill-opacity:0.600000;stroke-width:1;stroke:black;stroke-opacity:0.000000"
transform = "rotate(0.000000 0.000000 0.000000)"
/>


<path
d="M 343.420958510272 295.691825445658 A 35 20 1 0 0 343.420958510272 261.05080929428"
id="wikipathways_WP186_f9a_wikipathways_WP186_e3c89"
style="fill:#C2B2B2;fill-opacity:0.600000;stroke-width:1;stroke:black;stroke-opacity:0.000000"
transform = "rotate(0.000000 0.000000 0.000000)"
/>


<path
d="M 360.920958510272 278.371317369969 A 35 20 1 0 0 360.920958510272 278.371317369969"
id="wikipathways_WP186_f9a_wikipathways_WP186_e3c89"
style="fill:white;fill-opacity:0.600000;stroke-width:1;stroke:black;stroke-opacity:0.000000"
transform = "rotate(0.000000 0.000000 0.000000)"
/>


<ellipse
rx="35.000000"
ry="20.000000"
cx="325.920959"
cy="278.371317"
id="wikipathways_WP186_f9a_wikipathways_WP186_e3c89"
style="fill:white;fill-opacity:0.000000;stroke:black;stroke-width:1.000000;stroke-opacity:1.000000" />


<text
x="325.920959"
y="284.371317"
id="wikipathways_WP186_f9a_wikipathways_WP186_e3c89"
style="font-size:18.000000px;text-anchor:middle;font-family:Arial,Helvetica;alignment-baseline:baseline;stroke.opacity:1;dominant-baseline:baseline"
fill="black"
>
noname</text>



<ellipse
rx="35.000000"
ry="20.000000"
cx="221.250000"
cy="326.000000"
id="wikipathways_WP186_bc3_wikipathways_WP186_a8e9c"
style="fill:#DD6363;fill-opacity:0.600000;stroke:black;stroke-width:1.000000;stroke-opacity:0.000000" />


<path
d="M 203.75 343.320508075689 A 35 20 1 1 0 203.75 308.679491924311"
id="wikipathways_WP186_bc3_wikipathways_WP186_a8e9c"
style="fill:#23F323;fill-opacity:0.600000;stroke-width:1;stroke:black;stroke-opacity:0.000000"
transform = "rotate(0.000000 0.000000 0.000000)"
/>


<path
d="M 221.25 346 A 35 20 1 1 0 221.25 306"
id="wikipathways_WP186_bc3_wikipathways_WP186_a8e9c"
style="fill:white;fill-opacity:0.600000;stroke-width:1;stroke:black;stroke-opacity:0.000000"
transform = "rotate(0.000000 0.000000 0.000000)"
/>


<path
d="M 221.25 346 A 35 20 1 1 0 221.25 306"
id="wikipathways_WP186_bc3_wikipathways_WP186_a8e9c"
style="fill:#9CC99C;fill-opacity:0.600000;stroke-width:1;stroke:black;stroke-opacity:0.000000"
transform = "rotate(0.000000 0.000000 0.000000)"
/>


<path
d="M 238.75 343.320508075689 A 35 20 1 0 0 238.75 308.679491924311"
id="wikipathways_WP186_bc3_wikipathways_WP186_a8e9c"
style="fill:white;fill-opacity:0.600000;stroke-width:1;stroke:black;stroke-opacity:0.000000"
transform = "rotate(0.000000 0.000000 0.000000)"
/>


<path
d="M 238.75 343.320508075689 A 35 20 1 0 0 238.75 308.679491924311"
id="wikipathways_WP186_bc3_wikipathways_WP186_a8e9c"
style="fill:#FF0000;fill-opacity:0.600000;stroke-width:1;stroke:black;stroke-opacity:0.000000"
transform = "rotate(0.000000 0.000000 0.000000)"
/>


<path
d="M 256.25 326 A 35 20 1 0 0 256.25 326"
id="wikipathways_WP186_bc3_wikipathways_WP186_a8e9c"
style="fill:white;fill-opacity:0.600000;stroke-width:1;stroke:black;stroke-opacity:0.000000"
transform = "rotate(0.000000 0.000000 0.000000)"
/>


<ellipse
rx="35.000000"
ry="20.000000"
cx="221.250000"
cy="326.000000"
id="wikipathways_WP186_bc3_wikipathways_WP186_a8e9c"
style="fill:white;fill-opacity:0.000000;stroke:black;stroke-width:1.000000;stroke-opacity:1.000000" />


<text
x="221.250000"
y="332.000000"
id="wikipathways_WP186_bc3_wikipathways_WP186_a8e9c"
style="font-size:18.000000px;text-anchor:middle;font-family:Arial,Helvetica;alignment-baseline:baseline;stroke.opacity:1;dominant-baseline:baseline"
fill="black"
>
noname</text>



<ellipse
rx="35.000000"
ry="20.000000"
cx="221.250000"
cy="374.750000"
id="wikipathways_WP186_edb_wikipathways_WP186_a8e9c"
style="fill:#F61A1A;fill-opacity:0.600000;stroke:black;stroke-width:1.000000;stroke-opacity:0.000000" />


<path
d="M 203.75 392.070508075689 A 35 20 1 1 0 203.75 357.429491924311"
id="wikipathways_WP186_edb_wikipathways_WP186_a8e9c"
style="fill:#CD9292;fill-opacity:0.600000;stroke-width:1;stroke:black;stroke-opacity:0.000000"
transform = "rotate(0.000000 0.000000 0.000000)"
/>


<path
d="M 221.25 394.75 A 35 20 1 1 0 221.25 354.75"
id="wikipathways_WP186_edb_wikipathways_WP186_a8e9c"
style="fill:white;fill-opacity:0.600000;stroke-width:1;stroke:black;stroke-opacity:0.000000"
transform = "rotate(0.000000 0.000000 0.000000)"
/>


<path
d="M 221.25 394.75 A 35 20 1 1 0 221.25 354.75"
id="wikipathways_WP186_edb_wikipathways_WP186_a8e9c"
style="fill:#E54B4B;fill-opacity:0.600000;stroke-width:1;stroke:black;stroke-opacity:0.000000"
transform = "rotate(0.000000 0.000000 0.000000)"
/>


<path
d="M 238.75 392.070508075689 A 35 20 1 0 0 238.75 357.429491924311"
id="wikipathways_WP186_edb_wikipathways_WP186_a8e9c"
style="fill:white;fill-opacity:0.600000;stroke-width:1;stroke:black;stroke-opacity:0.000000"
transform = "rotate(0.000000 0.000000 0.000000)"
/>


<path
d="M 238.75 392.070508075689 A 35 20 1 0 0 238.75 357.429491924311"
id="wikipathways_WP186_edb_wikipathways_WP186_a8e9c"
style="fill:#DE6161;fill-opacity:0.600000;stroke-width:1;stroke:black;stroke-opacity:0.000000"
transform = "rotate(0.000000 0.000000 0.000000)"
/>


<path
d="M 256.25 374.75 A 35 20 1 0 0 256.25 374.75"
id="wikipathways_WP186_edb_wikipathways_WP186_a8e9c"
style="fill:white;fill-opacity:0.600000;stroke-width:1;stroke:black;stroke-opacity:0.000000"
transform = "rotate(0.000000 0.000000 0.000000)"
/>


<ellipse
rx="35.000000"
ry="20.000000"
cx="221.250000"
cy="374.750000"
id="wikipathways_WP186_edb_wikipathways_WP186_a8e9c"
style="fill:white;fill-opacity:0.000000;stroke:black;stroke-width:1.000000;stroke-opacity:1.000000" />



<text
x="221.250000"
y="371.750000"
id="wikipathways_WP186_edb_wikipathways_WP186_a8e9c"
style="font-size:18.000000px;text-anchor:middle;font-family:Arial,Helvetica;alignment-baseline:baseline;stroke.opacity:1;dominant-baseline:baseline"
fill="black"
>
MRN com-</text>


<text
x="221.250000"
y="389.750000"
id="wikipathways_WP186_edb_wikipathways_WP186_a8e9c"
style="font-size:18.000000px;text-anchor:middle;font-family:Arial,Helvetica;alignment-baseline:baseline;stroke.opacity:1;dominant-baseline:baseline"
fill="black"
>
plex</text>



<ellipse
rx="35.000000"
ry="20.000000"
cx="221.250000"
cy="423.500000"
id="wikipathways_WP186_db1_wikipathways_WP186_a8e9c"
style="fill:#25F225;fill-opacity:0.600000;stroke:black;stroke-width:1.000000;stroke-opacity:0.000000" />


<path
d="M 203.75 440.820508075689 A 35 20 1 1 0 203.75 406.179491924311"
id="wikipathways_WP186_db1_wikipathways_WP186_a8e9c"
style="fill:#E35151;fill-opacity:0.600000;stroke-width:1;stroke:black;stroke-opacity:0.000000"
transform = "rotate(0.000000 0.000000 0.000000)"
/>


<path
d="M 221.25 443.5 A 35 20 1 1 0 221.25 403.5"
id="wikipathways_WP186_db1_wikipathways_WP186_a8e9c"
style="fill:white;fill-opacity:0.600000;stroke-width:1;stroke:black;stroke-opacity:0.000000"
transform = "rotate(0.000000 0.000000 0.000000)"
/>


<path
d="M 221.25 443.5 A 35 20 1 1 0 221.25 403.5"
id="wikipathways_WP186_db1_wikipathways_WP186_a8e9c"
style="fill:#A7C6A7;fill-opacity:0.600000;stroke-width:1;stroke:black;stroke-opacity:0.000000"
transform = "rotate(0.000000 0.000000 0.000000)"
/>


<path
d="M 238.75 440.820508075689 A 35 20 1 0 0 238.75 406.179491924311"
id="wikipathways_WP186_db1_wikipathways_WP186_a8e9c"
style="fill:white;fill-opacity:0.600000;stroke-width:1;stroke:black;stroke-opacity:0.000000"
transform = "rotate(0.000000 0.000000 0.000000)"
/>


<path
d="M 238.75 440.820508075689 A 35 20 1 0 0 238.75 406.179491924311"
id="wikipathways_WP186_db1_wikipathways_WP186_a8e9c"
style="fill:#12F912;fill-opacity:0.600000;stroke-width:1;stroke:black;stroke-opacity:0.000000"
transform = "rotate(0.000000 0.000000 0.000000)"
/>


<path
d="M 256.25 423.5 A 35 20 1 0 0 256.25 423.5"
id="wikipathways_WP186_db1_wikipathways_WP186_a8e9c"
style="fill:white;fill-opacity:0.600000;stroke-width:1;stroke:black;stroke-opacity:0.000000"
transform = "rotate(0.000000 0.000000 0.000000)"
/>


<ellipse
rx="35.000000"
ry="20.000000"
cx="221.250000"
cy="423.500000"
id="wikipathways_WP186_db1_wikipathways_WP186_a8e9c"
style="fill:white;fill-opacity:0.000000;stroke:black;stroke-width:1.000000;stroke-opacity:1.000000" />


<text
x="221.250000"
y="429.500000"
id="wikipathways_WP186_db1_wikipathways_WP186_a8e9c"
style="font-size:18.000000px;text-anchor:middle;font-family:Arial,Helvetica;alignment-baseline:baseline;stroke.opacity:1;dominant-baseline:baseline"
fill="black"
>
noname</text>


<rect
width="26.666667"
height="26.666667"
rx="0.000000"
ry="0.000000"
x="100.000000"
y="315.000000"
id="wikipathways_WP186_bdaba"
style="fill:white;fill-opacity:0.600000;stroke:black;stroke-width:1.000000;stroke-opacity:1.000000" />



<text
x="113.333333"
y="336.333333"
id="wikipathways_WP186_bdaba"
style="font-size:24.000000px;text-anchor:middle;font-family:Arial,Helvetica;alignment-baseline:baseline;stroke.opacity:1;dominant-baseline:baseline"
fill="black"
>
\\</text>


<rect
width="26.666667"
height="26.666667"
rx="0.000000"
ry="0.000000"
x="148.327381"
y="198.327381"
id="wikipathways_WP186_ab619"
style="fill:white;fill-opacity:0.600000;stroke:black;stroke-width:1.000000;stroke-opacity:1.000000" />



<text
x="161.660714"
y="219.660714"
id="wikipathways_WP186_ab619"
style="font-size:24.000000px;text-anchor:middle;font-family:Arial,Helvetica;alignment-baseline:baseline;stroke.opacity:1;dominant-baseline:baseline"
fill="black"
>
\\</text>




<path d="M285.000000 279.000000 C 254.000000 281.000000, 213.000000 286.000000,177.000000 297.000000" stroke="black"  fill="transparent"/>
<path d="M177.000000 297.000000 C 159.000000 302.000000, 139.000000 312.000000,127.000000 319.000000" stroke="black"  fill="transparent"/>

<line
x1="254" y1="281" x2="285" y2="279"
id="0"
style="stroke:black;stroke-width:1.000000;stroke-opacity:0" />


<line
x1="139" y1="312" x2="127" y2="319"
id="wikipathways_WP186_e3c89--to--wikipathways_WP186_bdaba-input"
style="stroke:black;stroke-width:1.000000;stroke-opacity:0" />


<polygon
points = "127,319 113.8,314.6 118.2,319 113.8,323.4"
id="line"
style="fill:black; stroke:#000000; stroke-width:1"
transform = "rotate(149.743563 127.000000 319.000000)"
/>


<path d="M193.000000 299.000000 C 183.000000 271.000000, 172.000000 241.000000,166.000000 225.000000" stroke="black"  fill="transparent"/>

<line
x1="183" y1="271" x2="193" y2="299"
id="0"
style="stroke:black;stroke-width:1.000000;stroke-opacity:0" />


<line
x1="172" y1="241" x2="166" y2="225"
id="wikipathways_WP186_a8e9c--to--wikipathways_WP186_ab619-input"
style="stroke:black;stroke-width:1.000000;stroke-opacity:0" />


<polygon
points = "166,225 152.8,220.6 157.2,225 152.8,229.4"
id="line"
style="fill:black; stroke:#000000; stroke-width:1"
transform = "rotate(249.443955 166.000000 225.000000)"
/>


<path d="M276.000000 177.000000 C 273.000000 203.000000, 269.000000 260.000000,282.000000 307.000000" stroke="black"  fill="transparent"/>
<path d="M282.000000 307.000000 C 293.000000 346.000000, 319.000000 386.000000,337.000000 411.000000" stroke="black"  fill="transparent"/>

<line
x1="319" y1="386" x2="337" y2="411"
id="0"
style="stroke:black;stroke-width:1.000000;stroke-opacity:0" />


<line
x1="273" y1="203" x2="276" y2="177"
id="wikipathways_WP186_f269e--to--wikipathways_WP186_a3570-input"
style="stroke:black;stroke-width:1.000000;stroke-opacity:0" />


<polygon
points = "276,177 262.8,172.6 267.2,177 262.8,181.4"
id="line"
style="fill:black; stroke:#000000; stroke-width:1"
transform = "rotate(-83.418055 276.000000 177.000000)"
/>





</svg>
