<?xml version="1.0" encoding="UTF-8"?>
<svg width="916.348204" height="859.328706"
xmlns="http://www.w3.org/2000/svg" xmlns:svg="http://www.w3.org/2000/svg"
>
<metadata id="metadata7">image/svg+xml</metadata>

<rect
width="203.943909"
height="308.453922"
rx="11.000000"
ry="11.000000"
x="382.404295"
y="313.735695"
id="nucleus"
style="fill:white;fill-opacity:0.900000;stroke:black;stroke-width:5.000000;stroke-opacity:1.000000" />


<text
x="484.376249"
y="305.735695"
id="nucleus"
style="font-size:24.000000px;text-anchor:middle;font-family:Arial,Helvetica;alignment-baseline:baseline;stroke.opacity:1;dominant-baseline:baseline"
fill="black"
>
nucleus</text>





<ellipse
rx="35.000000"
ry="20.000000"
cx="245.171588"
cy="177.000000"
id="SmallMolecule_ac025877f7fc38d8d556d4192efe87d5"
style="fill:#FFFF00;fill-opacity:0.600000;stroke:black;stroke-width:1.000000;stroke-opacity:0.000000" />


<path
d="M 227.671587541876 194.320508075689 A 35 20 1 1 0 227.671587541876 159.679491924311"
id="SmallMolecule_ac025877f7fc38d8d556d4192efe87d5"
style="fill:#0000FF;fill-opacity:0.600000;stroke-width:1;stroke:black;stroke-opacity:0.000000"
transform = "rotate(0.000000 0.000000 0.000000)"
/>


<path
d="M 245.171587541876 197 A 35 20 1 1 0 245.171587541876 157"
id="SmallMolecule_ac025877f7fc38d8d556d4192efe87d5"
style="fill:white;fill-opacity:0.600000;stroke-width:1;stroke:black;stroke-opacity:0.000000"
transform = "rotate(0.000000 0.000000 0.000000)"
/>


<path
d="M 245.171587541876 197 A 35 20 1 1 0 245.171587541876 157"
id="SmallMolecule_ac025877f7fc38d8d556d4192efe87d5"
style="fill:#FFFF00;fill-opacity:0.600000;stroke-width:1;stroke:black;stroke-opacity:0.000000"
transform = "rotate(0.000000 0.000000 0.000000)"
/>


<path
d="M 262.671587541876 194.320508075689 A 35 20 1 0 0 262.671587541876 159.679491924311"
id="SmallMolecule_ac025877f7fc38d8d556d4192efe87d5"
style="fill:white;fill-opacity:0.600000;stroke-width:1;stroke:black;stroke-opacity:0.000000"
transform = "rotate(0.000000 0.000000 0.000000)"
/>


<path
d="M 262.671587541876 194.320508075689 A 35 20 1 0 0 262.671587541876 159.679491924311"
id="SmallMolecule_ac025877f7fc38d8d556d4192efe87d5"
style="fill:#FFFF00;fill-opacity:0.600000;stroke-width:1;stroke:black;stroke-opacity:0.000000"
transform = "rotate(0.000000 0.000000 0.000000)"
/>


<path
d="M 280.171587541876 177.000000817435 A 35 20 1 0 0 280.171587541876 176.999999182565"
id="SmallMolecule_ac025877f7fc38d8d556d4192efe87d5"
style="fill:white;fill-opacity:0.600000;stroke-width:1;stroke:black;stroke-opacity:0.000000"
transform = "rotate(0.000000 0.000000 0.000000)"
/>


<ellipse
rx="35.000000"
ry="20.000000"
cx="245.171588"
cy="177.000000"
id="SmallMolecule_ac025877f7fc38d8d556d4192efe87d5"
style="fill:white;fill-opacity:0.000000;stroke:black;stroke-width:1.000000;stroke-opacity:1.000000" />



<text
x="245.171588"
y="165.000000"
id="SmallMolecule_ac025877f7fc38d8d556d4192efe87d5"
style="font-size:18.000000px;text-anchor:middle;font-family:Arial,Helvetica;alignment-baseline:baseline;stroke.opacity:1;dominant-baseline:baseline"
fill="black"
>
Adenosi-</text>


<text
x="245.171588"
y="183.000000"
id="SmallMolecule_ac025877f7fc38d8d556d4192efe87d5"
style="font-size:18.000000px;text-anchor:middle;font-family:Arial,Helvetica;alignment-baseline:baseline;stroke.opacity:1;dominant-baseline:baseline"
fill="black"
>
ne mono-</text>


<text
x="245.171588"
y="201.000000"
id="SmallMolecule_ac025877f7fc38d8d556d4192efe87d5"
style="font-size:18.000000px;text-anchor:middle;font-family:Arial,Helvetica;alignment-baseline:baseline;stroke.opacity:1;dominant-baseline:baseline"
fill="black"
>
phosphate</text>



<ellipse
rx="35.000000"
ry="20.000000"
cx="436.939975"
cy="714.328706"
id="SmallMolecule_1c1428de82be4f3155b857dd697fc9e4"
style="fill:#0000FF;fill-opacity:0.600000;stroke:black;stroke-width:1.000000;stroke-opacity:0.000000" />


<path
d="M 419.439975071328 731.649214353014 A 35 20 1 1 0 419.439975071328 697.008198201636"
id="SmallMolecule_1c1428de82be4f3155b857dd697fc9e4"
style="fill:#FFFF00;fill-opacity:0.600000;stroke-width:1;stroke:black;stroke-opacity:0.000000"
transform = "rotate(0.000000 0.000000 0.000000)"
/>


<path
d="M 436.939975071328 734.328706277325 A 35 20 1 1 0 436.939975071328 694.328706277325"
id="SmallMolecule_1c1428de82be4f3155b857dd697fc9e4"
style="fill:white;fill-opacity:0.600000;stroke-width:1;stroke:black;stroke-opacity:0.000000"
transform = "rotate(0.000000 0.000000 0.000000)"
/>


<path
d="M 436.939975071328 734.328706277325 A 35 20 1 1 0 436.939975071328 694.328706277325"
id="SmallMolecule_1c1428de82be4f3155b857dd697fc9e4"
style="fill:#0000FF;fill-opacity:0.600000;stroke-width:1;stroke:black;stroke-opacity:0.000000"
transform = "rotate(0.000000 0.000000 0.000000)"
/>


<path
d="M 454.439975071328 731.649214353014 A 35 20 1 0 0 454.439975071328 697.008198201636"
id="SmallMolecule_1c1428de82be4f3155b857dd697fc9e4"
style="fill:white;fill-opacity:0.600000;stroke-width:1;stroke:black;stroke-opacity:0.000000"
transform = "rotate(0.000000 0.000000 0.000000)"
/>


<path
d="M 454.439975071328 731.649214353014 A 35 20 1 0 0 454.439975071328 697.008198201636"
id="SmallMolecule_1c1428de82be4f3155b857dd697fc9e4"
style="fill:#0000FF;fill-opacity:0.600000;stroke-width:1;stroke:black;stroke-opacity:0.000000"
transform = "rotate(0.000000 0.000000 0.000000)"
/>


<path
d="M 471.939975071328 714.328706277325 A 35 20 1 0 0 471.939975071328 714.328706277325"
id="SmallMolecule_1c1428de82be4f3155b857dd697fc9e4"
style="fill:white;fill-opacity:0.600000;stroke-width:1;stroke:black;stroke-opacity:0.000000"
transform = "rotate(0.000000 0.000000 0.000000)"
/>


<ellipse
rx="35.000000"
ry="20.000000"
cx="436.939975"
cy="714.328706"
id="SmallMolecule_1c1428de82be4f3155b857dd697fc9e4"
style="fill:white;fill-opacity:0.000000;stroke:black;stroke-width:1.000000;stroke-opacity:1.000000" />



<text
x="436.939975"
y="702.328706"
id="SmallMolecule_1c1428de82be4f3155b857dd697fc9e4"
style="font-size:18.000000px;text-anchor:middle;font-family:Arial,Helvetica;alignment-baseline:baseline;stroke.opacity:1;dominant-baseline:baseline"
fill="black"
>
Adenosi-</text>


<text
x="436.939975"
y="720.328706"
id="SmallMolecule_1c1428de82be4f3155b857dd697fc9e4"
style="font-size:18.000000px;text-anchor:middle;font-family:Arial,Helvetica;alignment-baseline:baseline;stroke.opacity:1;dominant-baseline:baseline"
fill="black"
>
ne trip-</text>


<text
x="436.939975"
y="738.328706"
id="SmallMolecule_1c1428de82be4f3155b857dd697fc9e4"
style="font-size:18.000000px;text-anchor:middle;font-family:Arial,Helvetica;alignment-baseline:baseline;stroke.opacity:1;dominant-baseline:baseline"
fill="black"
>
hosphate</text>



<ellipse
rx="35.000000"
ry="20.000000"
cx="135.000000"
cy="319.062535"
id="SmallMolecule_960fe7c554a70c8d78b872b975dfb866"
style="fill:#FFFF00;fill-opacity:0.600000;stroke:black;stroke-width:1.000000;stroke-opacity:0.000000" />


<path
d="M 117.5 336.38304291448 A 35 20 1 1 0 117.5 301.742026763102"
id="SmallMolecule_960fe7c554a70c8d78b872b975dfb866"
style="fill:#0000FF;fill-opacity:0.600000;stroke-width:1;stroke:black;stroke-opacity:0.000000"
transform = "rotate(0.000000 0.000000 0.000000)"
/>


<path
d="M 135 339.062534838791 A 35 20 1 1 0 135 299.062534838791"
id="SmallMolecule_960fe7c554a70c8d78b872b975dfb866"
style="fill:white;fill-opacity:0.600000;stroke-width:1;stroke:black;stroke-opacity:0.000000"
transform = "rotate(0.000000 0.000000 0.000000)"
/>


<path
d="M 135 339.062534838791 A 35 20 1 1 0 135 299.062534838791"
id="SmallMolecule_960fe7c554a70c8d78b872b975dfb866"
style="fill:#FFFF00;fill-opacity:0.600000;stroke-width:1;stroke:black;stroke-opacity:0.000000"
transform = "rotate(0.000000 0.000000 0.000000)"
/>


<path
d="M 152.5 336.38304291448 A 35 20 1 0 0 152.5 301.742026763102"
id="SmallMolecule_960fe7c554a70c8d78b872b975dfb866"
style="fill:white;fill-opacity:0.600000;stroke-width:1;stroke:black;stroke-opacity:0.000000"
transform = "rotate(0.000000 0.000000 0.000000)"
/>


<path
d="M 152.5 336.38304291448 A 35 20 1 0 0 152.5 301.742026763102"
id="SmallMolecule_960fe7c554a70c8d78b872b975dfb866"
style="fill:#FFFF00;fill-opacity:0.600000;stroke-width:1;stroke:black;stroke-opacity:0.000000"
transform = "rotate(0.000000 0.000000 0.000000)"
/>


<path
d="M 170 319.062534838791 A 35 20 1 0 0 170 319.062534838791"
id="SmallMolecule_960fe7c554a70c8d78b872b975dfb866"
style="fill:white;fill-opacity:0.600000;stroke-width:1;stroke:black;stroke-opacity:0.000000"
transform = "rotate(0.000000 0.000000 0.000000)"
/>


<ellipse
rx="35.000000"
ry="20.000000"
cx="135.000000"
cy="319.062535"
id="SmallMolecule_960fe7c554a70c8d78b872b975dfb866"
style="fill:white;fill-opacity:0.000000;stroke:black;stroke-width:1.000000;stroke-opacity:1.000000" />



<text
x="135.000000"
y="316.062535"
id="SmallMolecule_960fe7c554a70c8d78b872b975dfb866"
style="font-size:18.000000px;text-anchor:middle;font-family:Arial,Helvetica;alignment-baseline:baseline;stroke.opacity:1;dominant-baseline:baseline"
fill="black"
>
Pyropho-</text>


<text
x="135.000000"
y="334.062535"
id="SmallMolecule_960fe7c554a70c8d78b872b975dfb866"
style="font-size:18.000000px;text-anchor:middle;font-family:Arial,Helvetica;alignment-baseline:baseline;stroke.opacity:1;dominant-baseline:baseline"
fill="black"
>
sphate</text>


<rect
width="26.666667"
height="26.666667"
rx="0.000000"
ry="0.000000"
x="304.207093"
y="443.835789"
id="BiochemicalReaction_0e8e0fd70a2e9fdf184f20395bd6066d_LEFT_TO_RIGHT"
style="fill:white;fill-opacity:0.600000;stroke:black;stroke-width:1.000000;stroke-opacity:1.000000" />




<ellipse
rx="35.000000"
ry="20.000000"
cx="540.348204"
cy="584.189617"
id="SmallMolecule_0c765cf46107dd580abaf6fb9b7603c4"
style="fill:#0000FF;fill-opacity:0.600000;stroke:black;stroke-width:1.000000;stroke-opacity:0.000000" />


<path
d="M 522.848203661845 601.51012525579 A 35 20 1 1 0 522.848203661845 566.869109104412"
id="SmallMolecule_0c765cf46107dd580abaf6fb9b7603c4"
style="fill:#FFFF00;fill-opacity:0.600000;stroke-width:1;stroke:black;stroke-opacity:0.000000"
transform = "rotate(0.000000 0.000000 0.000000)"
/>


<path
d="M 540.348203661845 604.189617180101 A 35 20 1 1 0 540.348203661845 564.189617180101"
id="SmallMolecule_0c765cf46107dd580abaf6fb9b7603c4"
style="fill:white;fill-opacity:0.600000;stroke-width:1;stroke:black;stroke-opacity:0.000000"
transform = "rotate(0.000000 0.000000 0.000000)"
/>


<path
d="M 540.348203661845 604.189617180101 A 35 20 1 1 0 540.348203661845 564.189617180101"
id="SmallMolecule_0c765cf46107dd580abaf6fb9b7603c4"
style="fill:#0000FF;fill-opacity:0.600000;stroke-width:1;stroke:black;stroke-opacity:0.000000"
transform = "rotate(0.000000 0.000000 0.000000)"
/>


<path
d="M 557.848203661845 601.51012525579 A 35 20 1 0 0 557.848203661845 566.869109104412"
id="SmallMolecule_0c765cf46107dd580abaf6fb9b7603c4"
style="fill:white;fill-opacity:0.600000;stroke-width:1;stroke:black;stroke-opacity:0.000000"
transform = "rotate(0.000000 0.000000 0.000000)"
/>


<path
d="M 557.848203661845 601.51012525579 A 35 20 1 0 0 557.848203661845 566.869109104412"
id="SmallMolecule_0c765cf46107dd580abaf6fb9b7603c4"
style="fill:#0000FF;fill-opacity:0.600000;stroke-width:1;stroke:black;stroke-opacity:0.000000"
transform = "rotate(0.000000 0.000000 0.000000)"
/>


<path
d="M 575.348203661845 584.189617180101 A 35 20 1 0 0 575.348203661845 584.189617180101"
id="SmallMolecule_0c765cf46107dd580abaf6fb9b7603c4"
style="fill:white;fill-opacity:0.600000;stroke-width:1;stroke:black;stroke-opacity:0.000000"
transform = "rotate(0.000000 0.000000 0.000000)"
/>


<ellipse
rx="35.000000"
ry="20.000000"
cx="540.348204"
cy="584.189617"
id="SmallMolecule_0c765cf46107dd580abaf6fb9b7603c4"
style="fill:white;fill-opacity:0.000000;stroke:black;stroke-width:1.000000;stroke-opacity:1.000000" />



<text
x="540.348204"
y="572.189617"
id="SmallMolecule_0c765cf46107dd580abaf6fb9b7603c4"
style="font-size:18.000000px;text-anchor:middle;font-family:Arial,Helvetica;alignment-baseline:baseline;stroke.opacity:1;dominant-baseline:baseline"
fill="black"
>
Adenosi-</text>


<text
x="540.348204"
y="590.189617"
id="SmallMolecule_0c765cf46107dd580abaf6fb9b7603c4"
style="font-size:18.000000px;text-anchor:middle;font-family:Arial,Helvetica;alignment-baseline:baseline;stroke.opacity:1;dominant-baseline:baseline"
fill="black"
>
ne trip-</text>


<text
x="540.348204"
y="608.189617"
id="SmallMolecule_0c765cf46107dd580abaf6fb9b7603c4"
style="font-size:18.000000px;text-anchor:middle;font-family:Arial,Helvetica;alignment-baseline:baseline;stroke.opacity:1;dominant-baseline:baseline"
fill="black"
>
hosphate</text>



<ellipse
rx="35.000000"
ry="20.000000"
cx="428.404295"
cy="351.735695"
id="SmallMolecule_239b08c8d9e626c60022f2e32743720a"
style="fill:#FFFF00;fill-opacity:0.600000;stroke:black;stroke-width:1.000000;stroke-opacity:0.000000" />


<path
d="M 410.904294560738 369.056202791392 A 35 20 1 1 0 410.904294560738 334.415186640014"
id="SmallMolecule_239b08c8d9e626c60022f2e32743720a"
style="fill:#0000FF;fill-opacity:0.600000;stroke-width:1;stroke:black;stroke-opacity:0.000000"
transform = "rotate(0.000000 0.000000 0.000000)"
/>


<path
d="M 428.404294560738 371.735694715703 A 35 20 1 1 0 428.404294560738 331.735694715703"
id="SmallMolecule_239b08c8d9e626c60022f2e32743720a"
style="fill:white;fill-opacity:0.600000;stroke-width:1;stroke:black;stroke-opacity:0.000000"
transform = "rotate(0.000000 0.000000 0.000000)"
/>


<path
d="M 428.404294560738 371.735694715703 A 35 20 1 1 0 428.404294560738 331.735694715703"
id="SmallMolecule_239b08c8d9e626c60022f2e32743720a"
style="fill:#FFFF00;fill-opacity:0.600000;stroke-width:1;stroke:black;stroke-opacity:0.000000"
transform = "rotate(0.000000 0.000000 0.000000)"
/>


<path
d="M 445.904294560738 369.056202791392 A 35 20 1 0 0 445.904294560738 334.415186640014"
id="SmallMolecule_239b08c8d9e626c60022f2e32743720a"
style="fill:white;fill-opacity:0.600000;stroke-width:1;stroke:black;stroke-opacity:0.000000"
transform = "rotate(0.000000 0.000000 0.000000)"
/>


<path
d="M 445.904294560738 369.056202791392 A 35 20 1 0 0 445.904294560738 334.415186640014"
id="SmallMolecule_239b08c8d9e626c60022f2e32743720a"
style="fill:#FFFF00;fill-opacity:0.600000;stroke-width:1;stroke:black;stroke-opacity:0.000000"
transform = "rotate(0.000000 0.000000 0.000000)"
/>


<path
d="M 463.404294560738 351.735694715703 A 35 20 1 0 0 463.404294560738 351.735694715703"
id="SmallMolecule_239b08c8d9e626c60022f2e32743720a"
style="fill:white;fill-opacity:0.600000;stroke-width:1;stroke:black;stroke-opacity:0.000000"
transform = "rotate(0.000000 0.000000 0.000000)"
/>


<ellipse
rx="35.000000"
ry="20.000000"
cx="428.404295"
cy="351.735695"
id="SmallMolecule_239b08c8d9e626c60022f2e32743720a"
style="fill:white;fill-opacity:0.000000;stroke:black;stroke-width:1.000000;stroke-opacity:1.000000" />



<text
x="428.404295"
y="339.735695"
id="SmallMolecule_239b08c8d9e626c60022f2e32743720a"
style="font-size:18.000000px;text-anchor:middle;font-family:Arial,Helvetica;alignment-baseline:baseline;stroke.opacity:1;dominant-baseline:baseline"
fill="black"
>
Adenosi-</text>


<text
x="428.404295"
y="357.735695"
id="SmallMolecule_239b08c8d9e626c60022f2e32743720a"
style="font-size:18.000000px;text-anchor:middle;font-family:Arial,Helvetica;alignment-baseline:baseline;stroke.opacity:1;dominant-baseline:baseline"
fill="black"
>
ne mono-</text>


<text
x="428.404295"
y="375.735695"
id="SmallMolecule_239b08c8d9e626c60022f2e32743720a"
style="font-size:18.000000px;text-anchor:middle;font-family:Arial,Helvetica;alignment-baseline:baseline;stroke.opacity:1;dominant-baseline:baseline"
fill="black"
>
phosphate</text>



<ellipse
rx="35.000000"
ry="20.000000"
cx="428.404295"
cy="487.917329"
id="SmallMolecule_9e0c44e17f0df4aa12f41dfb45571356"
style="fill:#0000FF;fill-opacity:0.600000;stroke:black;stroke-width:1.000000;stroke-opacity:0.000000" />


<path
d="M 410.904294560738 505.237836700186 A 35 20 1 1 0 410.904294560738 470.596820548808"
id="SmallMolecule_9e0c44e17f0df4aa12f41dfb45571356"
style="fill:#FFFF00;fill-opacity:0.600000;stroke-width:1;stroke:black;stroke-opacity:0.000000"
transform = "rotate(0.000000 0.000000 0.000000)"
/>


<path
d="M 428.404294560738 507.917328624497 A 35 20 1 1 0 428.404294560738 467.917328624497"
id="SmallMolecule_9e0c44e17f0df4aa12f41dfb45571356"
style="fill:white;fill-opacity:0.600000;stroke-width:1;stroke:black;stroke-opacity:0.000000"
transform = "rotate(0.000000 0.000000 0.000000)"
/>


<path
d="M 428.404294560738 507.917328624497 A 35 20 1 1 0 428.404294560738 467.917328624497"
id="SmallMolecule_9e0c44e17f0df4aa12f41dfb45571356"
style="fill:#0000FF;fill-opacity:0.600000;stroke-width:1;stroke:black;stroke-opacity:0.000000"
transform = "rotate(0.000000 0.000000 0.000000)"
/>


<path
d="M 445.904294560738 505.237836700186 A 35 20 1 0 0 445.904294560738 470.596820548808"
id="SmallMolecule_9e0c44e17f0df4aa12f41dfb45571356"
style="fill:white;fill-opacity:0.600000;stroke-width:1;stroke:black;stroke-opacity:0.000000"
transform = "rotate(0.000000 0.000000 0.000000)"
/>


<path
d="M 445.904294560738 505.237836700186 A 35 20 1 0 0 445.904294560738 470.596820548808"
id="SmallMolecule_9e0c44e17f0df4aa12f41dfb45571356"
style="fill:#0000FF;fill-opacity:0.600000;stroke-width:1;stroke:black;stroke-opacity:0.000000"
transform = "rotate(0.000000 0.000000 0.000000)"
/>


<path
d="M 463.404294560738 487.917328624497 A 35 20 1 0 0 463.404294560738 487.917328624497"
id="SmallMolecule_9e0c44e17f0df4aa12f41dfb45571356"
style="fill:white;fill-opacity:0.600000;stroke-width:1;stroke:black;stroke-opacity:0.000000"
transform = "rotate(0.000000 0.000000 0.000000)"
/>


<ellipse
rx="35.000000"
ry="20.000000"
cx="428.404295"
cy="487.917329"
id="SmallMolecule_9e0c44e17f0df4aa12f41dfb45571356"
style="fill:white;fill-opacity:0.000000;stroke:black;stroke-width:1.000000;stroke-opacity:1.000000" />



<text
x="428.404295"
y="484.917329"
id="SmallMolecule_9e0c44e17f0df4aa12f41dfb45571356"
style="font-size:18.000000px;text-anchor:middle;font-family:Arial,Helvetica;alignment-baseline:baseline;stroke.opacity:1;dominant-baseline:baseline"
fill="black"
>
Pyropho-</text>


<text
x="428.404295"
y="502.917329"
id="SmallMolecule_9e0c44e17f0df4aa12f41dfb45571356"
style="font-size:18.000000px;text-anchor:middle;font-family:Arial,Helvetica;alignment-baseline:baseline;stroke.opacity:1;dominant-baseline:baseline"
fill="black"
>
sphate</text>




<path d="M161.000000 339.000000 C 201.000000 369.000000, 274.000000 424.000000,304.000000 446.000000" stroke="black"  fill="transparent"/>

<line
x1="274" y1="424" x2="304" y2="446"
id="0"
style="stroke:black;stroke-width:1.000000;stroke-opacity:0" />


<line
x1="201" y1="369" x2="161" y2="339"
id="BiochemicalReaction_0e8e0fd70a2e9fdf184f20395bd6066d_LEFT_TO_RIGHT-output--to--SmallMolecule_960fe7c554a70c8d78b872b975dfb866"
style="stroke:black;stroke-width:1.000000;stroke-opacity:0" />


<polygon
points = "161,339 152.2,334.6 152.2,343.4"
id="line"
style="fill:black; stroke:#000000; stroke-width:1"
transform = "rotate(216.869898 161.000000 339.000000)"
/>


<path d="M331.000000 460.000000 C 346.000000 465.000000, 372.000000 472.000000,393.000000 478.000000" stroke="black"  fill="transparent"/>

<line
x1="346" y1="465" x2="331" y2="460"
id="0"
style="stroke:black;stroke-width:1.000000;stroke-opacity:0" />


<line
x1="372" y1="472" x2="393" y2="478"
id="BiochemicalReaction_0e8e0fd70a2e9fdf184f20395bd6066d_LEFT_TO_RIGHT-output--to--SmallMolecule_9e0c44e17f0df4aa12f41dfb45571356"
style="stroke:black;stroke-width:1.000000;stroke-opacity:0" />


<polygon
points = "393,478 384.2,473.6 384.2,482.4"
id="line"
style="fill:black; stroke:#000000; stroke-width:1"
transform = "rotate(15.945396 393.000000 478.000000)"
/>


<path d="M250.000000 197.000000 C 264.000000 251.000000, 302.000000 397.000000,313.000000 443.000000" stroke="black"  fill="transparent"/>

<line
x1="302" y1="397" x2="313" y2="443"
id="0"
style="stroke:black;stroke-width:1.000000;stroke-opacity:0" />


<line
x1="264" y1="251" x2="250" y2="197"
id="BiochemicalReaction_0e8e0fd70a2e9fdf184f20395bd6066d_LEFT_TO_RIGHT-output--to--SmallMolecule_ac025877f7fc38d8d556d4192efe87d5"
style="stroke:black;stroke-width:1.000000;stroke-opacity:0" />


<polygon
points = "250,197 241.2,192.6 241.2,201.4"
id="line"
style="fill:black; stroke:#000000; stroke-width:1"
transform = "rotate(255.465545 250.000000 197.000000)"
/>


<path d="M427.000000 694.000000 C 404.000000 643.000000, 343.000000 513.000000,323.000000 470.000000" stroke="black"  fill="transparent"/>

<line
x1="404" y1="643" x2="427" y2="694"
id="0"
style="stroke:black;stroke-width:1.000000;stroke-opacity:0" />


<line
x1="343" y1="513" x2="323" y2="470"
id="SmallMolecule_1c1428de82be4f3155b857dd697fc9e4--to--BiochemicalReaction_0e8e0fd70a2e9fdf184f20395bd6066d_LEFT_TO_RIGHT-input"
style="stroke:black;stroke-width:1.000000;stroke-opacity:0" />


<path d="M330.000000 468.000000 C 345.000000 479.000000, 368.000000 497.000000,390.000000 511.000000" stroke="black"  fill="transparent"/>
<path d="M390.000000 511.000000 C 427.000000 534.000000, 474.000000 555.000000,505.000000 569.000000" stroke="black"  fill="transparent"/>

<line
x1="474" y1="555" x2="505" y2="569"
id="0"
style="stroke:black;stroke-width:1.000000;stroke-opacity:0" />


<line
x1="345" y1="479" x2="330" y2="468"
id="SmallMolecule_0c765cf46107dd580abaf6fb9b7603c4--to--BiochemicalReaction_0e8e0fd70a2e9fdf184f20395bd6066d_LEFT_TO_RIGHT-input"
style="stroke:black;stroke-width:1.000000;stroke-opacity:0" />


<path d="M331.000000 444.000000 C 350.000000 426.000000, 384.000000 393.000000,407.000000 372.000000" stroke="black"  fill="transparent"/>

<line
x1="350" y1="426" x2="331" y2="444"
id="0"
style="stroke:black;stroke-width:1.000000;stroke-opacity:0" />


<line
x1="384" y1="393" x2="407" y2="372"
id="BiochemicalReaction_0e8e0fd70a2e9fdf184f20395bd6066d_LEFT_TO_RIGHT-output--to--SmallMolecule_239b08c8d9e626c60022f2e32743720a"
style="stroke:black;stroke-width:1.000000;stroke-opacity:0" />


<polygon
points = "407,372 398.2,367.6 398.2,376.4"
id="line"
style="fill:black; stroke:#000000; stroke-width:1"
transform = "rotate(-42.397438 407.000000 372.000000)"
/>






<rect
width="2.485149"
height="21.428571"
rx="0.000000"
ry="0.000000"
x="584.863055"
y="150.000000"
id="col.pan"
style="fill:#FFFF00;fill-opacity:1.000000;stroke:black;stroke-width:0.000000;stroke-opacity:0.000000" />


<rect
width="2.485149"
height="21.428571"
rx="0.000000"
ry="0.000000"
x="583.377907"
y="150.000000"
id="col.pan"
style="fill:#FEFE04;fill-opacity:1.000000;stroke:black;stroke-width:0.000000;stroke-opacity:0.000000" />


<rect
width="2.485149"
height="21.428571"
rx="0.000000"
ry="0.000000"
x="581.892758"
y="150.000000"
id="col.pan"
style="fill:#FCFC08;fill-opacity:1.000000;stroke:black;stroke-width:0.000000;stroke-opacity:0.000000" />


<rect
width="2.485149"
height="21.428571"
rx="0.000000"
ry="0.000000"
x="580.407610"
y="150.000000"
id="col.pan"
style="fill:#FBFB0B;fill-opacity:1.000000;stroke:black;stroke-width:0.000000;stroke-opacity:0.000000" />


<rect
width="2.485149"
height="21.428571"
rx="0.000000"
ry="0.000000"
x="578.922461"
y="150.000000"
id="col.pan"
style="fill:#FAFA0F;fill-opacity:1.000000;stroke:black;stroke-width:0.000000;stroke-opacity:0.000000" />


<rect
width="2.485149"
height="21.428571"
rx="0.000000"
ry="0.000000"
x="577.437313"
y="150.000000"
id="col.pan"
style="fill:#F9F913;fill-opacity:1.000000;stroke:black;stroke-width:0.000000;stroke-opacity:0.000000" />


<rect
width="2.485149"
height="21.428571"
rx="0.000000"
ry="0.000000"
x="575.952164"
y="150.000000"
id="col.pan"
style="fill:#F7F717;fill-opacity:1.000000;stroke:black;stroke-width:0.000000;stroke-opacity:0.000000" />


<rect
width="2.485149"
height="21.428571"
rx="0.000000"
ry="0.000000"
x="574.467016"
y="150.000000"
id="col.pan"
style="fill:#F6F61B;fill-opacity:1.000000;stroke:black;stroke-width:0.000000;stroke-opacity:0.000000" />


<rect
width="2.485149"
height="21.428571"
rx="0.000000"
ry="0.000000"
x="572.981867"
y="150.000000"
id="col.pan"
style="fill:#F5F51E;fill-opacity:1.000000;stroke:black;stroke-width:0.000000;stroke-opacity:0.000000" />


<rect
width="2.485149"
height="21.428571"
rx="0.000000"
ry="0.000000"
x="571.496719"
y="150.000000"
id="col.pan"
style="fill:#F3F322;fill-opacity:1.000000;stroke:black;stroke-width:0.000000;stroke-opacity:0.000000" />


<rect
width="2.485149"
height="21.428571"
rx="0.000000"
ry="0.000000"
x="570.011570"
y="150.000000"
id="col.pan"
style="fill:#F2F226;fill-opacity:1.000000;stroke:black;stroke-width:0.000000;stroke-opacity:0.000000" />


<rect
width="2.485149"
height="21.428571"
rx="0.000000"
ry="0.000000"
x="568.526421"
y="150.000000"
id="col.pan"
style="fill:#F1F12A;fill-opacity:1.000000;stroke:black;stroke-width:0.000000;stroke-opacity:0.000000" />


<rect
width="2.485149"
height="21.428571"
rx="0.000000"
ry="0.000000"
x="567.041273"
y="150.000000"
id="col.pan"
style="fill:#EFEF2E;fill-opacity:1.000000;stroke:black;stroke-width:0.000000;stroke-opacity:0.000000" />


<rect
width="2.485149"
height="21.428571"
rx="0.000000"
ry="0.000000"
x="565.556124"
y="150.000000"
id="col.pan"
style="fill:#EEEE31;fill-opacity:1.000000;stroke:black;stroke-width:0.000000;stroke-opacity:0.000000" />


<rect
width="2.485149"
height="21.428571"
rx="0.000000"
ry="0.000000"
x="564.070976"
y="150.000000"
id="col.pan"
style="fill:#EDED35;fill-opacity:1.000000;stroke:black;stroke-width:0.000000;stroke-opacity:0.000000" />


<rect
width="2.485149"
height="21.428571"
rx="0.000000"
ry="0.000000"
x="562.585827"
y="150.000000"
id="col.pan"
style="fill:#ECEC39;fill-opacity:1.000000;stroke:black;stroke-width:0.000000;stroke-opacity:0.000000" />


<rect
width="2.485149"
height="21.428571"
rx="0.000000"
ry="0.000000"
x="561.100679"
y="150.000000"
id="col.pan"
style="fill:#EAEA3D;fill-opacity:1.000000;stroke:black;stroke-width:0.000000;stroke-opacity:0.000000" />


<rect
width="2.485149"
height="21.428571"
rx="0.000000"
ry="0.000000"
x="559.615530"
y="150.000000"
id="col.pan"
style="fill:#E9E941;fill-opacity:1.000000;stroke:black;stroke-width:0.000000;stroke-opacity:0.000000" />


<rect
width="2.485149"
height="21.428571"
rx="0.000000"
ry="0.000000"
x="558.130382"
y="150.000000"
id="col.pan"
style="fill:#E8E844;fill-opacity:1.000000;stroke:black;stroke-width:0.000000;stroke-opacity:0.000000" />


<rect
width="2.485149"
height="21.428571"
rx="0.000000"
ry="0.000000"
x="556.645233"
y="150.000000"
id="col.pan"
style="fill:#E6E648;fill-opacity:1.000000;stroke:black;stroke-width:0.000000;stroke-opacity:0.000000" />


<rect
width="2.485149"
height="21.428571"
rx="0.000000"
ry="0.000000"
x="555.160085"
y="150.000000"
id="col.pan"
style="fill:#E5E54C;fill-opacity:1.000000;stroke:black;stroke-width:0.000000;stroke-opacity:0.000000" />


<rect
width="2.485149"
height="21.428571"
rx="0.000000"
ry="0.000000"
x="553.674936"
y="150.000000"
id="col.pan"
style="fill:#E4E450;fill-opacity:1.000000;stroke:black;stroke-width:0.000000;stroke-opacity:0.000000" />


<rect
width="2.485149"
height="21.428571"
rx="0.000000"
ry="0.000000"
x="552.189788"
y="150.000000"
id="col.pan"
style="fill:#E2E254;fill-opacity:1.000000;stroke:black;stroke-width:0.000000;stroke-opacity:0.000000" />


<rect
width="2.485149"
height="21.428571"
rx="0.000000"
ry="0.000000"
x="550.704639"
y="150.000000"
id="col.pan"
style="fill:#E1E157;fill-opacity:1.000000;stroke:black;stroke-width:0.000000;stroke-opacity:0.000000" />


<rect
width="2.485149"
height="21.428571"
rx="0.000000"
ry="0.000000"
x="549.219491"
y="150.000000"
id="col.pan"
style="fill:#E0E05B;fill-opacity:1.000000;stroke:black;stroke-width:0.000000;stroke-opacity:0.000000" />


<rect
width="2.485149"
height="21.428571"
rx="0.000000"
ry="0.000000"
x="547.734342"
y="150.000000"
id="col.pan"
style="fill:#DFDF5F;fill-opacity:1.000000;stroke:black;stroke-width:0.000000;stroke-opacity:0.000000" />


<rect
width="2.485149"
height="21.428571"
rx="0.000000"
ry="0.000000"
x="546.249194"
y="150.000000"
id="col.pan"
style="fill:#DDDD63;fill-opacity:1.000000;stroke:black;stroke-width:0.000000;stroke-opacity:0.000000" />


<rect
width="2.485149"
height="21.428571"
rx="0.000000"
ry="0.000000"
x="544.764045"
y="150.000000"
id="col.pan"
style="fill:#DCDC67;fill-opacity:1.000000;stroke:black;stroke-width:0.000000;stroke-opacity:0.000000" />


<rect
width="2.485149"
height="21.428571"
rx="0.000000"
ry="0.000000"
x="543.278897"
y="150.000000"
id="col.pan"
style="fill:#DBDB6A;fill-opacity:1.000000;stroke:black;stroke-width:0.000000;stroke-opacity:0.000000" />


<rect
width="2.485149"
height="21.428571"
rx="0.000000"
ry="0.000000"
x="541.793748"
y="150.000000"
id="col.pan"
style="fill:#D9D96E;fill-opacity:1.000000;stroke:black;stroke-width:0.000000;stroke-opacity:0.000000" />


<rect
width="2.485149"
height="21.428571"
rx="0.000000"
ry="0.000000"
x="540.308600"
y="150.000000"
id="col.pan"
style="fill:#D8D872;fill-opacity:1.000000;stroke:black;stroke-width:0.000000;stroke-opacity:0.000000" />


<rect
width="2.485149"
height="21.428571"
rx="0.000000"
ry="0.000000"
x="538.823451"
y="150.000000"
id="col.pan"
style="fill:#D7D776;fill-opacity:1.000000;stroke:black;stroke-width:0.000000;stroke-opacity:0.000000" />


<rect
width="2.485149"
height="21.428571"
rx="0.000000"
ry="0.000000"
x="537.338303"
y="150.000000"
id="col.pan"
style="fill:#D5D57A;fill-opacity:1.000000;stroke:black;stroke-width:0.000000;stroke-opacity:0.000000" />


<rect
width="2.485149"
height="21.428571"
rx="0.000000"
ry="0.000000"
x="535.853154"
y="150.000000"
id="col.pan"
style="fill:#D4D47D;fill-opacity:1.000000;stroke:black;stroke-width:0.000000;stroke-opacity:0.000000" />


<rect
width="2.485149"
height="21.428571"
rx="0.000000"
ry="0.000000"
x="534.368006"
y="150.000000"
id="col.pan"
style="fill:#D3D381;fill-opacity:1.000000;stroke:black;stroke-width:0.000000;stroke-opacity:0.000000" />


<rect
width="2.485149"
height="21.428571"
rx="0.000000"
ry="0.000000"
x="532.882857"
y="150.000000"
id="col.pan"
style="fill:#D2D285;fill-opacity:1.000000;stroke:black;stroke-width:0.000000;stroke-opacity:0.000000" />


<rect
width="2.485149"
height="21.428571"
rx="0.000000"
ry="0.000000"
x="531.397709"
y="150.000000"
id="col.pan"
style="fill:#D0D089;fill-opacity:1.000000;stroke:black;stroke-width:0.000000;stroke-opacity:0.000000" />


<rect
width="2.485149"
height="21.428571"
rx="0.000000"
ry="0.000000"
x="529.912560"
y="150.000000"
id="col.pan"
style="fill:#CFCF8D;fill-opacity:1.000000;stroke:black;stroke-width:0.000000;stroke-opacity:0.000000" />


<rect
width="2.485149"
height="21.428571"
rx="0.000000"
ry="0.000000"
x="528.427412"
y="150.000000"
id="col.pan"
style="fill:#CECE90;fill-opacity:1.000000;stroke:black;stroke-width:0.000000;stroke-opacity:0.000000" />


<rect
width="2.485149"
height="21.428571"
rx="0.000000"
ry="0.000000"
x="526.942263"
y="150.000000"
id="col.pan"
style="fill:#CCCC94;fill-opacity:1.000000;stroke:black;stroke-width:0.000000;stroke-opacity:0.000000" />


<rect
width="2.485149"
height="21.428571"
rx="0.000000"
ry="0.000000"
x="525.457115"
y="150.000000"
id="col.pan"
style="fill:#CBCB98;fill-opacity:1.000000;stroke:black;stroke-width:0.000000;stroke-opacity:0.000000" />


<rect
width="2.485149"
height="21.428571"
rx="0.000000"
ry="0.000000"
x="523.971966"
y="150.000000"
id="col.pan"
style="fill:#CACA9C;fill-opacity:1.000000;stroke:black;stroke-width:0.000000;stroke-opacity:0.000000" />


<rect
width="2.485149"
height="21.428571"
rx="0.000000"
ry="0.000000"
x="522.486818"
y="150.000000"
id="col.pan"
style="fill:#C8C8A0;fill-opacity:1.000000;stroke:black;stroke-width:0.000000;stroke-opacity:0.000000" />


<rect
width="2.485149"
height="21.428571"
rx="0.000000"
ry="0.000000"
x="521.001669"
y="150.000000"
id="col.pan"
style="fill:#C7C7A3;fill-opacity:1.000000;stroke:black;stroke-width:0.000000;stroke-opacity:0.000000" />


<rect
width="2.485149"
height="21.428571"
rx="0.000000"
ry="0.000000"
x="519.516520"
y="150.000000"
id="col.pan"
style="fill:#C6C6A7;fill-opacity:1.000000;stroke:black;stroke-width:0.000000;stroke-opacity:0.000000" />


<rect
width="2.485149"
height="21.428571"
rx="0.000000"
ry="0.000000"
x="518.031372"
y="150.000000"
id="col.pan"
style="fill:#C5C5AB;fill-opacity:1.000000;stroke:black;stroke-width:0.000000;stroke-opacity:0.000000" />


<rect
width="2.485149"
height="21.428571"
rx="0.000000"
ry="0.000000"
x="516.546223"
y="150.000000"
id="col.pan"
style="fill:#C3C3AF;fill-opacity:1.000000;stroke:black;stroke-width:0.000000;stroke-opacity:0.000000" />


<rect
width="2.485149"
height="21.428571"
rx="0.000000"
ry="0.000000"
x="515.061075"
y="150.000000"
id="col.pan"
style="fill:#C2C2B3;fill-opacity:1.000000;stroke:black;stroke-width:0.000000;stroke-opacity:0.000000" />


<rect
width="2.485149"
height="21.428571"
rx="0.000000"
ry="0.000000"
x="513.575926"
y="150.000000"
id="col.pan"
style="fill:#C1C1B6;fill-opacity:1.000000;stroke:black;stroke-width:0.000000;stroke-opacity:0.000000" />


<rect
width="2.485149"
height="21.428571"
rx="0.000000"
ry="0.000000"
x="512.090778"
y="150.000000"
id="col.pan"
style="fill:#BFBFBA;fill-opacity:1.000000;stroke:black;stroke-width:0.000000;stroke-opacity:0.000000" />


<rect
width="2.485149"
height="21.428571"
rx="0.000000"
ry="0.000000"
x="510.605629"
y="150.000000"
id="col.pan"
style="fill:#BEBEBE;fill-opacity:1.000000;stroke:black;stroke-width:0.000000;stroke-opacity:0.000000" />


<rect
width="2.485149"
height="21.428571"
rx="0.000000"
ry="0.000000"
x="509.120481"
y="150.000000"
id="col.pan"
style="fill:#BABABF;fill-opacity:1.000000;stroke:black;stroke-width:0.000000;stroke-opacity:0.000000" />


<rect
width="2.485149"
height="21.428571"
rx="0.000000"
ry="0.000000"
x="507.635332"
y="150.000000"
id="col.pan"
style="fill:#B6B6C1;fill-opacity:1.000000;stroke:black;stroke-width:0.000000;stroke-opacity:0.000000" />


<rect
width="2.485149"
height="21.428571"
rx="0.000000"
ry="0.000000"
x="506.150184"
y="150.000000"
id="col.pan"
style="fill:#B3B3C2;fill-opacity:1.000000;stroke:black;stroke-width:0.000000;stroke-opacity:0.000000" />


<rect
width="2.485149"
height="21.428571"
rx="0.000000"
ry="0.000000"
x="504.665035"
y="150.000000"
id="col.pan"
style="fill:#AFAFC3;fill-opacity:1.000000;stroke:black;stroke-width:0.000000;stroke-opacity:0.000000" />


<rect
width="2.485149"
height="21.428571"
rx="0.000000"
ry="0.000000"
x="503.179887"
y="150.000000"
id="col.pan"
style="fill:#ABABC5;fill-opacity:1.000000;stroke:black;stroke-width:0.000000;stroke-opacity:0.000000" />


<rect
width="2.485149"
height="21.428571"
rx="0.000000"
ry="0.000000"
x="501.694738"
y="150.000000"
id="col.pan"
style="fill:#A7A7C6;fill-opacity:1.000000;stroke:black;stroke-width:0.000000;stroke-opacity:0.000000" />


<rect
width="2.485149"
height="21.428571"
rx="0.000000"
ry="0.000000"
x="500.209590"
y="150.000000"
id="col.pan"
style="fill:#A3A3C7;fill-opacity:1.000000;stroke:black;stroke-width:0.000000;stroke-opacity:0.000000" />


<rect
width="2.485149"
height="21.428571"
rx="0.000000"
ry="0.000000"
x="498.724441"
y="150.000000"
id="col.pan"
style="fill:#A0A0C8;fill-opacity:1.000000;stroke:black;stroke-width:0.000000;stroke-opacity:0.000000" />


<rect
width="2.485149"
height="21.428571"
rx="0.000000"
ry="0.000000"
x="497.239293"
y="150.000000"
id="col.pan"
style="fill:#9C9CCA;fill-opacity:1.000000;stroke:black;stroke-width:0.000000;stroke-opacity:0.000000" />


<rect
width="2.485149"
height="21.428571"
rx="0.000000"
ry="0.000000"
x="495.754144"
y="150.000000"
id="col.pan"
style="fill:#9898CB;fill-opacity:1.000000;stroke:black;stroke-width:0.000000;stroke-opacity:0.000000" />


<rect
width="2.485149"
height="21.428571"
rx="0.000000"
ry="0.000000"
x="494.268996"
y="150.000000"
id="col.pan"
style="fill:#9494CC;fill-opacity:1.000000;stroke:black;stroke-width:0.000000;stroke-opacity:0.000000" />


<rect
width="2.485149"
height="21.428571"
rx="0.000000"
ry="0.000000"
x="492.783847"
y="150.000000"
id="col.pan"
style="fill:#9090CE;fill-opacity:1.000000;stroke:black;stroke-width:0.000000;stroke-opacity:0.000000" />


<rect
width="2.485149"
height="21.428571"
rx="0.000000"
ry="0.000000"
x="491.298699"
y="150.000000"
id="col.pan"
style="fill:#8D8DCF;fill-opacity:1.000000;stroke:black;stroke-width:0.000000;stroke-opacity:0.000000" />


<rect
width="2.485149"
height="21.428571"
rx="0.000000"
ry="0.000000"
x="489.813550"
y="150.000000"
id="col.pan"
style="fill:#8989D0;fill-opacity:1.000000;stroke:black;stroke-width:0.000000;stroke-opacity:0.000000" />


<rect
width="2.485149"
height="21.428571"
rx="0.000000"
ry="0.000000"
x="488.328402"
y="150.000000"
id="col.pan"
style="fill:#8585D2;fill-opacity:1.000000;stroke:black;stroke-width:0.000000;stroke-opacity:0.000000" />


<rect
width="2.485149"
height="21.428571"
rx="0.000000"
ry="0.000000"
x="486.843253"
y="150.000000"
id="col.pan"
style="fill:#8181D3;fill-opacity:1.000000;stroke:black;stroke-width:0.000000;stroke-opacity:0.000000" />


<rect
width="2.485149"
height="21.428571"
rx="0.000000"
ry="0.000000"
x="485.358105"
y="150.000000"
id="col.pan"
style="fill:#7D7DD4;fill-opacity:1.000000;stroke:black;stroke-width:0.000000;stroke-opacity:0.000000" />


<rect
width="2.485149"
height="21.428571"
rx="0.000000"
ry="0.000000"
x="483.872956"
y="150.000000"
id="col.pan"
style="fill:#7A7AD5;fill-opacity:1.000000;stroke:black;stroke-width:0.000000;stroke-opacity:0.000000" />


<rect
width="2.485149"
height="21.428571"
rx="0.000000"
ry="0.000000"
x="482.387808"
y="150.000000"
id="col.pan"
style="fill:#7676D7;fill-opacity:1.000000;stroke:black;stroke-width:0.000000;stroke-opacity:0.000000" />


<rect
width="2.485149"
height="21.428571"
rx="0.000000"
ry="0.000000"
x="480.902659"
y="150.000000"
id="col.pan"
style="fill:#7272D8;fill-opacity:1.000000;stroke:black;stroke-width:0.000000;stroke-opacity:0.000000" />


<rect
width="2.485149"
height="21.428571"
rx="0.000000"
ry="0.000000"
x="479.417511"
y="150.000000"
id="col.pan"
style="fill:#6E6ED9;fill-opacity:1.000000;stroke:black;stroke-width:0.000000;stroke-opacity:0.000000" />


<rect
width="2.485149"
height="21.428571"
rx="0.000000"
ry="0.000000"
x="477.932362"
y="150.000000"
id="col.pan"
style="fill:#6A6ADB;fill-opacity:1.000000;stroke:black;stroke-width:0.000000;stroke-opacity:0.000000" />


<rect
width="2.485149"
height="21.428571"
rx="0.000000"
ry="0.000000"
x="476.447214"
y="150.000000"
id="col.pan"
style="fill:#6767DC;fill-opacity:1.000000;stroke:black;stroke-width:0.000000;stroke-opacity:0.000000" />


<rect
width="2.485149"
height="21.428571"
rx="0.000000"
ry="0.000000"
x="474.962065"
y="150.000000"
id="col.pan"
style="fill:#6363DD;fill-opacity:1.000000;stroke:black;stroke-width:0.000000;stroke-opacity:0.000000" />


<rect
width="2.485149"
height="21.428571"
rx="0.000000"
ry="0.000000"
x="473.476917"
y="150.000000"
id="col.pan"
style="fill:#5F5FDF;fill-opacity:1.000000;stroke:black;stroke-width:0.000000;stroke-opacity:0.000000" />


<rect
width="2.485149"
height="21.428571"
rx="0.000000"
ry="0.000000"
x="471.991768"
y="150.000000"
id="col.pan"
style="fill:#5B5BE0;fill-opacity:1.000000;stroke:black;stroke-width:0.000000;stroke-opacity:0.000000" />


<rect
width="2.485149"
height="21.428571"
rx="0.000000"
ry="0.000000"
x="470.506620"
y="150.000000"
id="col.pan"
style="fill:#5757E1;fill-opacity:1.000000;stroke:black;stroke-width:0.000000;stroke-opacity:0.000000" />


<rect
width="2.485149"
height="21.428571"
rx="0.000000"
ry="0.000000"
x="469.021471"
y="150.000000"
id="col.pan"
style="fill:#5454E2;fill-opacity:1.000000;stroke:black;stroke-width:0.000000;stroke-opacity:0.000000" />


<rect
width="2.485149"
height="21.428571"
rx="0.000000"
ry="0.000000"
x="467.536322"
y="150.000000"
id="col.pan"
style="fill:#5050E4;fill-opacity:1.000000;stroke:black;stroke-width:0.000000;stroke-opacity:0.000000" />


<rect
width="2.485149"
height="21.428571"
rx="0.000000"
ry="0.000000"
x="466.051174"
y="150.000000"
id="col.pan"
style="fill:#4C4CE5;fill-opacity:1.000000;stroke:black;stroke-width:0.000000;stroke-opacity:0.000000" />


<rect
width="2.485149"
height="21.428571"
rx="0.000000"
ry="0.000000"
x="464.566025"
y="150.000000"
id="col.pan"
style="fill:#4848E6;fill-opacity:1.000000;stroke:black;stroke-width:0.000000;stroke-opacity:0.000000" />


<rect
width="2.485149"
height="21.428571"
rx="0.000000"
ry="0.000000"
x="463.080877"
y="150.000000"
id="col.pan"
style="fill:#4444E8;fill-opacity:1.000000;stroke:black;stroke-width:0.000000;stroke-opacity:0.000000" />


<rect
width="2.485149"
height="21.428571"
rx="0.000000"
ry="0.000000"
x="461.595728"
y="150.000000"
id="col.pan"
style="fill:#4141E9;fill-opacity:1.000000;stroke:black;stroke-width:0.000000;stroke-opacity:0.000000" />


<rect
width="2.485149"
height="21.428571"
rx="0.000000"
ry="0.000000"
x="460.110580"
y="150.000000"
id="col.pan"
style="fill:#3D3DEA;fill-opacity:1.000000;stroke:black;stroke-width:0.000000;stroke-opacity:0.000000" />


<rect
width="2.485149"
height="21.428571"
rx="0.000000"
ry="0.000000"
x="458.625431"
y="150.000000"
id="col.pan"
style="fill:#3939EC;fill-opacity:1.000000;stroke:black;stroke-width:0.000000;stroke-opacity:0.000000" />


<rect
width="2.485149"
height="21.428571"
rx="0.000000"
ry="0.000000"
x="457.140283"
y="150.000000"
id="col.pan"
style="fill:#3535ED;fill-opacity:1.000000;stroke:black;stroke-width:0.000000;stroke-opacity:0.000000" />


<rect
width="2.485149"
height="21.428571"
rx="0.000000"
ry="0.000000"
x="455.655134"
y="150.000000"
id="col.pan"
style="fill:#3131EE;fill-opacity:1.000000;stroke:black;stroke-width:0.000000;stroke-opacity:0.000000" />


<rect
width="2.485149"
height="21.428571"
rx="0.000000"
ry="0.000000"
x="454.169986"
y="150.000000"
id="col.pan"
style="fill:#2E2EEF;fill-opacity:1.000000;stroke:black;stroke-width:0.000000;stroke-opacity:0.000000" />


<rect
width="2.485149"
height="21.428571"
rx="0.000000"
ry="0.000000"
x="452.684837"
y="150.000000"
id="col.pan"
style="fill:#2A2AF1;fill-opacity:1.000000;stroke:black;stroke-width:0.000000;stroke-opacity:0.000000" />


<rect
width="2.485149"
height="21.428571"
rx="0.000000"
ry="0.000000"
x="451.199689"
y="150.000000"
id="col.pan"
style="fill:#2626F2;fill-opacity:1.000000;stroke:black;stroke-width:0.000000;stroke-opacity:0.000000" />


<rect
width="2.485149"
height="21.428571"
rx="0.000000"
ry="0.000000"
x="449.714540"
y="150.000000"
id="col.pan"
style="fill:#2222F3;fill-opacity:1.000000;stroke:black;stroke-width:0.000000;stroke-opacity:0.000000" />


<rect
width="2.485149"
height="21.428571"
rx="0.000000"
ry="0.000000"
x="448.229392"
y="150.000000"
id="col.pan"
style="fill:#1E1EF5;fill-opacity:1.000000;stroke:black;stroke-width:0.000000;stroke-opacity:0.000000" />


<rect
width="2.485149"
height="21.428571"
rx="0.000000"
ry="0.000000"
x="446.744243"
y="150.000000"
id="col.pan"
style="fill:#1B1BF6;fill-opacity:1.000000;stroke:black;stroke-width:0.000000;stroke-opacity:0.000000" />


<rect
width="2.485149"
height="21.428571"
rx="0.000000"
ry="0.000000"
x="445.259095"
y="150.000000"
id="col.pan"
style="fill:#1717F7;fill-opacity:1.000000;stroke:black;stroke-width:0.000000;stroke-opacity:0.000000" />


<rect
width="2.485149"
height="21.428571"
rx="0.000000"
ry="0.000000"
x="443.773946"
y="150.000000"
id="col.pan"
style="fill:#1313F9;fill-opacity:1.000000;stroke:black;stroke-width:0.000000;stroke-opacity:0.000000" />


<rect
width="2.485149"
height="21.428571"
rx="0.000000"
ry="0.000000"
x="442.288798"
y="150.000000"
id="col.pan"
style="fill:#0F0FFA;fill-opacity:1.000000;stroke:black;stroke-width:0.000000;stroke-opacity:0.000000" />


<rect
width="2.485149"
height="21.428571"
rx="0.000000"
ry="0.000000"
x="440.803649"
y="150.000000"
id="col.pan"
style="fill:#0B0BFB;fill-opacity:1.000000;stroke:black;stroke-width:0.000000;stroke-opacity:0.000000" />


<rect
width="2.485149"
height="21.428571"
rx="0.000000"
ry="0.000000"
x="439.318501"
y="150.000000"
id="col.pan"
style="fill:#0808FC;fill-opacity:1.000000;stroke:black;stroke-width:0.000000;stroke-opacity:0.000000" />


<rect
width="2.485149"
height="21.428571"
rx="0.000000"
ry="0.000000"
x="437.833352"
y="150.000000"
id="col.pan"
style="fill:#0404FE;fill-opacity:1.000000;stroke:black;stroke-width:0.000000;stroke-opacity:0.000000" />


<rect
width="2.485149"
height="21.428571"
rx="0.000000"
ry="0.000000"
x="436.348204"
y="150.000000"
id="col.pan"
style="fill:#0000FF;fill-opacity:1.000000;stroke:black;stroke-width:0.000000;stroke-opacity:0.000000" />


<line
x1="436.348203661845" y1="150" x2="436.348203661845" y2="176.785714285714"
id="tick"
style="stroke:black;stroke-width:2.000000;stroke-opacity:1" />


<line
x1="451.348203661845" y1="150" x2="451.348203661845" y2="176.785714285714"
id="tick"
style="stroke:black;stroke-width:2.000000;stroke-opacity:1" />


<line
x1="466.348203661845" y1="150" x2="466.348203661845" y2="176.785714285714"
id="tick"
style="stroke:black;stroke-width:2.000000;stroke-opacity:1" />


<line
x1="481.348203661845" y1="150" x2="481.348203661845" y2="176.785714285714"
id="tick"
style="stroke:black;stroke-width:2.000000;stroke-opacity:1" />


<line
x1="496.348203661845" y1="150" x2="496.348203661845" y2="176.785714285714"
id="tick"
style="stroke:black;stroke-width:2.000000;stroke-opacity:1" />


<line
x1="511.348203661845" y1="150" x2="511.348203661845" y2="176.785714285714"
id="tick"
style="stroke:black;stroke-width:2.000000;stroke-opacity:1" />


<line
x1="526.348203661845" y1="150" x2="526.348203661845" y2="176.785714285714"
id="tick"
style="stroke:black;stroke-width:2.000000;stroke-opacity:1" />


<line
x1="541.348203661845" y1="150" x2="541.348203661845" y2="176.785714285714"
id="tick"
style="stroke:black;stroke-width:2.000000;stroke-opacity:1" />


<line
x1="556.348203661845" y1="150" x2="556.348203661845" y2="176.785714285714"
id="tick"
style="stroke:black;stroke-width:2.000000;stroke-opacity:1" />


<line
x1="571.348203661845" y1="150" x2="571.348203661845" y2="176.785714285714"
id="tick"
style="stroke:black;stroke-width:2.000000;stroke-opacity:1" />


<line
x1="586.348203661845" y1="150" x2="586.348203661845" y2="176.785714285714"
id="tick"
style="stroke:black;stroke-width:2.000000;stroke-opacity:1" />


<text
x="585.605629"
y="200.000000"
id="color.panel.max.value"
style="font-size:21.428571px;text-anchor:middle;font-family:Arial,Helvetica;alignment-baseline:baseline;stroke.opacity:1;dominant-baseline:baseline"
fill="black"
>
1</text>


<text
x="437.090778"
y="200.000000"
id="color.panel.low.value"
style="font-size:21.428571px;text-anchor:middle;font-family:Arial,Helvetica;alignment-baseline:baseline;stroke.opacity:1;dominant-baseline:baseline"
fill="black"
>
-1</text>


<text
x="512.833352"
y="200.000000"
id="color.panel.mid.value"
style="font-size:21.428571px;text-anchor:middle;font-family:Arial,Helvetica;alignment-baseline:baseline;stroke.opacity:1;dominant-baseline:baseline"
fill="black"
>
0</text>

</svg>
