<?xml version="1.0" encoding="UTF-8"?>
<svg width="769.500000" height="657.455050"
xmlns="http://www.w3.org/2000/svg" xmlns:svg="http://www.w3.org/2000/svg"
>
<metadata id="metadata7">image/svg+xml</metadata>

<rect
width="339.500000"
height="334.455050"
rx="11.000000"
ry="11.000000"
x="100.000000"
y="198.000000"
id="cytosol"
style="fill:white;fill-opacity:0.900000;stroke:black;stroke-width:5.000000;stroke-opacity:1.000000" />


<text
x="269.750000"
y="190.000000"
id="cytosol"
style="font-size:24.000000px;text-anchor:middle;font-family:Arial,Helvetica;alignment-baseline:baseline;stroke.opacity:1;dominant-baseline:baseline"
fill="black"
>
cytosol</text>


<rect
width="339.500000"
height="334.455050"
rx="11.000000"
ry="11.000000"
x="100.000000"
y="198.000000"
id="cytosol"
style="fill:white;fill-opacity:0.900000;stroke:black;stroke-width:5.000000;stroke-opacity:1.000000" />


<text
x="269.750000"
y="190.000000"
id="cytosol"
style="font-size:24.000000px;text-anchor:middle;font-family:Arial,Helvetica;alignment-baseline:baseline;stroke.opacity:1;dominant-baseline:baseline"
fill="black"
>
cytosol</text>

NULL
NULL
NULL





<path
d="M 358.5 358.894191624432 Q 358.5 358.894191624432 358.5 358.894191624432 L 376 358.894191624432 Q 376 358.894191624432 376 358.894191624432 L 376 398.894191624432 Q 376 398.894191624432 376 398.894191624432 L 362.5 398.894191624432 Q 358.5 398.894191624432 358.5 394.894191624432 Z"
id="Rna_84168dd7d44e2e3d3e7eccb5bf88341e"
style="fill:#FF0000;fill-opacity:1.000000;stroke-width:0.5;stroke:black;stroke-opacity:0.000000"
transform = "rotate(0.000000 0.000000 0.000000)"
/>


<text
x="367.250000"
y="380.394192"
id="Rna_84168dd7d44e2e3d3e7eccb5bf88341e"
style="font-size:4.500000px;text-anchor:middle;font-family:Arial,Helvetica;alignment-baseline:baseline;stroke.opacity:1;dominant-baseline:baseline"
fill="black"
>
 </text>



<path
d="M 376 358.894191624432 Q 376 358.894191624432 376 358.894191624432 L 393.5 358.894191624432 Q 393.5 358.894191624432 393.5 358.894191624432 L 393.5 398.894191624432 Q 393.5 398.894191624432 393.5 398.894191624432 L 376 398.894191624432 Q 376 398.894191624432 376 398.894191624432 Z"
id="Rna_84168dd7d44e2e3d3e7eccb5bf88341e"
style="fill:#9FC99F;fill-opacity:1.000000;stroke-width:0.5;stroke:black;stroke-opacity:0.000000"
transform = "rotate(0.000000 0.000000 0.000000)"
/>


<text
x="384.750000"
y="380.394192"
id="Rna_84168dd7d44e2e3d3e7eccb5bf88341e"
style="font-size:4.500000px;text-anchor:middle;font-family:Arial,Helvetica;alignment-baseline:baseline;stroke.opacity:1;dominant-baseline:baseline"
fill="black"
>
 </text>



<path
d="M 393.5 358.894191624432 Q 393.5 358.894191624432 393.5 358.894191624432 L 411 358.894191624432 Q 411 358.894191624432 411 358.894191624432 L 411 398.894191624432 Q 411 398.894191624432 411 398.894191624432 L 393.5 398.894191624432 Q 393.5 398.894191624432 393.5 398.894191624432 Z"
id="Rna_84168dd7d44e2e3d3e7eccb5bf88341e"
style="fill:#E54C4C;fill-opacity:1.000000;stroke-width:0.5;stroke:black;stroke-opacity:0.000000"
transform = "rotate(0.000000 0.000000 0.000000)"
/>


<text
x="402.250000"
y="380.394192"
id="Rna_84168dd7d44e2e3d3e7eccb5bf88341e"
style="font-size:4.500000px;text-anchor:middle;font-family:Arial,Helvetica;alignment-baseline:baseline;stroke.opacity:1;dominant-baseline:baseline"
fill="black"
>
 </text>



<path
d="M 411 358.894191624432 Q 411 358.894191624432 411 358.894191624432 L 428.5 358.894191624432 Q 428.5 358.894191624432 428.5 358.894191624432 L 428.5 394.894191624432 Q 428.5 398.894191624432 424.5 398.894191624432 L 411 398.894191624432 Q 411 398.894191624432 411 398.894191624432 Z"
id="Rna_84168dd7d44e2e3d3e7eccb5bf88341e"
style="fill:#FF0000;fill-opacity:1.000000;stroke-width:0.5;stroke:black;stroke-opacity:0.000000"
transform = "rotate(0.000000 0.000000 0.000000)"
/>


<text
x="419.750000"
y="380.394192"
id="Rna_84168dd7d44e2e3d3e7eccb5bf88341e"
style="font-size:4.500000px;text-anchor:middle;font-family:Arial,Helvetica;alignment-baseline:baseline;stroke.opacity:1;dominant-baseline:baseline"
fill="black"
>
 </text>


<path
d="M 358.5 358.894191624432 Q 358.5 358.894191624432 358.5 358.894191624432 L 428.5 358.894191624432 Q 428.5 358.894191624432 428.5 358.894191624432 L 428.5 391.894191624432 Q 428.5 398.894191624432 421.5 398.894191624432 L 365.5 398.894191624432 Q 358.5 398.894191624432 358.5 391.894191624432 Z"
id="Rna_84168dd7d44e2e3d3e7eccb5bf88341e"
style="fill:#FF0000;fill-opacity:0.000000;stroke-width:1;stroke:black;stroke-opacity:1.000000"
transform = "rotate(0.000000 0.000000 0.000000)"
/>



<text
x="393.500000"
y="366.894192"
id="Rna_84168dd7d44e2e3d3e7eccb5bf88341e"
style="font-size:18.000000px;text-anchor:middle;font-family:Arial,Helvetica;alignment-baseline:baseline;stroke.opacity:1;dominant-baseline:baseline"
fill="black"
>
HIV-1 u-</text>


<text
x="393.500000"
y="384.894192"
id="Rna_84168dd7d44e2e3d3e7eccb5bf88341e"
style="font-size:18.000000px;text-anchor:middle;font-family:Arial,Helvetica;alignment-baseline:baseline;stroke.opacity:1;dominant-baseline:baseline"
fill="black"
>
nsplice-</text>


<text
x="393.500000"
y="402.894192"
id="Rna_84168dd7d44e2e3d3e7eccb5bf88341e"
style="font-size:18.000000px;text-anchor:middle;font-family:Arial,Helvetica;alignment-baseline:baseline;stroke.opacity:1;dominant-baseline:baseline"
fill="black"
>
d RNA</text>


<rect
width="35.000000"
height="17.500000"
rx="0.000000"
ry="0.000000"
x="358.500000"
y="350.144192"
id="Rna_84168dd7d44e2e3d3e7eccb5bf88341e.info.1"
style="fill:white;fill-opacity:1.000000;stroke:black;stroke-width:1.000000;stroke-opacity:1.000000" />


<text
x="376.000000"
y="361.894192"
id="Rna_84168dd7d44e2e3d3e7eccb5bf88341e.info.1"
style="font-size:9.000000px;text-anchor:middle;font-family:Arial,Helvetica;alignment-baseline:baseline;stroke.opacity:1;dominant-baseline:baseline"
fill="black"
>
mt:RNA</text>




<rect
width="17.500000"
height="40.000000"
rx="1.750000"
ry="1.750000"
x="111.000000"
y="216.000000"
id="Protein_f25872533c41488d601ec1bd73f72141"
style="fill:#00FF00;fill-opacity:1.000000;stroke:black;stroke-width:0.500000;stroke-opacity:0.000000" />


<text
x="119.750000"
y="237.500000"
id="Protein_f25872533c41488d601ec1bd73f72141"
style="font-size:4.500000px;text-anchor:middle;font-family:Arial,Helvetica;alignment-baseline:baseline;stroke.opacity:1;dominant-baseline:baseline"
fill="black"
>
 </text>



<rect
width="17.500000"
height="40.000000"
rx="1.750000"
ry="1.750000"
x="128.500000"
y="216.000000"
id="Protein_f25872533c41488d601ec1bd73f72141"
style="fill:#D57A7A;fill-opacity:1.000000;stroke:black;stroke-width:0.500000;stroke-opacity:0.000000" />


<text
x="137.250000"
y="237.500000"
id="Protein_f25872533c41488d601ec1bd73f72141"
style="font-size:4.500000px;text-anchor:middle;font-family:Arial,Helvetica;alignment-baseline:baseline;stroke.opacity:1;dominant-baseline:baseline"
fill="black"
>
 </text>



<rect
width="17.500000"
height="40.000000"
rx="1.750000"
ry="1.750000"
x="146.000000"
y="216.000000"
id="Protein_f25872533c41488d601ec1bd73f72141"
style="fill:#42E842;fill-opacity:1.000000;stroke:black;stroke-width:0.500000;stroke-opacity:0.000000" />


<text
x="154.750000"
y="237.500000"
id="Protein_f25872533c41488d601ec1bd73f72141"
style="font-size:4.500000px;text-anchor:middle;font-family:Arial,Helvetica;alignment-baseline:baseline;stroke.opacity:1;dominant-baseline:baseline"
fill="black"
>
 </text>



<rect
width="17.500000"
height="40.000000"
rx="1.750000"
ry="1.750000"
x="163.500000"
y="216.000000"
id="Protein_f25872533c41488d601ec1bd73f72141"
style="fill:#00FF00;fill-opacity:1.000000;stroke:black;stroke-width:0.500000;stroke-opacity:0.000000" />


<text
x="172.250000"
y="237.500000"
id="Protein_f25872533c41488d601ec1bd73f72141"
style="font-size:4.500000px;text-anchor:middle;font-family:Arial,Helvetica;alignment-baseline:baseline;stroke.opacity:1;dominant-baseline:baseline"
fill="black"
>
 </text>


<rect
width="70.000000"
height="40.000000"
rx="4.000000"
ry="4.000000"
x="111.000000"
y="216.000000"
id="Protein_f25872533c41488d601ec1bd73f72141"
style="fill:#00FF00;fill-opacity:0.000000;stroke:black;stroke-width:1.000000;stroke-opacity:1.000000" />



<text
x="146.000000"
y="224.000000"
id="Protein_f25872533c41488d601ec1bd73f72141"
style="font-size:18.000000px;text-anchor:middle;font-family:Arial,Helvetica;alignment-baseline:baseline;stroke.opacity:1;dominant-baseline:baseline"
fill="black"
>
GAG Pol-</text>


<text
x="146.000000"
y="242.000000"
id="Protein_f25872533c41488d601ec1bd73f72141"
style="font-size:18.000000px;text-anchor:middle;font-family:Arial,Helvetica;alignment-baseline:baseline;stroke.opacity:1;dominant-baseline:baseline"
fill="black"
>
yprotei-</text>


<text
x="146.000000"
y="260.000000"
id="Protein_f25872533c41488d601ec1bd73f72141"
style="font-size:18.000000px;text-anchor:middle;font-family:Arial,Helvetica;alignment-baseline:baseline;stroke.opacity:1;dominant-baseline:baseline"
fill="black"
>
n (P04591)</text>


<rect
width="26.666667"
height="26.666667"
rx="0.000000"
ry="0.000000"
x="111.000000"
y="494.788383"
id="reactome_R-HSA-187213_LEFT_TO_RIGHT"
style="fill:white;fill-opacity:0.600000;stroke:black;stroke-width:1.000000;stroke-opacity:1.000000" />





<path d="M358.000000 395.000000 C 298.000000 424.000000, 178.000000 482.000000,137.000000 501.000000" stroke="black"  fill="transparent"/>

<line
x1="298" y1="424" x2="358" y2="395"
id="0"
style="stroke:black;stroke-width:1.000000;stroke-opacity:0" />


<line
x1="178" y1="482" x2="137" y2="501"
id="Rna_84168dd7d44e2e3d3e7eccb5bf88341e--to--reactome_R-HSA-187213_LEFT_TO_RIGHT-input"
style="stroke:black;stroke-width:1.000000;stroke-opacity:0" />


<path d="M144.000000 256.000000 C 140.000000 308.000000, 128.000000 450.000000,125.000000 494.000000" stroke="black"  fill="transparent"/>

<line
x1="128" y1="450" x2="125" y2="494"
id="0"
style="stroke:black;stroke-width:1.000000;stroke-opacity:0" />


<line
x1="140" y1="308" x2="144" y2="256"
id="reactome_R-HSA-187213_LEFT_TO_RIGHT-output--to--Protein_f25872533c41488d601ec1bd73f72141"
style="stroke:black;stroke-width:1.000000;stroke-opacity:0" />


<polygon
points = "144,256 135.2,251.6 135.2,260.4"
id="line"
style="fill:black; stroke:#000000; stroke-width:1"
transform = "rotate(-85.601295 144.000000 256.000000)"
/>





<rect
width="2.485149"
height="21.428571"
rx="0.000000"
ry="0.000000"
x="438.014851"
y="85.500000"
id="col.pan"
style="fill:#FF0000;fill-opacity:1.000000;stroke:black;stroke-width:0.000000;stroke-opacity:0.000000" />


<rect
width="2.485149"
height="21.428571"
rx="0.000000"
ry="0.000000"
x="436.529703"
y="85.500000"
id="col.pan"
style="fill:#FE0404;fill-opacity:1.000000;stroke:black;stroke-width:0.000000;stroke-opacity:0.000000" />


<rect
width="2.485149"
height="21.428571"
rx="0.000000"
ry="0.000000"
x="435.044554"
y="85.500000"
id="col.pan"
style="fill:#FC0808;fill-opacity:1.000000;stroke:black;stroke-width:0.000000;stroke-opacity:0.000000" />


<rect
width="2.485149"
height="21.428571"
rx="0.000000"
ry="0.000000"
x="433.559406"
y="85.500000"
id="col.pan"
style="fill:#FB0B0B;fill-opacity:1.000000;stroke:black;stroke-width:0.000000;stroke-opacity:0.000000" />


<rect
width="2.485149"
height="21.428571"
rx="0.000000"
ry="0.000000"
x="432.074257"
y="85.500000"
id="col.pan"
style="fill:#FA0F0F;fill-opacity:1.000000;stroke:black;stroke-width:0.000000;stroke-opacity:0.000000" />


<rect
width="2.485149"
height="21.428571"
rx="0.000000"
ry="0.000000"
x="430.589109"
y="85.500000"
id="col.pan"
style="fill:#F91313;fill-opacity:1.000000;stroke:black;stroke-width:0.000000;stroke-opacity:0.000000" />


<rect
width="2.485149"
height="21.428571"
rx="0.000000"
ry="0.000000"
x="429.103960"
y="85.500000"
id="col.pan"
style="fill:#F71717;fill-opacity:1.000000;stroke:black;stroke-width:0.000000;stroke-opacity:0.000000" />


<rect
width="2.485149"
height="21.428571"
rx="0.000000"
ry="0.000000"
x="427.618812"
y="85.500000"
id="col.pan"
style="fill:#F61B1B;fill-opacity:1.000000;stroke:black;stroke-width:0.000000;stroke-opacity:0.000000" />


<rect
width="2.485149"
height="21.428571"
rx="0.000000"
ry="0.000000"
x="426.133663"
y="85.500000"
id="col.pan"
style="fill:#F51E1E;fill-opacity:1.000000;stroke:black;stroke-width:0.000000;stroke-opacity:0.000000" />


<rect
width="2.485149"
height="21.428571"
rx="0.000000"
ry="0.000000"
x="424.648515"
y="85.500000"
id="col.pan"
style="fill:#F32222;fill-opacity:1.000000;stroke:black;stroke-width:0.000000;stroke-opacity:0.000000" />


<rect
width="2.485149"
height="21.428571"
rx="0.000000"
ry="0.000000"
x="423.163366"
y="85.500000"
id="col.pan"
style="fill:#F22626;fill-opacity:1.000000;stroke:black;stroke-width:0.000000;stroke-opacity:0.000000" />


<rect
width="2.485149"
height="21.428571"
rx="0.000000"
ry="0.000000"
x="421.678218"
y="85.500000"
id="col.pan"
style="fill:#F12A2A;fill-opacity:1.000000;stroke:black;stroke-width:0.000000;stroke-opacity:0.000000" />


<rect
width="2.485149"
height="21.428571"
rx="0.000000"
ry="0.000000"
x="420.193069"
y="85.500000"
id="col.pan"
style="fill:#EF2E2E;fill-opacity:1.000000;stroke:black;stroke-width:0.000000;stroke-opacity:0.000000" />


<rect
width="2.485149"
height="21.428571"
rx="0.000000"
ry="0.000000"
x="418.707921"
y="85.500000"
id="col.pan"
style="fill:#EE3131;fill-opacity:1.000000;stroke:black;stroke-width:0.000000;stroke-opacity:0.000000" />


<rect
width="2.485149"
height="21.428571"
rx="0.000000"
ry="0.000000"
x="417.222772"
y="85.500000"
id="col.pan"
style="fill:#ED3535;fill-opacity:1.000000;stroke:black;stroke-width:0.000000;stroke-opacity:0.000000" />


<rect
width="2.485149"
height="21.428571"
rx="0.000000"
ry="0.000000"
x="415.737624"
y="85.500000"
id="col.pan"
style="fill:#EC3939;fill-opacity:1.000000;stroke:black;stroke-width:0.000000;stroke-opacity:0.000000" />


<rect
width="2.485149"
height="21.428571"
rx="0.000000"
ry="0.000000"
x="414.252475"
y="85.500000"
id="col.pan"
style="fill:#EA3D3D;fill-opacity:1.000000;stroke:black;stroke-width:0.000000;stroke-opacity:0.000000" />


<rect
width="2.485149"
height="21.428571"
rx="0.000000"
ry="0.000000"
x="412.767327"
y="85.500000"
id="col.pan"
style="fill:#E94141;fill-opacity:1.000000;stroke:black;stroke-width:0.000000;stroke-opacity:0.000000" />


<rect
width="2.485149"
height="21.428571"
rx="0.000000"
ry="0.000000"
x="411.282178"
y="85.500000"
id="col.pan"
style="fill:#E84444;fill-opacity:1.000000;stroke:black;stroke-width:0.000000;stroke-opacity:0.000000" />


<rect
width="2.485149"
height="21.428571"
rx="0.000000"
ry="0.000000"
x="409.797030"
y="85.500000"
id="col.pan"
style="fill:#E64848;fill-opacity:1.000000;stroke:black;stroke-width:0.000000;stroke-opacity:0.000000" />


<rect
width="2.485149"
height="21.428571"
rx="0.000000"
ry="0.000000"
x="408.311881"
y="85.500000"
id="col.pan"
style="fill:#E54C4C;fill-opacity:1.000000;stroke:black;stroke-width:0.000000;stroke-opacity:0.000000" />


<rect
width="2.485149"
height="21.428571"
rx="0.000000"
ry="0.000000"
x="406.826733"
y="85.500000"
id="col.pan"
style="fill:#E45050;fill-opacity:1.000000;stroke:black;stroke-width:0.000000;stroke-opacity:0.000000" />


<rect
width="2.485149"
height="21.428571"
rx="0.000000"
ry="0.000000"
x="405.341584"
y="85.500000"
id="col.pan"
style="fill:#E25454;fill-opacity:1.000000;stroke:black;stroke-width:0.000000;stroke-opacity:0.000000" />


<rect
width="2.485149"
height="21.428571"
rx="0.000000"
ry="0.000000"
x="403.856436"
y="85.500000"
id="col.pan"
style="fill:#E15757;fill-opacity:1.000000;stroke:black;stroke-width:0.000000;stroke-opacity:0.000000" />


<rect
width="2.485149"
height="21.428571"
rx="0.000000"
ry="0.000000"
x="402.371287"
y="85.500000"
id="col.pan"
style="fill:#E05B5B;fill-opacity:1.000000;stroke:black;stroke-width:0.000000;stroke-opacity:0.000000" />


<rect
width="2.485149"
height="21.428571"
rx="0.000000"
ry="0.000000"
x="400.886139"
y="85.500000"
id="col.pan"
style="fill:#DF5F5F;fill-opacity:1.000000;stroke:black;stroke-width:0.000000;stroke-opacity:0.000000" />


<rect
width="2.485149"
height="21.428571"
rx="0.000000"
ry="0.000000"
x="399.400990"
y="85.500000"
id="col.pan"
style="fill:#DD6363;fill-opacity:1.000000;stroke:black;stroke-width:0.000000;stroke-opacity:0.000000" />


<rect
width="2.485149"
height="21.428571"
rx="0.000000"
ry="0.000000"
x="397.915842"
y="85.500000"
id="col.pan"
style="fill:#DC6767;fill-opacity:1.000000;stroke:black;stroke-width:0.000000;stroke-opacity:0.000000" />


<rect
width="2.485149"
height="21.428571"
rx="0.000000"
ry="0.000000"
x="396.430693"
y="85.500000"
id="col.pan"
style="fill:#DB6A6A;fill-opacity:1.000000;stroke:black;stroke-width:0.000000;stroke-opacity:0.000000" />


<rect
width="2.485149"
height="21.428571"
rx="0.000000"
ry="0.000000"
x="394.945545"
y="85.500000"
id="col.pan"
style="fill:#D96E6E;fill-opacity:1.000000;stroke:black;stroke-width:0.000000;stroke-opacity:0.000000" />


<rect
width="2.485149"
height="21.428571"
rx="0.000000"
ry="0.000000"
x="393.460396"
y="85.500000"
id="col.pan"
style="fill:#D87272;fill-opacity:1.000000;stroke:black;stroke-width:0.000000;stroke-opacity:0.000000" />


<rect
width="2.485149"
height="21.428571"
rx="0.000000"
ry="0.000000"
x="391.975248"
y="85.500000"
id="col.pan"
style="fill:#D77676;fill-opacity:1.000000;stroke:black;stroke-width:0.000000;stroke-opacity:0.000000" />


<rect
width="2.485149"
height="21.428571"
rx="0.000000"
ry="0.000000"
x="390.490099"
y="85.500000"
id="col.pan"
style="fill:#D57A7A;fill-opacity:1.000000;stroke:black;stroke-width:0.000000;stroke-opacity:0.000000" />


<rect
width="2.485149"
height="21.428571"
rx="0.000000"
ry="0.000000"
x="389.004950"
y="85.500000"
id="col.pan"
style="fill:#D47D7D;fill-opacity:1.000000;stroke:black;stroke-width:0.000000;stroke-opacity:0.000000" />


<rect
width="2.485149"
height="21.428571"
rx="0.000000"
ry="0.000000"
x="387.519802"
y="85.500000"
id="col.pan"
style="fill:#D38181;fill-opacity:1.000000;stroke:black;stroke-width:0.000000;stroke-opacity:0.000000" />


<rect
width="2.485149"
height="21.428571"
rx="0.000000"
ry="0.000000"
x="386.034653"
y="85.500000"
id="col.pan"
style="fill:#D28585;fill-opacity:1.000000;stroke:black;stroke-width:0.000000;stroke-opacity:0.000000" />


<rect
width="2.485149"
height="21.428571"
rx="0.000000"
ry="0.000000"
x="384.549505"
y="85.500000"
id="col.pan"
style="fill:#D08989;fill-opacity:1.000000;stroke:black;stroke-width:0.000000;stroke-opacity:0.000000" />


<rect
width="2.485149"
height="21.428571"
rx="0.000000"
ry="0.000000"
x="383.064356"
y="85.500000"
id="col.pan"
style="fill:#CF8D8D;fill-opacity:1.000000;stroke:black;stroke-width:0.000000;stroke-opacity:0.000000" />


<rect
width="2.485149"
height="21.428571"
rx="0.000000"
ry="0.000000"
x="381.579208"
y="85.500000"
id="col.pan"
style="fill:#CE9090;fill-opacity:1.000000;stroke:black;stroke-width:0.000000;stroke-opacity:0.000000" />


<rect
width="2.485149"
height="21.428571"
rx="0.000000"
ry="0.000000"
x="380.094059"
y="85.500000"
id="col.pan"
style="fill:#CC9494;fill-opacity:1.000000;stroke:black;stroke-width:0.000000;stroke-opacity:0.000000" />


<rect
width="2.485149"
height="21.428571"
rx="0.000000"
ry="0.000000"
x="378.608911"
y="85.500000"
id="col.pan"
style="fill:#CB9898;fill-opacity:1.000000;stroke:black;stroke-width:0.000000;stroke-opacity:0.000000" />


<rect
width="2.485149"
height="21.428571"
rx="0.000000"
ry="0.000000"
x="377.123762"
y="85.500000"
id="col.pan"
style="fill:#CA9C9C;fill-opacity:1.000000;stroke:black;stroke-width:0.000000;stroke-opacity:0.000000" />


<rect
width="2.485149"
height="21.428571"
rx="0.000000"
ry="0.000000"
x="375.638614"
y="85.500000"
id="col.pan"
style="fill:#C8A0A0;fill-opacity:1.000000;stroke:black;stroke-width:0.000000;stroke-opacity:0.000000" />


<rect
width="2.485149"
height="21.428571"
rx="0.000000"
ry="0.000000"
x="374.153465"
y="85.500000"
id="col.pan"
style="fill:#C7A3A3;fill-opacity:1.000000;stroke:black;stroke-width:0.000000;stroke-opacity:0.000000" />


<rect
width="2.485149"
height="21.428571"
rx="0.000000"
ry="0.000000"
x="372.668317"
y="85.500000"
id="col.pan"
style="fill:#C6A7A7;fill-opacity:1.000000;stroke:black;stroke-width:0.000000;stroke-opacity:0.000000" />


<rect
width="2.485149"
height="21.428571"
rx="0.000000"
ry="0.000000"
x="371.183168"
y="85.500000"
id="col.pan"
style="fill:#C5ABAB;fill-opacity:1.000000;stroke:black;stroke-width:0.000000;stroke-opacity:0.000000" />


<rect
width="2.485149"
height="21.428571"
rx="0.000000"
ry="0.000000"
x="369.698020"
y="85.500000"
id="col.pan"
style="fill:#C3AFAF;fill-opacity:1.000000;stroke:black;stroke-width:0.000000;stroke-opacity:0.000000" />


<rect
width="2.485149"
height="21.428571"
rx="0.000000"
ry="0.000000"
x="368.212871"
y="85.500000"
id="col.pan"
style="fill:#C2B3B3;fill-opacity:1.000000;stroke:black;stroke-width:0.000000;stroke-opacity:0.000000" />


<rect
width="2.485149"
height="21.428571"
rx="0.000000"
ry="0.000000"
x="366.727723"
y="85.500000"
id="col.pan"
style="fill:#C1B6B6;fill-opacity:1.000000;stroke:black;stroke-width:0.000000;stroke-opacity:0.000000" />


<rect
width="2.485149"
height="21.428571"
rx="0.000000"
ry="0.000000"
x="365.242574"
y="85.500000"
id="col.pan"
style="fill:#BFBABA;fill-opacity:1.000000;stroke:black;stroke-width:0.000000;stroke-opacity:0.000000" />


<rect
width="2.485149"
height="21.428571"
rx="0.000000"
ry="0.000000"
x="363.757426"
y="85.500000"
id="col.pan"
style="fill:#BEBEBE;fill-opacity:1.000000;stroke:black;stroke-width:0.000000;stroke-opacity:0.000000" />


<rect
width="2.485149"
height="21.428571"
rx="0.000000"
ry="0.000000"
x="362.272277"
y="85.500000"
id="col.pan"
style="fill:#BABFBA;fill-opacity:1.000000;stroke:black;stroke-width:0.000000;stroke-opacity:0.000000" />


<rect
width="2.485149"
height="21.428571"
rx="0.000000"
ry="0.000000"
x="360.787129"
y="85.500000"
id="col.pan"
style="fill:#B6C1B6;fill-opacity:1.000000;stroke:black;stroke-width:0.000000;stroke-opacity:0.000000" />


<rect
width="2.485149"
height="21.428571"
rx="0.000000"
ry="0.000000"
x="359.301980"
y="85.500000"
id="col.pan"
style="fill:#B3C2B3;fill-opacity:1.000000;stroke:black;stroke-width:0.000000;stroke-opacity:0.000000" />


<rect
width="2.485149"
height="21.428571"
rx="0.000000"
ry="0.000000"
x="357.816832"
y="85.500000"
id="col.pan"
style="fill:#AFC3AF;fill-opacity:1.000000;stroke:black;stroke-width:0.000000;stroke-opacity:0.000000" />


<rect
width="2.485149"
height="21.428571"
rx="0.000000"
ry="0.000000"
x="356.331683"
y="85.500000"
id="col.pan"
style="fill:#ABC5AB;fill-opacity:1.000000;stroke:black;stroke-width:0.000000;stroke-opacity:0.000000" />


<rect
width="2.485149"
height="21.428571"
rx="0.000000"
ry="0.000000"
x="354.846535"
y="85.500000"
id="col.pan"
style="fill:#A7C6A7;fill-opacity:1.000000;stroke:black;stroke-width:0.000000;stroke-opacity:0.000000" />


<rect
width="2.485149"
height="21.428571"
rx="0.000000"
ry="0.000000"
x="353.361386"
y="85.500000"
id="col.pan"
style="fill:#A3C7A3;fill-opacity:1.000000;stroke:black;stroke-width:0.000000;stroke-opacity:0.000000" />


<rect
width="2.485149"
height="21.428571"
rx="0.000000"
ry="0.000000"
x="351.876238"
y="85.500000"
id="col.pan"
style="fill:#A0C8A0;fill-opacity:1.000000;stroke:black;stroke-width:0.000000;stroke-opacity:0.000000" />


<rect
width="2.485149"
height="21.428571"
rx="0.000000"
ry="0.000000"
x="350.391089"
y="85.500000"
id="col.pan"
style="fill:#9CCA9C;fill-opacity:1.000000;stroke:black;stroke-width:0.000000;stroke-opacity:0.000000" />


<rect
width="2.485149"
height="21.428571"
rx="0.000000"
ry="0.000000"
x="348.905941"
y="85.500000"
id="col.pan"
style="fill:#98CB98;fill-opacity:1.000000;stroke:black;stroke-width:0.000000;stroke-opacity:0.000000" />


<rect
width="2.485149"
height="21.428571"
rx="0.000000"
ry="0.000000"
x="347.420792"
y="85.500000"
id="col.pan"
style="fill:#94CC94;fill-opacity:1.000000;stroke:black;stroke-width:0.000000;stroke-opacity:0.000000" />


<rect
width="2.485149"
height="21.428571"
rx="0.000000"
ry="0.000000"
x="345.935644"
y="85.500000"
id="col.pan"
style="fill:#90CE90;fill-opacity:1.000000;stroke:black;stroke-width:0.000000;stroke-opacity:0.000000" />


<rect
width="2.485149"
height="21.428571"
rx="0.000000"
ry="0.000000"
x="344.450495"
y="85.500000"
id="col.pan"
style="fill:#8DCF8D;fill-opacity:1.000000;stroke:black;stroke-width:0.000000;stroke-opacity:0.000000" />


<rect
width="2.485149"
height="21.428571"
rx="0.000000"
ry="0.000000"
x="342.965347"
y="85.500000"
id="col.pan"
style="fill:#89D089;fill-opacity:1.000000;stroke:black;stroke-width:0.000000;stroke-opacity:0.000000" />


<rect
width="2.485149"
height="21.428571"
rx="0.000000"
ry="0.000000"
x="341.480198"
y="85.500000"
id="col.pan"
style="fill:#85D285;fill-opacity:1.000000;stroke:black;stroke-width:0.000000;stroke-opacity:0.000000" />


<rect
width="2.485149"
height="21.428571"
rx="0.000000"
ry="0.000000"
x="339.995050"
y="85.500000"
id="col.pan"
style="fill:#81D381;fill-opacity:1.000000;stroke:black;stroke-width:0.000000;stroke-opacity:0.000000" />


<rect
width="2.485149"
height="21.428571"
rx="0.000000"
ry="0.000000"
x="338.509901"
y="85.500000"
id="col.pan"
style="fill:#7DD47D;fill-opacity:1.000000;stroke:black;stroke-width:0.000000;stroke-opacity:0.000000" />


<rect
width="2.485149"
height="21.428571"
rx="0.000000"
ry="0.000000"
x="337.024752"
y="85.500000"
id="col.pan"
style="fill:#7AD57A;fill-opacity:1.000000;stroke:black;stroke-width:0.000000;stroke-opacity:0.000000" />


<rect
width="2.485149"
height="21.428571"
rx="0.000000"
ry="0.000000"
x="335.539604"
y="85.500000"
id="col.pan"
style="fill:#76D776;fill-opacity:1.000000;stroke:black;stroke-width:0.000000;stroke-opacity:0.000000" />


<rect
width="2.485149"
height="21.428571"
rx="0.000000"
ry="0.000000"
x="334.054455"
y="85.500000"
id="col.pan"
style="fill:#72D872;fill-opacity:1.000000;stroke:black;stroke-width:0.000000;stroke-opacity:0.000000" />


<rect
width="2.485149"
height="21.428571"
rx="0.000000"
ry="0.000000"
x="332.569307"
y="85.500000"
id="col.pan"
style="fill:#6ED96E;fill-opacity:1.000000;stroke:black;stroke-width:0.000000;stroke-opacity:0.000000" />


<rect
width="2.485149"
height="21.428571"
rx="0.000000"
ry="0.000000"
x="331.084158"
y="85.500000"
id="col.pan"
style="fill:#6ADB6A;fill-opacity:1.000000;stroke:black;stroke-width:0.000000;stroke-opacity:0.000000" />


<rect
width="2.485149"
height="21.428571"
rx="0.000000"
ry="0.000000"
x="329.599010"
y="85.500000"
id="col.pan"
style="fill:#67DC67;fill-opacity:1.000000;stroke:black;stroke-width:0.000000;stroke-opacity:0.000000" />


<rect
width="2.485149"
height="21.428571"
rx="0.000000"
ry="0.000000"
x="328.113861"
y="85.500000"
id="col.pan"
style="fill:#63DD63;fill-opacity:1.000000;stroke:black;stroke-width:0.000000;stroke-opacity:0.000000" />


<rect
width="2.485149"
height="21.428571"
rx="0.000000"
ry="0.000000"
x="326.628713"
y="85.500000"
id="col.pan"
style="fill:#5FDF5F;fill-opacity:1.000000;stroke:black;stroke-width:0.000000;stroke-opacity:0.000000" />


<rect
width="2.485149"
height="21.428571"
rx="0.000000"
ry="0.000000"
x="325.143564"
y="85.500000"
id="col.pan"
style="fill:#5BE05B;fill-opacity:1.000000;stroke:black;stroke-width:0.000000;stroke-opacity:0.000000" />


<rect
width="2.485149"
height="21.428571"
rx="0.000000"
ry="0.000000"
x="323.658416"
y="85.500000"
id="col.pan"
style="fill:#57E157;fill-opacity:1.000000;stroke:black;stroke-width:0.000000;stroke-opacity:0.000000" />


<rect
width="2.485149"
height="21.428571"
rx="0.000000"
ry="0.000000"
x="322.173267"
y="85.500000"
id="col.pan"
style="fill:#54E254;fill-opacity:1.000000;stroke:black;stroke-width:0.000000;stroke-opacity:0.000000" />


<rect
width="2.485149"
height="21.428571"
rx="0.000000"
ry="0.000000"
x="320.688119"
y="85.500000"
id="col.pan"
style="fill:#50E450;fill-opacity:1.000000;stroke:black;stroke-width:0.000000;stroke-opacity:0.000000" />


<rect
width="2.485149"
height="21.428571"
rx="0.000000"
ry="0.000000"
x="319.202970"
y="85.500000"
id="col.pan"
style="fill:#4CE54C;fill-opacity:1.000000;stroke:black;stroke-width:0.000000;stroke-opacity:0.000000" />


<rect
width="2.485149"
height="21.428571"
rx="0.000000"
ry="0.000000"
x="317.717822"
y="85.500000"
id="col.pan"
style="fill:#48E648;fill-opacity:1.000000;stroke:black;stroke-width:0.000000;stroke-opacity:0.000000" />


<rect
width="2.485149"
height="21.428571"
rx="0.000000"
ry="0.000000"
x="316.232673"
y="85.500000"
id="col.pan"
style="fill:#44E844;fill-opacity:1.000000;stroke:black;stroke-width:0.000000;stroke-opacity:0.000000" />


<rect
width="2.485149"
height="21.428571"
rx="0.000000"
ry="0.000000"
x="314.747525"
y="85.500000"
id="col.pan"
style="fill:#41E941;fill-opacity:1.000000;stroke:black;stroke-width:0.000000;stroke-opacity:0.000000" />


<rect
width="2.485149"
height="21.428571"
rx="0.000000"
ry="0.000000"
x="313.262376"
y="85.500000"
id="col.pan"
style="fill:#3DEA3D;fill-opacity:1.000000;stroke:black;stroke-width:0.000000;stroke-opacity:0.000000" />


<rect
width="2.485149"
height="21.428571"
rx="0.000000"
ry="0.000000"
x="311.777228"
y="85.500000"
id="col.pan"
style="fill:#39EC39;fill-opacity:1.000000;stroke:black;stroke-width:0.000000;stroke-opacity:0.000000" />


<rect
width="2.485149"
height="21.428571"
rx="0.000000"
ry="0.000000"
x="310.292079"
y="85.500000"
id="col.pan"
style="fill:#35ED35;fill-opacity:1.000000;stroke:black;stroke-width:0.000000;stroke-opacity:0.000000" />


<rect
width="2.485149"
height="21.428571"
rx="0.000000"
ry="0.000000"
x="308.806931"
y="85.500000"
id="col.pan"
style="fill:#31EE31;fill-opacity:1.000000;stroke:black;stroke-width:0.000000;stroke-opacity:0.000000" />


<rect
width="2.485149"
height="21.428571"
rx="0.000000"
ry="0.000000"
x="307.321782"
y="85.500000"
id="col.pan"
style="fill:#2EEF2E;fill-opacity:1.000000;stroke:black;stroke-width:0.000000;stroke-opacity:0.000000" />


<rect
width="2.485149"
height="21.428571"
rx="0.000000"
ry="0.000000"
x="305.836634"
y="85.500000"
id="col.pan"
style="fill:#2AF12A;fill-opacity:1.000000;stroke:black;stroke-width:0.000000;stroke-opacity:0.000000" />


<rect
width="2.485149"
height="21.428571"
rx="0.000000"
ry="0.000000"
x="304.351485"
y="85.500000"
id="col.pan"
style="fill:#26F226;fill-opacity:1.000000;stroke:black;stroke-width:0.000000;stroke-opacity:0.000000" />


<rect
width="2.485149"
height="21.428571"
rx="0.000000"
ry="0.000000"
x="302.866337"
y="85.500000"
id="col.pan"
style="fill:#22F322;fill-opacity:1.000000;stroke:black;stroke-width:0.000000;stroke-opacity:0.000000" />


<rect
width="2.485149"
height="21.428571"
rx="0.000000"
ry="0.000000"
x="301.381188"
y="85.500000"
id="col.pan"
style="fill:#1EF51E;fill-opacity:1.000000;stroke:black;stroke-width:0.000000;stroke-opacity:0.000000" />


<rect
width="2.485149"
height="21.428571"
rx="0.000000"
ry="0.000000"
x="299.896040"
y="85.500000"
id="col.pan"
style="fill:#1BF61B;fill-opacity:1.000000;stroke:black;stroke-width:0.000000;stroke-opacity:0.000000" />


<rect
width="2.485149"
height="21.428571"
rx="0.000000"
ry="0.000000"
x="298.410891"
y="85.500000"
id="col.pan"
style="fill:#17F717;fill-opacity:1.000000;stroke:black;stroke-width:0.000000;stroke-opacity:0.000000" />


<rect
width="2.485149"
height="21.428571"
rx="0.000000"
ry="0.000000"
x="296.925743"
y="85.500000"
id="col.pan"
style="fill:#13F913;fill-opacity:1.000000;stroke:black;stroke-width:0.000000;stroke-opacity:0.000000" />


<rect
width="2.485149"
height="21.428571"
rx="0.000000"
ry="0.000000"
x="295.440594"
y="85.500000"
id="col.pan"
style="fill:#0FFA0F;fill-opacity:1.000000;stroke:black;stroke-width:0.000000;stroke-opacity:0.000000" />


<rect
width="2.485149"
height="21.428571"
rx="0.000000"
ry="0.000000"
x="293.955446"
y="85.500000"
id="col.pan"
style="fill:#0BFB0B;fill-opacity:1.000000;stroke:black;stroke-width:0.000000;stroke-opacity:0.000000" />


<rect
width="2.485149"
height="21.428571"
rx="0.000000"
ry="0.000000"
x="292.470297"
y="85.500000"
id="col.pan"
style="fill:#08FC08;fill-opacity:1.000000;stroke:black;stroke-width:0.000000;stroke-opacity:0.000000" />


<rect
width="2.485149"
height="21.428571"
rx="0.000000"
ry="0.000000"
x="290.985149"
y="85.500000"
id="col.pan"
style="fill:#04FE04;fill-opacity:1.000000;stroke:black;stroke-width:0.000000;stroke-opacity:0.000000" />


<rect
width="2.485149"
height="21.428571"
rx="0.000000"
ry="0.000000"
x="289.500000"
y="85.500000"
id="col.pan"
style="fill:#00FF00;fill-opacity:1.000000;stroke:black;stroke-width:0.000000;stroke-opacity:0.000000" />


<line
x1="289.5" y1="85.5" x2="289.5" y2="112.285714285714"
id="tick"
style="stroke:black;stroke-width:2.000000;stroke-opacity:1" />


<line
x1="304.5" y1="85.5" x2="304.5" y2="112.285714285714"
id="tick"
style="stroke:black;stroke-width:2.000000;stroke-opacity:1" />


<line
x1="319.5" y1="85.5" x2="319.5" y2="112.285714285714"
id="tick"
style="stroke:black;stroke-width:2.000000;stroke-opacity:1" />


<line
x1="334.5" y1="85.5" x2="334.5" y2="112.285714285714"
id="tick"
style="stroke:black;stroke-width:2.000000;stroke-opacity:1" />


<line
x1="349.5" y1="85.5" x2="349.5" y2="112.285714285714"
id="tick"
style="stroke:black;stroke-width:2.000000;stroke-opacity:1" />


<line
x1="364.5" y1="85.5" x2="364.5" y2="112.285714285714"
id="tick"
style="stroke:black;stroke-width:2.000000;stroke-opacity:1" />


<line
x1="379.5" y1="85.5" x2="379.5" y2="112.285714285714"
id="tick"
style="stroke:black;stroke-width:2.000000;stroke-opacity:1" />


<line
x1="394.5" y1="85.5" x2="394.5" y2="112.285714285714"
id="tick"
style="stroke:black;stroke-width:2.000000;stroke-opacity:1" />


<line
x1="409.5" y1="85.5" x2="409.5" y2="112.285714285714"
id="tick"
style="stroke:black;stroke-width:2.000000;stroke-opacity:1" />


<line
x1="424.5" y1="85.5" x2="424.5" y2="112.285714285714"
id="tick"
style="stroke:black;stroke-width:2.000000;stroke-opacity:1" />


<line
x1="439.5" y1="85.5" x2="439.5" y2="112.285714285714"
id="tick"
style="stroke:black;stroke-width:2.000000;stroke-opacity:1" />


<text
x="438.757426"
y="135.500000"
id="color.panel.max.value"
style="font-size:21.428571px;text-anchor:middle;font-family:Arial,Helvetica;alignment-baseline:baseline;stroke.opacity:1;dominant-baseline:baseline"
fill="black"
>
1</text>


<text
x="290.242574"
y="135.500000"
id="color.panel.low.value"
style="font-size:21.428571px;text-anchor:middle;font-family:Arial,Helvetica;alignment-baseline:baseline;stroke.opacity:1;dominant-baseline:baseline"
fill="black"
>
-1</text>


<text
x="365.985149"
y="135.500000"
id="color.panel.mid.value"
style="font-size:21.428571px;text-anchor:middle;font-family:Arial,Helvetica;alignment-baseline:baseline;stroke.opacity:1;dominant-baseline:baseline"
fill="black"
>
0</text>


</svg>
