<?xml version="1.0" encoding="UTF-8"?>
<svg width="747.500000" height="600.788383"
xmlns="http://www.w3.org/2000/svg" xmlns:svg="http://www.w3.org/2000/svg"
>
<metadata id="metadata7">image/svg+xml</metadata>




<rect
width="26.666667"
height="26.666667"
rx="0.000000"
ry="0.000000"
x="100.000000"
y="150.000000"
id="wikipathways_WP236_bd8e5"
style="fill:white;fill-opacity:0.600000;stroke:black;stroke-width:1.000000;stroke-opacity:1.000000" />



<text
x="113.333333"
y="171.333333"
id="wikipathways_WP236_bd8e5"
style="font-size:24.000000px;text-anchor:middle;font-family:Arial,Helvetica;alignment-baseline:baseline;stroke.opacity:1;dominant-baseline:baseline"
fill="black"
>
\\</text>



<ellipse
rx="35.000000"
ry="20.000000"
cx="382.500000"
cy="312.894192"
id="wikipathways_WP236_edf"
style="fill:#00FF00;fill-opacity:0.600000;stroke:black;stroke-width:1.000000;stroke-opacity:0.000000" />


<path
d="M 365 330.214699700121 A 35 20 1 1 0 365 295.573683548743"
id="wikipathways_WP236_edf"
style="fill:#FF0000;fill-opacity:0.600000;stroke-width:1;stroke:black;stroke-opacity:0.000000"
transform = "rotate(0.000000 0.000000 0.000000)"
/>


<path
d="M 382.5 332.894191624432 A 35 20 1 1 0 382.5 292.894191624432"
id="wikipathways_WP236_edf"
style="fill:white;fill-opacity:0.600000;stroke-width:1;stroke:black;stroke-opacity:0.000000"
transform = "rotate(0.000000 0.000000 0.000000)"
/>


<path
d="M 382.5 332.894191624432 A 35 20 1 1 0 382.5 292.894191624432"
id="wikipathways_WP236_edf"
style="fill:#8AD08A;fill-opacity:0.600000;stroke-width:1;stroke:black;stroke-opacity:0.000000"
transform = "rotate(0.000000 0.000000 0.000000)"
/>


<path
d="M 400 330.214699700121 A 35 20 1 0 0 400 295.573683548743"
id="wikipathways_WP236_edf"
style="fill:white;fill-opacity:0.600000;stroke-width:1;stroke:black;stroke-opacity:0.000000"
transform = "rotate(0.000000 0.000000 0.000000)"
/>


<path
d="M 400 330.214699700121 A 35 20 1 0 0 400 295.573683548743"
id="wikipathways_WP236_edf"
style="fill:#00FF00;fill-opacity:0.600000;stroke-width:1;stroke:black;stroke-opacity:0.000000"
transform = "rotate(0.000000 0.000000 0.000000)"
/>


<path
d="M 417.5 312.894191624432 A 35 20 1 0 0 417.5 312.894191624432"
id="wikipathways_WP236_edf"
style="fill:white;fill-opacity:0.600000;stroke-width:1;stroke:black;stroke-opacity:0.000000"
transform = "rotate(0.000000 0.000000 0.000000)"
/>


<ellipse
rx="35.000000"
ry="20.000000"
cx="382.500000"
cy="312.894192"
id="wikipathways_WP236_edf"
style="fill:white;fill-opacity:0.000000;stroke:black;stroke-width:1.000000;stroke-opacity:1.000000" />


<text
x="382.500000"
y="318.894192"
id="wikipathways_WP236_edf"
style="font-size:18.000000px;text-anchor:middle;font-family:Arial,Helvetica;alignment-baseline:baseline;stroke.opacity:1;dominant-baseline:baseline"
fill="black"
>
noname</text>



<ellipse
rx="35.000000"
ry="20.000000"
cx="135.000000"
cy="455.788383"
id="wikipathways_WP236_eaf"
style="fill:#FF0000;fill-opacity:0.600000;stroke:black;stroke-width:1.000000;stroke-opacity:0.000000" />


<path
d="M 117.5 473.108891324554 A 35 20 1 1 0 117.5 438.467875173176"
id="wikipathways_WP236_eaf"
style="fill:#D08A8A;fill-opacity:0.600000;stroke-width:1;stroke:black;stroke-opacity:0.000000"
transform = "rotate(0.000000 0.000000 0.000000)"
/>


<path
d="M 135 475.788383248865 A 35 20 1 1 0 135 435.788383248865"
id="wikipathways_WP236_eaf"
style="fill:white;fill-opacity:0.600000;stroke-width:1;stroke:black;stroke-opacity:0.000000"
transform = "rotate(0.000000 0.000000 0.000000)"
/>


<path
d="M 135 475.788383248865 A 35 20 1 1 0 135 435.788383248865"
id="wikipathways_WP236_eaf"
style="fill:#FF0000;fill-opacity:0.600000;stroke-width:1;stroke:black;stroke-opacity:0.000000"
transform = "rotate(0.000000 0.000000 0.000000)"
/>


<path
d="M 152.5 473.108891324554 A 35 20 1 0 0 152.5 438.467875173176"
id="wikipathways_WP236_eaf"
style="fill:white;fill-opacity:0.600000;stroke-width:1;stroke:black;stroke-opacity:0.000000"
transform = "rotate(0.000000 0.000000 0.000000)"
/>


<path
d="M 152.5 473.108891324554 A 35 20 1 0 0 152.5 438.467875173176"
id="wikipathways_WP236_eaf"
style="fill:#DD6464;fill-opacity:0.600000;stroke-width:1;stroke:black;stroke-opacity:0.000000"
transform = "rotate(0.000000 0.000000 0.000000)"
/>


<path
d="M 170 455.788383248865 A 35 20 1 0 0 170 455.788383248865"
id="wikipathways_WP236_eaf"
style="fill:white;fill-opacity:0.600000;stroke-width:1;stroke:black;stroke-opacity:0.000000"
transform = "rotate(0.000000 0.000000 0.000000)"
/>


<ellipse
rx="35.000000"
ry="20.000000"
cx="135.000000"
cy="455.788383"
id="wikipathways_WP236_eaf"
style="fill:white;fill-opacity:0.000000;stroke:black;stroke-width:1.000000;stroke-opacity:1.000000" />


<text
x="135.000000"
y="461.788383"
id="wikipathways_WP236_eaf"
style="font-size:18.000000px;text-anchor:middle;font-family:Arial,Helvetica;alignment-baseline:baseline;stroke.opacity:1;dominant-baseline:baseline"
fill="black"
>
noname</text>




<path d="M127.000000 170.000000 C 167.000000 193.000000, 287.000000 260.000000,347.000000 293.000000" stroke="black"  fill="transparent"/>

<line
x1="287" y1="260" x2="347" y2="293"
id="0"
style="stroke:black;stroke-width:1.000000;stroke-opacity:0" />


<line
x1="167" y1="193" x2="127" y2="170"
id="wikipathways_WP236_edf--to--wikipathways_WP236_bd8e5-input"
style="stroke:black;stroke-width:1.000000;stroke-opacity:0" />


<polygon
points = "127,170 113.8,165.6 118.2,170 113.8,174.4"
id="line"
style="fill:black; stroke:#000000; stroke-width:1"
transform = "rotate(209.898902 127.000000 170.000000)"
/>


<path d="M114.000000 177.000000 C 117.000000 224.000000, 129.000000 379.000000,133.000000 435.000000" stroke="black"  fill="transparent"/>

<line
x1="129" y1="379" x2="133" y2="435"
id="0"
style="stroke:black;stroke-width:1.000000;stroke-opacity:0" />


<line
x1="117" y1="224" x2="114" y2="177"
id="wikipathways_WP236_eaf--to--wikipathways_WP236_bd8e5-input"
style="stroke:black;stroke-width:1.000000;stroke-opacity:0" />


<polygon
points = "114,177 100.8,172.6 105.2,177 100.8,181.4"
id="line"
style="fill:black; stroke:#000000; stroke-width:1"
transform = "rotate(266.347777 114.000000 177.000000)"
/>





</svg>
