<?xml version="1.0" encoding="UTF-8"?>
<svg width="548.000000" height="670.788383"
xmlns="http://www.w3.org/2000/svg" xmlns:svg="http://www.w3.org/2000/svg"
>
<metadata id="metadata7">image/svg+xml</metadata>

<rect
width="92.000000"
height="347.788383"
rx="11.000000"
ry="11.000000"
x="121.500000"
y="198.000000"
id="cytosol"
style="fill:white;fill-opacity:0.900000;stroke:black;stroke-width:5.000000;stroke-opacity:1.000000" />


<text
x="167.500000"
y="190.000000"
id="cytosol"
style="font-size:24.000000px;text-anchor:middle;font-family:Arial,Helvetica;alignment-baseline:baseline;stroke.opacity:1;dominant-baseline:baseline"
fill="black"
>
cytosol</text>


<rect
width="92.000000"
height="62.000000"
rx="11.000000"
ry="11.000000"
x="126.000000"
y="340.894192"
id="integral_component_of_cytoplasmic_side_of_endoplasmic_reticulum_membrane"
style="fill:white;fill-opacity:0.900000;stroke:black;stroke-width:5.000000;stroke-opacity:1.000000" />



<text
x="172.000000"
y="308.894192"
id="integral_component_of_cytoplasmic_side_of_endoplasmic_reticulum_membrane"
style="font-size:24.000000px;text-anchor:middle;font-family:Arial,Helvetica;alignment-baseline:baseline;stroke.opacity:1;dominant-baseline:baseline"
fill="black"
>
compart-</text>


<text
x="172.000000"
y="332.894192"
id="integral_component_of_cytoplasmic_side_of_endoplasmic_reticulum_membrane"
style="font-size:24.000000px;text-anchor:middle;font-family:Arial,Helvetica;alignment-baseline:baseline;stroke.opacity:1;dominant-baseline:baseline"
fill="black"
>
ment_1</text>





<ellipse
rx="35.000000"
ry="20.000000"
cx="167.500000"
cy="514.788383"
id="SmallMolecule_1b45fa12e0e7958c48c01a283f2ef2ae"
style="fill:#4B4BE5;fill-opacity:0.600000;stroke:black;stroke-width:1.000000;stroke-opacity:0.000000" />


<path
d="M 150 532.108891324554 A 35 20 1 1 0 150 497.467875173176"
id="SmallMolecule_1b45fa12e0e7958c48c01a283f2ef2ae"
style="fill:#8F8FCE;fill-opacity:0.600000;stroke-width:1;stroke:black;stroke-opacity:0.000000"
transform = "rotate(0.000000 0.000000 0.000000)"
/>


<path
d="M 167.5 534.788383248865 A 35 20 1 1 0 167.5 494.788383248865"
id="SmallMolecule_1b45fa12e0e7958c48c01a283f2ef2ae"
style="fill:white;fill-opacity:0.600000;stroke-width:1;stroke:black;stroke-opacity:0.000000"
transform = "rotate(0.000000 0.000000 0.000000)"
/>


<path
d="M 167.5 534.788383248865 A 35 20 1 1 0 167.5 494.788383248865"
id="SmallMolecule_1b45fa12e0e7958c48c01a283f2ef2ae"
style="fill:#3C3CEA;fill-opacity:0.600000;stroke-width:1;stroke:black;stroke-opacity:0.000000"
transform = "rotate(0.000000 0.000000 0.000000)"
/>


<path
d="M 185 532.108891324554 A 35 20 1 0 0 185 497.467875173176"
id="SmallMolecule_1b45fa12e0e7958c48c01a283f2ef2ae"
style="fill:white;fill-opacity:0.600000;stroke-width:1;stroke:black;stroke-opacity:0.000000"
transform = "rotate(0.000000 0.000000 0.000000)"
/>


<path
d="M 185 532.108891324554 A 35 20 1 0 0 185 497.467875173176"
id="SmallMolecule_1b45fa12e0e7958c48c01a283f2ef2ae"
style="fill:#9797CB;fill-opacity:0.600000;stroke-width:1;stroke:black;stroke-opacity:0.000000"
transform = "rotate(0.000000 0.000000 0.000000)"
/>


<path
d="M 202.5 514.788383248865 A 35 20 1 0 0 202.5 514.788383248865"
id="SmallMolecule_1b45fa12e0e7958c48c01a283f2ef2ae"
style="fill:white;fill-opacity:0.600000;stroke-width:1;stroke:black;stroke-opacity:0.000000"
transform = "rotate(0.000000 0.000000 0.000000)"
/>


<ellipse
rx="35.000000"
ry="20.000000"
cx="167.500000"
cy="514.788383"
id="SmallMolecule_1b45fa12e0e7958c48c01a283f2ef2ae"
style="fill:white;fill-opacity:0.000000;stroke:black;stroke-width:1.000000;stroke-opacity:1.000000" />


<text
x="167.500000"
y="520.788383"
id="SmallMolecule_1b45fa12e0e7958c48c01a283f2ef2ae"
style="font-size:18.000000px;text-anchor:middle;font-family:Arial,Helvetica;alignment-baseline:baseline;stroke.opacity:1;dominant-baseline:baseline"
fill="black"
>
GDP-Man</text>


<rect
width="26.666667"
height="26.666667"
rx="0.000000"
ry="0.000000"
x="132.500000"
y="209.000000"
id="reactome_R-HSA-4551297_LEFT_TO_RIGHT"
style="fill:white;fill-opacity:0.600000;stroke:black;stroke-width:1.000000;stroke-opacity:1.000000" />




<ellipse
rx="35.000000"
ry="20.000000"
cx="172.000000"
cy="371.894192"
id="SmallMolecule_9986322786dda330a8291430b6d0ba11"
style="fill:#EAEA3E;fill-opacity:0.600000;stroke:black;stroke-width:1.000000;stroke-opacity:0.000000" />


<path
d="M 154.5 389.214699700121 A 35 20 1 1 0 154.5 354.573683548743"
id="SmallMolecule_9986322786dda330a8291430b6d0ba11"
style="fill:#FFFF00;fill-opacity:0.600000;stroke-width:1;stroke:black;stroke-opacity:0.000000"
transform = "rotate(0.000000 0.000000 0.000000)"
/>


<path
d="M 172 391.894191624432 A 35 20 1 1 0 172 351.894191624432"
id="SmallMolecule_9986322786dda330a8291430b6d0ba11"
style="fill:white;fill-opacity:0.600000;stroke-width:1;stroke:black;stroke-opacity:0.000000"
transform = "rotate(0.000000 0.000000 0.000000)"
/>


<path
d="M 172 391.894191624432 A 35 20 1 1 0 172 351.894191624432"
id="SmallMolecule_9986322786dda330a8291430b6d0ba11"
style="fill:#FFFF00;fill-opacity:0.600000;stroke-width:1;stroke:black;stroke-opacity:0.000000"
transform = "rotate(0.000000 0.000000 0.000000)"
/>


<path
d="M 189.5 389.214699700121 A 35 20 1 0 0 189.5 354.573683548743"
id="SmallMolecule_9986322786dda330a8291430b6d0ba11"
style="fill:white;fill-opacity:0.600000;stroke-width:1;stroke:black;stroke-opacity:0.000000"
transform = "rotate(0.000000 0.000000 0.000000)"
/>


<path
d="M 189.5 389.214699700121 A 35 20 1 0 0 189.5 354.573683548743"
id="SmallMolecule_9986322786dda330a8291430b6d0ba11"
style="fill:#9797CC;fill-opacity:0.600000;stroke-width:1;stroke:black;stroke-opacity:0.000000"
transform = "rotate(0.000000 0.000000 0.000000)"
/>


<path
d="M 207 371.894191624432 A 35 20 1 0 0 207 371.894191624432"
id="SmallMolecule_9986322786dda330a8291430b6d0ba11"
style="fill:white;fill-opacity:0.600000;stroke-width:1;stroke:black;stroke-opacity:0.000000"
transform = "rotate(0.000000 0.000000 0.000000)"
/>


<ellipse
rx="35.000000"
ry="20.000000"
cx="172.000000"
cy="371.894192"
id="SmallMolecule_9986322786dda330a8291430b6d0ba11"
style="fill:white;fill-opacity:0.000000;stroke:black;stroke-width:1.000000;stroke-opacity:1.000000" />



<text
x="172.000000"
y="368.894192"
id="SmallMolecule_9986322786dda330a8291430b6d0ba11"
style="font-size:18.000000px;text-anchor:middle;font-family:Arial,Helvetica;alignment-baseline:baseline;stroke.opacity:1;dominant-baseline:baseline"
fill="black"
>
simple_</text>


<text
x="172.000000"
y="386.894192"
id="SmallMolecule_9986322786dda330a8291430b6d0ba11"
style="font-size:18.000000px;text-anchor:middle;font-family:Arial,Helvetica;alignment-baseline:baseline;stroke.opacity:1;dominant-baseline:baseline"
fill="black"
>
chemical_1</text>




<path d="M148.000000 235.000000 C 152.000000 262.000000, 163.000000 320.000000,168.000000 351.000000" stroke="black"  fill="transparent"/>

<line
x1="163" y1="320" x2="168" y2="351"
id="0"
style="stroke:black;stroke-width:1.000000;stroke-opacity:0" />


<line
x1="152" y1="262" x2="148" y2="235"
id="SmallMolecule_9986322786dda330a8291430b6d0ba11--to--reactome_R-HSA-4551297_LEFT_TO_RIGHT-input"
style="stroke:black;stroke-width:1.000000;stroke-opacity:0" />


<path d="M159.000000 494.000000 C 151.000000 470.000000, 138.000000 430.000000,133.000000 395.000000" stroke="black"  fill="transparent"/>
<path d="M133.000000 395.000000 C 125.000000 336.000000, 137.000000 265.000000,143.000000 235.000000" stroke="black"  fill="transparent"/>

<line
x1="151" y1="470" x2="159" y2="494"
id="0"
style="stroke:black;stroke-width:1.000000;stroke-opacity:0" />


<line
x1="137" y1="265" x2="143" y2="235"
id="SmallMolecule_1b45fa12e0e7958c48c01a283f2ef2ae--to--reactome_R-HSA-4551297_LEFT_TO_RIGHT-input"
style="stroke:black;stroke-width:1.000000;stroke-opacity:0" />






<rect
width="2.485149"
height="21.428571"
rx="0.000000"
ry="0.000000"
x="216.514851"
y="85.500000"
id="col.pan"
style="fill:#FFFF00;fill-opacity:1.000000;stroke:black;stroke-width:0.000000;stroke-opacity:0.000000" />


<rect
width="2.485149"
height="21.428571"
rx="0.000000"
ry="0.000000"
x="215.029703"
y="85.500000"
id="col.pan"
style="fill:#FEFE04;fill-opacity:1.000000;stroke:black;stroke-width:0.000000;stroke-opacity:0.000000" />


<rect
width="2.485149"
height="21.428571"
rx="0.000000"
ry="0.000000"
x="213.544554"
y="85.500000"
id="col.pan"
style="fill:#FCFC08;fill-opacity:1.000000;stroke:black;stroke-width:0.000000;stroke-opacity:0.000000" />


<rect
width="2.485149"
height="21.428571"
rx="0.000000"
ry="0.000000"
x="212.059406"
y="85.500000"
id="col.pan"
style="fill:#FBFB0B;fill-opacity:1.000000;stroke:black;stroke-width:0.000000;stroke-opacity:0.000000" />


<rect
width="2.485149"
height="21.428571"
rx="0.000000"
ry="0.000000"
x="210.574257"
y="85.500000"
id="col.pan"
style="fill:#FAFA0F;fill-opacity:1.000000;stroke:black;stroke-width:0.000000;stroke-opacity:0.000000" />


<rect
width="2.485149"
height="21.428571"
rx="0.000000"
ry="0.000000"
x="209.089109"
y="85.500000"
id="col.pan"
style="fill:#F9F913;fill-opacity:1.000000;stroke:black;stroke-width:0.000000;stroke-opacity:0.000000" />


<rect
width="2.485149"
height="21.428571"
rx="0.000000"
ry="0.000000"
x="207.603960"
y="85.500000"
id="col.pan"
style="fill:#F7F717;fill-opacity:1.000000;stroke:black;stroke-width:0.000000;stroke-opacity:0.000000" />


<rect
width="2.485149"
height="21.428571"
rx="0.000000"
ry="0.000000"
x="206.118812"
y="85.500000"
id="col.pan"
style="fill:#F6F61B;fill-opacity:1.000000;stroke:black;stroke-width:0.000000;stroke-opacity:0.000000" />


<rect
width="2.485149"
height="21.428571"
rx="0.000000"
ry="0.000000"
x="204.633663"
y="85.500000"
id="col.pan"
style="fill:#F5F51E;fill-opacity:1.000000;stroke:black;stroke-width:0.000000;stroke-opacity:0.000000" />


<rect
width="2.485149"
height="21.428571"
rx="0.000000"
ry="0.000000"
x="203.148515"
y="85.500000"
id="col.pan"
style="fill:#F3F322;fill-opacity:1.000000;stroke:black;stroke-width:0.000000;stroke-opacity:0.000000" />


<rect
width="2.485149"
height="21.428571"
rx="0.000000"
ry="0.000000"
x="201.663366"
y="85.500000"
id="col.pan"
style="fill:#F2F226;fill-opacity:1.000000;stroke:black;stroke-width:0.000000;stroke-opacity:0.000000" />


<rect
width="2.485149"
height="21.428571"
rx="0.000000"
ry="0.000000"
x="200.178218"
y="85.500000"
id="col.pan"
style="fill:#F1F12A;fill-opacity:1.000000;stroke:black;stroke-width:0.000000;stroke-opacity:0.000000" />


<rect
width="2.485149"
height="21.428571"
rx="0.000000"
ry="0.000000"
x="198.693069"
y="85.500000"
id="col.pan"
style="fill:#EFEF2E;fill-opacity:1.000000;stroke:black;stroke-width:0.000000;stroke-opacity:0.000000" />


<rect
width="2.485149"
height="21.428571"
rx="0.000000"
ry="0.000000"
x="197.207921"
y="85.500000"
id="col.pan"
style="fill:#EEEE31;fill-opacity:1.000000;stroke:black;stroke-width:0.000000;stroke-opacity:0.000000" />


<rect
width="2.485149"
height="21.428571"
rx="0.000000"
ry="0.000000"
x="195.722772"
y="85.500000"
id="col.pan"
style="fill:#EDED35;fill-opacity:1.000000;stroke:black;stroke-width:0.000000;stroke-opacity:0.000000" />


<rect
width="2.485149"
height="21.428571"
rx="0.000000"
ry="0.000000"
x="194.237624"
y="85.500000"
id="col.pan"
style="fill:#ECEC39;fill-opacity:1.000000;stroke:black;stroke-width:0.000000;stroke-opacity:0.000000" />


<rect
width="2.485149"
height="21.428571"
rx="0.000000"
ry="0.000000"
x="192.752475"
y="85.500000"
id="col.pan"
style="fill:#EAEA3D;fill-opacity:1.000000;stroke:black;stroke-width:0.000000;stroke-opacity:0.000000" />


<rect
width="2.485149"
height="21.428571"
rx="0.000000"
ry="0.000000"
x="191.267327"
y="85.500000"
id="col.pan"
style="fill:#E9E941;fill-opacity:1.000000;stroke:black;stroke-width:0.000000;stroke-opacity:0.000000" />


<rect
width="2.485149"
height="21.428571"
rx="0.000000"
ry="0.000000"
x="189.782178"
y="85.500000"
id="col.pan"
style="fill:#E8E844;fill-opacity:1.000000;stroke:black;stroke-width:0.000000;stroke-opacity:0.000000" />


<rect
width="2.485149"
height="21.428571"
rx="0.000000"
ry="0.000000"
x="188.297030"
y="85.500000"
id="col.pan"
style="fill:#E6E648;fill-opacity:1.000000;stroke:black;stroke-width:0.000000;stroke-opacity:0.000000" />


<rect
width="2.485149"
height="21.428571"
rx="0.000000"
ry="0.000000"
x="186.811881"
y="85.500000"
id="col.pan"
style="fill:#E5E54C;fill-opacity:1.000000;stroke:black;stroke-width:0.000000;stroke-opacity:0.000000" />


<rect
width="2.485149"
height="21.428571"
rx="0.000000"
ry="0.000000"
x="185.326733"
y="85.500000"
id="col.pan"
style="fill:#E4E450;fill-opacity:1.000000;stroke:black;stroke-width:0.000000;stroke-opacity:0.000000" />


<rect
width="2.485149"
height="21.428571"
rx="0.000000"
ry="0.000000"
x="183.841584"
y="85.500000"
id="col.pan"
style="fill:#E2E254;fill-opacity:1.000000;stroke:black;stroke-width:0.000000;stroke-opacity:0.000000" />


<rect
width="2.485149"
height="21.428571"
rx="0.000000"
ry="0.000000"
x="182.356436"
y="85.500000"
id="col.pan"
style="fill:#E1E157;fill-opacity:1.000000;stroke:black;stroke-width:0.000000;stroke-opacity:0.000000" />


<rect
width="2.485149"
height="21.428571"
rx="0.000000"
ry="0.000000"
x="180.871287"
y="85.500000"
id="col.pan"
style="fill:#E0E05B;fill-opacity:1.000000;stroke:black;stroke-width:0.000000;stroke-opacity:0.000000" />


<rect
width="2.485149"
height="21.428571"
rx="0.000000"
ry="0.000000"
x="179.386139"
y="85.500000"
id="col.pan"
style="fill:#DFDF5F;fill-opacity:1.000000;stroke:black;stroke-width:0.000000;stroke-opacity:0.000000" />


<rect
width="2.485149"
height="21.428571"
rx="0.000000"
ry="0.000000"
x="177.900990"
y="85.500000"
id="col.pan"
style="fill:#DDDD63;fill-opacity:1.000000;stroke:black;stroke-width:0.000000;stroke-opacity:0.000000" />


<rect
width="2.485149"
height="21.428571"
rx="0.000000"
ry="0.000000"
x="176.415842"
y="85.500000"
id="col.pan"
style="fill:#DCDC67;fill-opacity:1.000000;stroke:black;stroke-width:0.000000;stroke-opacity:0.000000" />


<rect
width="2.485149"
height="21.428571"
rx="0.000000"
ry="0.000000"
x="174.930693"
y="85.500000"
id="col.pan"
style="fill:#DBDB6A;fill-opacity:1.000000;stroke:black;stroke-width:0.000000;stroke-opacity:0.000000" />


<rect
width="2.485149"
height="21.428571"
rx="0.000000"
ry="0.000000"
x="173.445545"
y="85.500000"
id="col.pan"
style="fill:#D9D96E;fill-opacity:1.000000;stroke:black;stroke-width:0.000000;stroke-opacity:0.000000" />


<rect
width="2.485149"
height="21.428571"
rx="0.000000"
ry="0.000000"
x="171.960396"
y="85.500000"
id="col.pan"
style="fill:#D8D872;fill-opacity:1.000000;stroke:black;stroke-width:0.000000;stroke-opacity:0.000000" />


<rect
width="2.485149"
height="21.428571"
rx="0.000000"
ry="0.000000"
x="170.475248"
y="85.500000"
id="col.pan"
style="fill:#D7D776;fill-opacity:1.000000;stroke:black;stroke-width:0.000000;stroke-opacity:0.000000" />


<rect
width="2.485149"
height="21.428571"
rx="0.000000"
ry="0.000000"
x="168.990099"
y="85.500000"
id="col.pan"
style="fill:#D5D57A;fill-opacity:1.000000;stroke:black;stroke-width:0.000000;stroke-opacity:0.000000" />


<rect
width="2.485149"
height="21.428571"
rx="0.000000"
ry="0.000000"
x="167.504950"
y="85.500000"
id="col.pan"
style="fill:#D4D47D;fill-opacity:1.000000;stroke:black;stroke-width:0.000000;stroke-opacity:0.000000" />


<rect
width="2.485149"
height="21.428571"
rx="0.000000"
ry="0.000000"
x="166.019802"
y="85.500000"
id="col.pan"
style="fill:#D3D381;fill-opacity:1.000000;stroke:black;stroke-width:0.000000;stroke-opacity:0.000000" />


<rect
width="2.485149"
height="21.428571"
rx="0.000000"
ry="0.000000"
x="164.534653"
y="85.500000"
id="col.pan"
style="fill:#D2D285;fill-opacity:1.000000;stroke:black;stroke-width:0.000000;stroke-opacity:0.000000" />


<rect
width="2.485149"
height="21.428571"
rx="0.000000"
ry="0.000000"
x="163.049505"
y="85.500000"
id="col.pan"
style="fill:#D0D089;fill-opacity:1.000000;stroke:black;stroke-width:0.000000;stroke-opacity:0.000000" />


<rect
width="2.485149"
height="21.428571"
rx="0.000000"
ry="0.000000"
x="161.564356"
y="85.500000"
id="col.pan"
style="fill:#CFCF8D;fill-opacity:1.000000;stroke:black;stroke-width:0.000000;stroke-opacity:0.000000" />


<rect
width="2.485149"
height="21.428571"
rx="0.000000"
ry="0.000000"
x="160.079208"
y="85.500000"
id="col.pan"
style="fill:#CECE90;fill-opacity:1.000000;stroke:black;stroke-width:0.000000;stroke-opacity:0.000000" />


<rect
width="2.485149"
height="21.428571"
rx="0.000000"
ry="0.000000"
x="158.594059"
y="85.500000"
id="col.pan"
style="fill:#CCCC94;fill-opacity:1.000000;stroke:black;stroke-width:0.000000;stroke-opacity:0.000000" />


<rect
width="2.485149"
height="21.428571"
rx="0.000000"
ry="0.000000"
x="157.108911"
y="85.500000"
id="col.pan"
style="fill:#CBCB98;fill-opacity:1.000000;stroke:black;stroke-width:0.000000;stroke-opacity:0.000000" />


<rect
width="2.485149"
height="21.428571"
rx="0.000000"
ry="0.000000"
x="155.623762"
y="85.500000"
id="col.pan"
style="fill:#CACA9C;fill-opacity:1.000000;stroke:black;stroke-width:0.000000;stroke-opacity:0.000000" />


<rect
width="2.485149"
height="21.428571"
rx="0.000000"
ry="0.000000"
x="154.138614"
y="85.500000"
id="col.pan"
style="fill:#C8C8A0;fill-opacity:1.000000;stroke:black;stroke-width:0.000000;stroke-opacity:0.000000" />


<rect
width="2.485149"
height="21.428571"
rx="0.000000"
ry="0.000000"
x="152.653465"
y="85.500000"
id="col.pan"
style="fill:#C7C7A3;fill-opacity:1.000000;stroke:black;stroke-width:0.000000;stroke-opacity:0.000000" />


<rect
width="2.485149"
height="21.428571"
rx="0.000000"
ry="0.000000"
x="151.168317"
y="85.500000"
id="col.pan"
style="fill:#C6C6A7;fill-opacity:1.000000;stroke:black;stroke-width:0.000000;stroke-opacity:0.000000" />


<rect
width="2.485149"
height="21.428571"
rx="0.000000"
ry="0.000000"
x="149.683168"
y="85.500000"
id="col.pan"
style="fill:#C5C5AB;fill-opacity:1.000000;stroke:black;stroke-width:0.000000;stroke-opacity:0.000000" />


<rect
width="2.485149"
height="21.428571"
rx="0.000000"
ry="0.000000"
x="148.198020"
y="85.500000"
id="col.pan"
style="fill:#C3C3AF;fill-opacity:1.000000;stroke:black;stroke-width:0.000000;stroke-opacity:0.000000" />


<rect
width="2.485149"
height="21.428571"
rx="0.000000"
ry="0.000000"
x="146.712871"
y="85.500000"
id="col.pan"
style="fill:#C2C2B3;fill-opacity:1.000000;stroke:black;stroke-width:0.000000;stroke-opacity:0.000000" />


<rect
width="2.485149"
height="21.428571"
rx="0.000000"
ry="0.000000"
x="145.227723"
y="85.500000"
id="col.pan"
style="fill:#C1C1B6;fill-opacity:1.000000;stroke:black;stroke-width:0.000000;stroke-opacity:0.000000" />


<rect
width="2.485149"
height="21.428571"
rx="0.000000"
ry="0.000000"
x="143.742574"
y="85.500000"
id="col.pan"
style="fill:#BFBFBA;fill-opacity:1.000000;stroke:black;stroke-width:0.000000;stroke-opacity:0.000000" />


<rect
width="2.485149"
height="21.428571"
rx="0.000000"
ry="0.000000"
x="142.257426"
y="85.500000"
id="col.pan"
style="fill:#BEBEBE;fill-opacity:1.000000;stroke:black;stroke-width:0.000000;stroke-opacity:0.000000" />


<rect
width="2.485149"
height="21.428571"
rx="0.000000"
ry="0.000000"
x="140.772277"
y="85.500000"
id="col.pan"
style="fill:#BABABF;fill-opacity:1.000000;stroke:black;stroke-width:0.000000;stroke-opacity:0.000000" />


<rect
width="2.485149"
height="21.428571"
rx="0.000000"
ry="0.000000"
x="139.287129"
y="85.500000"
id="col.pan"
style="fill:#B6B6C1;fill-opacity:1.000000;stroke:black;stroke-width:0.000000;stroke-opacity:0.000000" />


<rect
width="2.485149"
height="21.428571"
rx="0.000000"
ry="0.000000"
x="137.801980"
y="85.500000"
id="col.pan"
style="fill:#B3B3C2;fill-opacity:1.000000;stroke:black;stroke-width:0.000000;stroke-opacity:0.000000" />


<rect
width="2.485149"
height="21.428571"
rx="0.000000"
ry="0.000000"
x="136.316832"
y="85.500000"
id="col.pan"
style="fill:#AFAFC3;fill-opacity:1.000000;stroke:black;stroke-width:0.000000;stroke-opacity:0.000000" />


<rect
width="2.485149"
height="21.428571"
rx="0.000000"
ry="0.000000"
x="134.831683"
y="85.500000"
id="col.pan"
style="fill:#ABABC5;fill-opacity:1.000000;stroke:black;stroke-width:0.000000;stroke-opacity:0.000000" />


<rect
width="2.485149"
height="21.428571"
rx="0.000000"
ry="0.000000"
x="133.346535"
y="85.500000"
id="col.pan"
style="fill:#A7A7C6;fill-opacity:1.000000;stroke:black;stroke-width:0.000000;stroke-opacity:0.000000" />


<rect
width="2.485149"
height="21.428571"
rx="0.000000"
ry="0.000000"
x="131.861386"
y="85.500000"
id="col.pan"
style="fill:#A3A3C7;fill-opacity:1.000000;stroke:black;stroke-width:0.000000;stroke-opacity:0.000000" />


<rect
width="2.485149"
height="21.428571"
rx="0.000000"
ry="0.000000"
x="130.376238"
y="85.500000"
id="col.pan"
style="fill:#A0A0C8;fill-opacity:1.000000;stroke:black;stroke-width:0.000000;stroke-opacity:0.000000" />


<rect
width="2.485149"
height="21.428571"
rx="0.000000"
ry="0.000000"
x="128.891089"
y="85.500000"
id="col.pan"
style="fill:#9C9CCA;fill-opacity:1.000000;stroke:black;stroke-width:0.000000;stroke-opacity:0.000000" />


<rect
width="2.485149"
height="21.428571"
rx="0.000000"
ry="0.000000"
x="127.405941"
y="85.500000"
id="col.pan"
style="fill:#9898CB;fill-opacity:1.000000;stroke:black;stroke-width:0.000000;stroke-opacity:0.000000" />


<rect
width="2.485149"
height="21.428571"
rx="0.000000"
ry="0.000000"
x="125.920792"
y="85.500000"
id="col.pan"
style="fill:#9494CC;fill-opacity:1.000000;stroke:black;stroke-width:0.000000;stroke-opacity:0.000000" />


<rect
width="2.485149"
height="21.428571"
rx="0.000000"
ry="0.000000"
x="124.435644"
y="85.500000"
id="col.pan"
style="fill:#9090CE;fill-opacity:1.000000;stroke:black;stroke-width:0.000000;stroke-opacity:0.000000" />


<rect
width="2.485149"
height="21.428571"
rx="0.000000"
ry="0.000000"
x="122.950495"
y="85.500000"
id="col.pan"
style="fill:#8D8DCF;fill-opacity:1.000000;stroke:black;stroke-width:0.000000;stroke-opacity:0.000000" />


<rect
width="2.485149"
height="21.428571"
rx="0.000000"
ry="0.000000"
x="121.465347"
y="85.500000"
id="col.pan"
style="fill:#8989D0;fill-opacity:1.000000;stroke:black;stroke-width:0.000000;stroke-opacity:0.000000" />


<rect
width="2.485149"
height="21.428571"
rx="0.000000"
ry="0.000000"
x="119.980198"
y="85.500000"
id="col.pan"
style="fill:#8585D2;fill-opacity:1.000000;stroke:black;stroke-width:0.000000;stroke-opacity:0.000000" />


<rect
width="2.485149"
height="21.428571"
rx="0.000000"
ry="0.000000"
x="118.495050"
y="85.500000"
id="col.pan"
style="fill:#8181D3;fill-opacity:1.000000;stroke:black;stroke-width:0.000000;stroke-opacity:0.000000" />


<rect
width="2.485149"
height="21.428571"
rx="0.000000"
ry="0.000000"
x="117.009901"
y="85.500000"
id="col.pan"
style="fill:#7D7DD4;fill-opacity:1.000000;stroke:black;stroke-width:0.000000;stroke-opacity:0.000000" />


<rect
width="2.485149"
height="21.428571"
rx="0.000000"
ry="0.000000"
x="115.524752"
y="85.500000"
id="col.pan"
style="fill:#7A7AD5;fill-opacity:1.000000;stroke:black;stroke-width:0.000000;stroke-opacity:0.000000" />


<rect
width="2.485149"
height="21.428571"
rx="0.000000"
ry="0.000000"
x="114.039604"
y="85.500000"
id="col.pan"
style="fill:#7676D7;fill-opacity:1.000000;stroke:black;stroke-width:0.000000;stroke-opacity:0.000000" />


<rect
width="2.485149"
height="21.428571"
rx="0.000000"
ry="0.000000"
x="112.554455"
y="85.500000"
id="col.pan"
style="fill:#7272D8;fill-opacity:1.000000;stroke:black;stroke-width:0.000000;stroke-opacity:0.000000" />


<rect
width="2.485149"
height="21.428571"
rx="0.000000"
ry="0.000000"
x="111.069307"
y="85.500000"
id="col.pan"
style="fill:#6E6ED9;fill-opacity:1.000000;stroke:black;stroke-width:0.000000;stroke-opacity:0.000000" />


<rect
width="2.485149"
height="21.428571"
rx="0.000000"
ry="0.000000"
x="109.584158"
y="85.500000"
id="col.pan"
style="fill:#6A6ADB;fill-opacity:1.000000;stroke:black;stroke-width:0.000000;stroke-opacity:0.000000" />


<rect
width="2.485149"
height="21.428571"
rx="0.000000"
ry="0.000000"
x="108.099010"
y="85.500000"
id="col.pan"
style="fill:#6767DC;fill-opacity:1.000000;stroke:black;stroke-width:0.000000;stroke-opacity:0.000000" />


<rect
width="2.485149"
height="21.428571"
rx="0.000000"
ry="0.000000"
x="106.613861"
y="85.500000"
id="col.pan"
style="fill:#6363DD;fill-opacity:1.000000;stroke:black;stroke-width:0.000000;stroke-opacity:0.000000" />


<rect
width="2.485149"
height="21.428571"
rx="0.000000"
ry="0.000000"
x="105.128713"
y="85.500000"
id="col.pan"
style="fill:#5F5FDF;fill-opacity:1.000000;stroke:black;stroke-width:0.000000;stroke-opacity:0.000000" />


<rect
width="2.485149"
height="21.428571"
rx="0.000000"
ry="0.000000"
x="103.643564"
y="85.500000"
id="col.pan"
style="fill:#5B5BE0;fill-opacity:1.000000;stroke:black;stroke-width:0.000000;stroke-opacity:0.000000" />


<rect
width="2.485149"
height="21.428571"
rx="0.000000"
ry="0.000000"
x="102.158416"
y="85.500000"
id="col.pan"
style="fill:#5757E1;fill-opacity:1.000000;stroke:black;stroke-width:0.000000;stroke-opacity:0.000000" />


<rect
width="2.485149"
height="21.428571"
rx="0.000000"
ry="0.000000"
x="100.673267"
y="85.500000"
id="col.pan"
style="fill:#5454E2;fill-opacity:1.000000;stroke:black;stroke-width:0.000000;stroke-opacity:0.000000" />


<rect
width="2.485149"
height="21.428571"
rx="0.000000"
ry="0.000000"
x="99.188119"
y="85.500000"
id="col.pan"
style="fill:#5050E4;fill-opacity:1.000000;stroke:black;stroke-width:0.000000;stroke-opacity:0.000000" />


<rect
width="2.485149"
height="21.428571"
rx="0.000000"
ry="0.000000"
x="97.702970"
y="85.500000"
id="col.pan"
style="fill:#4C4CE5;fill-opacity:1.000000;stroke:black;stroke-width:0.000000;stroke-opacity:0.000000" />


<rect
width="2.485149"
height="21.428571"
rx="0.000000"
ry="0.000000"
x="96.217822"
y="85.500000"
id="col.pan"
style="fill:#4848E6;fill-opacity:1.000000;stroke:black;stroke-width:0.000000;stroke-opacity:0.000000" />


<rect
width="2.485149"
height="21.428571"
rx="0.000000"
ry="0.000000"
x="94.732673"
y="85.500000"
id="col.pan"
style="fill:#4444E8;fill-opacity:1.000000;stroke:black;stroke-width:0.000000;stroke-opacity:0.000000" />


<rect
width="2.485149"
height="21.428571"
rx="0.000000"
ry="0.000000"
x="93.247525"
y="85.500000"
id="col.pan"
style="fill:#4141E9;fill-opacity:1.000000;stroke:black;stroke-width:0.000000;stroke-opacity:0.000000" />


<rect
width="2.485149"
height="21.428571"
rx="0.000000"
ry="0.000000"
x="91.762376"
y="85.500000"
id="col.pan"
style="fill:#3D3DEA;fill-opacity:1.000000;stroke:black;stroke-width:0.000000;stroke-opacity:0.000000" />


<rect
width="2.485149"
height="21.428571"
rx="0.000000"
ry="0.000000"
x="90.277228"
y="85.500000"
id="col.pan"
style="fill:#3939EC;fill-opacity:1.000000;stroke:black;stroke-width:0.000000;stroke-opacity:0.000000" />


<rect
width="2.485149"
height="21.428571"
rx="0.000000"
ry="0.000000"
x="88.792079"
y="85.500000"
id="col.pan"
style="fill:#3535ED;fill-opacity:1.000000;stroke:black;stroke-width:0.000000;stroke-opacity:0.000000" />


<rect
width="2.485149"
height="21.428571"
rx="0.000000"
ry="0.000000"
x="87.306931"
y="85.500000"
id="col.pan"
style="fill:#3131EE;fill-opacity:1.000000;stroke:black;stroke-width:0.000000;stroke-opacity:0.000000" />


<rect
width="2.485149"
height="21.428571"
rx="0.000000"
ry="0.000000"
x="85.821782"
y="85.500000"
id="col.pan"
style="fill:#2E2EEF;fill-opacity:1.000000;stroke:black;stroke-width:0.000000;stroke-opacity:0.000000" />


<rect
width="2.485149"
height="21.428571"
rx="0.000000"
ry="0.000000"
x="84.336634"
y="85.500000"
id="col.pan"
style="fill:#2A2AF1;fill-opacity:1.000000;stroke:black;stroke-width:0.000000;stroke-opacity:0.000000" />


<rect
width="2.485149"
height="21.428571"
rx="0.000000"
ry="0.000000"
x="82.851485"
y="85.500000"
id="col.pan"
style="fill:#2626F2;fill-opacity:1.000000;stroke:black;stroke-width:0.000000;stroke-opacity:0.000000" />


<rect
width="2.485149"
height="21.428571"
rx="0.000000"
ry="0.000000"
x="81.366337"
y="85.500000"
id="col.pan"
style="fill:#2222F3;fill-opacity:1.000000;stroke:black;stroke-width:0.000000;stroke-opacity:0.000000" />


<rect
width="2.485149"
height="21.428571"
rx="0.000000"
ry="0.000000"
x="79.881188"
y="85.500000"
id="col.pan"
style="fill:#1E1EF5;fill-opacity:1.000000;stroke:black;stroke-width:0.000000;stroke-opacity:0.000000" />


<rect
width="2.485149"
height="21.428571"
rx="0.000000"
ry="0.000000"
x="78.396040"
y="85.500000"
id="col.pan"
style="fill:#1B1BF6;fill-opacity:1.000000;stroke:black;stroke-width:0.000000;stroke-opacity:0.000000" />


<rect
width="2.485149"
height="21.428571"
rx="0.000000"
ry="0.000000"
x="76.910891"
y="85.500000"
id="col.pan"
style="fill:#1717F7;fill-opacity:1.000000;stroke:black;stroke-width:0.000000;stroke-opacity:0.000000" />


<rect
width="2.485149"
height="21.428571"
rx="0.000000"
ry="0.000000"
x="75.425743"
y="85.500000"
id="col.pan"
style="fill:#1313F9;fill-opacity:1.000000;stroke:black;stroke-width:0.000000;stroke-opacity:0.000000" />


<rect
width="2.485149"
height="21.428571"
rx="0.000000"
ry="0.000000"
x="73.940594"
y="85.500000"
id="col.pan"
style="fill:#0F0FFA;fill-opacity:1.000000;stroke:black;stroke-width:0.000000;stroke-opacity:0.000000" />


<rect
width="2.485149"
height="21.428571"
rx="0.000000"
ry="0.000000"
x="72.455446"
y="85.500000"
id="col.pan"
style="fill:#0B0BFB;fill-opacity:1.000000;stroke:black;stroke-width:0.000000;stroke-opacity:0.000000" />


<rect
width="2.485149"
height="21.428571"
rx="0.000000"
ry="0.000000"
x="70.970297"
y="85.500000"
id="col.pan"
style="fill:#0808FC;fill-opacity:1.000000;stroke:black;stroke-width:0.000000;stroke-opacity:0.000000" />


<rect
width="2.485149"
height="21.428571"
rx="0.000000"
ry="0.000000"
x="69.485149"
y="85.500000"
id="col.pan"
style="fill:#0404FE;fill-opacity:1.000000;stroke:black;stroke-width:0.000000;stroke-opacity:0.000000" />


<rect
width="2.485149"
height="21.428571"
rx="0.000000"
ry="0.000000"
x="68.000000"
y="85.500000"
id="col.pan"
style="fill:#0000FF;fill-opacity:1.000000;stroke:black;stroke-width:0.000000;stroke-opacity:0.000000" />


<line
x1="68" y1="85.5" x2="68" y2="112.285714285714"
id="tick"
style="stroke:black;stroke-width:2.000000;stroke-opacity:1" />


<line
x1="83" y1="85.5" x2="83" y2="112.285714285714"
id="tick"
style="stroke:black;stroke-width:2.000000;stroke-opacity:1" />


<line
x1="98" y1="85.5" x2="98" y2="112.285714285714"
id="tick"
style="stroke:black;stroke-width:2.000000;stroke-opacity:1" />


<line
x1="113" y1="85.5" x2="113" y2="112.285714285714"
id="tick"
style="stroke:black;stroke-width:2.000000;stroke-opacity:1" />


<line
x1="128" y1="85.5" x2="128" y2="112.285714285714"
id="tick"
style="stroke:black;stroke-width:2.000000;stroke-opacity:1" />


<line
x1="143" y1="85.5" x2="143" y2="112.285714285714"
id="tick"
style="stroke:black;stroke-width:2.000000;stroke-opacity:1" />


<line
x1="158" y1="85.5" x2="158" y2="112.285714285714"
id="tick"
style="stroke:black;stroke-width:2.000000;stroke-opacity:1" />


<line
x1="173" y1="85.5" x2="173" y2="112.285714285714"
id="tick"
style="stroke:black;stroke-width:2.000000;stroke-opacity:1" />


<line
x1="188" y1="85.5" x2="188" y2="112.285714285714"
id="tick"
style="stroke:black;stroke-width:2.000000;stroke-opacity:1" />


<line
x1="203" y1="85.5" x2="203" y2="112.285714285714"
id="tick"
style="stroke:black;stroke-width:2.000000;stroke-opacity:1" />


<line
x1="218" y1="85.5" x2="218" y2="112.285714285714"
id="tick"
style="stroke:black;stroke-width:2.000000;stroke-opacity:1" />


<text
x="217.257426"
y="135.500000"
id="color.panel.max.value"
style="font-size:21.428571px;text-anchor:middle;font-family:Arial,Helvetica;alignment-baseline:baseline;stroke.opacity:1;dominant-baseline:baseline"
fill="black"
>
1</text>


<text
x="68.742574"
y="135.500000"
id="color.panel.low.value"
style="font-size:21.428571px;text-anchor:middle;font-family:Arial,Helvetica;alignment-baseline:baseline;stroke.opacity:1;dominant-baseline:baseline"
fill="black"
>
-1</text>


<text
x="144.485149"
y="135.500000"
id="color.panel.mid.value"
style="font-size:21.428571px;text-anchor:middle;font-family:Arial,Helvetica;alignment-baseline:baseline;stroke.opacity:1;dominant-baseline:baseline"
fill="black"
>
0</text>

</svg>
